<svg width="12" height="12" viewBox="0 0 12 12" fill="none" xmlns="http://www.w3.org/2000/svg">
<path fill-rule="evenodd" clip-rule="evenodd" d="M9 4.14012V4.00012C9 2.34612 7.654 1.00012 6 1.00012C4.346 1.00012 3 2.34612 3 4.00012C3 4.27612 3.224 4.50012 3.5 4.50012C3.776 4.50012 4 4.27612 4 4.00012C4 2.89712 4.897 2.00012 6 2.00012C7.103 2.00012 8 2.89712 8 4.00012V4.14012C8 5.08612 7.546 5.48412 7.02 5.94512C6.908 6.04312 6.798 6.14012 6.697 6.23712L6.271 6.64712C5.793 7.10812 5.507 7.80212 5.507 8.50012C5.507 8.77612 5.731 9.00012 6.007 9.00012C6.284 9.00012 6.507 8.77612 6.507 8.50012C6.507 8.07412 6.683 7.64012 6.965 7.36712L7.392 6.95712C7.482 6.86912 7.58 6.78412 7.679 6.69712C8.237 6.20812 9 5.53912 9 4.14012ZM6 10C5.724 10 5.5 10.224 5.5 10.5C5.5 10.776 5.724 11 6 11C6.276 11 6.5 10.776 6.5 10.5C6.5 10.224 6.276 10 6 10Z"/>
</svg>