<?xml version="1.0" standalone="no"?>
<!DOCTYPE svg PUBLIC "-//W3C//DTD SVG 1.1//EN" "http://www.w3.org/Graphics/SVG/1.1/DTD/svg11.dtd" >
<svg xmlns="http://www.w3.org/2000/svg" id="add-contact_24">
<path unicode="&#xe906;" transform="scale(1,-1)" id="add-contact_24" data-tags="add-contact_24" d="M724.493 106.667l-637.739-0.128c-0.469 0.256-1.963 2.304-1.28 5.291l26.027 115.584c17.579 79.616 79.701 135.253 151.083 135.253h285.483c71.381 0 133.504-55.637 151.083-135.339l26.027-115.413c0.683-3.072-0.811-5.12-0.683-5.248v0zM213.346 597.333c0 105.856 86.101 192 192 192 105.856 0 192-86.144 192-192s-86.144-192-192-192c-105.899 0-192 86.144-192 192v0zM740.791 236.629c-21.931 99.328-101.205 168.704-192.725 168.704h-8.235c60.459 42.496 100.181 112.64 100.181 192 0 129.408-105.301 234.667-234.667 234.667-129.408 0-234.667-105.259-234.667-234.667 0-79.36 39.68-149.504 100.139-192h-8.235c-91.52 0-170.795-69.376-192.725-168.619l-26.027-115.627c-3.2-14.421 0.299-29.696 9.301-40.917 8.235-10.283 20.309-16.171 33.024-16.171h638.336c12.715 0 24.789 5.888 33.024 16.171 9.003 11.221 12.501 26.496 9.301 41.003l-26.027 115.456zM959.983 490.667h-106.709v106.709c0 11.819-9.557 21.333-21.333 21.333-11.819 0-21.333-9.515-21.333-21.333v-106.709h-106.709c-11.819 0-21.333-9.557-21.333-21.333s9.515-21.333 21.333-21.333h106.709v-106.709c0-11.819 9.515-21.333 21.333-21.333 11.776 0 21.333 9.515 21.333 21.333v106.709h106.709c11.776 0 21.333 9.557 21.333 21.333s-9.557 21.333-21.333 21.333z" />
</svg>
