<svg width="12" height="12" viewBox="0 0 12 12" fill="none" xmlns="http://www.w3.org/2000/svg">
<path fill-rule="evenodd" clip-rule="evenodd" d="M9.99997 4.00056C9.44797 4.00056 8.99997 4.44756 8.99997 5.00056C8.99997 5.36656 9.20697 5.67256 9.49997 5.84756V8.49956C9.49997 8.77456 9.72497 8.99956 9.99997 8.99956C10.275 8.99956 10.5 8.77456 10.5 8.49956V5.84756C10.793 5.67256 11 5.36656 11 5.00056C11 4.44756 10.552 4.00056 9.99997 4.00056ZM8.49997 7.15286V4.49986C8.49997 4.22386 8.27497 3.99986 7.99997 3.99986C7.72497 3.99986 7.49997 4.22386 7.49997 4.49986V7.15286C7.20697 7.32786 6.99997 7.63286 6.99997 7.99986C6.99997 8.55186 7.44797 8.99986 7.99997 8.99986C8.55197 8.99986 8.99997 8.55186 8.99997 7.99986C8.99997 7.63286 8.79297 7.32786 8.49997 7.15286ZM3.74757 -0.000244141C2.23257 -0.000244141 0.999573 1.24076 0.999573 2.76476V7.61776C0.999573 8.96976 1.97157 10.0938 3.24757 10.3318V10.9998H2.14257C1.86657 10.9998 1.64257 11.2238 1.64257 11.4998C1.64257 11.7768 1.86657 11.9998 2.14257 11.9998H5.35357C5.63057 11.9998 5.85357 11.7768 5.85357 11.4998C5.85357 11.2238 5.63057 10.9998 5.35357 10.9998H4.24757V10.3318C5.52457 10.0938 6.49657 8.96976 6.49657 7.61776V2.76476C6.49657 1.24076 5.26357 -0.000244141 3.74757 -0.000244141ZM5.49657 7.61776C5.49657 8.59076 4.71257 9.38276 3.74757 9.38276C2.78457 9.38276 1.99957 8.59076 1.99957 7.61776V2.76476C1.99957 1.79176 2.78457 0.999756 3.74757 0.999756C4.71257 0.999756 5.49657 1.79176 5.49657 2.76476V7.61776Z"/>
</svg>
