<?xml version="1.0" standalone="no"?>
<!DOCTYPE svg PUBLIC "-//W3C//DTD SVG 1.1//EN" "http://www.w3.org/Graphics/SVG/1.1/DTD/svg11.dtd" >
<svg xmlns="http://www.w3.org/2000/svg" id="adjust_12">
<path unicode="&#xf00b;" transform="translate(0.000000, 2.000000)" id="adjust_12" data-tags="adjust_12" d="M8.08535285,7 L0.5,7 C0.223857625,7 0,6.77614237 0,6.5 C0,6.22385763 0.223857625,6 0.5,6 L8.08535285,6 C8.29127106,5.41740381 8.84689059,5 9.5,5 C10.1531094,5 10.7087289,5.41740381 10.9146471,6 L11.5,6 C11.7761424,6 12,6.22385763 12,6.5 C12,6.77614237 11.7761424,7 11.5,7 L10.9146471,7 C10.7087289,7.58259619 10.1531094,8 9.5,8 C8.84689059,8 8.29127106,7.58259619 8.08535285,7 Z M1.08535285,2 L0.5,2 C0.223857625,2 3.38176876e-17,1.77614237 0,1.5 C-3.38176876e-17,1.22385763 0.223857625,1 0.5,1 L1.08535285,1 C1.29127106,0.417403814 1.84689059,0 2.5,0 C3.15310941,0 3.70872894,0.417403814 3.91464715,1 L11.5,1 C11.7761424,1 12,1.22385763 12,1.5 C12,1.77614237 11.7761424,2 11.5,2 L3.91464715,2 C3.70872894,2.58259619 3.15310941,3 2.5,3 C1.84689059,3 1.29127106,2.58259619 1.08535285,2 Z M2.5,2 C2.77614237,2 3,1.77614237 3,1.5 C3,1.22385763 2.77614237,1 2.5,1 C2.22385763,1 2,1.22385763 2,1.5 C2,1.77614237 2.22385763,2 2.5,2 Z M9.5,7 C9.77614237,7 10,6.77614237 10,6.5 C10,6.22385763 9.77614237,6 9.5,6 C9.22385763,6 9,6.22385763 9,6.5 C9,6.77614237 9.22385763,7 9.5,7 Z" />
</svg>
