<?xml version="1.0" standalone="no"?>
<!DOCTYPE svg PUBLIC "-//W3C//DTD SVG 1.1//EN" "http://www.w3.org/Graphics/SVG/1.1/DTD/svg11.dtd" >
<svg xmlns="http://www.w3.org/2000/svg" id="admin_32">
<path unicode="&#xec0c;" transform="scale(1,1)" id="admin_32" data-tags="admin_32" d="M3.582,8 C2.546,8 1.647,8.676 1.398,9.645 L1.049,11 L5.5,11 C5.776,11 6,11.224 6,11.5 C6,11.776 5.776,12 5.5,12 L0.844,12 C0.578,12 0.334,11.881 0.173,11.672 C0.016,11.468 -0.038,11.209 0.027,10.96 L0.43,9.395 C0.778,8.043 1.985,7.092 3.4,7.015 C2.55,6.281 2,5.209 2,4 C2,1.794 3.794,0 6,0 C8.206,0 10,1.794 10,4 C10,6.206 8.206,8 6,8 L3.582,8 Z M3,4 C3,5.654 4.346,7 6,7 C7.654,7 9,5.654 9,4 C9,2.346 7.654,1 6,1 C4.346,1 3,2.346 3,4 Z M9,9.5 C9,9.776 9.224,10 9.5,10 C9.776,10 10,9.776 10,9.5 C10,9.224 9.776,9 9.5,9 C9.224,9 9,9.224 9,9.5 Z M11.482,10.067 C11.721,10.204 11.803,10.512 11.665,10.75 C11.527,10.988 11.221,11.07 10.982,10.933 L10.467,10.636 C10.33,10.753 10.173,10.846 10,10.907 L10,11.5 C10,11.775 9.775,12 9.5,12 C9.225,12 9,11.775 9,11.5 L9,10.907 C8.827,10.846 8.67,10.753 8.533,10.636 L8.018,10.933 C7.779,11.07 7.473,10.988 7.335,10.75 C7.197,10.512 7.279,10.204 7.518,10.067 L8.027,9.772 C8.011,9.684 8,9.594 8,9.5 C8,9.406 8.012,9.316 8.027,9.228 L7.518,8.933 C7.279,8.796 7.197,8.488 7.335,8.25 C7.473,8.012 7.779,7.93 8.018,8.067 L8.533,8.364 C8.67,8.247 8.827,8.154 9,8.093 L9,7.5 C9,7.225 9.225,7 9.5,7 C9.775,7 10,7.225 10,7.5 L10,8.093 C10.173,8.154 10.33,8.247 10.467,8.364 L10.982,8.067 C11.221,7.93 11.527,8.012 11.665,8.25 C11.803,8.488 11.721,8.796 11.482,8.933 L10.973,9.228 C10.988,9.316 11,9.406 11,9.5 C11,9.594 10.989,9.684 10.973,9.772 L11.482,10.067 Z" />
</svg>
