<?xml version="1.0" encoding="UTF-8" standalone="no"?>
<svg width="16px" height="16px" viewBox="0 0 16 16" version="1.1" xmlns="http://www.w3.org/2000/svg" xmlns:xlink="http://www.w3.org/1999/xlink">    
    <title>alarm-clock_16</title>
		<path id="alarm-clock_16" d="M12.4341,12.7243287 L13.8551,14.1451694 C14.0501,14.3412854 14.0501,14.6574725 13.8551,14.8535885 C13.7571,14.9506459 13.6291,14.999675 13.5011,14.999675 C13.3731,14.999675 13.2451,14.9506459 13.1471,14.8535885 L11.7271,13.4317473 C10.5901,14.4063239 9.1161,14.999675 7.5011,14.999675 C5.8861,14.999675 4.4121,14.4063239 3.2751,13.4317473 L1.8551,14.8535885 C1.7571,14.9506459 1.6291,14.999675 1.5011,14.999675 C1.3731,14.999675 1.2451,14.9506459 1.1471,14.8535885 C0.9521,14.6574725 0.9521,14.3412854 1.1471,14.1451694 L2.5681,12.7243287 C1.5931,11.5866556 1.0011,10.111783 1.0011,8.49582687 C1.0011,5.07280159 3.6461,2.27314513 7.0011,2.01699357 L7.0011,1.49168277 C7.0011,1.21651996 7.2261,0.99138676 7.5011,0.99138676 C7.7761,0.99138676 8.0011,1.21651996 8.0011,1.49168277 L8.0011,2.01699357 C11.3561,2.27314513 14.0011,5.07280159 14.0011,8.49582687 C14.0011,10.111783 13.4091,11.5866556 12.4341,12.7243287 Z M2.0011,8.49582687 C2.0011,11.5306224 4.4681,13.9990829 7.5011,13.9990829 C10.5341,13.9990829 13.0011,11.5306224 13.0011,8.49582687 C13.0011,5.46103129 10.5341,2.99257079 7.5011,2.99257079 C4.4681,2.99257079 2.0011,5.46103129 2.0011,8.49582687 Z M8.0011,9.14661191 L8.8551,10.1432016 C9.0501,10.338317 9.0501,10.6555047 8.8551,10.8506201 C8.7571,10.9486781 8.6291,10.9977071 8.5011,10.9977071 C8.3731,10.9977071 8.2451,10.9486781 8.1471,10.8506201 L7.1471,9.70794403 C7.0541,9.61388838 7.0011,9.4868132 7.0011,9.35373446 L7.0011,5.49445106 C7.0011,5.21728707 7.2251,4.99415505 7.5011,4.99415505 C7.7771,4.99415505 8.0011,5.21728707 8.0011,5.49445106 L8.0011,9.14661191 Z M14.1682,0.83229263 C15.2762,1.94094858 15.2762,3.74601657 14.1682,4.85467253 C14.0752,4.94872818 13.9482,5.00175955 13.8152,5.00175955 C13.6832,5.00175955 13.5552,4.94872818 13.4612,4.85467253 L10.1472,1.53971118 C10.0542,1.44565553 10.0012,1.31858035 10.0012,1.18550161 C10.0012,1.05342346 10.0542,0.926348279 10.1472,0.83229263 C11.2552,-0.277363914 13.0592,-0.278364506 14.1682,0.83229263 Z M13.7662,3.74501598 C14.1592,3.04260039 14.0572,2.13606402 13.4612,1.53971118 C12.8872,0.965371368 11.9472,0.84730151 11.2562,1.23353003 L13.7662,3.74501598 Z M1.5382,4.85457247 C1.4442,4.94862812 1.3162,5.00165949 1.1842,5.00165949 C1.0522,5.00165949 0.9252,4.94862812 0.8312,4.85457247 C-0.2768,3.74591652 -0.2768,1.94084852 0.8312,0.832192571 C1.9392,-0.277463973 3.7442,-0.276463381 4.8512,0.832192571 C4.9452,0.92624822 4.9982,1.05332341 4.9982,1.18540155 C4.9982,1.31848029 4.9452,1.44555548 4.8512,1.53961112 L1.5382,4.85457247 Z M1.5382,1.53961112 C0.9422,2.13596396 0.8412,3.04250033 1.2332,3.74491592 L3.7432,1.23342997 C3.0532,0.847201451 2.1122,0.965271308 1.5382,1.53961112 Z" ></path>    
</svg>