<?xml version="1.0" standalone="no"?>
<!DOCTYPE svg PUBLIC "-//W3C//DTD SVG 1.1//EN" "http://www.w3.org/Graphics/SVG/1.1/DTD/svg11.dtd" >
<svg xmlns="http://www.w3.org/2000/svg" id="alarm_24">
<path unicode="&#xea1c;" transform="scale(1,-1)" id="alarm_24" data-tags="alarm_24" d="M938.667 161.408c0-6.187-4.992-11.179-11.179-11.179h-831.019c-6.144 0-11.136 4.992-11.136 11.179v91.179c0 37.333 12.331 74.325 33.792 103.040l136.107 157.227c27.904 37.205 43.264 83.285 43.264 129.835v61.312c0 117.632 95.701 213.333 213.333 213.333s213.333-95.701 213.333-213.333v-61.312c0-46.549 15.36-92.629 44.245-131.029l134.528-154.837c22.4-29.909 34.731-66.901 34.731-104.235v-91.179zM511.829-20.437c-70.571 0-128 57.429-128 128h256c0-70.571-57.429-128-128-128v0zM937.088 383.616l-134.528 154.837c-22.4 29.867-34.731 66.859-34.731 104.235v61.312c0 141.184-114.816 256-256 256s-256-114.816-256-256v-61.312c0-37.376-12.331-74.368-33.792-103.040l-136.107-157.227c-27.947-37.205-43.264-83.328-43.264-129.835v-91.179c0-29.696 24.107-53.845 53.803-53.845h244.693c0-94.251 76.416-170.667 170.667-170.667s170.667 76.416 170.667 170.667h244.992c29.696 0 53.845 24.149 53.845 53.845v91.179c0 46.507-15.36 92.629-44.245 131.029v0z" />
</svg>
