<?xml version="1.0" standalone="no"?>
<!DOCTYPE svg PUBLIC "-//W3C//DTD SVG 1.1//EN" "http://www.w3.org/Graphics/SVG/1.1/DTD/svg11.dtd" >
<svg xmlns="http://www.w3.org/2000/svg" id="alert-muted-active_16">
<path unicode="&#xea1e;" transform="scale(1,-1)" id="alert-muted-active_16" data-tags="alert-muted-active_16" d="M770.195 596.928l180.48 180.48c12.48 12.48 12.48 32.704 0 45.248-12.544 12.48-32.768 12.48-45.312 0l-140.288-140.352c-22.976 123.264-125.76 213.696-253.056 213.696-142.976 0-254.976-116.8-254.976-265.984v-30.912c0-31.424-10.368-62.592-27.968-86.208l-123.072-144.192c-27.072-36.096-41.984-80.96-41.984-126.144v-117.696c0-34.048 27.712-61.696 61.696-61.696h20.224l-72.576-72.512c-12.48-12.544-12.48-32.768 0-45.312 6.272-6.208 14.464-9.344 22.656-9.344s16.384 3.136 22.592 9.344l651.584 651.584zM799.245 511.36c-3.456 4.608-6.336 9.6-9.216 14.592l-462.976-462.784h56.576c0.448-70.208 57.6-127.168 127.872-127.168s127.488 56.96 127.936 127.168h258.88c33.984 0 61.696 27.648 61.696 61.696v117.696c0 45.184-14.912 90.048-41.984 126.144l-118.784 142.656z" />
</svg>
