<?xml version="1.0" standalone="no"?>
<!DOCTYPE svg PUBLIC "-//W3C//DTD SVG 1.1//EN" "http://www.w3.org/Graphics/SVG/1.1/DTD/svg11.dtd" >
<svg xmlns="http://www.w3.org/2000/svg" id="alert-muted_16">
<path unicode="&#xe907;" transform="scale(1,-1)" id="alert-muted_16" data-tags="alert-muted_16" d="M298.624 125.376l416.128 416.128c7.104-24.768 18.304-48.512 34.304-69.824l118.208-141.952c18.56-25.024 28.736-55.936 28.736-87.168l2.304-115.392-599.68-1.792zM511.488 0c-35.008 0-63.36 28.288-63.808 63.168h127.68c-0.512-34.88-28.864-63.168-63.872-63.168v0zM128 124.864v117.696c0 31.488 10.368 62.592 27.968 86.208l123.008 144.192c27.072 36.16 42.048 80.96 42.048 126.144v30.912c0 115.136 82.112 201.984 190.976 201.984 108.8 0 193.984-88.704 193.984-201.984v-6.784l-498.112-498.112-79.872-0.256zM799.232 511.36c-18.432 24.576-28.608 54.848-29.056 85.568l180.48 180.48c12.48 12.48 12.48 32.704 0 45.248-12.544 12.48-32.768 12.48-45.312 0l-140.288-140.352c-22.976 123.264-125.76 213.696-253.056 213.696-142.976 0-254.976-116.8-254.976-265.984v-30.912c0-31.424-10.368-62.592-27.968-86.208l-123.072-144.192c-27.072-36.096-41.984-80.96-41.984-126.144v-117.696c0-34.048 27.712-61.696 61.696-61.696h20.224l-72.576-72.512c-12.48-12.544-12.48-32.768 0-45.312 6.272-6.208 14.464-9.344 22.656-9.344s16.384 3.136 22.592 9.344l117.824 117.824h147.2c0.448-70.208 57.6-127.168 127.872-127.168s127.488 56.96 127.936 127.168h258.88c33.984 0 61.696 27.648 61.696 61.696v117.696c0 45.184-14.912 90.048-41.984 126.144l-118.784 142.656z" />
</svg>
