<?xml version="1.0" standalone="no"?>
<!DOCTYPE svg PUBLIC "-//W3C//DTD SVG 1.1//EN" "http://www.w3.org/Graphics/SVG/1.1/DTD/svg11.dtd" >
<svg xmlns="http://www.w3.org/2000/svg" id="alert_16">
<path unicode="&#xe908;" transform="scale(1,-1)" id="alert_16" data-tags="alert_16" d="M128 124.877v117.696c0 31.488 10.368 62.592 27.968 86.208l123.008 144.192c27.072 36.16 42.048 80.96 42.048 126.144v30.912c0 115.136 82.112 201.984 190.976 201.984 108.8 0 193.984-88.704 193.984-201.984v-30.912c0-45.184 14.976-89.984 43.072-127.424l118.208-141.952c18.56-25.024 28.736-55.936 28.736-87.168l2.304-115.392-770.304-2.304zM511.488 0.013c-35.008 0-63.36 28.288-63.808 63.168h127.68c-0.512-34.88-28.864-63.168-63.872-63.168v0zM918.016 368.717l-118.784 142.656c-18.88 25.152-29.248 56.32-29.248 87.744v30.912c0 149.184-113.28 265.984-257.984 265.984-142.976 0-254.976-116.8-254.976-265.984v-30.912c0-31.424-10.368-62.592-27.968-86.208l-123.072-144.192c-27.072-36.096-41.984-80.96-41.984-126.144v-117.696c0-34.048 27.712-61.696 61.696-61.696h257.92c0.448-70.208 57.6-127.168 127.872-127.168s127.488 56.96 127.936 127.168h258.88c33.984 0 61.696 27.648 61.696 61.696v117.696c0 45.184-14.912 90.048-41.984 126.144v0z" />
</svg>
