<svg width="20" height="20" viewBox="0 0 20 20" fill="none" xmlns="http://www.w3.org/2000/svg">
<g>
<path d="M11.8813 17.4999H10.6445C9.90695 17.5181 9.18785 17.2682 8.62056 16.7966C8.05328 16.3249 7.67633 15.6635 7.55964 14.935C8.42096 14.7755 9.19937 14.3198 9.76007 13.6468C10.3208 12.9738 10.6284 12.1258 10.6298 11.2499V4.99988C10.6298 4.00532 10.2347 3.05149 9.53147 2.34823C8.82821 1.64497 7.87438 1.24988 6.87982 1.24988C5.88526 1.24988 4.93143 1.64497 4.22817 2.34823C3.52491 3.05149 3.12982 4.00532 3.12982 4.99988V11.2499C3.13136 12.1425 3.45104 13.0053 4.03146 13.6834C4.61188 14.3615 5.41503 14.8105 6.2967 14.9498C6.41443 15.9164 6.85504 16.8149 7.54715 17.4999H1.88135C1.71559 17.4999 1.55662 17.5657 1.43941 17.6829C1.3222 17.8001 1.25635 17.9591 1.25635 18.1249C1.25635 18.2906 1.3222 18.4496 1.43941 18.5668C1.55662 18.684 1.71559 18.7499 1.88135 18.7499H11.8813C12.0471 18.7499 12.2061 18.684 12.3233 18.5668C12.4405 18.4496 12.5063 18.2906 12.5063 18.1249C12.5063 17.9591 12.4405 17.8001 12.3233 17.6829C12.2061 17.5657 12.0471 17.4999 11.8813 17.4999ZM4.37982 11.2499V4.99986C4.37982 4.33682 4.64321 3.70093 5.11206 3.23209C5.5809 2.76325 6.21678 2.49986 6.87982 2.49986C7.54286 2.49986 8.17875 2.76325 8.64759 3.23209C9.11643 3.70093 9.37982 4.33682 9.37982 4.99986V11.2499C9.37982 11.9129 9.11643 12.5488 8.64759 13.0176C8.17875 13.4865 7.54286 13.7499 6.87982 13.7499C6.21678 13.7499 5.5809 13.4865 5.11206 13.0176C4.64321 12.5488 4.37982 11.9129 4.37982 11.2499Z"/>
<path d="M4.37988 10.6337H9.37988V11.25C9.37988 12.6307 8.26059 13.75 6.87988 13.75C5.49917 13.75 4.37988 12.6307 4.37988 11.25V10.6337Z" fill="#3CC29A"/>
<path fill-rule="evenodd" clip-rule="evenodd" d="M16.1092 4.71155C15.9206 4.65767 15.7177 4.69544 15.5611 4.81354C15.4046 4.93164 15.3125 5.11639 15.3125 5.31251V8.33551C15.0284 8.20053 14.7105 8.125 14.375 8.125C13.1669 8.125 12.1875 9.10438 12.1875 10.3125C12.1875 11.5206 13.1669 12.5 14.375 12.5C15.5824 12.5 16.5614 11.5217 16.5625 10.3145L16.5625 10.3125V6.14109L17.9533 6.53846C18.2852 6.63329 18.6311 6.4411 18.726 6.10921C18.8208 5.77731 18.6286 5.43138 18.2967 5.33655L16.1092 4.71155ZM15.3125 10.3125C15.3125 9.79473 14.8928 9.375 14.375 9.375C13.8572 9.375 13.4375 9.79473 13.4375 10.3125C13.4375 10.8303 13.8572 11.25 14.375 11.25C14.8928 11.25 15.3125 10.8303 15.3125 10.3125Z"/>
</g>
</svg>
