<svg width="20" height="20" viewBox="0 0 20 20" fill="none" xmlns="http://www.w3.org/2000/svg">
<g id="animation-microphone-on-f03" stroke="none" stroke-width="1">
<path d="M15.0015 17.4999H13.7646C13.0271 17.5181 12.308 17.2682 11.7407 16.7966C11.1734 16.3249 10.7964 15.6635 10.6798 14.935C11.5411 14.7755 12.3195 14.3198 12.8802 13.6468C13.4409 12.9738 13.7486 12.1258 13.7499 11.2499V4.99988C13.7499 4.00532 13.3549 3.05149 12.6516 2.34823C11.9483 1.64497 10.9945 1.24988 9.99994 1.24988C9.00538 1.24988 8.05155 1.64497 7.34829 2.34823C6.64503 3.05149 6.24994 4.00532 6.24994 4.99988V11.2499C6.25148 12.1425 6.57116 13.0053 7.15158 13.6834C7.732 14.3615 8.53515 14.8105 9.41681 14.9498C9.53455 15.9164 9.97516 16.8149 10.6673 17.4999H5.00147C4.8357 17.4999 4.67673 17.5657 4.55952 17.6829C4.44231 17.8001 4.37646 17.9591 4.37646 18.1249C4.37646 18.2906 4.44231 18.4496 4.55952 18.5668C4.67673 18.684 4.8357 18.7499 5.00147 18.7499H15.0015C15.1672 18.7499 15.3262 18.684 15.4434 18.5668C15.5606 18.4496 15.6265 18.2906 15.6265 18.1249C15.6265 17.9591 15.5606 17.8001 15.4434 17.6829C15.3262 17.5657 15.1672 17.4999 15.0015 17.4999ZM7.49994 11.2499V4.99986C7.49994 4.33682 7.76333 3.70093 8.23217 3.23209C8.70101 2.76325 9.3369 2.49986 9.99994 2.49986C10.663 2.49986 11.2989 2.76325 11.7677 3.23209C12.2365 3.70093 12.4999 4.33682 12.4999 4.99986V11.2499C12.4999 11.9129 12.2365 12.5488 11.7677 13.0176C11.2989 13.4865 10.663 13.7499 9.99994 13.7499C9.3369 13.7499 8.70101 13.4865 8.23217 13.0176C7.76333 12.5488 7.49994 11.9129 7.49994 11.2499Z"/>
<path d="M7.5 10.6337H12.5V11.25C12.5 12.6307 11.3807 13.75 10 13.75C8.61929 13.75 7.5 12.6307 7.5 11.25V10.6337Z" fill="#3CC29A"/>
</g>
</svg>
