<svg width="20" height="20" viewBox="0 0 20 20" fill="none" xmlns="http://www.w3.org/2000/svg">
<g>
<rect x="4.37988" y="4.375" width="5" height="1.25" fill="#3CC29A"/>
<path d="M11.8813 17.5002H10.6442C9.90667 17.5185 9.18759 17.2686 8.62036 16.7969C8.05312 16.3253 7.67624 15.6638 7.55964 14.9354C8.42103 14.7759 9.19952 14.3203 9.76029 13.6472C10.321 12.9742 10.6288 12.1263 10.6301 11.2502V5.00024C10.6301 4.00568 10.235 3.05186 9.53178 2.34859C8.82852 1.64533 7.87469 1.25024 6.88013 1.25024C5.88557 1.25024 4.93174 1.64533 4.22848 2.34859C3.52522 3.05186 3.13013 4.00568 3.13013 5.00024V11.2502C3.13168 12.1428 3.45133 13.0056 4.03169 13.6837C4.61206 14.3618 5.41513 14.8108 6.29674 14.9502C6.41447 15.9168 6.85506 16.8153 7.54715 17.5002H1.88135C1.71559 17.5002 1.55662 17.5661 1.43941 17.6833C1.3222 17.8005 1.25635 17.9595 1.25635 18.1252C1.25635 18.291 1.3222 18.45 1.43941 18.5672C1.55662 18.6844 1.71559 18.7502 1.88135 18.7502H11.8813C12.0471 18.7502 12.2061 18.6844 12.3233 18.5672C12.4405 18.45 12.5063 18.291 12.5063 18.1252C12.5063 17.9595 12.4405 17.8005 12.3233 17.6833C12.2061 17.5661 12.0471 17.5002 11.8813 17.5002ZM4.38013 9.36774V8.12524H9.38013V9.36774H4.38013ZM6.88013 2.50024C7.54297 2.50091 8.17847 2.76451 8.64717 3.23321C9.11586 3.70191 9.37947 4.33741 9.38013 5.00024V6.87524H4.38013V5.00024C4.38079 4.33741 4.6444 3.70191 5.11309 3.23321C5.58179 2.76451 6.21729 2.50091 6.88013 2.50024Z"/>
<path d="M4.37988 9.375H9.37988V11.25C9.37988 12.6307 8.26059 13.75 6.87988 13.75C5.49917 13.75 4.37988 12.6307 4.37988 11.25V9.375Z" fill="#3CC29A"/>
<rect x="4.37988" y="6.875" width="5" height="1.25" fill="#3CC29A"/>
<path fill-rule="evenodd" clip-rule="evenodd" d="M16.1092 4.71155C15.9206 4.65767 15.7177 4.69544 15.5611 4.81354C15.4046 4.93164 15.3125 5.11639 15.3125 5.31251V8.33551C15.0284 8.20053 14.7105 8.125 14.375 8.125C13.1669 8.125 12.1875 9.10438 12.1875 10.3125C12.1875 11.5206 13.1669 12.5 14.375 12.5C15.5824 12.5 16.5614 11.5217 16.5625 10.3145L16.5625 10.3125V6.14109L17.9533 6.53846C18.2852 6.63329 18.6311 6.4411 18.726 6.10921C18.8208 5.77731 18.6286 5.43138 18.2967 5.33655L16.1092 4.71155ZM15.3125 10.3125C15.3125 9.79473 14.8928 9.375 14.375 9.375C13.8572 9.375 13.4375 9.79473 13.4375 10.3125C13.4375 10.8303 13.8572 11.25 14.375 11.25C14.8928 11.25 15.3125 10.8303 15.3125 10.3125Z"/>
</g>
</svg>
