<svg width="32" height="32" viewBox="0 0 32 32" fill="none" xmlns="http://www.w3.org/2000/svg">
<path d="M24.0024 28H22.023C20.843 28.0292 19.6924 27.6294 18.7849 26.8747C17.8773 26.12 17.2743 25.0618 17.0877 23.8962C18.4659 23.6411 19.7115 22.912 20.6087 21.8352C21.506 20.7584 21.9983 19.4016 22.0005 18V8C22.0005 6.4087 21.3684 4.88258 20.2431 3.75736C19.1179 2.63214 17.5918 2 16.0005 2C14.4092 2 12.8831 2.63214 11.7579 3.75736C10.6326 4.88258 10.0005 6.4087 10.0005 8V18C10.003 19.4281 10.5144 20.8085 11.443 21.8935C12.3716 22.9785 13.6565 23.697 15.0671 23.9199C15.2554 25.4665 15.9604 26.9041 17.0677 28H8.00244C7.73723 28 7.48287 28.1054 7.29533 28.2929C7.1078 28.4804 7.00244 28.7348 7.00244 29C7.00244 29.2652 7.1078 29.5196 7.29533 29.7071C7.48287 29.8946 7.73723 30 8.00244 30H24.0024C24.2677 30 24.522 29.8946 24.7095 29.7071C24.8971 29.5196 25.0024 29.2652 25.0024 29C25.0024 28.7348 24.8971 28.4804 24.7095 28.2929C24.522 28.1054 24.2677 28 24.0024 28ZM12.0005 14.988V13H20.0005V14.988H12.0005ZM16.0005 4C17.061 4.00106 18.0778 4.42283 18.8277 5.17274C19.5777 5.92266 19.9994 6.93946 20.0005 8V11H12.0005V8C12.0016 6.93946 12.4233 5.92266 13.1732 5.17274C13.9231 4.42283 14.9399 4.00106 16.0005 4Z" fill-opacity="0.95"/>
</svg>
