<svg width="32" height="32" viewBox="0 0 32 32" fill="none" xmlns="http://www.w3.org/2000/svg">
<path d="M24.0027 28H22.0232C20.8432 28.0292 19.6927 27.6294 18.7851 26.8747C17.8775 26.12 17.2745 25.0618 17.088 23.8962C18.4662 23.6411 19.7118 22.912 20.609 21.8352C21.5062 20.7584 21.9985 19.4016 22.0007 18V8C22.0007 6.4087 21.3686 4.88258 20.2434 3.75736C19.1182 2.63214 17.592 2 16.0007 2C14.4094 2 12.8833 2.63214 11.7581 3.75736C10.6329 4.88258 10.0007 6.4087 10.0007 8V18C10.0032 19.4281 10.5147 20.8085 11.4432 21.8935C12.3718 22.9785 13.6567 23.697 15.0673 23.9199C15.2557 25.4665 15.9606 26.9041 17.068 28H8.00269C7.73747 28 7.48312 28.1054 7.29558 28.2929C7.10804 28.4804 7.00269 28.7348 7.00269 29C7.00269 29.2652 7.10804 29.5196 7.29558 29.7071C7.48312 29.8946 7.73747 30 8.00269 30H24.0027C24.2679 30 24.5223 29.8946 24.7098 29.7071C24.8973 29.5196 25.0027 29.2652 25.0027 29C25.0027 28.7348 24.8973 28.4804 24.7098 28.2929C24.5223 28.1054 24.2679 28 24.0027 28ZM12.0007 14.988V13H20.0007V14.988H12.0007ZM16.0007 4C17.0613 4.00106 18.0781 4.42283 18.828 5.17274C19.5779 5.92266 19.9997 6.93946 20.0007 8V11H12.0007V8C12.0018 6.93946 12.4236 5.92266 13.1735 5.17274C13.9234 4.42283 14.9402 4.00106 16.0007 4Z" fill-opacity="0.95"/>
</svg>
