<svg width="10" height="10" viewBox="0 0 10 10" fill="none" xmlns="http://www.w3.org/2000/svg">
<path fill-rule="evenodd" clip-rule="evenodd" d="M7.25471 10.0003C6.95271 10.0003 6.67871 9.8973 6.45471 9.6993C5.49771 8.8543 6.41671 7.5733 7.15471 6.5433C7.45371 6.1273 8.07471 5.2613 7.99171 5.0423C7.73071 4.8183 6.69671 5.7663 6.14171 6.2763C4.95771 7.3633 3.48671 8.7183 2.34071 7.5713C1.46671 6.5123 2.55671 5.0793 3.60971 3.6933C4.31671 2.7633 5.28571 1.4893 4.89671 1.1173C4.83171 1.0563 4.72771 0.987301 4.53571 1.0023C3.54471 1.0793 1.77671 2.9293 0.896706 4.0783C0.728706 4.2973 0.412706 4.3373 0.194706 4.1693C-0.0232938 4.0013 -0.0642938 3.6873 0.103706 3.4683C0.363706 3.1283 2.70171 0.141301 4.45771 0.00430088C4.88271 -0.0266991 5.28271 0.104301 5.58571 0.392301C6.62371 1.3823 5.49671 2.8653 4.40571 4.3003C3.70371 5.2243 2.74171 6.4883 3.07971 6.8983C3.48371 7.3003 4.36071 6.5533 5.46471 5.5393C6.56771 4.5253 7.70871 3.4773 8.63371 4.2733C9.48671 5.0083 8.68071 6.1343 7.96771 7.1273C7.51771 7.7543 6.83771 8.7023 7.11671 8.9493C7.15571 8.9833 7.20571 9.0093 7.28671 8.9973C7.78671 8.9533 8.65271 8.1283 9.10871 7.5563C9.28171 7.3403 9.59771 7.3053 9.81171 7.4773C10.0267 7.6483 10.0637 7.9633 9.89171 8.1793C9.66371 8.4653 8.47571 9.8973 7.37471 9.9943C7.33371 9.9983 7.29371 10.0003 7.25471 10.0003Z" fill="#F7F7F7"/>
</svg>
