<svg width="13" height="12" viewBox="0 0 13 12" fill="none" xmlns="http://www.w3.org/2000/svg">
<path fill-rule="evenodd" clip-rule="evenodd" d="M9.08223 10.982C9.05423 10.982 9.02723 10.981 8.99923 10.979C8.64623 10.95 8.35223 10.751 8.16823 10.417C7.79623 9.73795 8.34323 8.75695 9.03523 7.51495C9.40323 6.85295 10.2672 5.30195 9.95423 5.10595C9.44823 4.78795 8.03323 6.44995 7.18423 7.43895C6.06123 8.74895 5.09023 9.87995 4.18423 9.92395C3.87223 9.93395 3.60223 9.83395 3.37923 9.62095C2.49123 8.77095 3.44623 7.20095 4.55323 5.38395C5.26123 4.22295 6.14223 2.77595 5.99223 2.19195C5.97723 2.13395 5.95323 2.08895 5.87623 2.04495C5.12623 1.61895 2.58423 3.68995 0.886231 5.75295C0.710231 5.96595 0.395231 5.99695 0.182231 5.82095C-0.0307693 5.64595 -0.0617693 5.33095 0.114231 5.11695C0.286231 4.90895 4.35023 0.0169518 6.37323 1.17795C6.67323 1.34995 6.87623 1.61395 6.96023 1.94295C7.21623 2.93595 6.33723 4.37795 5.40723 5.90495C4.87423 6.78095 3.76323 8.60395 4.07023 8.89795H4.07323C4.61523 8.89795 5.66123 7.67895 6.42523 6.78795C7.88123 5.09195 9.25423 3.48995 10.4842 4.25795C11.6032 4.95895 10.7032 6.57495 9.90823 8.00195C9.56123 8.62695 8.97823 9.67195 9.05123 9.94995C9.34023 10.051 10.3262 9.26295 11.1652 8.18695C11.3342 7.96795 11.6482 7.92795 11.8672 8.09895C12.0842 8.26895 12.1242 8.58295 11.9542 8.80095C11.5492 9.32095 10.1692 10.982 9.08223 10.982Z"/>
</svg>
