<?xml version="1.0" standalone="no"?>
<!DOCTYPE svg PUBLIC "-//W3C//DTD SVG 1.1//EN" "http://www.w3.org/Graphics/SVG/1.1/DTD/svg11.dtd" >
<svg xmlns="http://www.w3.org/2000/svg" id="apps_20">
<path unicode="&#xec23;" id="apps_20" data-tags="apps_20" d="M8 16l0-3c0-.552-.447-1-1-1l-3 0c-.552 0-1 .448-1 1l0 3c0 .552.448 1 1 1l3 0c.553 0 1-.448 1-1zm-1-5c1.1 0 2 .9 2 2l0 3c0 1.1-.9 2-2 2l-3 0c-1.1 0-2-.9-2-2l0-3c0-1.1.9-2 2-2l3 0zm1-4l0-3c0-.552-.447-1-1-1L4 3c-.552 0-1 .448-1 1l0 3c0 .552.448 1 1 1l3 0c.553 0 1-.448 1-1zM7 2c1.1 0 2 .9 2 2l0 3c0 1.1-.9 2-2 2L4 9c-1.1 0-2-.9-2-2l0-3c0-1.1.9-2 2-2l3 0zm10 5l0-3c0-.552-.448-1-1-1l-3 0c-.552 0-1 .448-1 1l0 3c0 .552.448 1 1 1l3 0c.552 0 1-.448 1-1zm-1-5c1.1 0 2 .9 2 2l0 3c0 1.1-.9 2-2 2l-3 0c-1.1 0-2-.9-2-2l0-3c0-1.1.9-2 2-2l3 0zm-1.5 15c1.379 0 2.5-1.121 2.5-2.5 0-1.379-1.121-2.5-2.5-2.5-1.379 0-2.5 1.121-2.5 2.5 0 1.379 1.121 2.5 2.5 2.5zm0-6c1.933 0 3.5 1.567 3.5 3.5 0 1.933-1.567 3.5-3.5 3.5-1.933 0-3.5-1.567-3.5-3.5 0-1.933 1.567-3.5 3.5-3.5z" />
</svg>
