<?xml version="1.0" standalone="no"?>
<!DOCTYPE svg PUBLIC "-//W3C//DTD SVG 1.1//EN" "http://www.w3.org/Graphics/SVG/1.1/DTD/svg11.dtd" >
<svg xmlns="http://www.w3.org/2000/svg" id="archive_16">
<path unicode="&#xe90b;" transform="scale(1,-1)" id="archive_16" data-tags="archive_16" d="M992 960h-960c-17.664 0-32-14.336-32-32s14.336-32 32-32h960c17.664 0 32 14.336 32 32s-14.336 32-32 32zM928.111 832c17.612 0 31.889-14.074 31.889-31.889v-735.736c0-70.9-57.412-128.375-128.375-128.375h-639.25c-70.9 0-128.375 57.412-128.375 128.375v735.736c0 17.612 14.074 31.889 31.889 31.889h832.222zM896 768h-768v-703.625c0-35.59 28.795-64.375 64.375-64.375h639.25c35.59 0 64.375 28.795 64.375 64.375v703.625zM513.126 510.144c91.968 0 171.264 65.408 188.544 155.584 0.384 1.984 0.576 4.224 0.576 6.272 0 17.664-14.336 32-32 32h-314.24c-9.536 0-18.56-4.224-24.64-11.584-6.144-7.36-8.576-17.024-6.784-26.368 17.152-90.304 96.512-155.904 188.544-155.904zM625.126 640c-22.144-39.68-64.512-65.856-112-65.856s-89.856 26.176-111.936 65.856h223.936z" />
</svg>
