<?xml version="1.0" encoding="UTF-8"?>
<svg width="12" height="12" viewBox="0 0 12 12" fill="none" xmlns="http://www.w3.org/2000/svg">
   <title>arrow_tail_right_12</title>
   <g id="arrow_tail_right_12">
       <path fill-rule="evenodd" clip-rule="evenodd" d="M3.04527 5.859L1.49999 5.50001L9.29299 5.50001L6.14599 2.35401C5.95099 2.15801 5.95099 1.84201 6.14599 1.64601C6.34199 1.45101 6.65799 1.45101 6.85399 1.64601L10.854 5.64601C11.049 5.84201 11.049 6.15801 10.854 6.35401L6.85399 10.354C6.75599 10.451 6.62799 10.5 6.49999 10.5C6.37199 10.5 6.24399 10.451 6.14599 10.354C5.95099 10.158 5.95099 9.84201 6.14599 9.64601L9.29299 6.50001L1.49999 6.50001C1.22399 6.50001 0.999994 6.27601 0.999994 6.00001C0.999994 5.72401 1.22399 5.50001 1.49999 5.50001"/>
   </g>
</svg>
