<?xml version="1.0" standalone="no"?>
<!DOCTYPE svg PUBLIC "-//W3C//DTD SVG 1.1//EN" "http://www.w3.org/Graphics/SVG/1.1/DTD/svg11.dtd" >
<svg xmlns="http://www.w3.org/2000/svg" id="assign_host_24">
<path unicode="&#xeb5a;" transform="scale(1,1)" id="assign_host_24" data-tags="assign_host_24" d="M24 16a6 6 0 0 1-5.997 6H1.133a1.142 1.142 0 0 1-1.099-1.42l.798-3.132C1.47 14.855 3.756 13 6.39 13h1.02A6.99 6.99 0 0 1 4 7a7 7 0 1 1 14 0 6.924 6.924 0 0 1-.72 3.047c.237-.028.476-.047.72-.047a6 6 0 0 1 6 6zm-6 5c2.758 0 5-2.243 5-5s-2.242-5-5-5c-2.756 0-5 2.243-5 5s2.244 5 5 5zm-16.817.003l13.506-.002A5.97 5.97 0 0 1 12.35 14H6.39c-2.195 0-4.098 1.512-4.631 3.677l-.75 3.09a.193.193 0 0 0 .035.168.176.176 0 0 0 .138.068zM5 7c0 3.31 2.692 6 6 6 .692 0 1.38-.123 2.03-.362a6.016 6.016 0 0 1 2.897-2.263A5.92 5.92 0 0 0 17 7c0-3.309-2.69-6-6-6-3.308 0-6 2.691-6 6zm10.86 9.14l1.589 1.599 2.653-3.5a.5.5 0 0 1 .796.604l-3 3.959a.5.5 0 0 1-.753.05l-1.994-2.007a.5.5 0 0 1 .709-.705z" />
</svg>
