<?xml version="1.0" standalone="no"?>
<!DOCTYPE svg PUBLIC "-//W3C//DTD SVG 1.1//EN" "http://www.w3.org/Graphics/SVG/1.1/DTD/svg11.dtd" >
<svg xmlns="http://www.w3.org/2000/svg" id="attachment_16">
<path unicode="&#xe91e;" transform="scale(1,-1)" id="attachment_16" data-tags="attachment_16" d="M885.632 824c-95.872 96-263.104 96-358.976 0-12.544-12.48-12.544-32.768 0-45.248 12.48-12.48 32.704-12.48 45.248 0 71.744 71.744 196.736 71.744 268.48 0 35.904-35.904 55.616-83.584 55.616-134.272s-19.712-98.368-55.616-134.208l-388.224-388.288c-71.808-71.744-196.8-71.744-268.544 0-35.84 35.904-55.616 83.584-55.616 134.272s19.776 98.368 55.616 134.272l257.664 257.6c30.72 30.72 80.832 30.72 111.616 0 30.72-30.784 30.72-80.896 0-111.616l-159.488-159.488c-12.544-12.544-12.544-32.768 0-45.248 12.48-12.544 32.704-12.544 45.248 0l159.488 159.488c55.744 55.744 55.744 146.368 0 202.112s-146.368 55.744-202.112 0l-257.664-257.6c-48-47.936-74.368-111.744-74.368-179.52 0-67.84 26.368-131.584 74.368-179.52 47.936-48 111.68-74.368 179.52-74.368 67.776 0 131.584 26.368 179.52 74.368l388.224 388.288c48 47.936 74.368 111.68 74.368 179.456 0 67.84-26.368 131.584-74.368 179.52z" />
</svg>
