<svg width="150" height="115" viewBox="0 0 150 115" fill="none" xmlns="http://www.w3.org/2000/svg">
<path opacity="0.5" fill-rule="evenodd" clip-rule="evenodd" d="M75 57H150V4.56C150 3.35061 149.523 2.19076 148.675 1.33559C147.827 0.480427 146.676 0 145.476 0L75 0V57Z" fill="#91EBFF"/>
<path fill-rule="evenodd" clip-rule="evenodd" d="M80 57.1232C81.8975 47.0935 88.355 45.9246 88.355 45.9246H88.4C90.5505 45.3941 92.7558 45.1207 94.97 45.1102C96.5525 45.1102 101.023 45.1102 108.988 45.1102C117.678 45.1102 125.27 45.1353 131.765 45.1856V45.2534C134.813 45.38 137.694 46.6817 139.813 48.8883C140.345 49.4463 141.178 50.3965 142.25 51.4825C144.268 53.5336 145.738 55.253 147.905 57.1308L80 57.1232Z" fill="#FCF4E1"/>
<path fill-rule="evenodd" clip-rule="evenodd" d="M113.239 3.52064C122.239 5.78299 123.634 10.9713 123.634 19.7869C123.634 21.1368 122.569 32.8859 126.672 37.3654C130.774 41.8448 137.367 38.8736 141.987 43.534C144.687 46.2715 145.452 49.6575 144.357 53.6543C143.442 52.7342 142.759 51.9952 142.249 51.4749C141.177 50.3814 140.344 49.4388 139.812 48.8807C137.694 46.6741 134.812 45.3724 131.764 45.2459V45.178H131.367C124.962 45.1177 117.502 45.0951 108.987 45.1101C101.022 45.1101 96.5517 45.1101 94.9692 45.1101C92.755 45.1207 90.5497 45.3941 88.3992 45.9246H88.3542C86.8544 46.3451 85.4829 47.1357 84.3642 48.2246C84.2292 46.4675 85.3242 44.816 85.9242 43.534C89.6742 35.5178 93.5592 41.3546 93.5592 31.4682V16.2878C93.5592 11.5143 95.3442 8.89749 100.879 8.42993C103.114 3.68906 107.234 2.05263 113.239 3.52064Z" fill="#124052"/>
<path fill-rule="evenodd" clip-rule="evenodd" d="M103.13 45.4268V26.5438H116.15V45.4268" fill="white"/>
<path d="M103.13 45.4268V26.5438H116.15V45.4268" stroke="#124052" stroke-width="0.8"/>
<path fill-rule="evenodd" clip-rule="evenodd" d="M106.715 10.911C107.976 10.9297 109.22 11.1983 110.377 11.7015C111.534 12.2047 112.58 12.9325 113.457 13.8433C114.333 14.7541 115.023 15.8299 115.485 17.009C115.947 18.1881 116.173 19.4474 116.15 20.7146V28.8213C116.201 30.099 115.994 31.3737 115.543 32.5692C115.092 33.7646 114.405 34.856 113.524 35.778C112.643 36.7 111.585 37.4335 110.415 37.9346C109.246 38.4357 107.987 38.694 106.715 38.694C105.444 38.694 104.185 38.4357 103.015 37.9346C101.845 37.4335 100.788 36.7 99.9066 35.778C99.0255 34.856 98.3387 33.7646 97.8874 32.5692C97.4361 31.3737 97.2295 30.099 97.2802 28.8213V20.6844C97.2574 19.4172 97.4835 18.1579 97.9457 16.9788C98.4079 15.7997 99.097 14.7239 99.9736 13.8131C100.85 12.9023 101.897 12.1745 103.054 11.6713C104.211 11.1681 105.455 10.8995 106.715 10.8809" fill="white"/>
<path d="M106.715 10.9107C107.976 10.9293 109.22 11.198 110.377 11.7011C111.534 12.2043 112.58 12.9322 113.457 13.8429C114.333 14.7537 115.023 15.8295 115.485 17.0086C115.947 18.1878 116.173 19.447 116.15 20.7142V28.821C116.201 30.0986 115.994 31.3734 115.543 32.5688C115.092 33.7642 114.405 34.8557 113.524 35.7777C112.643 36.6997 111.585 37.4332 110.415 37.9343C109.246 38.4353 107.987 38.6936 106.715 38.6936C105.444 38.6936 104.185 38.4353 103.015 37.9343C101.845 37.4332 100.788 36.6997 99.9066 35.7777C99.0255 34.8557 98.3387 33.7642 97.8874 32.5688C97.4361 31.3734 97.2295 30.0986 97.2802 28.821V20.684C97.2614 19.4194 97.4905 18.1633 97.9544 16.9877C98.4184 15.8121 99.1082 14.7399 99.9843 13.8323C100.86 12.9247 101.906 12.1996 103.061 11.6983C104.216 11.197 105.457 10.9294 106.715 10.9107V10.9107Z" stroke="#124052" stroke-width="0.8"/>
<path fill-rule="evenodd" clip-rule="evenodd" d="M111.006 22.8111C107.294 21.1822 106.244 18.5051 104.669 16.929C103.094 15.3529 101.369 14.8326 99.8236 15.6319C97.2436 16.9667 97.2736 22.0796 96.4111 20.1566C95.8411 18.8595 95.8411 15.466 96.4111 9.97607L115.829 9.31245L118.469 20.6242C115.969 23.2033 113.469 23.9574 110.969 22.8865" fill="#124052"/>
<path fill-rule="evenodd" clip-rule="evenodd" d="M100.227 24.9906C100.356 24.9906 100.482 24.9521 100.589 24.88C100.697 24.8079 100.78 24.7054 100.83 24.5856C100.879 24.4657 100.892 24.3338 100.867 24.2065C100.842 24.0792 100.78 23.9623 100.688 23.8706C100.597 23.7788 100.481 23.7163 100.354 23.691C100.228 23.6657 100.096 23.6787 99.9773 23.7284C99.858 23.778 99.7561 23.8621 99.6844 23.97C99.6127 24.0779 99.5745 24.2047 99.5745 24.3345C99.5745 24.5085 99.6432 24.6754 99.7656 24.7984C99.8879 24.9215 100.054 24.9906 100.227 24.9906Z" fill="#124052"/>
<path fill-rule="evenodd" clip-rule="evenodd" d="M110.766 24.9906C110.895 24.9906 111.021 24.9521 111.128 24.88C111.235 24.8079 111.319 24.7054 111.368 24.5856C111.418 24.4657 111.431 24.3338 111.405 24.2065C111.38 24.0792 111.318 23.9623 111.227 23.8706C111.136 23.7788 111.019 23.7163 110.893 23.691C110.766 23.6657 110.635 23.6787 110.516 23.7284C110.397 23.778 110.295 23.8621 110.223 23.97C110.151 24.0779 110.113 24.2047 110.113 24.3345C110.113 24.4207 110.13 24.506 110.163 24.5856C110.195 24.6652 110.244 24.7375 110.304 24.7984C110.365 24.8593 110.437 24.9077 110.516 24.9406C110.595 24.9736 110.68 24.9906 110.766 24.9906" fill="#124052"/>
<path d="M105.417 33.0593C106.334 33.0742 107.225 32.7585 107.93 32.1694C108.576 31.5482 108.958 30.6995 108.995 29.8015" stroke="#124052" stroke-width="0.8"/>
<path d="M104.923 23.6104V29.5528" stroke="#124052" stroke-width="0.8"/>
<path fill-rule="evenodd" clip-rule="evenodd" d="M116.15 27.1926C118.325 26.2625 119.29 25.0609 119.045 23.5879C118.798 22.0797 117.838 21.6573 116.15 22.2229V27.1926Z" fill="white"/>
<path d="M116.15 27.1926C118.325 26.2625 119.29 25.0609 119.045 23.5879C118.798 22.0797 117.838 21.6573 116.15 22.2229V27.1926Z" stroke="#124052" stroke-width="0.8"/>
<path opacity="0.5" fill-rule="evenodd" clip-rule="evenodd" d="M0 57H75V0H4.47761C3.29008 0 2.15118 0.480427 1.31146 1.33559C0.471747 2.19076 0 3.35061 0 4.56L0 57Z" fill="#FFD98C"/>
<path fill-rule="evenodd" clip-rule="evenodd" d="M20.1589 49.3236V49.399C19.1389 49.663 14.9464 51.0732 12.8164 57.5435H71.1515C70.5215 56.5858 70.004 55.8241 69.539 55.2208C67.8681 53.1613 65.9192 51.3464 63.749 49.8289C61.889 48.562 55.8215 46.5259 43.049 46.5259C35.3288 46.4236 27.6299 47.3646 20.1589 49.3236V49.3236Z" fill="#E6F9FC"/>
<path fill-rule="evenodd" clip-rule="evenodd" d="M48.8545 57.4604V46.6313H35.2495V57.4604H48.8545Z" fill="white"/>
<path d="M35.0989 47.2272L41.8714 53.4713L35.0989 56.812V47.2272Z" stroke="#124052" stroke-width="0.8"/>
<path d="M48.7567 47.1974L42.0442 53.4415L48.7567 56.8124V47.1974Z" stroke="#124052" stroke-width="0.8"/>
<path fill-rule="evenodd" clip-rule="evenodd" d="M48.8021 46.6096C48.7432 48.4011 47.994 50.0995 46.7128 51.3459C45.4315 52.5923 43.7186 53.2891 41.9359 53.2891C40.1531 53.2891 38.4402 52.5923 37.1589 51.3459C35.8777 50.0995 35.1285 48.4011 35.0696 46.6096H48.8021Z" fill="white"/>
<path d="M48.7474 46.6094C48.9199 50.0104 45.6499 53.3964 41.8924 53.3964C41.0015 53.4034 40.1181 53.233 39.2931 52.895C38.4681 52.557 37.7178 52.0582 37.0854 51.4273C36.453 50.7964 35.9511 50.0458 35.6086 49.2189C35.2661 48.392 35.0898 47.5051 35.0898 46.6094" stroke="#124052" stroke-width="0.8"/>
<path d="M41.8873 53.5616L41.8496 57.468" stroke="#124052" stroke-width="0.8"/>
<path fill-rule="evenodd" clip-rule="evenodd" d="M35.0989 47.1372V30.5693H48.7039L48.7564 47.1372" fill="white"/>
<path d="M35.0989 47.1372V30.5693H48.7039L48.7564 47.1372" stroke="#124052" stroke-width="0.8"/>
<path fill-rule="evenodd" clip-rule="evenodd" d="M43.9571 13.5787C41.6092 13.5707 39.3543 14.5003 37.6877 16.1632C36.0212 17.8261 35.0795 20.0863 35.0696 22.4471V31.3909C35.069 32.5646 35.2986 33.7268 35.7451 34.8112C36.1917 35.8955 36.8465 36.8807 37.6721 37.7104C39.3621 39.394 41.6382 40.3489 44.0171 40.3724C46.3504 40.3819 48.5921 39.4597 50.2496 37.8084C51.0662 36.9978 51.7152 36.0328 52.1592 34.9689C52.6033 33.9051 52.8337 32.7634 52.8371 31.6096V22.432C52.8396 21.2684 52.6121 20.1159 52.1679 19.0414C51.7237 17.9669 51.0717 16.9919 50.2496 16.1728C49.4265 15.3478 48.4498 14.6941 47.3752 14.249C46.3006 13.8038 45.1493 13.5761 43.9871 13.5787" fill="white"/>
<path d="M43.9571 13.5788C41.6092 13.5708 39.3543 14.5004 37.6877 16.1633C36.0212 17.8262 35.0795 20.0864 35.0696 22.4472V31.391C35.069 32.5646 35.2986 33.7269 35.7451 34.8112C36.1917 35.8956 36.8465 36.8808 37.6721 37.7105C39.3621 39.3941 41.6382 40.349 44.0171 40.3725C46.3504 40.3819 48.5921 39.4598 50.2496 37.8085C51.0662 36.9979 51.7152 36.0329 52.1592 34.969C52.6033 33.9051 52.8337 32.7634 52.8371 31.6097V22.4321C52.8396 21.2685 52.6121 20.116 52.1679 19.0415C51.7237 17.967 51.0717 16.9919 50.2496 16.1729C49.423 15.3443 48.4413 14.6885 47.3613 14.2433C46.2813 13.798 45.1243 13.5722 43.9571 13.5788V13.5788Z" stroke="#124052" stroke-width="0.8"/>
<path d="M44.6392 26.2783V30.7502" stroke="#124052" stroke-width="0.8"/>
<path fill-rule="evenodd" clip-rule="evenodd" d="M52.6421 30.7346V31.6094C52.6282 33.9028 51.7098 36.097 50.0885 37.7102C48.4672 39.3234 46.2755 40.2239 43.9945 40.2138H43.912C41.6069 40.1841 39.406 39.2435 37.785 37.5953C36.1641 35.9471 35.2533 33.7237 35.2495 31.4058V30.7799L52.6421 30.7346Z" fill="#004154"/>
<path fill-rule="evenodd" clip-rule="evenodd" d="M40.2214 25.7881C40.3431 25.7881 40.462 25.7519 40.5631 25.6839C40.6643 25.616 40.7431 25.5194 40.7896 25.4064C40.8362 25.2934 40.8484 25.1691 40.8246 25.0491C40.8009 24.9292 40.7423 24.819 40.6563 24.7325C40.5703 24.646 40.4607 24.5871 40.3414 24.5633C40.2221 24.5394 40.0985 24.5516 39.9861 24.5984C39.8737 24.6453 39.7777 24.7245 39.7101 24.8262C39.6425 24.9279 39.6064 25.0474 39.6064 25.1698C39.6084 25.3331 39.6738 25.4893 39.7887 25.6048C39.9036 25.7204 40.0589 25.7862 40.2214 25.7881" fill="#004154"/>
<path fill-rule="evenodd" clip-rule="evenodd" d="M48.2612 25.7881C48.3829 25.7881 48.5018 25.7519 48.6029 25.6839C48.704 25.616 48.7829 25.5194 48.8294 25.4064C48.876 25.2934 48.8882 25.1691 48.8644 25.0491C48.8407 24.9292 48.7821 24.819 48.6961 24.7325C48.6101 24.646 48.5005 24.5871 48.3812 24.5633C48.2619 24.5394 48.1383 24.5516 48.0259 24.5984C47.9135 24.6453 47.8175 24.7245 47.7499 24.8262C47.6823 24.9279 47.6462 25.0474 47.6462 25.1698C47.6482 25.3331 47.7136 25.4893 47.8285 25.6048C47.9434 25.7204 48.0987 25.7862 48.2612 25.7881" fill="#004154"/>
<path fill-rule="evenodd" clip-rule="evenodd" d="M34.9343 29.7995C34.9343 29.7995 34.9793 24.8676 34.9343 24.86C33.5843 24.86 32.4893 25.5689 32.4893 26.9339C32.4893 28.2988 33.5843 29.7995 34.9343 29.7995Z" fill="white" stroke="#124052" stroke-width="0.8"/>
<path fill-rule="evenodd" clip-rule="evenodd" d="M42.3829 33.902C43.0504 34.3243 43.8829 34.2111 44.7979 33.5551L41.6929 31.7075C41.5559 32.099 41.5491 32.5248 41.6736 32.9205C41.798 33.3163 42.047 33.6607 42.3829 33.902V33.902Z" fill="white"/>
<path d="M41.6931 31.7074C41.4906 32.7481 41.6931 33.472 42.3831 33.8943C43.0731 34.3166 43.8831 34.2035 44.7981 33.555L41.6931 31.7074Z" stroke="#124052" stroke-width="0.8"/>
<path fill-rule="evenodd" clip-rule="evenodd" d="M32.7227 12.7112C32.7227 9.03868 34.7702 6.34649 40.2227 6.30878C45.6752 6.27107 55.6052 11.9571 55.6052 15.3582C55.4859 17.2943 56.1207 19.201 57.3752 20.6747C55.9814 21.4573 54.4116 21.8682 52.8152 21.8682C51.2188 21.8682 49.649 21.4573 48.2552 20.6747C43.8977 18.3445 43.2152 16.0067 40.2302 16.0067C37.2452 16.0067 35.6027 19.3324 35.2802 21.1272C35.1006 22.3907 35.0254 23.667 35.0552 24.943C34.5959 24.9355 34.1389 25.0096 33.7052 25.1617C33.3456 25.2766 33.0118 25.461 32.7227 25.7046V12.7112Z" fill="#004154"/>
<path fill-rule="evenodd" clip-rule="evenodd" d="M53.9987 13.7291C54.5766 13.7231 55.1397 13.5452 55.6171 13.2177C56.0944 12.8903 56.4647 12.428 56.681 11.8892C56.8973 11.3505 56.9501 10.7593 56.8327 10.1904C56.7152 9.6215 56.4328 9.10032 56.0211 8.69263C55.6093 8.28494 55.0867 8.00901 54.5192 7.89966C53.9516 7.79031 53.3646 7.85244 52.8322 8.07821C52.2997 8.30398 51.8457 8.68327 51.5274 9.16823C51.2091 9.65318 51.0408 10.2221 51.0437 10.8031C51.0517 11.5845 51.367 12.3309 51.9207 12.8792C52.4745 13.4275 53.2216 13.7331 53.9987 13.7291Z" fill="#004154"/>
<path fill-rule="evenodd" clip-rule="evenodd" d="M58.0575 20.4106C61.2075 18.5178 62.6925 15.2072 61.3725 13.0127C60.0525 10.8183 56.43 10.5694 53.25 12.4622C50.07 14.3551 48.6525 17.6656 49.9725 19.8526C51.2925 22.0395 54.915 22.2959 58.0575 20.4031" fill="#004154"/>
<path fill-rule="evenodd" clip-rule="evenodd" d="M6.45104 42.4641C7.95104 42.4641 8.27354 43.6104 8.27354 45.1261V50.782C8.27354 53.3762 8.845 55.7406 10 57H31.5C34.9125 53.8101 33.8486 47.2905 32.8211 44.0855L25.6511 25.5342C25.5816 25.3488 25.459 25.1883 25.2988 25.0728C25.1386 24.9574 24.948 24.8923 24.7511 24.8857C24.5326 24.8878 24.3211 24.9631 24.1499 25.0997C23.9788 25.2363 23.8578 25.4263 23.8061 25.6398L23.0561 28.0379H20.6336L19.8836 25.6398C19.8352 25.4319 19.7212 25.2454 19.5586 25.1082C19.396 24.971 19.1936 24.8904 18.9816 24.8785C18.7697 24.8666 18.5596 24.9241 18.3828 25.0423C18.206 25.1605 18.0721 25.3331 18.0011 25.5342L11.5886 44.2589C11.5286 44.5756 11.3861 44.734 11.161 44.734C10.936 44.734 10.816 44.4248 10.8085 43.7989C10.828 42.6926 10.4395 41.6183 9.71806 40.7828C8.99658 39.9474 7.99312 39.41 6.90104 39.2742C6.29984 39.2121 5.69235 39.2772 5.11772 39.4655C4.54309 39.6538 4.01405 39.961 3.56468 40.3674C3.11531 40.7737 2.75558 41.2702 2.50866 41.8249C2.26174 42.3795 2.1331 42.9801 2.13103 43.5877V45.7294C2.11051 46.1071 2.23935 46.4776 2.48944 46.7602C2.73953 47.0427 3.09058 47.2143 3.46603 47.2377C3.84149 47.2143 4.19254 47.0427 4.44263 46.7602C4.69271 46.4776 4.82155 46.1071 4.80104 45.7294V44.734C4.80104 43.6104 5.25104 42.4641 6.45104 42.4641Z" fill="white"/>
<path d="M11.6397 44.0706C10.5372 47.2605 10.1397 49.4474 10.3947 50.6238" stroke="#124052" stroke-width="0.8"/>
<path d="M21.6832 35.9187C21.7202 36.032 21.73 36.1524 21.7118 36.2702C21.6935 36.388 21.6477 36.4998 21.5782 36.5964C21.5087 36.693 21.4174 36.7716 21.3118 36.8258C21.2062 36.88 21.0893 36.9083 20.9707 36.9083C20.8521 36.9083 20.7352 36.88 20.6296 36.8258C20.524 36.7716 20.4327 36.693 20.3632 36.5964C20.2937 36.4998 20.2479 36.388 20.2296 36.2702C20.2114 36.1524 20.2212 36.032 20.2582 35.9187" stroke="#124052" stroke-width="0.8"/>
<path d="M23.3121 35.9187C23.3491 36.032 23.3589 36.1524 23.3407 36.2702C23.3224 36.388 23.2767 36.4998 23.2071 36.5964C23.1376 36.693 23.0463 36.7716 22.9407 36.8258C22.8351 36.88 22.7182 36.9083 22.5996 36.9083C22.481 36.9083 22.3642 36.88 22.2586 36.8258C22.1529 36.7716 22.0616 36.693 21.9921 36.5964C21.9226 36.4998 21.8768 36.388 21.8585 36.2702C21.8403 36.1524 21.8501 36.032 21.8871 35.9187" stroke="#124052" stroke-width="0.8"/>
<path fill-rule="evenodd" clip-rule="evenodd" d="M22.05 35.813L22.59 35.3002C22.643 35.2498 22.6791 35.1841 22.6934 35.1122C22.7077 35.0403 22.6995 34.9657 22.6699 34.8987C22.6402 34.8317 22.5907 34.7756 22.528 34.7381C22.4654 34.7006 22.3927 34.6836 22.32 34.6893H21.2475C21.1748 34.6836 21.1021 34.7006 21.0394 34.7381C20.9767 34.7756 20.9272 34.8317 20.8976 34.8987C20.868 34.9657 20.8597 35.0403 20.874 35.1122C20.8884 35.1841 20.9245 35.2498 20.9775 35.3002L21.5175 35.813C21.5905 35.8792 21.6854 35.9159 21.7837 35.9159C21.8821 35.9159 21.9769 35.8792 22.05 35.813" fill="#004154"/>
<path fill-rule="evenodd" clip-rule="evenodd" d="M19.6509 32.9471C19.6509 33.0831 19.5971 33.2136 19.5015 33.3097C19.4058 33.4059 19.2761 33.4599 19.1409 33.4599C19.0056 33.4599 18.8759 33.4059 18.7802 33.3097C18.6846 33.2136 18.6309 33.0831 18.6309 32.9471C18.6309 32.8111 18.6846 32.6807 18.7802 32.5845C18.8759 32.4884 19.0056 32.4343 19.1409 32.4343C19.2761 32.4343 19.4058 32.4884 19.5015 32.5845C19.5971 32.6807 19.6509 32.8111 19.6509 32.9471" fill="#004154"/>
<path d="M27.7955 35.27L26.168 35.7451" stroke="#124052" stroke-width="0.8"/>
<path d="M27.7955 37.3813L26.168 36.9062" stroke="#124052" stroke-width="0.8"/>
<path d="M15.7793 35.27L17.4068 35.7451" stroke="#124052" stroke-width="0.8"/>
<path d="M15.7793 37.3813L17.4068 36.9062" stroke="#124052" stroke-width="0.8"/>
<path d="M21.6816 47.9844V54.8091C21.6816 55.0107 21.7211 55.2102 21.7978 55.3964C21.8745 55.5826 21.9869 55.7518 22.1287 55.8943C22.2704 56.0368 22.4386 56.1498 22.6238 56.2269C22.809 56.3041 23.0075 56.3438 23.2079 56.3438C23.4083 56.3438 23.6068 56.3041 23.792 56.2269C23.9771 56.1498 24.1454 56.0368 24.2871 55.8943C24.4288 55.7518 24.5413 55.5826 24.618 55.3964C24.6947 55.2102 24.7341 55.0107 24.7341 54.8091V49.6208" fill="white"/>
<path d="M21.6816 47.9844V54.8091C21.6816 55.0107 21.7211 55.2102 21.7978 55.3964C21.8745 55.5826 21.9869 55.7518 22.1287 55.8943C22.2704 56.0368 22.4386 56.1498 22.6238 56.2269C22.809 56.3041 23.0075 56.3438 23.2079 56.3438C23.4083 56.3438 23.6068 56.3041 23.792 56.2269C23.9771 56.1498 24.1454 56.0368 24.2871 55.8943C24.4288 55.7518 24.5413 55.5826 24.618 55.3964C24.6947 55.2102 24.7341 55.0107 24.7341 54.8091V49.6208" stroke="#124052" stroke-width="0.8"/>
<path d="M18.6309 49.6206V54.8089C18.6309 55.2159 18.7917 55.6063 19.0779 55.8941C19.3641 56.1819 19.7523 56.3435 20.1571 56.3435C20.5619 56.3435 20.9501 56.1819 21.2363 55.8941C21.5226 55.6063 21.6834 55.2159 21.6834 54.8089V52.079" fill="white"/>
<path d="M18.6309 49.6206V54.8089C18.6309 55.2159 18.7917 55.6063 19.0779 55.8941C19.3641 56.1819 19.7523 56.3435 20.1571 56.3435C20.5619 56.3435 20.9501 56.1819 21.2363 55.8941C21.5226 55.6063 21.6834 55.2159 21.6834 54.8089V52.079" stroke="#124052" stroke-width="0.8" stroke-linecap="round" stroke-linejoin="round"/>
<path fill-rule="evenodd" clip-rule="evenodd" d="M27.0805 29.622C26.5785 29.5277 26.0605 29.5707 25.5807 29.7466C25.1009 29.9225 24.677 30.2248 24.3532 30.6219C24.0293 31.019 23.8176 31.4963 23.7401 32.0038C23.6625 32.5114 23.7221 33.0305 23.9124 33.507C24.1028 33.9835 24.4169 34.3998 24.8221 34.7124C25.2273 35.025 25.7085 35.2224 26.2156 35.2839C26.7226 35.3454 27.2367 35.2688 27.7042 35.0621C28.1717 34.8555 28.5754 34.5263 28.873 34.109L27.0805 29.622Z" fill="#A6AEFF"/>
<path d="M31.5 56.5C34.9125 53.3101 33.8486 47.2829 32.8211 44.0779L25.6511 25.5342C25.5816 25.3488 25.459 25.1883 25.2988 25.0728C25.1386 24.9574 24.948 24.8923 24.7511 24.8857C24.5326 24.8878 24.3211 24.9631 24.1499 25.0997C23.9788 25.2363 23.8578 25.4263 23.8061 25.6398L23.0561 28.0379H20.6336L19.8836 25.6398C19.8352 25.4319 19.7212 25.2454 19.5586 25.1082C19.396 24.971 19.1936 24.8904 18.9816 24.8785C18.7697 24.8666 18.5596 24.9241 18.3828 25.0423C18.206 25.1605 18.0721 25.3331 18.0011 25.5342L11.5886 44.2589C11.5286 44.5756 11.3861 44.734 11.161 44.734C10.936 44.734 10.816 44.4248 10.8085 43.7989C10.828 42.6926 10.4395 41.6183 9.71806 40.7828C8.99658 39.9474 7.99312 39.41 6.90104 39.2742C6.29984 39.2121 5.69235 39.2772 5.11772 39.4655C4.54309 39.6538 4.01405 39.961 3.56468 40.3674C3.11531 40.7737 2.75558 41.2702 2.50866 41.8249C2.26174 42.3795 2.1331 42.9801 2.13103 43.5877V45.7294C2.11051 46.1071 2.23935 46.4776 2.48944 46.7601C2.73953 47.0427 3.09058 47.2143 3.46603 47.2377C3.84149 47.2143 4.19254 47.0427 4.44263 46.7601C4.69271 46.4776 4.82155 46.1071 4.80104 45.7294V44.734C4.80104 43.6104 5.28104 42.4716 6.45104 42.4716C7.95104 42.4716 8.27354 43.6179 8.27354 45.1337V50.7895C8.27354 53.3837 9.02354 55.3142 10.1785 56.5736" stroke="#124052" stroke-width="0.8"/>
<path fill-rule="evenodd" clip-rule="evenodd" d="M25.1489 32.9471C25.1489 33.0831 25.0952 33.2136 24.9995 33.3097C24.9039 33.4059 24.7742 33.4599 24.6389 33.4599C24.5036 33.4599 24.3739 33.4059 24.2783 33.3097C24.1826 33.2136 24.1289 33.0831 24.1289 32.9471C24.1289 32.8111 24.1826 32.6807 24.2783 32.5845C24.3739 32.4884 24.5036 32.4343 24.6389 32.4343C24.7742 32.4343 24.9039 32.4884 24.9995 32.5845C25.0952 32.6807 25.1489 32.8111 25.1489 32.9471" fill="#004154"/>
<path opacity="0.5" fill-rule="evenodd" clip-rule="evenodd" d="M75 114H145.476C146.676 114 147.827 113.52 148.675 112.664C149.523 111.809 150 110.649 150 109.44V57H75V114Z" fill="#FFCA99"/>
<path fill-rule="evenodd" clip-rule="evenodd" d="M84.0977 114.118C84.4441 110.55 86.0927 107.237 88.7252 104.82C91.5502 102.306 95.3002 101.021 99.9752 100.966H113.415C121.295 100.966 127.705 101.816 132.645 103.515L132.863 103.59C133.71 103.711 134.31 104.397 135.053 104.706C136.403 105.562 137.684 106.523 138.885 107.58C139.71 108.371 141.833 110.596 145.545 114.118H84.0977Z" fill="#EAF2F5"/>
<path fill-rule="evenodd" clip-rule="evenodd" d="M104.67 100.959H121.748L115.943 114.118H110.528L104.67 100.959Z" fill="white"/>
<path fill-rule="evenodd" clip-rule="evenodd" d="M101.514 91.4943C99.7471 90.4773 98.2074 89.1055 96.9907 87.4643C95.7739 85.8231 94.9061 83.9477 94.4413 81.9547C94.1573 80.5432 93.9892 79.1106 93.9388 77.6714C93.7692 74.407 94.4819 71.1574 96.0014 68.2675C97.0204 66.1498 98.527 64.3069 100.396 62.8918C102.265 61.4767 104.443 60.5301 106.749 60.1306C108.646 59.8267 110.57 59.7406 112.486 59.8742C114.253 60.024 115.979 60.4941 117.579 61.2618C120.073 62.421 122.26 64.154 123.964 66.3208C125.668 68.4875 126.841 71.0271 127.388 73.7341C127.935 76.4411 127.84 79.2396 127.112 81.9031C126.384 84.5666 125.043 87.0204 123.196 89.0661C122.406 89.961 121.479 90.7246 120.451 91.3284C119.29 91.93 118.061 92.3907 116.791 92.7009C113.889 93.538 110.911 94.3826 107.896 94.2091C105.594 94.0658 101.499 91.5094 101.499 91.5094" fill="#124052"/>
<path fill-rule="evenodd" clip-rule="evenodd" d="M102.6 92.0753C102.305 91.9395 102.02 91.7962 101.745 91.6454Z" fill="#124052"/>
<path d="M100.778 91.9695C101.399 91.9665 102.005 91.7786 102.52 91.4296C103.034 91.0806 103.435 90.5861 103.67 90.0085C103.906 89.4309 103.966 88.796 103.843 88.1841C103.72 87.5721 103.42 87.0105 102.98 86.5701C102.54 86.1298 101.98 85.8303 101.37 85.7096C100.761 85.5889 100.13 85.6524 99.5568 85.8919C98.9835 86.1315 98.4936 86.5365 98.1489 87.0558C97.8043 87.5751 97.6204 88.1854 97.6204 88.8097C97.6213 89.2256 97.7038 89.6373 97.863 90.0212C98.0222 90.4051 98.2551 90.7537 98.5483 91.0471C98.8415 91.3405 99.1893 91.573 99.5718 91.7313C99.9544 91.8895 100.364 91.9705 100.778 91.9695Z" stroke="#124052" stroke-width="0.8"/>
<path fill-rule="evenodd" clip-rule="evenodd" d="M105.938 101.6V85.3712H117.983V101.705" fill="white"/>
<path d="M105.938 101.6V85.3712H117.983V101.705" stroke="#124052" stroke-width="0.8"/>
<path fill-rule="evenodd" clip-rule="evenodd" d="M109.381 71.0199C110.508 71.0169 111.625 71.2373 112.667 71.6686C113.71 72.0999 114.658 72.7335 115.457 73.5333C116.256 74.3331 116.89 75.2834 117.324 76.3298C117.757 77.3763 117.981 78.4983 117.983 79.6319V86.8035C117.983 89.0976 117.077 91.2977 115.463 92.9198C113.85 94.5419 111.662 95.4532 109.381 95.4532C107.099 95.4532 104.911 94.5419 103.298 92.9198C101.684 91.2977 100.778 89.0976 100.778 86.8035V79.6319C100.784 77.3431 101.693 75.1504 103.307 73.5356C104.92 71.9207 107.104 71.0159 109.381 71.0199" fill="white"/>
<path d="M109.381 71.0199C110.508 71.0169 111.625 71.2373 112.667 71.6686C113.71 72.0999 114.658 72.7335 115.457 73.5333C116.256 74.3331 116.89 75.2834 117.324 76.3298C117.757 77.3763 117.981 78.4983 117.983 79.6319V86.8035C117.983 89.0976 117.077 91.2977 115.463 92.9198C113.85 94.5419 111.662 95.4532 109.381 95.4532C107.099 95.4532 104.911 94.5419 103.298 92.9198C101.684 91.2977 100.778 89.0976 100.778 86.8035V79.6319C100.784 77.3431 101.693 75.1504 103.307 73.5356C104.92 71.9207 107.104 71.0159 109.381 71.0199V71.0199Z" stroke="#124052" stroke-width="0.8"/>
<path d="M117.982 91.9694C118.407 91.9903 118.832 91.9241 119.231 91.775C119.629 91.6258 119.994 91.3967 120.302 91.1016C120.611 90.8065 120.856 90.4515 121.024 90.0582C121.191 89.6648 121.278 89.2413 121.278 88.8134C121.278 88.3855 121.191 87.962 121.024 87.5687C120.856 87.1753 120.611 86.8203 120.302 86.5252C119.994 86.2301 119.629 86.001 119.231 85.8518C118.832 85.7027 118.407 85.6365 117.982 85.6574" stroke="white" stroke-width="0.8"/>
<path d="M117.982 91.9694C117.557 91.9903 117.132 91.9241 116.733 91.775C116.334 91.6258 115.969 91.3967 115.661 91.1016C115.353 90.8065 115.108 90.4515 114.94 90.0582C114.772 89.6648 114.686 89.2413 114.686 88.8134C114.686 88.3855 114.772 87.962 114.94 87.5687C115.108 87.1753 115.353 86.8203 115.661 86.5252C115.969 86.2301 116.334 86.001 116.733 85.8518C117.132 85.7027 117.557 85.6365 117.982 85.6574" stroke="#124052" stroke-width="0.8"/>
<path fill-rule="evenodd" clip-rule="evenodd" d="M103.959 83.4255C104.071 83.424 104.181 83.3891 104.273 83.3253C104.366 83.2614 104.438 83.1714 104.48 83.0665C104.522 82.9617 104.532 82.8467 104.509 82.736C104.487 82.6253 104.432 82.5239 104.352 82.4445C104.272 82.3651 104.17 82.3113 104.06 82.2897C103.949 82.2682 103.835 82.28 103.732 82.3236C103.628 82.3672 103.539 82.4407 103.477 82.5347C103.415 82.6288 103.381 82.7393 103.381 82.8524C103.381 82.9283 103.396 83.0034 103.425 83.0734C103.455 83.1435 103.497 83.207 103.551 83.2603C103.605 83.3136 103.668 83.3557 103.738 83.384C103.808 83.4124 103.883 83.4265 103.959 83.4255" fill="#124052"/>
<path fill-rule="evenodd" clip-rule="evenodd" d="M113.249 83.4255C113.362 83.4255 113.472 83.3919 113.566 83.3289C113.659 83.266 113.732 83.1765 113.776 83.0717C113.819 82.967 113.83 82.8518 113.808 82.7406C113.786 82.6294 113.732 82.5273 113.652 82.4471C113.572 82.367 113.471 82.3124 113.36 82.2903C113.25 82.2682 113.135 82.2795 113.031 82.3229C112.927 82.3663 112.838 82.4397 112.775 82.534C112.712 82.6282 112.679 82.739 112.679 82.8524C112.679 83.0044 112.739 83.1502 112.846 83.2577C112.953 83.3652 113.098 83.4255 113.249 83.4255" fill="#124052"/>
<path d="M108.519 90.5365C109.335 90.5657 110.134 90.2979 110.769 89.7824C111.335 89.2321 111.671 88.4846 111.706 87.6935" stroke="#124052" stroke-width="0.8"/>
<path d="M108.09 82.2108V87.4443" stroke="#124052" stroke-width="0.8"/>
<path d="M104.078 86.8036C104.839 86.7992 105.583 86.5681 106.214 86.1394C106.844 85.7108 107.335 85.1039 107.623 84.3952C107.912 83.6866 107.985 82.9079 107.834 82.1575C107.682 81.4071 107.313 80.7185 106.773 80.1787C106.233 79.6389 105.546 79.272 104.799 79.1242C104.052 78.9765 103.278 79.0546 102.575 79.3486C101.872 79.6426 101.271 80.1394 100.849 80.7764C100.426 81.4133 100.2 82.1618 100.2 82.9275C100.201 83.4381 100.303 83.9436 100.498 84.4149C100.694 84.8862 100.98 85.3141 101.34 85.6741C101.7 86.0342 102.127 86.3193 102.597 86.5131C103.067 86.7069 103.57 86.8056 104.078 86.8036V86.8036Z" stroke="#124052" stroke-width="0.8"/>
<path d="M113.251 86.8037C114.013 86.8007 114.757 86.5708 115.388 86.1431C116.02 85.7154 116.512 85.109 116.802 84.4004C117.091 83.6919 117.165 82.913 117.015 82.1621C116.865 81.4112 116.496 80.7219 115.956 80.1814C115.417 79.6408 114.73 79.2731 113.982 79.1248C113.235 78.9764 112.461 79.0541 111.757 79.3479C111.054 79.6417 110.452 80.1385 110.03 80.7756C109.607 81.4127 109.381 82.1615 109.381 82.9275C109.385 83.9569 109.794 84.9428 110.52 85.6693C111.245 86.3958 112.227 86.8037 113.251 86.8037Z" stroke="#124052" stroke-width="0.8"/>
<path d="M117.982 85.3708C119.902 84.5488 120.749 83.4931 120.532 82.1884C120.314 80.8838 119.467 80.4841 117.982 80.9894V85.3708Z" stroke="#124052" stroke-width="0.8"/>
<path fill-rule="evenodd" clip-rule="evenodd" d="M100.801 79.5491C101.101 78.0409 101.461 76.3667 102.608 75.3034C103.913 74.1119 105.848 74.0139 107.618 74.0591C109.317 74.0563 111.009 74.2795 112.651 74.7227C114.301 75.1695 115.776 76.1112 116.881 77.4225C117.444 78.166 117.889 78.9928 118.201 79.8734C118.302 80.244 118.49 80.5851 118.748 80.8688C118.989 81.0442 119.268 81.1573 119.563 81.1981C119.857 81.2389 120.157 81.2061 120.436 81.1026C121.122 80.8739 121.752 80.4989 122.282 80.003C122.811 79.5071 123.228 78.9021 123.503 78.2294C124.026 76.882 124.28 75.4447 124.253 73.9988C124.325 72.729 124.194 71.4559 123.863 70.2282C123.413 68.9295 122.693 67.7424 121.75 66.7462C120.807 65.75 119.663 64.9677 118.396 64.4517C115.845 63.434 113.102 62.9962 110.363 63.1697C107.832 63.2481 105.318 63.6021 102.863 64.2254C101.064 64.6091 99.3614 65.3585 97.8605 66.4275C97.3384 66.8114 96.8973 67.2959 96.563 67.8527C96.1995 68.5898 95.9853 69.3921 95.933 70.2131C95.813 71.3141 95.768 72.4227 95.7155 73.5237C95.6015 74.3381 95.7239 75.1682 96.068 75.9142C96.5184 76.536 97.1237 77.0276 97.823 77.3395L100.966 79.074" fill="#124052"/>
<path opacity="0.5" d="M0 57H75V114H4.47761C3.29008 114 2.15118 113.52 1.31146 112.664C0.471747 111.809 0 110.649 0 109.44L0 57Z" fill="#BAF5E7"/>
<path d="M37.6894 99.5782C47.6057 99.5782 55.6445 91.5189 55.6445 81.5774C55.6445 71.6359 47.6057 63.5767 37.6894 63.5767C27.7731 63.5767 19.7344 71.6359 19.7344 81.5774C19.7344 91.5189 27.7731 99.5782 37.6894 99.5782Z" fill="white" stroke="#124052" stroke-width="0.8"/>
<path fill-rule="evenodd" clip-rule="evenodd" d="M19.2528 89.737C18.6303 89.8803 18.0303 90.0236 17.4528 90.182V90.2423C15.7519 90.6422 14.1851 91.4836 12.9086 92.6824C11.6321 93.8812 10.6905 95.3957 10.1777 97.0746C9.32275 99.5405 3.42773 114.065 3.42773 114.065L72.0004 114.118C72.0004 114.118 66.0004 99.4953 65.1829 97.0746C64.6721 95.3959 63.7321 93.8813 62.4568 92.6823C61.1814 91.4834 59.6155 90.642 57.9154 90.2423V90.182C57.2354 90.001 56.5229 89.8275 55.7779 89.6616" fill="white"/>
<path d="M17.5883 114.064L17.4375 97.0139Z" fill="#EAF2F5"/>
<path d="M17.5883 114.064L17.4375 97.0139" stroke="#124052" stroke-width="0.8"/>
<path d="M56.4008 114.064L56.25 97.0139Z" fill="#EAF2F5"/>
<path d="M56.4008 114.064L56.25 97.0139" stroke="#124052" stroke-width="0.8"/>
<path d="M25.3132 87.4067C25.3132 87.6782 25.2529 87.9572 25.2378 88.2589C25.1997 87.9728 25.2254 87.6817 25.3132 87.4067V87.4067Z" fill="white"/>
<path d="M21.3755 90.3703C24.0099 90.3703 26.1455 87.6558 26.1455 84.3072C26.1455 80.9587 24.0099 78.2441 21.3755 78.2441C18.7411 78.2441 16.6055 80.9587 16.6055 84.3072C16.6055 87.6558 18.7411 90.3703 21.3755 90.3703Z" fill="white"/>
<path d="M54.0317 90.3703C56.6661 90.3703 58.8017 87.6558 58.8017 84.3072C58.8017 80.9587 56.6661 78.2441 54.0317 78.2441C51.3973 78.2441 49.2617 80.9587 49.2617 84.3072C49.2617 87.6558 51.3973 90.3703 54.0317 90.3703Z" fill="white"/>
<path d="M43.8825 74.9038H31.5C26.1 74.9038 24 78.1013 24 82.5581C24 89.134 32.5725 91.9317 37.68 91.9317C42.7875 91.9317 51.3601 89.134 51.3601 82.5581C51.3676 78.1314 49.2901 74.9038 43.8825 74.9038Z" fill="#195072"/>
<path d="M31.0286 76.1628L29.1836 82.3014C29.0261 82.8154 28.6726 83.2459 28.2005 83.4989C27.7283 83.7518 27.1758 83.8066 26.6636 83.6512C26.2872 83.5406 25.9518 83.3204 25.6995 83.0185C25.4473 82.7166 25.2895 82.3463 25.2461 81.9545C25.4336 77.3016 28.3961 76.2684 31.0286 76.1628Z" fill="white"/>
<path d="M55.6445 81.7962C55.6445 77.0081 53.7528 72.4161 50.3855 69.0304C47.0183 65.6447 42.4514 63.7427 37.6894 63.7427C32.9274 63.7427 28.3605 65.6447 24.9933 69.0304C21.6261 72.4161 19.7344 77.0081 19.7344 81.7962" stroke="#124052" stroke-width="0.8"/>
<path d="M20.0405 78.4854C18.0605 79.2395 16.6055 81.5471 16.6055 84.3071C16.6055 87.6554 18.743 90.34 21.3755 90.34" stroke="#124052" stroke-width="0.8"/>
<path d="M55.2901 78.2441C57.2776 78.9983 58.7251 81.3059 58.7251 84.0659C58.7251 87.4142 56.5876 90.0988 53.9551 90.0988" stroke="#124052" stroke-width="0.8"/>
<path d="M23.3848 92.6707C25.0645 94.8857 27.23 96.681 29.7127 97.9168C32.1954 99.1526 34.9283 99.7955 37.6985 99.7955C40.4688 99.7955 43.2017 99.1526 45.6844 97.9168C48.1671 96.681 50.3326 94.8857 52.0123 92.6707" stroke="#124052" stroke-width="0.8"/>
<path d="M69.5794 108.311L65.0044 110.143L61.9219 102.413L66.4969 100.581L69.5794 108.311Z" fill="#EAF2F5" stroke="#124052" stroke-width="0.8"/>
<path d="M71.9999 114.118C71.9999 114.118 65.9999 99.4953 65.1824 97.0746C64.6716 95.3959 63.7316 93.8813 62.4563 92.6823C61.1809 91.4834 59.6149 90.642 57.9148 90.2423V90.182C57.2348 90.001 56.5223 89.8275 55.7773 89.6616" stroke="#124052" stroke-width="0.8"/>
<path d="M19.2528 89.7368C18.6303 89.8801 18.0303 90.0234 17.4528 90.1817V90.2421C15.7519 90.642 14.1851 91.4834 12.9086 92.6822C11.6321 93.881 10.6905 95.3954 10.1778 97.0744C9.32275 99.5403 3.5 114 3.5 114" stroke="#124052" stroke-width="0.8"/>
</svg>
