<svg width="126" height="80" viewBox="0 0 126 80" fill="none" xmlns="http://www.w3.org/2000/svg">
<path fill-rule="evenodd" clip-rule="evenodd" d="M62.5924 6.00008L62.6014 6C75.5645 6.00004 86.2473 15.6817 87.6667 28.1714C88.3628 28.0675 89.0967 28 89.8382 28C97.7666 28 104.178 34.461 103.961 42.3772L103.961 42.3782C103.743 50.0427 97.2705 56 89.586 56H72.4369C71.4578 56 70.5094 56.4876 69.9414 57.3134L66.6835 62.05H69.4106C71.2053 62.05 72.1296 64.1689 70.83 65.4571L58.3717 77.8071C57.7824 78.3913 56.9673 78.3488 56.4363 77.9858C55.9058 77.6231 55.5718 76.8745 55.9397 76.1218L59.6389 68.1H54.5312C52.975 68.1 51.8974 66.351 52.8382 64.9897L59.8447 54.5463C60.1533 54.0864 60.7794 53.9615 61.2433 54.2674C61.7072 54.5732 61.8332 55.194 61.5247 55.6538L54.5196 66.095C54.5218 66.0974 54.5237 66.0989 54.5248 66.0995C54.5248 66.0996 54.5249 66.0996 54.5249 66.0996C54.5257 66.0998 54.5277 66.1 54.5312 66.1H60.4325C61.0108 66.1 61.459 66.4257 61.6997 66.8007C61.9353 67.1677 62.0505 67.7085 61.7986 68.2274L58.9491 74.4063L69.3962 64.05H65.7286C64.5214 64.05 63.7732 62.7004 64.4963 61.6798L68.2745 56.1867C69.2196 54.8125 70.7931 54 72.4369 54H89.586C96.2258 54 101.758 48.8579 101.944 42.3228C102.13 35.5391 96.6379 30 89.8382 30C89.1277 30 88.4072 30.0742 87.7121 30.1892C87.5948 34.3427 86.208 37.3938 84.4607 39.2196C83.5451 40.1762 82.4995 40.8256 81.4603 41.0693C80.4102 41.3155 79.302 41.1495 78.4914 40.366L78.4823 40.3572L78.4823 40.3571C76.6836 38.5741 77.271 35.9533 78.7411 33.8705C80.1581 31.8629 82.5992 29.9616 85.7037 28.7943C84.5826 17.1151 74.6678 8.0023 62.6058 8.00004C51.7261 8.09791 42.6372 15.4792 40.0748 25.4958C39.9529 25.9724 39.4996 26.2904 39.0056 26.2459C38.4515 26.196 37.8866 26.15 37.3316 26.15C29.42 26.15 22.9732 32.6407 23.2084 40.5205L23.2085 40.5255C23.3961 48.1044 29.931 54.15 37.6343 54.15H42.3755C42.9326 54.15 43.3843 54.5978 43.3843 55.15C43.3843 55.7023 42.9326 56.15 42.3755 56.15H37.6343C28.8954 56.15 21.4089 49.297 21.1916 40.5771C20.9239 31.558 28.2967 24.15 37.3316 24.15C37.6754 24.15 38.0165 24.1649 38.3433 24.1863C41.4023 13.7228 51.0748 6.10157 62.5924 6.00008ZM85.6514 30.9762C83.2599 32.0218 81.4425 33.5318 80.3942 35.0171C79.1056 36.8427 79.1854 38.2198 79.9041 38.9381C80.1029 39.1274 80.4439 39.2524 80.996 39.123C81.563 38.9901 82.2796 38.5926 82.997 37.843C84.2418 36.5423 85.3981 34.266 85.6514 30.9762Z" fill="url(#paint0_linear)"/>
<defs>
<linearGradient id="paint0_linear" x1="62.5753" y1="6" x2="62.5753" y2="78.2535" gradientUnits="userSpaceOnUse">
<stop stop-color="#F0677E"/>
<stop offset="1" stop-color="#DB1F2E"/>
</linearGradient>
</defs>
</svg>
