<svg xmlns="http://www.w3.org/2000/svg" width="16" height="16" viewBox="0 0 16 16">
    <g id = "audio-disconnected-16" fill-rule="evenodd">
        <path d="M8 14.593l-4.154-4.435A.501.501 0 0 0 3.481 10h-1.48c-.552 0-1-.448-1-1V7c0-.552.448-1 1-1h1.48a.498.498 0 0 0 .365-.158L8 1.407v13.186zM8.547.057C8.822.17 9 .437 9 .735v14.53a.733.733 0 0 1-1.254.519L3.266 11H2c-1.102 0-2-.897-2-2V7c0-1.102.898-2 2-2h1.265L7.735.228l.011-.012a.731.731 0 0 1 .801-.16zM14.194 8.5l1.646 1.646a.5.5 0 1 1-.707.708l-1.646-1.647-1.647 1.647a.498.498 0 0 1-.707 0 .502.502 0 0 1 0-.708L12.78 8.5l-1.647-1.646a.5.5 0 0 1 .707-.708l1.647 1.647 1.646-1.647a.5.5 0 0 1 .707.708L14.194 8.5z"/>
    </g>
</svg>
