<?xml version="1.0" standalone="no"?>
<!DOCTYPE svg PUBLIC "-//W3C//DTD SVG 1.1//EN" "http://www.w3.org/Graphics/SVG/1.1/DTD/svg11.dtd" >
<svg xmlns="http://www.w3.org/2000/svg" id="audio-file_24">
<path unicode="&#xea27;" transform="scale(1,-1)" id="audio-file_24" data-tags="audio-file_24" d="M789.333-21.333h-554.667c-35.285 0-64 28.715-64 64v400.555c34.133-14.208 56.704-61.184 80.213-110.976 31.019-65.749 66.176-140.245 140.117-140.245s109.184 74.496 140.203 140.245c28.117 59.52 54.656 115.755 101.632 115.755s73.515-56.235 101.632-115.755c27.861-59.008 59.307-124.587 118.869-137.515v-152.064c0-35.285-28.715-64-64-64zM234.667 917.333h355.541c1.792 0 3.755-0.811 5.035-2.091l256-256c1.408-1.408 2.091-2.987 2.091-4.992v-414.848c-34.176 14.208-56.747 61.227-80.299 111.019-31.019 65.749-66.261 140.245-140.203 140.245s-109.184-74.496-140.203-140.245c-28.117-59.52-54.656-115.755-101.632-115.755-46.933 0-73.472 56.235-101.547 115.755-27.861 59.008-59.264 124.587-118.784 137.515v365.397c0 35.285 28.715 64 64 64zM881.408 689.408l-256 256c-9.259 9.259-22.059 14.592-35.2 14.592h-355.541c-58.837 0-106.667-47.829-106.667-106.667v-810.667c0-58.837 47.829-106.667 106.667-106.667h554.667c58.837 0 106.667 47.829 106.667 106.667v611.584c0 13.312-5.163 25.728-14.592 35.157z" />
</svg>
