<?xml version="1.0" standalone="no"?>
<!DOCTYPE svg PUBLIC "-//W3C//DTD SVG 1.1//EN" "http://www.w3.org/Graphics/SVG/1.1/DTD/svg11.dtd" >
<svg xmlns="http://www.w3.org/2000/svg" id="audio-file_32">
<path unicode="&#xea28;" transform="scale(1,-1)" id="audio-file_32" data-tags="audio-file_32" d="M800-32h-576c-35.296 0-64 28.704-64 64v381.984c42.048-9.664 67.2-61.664 93.504-116.864 32.096-67.392 65.312-137.12 136.384-137.12 71.104 0 104.32 69.728 136.448 137.12 29.152 61.12 56.704 118.88 107.616 118.88 50.88 0 78.432-57.76 107.584-118.88 29.856-62.688 61.088-126.592 122.464-135.36v-129.76c0-35.296-28.704-64-64-64zM224 928h379.232l260.768-260.768v-473.216c-42.080 9.664-67.264 61.664-93.6 116.864-32.128 67.392-65.344 137.12-136.448 137.12-71.136 0-104.352-69.728-136.48-137.12-29.152-61.12-56.704-118.88-107.584-118.88s-78.4 57.76-107.52 118.88c-29.824 62.688-61.056 126.592-122.368 135.36v417.76c0 35.296 28.704 64 64 64zM886.624 689.888l-260.768 260.736c-5.984 6.016-14.112 9.376-22.624 9.376h-379.232c-53.024 0-96-42.976-96-96v-832c0-53.024 42.976-96 96-96h576c53.024 0 96 42.976 96 96v635.232c0 8.512-3.36 16.64-9.376 22.656z" />
</svg>
