<svg width="421" height="231" viewBox="0 0 421 231" fill="none" xmlns="http://www.w3.org/2000/svg">
	<g id="best_Practice">
		<g clip-path="url(#clip0)">
			<g id="Layer 2">
				<g id="Layer 1">
					<path id="Vector" d="M420.04 0.0499878H271.47V230.05H420.04V0.0499878Z" fill="#FFF2ED"/>
					<path id="Vector_2" d="M420 148L418.28 146.41C401.82 130.757 392.25 121.653 389.57 119.1C389.09 118.64 382.91 113.49 381.14 112.76C379.37 112.03 378.19 110.57 376.31 110.3L375.83 110.13C364.957 106.39 350.837 104.52 333.47 104.52H303.9C293.54 104.613 285.25 107.447 279.03 113.02C275.761 115.954 273.18 119.574 271.47 123.62V204.9C274.85 211.12 281.123 214.363 290.29 214.63L290.24 229.86H376.33V154.5C382.37 159.067 391.987 166.383 405.18 176.45C409.676 179.908 414.674 182.66 420 184.61V148Z" fill="#FF9897"/>
					<g id="Rectangle">
						<path id="path-1" d="M151.74 0.0499878H0V230.05H151.74V0.0499878Z" fill="#E8FAE9"/>
					</g>
					<path id="Vector_3" fill-rule="evenodd" clip-rule="evenodd" d="M151.56 159.81C150.77 159.22 149.99 158.66 149.24 158.15C142.65 153.63 121.11 146.4 75.77 146.4C45.6633 146.4 21.2467 149.687 2.52 156.26C1.66396 156.481 0.822365 156.755 0 157.08L0 230.08H151.56V159.81Z" fill="#FFCE73"/>
					<g id="Group">
						<g id="Group 3 Copy 2">
							<path id="Rectangle_2" d="M97.2 145.89H48.85V230.03H97.2V145.89Z" fill="white"/>
							<g id="Group 7">
								<path id="Rectangle_3" fill-rule="evenodd" clip-rule="evenodd" d="M48.85 140.72L72.9 167.19L48.85 181.52V140.72Z" fill="white" stroke="#124052" stroke-linecap="round" stroke-linejoin="round"/>
								<path id="Rectangle Copy 2" fill-rule="evenodd" clip-rule="evenodd" d="M97.14 140.72L73.09 167.19L97.14 181.52V140.72Z" fill="white" stroke="#124052" stroke-linecap="round" stroke-linejoin="round"/>
							</g>
							<g id="Group 19">
								<path id="Rectangle_4" fill-rule="evenodd" clip-rule="evenodd" d="M73 80.1801C76.1696 80.1787 79.3085 80.8019 82.2372 82.014C85.166 83.226 87.8272 85.0032 90.069 87.244C92.3107 89.4848 94.089 92.1454 95.3023 95.0736C96.5155 98.0018 97.14 101.14 97.14 104.31V141.89C97.132 148.287 94.5852 154.42 90.059 158.94C85.5327 163.461 79.3971 166 73 166C69.8304 166 66.6918 165.376 63.7635 164.162C60.8353 162.949 58.1748 161.171 55.934 158.929C53.6932 156.687 51.916 154.026 50.7039 151.097C49.4919 148.169 48.8687 145.03 48.87 141.86V104.31C48.87 97.9104 51.4123 91.7728 55.9375 87.2476C60.4628 82.7223 66.6003 80.1801 73 80.1801Z" fill="white" stroke="#124052" stroke-linecap="round" stroke-linejoin="round"/>
								<g id="Group_2">
									<path id="Rectangle_5" fill-rule="evenodd" clip-rule="evenodd" d="M78.56 32.11C70.1526 32.1074 62.088 35.4426 56.1383 41.3829C50.1886 47.3232 46.8407 55.3826 46.83 63.79L46.77 95.79C46.7572 99.9792 47.5721 104.13 49.1681 108.003C50.7641 111.876 53.1097 115.396 56.07 118.36C62.0776 124.375 70.2091 127.787 78.71 127.86C87.0255 127.876 95.0069 124.589 100.899 118.721C106.791 112.853 110.111 104.886 110.13 96.57L110.19 63.71C110.185 55.3256 106.85 47.2866 100.918 41.3607C94.9867 35.4349 86.9445 32.1074 78.56 32.11Z" fill="white" stroke="#124052" stroke-linecap="round" stroke-linejoin="round"/>
									<path id="Path 74" d="M80.98 77.53V93.43" stroke="#124052" stroke-linecap="round" stroke-linejoin="round"/>
									<path id="Rectangle_6" fill-rule="evenodd" clip-rule="evenodd" d="M109.39 93.39V96.59C109.382 100.612 108.582 104.594 107.035 108.307C105.489 112.02 103.226 115.392 100.376 118.231C97.5264 121.07 94.1453 123.319 90.4261 124.851C86.7069 126.383 82.7223 127.168 78.6999 127.16H78.4C70.1711 127.065 62.3123 123.726 56.5318 117.869C50.7512 112.012 47.5162 104.109 47.53 95.88V93.54L109.39 93.39Z" fill="#124052"/>
									<path id="Oval" d="M65.32 75.7701C66.5295 75.7701 67.51 74.7851 67.51 73.5701C67.51 72.355 66.5295 71.3701 65.32 71.3701C64.1105 71.3701 63.13 72.355 63.13 73.5701C63.13 74.7851 64.1105 75.7701 65.32 75.7701Z" fill="#124052"/>
									<path id="Oval Copy" d="M93.85 75.7701C95.0595 75.7701 96.04 74.7851 96.04 73.5701C96.04 72.355 95.0595 71.3701 93.85 71.3701C92.6405 71.3701 91.66 72.355 91.66 73.5701C91.66 74.7851 92.6405 75.7701 93.85 75.7701Z" fill="#124052"/>
									<path id="Oval_2" fill-rule="evenodd" clip-rule="evenodd" d="M46.55 90.0001C46.6 90.1301 46.7 72.4501 46.55 72.4301C41.76 72.4301 37.87 74.9601 37.86 79.8101C37.85 84.6601 41.76 90.0501 46.55 90.0001Z" fill="white" stroke="#124052" stroke-linecap="round" stroke-linejoin="round"/>
									<path id="Path 33" fill-rule="evenodd" clip-rule="evenodd" d="M70.52 96.85C69.7934 100.543 70.61 103.143 72.97 104.65C75.33 106.157 78.1867 105.747 81.54 103.42L70.52 96.85Z" fill="white" stroke="#124052" stroke-linecap="round" stroke-linejoin="round"/>
								</g>
								<path id="Vector_4" fill-rule="evenodd" clip-rule="evenodd" d="M140.37 30.33C137.44 25.45 131.37 23.33 124.44 23.96C124.524 23.4408 124.567 22.9159 124.57 22.39C124.57 19.794 123.602 17.2913 121.854 15.372C120.105 13.4527 117.704 12.2551 115.119 12.0136C112.534 11.7722 109.952 12.5042 107.879 14.0666C105.806 15.6289 104.39 17.9088 103.91 20.46C92.0699 12.71 76.1899 6.36003 65.3199 6.46003C45.9999 6.56003 38.6899 16.15 38.6899 29.22V75.48C39.7143 74.61 40.9003 73.9507 42.1799 73.54C44.0238 73.2074 45.8971 73.0666 47.7699 73.12C47.0087 68.5079 47.0087 63.8022 47.7699 59.19C48.8999 52.79 54.7199 41 65.3199 41C75.9199 41 78.3199 49.21 93.8499 57.71C97.7139 59.9233 101.997 61.3057 106.426 61.7689C110.855 62.2321 115.332 61.7659 119.57 60.4C122.762 59.6245 125.817 58.3667 128.63 56.67C139.8 49.91 145.06 38.14 140.37 30.33Z" fill="#124052"/>
							</g>
							<path id="Path-7" d="M72.96 166.03L73.99 230.02" stroke="#124052" stroke-linecap="round" stroke-linejoin="round"/>
						</g>
					</g>
					<g id="Mask">
						<path id="path-3" d="M271.48 0H133.07V117.86H271.48V0Z" fill="#E6F9FC"/>
					</g>
					<g id="Group_3">
						<g id="Group 24 Copy">
							<g id="Group 8">
								<g id="Group 8 Copy">
									<g id="Group 18">
										<g id="Group_4">
											<path id="Oval_3" fill-rule="evenodd" clip-rule="evenodd" d="M203.41 82.31C221.41 82.31 238.59 67.66 238.59 49.59C238.59 31.52 225.16 16.88 197.65 16.88C179.65 16.88 170.65 31.52 170.65 49.59C170.674 58.2675 174.134 66.5822 180.274 72.7144C186.414 78.8466 194.733 82.2968 203.41 82.31Z" fill="white" stroke="#122933" stroke-linecap="round" stroke-linejoin="round"/>
											<g id="Rectangle_7">
												<path fill-rule="evenodd" clip-rule="evenodd" d="M189.27 104.31V82.31H216.98V104.42" fill="white"/>
												<path d="M189.27 104.31V82.31H216.98V104.42" stroke="#124052" stroke-linecap="round" stroke-linejoin="round"/>
											</g>
											<g id="Group 11">
												<path id="Path 8" d="M195.87 22C213.457 20.84 227.623 28.5067 238.37 45" stroke="#124052" stroke-linecap="round" stroke-linejoin="round"/>
												<path id="Path 9" d="M193.6 28.06C204.213 28 212.63 30.18 218.85 34.6C233.47 45 233.47 55.2 233.47 66.54" stroke="#124052" stroke-linecap="round" stroke-linejoin="round"/>
												<path id="Path 12" d="M179.29 37.23C174.963 45.23 173.63 54.58 175.29 65.28" stroke="#124052" stroke-linecap="round" stroke-linejoin="round"/>
											</g>
										</g>
										<path id="Rectangle_8" fill-rule="evenodd" clip-rule="evenodd" d="M202.46 38.3C207.71 38.3 212.744 40.3847 216.457 44.0957C220.17 47.8068 222.257 52.8404 222.26 58.09V75.85C222.257 81.0995 220.17 86.1332 216.457 89.8442C212.744 93.5553 207.71 95.64 202.46 95.64C197.211 95.64 192.178 93.555 188.466 89.8436C184.755 86.1323 182.67 81.0986 182.67 75.85V58.09C182.67 55.4911 183.182 52.9177 184.176 50.5167C185.171 48.1156 186.629 45.934 188.466 44.0963C192.178 40.385 197.211 38.3 202.46 38.3Z" fill="white" stroke="#124052" stroke-linecap="round" stroke-linejoin="round"/>
										<path id="Oval_4" d="M189.32 68.01C190.182 68.01 190.88 67.3116 190.88 66.45C190.88 65.5884 190.182 64.89 189.32 64.89C188.458 64.89 187.76 65.5884 187.76 66.45C187.76 67.3116 188.458 68.01 189.32 68.01Z" fill="#124052"/>
										<path id="Oval-Copy" d="M210.68 68.01C211.542 68.01 212.24 67.3116 212.24 66.45C212.24 65.5884 211.542 64.89 210.68 64.89C209.818 64.89 209.12 65.5884 209.12 66.45C209.12 67.3116 209.818 68.01 210.68 68.01Z" fill="#124052"/>
										<path id="Path 2" d="M200.48 84.31C202.345 84.3454 204.159 83.6982 205.58 82.49C206.891 81.2069 207.663 79.4726 207.74 77.64" stroke="#124052" stroke-linecap="round" stroke-linejoin="round"/>
										<path id="Path" d="M199.5 64.97V77.14" stroke="#124052" stroke-linecap="round" stroke-linejoin="round"/>
										<path id="Path 5" fill-rule="evenodd" clip-rule="evenodd" d="M182.67 71.05L184.83 50.66H188C188.996 50.7118 189.988 50.4916 190.869 50.023C191.749 49.5545 192.486 48.8551 193 48C193.819 48.9083 194.833 49.6201 195.965 50.0824C197.097 50.5447 198.319 50.7455 199.54 50.67C201.861 50.5301 204.06 49.586 205.76 48C207.92 49.78 209.76 50.67 211.34 50.67C212.92 50.67 214.59 49.78 216.42 48C216.828 52.3989 217.641 56.7508 218.85 61C219.943 64.66 221.08 68.02 222.26 71.08C225.2 71.2133 226.2 65.6566 225.26 54.41C223.78 37.52 207.74 34.6 199.5 34.6C191.26 34.6 181.5 42.6 180.69 55.33C180.137 63.8433 180.797 69.0833 182.67 71.05Z" fill="#124052"/>
										<path id="Oval_5" fill-rule="evenodd" clip-rule="evenodd" d="M222.26 76.31C226.66 74.41 228.613 71.9467 228.12 68.92C227.627 65.8934 225.673 64.96 222.26 66.12V76.31Z" fill="white" stroke="#124052" stroke-linecap="round" stroke-linejoin="round"/>
									</g>
								</g>
							</g>
						</g>
					</g>
					<g id="Mask_2">
						<path id="path-7" d="M271.47 117.84H132.87V230.07H271.47V117.84Z" fill="#FCF4E1"/>
					</g>
					<path id="Vector_5" fill-rule="evenodd" clip-rule="evenodd" d="M271.47 203.36C262.33 198.25 251.07 201.75 243.69 193.76C235.13 184.49 237.36 160.17 237.36 157.37C237.36 139.12 234.48 128.32 215.67 123.69C203.123 120.597 194.52 123.987 189.86 133.86C178.32 134.82 172.55 140.243 172.55 150.13V181.47C172.55 202.02 164.46 189.93 156.62 206.53C155.351 209.56 154.889 212.868 155.28 216.13C157.633 213.862 160.545 212.258 163.72 211.48H163.82C168.308 210.383 172.91 209.819 177.53 209.8C180.84 209.74 190.17 209.8 206.79 209.8C224.303 209.76 239.677 209.803 252.91 209.93H254.32V210.07C260.678 210.334 266.692 213.03 271.12 217.6L271.47 217.97V203.36Z" fill="#124052"/>
					<g id="Group_5">
						<g id="Group 23 Copy">
							<g id="Group-18">
								<g id="Group 13">
									<g id="Rectangle_9">
										<path fill-rule="evenodd" clip-rule="evenodd" d="M194.56 209.88V171.36H221.74V209.88" fill="white"/>
										<path d="M194.56 209.88V171.36H221.74V209.88" stroke="#124052" stroke-linecap="round" stroke-linejoin="round"/>
									</g>
								</g>
								<path id="Rectangle_10" d="M221.74 159.38C221.74 148.124 212.616 139 201.36 139C190.104 139 180.98 148.124 180.98 159.38V175.92C180.98 187.176 190.104 196.3 201.36 196.3C212.616 196.3 221.74 187.176 221.74 175.92V159.38Z" fill="white" stroke="#124052" stroke-linecap="round" stroke-linejoin="round"/>
								<path id="Path-5" fill-rule="evenodd" clip-rule="evenodd" d="M210.49 163.63C202.49 160.26 200.23 154.71 196.84 151.45C193.45 148.19 189.74 147.12 186.41 148.78C180.86 151.54 180.92 162.12 179.06 158.09C177.82 155.423 177.82 148.4 179.06 137.02L220.89 135.63L226.56 159C221.167 164.333 215.81 165.877 210.49 163.63Z" fill="#124052"/>
								<g id="Group 5">
									<g id="Group 4">
										<path id="Oval_6" d="M188.5 168.35C189.362 168.35 190.06 167.652 190.06 166.79C190.06 165.928 189.362 165.23 188.5 165.23C187.638 165.23 186.94 165.928 186.94 166.79C186.94 167.652 187.638 168.35 188.5 168.35Z" fill="#124052"/>
										<path id="Oval-Copy_2" d="M210.49 168.35C211.352 168.35 212.05 167.652 212.05 166.79C212.05 165.928 211.352 165.23 210.49 165.23C209.628 165.23 208.93 165.928 208.93 166.79C208.93 167.652 209.628 168.35 210.49 168.35Z" fill="#124052"/>
									</g>
									<path id="Path-2" d="M199.32 184.84C201.232 184.877 203.095 184.228 204.57 183.01C205.909 181.716 206.703 179.96 206.79 178.1" stroke="#124052" stroke-linecap="round" stroke-linejoin="round"/>
									<path id="Path_2" d="M198.3 165.29V177.59" stroke="#124052" stroke-linecap="round" stroke-linejoin="round"/>
								</g>
								<path id="Oval_7" fill-rule="evenodd" clip-rule="evenodd" d="M221.74 172.71C226.27 170.79 228.29 168.3 227.74 165.24C227.19 162.18 225.22 161.24 221.74 162.41V172.71Z" fill="white" stroke="#124052" stroke-linecap="round" stroke-linejoin="round"/>
							</g>
						</g>
					</g>
					<path id="Vector_6" fill-rule="evenodd" clip-rule="evenodd" d="M271.47 218.22L270.9 217.61C266.47 213.035 260.453 210.336 254.09 210.07V209.93C240.537 209.79 224.69 209.74 206.55 209.78C189.92 209.78 180.55 209.72 177.29 209.78C172.666 209.798 168.061 210.362 163.57 211.46H163.47C163.47 211.46 151.37 213.46 147.25 230.22H271.47V218.22Z" fill="#1DC4F2" fill-opacity="0.5"/>
					<path id="Vector_7" d="M332.67 64C336.065 64 339.321 65.3486 341.721 67.749C344.121 70.1495 345.47 73.4052 345.47 76.8V104.32C345.47 107.715 344.121 110.97 341.721 113.371C339.321 115.771 336.065 117.12 332.67 117.12C329.275 117.12 326.019 115.771 323.619 113.371C321.219 110.97 319.87 107.715 319.87 104.32V76.81C319.869 75.1282 320.199 73.4627 320.841 71.9086C321.484 70.3545 322.427 68.9422 323.616 67.7526C324.804 66.5629 326.216 65.6192 327.769 64.9753C329.323 64.3314 330.988 64 332.67 64Z" fill="white" stroke="#124052" stroke-linecap="round" stroke-linejoin="round"/>
					<path id="Vector_8" fill-rule="evenodd" clip-rule="evenodd" d="M367 49.66C368.871 49.1613 370.498 48.0007 371.579 46.3936C372.659 44.7864 373.12 42.8419 372.876 40.9207C372.632 38.9995 371.699 37.2322 370.251 35.9466C368.802 34.661 366.937 33.9445 365 33.93H364.47C365.349 33.0176 366.025 31.9299 366.455 30.7381C366.884 29.5463 367.057 28.2773 366.963 27.014C366.868 25.7507 366.508 24.5217 365.905 23.4072C365.303 22.2928 364.472 21.318 363.467 20.5468C362.462 19.7755 361.306 19.2251 360.073 18.9315C358.841 18.638 357.561 18.6079 356.316 18.8432C355.071 19.0786 353.89 19.574 352.85 20.2972C351.81 21.0204 350.934 21.9551 350.28 23.04L349.83 22.72C350.59 21.5847 351.082 20.2912 351.268 18.9377C351.454 17.5841 351.329 16.206 350.903 14.9078C350.477 13.6096 349.762 12.4253 348.81 11.4448C347.859 10.4644 346.696 9.71342 345.412 9.24889C344.127 8.78436 342.753 8.61847 341.394 8.76378C340.036 8.90909 338.728 9.3618 337.571 10.0876C336.413 10.8134 335.436 11.7932 334.713 12.9527C333.991 14.1122 333.542 15.4211 333.4 16.78H333.2C333.276 16.3137 333.316 15.8423 333.32 15.37C333.366 14.0674 333.128 12.7704 332.623 11.5687C332.118 10.367 331.358 9.28936 330.396 8.41021C329.434 7.53106 328.292 6.87141 327.05 6.47688C325.807 6.08235 324.494 5.96236 323.201 6.1252C321.908 6.28805 320.666 6.72984 319.56 7.42002C318.454 8.11021 317.512 9.03232 316.797 10.1226C316.083 11.2129 315.614 12.4453 315.423 13.7346C315.232 15.0239 315.323 16.3394 315.69 17.59C315.104 16.5225 314.281 15.603 313.285 14.9016C312.289 14.2002 311.147 13.7355 309.944 13.5428C308.741 13.3502 307.51 13.4347 306.345 13.7899C305.18 14.1452 304.112 14.7618 303.221 15.5927C302.33 16.4236 301.641 17.4469 301.206 18.5845C300.771 19.7222 300.602 20.9442 300.711 22.1573C300.819 23.3705 301.204 24.5427 301.835 25.5847C302.465 26.6267 303.326 27.511 304.35 28.17C304.23 28.3 304.12 28.45 304 28.59C302.599 27.4845 300.865 26.8853 299.08 26.89C297.402 26.8921 295.767 27.4219 294.406 28.4044C293.046 29.387 292.029 30.7725 291.499 32.3649C290.969 33.9573 290.954 35.676 291.455 37.2777C291.956 38.8794 292.947 40.2831 294.29 41.29C292.418 41.8079 290.797 42.9896 289.732 44.6144C288.667 46.2392 288.23 48.1961 288.501 50.1198C288.773 52.0435 289.736 53.8026 291.21 55.0686C292.683 56.3347 294.567 57.0212 296.51 57C297.065 57.0016 297.618 56.9413 298.16 56.82C298.28 57.2 298.4 57.57 298.53 57.94C297.619 59.0695 297.047 60.4339 296.88 61.8751C296.713 63.3163 296.958 64.7754 297.585 66.0834C298.213 67.3914 299.199 68.4948 300.428 69.2658C301.657 70.0368 303.079 70.4439 304.53 70.44C305.206 70.4337 305.878 70.3396 306.53 70.16C312.201 75.3922 319.45 78.5919 327.138 79.2562C334.825 79.9205 342.515 78.0118 349 73.83C350.503 75.0302 352.403 75.6217 354.321 75.4873C356.24 75.3529 358.039 74.5024 359.36 73.1044C360.681 71.7063 361.429 69.8629 361.455 67.9395C361.481 66.0161 360.783 64.1531 359.5 62.72V62.66C360.35 63.4243 361.359 63.9892 362.455 64.3131C363.551 64.6371 364.706 64.7121 365.835 64.5325C366.963 64.353 368.038 63.9235 368.979 63.2754C369.92 62.6273 370.705 61.7771 371.276 60.7868C371.846 59.7965 372.188 58.6913 372.277 57.5518C372.365 56.4124 372.198 55.2676 371.787 54.201C371.376 53.1345 370.732 52.1733 369.903 51.3876C369.073 50.6019 368.077 50.0117 366.99 49.66H367Z" fill="#124052"/>
					<path id="Vector_9" d="M326.27 37.13C331.362 37.13 336.246 39.1529 339.847 42.7536C343.447 46.3543 345.47 51.2379 345.47 56.33V72.33C345.47 77.4222 343.447 82.3058 339.847 85.9065C336.246 89.5072 331.362 91.53 326.27 91.53C321.178 91.53 316.294 89.5072 312.694 85.9065C309.093 82.3058 307.07 77.4222 307.07 72.33V56.33C307.069 53.8083 307.564 51.311 308.529 48.9809C309.493 46.6509 310.908 44.5338 312.691 42.7506C314.474 40.9675 316.591 39.5533 318.921 38.5888C321.251 37.6244 323.748 37.1287 326.27 37.13Z" fill="white"/>
					<path id="Vector_10" d="M326.27 37.13C331.362 37.13 336.246 39.1529 339.847 42.7536C343.447 46.3543 345.47 51.2379 345.47 56.33V72.33C345.47 77.4222 343.447 82.3058 339.847 85.9065C336.246 89.5072 331.362 91.53 326.27 91.53C321.178 91.53 316.294 89.5072 312.694 85.9065C309.093 82.3058 307.07 77.4222 307.07 72.33V56.33C307.069 53.8083 307.564 51.311 308.529 48.9809C309.493 46.6509 310.908 44.5338 312.691 42.7506C314.474 40.9675 316.591 39.5533 318.921 38.5888C321.251 37.6244 323.748 37.1287 326.27 37.13V37.13Z" stroke="#124052" stroke-linecap="round" stroke-linejoin="round"/>
					<path id="Vector_11" d="M314.43 72.33C319.202 72.33 323.07 68.4617 323.07 63.69C323.07 58.9182 319.202 55.05 314.43 55.05C309.658 55.05 305.79 58.9182 305.79 63.69C305.79 68.4617 309.658 72.33 314.43 72.33Z" stroke="#124052" stroke-linecap="round" stroke-linejoin="round"/>
					<path id="Vector_12" d="M334.91 72.33C339.682 72.33 343.55 68.4617 343.55 63.69C343.55 58.9182 339.682 55.05 334.91 55.05C330.138 55.05 326.27 58.9182 326.27 63.69C326.27 68.4617 330.138 72.33 334.91 72.33Z" stroke="#124052" stroke-linecap="round" stroke-linejoin="round"/>
					<path id="Vector_13" fill-rule="evenodd" clip-rule="evenodd" d="M334.87 60.51C327.35 57.31 325.21 52 322 49C318.79 46 315.32 44.88 312.18 46.46C307 49 307 59.08 305.26 55.25C304.1 52.69 304.1 46.0233 305.26 35.25L344.67 33.94L350 56.11C344.933 61.1833 339.89 62.65 334.87 60.51Z" fill="#124052"/>
					<path id="Vector_14" d="M314.16 64.79C314.867 64.79 315.44 64.2169 315.44 63.51C315.44 62.8031 314.867 62.23 314.16 62.23C313.453 62.23 312.88 62.8031 312.88 63.51C312.88 64.2169 313.453 64.79 314.16 64.79Z" fill="#124052"/>
					<path id="Vector_15" d="M334.87 64.79C335.577 64.79 336.15 64.2169 336.15 63.51C336.15 62.8031 335.577 62.23 334.87 62.23C334.163 62.23 333.59 62.8031 333.59 63.51C333.59 64.2169 334.163 64.79 334.87 64.79Z" fill="#124052"/>
					<path id="Vector_16" d="M324.35 80.65C326.154 80.6806 327.908 80.0592 329.29 78.9C330.555 77.6729 331.306 76.0104 331.39 74.25" stroke="#124052" stroke-linecap="round" stroke-linejoin="round"/>
					<path id="Vector_17" d="M323.39 62.08V73.76" stroke="#124052" stroke-linecap="round" stroke-linejoin="round"/>
					<path id="Vector_18" d="M345.47 69.13C349.737 67.2967 351.633 64.93 351.16 62.03C350.67 59.13 348.78 58.23 345.47 59.35V69.13Z" fill="white"/>
					<path id="Vector_19" d="M345.47 69.13C349.737 67.2967 351.633 64.93 351.16 62.03C350.67 59.13 348.78 58.23 345.47 59.35V69.13Z" stroke="#124052" stroke-linecap="round" stroke-linejoin="round"/>
					<g id="Group_6">
						<path id="Vector_20" d="M317.95 134.41H271.41V138.25H317.95V134.41Z" fill="#E5E5F7"/>
						<path id="Vector_21" d="M419.96 150.41H371.07V154.25H419.96V150.41Z" fill="#E5E5F7"/>
						<path id="Vector_22" d="M367.23 195.85H315.39V199.69H367.23V195.85Z" fill="#E5E5F7"/>
						<path id="Vector_23" d="M300.73 174.01V147.53" stroke="#124052" stroke-linecap="round" stroke-linejoin="round"/>
						<path id="Vector_24" d="M303.23 172.78L283.39 184.79" stroke="#124052" stroke-linecap="round" stroke-linejoin="round"/>
					</g>
					<path id="Vector_25" fill-rule="evenodd" clip-rule="evenodd" d="M334.91 149.77H346.63H368.64V181.84H346.75V175.47L334.91 163.99V149.77Z" fill="#D1D6FF"/>
					<path id="Vector_26" fill-rule="evenodd" clip-rule="evenodd" d="M326.24 154.71C329.2 151.497 332.09 149.85 334.91 149.77V154.91C336.537 154.461 338.223 154.262 339.91 154.32C342.74 154.47 351.76 156.32 351.51 168.39C351.26 180.46 343.04 182.76 335.87 182.76C333.243 182.76 330.01 182.73 326.17 182.67L311.67 194.51L302.62 172.64L319.62 162.21H319.67C321.397 160.07 323.587 157.57 326.24 154.71Z" fill="white"/>
					<path id="Vector_27" fill-rule="evenodd" clip-rule="evenodd" d="M326.24 154.71C329.2 151.497 332.09 149.85 334.91 149.77V154.91C336.537 154.461 338.223 154.262 339.91 154.32C342.74 154.47 351.76 156.32 351.51 168.39C351.26 180.46 343.04 182.76 335.87 182.76C333.243 182.76 330.01 182.73 326.17 182.67L311.67 194.51L302.62 172.64L319.62 162.21H319.67C321.397 160.07 323.587 157.57 326.24 154.71Z" stroke="#124052" stroke-linecap="round" stroke-linejoin="round"/>
					<path id="Vector_28" d="M314.16 104.47H345.47L351.44 105.16L332.95 146.95L314.16 104.47Z" fill="white"/>
					<g id="Group-5">
						<g id="Group 10">
							<path id="Oval-Copy-2" d="M179.37 37.64C188.477 37.64 195.86 29.8766 195.86 20.3C195.86 10.7234 188.477 2.96002 179.37 2.96002C170.263 2.96002 162.88 10.7234 162.88 20.3C162.88 29.8766 170.263 37.64 179.37 37.64Z" fill="white" stroke="#122933" stroke-linecap="round" stroke-linejoin="round"/>
							<path id="Path-3" d="M164 26.45C166.5 29.33 171.007 30.77 177.52 30.77C183.915 30.8115 190.114 28.5665 195 24.44" stroke="#124052" stroke-linecap="round" stroke-linejoin="round"/>
							<path id="Path 4" d="M179.67 3C183.67 13.5867 182.84 22.8567 177.18 30.81" stroke="#124052" stroke-linecap="round" stroke-linejoin="round"/>
							<path id="Path 4 Copy" d="M190.53 7.51001C192.61 15.51 191.277 22.66 186.53 28.96" stroke="#124052" stroke-linecap="round" stroke-linejoin="round"/>
							<path id="Path 6" d="M166 28.06C166.74 25.4667 168.763 23.41 172.07 21.89C175.029 20.4447 178.287 19.7184 181.58 19.77" stroke="#124052" stroke-linecap="round" stroke-linejoin="round"/>
							<path id="Path 6 Copy" d="M163.16 20.15C164.22 16.7034 166.71 14.2167 170.63 12.69C174 11.2568 177.653 10.6137 181.31 10.81" stroke="#124052" stroke-linecap="round" stroke-linejoin="round"/>
							<path id="Path 6 Copy 2" d="M164.2 13.93C164.933 11.3433 166.907 9.28667 170.12 7.76C173.3 6.30691 176.764 5.5826 180.26 5.64" stroke="#124052" stroke-linecap="round" stroke-linejoin="round"/>
						</g>
					</g>
					<path id="Vector_29" fill-rule="evenodd" clip-rule="evenodd" d="M188.61 104.31V110.45C185.52 110.58 183.08 110.7 181.94 110.77C176.02 111.16 167 113.15 162.46 116.91C162.12 117.19 161.76 117.51 161.4 117.91H256.4C253.426 115.941 250.159 114.456 246.72 113.51C241.05 111.86 225.13 110.68 217.64 110.11V104.36L188.61 104.31Z" fill="#44CF50" fill-opacity="0.4"/>
				</g>
			</g>
		</g>
	</g>
	<defs>
		<clipPath id="clip0">
			<rect width="420.04" height="230.52" fill="white"/>
		</clipPath>
	</defs>
</svg>
