<svg width="14" height="16" viewBox="0 0 14 16" fill="none" xmlns="http://www.w3.org/2000/svg">
<path id="Union" fill-rule="evenodd" clip-rule="evenodd" d="M7.26482 13.5298L7.2519 13.5405L6.21559 14.4121V14.2216C6.21559 13.3061 5.47034 12.5752 4.56489 12.5752H2.6128C1.7214 12.5752 1.01001 11.859 1.01001 10.9894V2.58575C1.01001 1.71615 1.7214 1 2.6128 1H12C12.5523 1 13 1.44771 13 2V10.9894C13 11.859 12.2886 12.5752 11.3972 12.5752H9.9558C8.97568 12.5752 8.02488 12.912 7.26482 13.5298ZM5.21559 15.5145C5.21559 15.9235 5.694 16.1484 6.01264 15.8894L7.89557 14.3058C8.47684 13.8333 9.20476 13.5752 9.9558 13.5752H11.3972C12.8347 13.5752 14 12.4175 14 10.9894V2C14 0.89543 13.1046 0 12 0H2.6128C1.17532 0 0.0100098 1.15768 0.0100098 2.58575V10.9894C0.0100098 12.4175 1.17532 13.5752 2.6128 13.5752H4.56489C4.92426 13.5752 5.21559 13.8646 5.21559 14.2216V15.5145ZM4.86362 8.64917C4.64218 8.48418 4.32893 8.52994 4.16394 8.75137C3.99895 8.97281 4.04471 9.28606 4.26614 9.45105L4.92713 9.94355C6.25659 10.9341 8.07874 10.9341 9.40821 9.94355L10.0692 9.45105C10.2906 9.28606 10.3364 8.97281 10.1714 8.75137C10.0064 8.52994 9.69315 8.48418 9.47172 8.64917L8.81073 9.14166C7.83579 9.86808 6.49955 9.86808 5.52461 9.14166L4.86362 8.64917ZM10.8278 4.92908C10.8278 5.68775 10.2998 6.30276 9.64844 6.30276C8.99709 6.30276 8.46906 5.68775 8.46906 4.92908C8.46906 4.17042 8.99709 3.5554 9.64844 3.5554C10.2998 3.5554 10.8278 4.17042 10.8278 4.92908ZM3.99118 3.67585C3.78994 3.62692 3.58713 3.75039 3.5382 3.95164C3.48926 4.15288 3.61274 4.35569 3.81398 4.40462C4.08737 4.4711 4.50968 4.61977 4.86931 4.84085C4.94221 4.88567 5.00907 4.93128 5.06974 4.97744C4.33078 4.93572 3.78137 5.15796 3.52124 5.36037C3.35778 5.48755 3.32838 5.72316 3.45556 5.88662C3.58275 6.05007 3.81836 6.07948 3.98181 5.95229C4.12703 5.8393 4.77077 5.54845 5.75064 5.86613C5.874 5.90613 6.00927 5.87955 6.10832 5.79585C6.20738 5.71215 6.25616 5.58322 6.23731 5.45492C6.15179 4.87268 5.68728 4.46332 5.26209 4.20193C4.82113 3.93085 4.32201 3.7563 3.99118 3.67585Z" />
</svg>
