<?xml version="1.0" standalone="no"?>
<!DOCTYPE svg PUBLIC "-//W3C//DTD SVG 1.1//EN" "http://www.w3.org/Graphics/SVG/1.1/DTD/svg11.dtd" >
<svg xmlns="http://www.w3.org/2000/svg" id="blocked_12">
<path unicode="&#xec3d;" id="blocked_12" data-tags="blocked_12" d="M6 11c-1.198 0-2.284-.441-3.146-1.146l7-7C10.559 3.716 11 4.802 11 6c0 2.757-2.243 5-5 5M6 1c1.198 0 2.284.441 3.146 1.146l-7 7C1.441 8.284 1 7.198 1 6c0-2.757 2.243-5 5-5m0-1C2.687 0 0 2.687 0 6c0 3.313 2.687 6 6 6 3.313 0 6-2.687 6-6 0-3.313-2.687-6-6-6" />
</svg>
