<?xml version="1.0" standalone="no"?>
<!DOCTYPE svg PUBLIC "-//W3C//DTD SVG 1.1//EN" "http://www.w3.org/Graphics/SVG/1.1/DTD/svg11.dtd" >
<svg xmlns="http://www.w3.org/2000/svg" id="blur_12">
<path unicode="&#xec3e;" id="blur_12" data-tags="blur_12" d="M5.9995,1.3052 C5.1135,2.4602 2.9995,5.4532 2.9995,7.6962 C2.9995,9.2872 3.9385,11.0002 5.9995,11.0002 C8.0725,11.0002 8.9995,9.3412 8.9995,7.6962 C8.9995,5.4652 6.8845,2.4642 5.9995,1.3052 M5.9995,12.0002 C3.3745,12.0002 1.9995,9.8352 1.9995,7.6962 C1.9995,4.5072 5.4695,0.3532 5.6175,0.1782 C5.7125,0.0652 5.8525,0.0002 5.9995,0.0002 L6.0005,0.0002 C6.1485,0.0002 6.2885,0.0652 6.3835,0.1792 C6.5305,0.3552 9.9995,4.5292 9.9995,7.6962 C9.9995,9.7692 8.7485,12.0002 5.9995,12.0002" />
</svg>
