<svg width="140" height="88" viewBox="0 0 140 88" fill="none" xmlns="http://www.w3.org/2000/svg">
<path fill-rule="evenodd" clip-rule="evenodd" d="M138 12V86H56V12H138Z" fill="#211C18"/>
<g filter="url(#filter0_d)">
<path fill-rule="evenodd" clip-rule="evenodd" d="M14 12V86H56V12H14Z" fill="#302820"/>
</g>
<path fill-rule="evenodd" clip-rule="evenodd" d="M14 21H56V30H14V21Z" fill="#45382B"/>
<g filter="url(#filter1_d)">
<path fill-rule="evenodd" clip-rule="evenodd" d="M2 12V86H14V12H2Z" fill="#302820"/>
</g>
<path fill-rule="evenodd" clip-rule="evenodd" d="M2 2H138V12H2V2Z" fill="#45382B"/>
<path d="M139 87H1V1H139V87Z" stroke="#CCCCCC" stroke-width="2"/>
<circle cx="83" cy="55" r="9" transform="rotate(180 83 55)" fill="#635039"/>
<circle cx="57" cy="55" r="9" transform="rotate(180 57 55)" fill="#876D48"/>
<circle cx="70" cy="35" r="9" transform="rotate(180 70 35)" fill="#CCAF78"/>
<defs>
<filter id="filter0_d" x="14" y="12" width="42.5" height="74" filterUnits="userSpaceOnUse" color-interpolation-filters="sRGB">
<feFlood flood-opacity="0" result="BackgroundImageFix"/>
<feColorMatrix in="SourceAlpha" type="matrix" values="0 0 0 0 0 0 0 0 0 0 0 0 0 0 0 0 0 0 127 0"/>
<feOffset dx="0.5"/>
<feColorMatrix type="matrix" values="0 0 0 0 0.270588 0 0 0 0 0.219608 0 0 0 0 0.168627 0 0 0 1 0"/>
<feBlend mode="normal" in2="BackgroundImageFix" result="effect1_dropShadow"/>
<feBlend mode="normal" in="SourceGraphic" in2="effect1_dropShadow" result="shape"/>
</filter>
<filter id="filter1_d" x="2" y="12" width="12.5" height="74" filterUnits="userSpaceOnUse" color-interpolation-filters="sRGB">
<feFlood flood-opacity="0" result="BackgroundImageFix"/>
<feColorMatrix in="SourceAlpha" type="matrix" values="0 0 0 0 0 0 0 0 0 0 0 0 0 0 0 0 0 0 127 0"/>
<feOffset dx="0.5"/>
<feColorMatrix type="matrix" values="0 0 0 0 0.270588 0 0 0 0 0.219608 0 0 0 0 0.168627 0 0 0 1 0"/>
<feBlend mode="normal" in2="BackgroundImageFix" result="effect1_dropShadow"/>
<feBlend mode="normal" in="SourceGraphic" in2="effect1_dropShadow" result="shape"/>
</filter>
</defs>
</svg>
