<svg width="16" height="16" viewBox="0 0 16 16" fill="none" xmlns="http://www.w3.org/2000/svg">
<g id="calendar_add_16">
<g id="calendar_add_16_2">
<path id="fill" fill-rule="evenodd" clip-rule="evenodd" d="M15 14C15 14.551 14.552 15 14 15H2C1.448 15 1 14.551 1 14V4C1 3.449 1.448 3 2 3H14C14.552 3 15 3.449 15 4V14ZM14 2H12V0.5C12 0.225 11.775 0 11.5 0C11.225 0 11 0.225 11 0.5V2H5V0.5C5 0.225 4.775 0 4.5 0C4.225 0 4 0.225 4 0.5V2H2C0.896 2 0 2.895 0 4V14C0 15.105 0.896 16 2 16H14C15.104 16 16 15.105 16 14V4C16 2.895 15.104 2 14 2ZM11 8.5H8.5V6C8.5 5.724 8.276 5.5 8 5.5C7.724 5.5 7.5 5.724 7.5 6V8.5H5C4.724 8.5 4.5 8.724 4.5 9C4.5 9.276 4.724 9.5 5 9.5H7.5V12C7.5 12.276 7.724 12.5 8 12.5C8.276 12.5 8.5 12.276 8.5 12V9.5H11C11.276 9.5 11.5 9.276 11.5 9C11.5 8.724 11.276 8.5 11 8.5Z"/>
</g>
</g>
</svg>
