<?xml version="1.0" standalone="no"?>
<!DOCTYPE svg PUBLIC "-//W3C//DTD SVG 1.1//EN" "http://www.w3.org/Graphics/SVG/1.1/DTD/svg11.dtd" >
<svg xmlns="http://www.w3.org/2000/svg" id="calendar-empty_24">
<path unicode="&#xeb06;" transform="scale(1,-1)" id="calendar-empty_24" data-tags="calendar-empty_24" d="M909.079-17.455h-794.159c-37.702 0-68.375 30.58-68.375 68.236v117.946h930.909v-117.946c0-37.655-30.673-68.236-68.375-68.236zM114.921 820.364h794.159c37.702 0 68.375-32.933 68.375-73.485v-578.152h-930.909v578.152c0 40.552 30.673 73.485 68.375 73.485zM909.079 866.909h-117.807v69.818c0 12.847-10.426 23.273-23.273 23.273-12.893 0-23.273-10.426-23.273-23.273v-69.818h-465.455v69.818c0 12.847-10.426 23.273-23.273 23.273-12.893 0-23.273-10.426-23.273-23.273v-69.818h-117.807c-63.395 0-114.921-51.479-114.921-114.781v-701.347c0-63.302 51.526-114.781 114.921-114.781h794.159c63.348 0 114.921 51.479 114.921 114.781v701.347c0 63.302-51.572 114.781-114.921 114.781z" />
</svg>
