<?xml version="1.0" encoding="utf-8"?>
<!-- Generator: Adobe Illustrator 22.0.1, SVG Export Plug-In . SVG Version: 6.00 Build 0)  -->
<svg version="1.1" id="Layer_1" xmlns="http://www.w3.org/2000/svg" xmlns:xlink="http://www.w3.org/1999/xlink" x="0px" y="0px"
	 viewBox="0 0 16 16" style="enable-background:new 0 0 16 16;" xml:space="preserve">
<title>meetings/calendar-external_16</title>
<desc>Created with Sketch.</desc>
<g id ="calendar-external_16">
	<path d="M9.5,5C8.1,5,7,6.1,7,7.5c0,0.2,0,0.4,0.1,0.6C6.9,8,6.7,8,6.5,8C5.1,8,4,9.1,4,10.5S5.1,13,6.5,13S9,11.9,9,10.5
		c0-0.2,0-0.4-0.1-0.6C9.1,10,9.3,10,9.5,10c1.4,0,2.5-1.1,2.5-2.5S10.9,5,9.5,5z M6.5,12C5.7,12,5,11.3,5,10.5S5.7,9,6.5,9
		c0.2,0,0.4,0.1,0.6,0.2l-1,1c-0.2,0.2-0.2,0.5,0,0.7C6.2,11,6.4,11,6.5,11s0.3,0,0.4-0.1l1-1C7.9,10.1,8,10.3,8,10.5
		C8,11.3,7.3,12,6.5,12z M9.5,9C9.3,9,9.1,8.9,8.9,8.8l1-1c0.2-0.2,0.2-0.5,0-0.7C9.7,7,9.3,7,9.1,7.1l-1,1C8.1,7.9,8,7.7,8,7.5
		C8,6.7,8.7,6,9.5,6S11,6.7,11,7.5S10.3,9,9.5,9z"/>
	<path d="M14,2h-2V0.5C12,0.2,11.8,0,11.5,0S11,0.2,11,0.5V2H5V0.5C5,0.2,4.8,0,4.5,0S4,0.2,4,0.5V2H2C0.9,2,0,2.9,0,4v10
		c0,1.1,0.9,2,2,2h12c1.1,0,2-0.9,2-2V4C16,2.9,15.1,2,14,2z M15,14c0,0.6-0.4,1-1,1H2c-0.6,0-1-0.4-1-1V4c0-0.6,0.4-1,1-1h12
		c0.6,0,1,0.4,1,1V14z"/>
</g>
</svg>
