<svg width="200" height="150" viewBox="0 0 200 150" fill="none" xmlns="http://www.w3.org/2000/svg">
<path d="M117.34 53.49C131.859 53.49 143.63 41.6659 143.63 27.08C143.63 12.4942 131.859 0.670013 117.34 0.670013C102.82 0.670013 91.0498 12.4942 91.0498 27.08C91.0498 41.6659 102.82 53.49 117.34 53.49Z" fill="#FFD98C"/>
<path d="M91.2298 24.05C91.3298 24.17 91.8998 24.72 92.9398 25.7C92.3711 25.2857 91.7398 24.965 91.0698 24.75" fill="white"/>
<path d="M92.9402 26.08C93.0149 26.0785 93.0875 26.0551 93.1489 26.0127C93.2104 25.9702 93.258 25.9105 93.2857 25.8412C93.3134 25.7718 93.3201 25.6958 93.3049 25.6227C93.2897 25.5496 93.2533 25.4825 93.2002 25.43L91.5002 23.8L90.9502 24.31L91.0702 24.43V25.13C91.6651 25.3528 92.2269 25.6556 92.7402 26.03C92.8022 26.0616 92.8706 26.0787 92.9402 26.08Z" fill="#004154"/>
<path d="M95.3399 27.73L96.0299 27.45C95.8652 27.1731 95.7885 26.8528 95.8099 26.5313C95.8313 26.2099 95.9499 25.9025 96.1499 25.65L96.2899 25.49L95.8699 24.05L95.1499 24.26L95.4499 25.26C95.206 25.6217 95.0667 26.0437 95.0473 26.4795C95.0279 26.9153 95.1291 27.348 95.3399 27.73Z" fill="#004154"/>
<path d="M91.0498 26.83C91.9625 28.0428 93.1806 28.9917 94.5798 29.58C96.5798 30.26 96.7598 30.46 97.4898 31.17C98.2198 31.88 101.19 39.55 103.56 42.4C105.93 45.25 108.2 43.78 109.56 42.51C110.92 41.24 117.85 31.22 119.11 28.94C120.37 26.66 118.36 24.41 116.89 23.56C115.42 22.71 112.89 23.08 111.27 25.86C110.75 26.7267 109 30.06 106.02 35.86C102.133 29.1933 99.8531 25.4767 99.1798 24.71C98.418 23.8878 97.4411 23.2954 96.3598 23L94.0998 22.65C94.0907 22.8322 94.1179 23.0144 94.1797 23.186C94.2415 23.3577 94.3367 23.5154 94.4598 23.65C94.5795 23.8185 94.7387 23.955 94.9236 24.0474C95.1085 24.1398 95.3132 24.1854 95.5198 24.18C95.6849 24.5644 95.7862 24.973 95.8198 25.39C95.2798 25.39 91.8898 23.44 91.5598 23.44H91.4498" fill="white"/>
<path d="M106.45 44.42C107.731 44.328 108.926 43.7396 109.78 42.78C111.13 41.48 118.07 31.52 119.4 29.12C120.73 26.72 118.68 24.18 117.04 23.23C115.58 22.4 112.72 22.6 110.9 25.67C110.4 26.52 108.74 29.67 105.96 35.12C102.24 28.76 100.1 25.28 99.42 24.5C98.6144 23.615 97.5741 22.9769 96.42 22.66L94.1 22.3C94.0511 22.2911 94.0008 22.2927 93.9525 22.3048C93.9042 22.3169 93.859 22.3391 93.82 22.37C93.7771 22.4015 93.7414 22.442 93.7155 22.4886C93.6896 22.5352 93.6741 22.5868 93.67 22.64C93.6638 23.0866 93.8202 23.5202 94.11 23.86C94.2375 24.035 94.3987 24.1827 94.5842 24.2943C94.7697 24.406 94.9757 24.4793 95.19 24.51C95.19 24.64 95.25 24.74 95.28 24.83C94.73 24.59 93.86 24.15 93.28 23.83C91.53 22.93 91.55 22.98 91.28 23.08L91.54 23.79C91.63 23.79 92.36 24.2 92.95 24.5C94.75 25.43 95.45 25.77 95.8 25.73C95.8577 25.7285 95.9141 25.7132 95.9645 25.6853C96.015 25.6575 96.058 25.6179 96.09 25.57C96.21 25.39 96.23 25.29 95.84 24.03C95.8136 23.9552 95.765 23.8902 95.7007 23.8438C95.6363 23.7973 95.5594 23.7716 95.48 23.77C95.3331 23.7752 95.1872 23.7431 95.0561 23.6766C94.9249 23.6102 94.8128 23.5116 94.73 23.39C94.6655 23.3031 94.6054 23.213 94.55 23.12L96.27 23.38C97.265 23.6673 98.159 24.2287 98.85 25C99.51 25.76 101.85 29.49 105.66 36.09C105.691 36.1491 105.739 36.1977 105.798 36.2297C105.857 36.2618 105.923 36.2758 105.99 36.27C106.057 36.2695 106.122 36.2506 106.178 36.2153C106.235 36.18 106.28 36.1297 106.31 36.07C109.31 30.29 111.04 26.92 111.55 26.07C113.1 23.45 115.47 23.23 116.66 23.91C117.85 24.59 119.9 26.67 118.74 28.78C117.49 31 110.55 41 109.26 42.24C108.891 42.6632 108.441 43.0072 107.936 43.2513C107.43 43.4953 106.881 43.6344 106.32 43.66C105.827 43.5948 105.353 43.4277 104.927 43.1695C104.502 42.9113 104.135 42.5675 103.85 42.16C102.42 40.44 100.73 36.85 99.5 34.24C99.0368 33.0678 98.4502 31.9481 97.75 30.9C96.96 30.13 96.75 29.9 94.75 29.23C93.4193 28.6623 92.2607 27.7555 91.39 26.6L90.79 27.06C91.7574 28.3242 93.0355 29.3164 94.5 29.94C96.41 30.6 96.57 30.76 97.27 31.44C97.8707 32.4425 98.4019 33.4849 98.86 34.56C100.11 37.21 101.86 40.85 103.31 42.64C103.658 43.1289 104.105 43.5391 104.622 43.844C105.139 44.1489 105.714 44.3418 106.31 44.41L106.45 44.42Z" fill="#004154"/>
<path d="M112.16 49.81C112.472 49.841 112.784 49.7485 113.029 49.5522C113.274 49.3559 113.432 49.0715 113.47 48.76V48C113.467 47.9632 113.458 47.9272 113.441 47.8942C113.425 47.8612 113.402 47.8318 113.374 47.8076C113.346 47.7835 113.314 47.7651 113.279 47.7534C113.244 47.7418 113.207 47.7373 113.17 47.74H105.73L105.79 48.81L105.34 49.51L106.2 49.82L112.16 49.81Z" fill="white"/>
<path d="M112.07 49.81C112.404 49.8411 112.738 49.7404 112.999 49.5293C113.261 49.3183 113.43 49.0136 113.47 48.68V47.83C113.469 47.7897 113.459 47.7501 113.442 47.7135C113.425 47.6769 113.401 47.6441 113.371 47.617C113.342 47.5899 113.307 47.5692 113.268 47.5559C113.23 47.5427 113.19 47.5373 113.15 47.54H105.15V47.83H113.15V48.67C113.15 49.14 112.64 49.52 112.03 49.52H104.35C104.178 49.601 103.99 49.642 103.8 49.64" fill="#004154"/>
<path d="M112.07 50.06C112.471 50.0908 112.867 49.9637 113.176 49.7058C113.484 49.448 113.679 49.0799 113.72 48.68V47.83C113.715 47.6832 113.652 47.5444 113.545 47.4434C113.439 47.3424 113.297 47.2873 113.15 47.29H104.9V48.08H112.9V48.68C112.9 49 112.5 49.28 112.03 49.28H104.24C104.103 49.3464 103.952 49.3806 103.8 49.38V49.88C104.006 49.8808 104.21 49.84 104.4 49.76H112.03L112.07 50.06Z" fill="#004154"/>
<path d="M91.0498 27.6H105.52C105.74 27.6 105.951 27.6875 106.107 27.8431C106.262 27.9988 106.35 28.2099 106.35 28.43V48.82C106.35 49.0401 106.262 49.2512 106.107 49.4069C105.951 49.5626 105.74 49.65 105.52 49.65L103.43 49.44L100.17 47.15L95.7098 42.15L93.5198 38.15L91.9998 34.53L91.2498 31.1L91.0498 27.6Z" fill="white"/>
<path d="M105.48 50.06C105.801 50.06 106.109 49.9325 106.336 49.7056C106.563 49.4787 106.69 49.1709 106.69 48.85V28.47C106.691 28.3111 106.661 28.1535 106.602 28.0062C106.542 27.8589 106.454 27.7247 106.343 27.6115C106.231 27.4982 106.099 27.4079 105.952 27.3459C105.806 27.2839 105.649 27.2513 105.49 27.25H91.02V28H105.48C105.601 28.0026 105.717 28.0518 105.802 28.1376C105.888 28.2233 105.937 28.3388 105.94 28.46V48.85C105.937 48.9703 105.888 49.0847 105.802 49.1688C105.716 49.2529 105.6 49.3 105.48 49.3H103.74V50.06H105.48Z" fill="#004154"/>
<path d="M104.369 49.3662L104.367 50.1162L130.697 50.1852L130.699 49.4352L104.369 49.3662Z" fill="#004154"/>
<path fill-rule="evenodd" clip-rule="evenodd" d="M119.18 3.00002C120.347 0.493349 122.513 -0.366651 125.68 0.420015C130.42 1.61002 131.14 4.36002 131.13 9.01002C131.13 9.73002 130.56 15.92 132.71 18.29C134.86 20.66 136.3 19.54 138.71 22.02C140.13 23.47 139.49 27.73 137.71 29.02C138.26 28.6 138.25 25.02 137.97 24.75C137.02 23.75 132.66 23.11 131.64 23.11C128.99 23.11 126.59 22.33 123.37 22.33C119.18 22.33 112.21 25.95 111.1 26.96C111.03 26.03 109.86 23.2 110.74 21.48C112.86 17.32 114.74 20.34 114.74 15.1V7.10002C114.787 4.59335 116.267 3.22668 119.18 3.00002Z" fill="#004154"/>
<path fill-rule="evenodd" clip-rule="evenodd" d="M120.57 22.35L120.58 12.15L127.59 12.16L127.57 22.36" fill="white"/>
<path d="M128.07 22.37L128.09 11.66L120.08 11.65L120.07 22.35H121.07L121.08 12.65L127.09 12.66L127.07 22.36L128.07 22.37Z" fill="#004154"/>
<path d="M122.35 3.70999C123.042 3.71129 123.727 3.84937 124.365 4.1163C125.004 4.38322 125.583 4.77372 126.07 5.26534C126.557 5.75696 126.942 6.34 127.203 6.98093C127.464 7.62186 127.595 8.30803 127.59 8.99999V13.4C127.621 14.1094 127.508 14.8177 127.258 15.4822C127.008 16.1468 126.626 16.7538 126.135 17.2667C125.644 17.7796 125.054 18.1878 124.401 18.4667C123.748 18.7455 123.045 18.8893 122.335 18.8893C121.625 18.8893 120.922 18.7455 120.269 18.4667C119.616 18.1878 119.027 17.7796 118.536 17.2667C118.045 16.7538 117.662 16.1468 117.412 15.4822C117.162 14.8177 117.049 14.1094 117.08 13.4V8.99999C117.078 8.30624 117.212 7.6188 117.476 6.97711C117.739 6.33541 118.127 5.75209 118.617 5.2606C119.106 4.76912 119.688 4.37914 120.329 4.11305C120.97 3.84696 121.656 3.70999 122.35 3.70999Z" fill="white"/>
<path d="M122.32 19C120.824 18.9894 119.393 18.3871 118.34 17.3246C117.287 16.2621 116.698 14.826 116.7 13.33V9.00002C116.698 8.25899 116.841 7.52474 117.123 6.83936C117.405 6.15399 117.819 5.53098 118.342 5.00607C118.865 4.48115 119.487 4.06466 120.171 3.78048C120.855 3.49629 121.589 3.35001 122.33 3.35001C123.074 3.3487 123.81 3.4938 124.497 3.77703C125.184 4.06026 125.809 4.47607 126.335 5.00072C126.862 5.52537 127.28 6.14859 127.566 6.83479C127.851 7.52099 127.999 8.25673 128 9.00002V13.4C127.996 14.1402 127.846 14.8724 127.559 15.5546C127.272 16.2368 126.853 16.8557 126.327 17.3758C125.8 17.896 125.176 18.3071 124.49 18.5858C123.804 18.8645 123.07 19.0053 122.33 19H122.32ZM122.32 4.00002C121.671 4.00248 121.028 4.13453 120.431 4.38843C119.833 4.64233 119.292 5.01297 118.839 5.47864C118.387 5.9443 118.032 6.49562 117.795 7.10029C117.558 7.70496 117.444 8.35082 117.46 9.00002V13.4C117.458 14.6952 117.969 15.9385 118.882 16.8572C119.795 17.7758 121.035 18.2947 122.33 18.3C122.972 18.3 123.607 18.1735 124.2 17.9276C124.793 17.6817 125.331 17.3214 125.784 16.8672C126.238 16.413 126.597 15.8738 126.842 15.2806C127.086 14.6874 127.212 14.0517 127.21 13.41V9.00002C127.213 7.7039 126.702 6.45953 125.789 5.5393C124.876 4.61907 123.636 4.09795 122.34 4.09002L122.32 4.00002Z" fill="#004154"/>
<path fill-rule="evenodd" clip-rule="evenodd" d="M124.69 10.14C122.63 9.26 122.05 7.81 121.18 6.95C120.869 6.55582 120.438 6.27406 119.953 6.14767C119.467 6.02129 118.953 6.05722 118.49 6.25C117.06 6.97 117.07 9.73 116.59 8.68C116.27 7.98 116.59 6.62 116.88 3.68L127.38 2.87L128.84 8.97C127.45 10.33 126.06 10.73 124.69 10.14Z" fill="#004154"/>
<path d="M119.02 11.3C119.213 11.3 119.37 11.1433 119.37 10.95C119.37 10.7567 119.213 10.6 119.02 10.6C118.827 10.6 118.67 10.7567 118.67 10.95C118.67 11.1433 118.827 11.3 119.02 11.3Z" fill="#004154"/>
<path d="M124.69 11.31C124.883 11.31 125.04 11.1533 125.04 10.96C125.04 10.7667 124.883 10.61 124.69 10.61C124.497 10.61 124.34 10.7667 124.34 10.96C124.34 11.1533 124.497 11.31 124.69 11.31Z" fill="#004154"/>
<path d="M121.82 16.05C122.402 16.0508 122.965 15.8453 123.41 15.47C123.827 15.0698 124.077 14.5268 124.11 13.95L123.36 13.88C123.335 14.2566 123.175 14.6116 122.91 14.88C122.596 15.1399 122.197 15.2751 121.79 15.26L121.82 16.05Z" fill="#004154"/>
<path d="M121.183 10.5687L121.178 13.7787L121.928 13.7799L121.933 10.5699L121.183 10.5687Z" fill="#004154"/>
<path fill-rule="evenodd" clip-rule="evenodd" d="M138.43 42.74L138.61 39.93H140.3L140.59 39.62C140.59 39.25 140.85 39.21 140.85 38.86V30.28C140.85 25.55 138.98 23.2 135.43 22.17C133.489 21.55 131.498 21.0984 129.48 20.82C127.96 20.71 119.35 20.82 118.22 20.82C116.477 20.8852 114.782 21.4133 113.31 22.35C111.91 23.4967 110 26.6067 107.58 31.68L114.58 36.57L114.66 49.67H130.9L134.26 47.25L138.14 43.25L138.43 42.74Z" fill="#EAF2F5"/>
<path fill-rule="evenodd" clip-rule="evenodd" d="M124.5 31.55L123.53 31.18L120.12 40.08L120.26 41.17L121.09 40.45L124.5 31.55Z" fill="#C5EBF7"/>
<path d="M120.83 34C120.51 34.1 120.37 34.44 120.4 35C119.834 35.7014 119.487 36.5532 119.4 37.45C119.422 37.8238 119.522 38.1889 119.695 38.5214C119.867 38.8539 120.107 39.1464 120.4 39.38L120.87 38.11L121.4 38.04C121.32 39.2 121.55 39.96 122.09 40.31C122.91 40.8433 123.86 41.51 124.94 42.31L124.77 42.16C127.319 44.5308 130.111 46.6258 133.1 48.41C133.45 48.6 135.97 45.7 135.97 45.7L138.53 42.83L140.32 40.33L140.75 39.73L133.44 39.84V41.9L126.97 37.9C126.34 35.69 125.57 34.28 124.64 33.67C123.23 32.73 121.3 33.82 120.83 34Z" fill="white"/>
<path d="M132.75 48.63L133.12 47.98C130.313 46.2111 127.663 44.2037 125.2 41.98L125.03 41.84C124.03 41.08 123.1 40.44 122.33 39.93C121.91 39.66 121.73 39.01 121.8 38.01V37.55L120.6 37.71L120.26 38.63C119.944 38.2919 119.76 37.8521 119.74 37.39C119.826 36.5682 120.157 35.7913 120.69 35.16L120.76 35.05V35C120.76 34.83 120.76 34.41 120.93 34.36L121.27 34.22C121.97 33.93 123.4 33.33 124.43 34.01C125.28 34.56 126.01 35.91 126.61 38.01V38.15L133.78 42.59V40.21L140.39 40.11V39.36L133.04 39.47V41.23L127.26 37.65C126.61 35.41 125.81 34 124.81 33.35C123.44 32.45 121.81 33.16 120.96 33.5L120.67 33.61C120.35 33.71 119.97 34.02 119.98 34.88C119.399 35.6146 119.051 36.5061 118.98 37.44C119.002 37.8693 119.116 38.2887 119.315 38.67C119.513 39.0513 119.791 39.3855 120.13 39.65L120.54 40.02L121.01 38.79C121 39.1421 121.074 39.4914 121.225 39.8095C121.376 40.1276 121.601 40.4054 121.88 40.62C122.67 41.13 123.62 41.8 124.69 42.62C127.199 44.8509 129.896 46.8616 132.75 48.63Z" fill="#004154"/>
<path d="M123.62 34.55H120.46V35.3H123.62V34.55Z" fill="#004154"/>
<path d="M133.085 33.0268L133.074 39.8768L133.824 39.878L133.835 33.028L133.085 33.0268Z" fill="#004154"/>
<path d="M170.01 59.91C180.073 59.91 188.23 51.7168 188.23 41.61C188.23 31.5032 180.073 23.31 170.01 23.31C159.947 23.31 151.79 31.5032 151.79 41.61C151.79 51.7168 159.947 59.91 170.01 59.91Z" fill="#91EBFF"/>
<path fill-rule="evenodd" clip-rule="evenodd" d="M54.8099 50.24C55.7099 48.14 55.8099 39.64 53.5599 36.85C51.2099 33.85 47.9499 31.36 42.5099 31.61C36.5099 31.89 32.3999 35.61 31.5999 39.01C29.3699 48.39 36.4299 54.69 44.3899 54.69C49.3399 54.69 53.3199 53.71 54.8099 50.24Z" fill="#0A5E7D"/>
<path d="M33.3599 50C32.1787 48.4422 31.3721 46.6334 31.0027 44.7136C30.6334 42.7939 30.7111 40.8149 31.2299 38.93C32.0599 35.41 36.2899 31.52 42.4899 31.23C44.6864 31.0926 46.8818 31.515 48.8705 32.4577C50.8591 33.4004 52.5759 34.8326 53.8599 36.62C56.2199 39.62 56.0599 48.31 55.1599 50.4C53.3599 54.6 48.1599 55.08 44.3899 55.08C42.2879 55.1157 40.2049 54.6776 38.2954 53.7982C36.386 52.9187 34.699 51.6206 33.3599 50ZM54.4599 50.1C55.2799 48.17 55.4599 39.81 53.2599 37.1C52.0502 35.4102 50.4309 34.0556 48.5539 33.1635C46.677 32.2714 44.6041 31.871 42.5299 32C36.9199 32.27 32.7599 35.82 31.9799 39.11C31.4751 40.8806 31.3931 42.745 31.7405 44.5531C32.0878 46.3612 32.8549 48.0625 33.9799 49.52C35.2465 51.0453 36.8394 52.2668 38.6412 53.0941C40.443 53.9214 42.4075 54.3335 44.3899 54.3C50.0199 54.3 53.2199 52.96 54.4599 50.09V50.1Z" fill="#122933"/>
<path fill-rule="evenodd" clip-rule="evenodd" d="M66.15 40C67.44 36.62 68.66 24.65 65.46 20.16C62.08 15.42 57.4 11.34 49.6 11.75C46.1026 11.9178 42.7386 13.1434 39.953 15.2647C37.1674 17.3861 35.0915 20.3031 34 23.63C28.79 41.16 40.93 48.81 52.34 48.81C59.4 48.81 64 45.56 66.15 40Z" fill="#0A5E7D"/>
<path d="M35.4997 41.72C32.0797 37.11 31.4097 30.81 33.5797 23.52C34.6963 20.1073 36.8251 17.1153 39.683 14.9414C42.5409 12.7676 45.9927 11.515 49.5797 11.35C58.2797 10.89 62.9997 16 65.7697 19.93C69.1197 24.62 67.7697 36.93 66.5097 40.13C64.2397 46.06 59.3197 49.19 52.2897 49.19C45.2597 49.19 38.9997 46.4 35.4997 41.72ZM65.1497 20.38C62.4697 16.63 57.9997 11.7 49.6197 12.12C46.1912 12.2743 42.8909 13.4687 40.1578 15.5444C37.4248 17.6201 35.3884 20.4787 34.3197 23.74C32.2197 30.79 32.8497 36.85 36.1197 41.26C39.3897 45.67 45.4897 48.42 52.2897 48.42C59.0897 48.42 63.6397 45.42 65.7897 39.85C67.1697 36.25 68.1897 24.65 65.1497 20.38Z" fill="#122933"/>
<path fill-rule="evenodd" clip-rule="evenodd" d="M41.1899 63.08V48.81H57.4899V62.66" fill="white"/>
<path d="M40.7998 63.08H41.5698V49.19H57.0998V62.66H57.8698V48.42H40.7998V63.08Z" fill="#124052"/>
<path fill-rule="evenodd" clip-rule="evenodd" d="M65.4301 33.69V44.61C65.4341 46.2602 65.1128 47.8951 64.4846 49.4211C63.8564 50.9471 62.9337 52.3344 61.7691 53.5036C60.6045 54.6728 59.2209 55.6011 57.6974 56.2353C56.1739 56.8696 54.5404 57.1974 52.8901 57.2C49.5581 57.192 46.3655 55.8615 44.0141 53.5007C41.6627 51.1399 40.3448 47.942 40.3501 44.61V33.69C40.3462 32.0393 40.6674 30.4039 41.2955 28.8774C41.9235 27.3508 42.8461 25.9629 44.0106 24.7929C45.175 23.6228 46.5585 22.6936 48.0821 22.0583C49.6056 21.423 51.2394 21.0939 52.8901 21.09C54.5409 21.0939 56.1746 21.423 57.6982 22.0583C59.2217 22.6936 60.6052 23.6228 61.7697 24.7929C62.9341 25.9629 63.8567 27.3508 64.4848 28.8774C65.1129 30.4039 65.4341 32.0393 65.4301 33.69Z" fill="white"/>
<path d="M40.0001 44.61V33.69C39.9521 31.9624 40.2508 30.2427 40.8788 28.6326C41.5067 27.0224 42.451 25.5545 43.656 24.3156C44.8609 23.0766 46.302 22.0918 47.8941 21.4194C49.4861 20.7469 51.1969 20.4005 52.9251 20.4005C54.6534 20.4005 56.3641 20.7469 57.9562 21.4194C59.5482 22.0918 60.9893 23.0766 62.1943 24.3156C63.3992 25.5545 64.3436 27.0224 64.9715 28.6326C65.5994 30.2427 65.8982 31.9624 65.8501 33.69V44.61C65.8982 46.3376 65.5994 48.0573 64.9715 49.6674C64.3436 51.2776 63.3992 52.7455 62.1943 53.9844C60.9893 55.2234 59.5482 56.2082 57.9562 56.8806C56.3641 57.5531 54.6534 57.8995 52.9251 57.8995C51.1969 57.8995 49.4861 57.5531 47.8941 56.8806C46.302 56.2082 44.8609 55.2234 43.656 53.9844C42.451 52.7455 41.5067 51.2776 40.8788 49.6674C40.2508 48.0573 39.9521 46.3376 40.0001 44.61ZM40.7701 33.69V44.61C40.7235 46.2356 41.0034 47.8539 41.5933 49.3694C42.1831 50.8849 43.071 52.2666 44.2043 53.4329C45.3376 54.5992 46.6933 55.5263 48.1913 56.1594C49.6892 56.7925 51.2989 57.1187 52.9251 57.1187C54.5513 57.1187 56.161 56.7925 57.659 56.1594C59.1569 55.5263 60.5126 54.5992 61.6459 53.4329C62.7792 52.2666 63.6671 50.8849 64.257 49.3694C64.8468 47.8539 65.1268 46.2356 65.0801 44.61V33.69C65.1268 32.0644 64.8468 30.4461 64.257 28.9306C63.6671 27.4151 62.7792 26.0334 61.6459 24.8671C60.5126 23.7008 59.1569 22.7737 57.659 22.1406C56.161 21.5075 54.5513 21.1813 52.9251 21.1813C51.2989 21.1813 49.6892 21.5075 48.1913 22.1406C46.6933 22.7737 45.3376 23.7008 44.2043 24.8671C43.071 26.0334 42.1831 27.4151 41.5933 28.9306C41.0034 30.4461 40.7235 32.0644 40.7701 33.69Z" fill="#124052"/>
<path d="M61.2199 39.66C61.6838 39.66 62.0599 39.2839 62.0599 38.82C62.0599 38.3561 61.6838 37.98 61.2199 37.98C60.756 37.98 60.3799 38.3561 60.3799 38.82C60.3799 39.2839 60.756 39.66 61.2199 39.66Z" fill="#124052"/>
<path d="M47.6901 39.66C48.154 39.66 48.5301 39.2839 48.5301 38.82C48.5301 38.3561 48.154 37.98 47.6901 37.98C47.2262 37.98 46.8501 38.3561 46.8501 38.82C46.8501 39.2839 47.2262 39.66 47.6901 39.66Z" fill="#124052"/>
<path d="M54.1299 50.45V49.68C53.043 49.7126 51.9799 49.3582 51.1299 48.68C50.3815 47.9301 49.9394 46.9283 49.8899 45.87L49.1299 45.95C49.19 47.1992 49.7226 48.3788 50.6199 49.25C51.6067 50.0606 52.8534 50.4868 54.1299 50.45Z" fill="#124052"/>
<path d="M55.1601 37.89H54.3901V45.55H55.1601V37.89Z" fill="#124052"/>
<path fill-rule="evenodd" clip-rule="evenodd" d="M66.1598 38.31L66.8098 28L57.0698 18.62L43.2798 20.07L36.5898 33.37L40.3498 38.31C40.7965 33.8833 41.9265 30.7 43.7398 28.76C45.5532 26.82 48.6065 25.5233 52.8998 24.87C55.9196 24.6744 58.8988 25.6483 61.2198 27.59C63.9932 29.67 65.4065 34.3633 65.4598 41.67L66.1598 38.31Z" fill="#0A5E7D"/>
<path d="M65.8197 44.14C65.9597 37.47 65.4897 33.14 64.3897 31.07C62.1197 26.7 58.3897 24.49 53.3297 24.49C51.4713 24.3992 49.6167 24.733 47.9065 25.4659C46.1964 26.1988 44.6756 27.3117 43.4597 28.72C41.5697 30.65 40.3997 33.86 39.9697 38.27L40.7297 38.35C41.1497 34.12 42.2497 31.06 44.0097 29.26C45.1526 27.9234 46.5875 26.8675 48.2036 26.1739C49.8196 25.4803 51.5735 25.1676 53.3297 25.26C55.4752 25.1523 57.6046 25.6804 59.4512 26.778C61.2977 27.8756 62.7791 29.4939 63.7097 31.43C64.7097 33.43 65.1797 37.67 65.0497 44.12L65.8197 44.14Z" fill="#124052"/>
<path d="M67.91 31.6C67.91 31.37 68.04 25.75 61.91 20.74C57.8 17.38 50.53 17.08 40.29 19.85L40.49 20.6C50.49 17.89 57.49 18.14 61.43 21.34C67.24 26.09 67.13 31.52 67.13 31.58L67.91 31.6Z" fill="#124052"/>
<path d="M37 36.25C37.5353 32.2659 38.9568 28.4524 41.16 25.09C43.5 21.69 47.49 19.55 52.99 18.73L52.85 18C47.12 18.85 42.97 21.1 40.49 24.69C38.1941 28.1486 36.7293 32.0914 36.21 36.21L37 36.25Z" fill="#124052"/>
<path fill-rule="evenodd" clip-rule="evenodd" d="M58.7402 62.66V66.53C62.8202 66.59 66.1502 66.67 67.1502 66.73C70.9002 66.98 76.6202 68.23 79.4902 70.59C83.0102 73.49 87.8002 81.3167 93.8602 94.07L77.1402 105.42V149.16L14.6402 149.29L14.4302 111V90.29C14.4302 78.41 19.2102 71.12 28.1402 68.54C31.6181 67.4505 35.2134 66.7791 38.8502 66.54C39.2002 66.54 39.7102 66.54 40.3502 66.47V62.66H58.7402Z" fill="#74E8D1"/>
<path d="M28.2603 103C28.2701 101.107 28.8404 99.2602 29.899 97.6913C30.9577 96.1225 32.4573 94.9024 34.2087 94.185C35.96 93.4675 37.8847 93.2849 39.7397 93.6602C41.5947 94.0355 43.297 94.9518 44.6318 96.2936C45.9666 97.6353 46.8741 99.3424 47.2397 101.199C47.6053 103.056 47.4127 104.98 46.6861 106.728C45.9596 108.475 44.7317 109.968 43.1574 111.019C41.5831 112.069 39.7329 112.63 37.8403 112.63C35.2941 112.619 32.8559 111.6 31.0602 109.795C29.2645 107.99 28.2576 105.546 28.2603 103ZM29.0303 103C29.0382 104.741 29.5616 106.44 30.5344 107.884C31.5073 109.327 32.8859 110.45 34.4964 111.111C36.1069 111.771 37.8771 111.94 39.5834 111.596C41.2897 111.251 42.8558 110.409 44.0839 109.175C45.312 107.942 46.1471 106.372 46.4838 104.664C46.8205 102.956 46.6437 101.187 45.9757 99.5794C45.3078 97.9719 44.1786 96.5983 42.7307 95.632C41.2827 94.6657 39.581 94.15 37.8403 94.15C36.6785 94.15 35.5282 94.379 34.455 94.8239C33.3819 95.2687 32.4069 95.9208 31.5859 96.7427C30.7649 97.5646 30.114 98.5403 29.6703 99.614C29.2266 100.688 28.9989 101.838 29.0003 103H29.0303Z" fill="white"/>
<path d="M51.6704 132.79C51.6783 130.897 52.2469 129.049 53.3043 127.479C54.3618 125.908 55.8607 124.687 57.6119 123.968C59.3631 123.249 61.2881 123.065 63.1438 123.439C64.9995 123.813 66.7027 124.729 68.0385 126.07C69.3743 127.411 70.2827 129.118 70.6492 130.976C71.0156 132.833 70.8235 134.757 70.0973 136.505C69.371 138.253 68.1431 139.747 66.5686 140.798C64.9941 141.849 63.1434 142.41 61.2504 142.41C58.706 142.399 56.2693 141.381 54.4739 139.578C52.6784 137.775 51.6704 135.334 51.6704 132.79ZM52.4404 132.79C52.4503 134.53 52.9754 136.229 53.9494 137.671C54.9234 139.113 56.3028 140.235 57.9135 140.894C59.5241 141.553 61.2939 141.72 62.9996 141.375C64.7053 141.029 66.2704 140.186 67.4975 138.952C68.7246 137.718 69.5587 136.148 69.8946 134.44C70.2305 132.733 70.0531 130.964 69.3849 129.357C68.7166 127.75 67.5874 126.377 66.1397 125.411C64.6921 124.445 62.9907 123.93 61.2504 123.93C58.9076 123.938 56.6638 124.876 55.0119 126.537C53.36 128.198 52.4351 130.447 52.4404 132.79Z" fill="white"/>
<path d="M33.06 94.15H32.29V111.53H33.06V94.15Z" fill="#124052"/>
<path fill-rule="evenodd" clip-rule="evenodd" d="M145.43 85.36C146.449 87.2409 146.897 89.3782 146.72 91.51C146.5 95.1 145.24 97.73 142.92 99.39L132 107.08C115.9 120.907 104.813 127.833 98.7398 127.86C94.9498 127.86 92.5098 127.24 90.7398 126.11C88.5098 124.69 87.0498 122.59 85.7398 119.86C85.5898 119.57 85.4498 119.28 85.2998 118.98C83.4798 115.4 80.8131 110.667 77.2998 104.78L93.6398 94.37L102.64 109.32L126.72 95C128.47 88.83 130.62 84.88 133.21 83.19C134.342 82.3501 135.654 81.7839 137.042 81.5358C138.43 81.2877 139.856 81.3644 141.21 81.76C143.013 82.3966 144.517 83.6792 145.43 85.36Z" fill="white"/>
<path d="M90.5898 126.44C88.5898 125.13 86.9998 123.21 85.3998 120.03L84.9698 119.16C83.1598 115.6 80.4898 110.83 76.9698 104.98L76.7798 104.66L93.7598 93.83L102.76 108.83L126.37 94.77C128.16 88.52 130.37 84.63 132.98 82.9C134.162 82.0353 135.527 81.4531 136.969 81.1983C138.411 80.9434 139.893 81.0227 141.3 81.43C143.203 82.0896 144.791 83.4381 145.75 85.21C146.801 87.1561 147.263 89.3659 147.08 91.57C146.86 95.27 145.53 98.03 143.08 99.75L132.23 107.41C115.88 121.41 104.92 128.29 98.7198 128.29C95.1098 128.25 92.5098 127.67 90.5898 126.44ZM133.42 83.51C130.94 85.13 128.81 89.02 127.09 95.09V95.24L102.55 109.85L93.5498 94.91L77.9198 104.91C81.2998 110.62 83.9198 115.3 85.6898 118.81L86.1298 119.69C87.6598 122.69 89.1298 124.56 91.0498 125.79C92.9698 127.02 95.3098 127.47 98.8198 127.47C104.75 127.47 115.82 120.47 131.82 106.76L142.7 99.08C144.9 97.5 146.13 94.94 146.33 91.48C146.503 89.4259 146.076 87.3658 145.1 85.55C144.242 83.9473 142.815 82.7238 141.1 82.12C140.328 81.8693 139.521 81.7411 138.71 81.74C136.811 81.7999 134.972 82.4153 133.42 83.51Z" fill="#124052"/>
<path d="M139.3 69.46H123C122.536 69.46 122.16 69.8361 122.16 70.3V99.69C122.16 100.154 122.536 100.53 123 100.53H139.3C139.764 100.53 140.14 100.154 140.14 99.69V70.3C140.14 69.8361 139.764 69.46 139.3 69.46Z" fill="white"/>
<path d="M121.77 99.69V70.3C121.77 69.9738 121.9 69.6609 122.13 69.4303C122.361 69.1996 122.674 69.07 123 69.07H139.3C139.625 69.0726 139.935 69.2034 140.163 69.4338C140.392 69.6642 140.52 69.9755 140.52 70.3V99.69C140.52 100.014 140.391 100.324 140.163 100.553C139.934 100.781 139.624 100.91 139.3 100.91H123C122.839 100.911 122.679 100.881 122.53 100.82C122.381 100.759 122.245 100.67 122.131 100.556C122.017 100.443 121.926 100.308 121.864 100.159C121.802 100.011 121.77 99.8511 121.77 99.69ZM123 69.84C122.88 69.8426 122.765 69.8922 122.681 69.9782C122.597 70.0642 122.55 70.1797 122.55 70.3V99.69C122.55 99.8094 122.597 99.9238 122.682 100.008C122.766 100.093 122.881 100.14 123 100.14H139.3C139.419 100.14 139.534 100.093 139.618 100.008C139.703 99.9238 139.75 99.8094 139.75 99.69V70.3C139.75 70.1797 139.703 70.0642 139.619 69.9782C139.535 69.8922 139.42 69.8426 139.3 69.84H123Z" fill="#124052"/>
<path d="M128.88 74.49C128.882 74.0826 129.005 73.6849 129.233 73.3472C129.461 73.0096 129.784 72.7471 130.161 72.593C130.538 72.4389 130.952 72.4002 131.352 72.4816C131.751 72.563 132.117 72.761 132.404 73.0505C132.69 73.34 132.885 73.708 132.962 74.108C133.04 74.5079 132.997 74.9219 132.839 75.2976C132.681 75.6732 132.416 75.9937 132.076 76.2184C131.736 76.4431 131.337 76.562 130.93 76.56C130.659 76.5587 130.392 76.5041 130.142 76.3994C129.893 76.2946 129.667 76.1418 129.476 75.9496C129.286 75.7574 129.135 75.5295 129.033 75.2791C128.931 75.0287 128.879 74.7605 128.88 74.49ZM129.65 74.49C129.65 74.7456 129.726 74.9954 129.868 75.2077C130.01 75.4201 130.212 75.5854 130.449 75.6827C130.685 75.7801 130.945 75.805 131.195 75.7544C131.446 75.7039 131.676 75.58 131.856 75.3986C132.036 75.2172 132.158 74.9864 132.206 74.7355C132.255 74.4846 132.228 74.2249 132.129 73.9894C132.03 73.7538 131.863 73.5531 131.649 73.4125C131.436 73.272 131.185 73.198 130.93 73.2C130.59 73.2026 130.264 73.3397 130.024 73.5814C129.784 73.823 129.65 74.1496 129.65 74.49Z" fill="#004256"/>
<path fill-rule="evenodd" clip-rule="evenodd" d="M140.55 85.83H131.87C131.374 85.7459 130.924 85.4888 130.599 85.1044C130.274 84.7201 130.096 84.2332 130.096 83.73C130.096 83.2269 130.274 82.74 130.599 82.3556C130.924 81.9712 131.374 81.7142 131.87 81.63H140.55" fill="white"/>
<path d="M140.55 86.22V85.44H131.87C131.462 85.3898 131.09 85.1836 130.831 84.8649C130.572 84.5461 130.446 84.1394 130.48 83.73C130.464 83.5161 130.49 83.3011 130.558 83.0976C130.626 82.8941 130.734 82.7063 130.876 82.5451C131.018 82.3839 131.19 82.2527 131.383 82.1591C131.576 82.0655 131.786 82.0114 132 82H140.6V81.23H131.92C131.294 81.2751 130.708 81.553 130.277 82.0089C129.845 82.4649 129.601 83.0659 129.591 83.6934C129.581 84.3209 129.806 84.9293 130.222 85.3989C130.639 85.8684 131.216 86.165 131.84 86.23L140.55 86.22Z" fill="#124052"/>
<path fill-rule="evenodd" clip-rule="evenodd" d="M140.55 97.17C135.29 97.17 132.44 95.28 132 91.5C131.56 87.72 132.36 85.83 134.4 85.83H140.55" fill="white"/>
<path d="M140.55 97.56V96.78C135.47 96.78 132.8 95.04 132.38 91.45C132.11 89.13 132.31 87.55 133 86.78C133.177 86.5876 133.394 86.4374 133.636 86.3405C133.879 86.2435 134.14 86.2024 134.4 86.22H140.55V85.44H134.4C134.026 85.4203 133.652 85.4846 133.306 85.6282C132.96 85.7719 132.65 85.9911 132.4 86.27C131.55 87.27 131.29 88.95 131.6 91.54C132.09 95.53 135.09 97.56 140.55 97.56Z" fill="#124052"/>
<path d="M90.6499 27.08C90.6717 21.8036 92.2563 16.6518 95.2038 12.2753C98.1512 7.89882 102.329 4.49374 107.211 2.49004C112.092 0.486329 117.457 -0.0261663 122.63 1.01726C127.802 2.06068 132.549 4.61324 136.272 8.35264C139.994 12.092 142.526 16.8506 143.546 22.0275C144.566 27.2045 144.03 32.5676 142.004 37.4398C139.978 42.312 136.555 46.4748 132.165 49.4026C127.775 52.3304 122.616 53.8919 117.34 53.89C110.248 53.8662 103.455 51.0301 98.4512 46.0039C93.4475 40.9778 90.6419 34.1721 90.6499 27.08ZM91.4499 27.08C91.4697 32.1987 93.0057 37.1967 95.8641 41.443C98.7224 45.6892 102.775 48.9933 107.51 50.938C112.245 52.8827 117.45 53.3808 122.467 52.3693C127.485 51.3579 132.091 48.8823 135.703 45.2552C139.314 41.6281 141.77 37.0121 142.761 31.99C143.751 26.968 143.231 21.7652 141.266 17.0386C139.301 12.312 135.98 8.27356 131.721 5.43323C127.463 2.5929 122.459 1.07806 117.34 1.08C110.463 1.10909 103.878 3.86121 99.0262 8.73401C94.174 13.6068 91.4499 20.2034 91.4499 27.08Z" fill="#FFD98C"/>
<path d="M77.4304 91.887L76.6704 91.8889L76.7045 104.909L77.4645 104.907L77.4304 91.887Z" fill="#124052"/>
<path d="M200 149.2H0V150H200V149.2Z" fill="#124052"/>
<path fill-rule="evenodd" clip-rule="evenodd" d="M156.62 51.43H181.94C183.076 51.4155 184.187 51.766 185.11 52.43C183.41 54.9496 181.106 57.0027 178.408 58.4013C175.71 59.7999 172.704 60.4994 169.665 60.4357C166.627 60.372 163.653 59.5472 161.016 58.0368C158.378 56.5264 156.162 54.3786 154.57 51.79C155.223 51.5372 155.92 51.4149 156.62 51.43Z" fill="#FCF4E1"/>
<path d="M151.39 41.61C151.385 36.6644 153.341 31.9185 156.829 28.413C160.318 24.9075 165.054 22.9285 170 22.91C172.717 22.9049 175.402 23.5025 177.86 24.66C180.905 26.0594 183.518 28.2524 185.424 31.0089C187.33 33.7655 188.46 36.9841 188.694 40.3273C188.928 43.6706 188.259 47.0153 186.756 50.0108C185.253 53.0064 182.972 55.5424 180.152 57.353C177.331 59.1636 174.076 60.1821 170.727 60.3017C167.377 60.4213 164.057 59.6376 161.115 58.0328C158.173 56.4281 155.717 54.0612 154.004 51.1806C152.291 48.2999 151.385 45.0114 151.38 41.66L151.39 41.61ZM152.19 41.61C152.204 44.8007 153.075 47.929 154.711 50.6683C156.347 53.4076 158.688 55.6574 161.491 57.1827C164.293 58.708 167.454 59.4529 170.643 59.3396C173.831 59.2263 176.931 58.2589 179.618 56.5385C182.305 54.8181 184.481 52.4078 185.919 49.5592C187.356 46.7107 188.003 43.5285 187.79 40.3449C187.578 37.1612 186.515 34.093 184.712 31.4607C182.908 28.8283 180.432 26.7283 177.54 25.38C174.818 24.1111 171.82 23.5505 168.824 23.7503C165.827 23.9502 162.93 24.904 160.401 26.5232C157.872 28.1423 155.793 30.3744 154.358 33.0119C152.922 35.6495 152.177 38.6071 152.19 41.61Z" fill="#91EBFF"/>
<path fill-rule="evenodd" clip-rule="evenodd" d="M161.29 37.94L158.5 50.42C161.413 56.1 164.863 58.8333 168.85 58.62C172.837 58.4067 177 55.9133 181.34 51.14L176.34 37.72L161.29 37.94Z" fill="#004154"/>
<path fill-rule="evenodd" clip-rule="evenodd" d="M168.53 41C174.69 41 181.24 36.87 178.43 27.41C177.836 25.6153 176.713 24.0423 175.209 22.8981C173.704 21.754 171.888 21.0922 170 21C165.79 20.78 163.26 23 161.44 25.54C159.62 28.08 159.77 35.33 160.44 37.16C161.6 40.11 164.69 41 168.53 41Z" fill="#004154"/>
<path d="M168.09 55.37L167.41 55.03L172.81 44.19L173.48 44.53L168.09 55.37Z" fill="white"/>
<path d="M166.96 50.85L164.25 44.51L164.94 44.21L167.64 50.55L166.96 50.85Z" fill="white"/>
<path fill-rule="evenodd" clip-rule="evenodd" d="M168.2 26C169.093 25.9987 169.978 26.1737 170.804 26.5149C171.629 26.8562 172.38 27.357 173.011 27.9887C173.643 28.6204 174.144 29.3706 174.485 30.1962C174.826 31.0218 175.001 31.9066 175 32.8V38.69C175.003 39.5812 174.83 40.4642 174.491 41.2884C174.152 42.1127 173.654 42.862 173.025 43.4936C172.396 44.1252 171.649 44.6266 170.826 44.9691C170.003 45.3117 169.121 45.4887 168.23 45.49C167.339 45.4887 166.457 45.3117 165.634 44.9691C164.811 44.6266 164.064 44.1252 163.435 43.4936C162.806 42.862 162.308 42.1127 161.969 41.2884C161.63 40.4642 161.457 39.5812 161.46 38.69V32.8C161.457 31.0061 162.165 29.284 163.427 28.0099C164.69 26.7358 166.406 26.0132 168.2 26Z" fill="white"/>
<path d="M168.2 45.87C166.302 45.8621 164.485 45.1018 163.146 43.7558C161.808 42.4099 161.058 40.5882 161.06 38.69V32.8C161.024 31.8392 161.182 30.8811 161.525 29.9828C161.868 29.0846 162.389 28.2647 163.056 27.5723C163.723 26.8798 164.523 26.329 165.407 25.9528C166.292 25.5766 167.244 25.3827 168.205 25.3827C169.167 25.3827 170.118 25.5766 171.003 25.9528C171.888 26.329 172.688 26.8798 173.355 27.5723C174.022 28.2647 174.542 29.0846 174.885 29.9828C175.228 30.8811 175.386 31.8392 175.35 32.8V38.69C175.353 40.5899 174.601 42.4131 173.261 43.7594C171.92 45.1056 170.1 45.8647 168.2 45.87ZM168.2 26.38C166.502 26.3853 164.875 27.0644 163.677 28.268C162.479 29.4717 161.808 31.1017 161.81 32.8V38.69C161.776 39.5511 161.916 40.4102 162.222 41.2158C162.528 42.0213 162.994 42.7568 163.591 43.3781C164.188 43.9994 164.905 44.4936 165.698 44.8313C166.491 45.1689 167.343 45.3429 168.205 45.3429C169.067 45.3429 169.92 45.1689 170.713 44.8313C171.506 44.4936 172.222 43.9994 172.819 43.3781C173.416 42.7568 173.882 42.0213 174.188 41.2158C174.494 40.4102 174.634 39.5511 174.6 38.69V32.8C174.6 31.1008 173.927 29.4708 172.727 28.2674C171.527 27.064 169.899 26.3853 168.2 26.38Z" fill="#004154"/>
<path d="M163.71 36.02C163.958 36.02 164.16 35.8185 164.16 35.57C164.16 35.3215 163.958 35.12 163.71 35.12C163.461 35.12 163.26 35.3215 163.26 35.57C163.26 35.8185 163.461 36.02 163.71 36.02Z" fill="#004154"/>
<path d="M171.01 36.02C171.258 36.02 171.46 35.8185 171.46 35.57C171.46 35.3215 171.258 35.12 171.01 35.12C170.761 35.12 170.56 35.3215 170.56 35.57C170.56 35.8185 170.761 36.02 171.01 36.02Z" fill="#004154"/>
<path d="M167.54 42V41.24C168.09 41.2571 168.627 41.0722 169.05 40.72C169.423 40.3476 169.641 39.8471 169.66 39.32L170.41 39.39C170.372 40.106 170.065 40.7811 169.55 41.28C168.991 41.7584 168.275 42.0146 167.54 42Z" fill="#004154"/>
<path d="M167.56 35.07H166.81V39.21H167.56V35.07Z" fill="#004154"/>
<path fill-rule="evenodd" clip-rule="evenodd" d="M161.42 37.11C161.42 33.1567 162.184 30.6233 163.71 29.51C164.956 28.4464 166.565 27.9053 168.2 28C170.032 28.1423 171.767 28.8798 173.14 30.1C174.302 31.5851 174.954 33.405 175 35.29L177 32.63L173.39 25.45L166 24.67L160.74 29.73V35.63L161.42 37.11Z" fill="#004154"/>
<path d="M161.42 38C161.29 37.9975 161.166 37.9454 161.073 37.8543C160.98 37.7632 160.925 37.64 160.92 37.51C160.92 34.23 161.16 32.09 161.74 30.97C162.311 29.8134 163.208 28.8489 164.32 28.1951C165.432 27.5413 166.711 27.2267 168 27.29C169.043 27.2396 170.083 27.4267 171.043 27.8373C172.002 28.2478 172.856 28.8711 173.54 29.66C174.61 30.75 175.27 32.55 175.54 34.99C175.553 35.1226 175.513 35.255 175.429 35.3582C175.344 35.4613 175.223 35.5267 175.09 35.54C174.957 35.5533 174.825 35.5133 174.722 35.4289C174.619 35.3445 174.553 35.2226 174.54 35.09C174.514 33.3717 173.924 31.7096 172.86 30.36C172.264 29.6634 171.516 29.1141 170.673 28.755C169.83 28.3959 168.915 28.2368 168 28.29C166.896 28.2348 165.799 28.5071 164.849 29.0729C163.899 29.6387 163.138 30.4727 162.66 31.47C162.17 32.47 161.93 34.47 161.96 37.53C161.961 37.5952 161.95 37.66 161.926 37.7206C161.902 37.7812 161.866 37.8364 161.82 37.883C161.774 37.9295 161.72 37.9665 161.66 37.9918C161.6 38.017 161.535 38.03 161.47 38.03L161.42 38Z" fill="#004154"/>
<path d="M114.81 6.63C114.937 4.34333 116.38 3.08333 119.14 2.85C120.31 0.350001 122.46 -0.499999 125.6 0.280001C129.51 1.28 130.89 3.54 131.04 6.79L114.81 6.63Z" fill="#004154"/>
<path d="M115.87 14C115.254 13.9604 114.676 13.6877 114.253 13.2373C113.831 12.7868 113.596 12.1925 113.596 11.575C113.596 10.9575 113.831 10.3631 114.253 9.91272C114.676 9.4623 115.254 9.18959 115.87 9.14999V14Z" fill="#85EAD6"/>
<path d="M130.23 10.05C130.331 10.05 130.428 10.01 130.499 9.93869C130.57 9.86742 130.61 9.77077 130.61 9.66999V9.37999C130.616 7.38012 129.828 5.45962 128.421 4.03895C127.013 2.61828 125.1 1.81321 123.1 1.79999H122.75C120.752 1.80792 118.838 2.60654 117.427 4.0213C116.016 5.43605 115.223 7.35187 115.22 9.34999C115.22 9.39989 115.23 9.4493 115.249 9.49541C115.268 9.54151 115.296 9.5834 115.332 9.61869C115.367 9.65398 115.409 9.68197 115.455 9.70106C115.501 9.72016 115.55 9.72999 115.6 9.72999C115.699 9.72738 115.793 9.6862 115.862 9.61521C115.932 9.54423 115.97 9.44906 115.97 9.34999C115.973 7.55171 116.688 5.82769 117.958 4.55518C119.229 3.28266 120.952 2.56527 122.75 2.55999H123.09C123.982 2.55686 124.865 2.73221 125.687 3.0757C126.51 3.41919 127.256 3.92386 127.88 4.55999C128.514 5.19061 129.017 5.94014 129.36 6.76556C129.703 7.59098 129.88 8.47605 129.88 9.36999V9.66999C129.88 9.76578 129.916 9.85815 129.981 9.92861C130.046 9.99908 130.135 10.0424 130.23 10.05Z" fill="white"/>
<path d="M125.28 17.31C126.12 17.3139 126.95 17.1294 127.71 16.77C127.762 16.7543 127.811 16.7276 127.852 16.6915C127.893 16.6554 127.926 16.6109 127.948 16.561C127.97 16.511 127.982 16.4569 127.981 16.4022C127.981 16.3475 127.968 16.2936 127.945 16.2441C127.922 16.1946 127.888 16.1508 127.846 16.1155C127.804 16.0802 127.755 16.0544 127.703 16.0398C127.65 16.0251 127.595 16.022 127.541 16.0307C127.487 16.0394 127.435 16.0596 127.39 16.09C126.73 16.4005 126.009 16.561 125.28 16.56C125.23 16.5587 125.181 16.5672 125.135 16.5852C125.089 16.6032 125.047 16.6303 125.012 16.6648C124.976 16.6993 124.948 16.7405 124.929 16.7861C124.91 16.8316 124.9 16.8806 124.9 16.93C124.9 17.0291 124.939 17.1242 125.008 17.1952C125.077 17.2662 125.171 17.3074 125.27 17.31H125.28Z" fill="white"/>
<path d="M124.54 17.67C125.015 17.67 125.4 17.285 125.4 16.81C125.4 16.335 125.015 15.95 124.54 15.95C124.065 15.95 123.68 16.335 123.68 16.81C123.68 17.285 124.065 17.67 124.54 17.67Z" fill="#85EAD6"/>
<path d="M127.65 16.75C127.703 16.7595 127.757 16.7595 127.81 16.75C128.515 16.4295 129.122 15.9271 129.568 15.2944C130.014 14.6617 130.284 13.9215 130.35 13.15C130.353 13.1014 130.346 13.0527 130.33 13.0068C130.313 12.9609 130.288 12.9186 130.256 12.8823C130.223 12.8461 130.184 12.8167 130.14 12.7957C130.096 12.7747 130.048 12.7625 130 12.76C129.9 12.7571 129.802 12.7929 129.728 12.8599C129.653 12.927 129.608 13.0201 129.6 13.12C129.533 13.7433 129.303 14.3379 128.932 14.8436C128.562 15.3493 128.064 15.7482 127.49 16C127.41 16.034 127.345 16.0947 127.306 16.1718C127.266 16.2488 127.255 16.3372 127.274 16.4216C127.293 16.506 127.341 16.5811 127.41 16.6338C127.478 16.6865 127.563 16.7134 127.65 16.71V16.75Z" fill="white"/>
<path d="M128.78 9.20999C129.396 9.24958 129.974 9.5223 130.396 9.97272C130.819 10.4231 131.054 11.0175 131.054 11.635C131.054 12.2525 130.819 12.8468 130.396 13.2973C129.974 13.7477 129.396 14.0204 128.78 14.06V9.20999Z" fill="#85EAD6"/>
<path d="M79.6498 90.34C77.1508 90.2594 74.7811 89.2101 73.0418 87.4138C71.3025 85.6176 70.3301 83.2153 70.3301 80.715C70.3301 78.2147 71.3025 75.8124 73.0418 74.0162C74.7811 72.2199 77.1508 71.1706 79.6498 71.09H80.0798C80.3498 71.34 80.6398 71.63 80.9298 71.94C80.506 71.8765 80.0783 71.8431 79.6498 71.84C77.9895 71.8297 76.3598 72.2867 74.9469 73.1587C73.534 74.0307 72.395 75.2825 71.6598 76.7712C70.9246 78.2599 70.6231 79.9254 70.7896 81.5773C70.9561 83.2292 71.5839 84.801 72.6013 86.1131C73.6188 87.4251 74.9848 88.4245 76.5432 88.997C78.1017 89.5695 79.7898 89.6921 81.4146 89.3507C83.0395 89.0094 84.5355 88.2178 85.7318 87.0665C86.9281 85.9152 87.7764 84.4506 88.1798 82.84C88.3498 83.15 88.5298 83.46 88.6998 83.84C88.0575 85.7318 86.8397 87.3755 85.217 88.541C83.5942 89.7065 81.6477 90.3355 79.6498 90.34Z" fill="white"/>
<path d="M47 78.17C44.453 78.1621 42.0133 77.1433 40.217 75.3376C38.4207 73.5319 37.4146 71.087 37.42 68.54C37.4184 67.9156 37.4787 67.2925 37.6 66.68L38.4 66.61C38.2637 67.2444 38.1934 67.8912 38.19 68.54C38.1917 69.9674 38.5402 71.373 39.2055 72.6359C39.8708 73.8988 40.833 74.9811 42.0093 75.7897C43.1856 76.5982 44.5408 77.1089 45.9582 77.2777C47.3756 77.4465 48.8128 77.2683 50.1461 76.7586C51.4793 76.2489 52.6688 75.4228 53.6121 74.3515C54.5554 73.2802 55.2242 71.9957 55.5611 70.6086C55.898 69.2215 55.8927 67.7734 55.5459 66.3887C55.199 65.0041 54.5209 63.7245 53.57 62.66H54.57C55.6697 64.0801 56.3498 65.7797 56.5335 67.5664C56.7172 69.353 56.397 71.1555 55.6092 72.7696C54.8214 74.3837 53.5974 75.745 52.0759 76.6994C50.5544 77.6539 48.796 78.1633 47 78.17Z" fill="white"/>
<path d="M14.6498 86.05C16.6336 86.8011 18.8215 86.8129 20.8133 86.0834C22.8051 85.3538 24.4677 83.9316 25.4971 82.0768C26.5264 80.2221 26.8537 78.0588 26.419 75.9826C25.9843 73.9064 24.8167 72.0561 23.1298 70.77L23.8398 70.34C25.6008 71.7648 26.8013 73.7664 27.2289 75.9908C27.6566 78.2153 27.2838 80.5193 26.1767 82.4955C25.0695 84.4716 23.2992 85.9926 21.1788 86.7895C19.0584 87.5864 16.7245 87.6078 14.5898 86.85C14.6098 86.58 14.6198 86.31 14.6498 86.05Z" fill="white"/>
<path d="M27.0001 132.4C28.953 132.407 30.8574 133.009 32.4603 134.125C34.0631 135.24 35.2883 136.817 35.9732 138.646C36.6581 140.475 36.7701 142.469 36.2944 144.363C35.8188 146.257 34.7779 147.962 33.3101 149.25H32.0001C33.5345 148.175 34.6862 146.639 35.2881 144.865C35.89 143.091 35.9106 141.171 35.347 139.384C34.7835 137.598 33.665 136.037 32.1541 134.929C30.6432 133.822 28.8186 133.225 26.9451 133.225C25.0717 133.225 23.247 133.822 21.7361 134.929C20.2252 136.037 19.1068 137.598 18.5432 139.384C17.9796 141.171 18.0003 143.091 18.6021 144.865C19.204 146.639 20.3557 148.175 21.8901 149.25H20.6901C19.2224 147.962 18.1815 146.257 17.7058 144.363C17.2301 142.469 17.3421 140.475 18.027 138.646C18.7119 136.817 19.9372 135.24 21.54 134.125C23.1428 133.009 25.0472 132.407 27.0001 132.4Z" fill="white"/>
<path fill-rule="evenodd" clip-rule="evenodd" d="M53.5501 95.05C53.5521 95.4818 53.623 95.9105 53.7601 96.32C53.8209 96.4854 53.8945 96.6459 53.9801 96.8L54.1001 97L54.2701 96.85C54.51 96.6294 54.7675 96.4287 55.0401 96.25C56.4001 95.37 59.0401 95.42 61.1701 96.25C62.877 96.8945 64.3508 98.0373 65.4001 99.53C66.5983 101.2 67.2925 103.178 67.4001 105.23C67.4842 106.292 67.2018 107.351 66.6001 108.23C65.8583 109.272 64.8821 110.125 63.7501 110.72L54.0001 117.55C39.6401 129.89 29.7534 136.07 24.3401 136.09C22.0278 136.204 19.7499 135.495 17.9101 134.09C16.2119 132.567 15.1186 130.483 14.8301 128.22V111.38L32.7201 111.67V117L49.2501 106.8C49.5601 105.73 49.8701 104.73 50.2501 103.8C50.818 99.7744 50.3888 95.6709 49.0001 91.85C49.7322 91.6618 50.4964 91.6345 51.2401 91.77C51.8645 91.9022 52.4193 92.2578 52.8001 92.77C53.3149 93.4157 53.581 94.2247 53.5501 95.05Z" fill="white"/>
<path d="M17.6699 134.43C15.8888 132.827 14.7425 130.637 14.4399 128.26V111L33.1099 111.3V116.3L48.9199 106.54C49.2199 105.54 49.5199 104.54 49.8299 103.74C50.3781 99.7833 49.949 95.7526 48.5799 92L48.4499 91.59L48.8699 91.5C49.655 91.302 50.4734 91.2747 51.2699 91.42C51.9871 91.5718 52.6238 91.9809 53.0599 92.57C53.6369 93.2746 53.9483 94.1594 53.9399 95.07C53.9341 95.4575 53.995 95.8431 54.1199 96.21C54.1422 96.2816 54.1689 96.3517 54.1999 96.42C54.4099 96.25 54.6199 96.09 54.8299 95.95C56.2599 95.03 58.9899 95.02 61.3199 95.95C63.0902 96.6241 64.6189 97.8115 65.7099 99.36C66.9256 101.096 67.6196 103.143 67.7099 105.26C67.7976 106.397 67.4942 107.529 66.8499 108.47C66.0832 109.526 65.0842 110.391 63.9299 111L54.2499 117.84C39.6599 130.37 29.8799 136.47 24.3399 136.47C21.9458 136.597 19.5837 135.874 17.6699 134.43ZM55.2499 96.57C54.9947 96.7443 54.7509 96.9347 54.5199 97.14L54.0399 97.59L53.7799 97.21C53.7799 97.14 53.6899 97.07 53.6499 96.99C53.5474 96.8181 53.4604 96.6374 53.3899 96.45C53.2389 96.0058 53.1645 95.5392 53.1699 95.07C53.1791 94.3154 52.9205 93.5819 52.4399 93C52.1133 92.5613 51.6361 92.2586 51.0999 92.15C50.555 92.044 49.9948 92.044 49.4499 92.15C50.7648 95.9296 51.149 99.9704 50.5699 103.93C50.2399 104.84 49.9199 105.84 49.5699 106.93V107.08L32.3399 117.67V112.05L15.2099 111.77V128.19C15.4866 130.362 16.5333 132.364 18.1599 133.83C19.9369 135.159 22.1244 135.821 24.3399 135.7C29.6099 135.7 39.5099 129.5 53.7799 117.24L63.5199 110.36C64.5968 109.794 65.5279 108.986 66.2399 108C66.7898 107.201 67.0476 106.237 66.9699 105.27C66.8776 103.295 66.2256 101.388 65.0899 99.77C64.0721 98.3371 62.6471 97.2432 60.9999 96.63C59.9639 96.2241 58.8626 96.0107 57.7499 96C56.8803 95.9593 56.016 96.1564 55.2499 96.57Z" fill="#124052"/>
</svg>
