<?xml version="1.0" encoding="UTF-8"?>
<svg width="208px" height="124px" viewBox="0 0 208 124" version="1.1" xmlns="http://www.w3.org/2000/svg" xmlns:xlink="http://www.w3.org/1999/xlink">
    <!-- Generator: Sketch 62 (91390) - https://sketch.com -->
    <title>calls_all</title>
    <desc>Created with Sketch.</desc>
    <defs>
        <path d="M84.52988,0 L85.3411927,21.079 L98.7667543,13.4746138 L99.1246662,18.3545307 L85.6251927,28.452 L86.3791662,48.006913 L88.0246131,85.6223196 L94.0608424,91.2548567 L97.3494645,100.2605 L14.021492,99.7455888 L16.7494416,91.8012499 L17.1391927,81.812 L0.151192728,70.8243128 L0.151192728,64.8637521 L17.4691927,73.328 L18.6583175,42.8493759 L18.6583175,5.8405072 L40.1107695,5.8405072 L45.9624384,2.3538782 L84.52988,0 Z" id="path-1"></path>
        <polygon id="path-3" points="17.9831395 61.2894095 16.7626805 91.114849 16.7494416 91.8012499 16.1538243 93.5164603 88.1288915 91.8012499 84.7656102 6.51468856 23.8857274 57.9371146"></polygon>
    </defs>
    <g id="calls_all" stroke="none" stroke-width="1" fill="none" fill-rule="evenodd">
        <g id="Group" transform="translate(1.000000, 0.000000)">
            <g id="编组-6">
                <g id="编组-5" transform="translate(10.952544, 53.837836) rotate(-270.000000) translate(-10.952544, -53.837836) translate(1.952544, 43.337836)" fill="#16B1E0" fill-opacity="0.25">
                    <path d="M8.60468351,0.475648887 L16.2648947,8.05833681 L13.2926034,11.3412559 L8.58601231,6.58464889 L3.48465389,11.5191222 L0.632012314,8.13164524 L8.26752402,0.511066303 L8.40901231,2.00564889 L8.60468351,0.475648887 Z" id="Combined-Shape"></path>
                    <path d="M9.01554893,8.05086814 L9.00423036,8.29586814 L17.7648654,17.3562365 L14.8210783,20.6666667 L8.61123036,14.3148681 L2.86062834,20.1235175 L0.0342303606,16.7124237 L9.01554893,8.05086814 Z" id="Combined-Shape"></path>
                </g>
                <g id="编组" transform="translate(90.515152, 22.616352)">
                    <mask id="mask-2" fill="white">
                        <use xlink:href="#path-1"></use>
                    </mask>
                    <use id="形状结合" fill-opacity="0.25" fill="#48E33D" xlink:href="#path-1"></use>
                    <line x1="42.3565905" y1="4.55125034" x2="42.3565905" y2="23.8330168" id="直线-6" stroke="#48E33D" stroke-linecap="square" mask="url(#mask-2)"></line>
                    <path d="M46.8899554,2.34115947 L47.1430939,14.3250302 L46.8899554,2.34115947 Z" id="直线-7" stroke="#48E33D" stroke-linecap="square" mask="url(#mask-2)"></path>
                    <line x1="56.3780826" y1="89.7416065" x2="56.3780826" y2="99.7455888" id="直线-3" stroke="#48E33D" stroke-linecap="square" mask="url(#mask-2)"></line>
                    <line x1="63.7299765" y1="75.2137644" x2="63.680943" y2="100.039824" id="直线-2" stroke="#48E33D" stroke-linecap="square" mask="url(#mask-2)"></line>
                    <mask id="mask-4" fill="white">
                        <use xlink:href="#path-3"></use>
                    </mask>
                    <g id="Path-3"></g>
                    <g id="Group-2" mask="url(#mask-4)" fill-rule="nonzero" stroke="#48E33D" stroke-linecap="round">
                        <g transform="translate(70.503751, 9.907247)">
                            <path d="M1,29 C8.7319865,29 15,22.7304873 15,14.9966515 C15,7.40913077 8.96691004,1.23105076 1.437236,1" id="Oval" transform="translate(8.000000, 15.000000) rotate(177.000000) translate(-8.000000, -15.000000) "></path>
                            <path d="M6.95830639,22.7931351 C11.3765844,22.7931351 14.9583064,19.2105564 14.9583064,14.7912216 C14.9583064,10.4554955 11.5108264,6.92516407 7.20815553,6.79313507" id="Oval-Copy" transform="translate(10.958306, 14.793135) rotate(177.000000) translate(-10.958306, -14.793135) "></path>
                        </g>
                    </g>
                    <g id="Group-3" mask="url(#mask-4)" fill-rule="nonzero" stroke="#48E33D" stroke-linecap="round">
                        <g transform="translate(16.450379, 61.365591)">
                            <path d="M1,29 C8.7319865,29 15,22.7304873 15,14.9966515 C15,7.40913077 8.96691004,1.23105076 1.437236,1" id="Oval" transform="translate(8.000000, 15.000000) rotate(1.000000) translate(-8.000000, -15.000000) "></path>
                            <path d="M1.03446973,23 C5.45274773,23 9.03446973,19.4174213 9.03446973,14.9980865 C9.03446973,10.6623604 5.58698975,7.13202901 1.28431887,7" id="Oval-Copy" transform="translate(5.034470, 15.000000) rotate(1.000000) translate(-5.034470, -15.000000) "></path>
                        </g>
                    </g>
                </g>
                <path d="M192.445796,71.5860486 C192.445796,71.5860486 196.209098,68.2162448 196.20851,64.0587248 C196.207922,59.9012048 192.443668,56.5303368 192.443668,56.5303368 C192.443668,56.5303368 188.680366,59.9001406 188.680953,64.0576606 C188.681541,68.2151806 192.445796,71.5860486 192.445796,71.5860486 Z" id="椭圆形备份" fill-opacity="0.5" fill="#48E33D" transform="translate(192.444732, 64.058193) rotate(41.000000) translate(-192.444732, -64.058193) "></path>
                <path d="M176.42074,60.0024666 C176.42074,60.0024666 179.842823,57.0912772 179.843335,53.5007451 C179.843848,49.9102131 176.422595,47 176.422595,47 C176.422595,47 173.000512,49.9111895 173,53.5017215 C172.999488,57.0922535 176.42074,60.0024666 176.42074,60.0024666 Z" id="椭圆形备份-2" fill="#48E33D" transform="translate(176.421668, 53.501233) rotate(136.000000) translate(-176.421668, -53.501233) "></path>
                <line x1="0" y1="122.440252" x2="205.853276" y2="122.63522" id="直线-2" stroke="#48E33D" stroke-linecap="round"></line>
                <path d="M100.655252,83.4902933 C100.655252,83.4902933 103.781417,80.5163547 103.781903,76.8483258 C103.782388,73.1802969 100.657011,70.2071857 100.657011,70.2071857 C100.657011,70.2071857 97.5308456,73.1811243 97.5303601,76.8491532 C97.5298746,80.5171821 100.655252,83.4902933 100.655252,83.4902933 Z" id="椭圆形备份-3" fill="#48E33D" transform="translate(100.656131, 76.848739) rotate(124.000000) translate(-100.656131, -76.848739) "></path>
                <path d="M91.6417885,125.963477 C91.6417885,125.963477 94.8683303,123.075161 94.8682419,119.512144 C94.8681536,115.949128 91.6414686,113.060652 91.6414686,113.060652 C91.6414686,113.060652 88.4149268,115.948968 88.4150151,119.511984 C88.4151034,123.075001 91.6417885,125.963477 91.6417885,125.963477 Z" id="椭圆形备份" fill="#48E33D" transform="translate(91.641629, 119.512064) rotate(85.000000) translate(-91.641629, -119.512064) "></path>
                <path d="M64.7172897,73.8526323 C64.7172897,73.8526323 66.5402401,72.2201645 66.5399774,70.2061201 C66.5397148,68.1920757 64.7163386,66.5591324 64.7163386,66.5591324 C64.7163386,66.5591324 62.8933883,68.1916002 62.8936509,70.2056446 C62.8939135,72.219689 64.7172897,73.8526323 64.7172897,73.8526323 Z" id="椭圆形备份-4" fill-opacity="0.25" fill="#48E33D" transform="translate(64.716814, 70.205882) rotate(213.000000) translate(-64.716814, -70.205882) "></path>
                <path d="M116.871301,25.7338912 C116.871301,25.7338912 119.803847,23.2394593 119.803409,20.1619064 C119.802971,17.0843535 116.869713,14.5890863 116.869713,14.5890863 C116.869713,14.5890863 113.937167,17.0835182 113.937605,20.1610711 C113.938043,23.2386239 116.871301,25.7338912 116.871301,25.7338912 Z" id="椭圆形备份-2" fill-opacity="0.5" fill="#48E33D" transform="translate(116.870507, 20.161489) rotate(47.000000) translate(-116.870507, -20.161489) "></path>
                <path d="M89.3662353,37.1881234 C89.3662353,37.1881234 91.1901596,35.5550699 91.1908588,33.5413768 C91.1915576,31.5276838 89.3687666,29.8958958 89.3687666,29.8958958 C89.3687666,29.8958958 87.5448423,31.5289493 87.5441431,33.5426423 C87.5434443,35.5563354 89.3662353,37.1881234 89.3662353,37.1881234 Z" id="椭圆形备份" fill="#48E33D" transform="translate(89.367501, 33.542010) rotate(-125.000000) translate(-89.367501, -33.542010) "></path>
                <path d="M82.0334137,11.8525967 C82.0334137,11.8525967 84.7689868,9.40249257 84.7700832,6.38136038 C84.7711789,3.3602282 82.0373827,0.912109219 82.0373827,0.912109219 C82.0373827,0.912109219 79.3018096,3.36221331 79.3007133,6.3833455 C79.2996176,9.40447769 82.0334137,11.8525967 82.0334137,11.8525967 Z" id="椭圆形备份" fill-opacity="0.25" fill="#48E33D" transform="translate(82.035398, 6.382353) rotate(-332.000000) translate(-82.035398, -6.382353) "></path>
                <g id="pear" transform="translate(34.916924, 50.671846) rotate(-20.000000) translate(-34.916924, -50.671846) translate(23.416924, 35.671846)" fill="#FFAC38" fill-rule="nonzero">
                    <path d="M11.8130946,4.55882353 L10.9380531,4.55882353 L10.9380531,0.0624553684 C10.9380531,0.0624553684 10.9380531,2.07311292e-13 10.9745161,2.07311292e-13 L11.8130946,2.07311292e-13 C11.8130946,2.07311292e-13 11.8495575,2.07311292e-13 11.8495575,0.0624553684 L11.8495575,4.55882353 L11.8130946,4.55882353 Z" id="路径"></path>
                    <path d="M20.4073036,26.1482525 C20.4073036,26.1482525 18.093026,29.515812 12.1855157,29.1484621 C11.6983086,29.0872274 11.1501933,29.0872274 10.6629862,29.1484621 C4.69456769,29.4546359 2.38029011,26.1482525 2.38029011,26.1482525 C-2.67462227,20.3315376 1.89308299,14.2698836 1.89308299,14.2698836 C3.41561255,12.3717823 5.54722388,8.75928382 5.54722388,8.75928382 C7.00890355,2.02410626 11.393826,2.75886462 11.393826,2.75886462 C11.393826,2.75886462 15.7788067,2.02410626 17.2404281,8.75928382 C17.2404281,8.75928382 19.3719812,12.3717823 20.894569,14.2698836 C20.894569,14.2698836 25.462216,20.3315376 20.4073036,26.1482525 Z" id="形状结合" fill-opacity="0.5"></path>
                    <g id="编组" transform="translate(15.495575, 20.449580)">
                        <ellipse id="椭圆形" cx="1.47029715" cy="3.4646691" rx="1" ry="1"></ellipse>
                        <ellipse id="椭圆形" cx="4.11862373" cy="1.51801719" rx="1" ry="1"></ellipse>
                    </g>
                </g>
                <path d="M82.7467518,97.7059447 C82.7467518,97.7059447 85.295416,95.4230343 85.3008221,92.6129504 C85.3062111,89.8028666 82.766298,87.5297308 82.766298,87.5297308 C82.766298,87.5297308 80.2176338,89.8126413 80.2122277,92.6227251 C80.2068388,95.432809 82.7467518,97.7059447 82.7467518,97.7059447 Z" id="椭圆形备份" fill-opacity="0.25" fill="#48E33D" transform="translate(82.756525, 92.617838) rotate(-208.000000) translate(-82.756525, -92.617838) "></path>
                <path d="M186.459607,124.753411 C186.459607,124.753411 189.22087,122.281435 189.222107,119.233479 C189.223343,116.185523 186.464085,113.715785 186.464085,113.715785 C186.464085,113.715785 183.702822,116.187761 183.701585,119.235717 C183.700349,122.283673 186.459607,124.753411 186.459607,124.753411 Z" id="椭圆形备份" fill="#48E33D" transform="translate(186.461846, 119.234598) rotate(-106.000000) translate(-186.461846, -119.234598) "></path>
                <path d="M123.961633,66.5574759 C123.961633,66.5574759 126.69821,64.3115294 126.69985,61.5427281 C126.701489,58.7739267 123.96757,56.5307594 123.96757,56.5307594 C123.96757,56.5307594 121.230993,58.7767059 121.229353,61.5455072 C121.227714,64.3143086 123.961633,66.5574759 123.961633,66.5574759 Z" id="椭圆形备份" fill-opacity="0.5" fill="#48E33D" transform="translate(123.964602, 61.544118) rotate(-76.000000) translate(-123.964602, -61.544118) "></path>
                <g id="编组-4备份" transform="translate(106.130860, 53.629717) rotate(90.000000) translate(-106.130860, -53.629717) translate(101.630860, 50.129717)" fill="#16B1E0">
                    <polygon id="矩形" points="5.46421252 0.484615041 8.25202632 6.05455822 4.47853815 3.93108709 0.683474452 6.08558386 3.55684155 0.484615041"></polygon>
                </g>
            </g>
            <path d="M62,53.5 L107,53.5 L62,53.5 Z" id="Path" stroke="#16B1E0" stroke-linejoin="round"></path>
            <line x1="48" y1="53.5" x2="61" y2="53.5" id="Path" stroke="#16B1E0" stroke-linecap="round" stroke-linejoin="round"></line>
            <polyline id="Path" stroke="#16B1E0" points="7 53.5 24.7171375 53.5 35 53.5"></polyline>
            <line x1="25" y1="53.5" x2="35" y2="53.5" id="Path" stroke="#16B1E0" stroke-linecap="round"></line>
            <g id="fruit备份" transform="translate(85.948194, 53.903215) rotate(39.000000) translate(-85.948194, -53.903215) translate(73.448194, 41.403215)" fill="#FF752B" fill-rule="nonzero">
                <path d="M11.220433,0.421526093 C11.2489563,0.480750189 11.6058118,1.22293423 11.9659705,2.4070738 L12.8495372,1.52822581 C12.9965579,1.2843686 13.2984117,1.2173849 13.5218789,1.37811156 C13.7459753,1.5380965 13.8081602,1.86582598 13.6604579,2.10968319 L12.2471134,3.51212532 C12.2862412,3.68704488 12.3299826,3.88762302 12.3741268,4.10142286 C12.7759701,4.08713081 13.1767379,4.0454141 13.5742809,3.9773587 C13.8335737,3.93281812 14.0907895,3.87745665 14.3460376,3.81127427 C15.5735788,3.49194838 17.0927697,3.27318036 18.4033349,3.61278178 C21.1380425,4.32171475 24.0461221,7.25855104 24.0461221,12.1194856 C24.0461221,15.4863708 21.8564539,20.1393583 19.2089242,22.6812317 C18.0347829,23.8100484 16.7701295,24.5223151 15.5662001,24.5223151 C14.8052656,24.5223151 14.0462987,24.4001154 13.3933663,24.2029892 C12.4987408,23.9322481 11.5473266,23.9322481 10.6527011,24.2029892 C9.99982342,24.4001154 9.24091118,24.5223151 8.47992197,24.5223151 C7.21865737,24.5223151 5.88983674,23.7398218 4.66836244,22.515803 C2.09718853,19.9415216 8.54653221e-13,15.4140675 8.54653221e-13,12.119431 C8.54653221e-13,7.25849639 2.90813422,4.3216601 5.64267786,3.61278178 C6.95258717,3.27318036 8.47248862,3.49194838 9.6999752,3.81127427 C10.256562,3.95631848 10.8227423,4.04840955 11.3914672,4.08754747 C10.9810495,2.20174211 10.3714299,0.935520306 10.3622182,0.917684796 C10.2365375,0.659734762 10.3266165,0.339707834 10.5636638,0.203001734 C10.800711,0.0655539056 11.0948048,0.163519004 11.220433,0.421526093 Z" id="形状结合"></path>
            </g>
            <path d="M71.7592418,46.109723 L71.9381854,45.9293933 C72.6395363,45.2226097 72.6396237,44.0666782 71.9383798,43.3600007 C71.2371358,42.6533232 70.0900909,42.65341 69.38874,43.3601936 L69.2805625,43.4692091 C65.1834116,40.6843829 58.8662451,41.7608536 54.4097824,46.2518367 C49.9533196,50.7428199 48.8851173,57.1093803 51.6485297,61.2382764 L51.5403522,61.3472919 C50.8390013,62.0540755 50.8389139,63.2100069 51.5401578,63.9166844 C52.2414018,64.6233619 53.3884467,64.6232752 54.0897976,63.9164915 L54.2687412,63.7361618 C57.360605,65.6505401 64.0501553,64.9488843 68.5115378,60.4529433 C72.9649141,55.9650705 74.0397607,49.6093552 71.7592418,46.109723 Z" id="路径" fill="#FFAC38" fill-rule="nonzero" transform="translate(61.526563, 53.338253) rotate(-16.000000) translate(-61.526563, -53.338253) "></path>
            <path d="M62,53.5 L73.5197266,53.5 L62,53.5 Z" id="Path" stroke="#16B1E0" stroke-linejoin="round"></path>
            <path d="M56,47 C56.7974946,46.1536096 57.7974946,45.486943 59,45" id="Path-2" stroke="#FFFFFF" stroke-linecap="round" transform="translate(57.500000, 46.000000) rotate(-9.000000) translate(-57.500000, -46.000000) "></path>
            <path d="M60,43.8362729 C60.524991,43.5818789 61.3796221,43.2635806 62,43.1637271" id="Path-2" stroke="#FFFFFF" stroke-linecap="round"></path>
        </g>
    </g>
</svg>