<svg width="124" height="80" viewBox="0 0 124 80" fill="none" xmlns="http://www.w3.org/2000/svg">
<path fill-rule="evenodd" clip-rule="evenodd" d="M96.537 4.51901C96.7702 4.98348 96.5827 5.54903 96.1182 5.78222C87.5046 10.1067 82.8331 14.8632 80.6909 19.3489C79.6537 21.5208 79.1975 23.6536 79.1846 25.6815C82.2479 25.0098 85.0728 24.961 87.576 25.3756C92.2043 26.1421 95.7254 28.5082 97.4504 31.4415C99.2005 34.4172 99.0608 37.9529 96.3627 40.662C93.9408 43.0939 90.2481 42.834 86.9924 41.2174C83.6932 39.5793 80.514 36.4263 78.743 32.4373C78.1385 31.0757 77.6977 29.6151 77.4723 28.0838C70.393 30.2739 61.9235 36.041 53.1759 47.8211H65.1467C65.6664 47.8211 66.0877 48.2425 66.0877 48.7622C66.0877 49.2819 65.6664 49.7032 65.1467 49.7032H51.3995C51.3875 49.7032 51.3755 49.703 51.3636 49.7025C51.1622 49.7105 50.9567 49.6542 50.78 49.528C50.4154 49.2677 50.2923 48.7952 50.4585 48.3989V34.9586C50.4585 34.4389 50.8798 34.0175 51.3995 34.0175C51.9193 34.0175 52.3406 34.4389 52.3406 34.9586V45.8005C61.1667 34.2028 69.8549 28.3572 77.3072 26.1639C77.2461 23.7268 77.745 21.1502 78.9926 18.5379C81.3737 13.5519 86.4306 8.53997 95.2738 4.10024C95.7382 3.86706 96.3038 4.05455 96.537 4.51901ZM79.3032 27.5882C79.4916 29.0269 79.8966 30.3975 80.4631 31.6736C82.0562 35.2619 84.9232 38.0887 87.8294 39.5317C90.7789 40.9963 93.4507 40.919 95.0292 39.3339C97.059 37.2958 97.1921 34.7148 95.8281 32.3955C94.4392 30.0338 91.4594 27.9264 87.2685 27.2323C84.9551 26.8492 82.2696 26.9012 79.3032 27.5882ZM40.3315 16.6335C37.6443 13.9354 33.3689 13.9354 30.6818 16.6335L28.8634 18.4594C27.5931 19.7349 26.8828 21.5372 26.8828 23.346V23.3512H26.8828C26.8114 36.407 31.6685 49.4527 41.5899 59.3431L41.5923 59.3455C51.1621 68.9546 63.583 73.8988 76.0734 74.1138L76.0909 74.1143C77.842 74.1771 79.631 73.4192 80.9184 72.1266L83.3914 69.6434C86.0806 66.9431 86.0806 62.6435 83.3914 59.9432C83.3846 59.9364 83.3779 59.9295 83.3714 59.9225L77.6395 53.8028C75.1104 51.3411 71.0618 51.679 68.2865 54.4656L64.8748 57.8913C62.9231 59.93 59.8894 60.5108 57.2897 59.4161C56.8107 59.2144 56.5859 58.6626 56.7876 58.1837C56.9893 57.7047 57.5411 57.4799 58.0201 57.6816C59.9268 58.4845 62.126 58.0455 63.5204 56.5845L63.5344 56.5702L66.953 53.1375C70.2825 49.7944 75.5343 49.1058 78.9705 52.472C78.9775 52.4789 78.9843 52.4858 78.9911 52.4928C78.9937 52.4955 78.9962 52.4982 78.9988 52.501L84.7354 58.6256C88.1455 62.0609 88.1421 67.5404 84.7249 70.9715L82.2519 73.4547C80.6319 75.0814 78.3515 76.0758 76.0325 75.9955C63.0684 75.7702 50.181 70.6361 40.2598 60.6746C29.962 50.4082 24.9274 36.8708 25.0008 23.3434C25.0015 21.0631 25.8914 18.7766 27.5299 17.1313L29.3483 15.3055C32.771 11.8687 38.2423 11.8687 41.665 15.3055L47.1202 20.7831C50.5408 24.2177 50.5408 29.7048 47.1202 33.1394L43.9926 36.2799C42.5799 37.6985 42.1445 39.7337 42.7642 41.6004C42.9279 42.0937 42.6608 42.6263 42.1676 42.79C41.6743 42.9537 41.1417 42.6866 40.978 42.1934C40.143 39.678 40.7259 36.8929 42.659 34.9518L45.7867 31.8113C48.476 29.1111 48.476 24.8114 45.7867 22.1112L40.3315 16.6335Z"/>
</svg>
