<svg width="20" height="20" viewBox="0 0 20 20" fill="none" xmlns="http://www.w3.org/2000/svg">
<path fill-rule="evenodd" clip-rule="evenodd" d="M9.00216 14.8373C9.01284 14.4361 9.06291 14.0447 9.14863 13.6668C8.64946 13.2474 8.15835 12.7972 7.68101 12.3199C5.31601 9.95491 3.61801 7.25391 3.02301 4.90791C2.96801 4.69091 3.01601 4.46491 3.15401 4.28591C3.29601 4.10491 3.50901 3.99991 3.73901 3.99991H5.35501C5.81301 3.99991 6.22701 4.27291 6.40801 4.69391L7.01901 6.11291C7.20001 6.53491 7.18701 7.01391 6.98001 7.42591L6.56901 8.24891C6.34201 8.70291 6.39801 9.25791 6.71301 9.66291C7.44214 10.5997 8.43275 11.627 9.51168 12.5717C9.65107 12.2571 9.81672 11.9568 10.0058 11.6734C9.04029 10.8111 8.145 9.87659 7.502 9.04891C7.421 8.94491 7.407 8.80891 7.463 8.69591L7.875 7.87291C8.213 7.19791 8.236 6.41191 7.937 5.71791L7.327 4.29891C6.987 3.50991 6.213 2.99991 5.355 2.99991H3.739C3.198 2.99991 2.697 3.24491 2.365 3.67291C2.036 4.09591 1.922 4.63591 2.053 5.15391C2.692 7.66891 4.485 10.5389 6.974 13.0269C7.62804 13.6812 8.30857 14.2875 9.00216 14.8373Z" fill="#B2B2B2"/>
<path fill-rule="evenodd" clip-rule="evenodd" d="M11.5 9.0002H16.495H16.5H16.502H17.5C17.775 9.0002 18 8.7752 18 8.5002C18 8.2252 17.775 8.0002 17.5 8.0002H12.707L17.854 2.8542C18.049 2.6582 18.049 2.3422 17.854 2.1462C17.756 2.0492 17.628 2.0002 17.5 2.0002C17.372 2.0002 17.244 2.0492 17.146 2.1462L12 7.2932V2.5002C12 2.2252 11.775 2.0002 11.5 2.0002C11.225 2.0002 11 2.2252 11 2.5002V8.5002C11 8.7752 11.225 9.0002 11.5 9.0002" fill="#B2B2B2"/>
<path fill-rule="evenodd" clip-rule="evenodd" d="M20 15C20 17.7614 17.7614 20 15 20C12.2386 20 10 17.7614 10 15C10 12.2386 12.2386 10 15 10C17.7614 10 20 12.2386 20 15ZM17.8796 13.8254C18.0593 13.6157 18.0351 13.3001 17.8254 13.1204C17.6157 12.9407 17.3001 12.9649 17.1204 13.1746L14.4718 16.2647L12.8536 14.6464C12.6583 14.4512 12.3417 14.4512 12.1464 14.6464C11.9512 14.8417 11.9512 15.1583 12.1464 15.3536L14.1464 17.3536C14.2449 17.452 14.38 17.505 14.5192 17.4996C14.6584 17.4943 14.789 17.4311 14.8796 17.3254L17.8796 13.8254Z" fill="#B2B2B2"/>
</svg>
