<svg width="340" height="160" viewBox="0 0 340 160" fill="none" xmlns="http://www.w3.org/2000/svg" xmlns:xlink="http://www.w3.org/1999/xlink">
<path fill-rule="evenodd" clip-rule="evenodd" d="M254.79 51.6611C256.804 55.5584 258.59 53.2731 262.657 56.611C266.724 59.9489 266.525 64.9936 265.698 67.5255C265.155 69.0269 265.155 70.6705 265.698 72.1719H261.612C261.681 70.9085 261.681 69.6423 261.612 68.3789C261.536 67.5444 261.422 66.5677 261.27 65.4488C261.318 67.3453 261.318 68.6255 261.27 69.422C261.213 70.3554 261.073 71.282 260.852 72.1909H257.906C257.954 71.3951 257.954 70.5971 257.906 69.8013C257.849 69.166 257.697 68.2272 257.45 66.9565C257.624 68.2625 257.624 69.5858 257.45 70.8918C257.279 71.84 257.175 72.2762 257.137 72.153H223.737C223.441 71.6199 223.22 71.0487 223.081 70.4556C222.892 69.4831 222.784 68.4967 222.758 67.5065C222.634 68.6918 222.577 69.5547 222.577 70.0953C222.588 70.7846 222.648 71.4723 222.758 72.153H218.852C217.845 66.7858 217.718 63.3942 218.472 61.9782C219.926 59.2566 222.625 60.973 224.079 57.2369C225.532 53.5007 221.342 44.4069 227.319 40.0734C233.296 35.7398 237.876 39.8837 241.895 40.0734C245.915 40.263 245.639 37.9018 249.829 41.1544C254.02 44.4069 252.766 47.7543 254.79 51.6611Z" fill="#007AA3"/>
<path fill-rule="evenodd" clip-rule="evenodd" d="M233.108 76.9251V58.9351H246.282L246.338 76.9251" fill="white"/>
<path d="M233.108 76.9251V58.9351H246.282L246.338 76.9251" stroke="#007AA3" stroke-miterlimit="10"/>
<path d="M219.802 105.775C219.802 105.93 219.847 106.081 219.931 106.211C220.019 106.341 220.141 106.443 220.283 106.508C220.432 106.549 220.589 106.549 220.737 106.508C220.891 106.473 221.032 106.396 221.145 106.285C221.254 106.175 221.33 106.037 221.367 105.886C221.406 105.734 221.406 105.574 221.367 105.422C221.303 105.279 221.2 105.157 221.071 105.069C220.941 104.985 220.79 104.94 220.635 104.939C220.427 104.939 220.226 105.023 220.079 105.17C219.931 105.318 219.848 105.519 219.848 105.728L219.802 105.775Z" fill="white"/>
<path d="M102.438 86.843L109.94 106.331L111.793 107.89L112.098 105.505L104.606 86.0171L102.438 86.843Z" fill="white"/>
<path fill-rule="evenodd" clip-rule="evenodd" d="M73.8509 127.686L72.6132 109.83L68 109.904C68 100.93 68 94.2969 68 93.1972C68 84.5392 71.8343 80.2336 79.1306 78.3417C84 77.0791 88.3604 76.3813 93.5 75.7889C98.6396 75.1965 107.026 74.6415 114.513 74.9652C122 75.2889 122.5 76.2889 122.5 76.2889C122.5 76.2889 130.015 87.8915 135 97.1832L122.017 103.8L121.87 127.789L73.8509 127.686Z" fill="#F6C16C"/>
<path d="M123.906 97.9607V90.5366" stroke="#007AA3"/>
<path d="M162.64 81.7292C163.14 80.6378 163.361 79.4392 163.285 78.2406C163.209 77.0421 162.838 75.8809 162.204 74.861C161.484 73.5804 159.777 71.8494 158.147 71.0798C156.517 70.3101 154.72 69.9943 153.549 70.7493C152.285 72.4527 149.913 73.9226 149.364 75.1483C148.445 77.2262 149.508 81.0552 150.907 85.5762L142 98.7891L150.5 103.789C152.34 99.5204 158.338 93.145 159.047 90.9197L162.64 81.7292Z" fill="white" stroke="#007AA3"/>
<path d="M167.66 85.6399C166.571 83.259 165.308 81.18 163.5 79.289L160.001 82.6818C160.066 82.7525 160.108 82.841 160.122 82.9358C160.139 83.0319 160.128 83.1312 160.088 83.2206C159.688 84.2971 159.339 85.3851 158.955 86.4654C158.807 86.8042 158.745 87.1745 158.774 87.5435C158.797 87.9149 158.916 88.2741 159.118 88.5863C160.018 89.9033 160.943 91.2221 161.816 92.5621C161.964 92.7853 162.154 92.9765 162.377 93.1242C162.599 93.2719 162.849 93.3731 163.111 93.4216C163.378 93.4638 163.651 93.4514 163.912 93.3853C164.174 93.3191 164.42 93.2006 164.635 93.0368C165.812 92.1874 166.851 91.16 167.714 89.991C167.957 89.729 168.143 89.4186 168.258 89.08C168.373 88.7414 168.417 88.382 168.384 88.0254C168.236 87.205 167.993 86.4045 167.66 85.6399Z" fill="white"/>
<path d="M150.053 74.0482C150.174 74.0504 150.898 74.7227 151 74.7891L153.512 70.6474C152.03 69.5197 151.323 68.8705 149.68 67.9973C148.092 67.1249 146.361 66.5474 144.568 66.2927C144.138 66.2218 143.698 66.2512 143.281 66.3786C142.868 66.51 142.491 66.733 142.176 67.0312C141.103 68.0414 140.176 69.1969 139.423 70.4642C139.262 70.7123 139.154 70.9905 139.104 71.2818C139.053 71.5711 139.069 71.8683 139.151 72.1504C139.228 72.4324 139.362 72.6951 139.547 72.9215C139.733 73.1495 139.969 73.3321 140.236 73.4558C141.634 74.1491 143.017 74.8718 144.385 75.6237C144.721 75.824 145.104 75.9319 145.495 75.9365C145.882 75.9443 146.263 75.8479 146.6 75.6575C147.63 75.1198 148.706 74.6563 149.738 74.1276C149.833 74.0714 149.942 74.0439 150.053 74.0482Z" fill="white"/>
<path d="M163.2 79.289C164.974 81.2817 166.182 82.7613 167.232 85.2527C167.564 86.046 167.806 86.8746 167.951 87.7224C167.984 88.0849 167.941 88.4503 167.824 88.7948C167.707 89.1393 167.519 89.4552 167.272 89.7222C166.392 90.9151 165.333 91.9641 164.132 92.8319C163.91 92.9903 163.66 93.1053 163.396 93.171C163.13 93.2291 162.855 93.2335 162.587 93.1839C162.318 93.1384 162.061 93.0369 161.833 92.8861C161.605 92.7382 161.412 92.5419 161.268 92.3111C160.376 90.9378 159.429 89.6074 158.506 88.2229C158.299 87.9062 158.175 87.5429 158.143 87.1659C158.115 86.7871 158.183 86.4074 158.342 86.0628C158.744 85.0042 159.084 83.8558 159.494 82.7567C159.528 82.6655 159.539 82.5674 159.527 82.4708C159.513 82.372 159.47 82.2796 159.403 82.2055C156.922 78.9808 153.866 76.2444 150.39 74.1353C150.289 74.0689 150.17 74.0325 150.049 74.0302C149.929 74.0225 149.809 74.0526 149.707 74.1164C148.676 74.6451 147.599 75.1086 146.569 75.6463C146.233 75.8368 145.851 75.9332 145.465 75.9254C145.073 75.9208 144.69 75.8129 144.354 75.6125C142.992 74.8591 141.609 74.1365 140.205 73.4446C139.938 73.321 139.702 73.1383 139.516 72.9104C139.331 72.684 139.197 72.4212 139.12 72.1392C139.038 71.8571 139.022 71.5599 139.073 71.2706C139.123 70.9793 139.231 70.7012 139.392 70.4531C140.156 69.1877 141.093 68.0359 142.176 67.0312C142.491 66.7331 142.869 66.51 143.282 66.3786C143.699 66.2513 144.139 66.2219 144.569 66.2927C147.286 66.7261 152.414 69.9168 154 70.789" stroke="#007AA3"/>
<path d="M152.498 78.049L156.855 72.5243L162.285 78.5543L161.973 81.048C161.544 81.5722 161.013 82.0044 160.414 82.3189C159.814 82.6335 159.157 82.8238 158.481 82.8786C157.806 82.9335 157.127 82.8517 156.483 82.6382C155.84 82.4246 155.246 82.0837 154.736 81.6357C152.658 80.0014 152.358 79.154 152.498 78.049Z" fill="white"/>
<path d="M154.769 71.2661L152.719 77.6804C152.48 78.7761 152.722 79.6788 154.668 81.518C156.613 83.3572 159.089 83.0033 160.5 82.2891C161.064 82.0036 162.2 81.2891 163.2 79.7891" stroke="#007AA3"/>
<path fill-rule="evenodd" clip-rule="evenodd" d="M153.847 70.7053L151.242 74.7681C151.082 75.0358 151.037 75.3474 151.115 75.64C151.194 75.9326 151.39 76.1844 151.664 76.3443C151.938 76.5043 152.27 76.5605 152.592 76.5016C152.914 76.4428 153.203 76.2732 153.4 76.0272L156.513 71.6455L156.17 71.3724" fill="white"/>
<path d="M154.27 70.2977L151.265 74.8277C151.105 75.0953 151.06 75.407 151.138 75.6996C151.217 75.9922 151.413 76.2439 151.687 76.4039C151.961 76.5639 152.293 76.6201 152.615 76.5612C152.937 76.5024 153.59 76.0145 153.787 75.7685L155.967 73.4241" stroke="#007AA3"/>
<path d="M140.462 100.435C148.186 87.1827 146.742 90.2266 148.186 87.7767L156.679 95.4049C155.383 97.5672 149.742 110.402 144.639 116.489C139.536 122.577 134.729 119.431 131.895 116.721C130.645 115.515 127.005 110.634 123.115 105.158C118.244 98.2911 112.927 90.4865 111.473 87.7767C108.778 82.9231 113.076 78.116 116.215 76.3157C119.133 74.636 124.727 75.2856 128.255 81.2063C129.182 82.7283 130.978 85.8464 135.489 94.5419C136.995 96.63 138.657 98.6 140.462 100.435Z" fill="#F6C16C"/>
<path d="M86.3877 103.766H70.6348V112.231H86.3877V103.766Z" fill="#F6C16C"/>
<path d="M107.152 71.7444H94.1855V126.497H107.152V71.7444Z" fill="white"/>
<path d="M107.153 68.9604V81.0247L101 77.2891" stroke="#007AA3"/>
<path fill-rule="evenodd" clip-rule="evenodd" d="M247.404 76.925V80.145C251.841 80.4829 258.462 81.0837 261.074 81.7972C268.74 83.9751 275.907 89.0826 273.203 99.2889L271.5 106.789C264.765 115.245 262.5 123.789 256.5 129.789H217.993V113.818L202.87 103.492C208.076 92.7149 212.192 86.1061 215.22 83.6653C217.699 81.6658 222.62 80.605 225.821 80.3984C226.695 80.3421 229.896 80.2389 232.566 80.145V76.925H247.404Z" fill="#61D6F6"/>
<path d="M100.938 77.3828L100.948 117.383" stroke="#007AA3"/>
<path d="M68.0185 124.108C68.8736 128.568 71.7128 130.795 76.536 130.789H104V124.231L84.0108 118.878V110.028L68 109.789L68.0185 124.108Z" fill="#F6C16C"/>
<path d="M82.9857 117.789L83 103.789" stroke="#007AA3"/>
<path d="M80 116.789L104 124.789" stroke="#007AA3"/>
<path fill-rule="evenodd" clip-rule="evenodd" d="M104.225 124.789C111.105 126.156 115.308 127.228 116.835 128.006C118.388 128.781 118.388 129.381 116.835 129.789H104L104.225 124.789Z" fill="white" stroke="#007AA3"/>
<path d="M152.613 109.147H126.681C126.425 109.147 126.218 109.355 126.218 109.611V129.1C126.218 129.356 126.425 129.564 126.681 129.564H152.613C152.869 129.564 153.076 129.356 153.076 129.1V109.611C153.076 109.355 152.869 109.147 152.613 109.147Z" fill="white" stroke="#007AA3"/>
<path d="M126.715 98.9285H118.314C118.082 98.9285 117.894 99.1427 117.894 99.407V129.075C117.894 129.339 118.082 129.553 118.314 129.553H126.715C126.947 129.553 127.135 129.339 127.135 129.075V99.407C127.135 99.1427 126.947 98.9285 126.715 98.9285Z" fill="white" stroke="#007AA3"/>
<path d="M151.141 98.9392H129.839C129.583 98.9392 129.376 99.1677 129.376 99.4496V108.637C129.376 108.919 129.583 109.147 129.839 109.147H151.141C151.397 109.147 151.604 108.919 151.604 108.637V99.4496C151.604 99.1677 151.397 98.9392 151.141 98.9392Z" fill="white" stroke="#007AA3"/>
<path opacity="0.25" d="M149.288 100.795H131.691C131.435 100.795 131.228 101.038 131.228 101.337V106.75C131.228 107.049 131.435 107.292 131.691 107.292H149.288C149.543 107.292 149.751 107.049 149.751 106.75V101.337C149.751 101.038 149.543 100.795 149.288 100.795Z" fill="#007AA3"/>
<path d="M129.376 109.24C129.376 109.973 130.302 111.421 132.405 111.718C134.97 112.08 135.785 112.293 136.507 112.813C137.7 113.698 138.98 114.252 140.49 114.252" stroke="#007AA3"/>
<path d="M151.383 109.147C151.345 109.817 151.063 110.449 150.589 110.923C150.116 111.397 149.485 111.68 148.817 111.718C146.252 112.08 145.437 112.293 144.714 112.813C143.522 113.698 141.758 114.224 140.49 114.252" stroke="#007AA3"/>
<path opacity="0.7" d="M140.49 112.859C140.673 112.859 140.852 112.805 141.004 112.703C141.156 112.601 141.275 112.456 141.345 112.287C141.415 112.117 141.434 111.93 141.398 111.75C141.362 111.57 141.274 111.405 141.145 111.275C141.015 111.145 140.85 111.057 140.67 111.021C140.491 110.985 140.304 111.004 140.135 111.074C139.966 111.144 139.821 111.263 139.72 111.416C139.618 111.568 139.563 111.748 139.563 111.931C139.563 112.178 139.661 112.414 139.835 112.588C140.008 112.762 140.244 112.859 140.49 112.859Z" fill="#007AA3"/>
<path opacity="0.7" d="M135.016 119.3C135.199 119.3 135.378 119.245 135.531 119.143C135.683 119.042 135.802 118.897 135.872 118.727C135.942 118.557 135.96 118.371 135.924 118.191C135.889 118.011 135.8 117.845 135.671 117.716C135.541 117.586 135.376 117.497 135.197 117.462C135.017 117.426 134.831 117.444 134.662 117.514C134.492 117.585 134.348 117.704 134.246 117.856C134.144 118.009 134.09 118.188 134.09 118.372C134.09 118.618 134.187 118.854 134.361 119.028C134.535 119.202 134.77 119.3 135.016 119.3Z" fill="#007AA3"/>
<path opacity="0.7" d="M135.016 123.012C135.199 123.012 135.378 122.958 135.531 122.856C135.683 122.754 135.802 122.609 135.872 122.439C135.942 122.27 135.96 122.083 135.924 121.903C135.889 121.723 135.8 121.558 135.671 121.428C135.541 121.298 135.376 121.21 135.197 121.174C135.017 121.138 134.831 121.156 134.662 121.227C134.492 121.297 134.348 121.416 134.246 121.568C134.144 121.721 134.09 121.9 134.09 122.084C134.09 122.33 134.187 122.566 134.361 122.74C134.535 122.914 134.77 123.012 135.016 123.012Z" fill="#007AA3"/>
<path opacity="0.7" d="M135.016 126.724C135.199 126.724 135.378 126.67 135.531 126.568C135.683 126.466 135.802 126.321 135.872 126.151C135.942 125.982 135.96 125.795 135.924 125.615C135.889 125.435 135.8 125.27 135.671 125.14C135.541 125.01 135.376 124.922 135.197 124.886C135.017 124.85 134.831 124.868 134.662 124.939C134.492 125.009 134.348 125.128 134.246 125.28C134.144 125.433 134.09 125.612 134.09 125.796C134.09 126.042 134.187 126.278 134.361 126.452C134.535 126.626 134.77 126.724 135.016 126.724Z" fill="#007AA3"/>
<path opacity="0.7" d="M140.573 119.3C140.756 119.3 140.935 119.245 141.087 119.143C141.239 119.042 141.358 118.897 141.428 118.727C141.498 118.557 141.517 118.371 141.481 118.191C141.445 118.011 141.357 117.845 141.228 117.716C141.098 117.586 140.933 117.497 140.753 117.462C140.574 117.426 140.387 117.444 140.218 117.514C140.049 117.585 139.904 117.704 139.803 117.856C139.701 118.009 139.646 118.188 139.646 118.372C139.646 118.618 139.744 118.854 139.918 119.028C140.091 119.202 140.327 119.3 140.573 119.3Z" fill="#007AA3"/>
<path opacity="0.7" d="M140.573 123.012C140.756 123.012 140.935 122.958 141.087 122.856C141.239 122.754 141.358 122.609 141.428 122.439C141.498 122.27 141.517 122.083 141.481 121.903C141.445 121.723 141.357 121.558 141.228 121.428C141.098 121.298 140.933 121.21 140.753 121.174C140.574 121.138 140.387 121.156 140.218 121.227C140.049 121.297 139.904 121.416 139.803 121.568C139.701 121.721 139.646 121.9 139.646 122.084C139.646 122.33 139.744 122.566 139.918 122.74C140.091 122.914 140.327 123.012 140.573 123.012Z" fill="#007AA3"/>
<path opacity="0.7" d="M140.573 126.724C140.756 126.724 140.935 126.67 141.087 126.568C141.239 126.466 141.358 126.321 141.428 126.151C141.498 125.982 141.517 125.795 141.481 125.615C141.445 125.435 141.357 125.27 141.228 125.14C141.098 125.01 140.933 124.922 140.753 124.886C140.574 124.85 140.387 124.868 140.218 124.939C140.049 125.009 139.904 125.128 139.803 125.28C139.701 125.433 139.646 125.612 139.646 125.796C139.646 126.042 139.744 126.278 139.918 126.452C140.091 126.626 140.327 126.724 140.573 126.724Z" fill="#007AA3"/>
<path opacity="0.7" d="M146.13 119.3C146.313 119.3 146.493 119.245 146.645 119.143C146.797 119.042 146.916 118.897 146.986 118.727C147.056 118.557 147.074 118.371 147.039 118.191C147.003 118.011 146.915 117.845 146.785 117.716C146.656 117.586 146.491 117.497 146.311 117.462C146.131 117.426 145.945 117.444 145.776 117.514C145.607 117.585 145.462 117.704 145.36 117.856C145.258 118.009 145.204 118.188 145.204 118.372C145.204 118.618 145.302 118.854 145.475 119.028C145.649 119.202 145.885 119.3 146.13 119.3Z" fill="#007AA3"/>
<path opacity="0.7" d="M146.13 123.012C146.313 123.012 146.493 122.958 146.645 122.856C146.797 122.754 146.916 122.609 146.986 122.439C147.056 122.27 147.074 122.083 147.039 121.903C147.003 121.723 146.915 121.558 146.785 121.428C146.656 121.298 146.491 121.21 146.311 121.174C146.131 121.138 145.945 121.156 145.776 121.227C145.607 121.297 145.462 121.416 145.36 121.568C145.258 121.721 145.204 121.9 145.204 122.084C145.204 122.33 145.302 122.566 145.475 122.74C145.649 122.914 145.885 123.012 146.13 123.012Z" fill="#007AA3"/>
<path opacity="0.7" d="M146.13 126.724C146.313 126.724 146.493 126.67 146.645 126.568C146.797 126.466 146.916 126.321 146.986 126.151C147.056 125.982 147.074 125.795 147.039 125.615C147.003 125.435 146.915 125.27 146.785 125.14C146.656 125.01 146.491 124.922 146.311 124.886C146.131 124.85 145.945 124.868 145.776 124.939C145.607 125.009 145.462 125.128 145.36 125.28C145.258 125.433 145.204 125.612 145.204 125.796C145.204 126.042 145.302 126.278 145.475 126.452C145.649 126.626 145.885 126.724 146.13 126.724Z" fill="#007AA3"/>
<path d="M143.593 29C141.32 29 139.139 29.878 137.532 31.4408C135.925 33.0036 135.021 35.1232 135.021 37.3333V37.5833C135.021 39.7935 135.925 41.9131 137.532 43.4759C139.139 45.0387 141.32 45.9167 143.593 45.9167H143.807L147.021 49L150.219 45.8917H156.45C158.723 45.8917 160.904 45.0137 162.511 43.4509C164.118 41.8881 165.021 39.7685 165.021 37.5583V37.3333C165.021 35.1232 164.118 33.0036 162.511 31.4408C160.904 29.878 158.723 29 156.45 29H143.593Z" fill="#1DC4F2"/>
<path d="M145.314 37.3659C145.309 37.5251 145.351 37.6824 145.435 37.8174C145.52 37.9525 145.643 38.0592 145.789 38.1239C145.934 38.1886 146.096 38.2083 146.253 38.1805C146.41 38.1528 146.555 38.0788 146.669 37.968C146.784 37.8573 146.863 37.7149 146.896 37.559C146.929 37.4031 146.915 37.2409 146.855 37.0932C146.796 36.9454 146.693 36.8188 146.561 36.7297C146.429 36.6405 146.273 36.5929 146.114 36.5928C145.906 36.5927 145.707 36.6732 145.558 36.8175C145.408 36.9618 145.321 37.1584 145.314 37.3659Z" fill="white"/>
<path d="M149.064 37.3659C149.059 37.5251 149.101 37.6824 149.185 37.8174C149.27 37.9525 149.393 38.0592 149.539 38.1239C149.684 38.1886 149.846 38.2083 150.003 38.1805C150.16 38.1528 150.305 38.0788 150.419 37.968C150.534 37.8573 150.613 37.7149 150.646 37.559C150.679 37.4031 150.665 37.2409 150.605 37.0932C150.546 36.9454 150.443 36.8188 150.311 36.7297C150.179 36.6405 150.023 36.5929 149.864 36.5928C149.656 36.5927 149.457 36.6732 149.308 36.8175C149.158 36.9618 149.071 37.1584 149.064 37.3659Z" fill="white"/>
<path d="M152.815 37.3659C152.81 37.5251 152.852 37.6824 152.936 37.8174C153.021 37.9525 153.144 38.0592 153.29 38.1239C153.435 38.1886 153.597 38.2083 153.754 38.1805C153.911 38.1528 154.056 38.0788 154.17 37.968C154.285 37.8573 154.364 37.7149 154.397 37.559C154.43 37.4031 154.416 37.2409 154.356 37.0932C154.297 36.9454 154.194 36.8188 154.062 36.7297C153.93 36.6405 153.774 36.5929 153.615 36.5928C153.407 36.5927 153.208 36.6732 153.059 36.8175C152.909 36.9618 152.822 37.1584 152.815 37.3659Z" fill="white"/>
<path d="M247.755 44.7323C248.971 44.7323 250.159 44.3711 251.169 43.6944C252.179 43.0177 252.966 42.056 253.431 40.9308C253.896 39.8057 254.017 38.5677 253.779 37.3736C253.541 36.1795 252.955 35.0829 252.095 34.2225C251.235 33.3622 250.14 32.7768 248.948 32.5404C247.756 32.304 246.52 32.4273 245.398 32.8946C244.276 33.3619 243.317 34.1523 242.644 35.1656C241.97 36.179 241.611 37.3699 241.613 38.5875C241.613 39.3953 241.772 40.1951 242.081 40.9413C242.39 41.6874 242.842 42.3653 243.413 42.936C243.983 43.5067 244.661 43.9591 245.406 44.2674C246.151 44.5756 246.949 44.7336 247.755 44.7323Z" fill="#007AA3"/>
<path d="M246.412 54.41C246.412 51.7147 245.344 49.1299 243.442 47.2241C241.54 45.3182 238.96 44.2476 236.27 44.2476C233.58 44.2476 231.001 45.3182 229.098 47.2241C227.196 49.1299 226.128 51.7147 226.128 54.41V59.6621C226.128 62.3574 227.196 64.9422 229.098 66.8481C231.001 68.7539 233.58 69.8246 236.27 69.8246C238.96 69.8246 241.54 68.7539 243.442 66.8481C245.344 64.9422 246.412 62.3574 246.412 59.6621V54.41Z" fill="white" stroke="#007AA3"/>
<path fill-rule="evenodd" clip-rule="evenodd" d="M246.155 53.4127C244.765 52.6043 243.514 51.5783 242.449 50.3735C241.37 48.8837 240.473 47.2704 239.776 45.5677C237.224 47.8853 234.141 49.536 230.799 50.3735C227.608 51.2093 225.713 51.2093 225.112 50.3735C227.444 47.2709 229.34 45.2733 230.799 44.3805C232.259 43.4877 234.591 42.9274 237.776 42.6899L246.155 42.3955L248.126 51.5132L246.155 53.4127Z" fill="#007AA3"/>
<path d="M230.364 56.086C230.576 56.086 230.779 56.0026 230.93 55.8539C231.08 55.7053 231.166 55.5032 231.169 55.2915C231.169 55.0778 231.084 54.873 230.933 54.7219C230.782 54.5708 230.577 54.486 230.364 54.486C230.152 54.4889 229.95 54.575 229.801 54.7258C229.653 54.8765 229.569 55.0797 229.569 55.2915C229.569 55.5022 229.653 55.7043 229.802 55.8533C229.951 56.0023 230.153 56.086 230.364 56.086Z" fill="#007AA3"/>
<path d="M239.995 56.086C240.434 56.086 240.785 55.7329 240.785 55.2915C240.785 54.8501 240.434 54.486 239.995 54.486C239.557 54.486 239.191 54.8501 239.191 55.2915C239.162 55.4768 239.23 55.6635 239.38 55.8119C239.53 55.9602 239.751 56.0586 239.995 56.086Z" fill="#007AA3"/>
<path d="M235.405 64.0975C236.285 64.1099 237.141 63.8105 237.822 63.2522C238.44 62.6583 238.807 61.849 238.846 60.9918" stroke="#007AA3"/>
<path d="M234.723 54.4479V60.6118" stroke="#007AA3"/>
<path d="M191 72.7891C193.373 72.7891 195.693 72.0853 197.667 70.7667C199.64 69.4481 201.178 67.574 202.087 65.3813C202.995 63.1886 203.232 60.7758 202.769 58.448C202.306 56.1202 201.164 53.982 199.485 52.3038C197.807 50.6256 195.669 49.4827 193.341 49.0196C191.013 48.5566 188.601 48.7943 186.408 49.7025C184.215 50.6108 182.341 52.1488 181.022 54.1222C179.704 56.0956 179 58.4157 179 60.7891C178.999 62.3653 179.308 63.9263 179.911 65.3827C180.514 66.8392 181.397 68.1626 182.512 69.2771C183.627 70.3917 184.95 71.2755 186.406 71.8781C187.863 72.4808 189.424 72.7903 191 72.7891Z" fill="#44CF50"/>
<circle cx="190.999" cy="57.5891" r="0.800008" fill="white"/>
<circle cx="190.999" cy="60.389" r="0.800008" fill="white"/>
<circle cx="190.999" cy="63.1892" r="0.800008" fill="white"/>
<circle cx="190.999" cy="65.9891" r="0.800008" fill="white"/>
<circle cx="187.8" cy="57.5891" r="0.800008" fill="white"/>
<circle cx="187.8" cy="60.389" r="0.800008" fill="white"/>
<circle cx="187.8" cy="63.1892" r="0.800008" fill="white"/>
<circle cx="194.2" cy="57.5891" r="0.800008" fill="white"/>
<circle cx="194.2" cy="60.389" r="0.800008" fill="white"/>
<circle cx="194.2" cy="63.1892" r="0.800008" fill="white"/>
<path d="M192.5 129.789L193.813 126.052C193.864 125.808 193.931 125.568 194.014 125.333L204.199 95.9247C204.307 95.6136 204.511 95.345 204.782 95.1583C205.053 94.9717 205.377 94.8768 205.706 94.8875C206.036 94.8947 206.355 95.0059 206.618 95.2054C206.881 95.4202 207.069 95.7132 207.154 96.0418L208.342 99.7889H212.075L213.246 96.0418C213.332 95.7226 213.52 95.4403 213.782 95.238C214.043 95.0356 214.363 94.9243 214.694 94.921C215.022 94.9076 215.345 95.0016 215.615 95.1887C215.888 95.3756 216.093 95.6454 216.201 95.9581L227.39 124.714C227.448 124.853 227.498 124.996 227.541 125.14C227.818 126.026 228.315 128.88 228.5 129.789" fill="white"/>
<path d="M192.5 129.789L204.131 95.6635C204.238 95.3535 204.44 95.086 204.71 94.9C204.979 94.714 205.301 94.6195 205.628 94.6302C205.956 94.6373 206.273 94.7482 206.534 94.9469C206.796 95.1609 206.982 95.4528 207.067 95.7802L208.248 99.5133H211.957L213.121 95.7802C213.206 95.4622 213.393 95.1809 213.653 94.9793C213.913 94.7777 214.231 94.6668 214.56 94.6635C214.885 94.6502 215.207 94.7439 215.474 94.9302C215.746 95.1164 215.95 95.3853 216.057 95.6968L229 129.789" stroke="#007AA3"/>
<path d="M207.717 112.882C207.747 113.02 207.747 113.162 207.717 113.299C207.678 113.438 207.605 113.567 207.506 113.674C207.409 113.775 207.295 113.86 207.169 113.924C207.038 113.976 206.898 114.004 206.757 114.007C206.612 114.004 206.47 113.976 206.335 113.924C206.208 113.858 206.092 113.774 205.99 113.674C205.896 113.564 205.828 113.437 205.788 113.299C205.744 113.164 205.73 113.022 205.746 112.882" stroke="#007AA3" stroke-linecap="round" stroke-linejoin="round"/>
<path d="M209.961 112.882C209.991 113.02 209.991 113.162 209.961 113.299C209.921 113.437 209.851 113.564 209.756 113.674C209.653 113.774 209.535 113.858 209.407 113.924C209.274 113.976 209.132 114.005 208.989 114.007C208.843 114.005 208.699 113.976 208.563 113.924C208.436 113.86 208.321 113.775 208.222 113.674C208.122 113.567 208.049 113.439 208.009 113.299C207.975 113.162 207.975 113.019 208.009 112.882" stroke="#007AA3" stroke-linecap="round" stroke-linejoin="round"/>
<path d="M210.429 109.08C210.431 109.825 210.655 110.553 211.073 111.169C211.491 111.786 212.083 112.262 212.774 112.539C213.458 112.822 214.21 112.897 214.936 112.752C215.663 112.608 216.329 112.25 216.853 111.726C217.376 111.201 217.733 110.533 217.877 109.806C218.022 109.078 217.947 108.324 217.664 107.639C217.378 106.956 216.897 106.373 216.281 105.962C215.666 105.551 214.944 105.332 214.204 105.331C213.214 105.335 212.265 105.732 211.566 106.434C210.866 107.137 210.431 108.088 210.429 109.08Z" fill="#FFCE73"/>
<path fill-rule="evenodd" clip-rule="evenodd" d="M208.124 112.466L208.822 111.807C208.904 111.745 208.964 111.656 208.99 111.557C209.017 111.457 209.01 111.35 208.97 111.255C208.93 111.16 208.859 111.08 208.769 111.029C208.679 110.978 208.575 110.959 208.473 110.974H207.084C206.982 110.959 206.878 110.978 206.788 111.029C206.698 111.08 206.627 111.16 206.587 111.255C206.547 111.35 206.54 111.457 206.567 111.557C206.593 111.656 206.653 111.745 206.735 111.807L207.433 112.466C207.526 112.555 207.65 112.605 207.778 112.605C207.907 112.605 208.031 112.555 208.124 112.466Z" fill="#007AA3"/>
<path d="M216.547 110.074L214.435 110.691" stroke="#007AA3" stroke-linecap="round" stroke-linejoin="round"/>
<path d="M216.547 112.816L214.435 112.199" stroke="#007AA3" stroke-linecap="round" stroke-linejoin="round"/>
<path d="M200.979 110.074L203.092 110.691" stroke="#007AA3" stroke-linecap="round" stroke-linejoin="round"/>
<path d="M200.979 112.816L203.092 112.199" stroke="#007AA3" stroke-linecap="round" stroke-linejoin="round"/>
<path fill-rule="evenodd" clip-rule="evenodd" d="M107 73.7891V45.7891H94V73.7891" fill="white"/>
<path d="M94.1855 58.9604V81.0247L100.669 76.7935" stroke="#007AA3"/>
<path d="M94.2002 71.2441C94.2002 72.0157 94.3194 72.7154 94.6383 73.4035C94.9572 74.0916 95.4395 74.7194 96.0565 75.2495C96.6735 75.7796 97.4126 76.2011 98.2297 76.489C99.0469 76.7768 99.9254 76.9252 100.813 76.9252C101.701 76.9252 102.579 76.7768 103.396 76.489C104.213 76.2011 104.953 75.7796 105.57 75.2495C106.187 74.7194 106.669 74.4772 106.988 73.7891C107 73.2891 107 71.7891 106.988 70.2891" stroke="#007AA3"/>
<path fill-rule="evenodd" clip-rule="evenodd" d="M111.86 48.5386C112.389 47.3508 112.322 46.038 111.658 44.6001C110.995 43.1623 110.482 42.2963 110.118 42.0022L108.089 43.9548L111.86 48.5386Z" fill="#007AA3"/>
<path fill-rule="evenodd" clip-rule="evenodd" d="M102.274 43.7974C104.754 43.3581 107.176 43.9674 109.088 45.3076C111.001 46.6478 112.402 48.719 112.841 51.2036L114.423 60.2375C114.835 62.5869 114.257 64.8811 112.99 66.6909C111.723 68.5008 109.767 69.8263 107.422 70.2387C107.252 70.2686 107.081 70.2934 106.909 70.313C104.36 70.6043 101.919 69.8762 100.003 68.4423C98.088 67.0084 96.6989 64.8687 96.2551 62.3371L94.8637 54.4C94.4274 51.9112 95.0384 49.4806 96.3793 47.5621C97.7202 45.6436 99.791 44.2374 102.274 43.7974Z" fill="white" stroke="#007AA3"/>
<path fill-rule="evenodd" clip-rule="evenodd" d="M114.097 58.1235L114.414 60.1181C115.171 64.8762 112.022 69.3622 107.38 70.1381C107.246 70.1606 107.11 70.1798 106.975 70.1956C101.988 70.7788 97.4193 67.2813 96.5492 62.2135L96.3594 61.1083L114.097 58.1235ZM110.709 60.5447L104.849 61.6467L104.867 61.7427C105.189 63.333 106.644 64.4183 108.228 64.2307L108.314 64.2205C108.369 64.214 108.424 64.2059 108.478 64.1962C110.008 63.9209 111.031 62.426 110.763 60.8571L110.709 60.5447Z" fill="#007AA3"/>
<path d="M105.997 61.3011C106.164 62.2741 106.593 62.8784 107.283 63.1138C107.974 63.3493 108.574 63.3493 109.085 63.1138" stroke="#007AA3"/>
<path d="M103.01 54.4868C103.445 54.4099 103.736 53.9948 103.66 53.5597C103.583 53.1245 103.168 52.8341 102.733 52.911C102.298 52.9879 102.007 53.4029 102.084 53.8381C102.161 54.2732 102.575 54.5636 103.01 54.4868Z" fill="#007AA3"/>
<path d="M110.996 53.1789C111.431 53.102 111.721 52.687 111.645 52.2518C111.568 51.8167 111.154 51.5263 110.718 51.6031C110.283 51.68 109.993 52.0951 110.069 52.5302C110.146 52.9653 110.561 53.2558 110.996 53.1789Z" fill="#007AA3"/>
<path fill-rule="evenodd" clip-rule="evenodd" d="M94.3788 63.0171C88.4417 59.4859 85.5964 54.9968 85.8428 49.5498C86.2124 41.3793 91.1619 42.1871 93.4468 41.781C95.7318 41.3749 95.2682 37.7509 97.8929 34.037C100.518 30.3231 105.507 29.9654 108.952 32.6462C112.397 35.3269 113.795 41.1766 110.595 44.7018C107.396 48.227 100.985 46.8413 98.5564 46.8413C96.1278 46.8413 94.4328 52.655 95.1681 55.7149C95.5837 57.4444 95.6728 58.5032 96.1278 60.307C96.4239 61.4806 95.8409 62.384 94.3788 63.0171Z" fill="#007AA3"/>
<path fill-rule="evenodd" clip-rule="evenodd" d="M95.1838 61.5705C95.2071 61.6127 94.0316 55.4018 93.9899 55.4014C92.3826 55.7155 91.2501 56.8509 91.5798 58.5545C91.9095 60.2581 93.5765 61.8846 95.1838 61.5705Z" fill="white" stroke="#007AA3"/>
<path d="M107.136 53.4003L108.597 57.8447" stroke="#007AA3"/>
<path d="M253.119 77.7723L243.854 72.0605C243.592 71.8987 243.246 71.9839 243.081 72.2507L232.656 89.1602C232.491 89.427 232.571 89.7744 232.833 89.9362L242.098 95.648C242.36 95.8098 242.706 95.7246 242.871 95.4578L253.296 78.5483C253.46 78.2815 253.381 77.934 253.119 77.7723Z" fill="white" stroke="#007AA3" stroke-miterlimit="10"/>
<path d="M246.516 78.418C246.892 78.6499 247.385 78.533 247.617 78.1569C247.849 77.7808 247.732 77.2879 247.356 77.0561C246.98 76.8242 246.487 76.9411 246.255 77.3172C246.023 77.6933 246.14 78.1862 246.516 78.418Z" fill="#007AA3"/>
<path d="M257.5 104.789L255.5 111.289C255.5 111.289 254.107 97.7109 254.067 89.7879C254.026 81.8649 250.47 83.1192 250.47 83.1192L245.201 79.6594C245.201 79.6594 239.719 82.4921 239.668 87.5929C239.617 92.6937 246.139 95.2859 246.139 95.2859L244.977 115.146C244.977 115.146 244 125.789 250.072 128.933C254.148 130.553 258.03 130.176 261.984 126.434C265.938 122.692 270.5 107.289 270.5 107.289" fill="white"/>
<path d="M257.5 104.789L255.5 111.289C255.5 111.289 254.107 97.7109 254.067 89.7879C254.026 81.8649 250.47 83.1192 250.47 83.1192L245.201 79.6594C245.201 79.6594 239.719 82.4921 239.668 87.5929C239.617 92.6937 246.139 95.2859 246.139 95.2859L244.977 115.146C244.977 115.146 244 125.789 250.072 128.933C254.148 130.553 258.03 130.176 261.984 126.434C265.938 122.692 270.5 107.289 270.5 107.289" stroke="#007AA3"/>
<rect opacity="0.25" x="120" y="100.789" width="5" height="8" fill="#007AA3"/>
<rect opacity="0.25" x="120" y="119.789" width="5" height="8" fill="#007AA3"/>
<line x1="42" y1="130.289" x2="298" y2="130.289" stroke="#007AA3"/>
<path d="M197.999 92.989V92.989C195.348 92.989 193.199 95.138 193.199 97.789V97.789" stroke="#007AA3"/>
<path d="M198 89.7891V89.7891C193.582 89.7891 190 93.3708 190 97.7891V97.7891" stroke="#007AA3"/>
<circle cx="204.8" cy="107.589" r="0.8" fill="#007AA3"/>
<circle cx="211.8" cy="107.589" r="0.8" fill="#007AA3"/>
</svg>
