<svg width="24" height="24" viewBox="0 0 24 24" fill="none" xmlns="http://www.w3.org/2000/svg">
    <g id="call-voicemail_alert" stroke="none" stroke-width="1">
        <path d="M3.74081 5.99972H5.35838C6.15996 5.99972 6.8883 6.44399 7.25854 7.14473L7.3323 7.29874L7.94289 8.71777C8.21406 9.34869 8.22052 10.0556 7.96526 10.6861L7.88083 10.8728L7.46843 11.6958C7.41238 11.8088 7.42639 11.9448 7.50747 12.0488C8.3623 13.1469 9.65956 14.4329 10.9768 15.4889C11.0585 15.5553 11.162 15.5788 11.2585 15.5559L11.3292 15.5299L12.138 15.1249C12.7531 14.8185 13.4584 14.7725 14.1027 14.9898L14.2941 15.0629L15.7144 15.6729C16.4516 15.9902 16.9454 16.6856 17.008 17.4746L17.0147 17.6449V19.261C17.0147 19.803 16.7695 20.303 16.341 20.636C16.0337 20.875 15.6634 21 15.285 21C15.1429 21 14.9997 20.983 14.8586 20.947C12.3412 20.308 9.46837 18.515 6.97896 16.0269C4.48754 13.5389 2.69279 10.6688 2.05317 8.15376C1.92205 7.63575 2.03616 7.09574 2.36548 6.67273C2.66457 6.28752 3.10068 6.05055 3.57968 6.00701L3.74081 5.99972H5.35838H3.74081ZM5.35838 6.99974H3.74081C3.51059 6.99974 3.29738 7.10474 3.15524 7.28574C3.01711 7.46475 2.96906 7.69075 3.02412 7.90775C3.61969 10.2538 5.31934 12.9548 7.68664 15.3199C10.0529 17.6839 12.7576 19.382 15.1048 19.977C15.3221 20.032 15.5483 19.984 15.7264 19.846C15.8791 19.7285 15.9768 19.5603 16.0052 19.3744L16.0137 19.261V17.6449C16.0137 17.2327 15.7932 16.8562 15.4412 16.653L15.3191 16.5919L13.8987 15.9819C13.5232 15.8201 13.1026 15.8132 12.7249 15.9584L12.5854 16.0199L11.7766 16.4239C11.3142 16.6539 10.7546 16.5939 10.3502 16.2679C8.95588 15.1509 7.63159 13.8359 6.7177 12.6628C6.43393 12.2983 6.36015 11.8123 6.51387 11.3878L6.57356 11.2488L6.98496 10.4258C7.16914 10.0596 7.19989 9.64119 7.0765 9.25565L7.023 9.11278L6.41241 7.69375C6.23123 7.27274 5.81683 6.99974 5.35838 6.99974ZM10.9222 5H18.6026C19.3365 5 19.9268 5.56693 19.9937 6.27309L20 6.40703V11.6251C20 12.347 19.4529 12.9281 18.7385 12.9939L18.6026 13.0001H12.5548C12.2785 13.0001 12.0543 12.7761 12.0543 12.5001C12.0543 12.2548 12.2314 12.0506 12.4648 12.0082L12.5548 12.0001H18.6026C18.8023 12.0001 18.9698 11.8661 19.0086 11.6879L19.017 11.6091V6.39103C19.017 6.20202 18.8745 6.04441 18.686 6.00796L18.6026 6.00002H10.9222C10.7225 6.00002 10.5558 6.13401 10.5172 6.31221L10.5088 6.39103V8.99808C10.5088 9.27408 10.2846 9.49808 10.0083 9.49808C9.76184 9.49808 9.55808 9.32109 9.51585 9.08791L9.50781 8.99808V6.39103C9.50781 5.66913 10.07 5.07391 10.7862 5.00638L10.9222 5H18.6026H10.9222ZM16.5142 7.50005C17.342 7.50005 18.0157 8.17306 18.0157 9.00007C18.0157 9.82709 17.342 10.5001 16.5142 10.5001H13.0108C12.183 10.5001 11.5094 9.82709 11.5094 9.00007C11.5094 8.17306 12.183 7.50005 13.0108 7.50005C13.8386 7.50005 14.5123 8.17306 14.5123 9.00007C14.5123 9.17608 14.4762 9.34308 14.4202 9.50008H15.1048C15.0488 9.34308 15.0128 9.17608 15.0128 9.00007C15.0128 8.17306 15.6864 7.50005 16.5142 7.50005ZM16.5142 8.50007C16.2379 8.50007 16.0137 8.72407 16.0137 9.00007C16.0137 9.27608 16.2379 9.50008 16.5142 9.50008C16.7905 9.50008 17.0147 9.27608 17.0147 9.00007C17.0147 8.72407 16.7905 8.50007 16.5142 8.50007ZM13.0108 8.50007C12.7345 8.50007 12.5103 8.72407 12.5103 9.00007C12.5103 9.27608 12.7345 9.50008 13.0108 9.50008C13.2871 9.50008 13.5113 9.27608 13.5113 9.00007C13.5113 8.72407 13.2871 8.50007 13.0108 8.50007Z"/>
		<path fill-rule="evenodd" clip-rule="evenodd" d="M20 9C22.2091 9 24 7.20914 24 5C24 2.79086 22.2091 1 20 1C17.7909 1 16 2.79086 16 5C16 7.20914 17.7909 9 20 9Z" fill="#D4371C"/>
   </g>
</svg>
