<svg width="124" height="80" viewBox="0 0 124 80" fill="none" xmlns="http://www.w3.org/2000/svg">
<path fill-rule="evenodd" clip-rule="evenodd" d="M76.4514 10.8506C75.9403 10.8506 75.5261 10.4363 75.5261 9.92529C75.5261 9.41427 75.9403 9 76.4514 9H93.9256C94.4367 9 94.8509 9.41427 94.8509 9.92529V27.3996C94.8509 27.9106 94.4367 28.3249 93.9256 28.3249C93.4146 28.3249 93.0004 27.9106 93.0004 27.3996V12.1591L77.1056 28.0538C69.197 35.9625 66.5189 43.3364 67.2117 48.575C67.4813 50.6131 68.2591 52.342 69.4525 53.695L70.9917 52.1558C72.7229 50.4246 75.0973 49.6512 77.3001 49.5916C79.4778 49.5328 81.6729 50.1702 83.0032 51.5005C84.453 52.9503 84.4215 54.9126 83.3827 56.413C82.3629 57.8861 80.4157 58.9049 77.9804 58.9049C74.5937 58.9049 71.6862 57.9792 69.4969 56.2677L68.8849 56.8797C66.9365 58.9066 63.9097 59.4837 61.3156 58.397C57.8585 56.9687 54.6252 54.8634 51.8428 52.081C48.6806 48.9188 46.4274 45.16 45.0023 41.2597C44.9993 41.2514 44.9963 41.2431 44.9936 41.2347C44.1587 38.73 44.742 35.9576 46.6733 34.0262L49.8041 30.8954C52.5007 28.1988 52.5007 23.9064 49.8041 21.2098L44.3434 15.749C41.6467 13.0524 37.3543 13.0524 34.6577 15.749L32.8375 17.5693C31.5631 18.8436 30.8514 20.6433 30.8514 22.4485V22.4536H30.8514C30.7798 35.4712 35.6425 48.4795 45.5768 58.3423L45.5791 58.3446C55.1613 67.9268 67.6007 72.8594 80.113 73.1454L80.1249 73.1457L80.1249 73.1458C81.8841 73.2086 83.6798 72.4504 84.9711 71.1591L87.4466 68.6836C90.1433 65.9869 90.1433 61.6945 87.4466 58.9979C87.0853 58.6365 87.0853 58.0507 87.4466 57.6893C87.808 57.328 88.3938 57.328 88.7552 57.6893C92.1745 61.1087 92.1745 66.5728 88.7552 69.9921L86.2796 72.4677C84.6599 74.0874 82.3808 75.0763 80.0648 74.9954C67.0962 74.6975 54.2008 69.5829 44.2717 59.6543C33.9663 49.4224 28.9273 35.9296 29.0008 22.4459C29.0015 20.1747 29.8915 17.8981 31.5289 16.2607L33.3491 14.4405C36.7685 11.0211 42.2326 11.0211 45.6519 14.4405L51.1126 19.9012C54.532 23.3205 54.532 28.7846 51.1126 32.204L47.9818 35.3348C46.567 36.7496 46.1298 38.7768 46.7451 40.6374C48.087 44.3047 50.2009 47.822 53.1513 50.7724C55.7562 53.3773 58.7838 55.349 62.0243 56.6875L62.0289 56.6894C63.9453 57.4931 66.1553 57.0533 67.5558 55.5919L67.5696 55.5779L68.1417 55.0058C66.649 53.3506 65.6978 51.2422 65.3771 48.8177C64.5774 42.7708 67.6876 34.8548 75.7971 26.7453L91.6918 10.8506H76.4514ZM70.8173 54.9473C72.609 56.277 75.03 57.0543 77.9804 57.0543C79.9137 57.0543 81.2429 56.2528 81.8612 55.3596C82.4607 54.4937 82.4291 53.5436 81.6947 52.8091C80.8407 51.9552 79.2133 51.3912 77.3501 51.4415C75.5119 51.4912 73.627 52.1376 72.3002 53.4644L70.8173 54.9473Z"/>
</svg>
