<svg width="20" height="20" viewBox="0 0 20 20" fill="none" xmlns="http://www.w3.org/2000/svg">
<path fill-rule="evenodd" clip-rule="evenodd" d="M9.51158 12.572C9.65097 12.2574 9.81663 11.9569 10.0058 11.6736C9.04038 10.8112 8.1454 9.87663 7.5016 9.0489C7.4206 8.9449 7.4066 8.8089 7.4626 8.6959L7.8746 7.8729C8.2126 7.1979 8.2356 6.4119 7.9366 5.7179L7.3266 4.2989C6.9866 3.5099 6.2126 2.9999 5.3546 2.9999H3.7386C3.1986 2.9999 2.6966 3.2449 2.3656 3.6729C2.0366 4.0959 1.9216 4.6359 2.0526 5.1539C2.6916 7.6689 4.4846 10.5389 6.9736 13.0269C7.62776 13.6813 8.30842 14.2877 9.00215 14.8376C9.01282 14.4364 9.06286 14.045 9.14857 13.6671C8.64928 13.2476 8.15805 12.7973 7.6806 12.3199C5.3156 9.9549 3.6186 7.2539 3.0226 4.9079C2.9676 4.6909 3.0166 4.4649 3.1536 4.2859C3.2956 4.1049 3.5086 3.9999 3.7386 3.9999H5.3546C5.8126 3.9999 6.2276 4.2729 6.4076 4.6939L7.0196 6.1129C7.1996 6.5349 7.1866 7.0139 6.9796 7.4259L6.5686 8.2489C6.3416 8.7029 6.3976 9.2579 6.7126 9.6629C7.4418 10.5998 8.43253 11.6272 9.51158 12.572ZM12.5051 2.0002H17.5001C17.7751 2.0002 18.0001 2.2252 18.0001 2.5002V8.5002C18.0001 8.7752 17.7751 9.0002 17.5001 9.0002C17.2251 9.0002 17.0001 8.7752 17.0001 8.5002V3.7072L11.8541 8.8542C11.7561 8.9512 11.6281 9.0002 11.5001 9.0002C11.3721 9.0002 11.2441 8.9512 11.1461 8.8542C10.9511 8.6582 10.9511 8.3422 11.1461 8.1462L16.2931 3.0002H11.5001C11.2251 3.0002 11.0001 2.7752 11.0001 2.5002C11.0001 2.2252 11.2251 2.0002 11.5001 2.0002H12.4981H12.5001H12.5051Z" fill="#B2B2B2"/>
<path fill-rule="evenodd" clip-rule="evenodd" d="M20 15C20 17.7614 17.7614 20 15 20C12.2386 20 10 17.7614 10 15C10 12.2386 12.2386 10 15 10C17.7614 10 20 12.2386 20 15ZM17.8796 13.8254C18.0593 13.6157 18.0351 13.3001 17.8254 13.1204C17.6157 12.9407 17.3001 12.9649 17.1204 13.1746L14.4718 16.2647L12.8535 14.6464C12.6583 14.4512 12.3417 14.4512 12.1464 14.6464C11.9512 14.8417 11.9512 15.1583 12.1464 15.3536L14.1464 17.3536C14.2449 17.452 14.38 17.505 14.5192 17.4996C14.6584 17.4943 14.789 17.4311 14.8796 17.3254L17.8796 13.8254Z" fill="#B2B2B2"/>
</svg>
