<?xml version="1.0" encoding="UTF-8"?>
<svg width="208px" height="124px" viewBox="0 0 208 124" version="1.1" xmlns="http://www.w3.org/2000/svg" xmlns:xlink="http://www.w3.org/1999/xlink">
    <!-- Generator: Sketch 62 (91390) - https://sketch.com -->
    <title>calls_missed</title>
    <desc>Created with Sketch.</desc>
    <defs>
        <path d="M84.52988,0 L85.3411927,21.079 L98.7667543,13.4746138 L99.1246662,18.3545307 L85.6251927,28.452 L86.3791662,48.006913 L88.0246131,85.6223196 L94.0608424,91.2548567 L95.1084733,94.1237149 L15.9662096,94.0821794 L16.7494416,91.8012499 L17.1391927,81.812 L0.151192728,70.8243128 L0.151192728,64.8637521 L17.4691927,73.328 L18.6583175,42.8493759 L18.6583175,5.8405072 L40.1107695,5.8405072 L45.9624384,2.3538782 L84.52988,0 Z" id="path-1"></path>
        <polygon id="path-3" points="17.9831395 61.2894095 16.7626805 91.114849 16.7494416 91.8012499 16.1538243 93.5164603 88.1288915 91.8012499 84.7656102 6.51468856 23.8857274 57.9371146"></polygon>
    </defs>
    <g id="calls_missed" stroke="none" stroke-width="1" fill="none" fill-rule="evenodd">
        <g id="编组-6" transform="translate(7.000000, -2.000000)">
            <g id="编组" transform="translate(82.515152, 30.616352)">
                <mask id="mask-2" fill="white">
                    <use xlink:href="#path-1"></use>
                </mask>
                <use id="形状结合" fill-opacity="0.25" fill="#48E33D" xlink:href="#path-1"></use>
                <line x1="42.3565905" y1="4.55125034" x2="42.3565905" y2="23.8330168" id="直线-6" stroke="#48E33D" stroke-linecap="square" mask="url(#mask-2)"></line>
                <path d="M46.8899554,2.34115947 L47.1430939,14.3250302 L46.8899554,2.34115947 Z" id="直线-7" stroke="#48E33D" stroke-linecap="square" mask="url(#mask-2)"></path>
                <line x1="56.3780826" y1="89.7416065" x2="56.3780826" y2="94.0086478" id="直线-3" stroke="#48E33D" stroke-linecap="square" mask="url(#mask-2)"></line>
                <line x1="63.7299765" y1="75.2137644" x2="63.7299765" y2="93.9461478" id="直线-2" stroke="#48E33D" stroke-linecap="square" mask="url(#mask-2)"></line>
                <mask id="mask-4" fill="white">
                    <use xlink:href="#path-3"></use>
                </mask>
                <g id="Path-3"></g>
                <g id="Group-2" mask="url(#mask-4)" fill-rule="nonzero" stroke="#48E33D" stroke-linecap="round">
                    <g transform="translate(70.503751, 9.907247)">
                        <path d="M1,29 C8.7319865,29 15,22.7304873 15,14.9966515 C15,7.40913077 8.96691004,1.23105076 1.437236,1" id="Oval" transform="translate(8.000000, 15.000000) rotate(177.000000) translate(-8.000000, -15.000000) "></path>
                        <path d="M6.95830639,22.7931351 C11.3765844,22.7931351 14.9583064,19.2105564 14.9583064,14.7912216 C14.9583064,10.4554955 11.5108264,6.92516407 7.20815553,6.79313507" id="Oval-Copy" transform="translate(10.958306, 14.793135) rotate(177.000000) translate(-10.958306, -14.793135) "></path>
                    </g>
                </g>
                <g id="Group-3" mask="url(#mask-4)" fill-rule="nonzero" stroke="#48E33D" stroke-linecap="round">
                    <g transform="translate(16.450379, 61.365591)">
                        <path d="M1,29 C8.7319865,29 15,22.7304873 15,14.9966515 C15,7.40913077 8.96691004,1.23105076 1.437236,1" id="Oval" transform="translate(8.000000, 15.000000) rotate(1.000000) translate(-8.000000, -15.000000) "></path>
                        <path d="M1.03446973,23 C5.45274773,23 9.03446973,19.4174213 9.03446973,14.9980865 C9.03446973,10.6623604 5.58698975,7.13202901 1.28431887,7" id="Oval-Copy" transform="translate(5.034470, 15.000000) rotate(1.000000) translate(-5.034470, -15.000000) "></path>
                    </g>
                </g>
            </g>
            <g id="编组-5备份-3" transform="translate(78.500000, 97.500000) rotate(135.000000) translate(-78.500000, -97.500000) translate(72.000000, 60.000000)">
                <g id="编组-4备份" transform="translate(2.374735, -0.000000)" stroke="#16B1E0">
                    <line x1="3.97647113" y1="71.5820448" x2="3.97647113" y2="6.40752491" id="直线-8" stroke-linecap="square"></line>
                    <polygon id="矩形" fill="#16B1E0" points="3.76124182 0.207533968 7.45978251 7.57595502 3.81412832 6.48808522 0.102639655 7.57595502"></polygon>
                </g>
                <polygon id="矩形备份-7" fill-opacity="0.25" fill="#16B1E0" transform="translate(8.301514, 70.266789) scale(-1, 1) rotate(-44.000000) translate(-8.301514, -70.266789) " points="4.48130425 69.0450145 12.2564611 68.717839 10.0792936 71.6059251 4.34656593 71.8157381"></polygon>
                <polygon id="矩形备份-8" fill-opacity="0.25" fill="#16B1E0" transform="translate(7.841044, 64.611176) scale(-1, 1) rotate(-44.000000) translate(-7.841044, -64.611176) " points="4.63994896 63.3889285 11.1553909 63.0627172 9.3306168 65.9505337 4.52669776 66.1596356"></polygon>
                <polygon id="矩形备份-7" fill-opacity="0.25" fill="#16B1E0" transform="translate(4.342021, 70.084325) rotate(-42.000000) translate(-4.342021, -70.084325) " points="0.785329727 68.8622706 8.0242951 68.5355151 5.99713254 71.4236329 0.659747609 71.6331345"></polygon>
                <polygon id="矩形备份-9" fill-opacity="0.25" fill="#16B1E0" transform="translate(4.926514, 64.278612) rotate(-42.000000) translate(-4.926514, -64.278612) " points="1.72558512 63.0562871 8.24067842 62.7300829 6.41601227 65.6180465 1.61235018 65.8271415"></polygon>
            </g>
            <path d="M175.425886,46.6883361 C175.425886,46.6883361 178.000204,44.2153607 177.999036,41.1635737 C177.997868,38.1117867 175.421657,35.6368377 175.421657,35.6368377 C175.421657,35.6368377 172.847339,38.109813 172.848507,41.1616 C172.849675,44.213387 175.425886,46.6883361 175.425886,46.6883361 Z" id="椭圆形" fill-opacity="0.25" fill="#48E33D" transform="translate(175.423771, 41.162587) rotate(-345.000000) translate(-175.423771, -41.162587) "></path>
            <path d="M92.5731502,98.0514983 C92.5731502,98.0514983 95.1493613,95.5765493 95.1505296,92.5247623 C95.1516971,89.4729753 92.5773795,87 92.5773795,87 C92.5773795,87 90.0011683,89.474949 90,92.526736 C89.9988325,95.578523 92.5731502,98.0514983 92.5731502,98.0514983 Z" id="椭圆形备份-3" fill="#48E33D" transform="translate(92.575265, 92.525749) rotate(-15.000000) translate(-92.575265, -92.525749) "></path>
            <path d="M183.706248,44.3234369 C183.706248,44.3234369 186.743407,41.6030221 186.740963,38.2444888 C186.738516,34.8859556 183.697391,32.1611122 183.697391,32.1611122 C183.697391,32.1611122 180.660231,34.8815271 180.662675,38.2400603 C180.665123,41.5985936 183.706248,44.3234369 183.706248,44.3234369 Z" id="椭圆形备份" fill="#48E33D" transform="translate(183.701819, 38.242275) rotate(36.000000) translate(-183.701819, -38.242275) "></path>
            <path d="M78.0431072,112.150338 C78.0431072,112.150338 81.0848128,109.430876 81.0842781,106.075653 C81.0837434,102.72043 78.0411709,100 78.0411709,100 C78.0411709,100 74.9994653,102.719462 75,106.074685 C75.0005347,109.429908 78.0431072,112.150338 78.0431072,112.150338 Z" id="椭圆形备份-4" fill-opacity="0.5" fill="#48E33D" transform="translate(78.042139, 106.075169) rotate(84.000000) translate(-78.042139, -106.075169) "></path>
            <path d="M176.763809,65.4939929 C176.763809,65.4939929 179.529985,63.1439717 179.530889,60.2461356 C179.531792,57.3482995 176.76708,55 176.76708,55 C176.76708,55 174.000904,57.3500212 174,60.2478573 C173.999097,63.1456935 176.763809,65.4939929 176.763809,65.4939929 Z" id="椭圆形备份-2" fill-opacity="0.5" fill="#48E33D" transform="translate(176.765444, 60.246996) rotate(102.000000) translate(-176.765444, -60.246996) "></path>
            <g id="编组-5" transform="translate(56.000000, 58.500000) rotate(-270.000000) translate(-56.000000, -58.500000) translate(47.000000, 11.000000)">
                <g id="编组-4备份" transform="translate(4.641174, 0.399674)" stroke="#16B1E0">
                    <line x1="4.20628341" y1="88.4806831" x2="4.40752051" y2="3.66762792" id="直线-8" stroke-linecap="square"></line>
                    <polygon id="矩形" fill="#16B1E0" points="5.33450746 0.583137118 7.93155928 5.7173107 4.30461434 3.71211994 0.656931755 5.74660816 3.43855413 0.583137118"></polygon>
                </g>
                <polygon id="矩形" fill-opacity="0.25" fill="#16B1E0" transform="translate(11.330548, 80.636977) scale(-1, 1) rotate(-44.000000) translate(-11.330548, -80.636977) " points="6.24462019 78.5477705 16.5149002 78.5116465 13.4316392 82.6613447 6.14619542 82.7623075"></polygon>
                <polygon id="矩形备份-7" fill-opacity="0.25" fill="#16B1E0" transform="translate(11.891145, 88.775154) scale(-1, 1) rotate(-44.000000) translate(-11.891145, -88.775154) " points="6.0189677 86.8189046 17.8995019 86.5172098 14.6432582 90.8584782 5.88278866 91.0330974"></polygon>
                <polygon id="矩形" fill-opacity="0.25" fill="#16B1E0" transform="translate(6.454986, 80.737679) rotate(-42.000000) translate(-6.454986, -80.737679) " points="1.37185936 78.8502683 11.6409215 78.4132632 8.34579485 82.8719293 1.2690499 83.0620943"></polygon>
                <polygon id="矩形备份-7" fill-opacity="0.25" fill="#16B1E0" transform="translate(6.106677, 88.360150) rotate(-42.000000) translate(-6.106677, -88.360150) " points="0.230864253 86.4053706 12.1189664 86.1034085 8.04855172 90.2308214 0.0943868765 90.6168913"></polygon>
            </g>
            <g id="编组-7" transform="translate(174.393026, 115.259457) rotate(54.000000) translate(-174.393026, -115.259457) translate(160.393026, 101.259457)">
                <path d="M23.407698,7.10145447 L23.5762753,6.9313926 C24.2369966,6.26485287 24.2374386,5.17509646 23.5772578,4.50909318 C22.9170771,3.84308991 21.8368408,3.84352862 21.1761195,4.51006835 L21.0742088,4.61287653 C17.2165593,1.98875159 11.2669956,3.00556177 7.06869827,7.24083058 C2.87040094,11.4760994 1.86243417,17.4785178 4.4636094,21.370182 L4.36169867,21.4729902 C3.70097746,22.1395299 3.70053545,23.2292863 4.36071619,23.8952896 C5.02089693,24.5612929 6.10113326,24.5608542 6.76185447,23.8943144 L6.9304318,23.7242526 C9.84161708,25.528074 16.1417587,24.8645054 20.3446908,20.624561 C24.5400805,16.3922254 25.5543013,10.4000293 23.407698,7.10145447 Z" id="路径" fill="#FFAC38" fill-rule="nonzero" transform="translate(13.768799, 13.919435) rotate(-16.000000) translate(-13.768799, -13.919435) "></path>
                <g id="Group" transform="translate(13.231444, 5.515700) rotate(11.000000) translate(-13.231444, -5.515700) translate(10.231444, 3.015700)" stroke="#FFFFFF" stroke-linecap="round">
                    <path d="M-2.27373675e-13,4.55821811 C0.689163353,3.58736507 1.55332391,2.82266431 2.59248168,2.26411581" id="Path-2"></path>
                    <path d="M4.0779019,1.50166488 C4.46388932,1.34268636 4.9570054,1.17973977 5.33536551,1.12064101" id="Path-2"></path>
                </g>
            </g>
            <path d="M52.9331538,102.179895 C52.9331538,102.179895 54.870235,100.571299 54.8717344,98.5886258 C54.8732321,96.6059526 52.9385805,95 52.9385805,95 C52.9385805,95 51.0014994,96.6085959 51,98.5912691 C50.9985023,100.573942 52.9331538,102.179895 52.9331538,102.179895 Z" id="椭圆形备份-6" fill="#48E33D" transform="translate(52.935867, 98.589947) rotate(99.000000) translate(-52.935867, -98.589947) "></path>
            <g id="编组-4" transform="translate(136.000000, 0.000000)">
                <g id="编组-3" transform="translate(13.876603, 0.000000)" fill="#48E33D">
                    <path d="M4.79110156,9.74760364 C4.79110156,9.74760364 6.9817976,7.78684832 6.97700132,5.36276894 C6.97218925,2.93868956 4.7737041,0.969235667 4.7737041,0.969235667 C4.7737041,0.969235667 2.58300805,2.92999098 2.58780434,5.35407036 C2.5926164,7.77814975 4.79110156,9.74760364 4.79110156,9.74760364 Z" id="椭圆形备份" transform="translate(4.782403, 5.358420) rotate(-315.000000) translate(-4.782403, -5.358420) "></path>
                </g>
                <g id="fruit备份" transform="translate(0.000000, 4.956390)" fill="#FF752B" fill-rule="nonzero">
                    <path d="M12.5248315,0.473133419 C12.5566706,0.539608305 12.9550113,1.37265774 13.3570392,2.70177119 L14.3433223,1.71532609 C14.5074344,1.44161351 14.8443794,1.366429 15.0938251,1.54683339 C15.3439732,1.72640524 15.4133873,2.09425855 15.2485143,2.36797113 L13.6708656,3.94211387 C13.7144303,4.1379469 13.7631188,4.36243282 13.8122666,4.6017189 C14.2609417,4.58754447 14.7084312,4.54071536 15.152319,4.46430566 C15.4417551,4.41431199 15.7288727,4.35217262 16.0137939,4.27788755 C17.3840394,3.91946668 19.0798393,3.67391495 20.5427604,4.05509367 C23.5953834,4.85082112 26.8415332,8.14721349 26.8415332,13.603271 C26.8415332,17.382363 24.3973116,22.6050145 21.4420012,25.4580887 C20.1313635,26.7251062 18.7196916,27.5245755 17.3758029,27.5245755 C16.5264081,27.5245755 15.6792098,27.387415 14.9503727,27.1661546 C13.9517451,26.8622667 12.8897271,26.8622667 11.8910995,27.1661546 C11.1623234,27.387415 10.3151861,27.5245755 9.46573033,27.5245755 C8.05784113,27.5245755 6.57454238,26.6462818 5.21106917,25.2724067 C2.34099101,22.3829567 4.3602359e-13,17.3012076 4.3602359e-13,13.6032097 C4.3602359e-13,8.14715215 3.2462108,4.85075978 6.29865076,4.05509367 C7.76083972,3.67391495 9.45743284,3.91946668 10.8276173,4.27788755 C11.4491398,4.44075012 12.0813791,4.54413222 12.7164579,4.58803386 C12.2575339,2.47112294 11.5771293,1.05005455 11.5668474,1.0300367 C11.4265561,0.740505911 11.527107,0.381298173 11.7917114,0.227855181 C12.0563159,0.0735796526 12.3845987,0.183538591 12.5248315,0.473133419 Z" id="形状结合"></path>
                </g>
            </g>
            <g id="编组-8" transform="translate(44.519835, 111.775042) rotate(34.000000) translate(-44.519835, -111.775042) translate(30.019835, 95.775042)" fill="#FFAC38" fill-rule="nonzero">
                <path d="M10.3980768,5.77135494 L9.57393167,5.77176091 L9.57601714,1.53315983 C9.57601714,1.53315983 9.57604611,1.47428489 9.61038823,1.47426797 L10.4001912,1.47387892 C10.4001912,1.47387892 10.4345334,1.47387892 10.4345044,1.53273694 L10.4324189,5.77133803 L10.3980768,5.77135494 Z" id="路径" transform="translate(10.004218, 3.622820) rotate(-20.000000) translate(-10.004218, -3.622820) "></path>
                <path d="M22.895449,25.3496803 C22.895449,25.3496803 20.7161709,28.5247534 15.1532654,28.1784008 C14.6944787,28.1206662 14.1783368,28.1206662 13.7195501,28.1784008 C8.09928934,28.467074 5.92001129,25.3496803 5.92001129,25.3496803 C1.15996879,19.8654431 5.46122457,14.1502674 5.46122457,14.1502674 C6.89493991,12.3606597 8.90220725,8.95464811 8.90220725,8.95464811 C10.2786223,2.60444674 14.4077576,3.29720703 14.4077576,3.29720703 C14.4077576,3.29720703 18.5369478,2.60444674 19.9133079,8.95464811 C19.9133079,8.95464811 21.9205203,12.3606597 23.3542906,14.1502674 C23.3542906,14.1502674 27.6554915,19.8654431 22.895449,25.3496803 Z" id="形状结合" fill-opacity="0.5" transform="translate(14.407738, 15.739896) rotate(-20.000000) translate(-14.407738, -15.739896) "></path>
                <g id="编组" transform="translate(22.687293, 19.890979) rotate(-20.000000) translate(-22.687293, -19.890979) translate(20.187293, 17.390979)">
                    <ellipse id="椭圆形" cx="1.38452981" cy="3.26663198" rx="1" ry="1"></ellipse>
                    <ellipse id="椭圆形" cx="3.87837068" cy="1.4312488" rx="1" ry="1"></ellipse>
                </g>
            </g>
            <line x1="0" y1="124.5" x2="193.861823" y2="124.625" id="直线-2" stroke="#48E33D" stroke-linecap="round"></line>
            <g id="编组-4备份-2" transform="translate(61.233505, 120.032819) scale(1, -1) rotate(115.000000) translate(-61.233505, -120.032819) translate(56.733505, 115.032819)">
                <g id="编组-3" transform="translate(-0.000000, 0.369409)"></g>
            </g>
        </g>
        <g id="编组-5备份-3" transform="translate(47.520642, 107.461569) rotate(116.000000) translate(-47.520642, -107.461569) translate(42.020642, 73.961569)">
            <g id="编组-4备份" transform="translate(0.953034, 0.061698)" stroke="#16B1E0">
                <line x1="4.09755254" y1="63.4382776" x2="4.09755254" y2="7.40879898" id="直线-8" stroke-linecap="square"></line>
                <polygon id="矩形" fill="#16B1E0" points="4.07530882 0 8.19510508 8.46719883 4.13421897 7.21710606 0 8.46719883"></polygon>
            </g>
            <polygon id="矩形" fill-opacity="0.25" fill="#16B1E0" transform="translate(6.785527, 62.777509) scale(-1, 1) rotate(-37.000000) translate(-6.785527, -62.777509) " points="3.47359153 61.7023236 10.1982215 61.4645766 8.33117132 63.9422359 3.37283201 64.0904417"></polygon>
            <polygon id="矩形备份-4" fill-opacity="0.25" fill="#16B1E0" transform="translate(6.403016, 58.377428) scale(-1, 1) rotate(-37.000000) translate(-6.403016, -58.377428) " points="3.76243168 57.2860525 9.13080231 57.0806961 7.20428855 59.5086681 3.67523054 59.6741606"></polygon>
            <polygon id="矩形备份-7" fill-opacity="0.25" fill="#16B1E0" transform="translate(3.477633, 62.972475) rotate(-42.000000) translate(-3.477633, -62.972475) " points="0.165290561 61.897515 6.8908079 61.6596272 5.02345016 64.1370095 0.0644572513 64.2853228"></polygon>
            <polygon id="矩形备份-10" fill-opacity="0.25" fill="#16B1E0" transform="translate(3.650806, 58.397251) rotate(-42.000000) translate(-3.650806, -58.397251) " points="0.792204624 57.3219451 6.59668133 57.0847589 4.98480144 59.5619466 0.704931459 59.7097425"></polygon>
        </g>
    </g>
</svg>