<?xml version="1.0" standalone="no"?>
<!DOCTYPE svg PUBLIC "-//W3C//DTD SVG 1.1//EN" "http://www.w3.org/Graphics/SVG/1.1/DTD/svg11.dtd" >
<svg xmlns="http://www.w3.org/2000/svg" id="camera-muted_24">
<path unicode="&#xe927;" transform="scale(1,-1)" id="camera-muted_24" data-tags="camera-muted_24" d="M939.691 283.52c0-3.371-2.048-4.949-3.755-5.675-1.749-0.683-4.267-0.981-6.656 1.323l-161.28 161.323v15.061l161.28 161.28c2.389 2.389 4.992 2.005 6.656 1.323 1.707-0.683 3.755-2.261 3.755-5.632v-329.003zM725.333 214.315c0-35.84-29.184-64.981-64.981-64.981h-510.080c-10.112 0-19.584 2.517-28.117 6.699l577.109 577.365c15.701-11.861 26.069-30.507 26.069-51.669v-467.413zM85.333 214.315v467.413c0 35.797 29.141 64.939 64.939 64.939h501.888l-560.171-560.469c-4.139 8.533-6.656 18.005-6.656 28.117v0zM952.235 657.579c-18.176 7.552-39.083 3.456-53.12-10.539l-131.115-131.157v165.845c0 32.939-15.189 62.123-38.613 81.877l32 31.957c8.32 8.363 8.32 21.845 0 30.165-8.363 8.363-21.845 8.363-30.165 0l-41.131-41.088c-9.515 2.731-19.328 4.693-29.739 4.693h-510.080c-59.349 0-107.605-48.256-107.605-107.605v-467.413c0-21.973 6.656-42.368 18.005-59.435l-54.443-54.485c-8.32-8.32-8.32-21.803 0-30.165 4.181-4.139 9.643-6.229 15.104-6.229s10.923 2.091 15.104 6.229l54.4 54.485c17.067-11.349 37.461-18.048 59.435-18.048h510.080c59.349 0 107.648 48.299 107.648 107.648v165.845l131.072-131.157c9.387-9.301 21.803-14.336 34.432-14.336 6.315 0 12.672 1.28 18.731 3.755 18.304 7.595 30.123 25.301 30.123 45.099v329.003c0 19.797-11.819 37.504-30.123 45.056v0z" />
</svg>
