<svg width="17" height="16" viewBox="0 0 17 16" fill="none" xmlns="http://www.w3.org/2000/svg">
<g>
<path d="M12.526 8.00018L15.5 5.00318L15.516 10.9902L12.526 8.00018ZM1.5 11.9915C1.5 12.5469 1.95267 13 2.50853 13H10.4915C11.0469 13 11.5 12.5473 11.5 11.9915V4.00853C11.5 3.4531 11.0473 3 10.4915 3H2.50853C1.95309 3 1.5 3.45268 1.5 4.00853V11.9915ZM15.888 4.088C15.516 3.936 15.093 4.02 14.809 4.303L12.5 6.611V4.009C12.5 2.902 11.601 2 10.492 2H2.509C1.402 2 0.5 2.9 0.5 4.009V11.991C0.5 13.098 1.399 14 2.509 14H10.492C11.598 14 12.5 13.101 12.5 11.991V9.379L12.504 9.392L14.809 11.697C14.999 11.888 15.252 11.987 15.508 11.987C15.636 11.987 15.766 11.963 15.889 11.911C16.26 11.758 16.5 11.399 16.5 10.997V5.003C16.5 4.602 16.26 4.241 15.888 4.088Z" fill-rule="evenodd"/>
<circle cx="5" cy="6.5" r="1.5" fill="#00CF64"/>
</g>
</svg>
