<?xml version="1.0" standalone="no"?>
<!DOCTYPE svg PUBLIC "-//W3C//DTD SVG 1.1//EN" "http://www.w3.org/Graphics/SVG/1.1/DTD/svg11.dtd" >
<svg xmlns="http://www.w3.org/2000/svg" id="camera_24">
<path unicode="&#xe92c;" transform="scale(1,-1)" id="camera_24" data-tags="camera_24" d="M939.708 283.499c0-3.371-2.048-4.949-3.755-5.675-1.749-0.683-4.267-0.981-6.656 1.323l-161.28 161.323v15.061l161.28 161.28c2.389 2.389 4.992 2.005 6.656 1.323 1.707-0.683 3.755-2.261 3.755-5.632v-329.003zM725.35 214.293c0-35.84-29.184-64.981-64.981-64.981h-510.080c-35.797 0-64.939 29.141-64.939 64.981v467.413c0 35.797 29.141 64.939 64.939 64.939h510.080c35.797 0 64.981-29.141 64.981-64.939v-467.413zM952.252 657.557c-18.176 7.552-39.083 3.456-53.12-10.539l-131.115-131.157v165.845c0 59.349-48.299 107.605-107.648 107.605h-510.080c-59.349 0-107.605-48.256-107.605-107.605v-467.413c0-59.349 48.256-107.648 107.605-107.648h510.080c59.349 0 107.648 48.299 107.648 107.648v165.845l131.072-131.157c9.387-9.301 21.803-14.336 34.432-14.336 6.315 0 12.672 1.28 18.731 3.755 18.304 7.595 30.123 25.301 30.123 45.099v329.003c0 19.797-11.819 37.504-30.123 45.056v0z" />
</svg>
