<?xml version="1.0" standalone="no"?>
<!DOCTYPE svg PUBLIC "-//W3C//DTD SVG 1.1//EN" "http://www.w3.org/Graphics/SVG/1.1/DTD/svg11.dtd" >
<svg xmlns="http://www.w3.org/2000/svg" id="camera_20">
<path unicode="&#xe92b;" transform="scale(1,-1)" id="camera_20" data-tags="camera_20" d="M973.014 250.624c0-4.147-2.396-5.99-4.436-6.861-2.498-1.126-5.099-0.614-7.24 1.536l-193.338 196.198v13.056l193.338 196.147c2.141 2.15 4.691 2.765 7.24 1.587 2.039-0.87 4.436-2.714 4.436-6.861v-394.803zM925.087 686.746l-157.087-159.437v-158.566l157.087-159.437c11.064-11.264 25.85-17.254 40.942-17.254 7.393 0 14.786 1.434 21.924 4.352 21.924 9.011 36.047 30.31 36.047 54.221v394.803c0 23.91-14.123 45.21-36.047 54.221-21.72 8.96-46.346 3.942-62.866-12.902zM127.682 806.4h512.637c70.517 0 127.682-57.447 127.682-128.149v-460.501c0-70.775-57.725-128.149-127.682-128.149h-512.637c-70.517 0-127.682 57.447-127.682 128.149v460.501c0 70.775 57.725 128.149 127.682 128.149zM51.2 217.749c0-42.497 34.313-76.949 76.482-76.949h512.637c41.866 0 76.482 34.638 76.482 76.949v460.501c0 42.497-34.313 76.949-76.482 76.949h-512.637c-41.866 0-76.482-34.638-76.482-76.949v-460.501z" />
</svg>
