<?xml version="1.0" standalone="no"?>
<!DOCTYPE svg PUBLIC "-//W3C//DTD SVG 1.1//EN" "http://www.w3.org/Graphics/SVG/1.1/DTD/svg11.dtd" >
<svg xmlns="http://www.w3.org/2000/svg" id="camera_28">
<path unicode="&#xe92d;" transform="scale(1,-1)" id="camera_28" data-tags="camera_28" d="M950.93 275.193c0-6.144-4.389-8.594-6.254-9.399-1.902-0.768-6.766-2.085-11.081 2.231l-165.595 165.595v28.562l165.595 165.595c4.315 4.315 9.179 2.999 11.081 2.231 1.865-0.805 6.254-3.255 6.254-9.399v-345.417zM907.739 653.634l-139.739-139.739v-132.023l139.739-139.703c8.923-8.96 20.846-13.714 32.987-13.714 6.034 0 12.105 1.17 17.92 3.547 17.518 7.278 28.855 24.21 28.855 43.191v345.417c0 18.944-11.337 35.913-28.855 43.154s-37.522 3.291-50.907-10.13zM146.074 777.143h512.424c60.476 0 109.502-49.478 109.502-109.441v-439.403c0-60.443-49.127-109.441-109.502-109.441h-512.424c-60.476 0-109.502 49.478-109.502 109.441v439.403c0 60.443 49.127 109.441 109.502 109.441zM73.143 228.299c0-39.951 32.838-72.87 72.931-72.87h512.424c40.222 0 72.931 32.67 72.931 72.87v439.403c0 39.951-32.838 72.87-72.931 72.87h-512.424c-40.222 0-72.931-32.67-72.931-72.87v-439.403z" />
</svg>
