<svg width="17" height="16" viewBox="0 0 17 16" fill="none" xmlns="http://www.w3.org/2000/svg">
<path fill-rule="evenodd" clip-rule="evenodd" d="M12.5259 8L15.4999 5.003L15.5159 10.99L12.5259 8ZM10.4909 13H3.2069L11.4999 4.707V11.991C11.4999 12.547 11.0469 13 10.4909 13ZM1.4999 11.991V4.009C1.4999 3.453 1.9529 3 2.5089 3H10.4909C10.8449 3 11.1419 3.194 11.3219 3.471L1.9709 12.822C1.6939 12.642 1.4999 12.345 1.4999 11.991ZM15.8879 4.088C15.5159 3.936 15.0929 4.02 14.8089 4.303L12.4999 6.612V4.009C12.4999 3.915 12.4849 3.825 12.4719 3.734L13.3489 2.857C13.5449 2.662 13.5449 2.346 13.3489 2.15C13.1539 1.955 12.8379 1.955 12.6419 2.15L12.0439 2.749C11.6749 2.296 11.1199 2 10.4909 2H2.5089C1.4019 2 0.499901 2.899 0.499901 4.009V11.991C0.499901 12.619 0.795901 13.175 1.2489 13.544L0.646901 14.146C0.450901 14.342 0.450901 14.658 0.646901 14.854C0.743901 14.951 0.871901 15 0.999901 15C1.1279 15 1.2559 14.951 1.3539 14.854L2.2349 13.973C2.3249 13.984 2.4149 14 2.5089 14H10.4909C11.5979 14 12.4999 13.101 12.4999 11.991V9.388L14.8089 11.697C14.9989 11.888 15.2519 11.987 15.5079 11.987C15.6359 11.987 15.7659 11.963 15.8889 11.911C16.2599 11.758 16.4999 11.398 16.4999 10.997V5.003C16.4999 4.601 16.2599 4.241 15.8879 4.088Z"/>
</svg>
