<?xml version="1.0" standalone="no"?>
<!DOCTYPE svg PUBLIC "-//W3C//DTD SVG 1.1//EN" "http://www.w3.org/Graphics/SVG/1.1/DTD/svg11.dtd" >
<svg xmlns="http://www.w3.org/2000/svg" id="camera_14">
<path unicode="&#xe929;" transform="scale(1,-1)" id="camera_14" data-tags="camera_14" d="M951.107 301.896l-145.785 146.065 145.785 146.065v-292.13zM913.703 648.581l-109.132-107.869v-185.502l108.913-107.65c12.449-12.416 28.903-18.988 45.72-18.988 8.372 0 16.818 1.607 24.826 4.966 24.243 10.078 39.969 33.595 39.969 59.96v308.927c0 26.365-15.725 49.881-39.969 60.033-24.389 10.078-52.054 4.528-70.328-13.876zM182.645 813.714h512.424c60.476 0 109.502-49.127 109.502-109.502v-512.424c0-60.476-49.127-109.502-109.502-109.502h-512.424c-60.476 0-109.502 49.127-109.502 109.502v512.424c0 60.476 49.127 109.502 109.502 109.502zM146.286 191.788c0-20.025 16.324-36.359 36.359-36.359h512.424c20.025 0 36.359 16.324 36.359 36.359v512.424c0 20.025-16.324 36.359-36.359 36.359h-512.424c-20.025 0-36.359-16.324-36.359-36.359v-512.424z" />
</svg>
