<?xml version="1.0" standalone="no"?>
<!DOCTYPE svg PUBLIC "-//W3C//DTD SVG 1.1//EN" "http://www.w3.org/Graphics/SVG/1.1/DTD/svg11.dtd" >
<svg xmlns="http://www.w3.org/2000/svg" id="cancel_20">
<path unicode="&#xea3a;" transform="scale(1,-1)" id="cancel_20" data-tags="cancel_20" d="M548.211 447.987l365.875 365.875c10.035 10.035 10.035 26.214 0 36.25-9.984 9.984-26.163 9.984-36.198 0l-365.875-365.926-365.926 365.926c-9.984 9.984-26.163 9.984-36.198 0-9.984-10.035-9.984-26.214 0-36.25l365.926-365.875-365.926-365.875c-9.984-10.035-9.984-26.214 0-36.25 5.018-4.966 11.571-7.475 18.125-7.475s13.107 2.509 18.074 7.475l365.926 365.926 365.875-365.926c5.018-4.966 11.571-7.475 18.125-7.475s13.107 2.509 18.074 7.475c10.035 10.035 10.035 26.214 0 36.25l-365.875 365.875z" />
</svg>
