<svg width="6" height="6" viewBox="0 0 6 6" xmlns="http://www.w3.org/2000/svg"><title>common-actions/cancel_6_w</title><path id="cancel_6_w" d="M3.70709554 3L5.85300612.854178818C5.95100204.756186984 6 .62819765 6 .500208316c0-.127989334-.04899796-.255978668-.14699388-.353970502-.19499187-.1949837518-.5109787-.1949837518-.70697054 0L3.00012499 2.29305891.853214449.146237814c-.194991875-.1949837518-.510978709-.1949837518-.706970542 0-.1949918758.195983668-.1949918758.511957336 0 .707941004L2.29315445 3 .146243907 5.14582118c-.1949918758.19598367-.1949918758.51195734 0 .70794101.195991833.19498375.511978667.19498375.706970542 0l2.146910541-2.1468211 2.14591059 2.1468211c.09799592.09699191.22599059.14598783.35398525.14598783.12799467 0 .25598934-.04899592.35298529-.14598783.19599184-.19598367.19599184-.51195734 0-.70794101L3.70709554 3z" fill="#FFF" fill-rule="evenodd"/></svg>