<svg width="222" height="125" viewBox="0 0 222 125" fill="none" xmlns="http://www.w3.org/2000/svg">
<title>svg/captions</title>
<path d="M15.5077 55.6298L29.8406 48.8792C30.9346 48.364 32.2029 48.3712 33.2909 48.899L46 55.0645" stroke="#71DAF2" stroke-linecap="round" stroke-linejoin="round"/>
<path fill-rule="evenodd" clip-rule="evenodd" d="M15.5077 56.0642L17.1139 56.9551C18.1425 57.5256 18.4887 58.8379 17.8755 59.8415C17.1074 61.0986 17.864 62.7307 19.3044 63.0396C20.0357 63.1965 20.7 63.3645 21.0275 63.5125C22.0823 63.9891 20.593 65.6421 21.2432 66.1489C23.2468 67.711 26.3643 67.2804 26.574 68.4052C26.8413 69.8387 26.1185 71.4718 27.4669 72.027C27.9414 72.2224 28.5159 72.4013 29.2074 72.5361C30.737 72.8341 30.7539 74.3628 32.145 74.3628C33.6646 74.3628 32.992 72.9893 35.3742 72.5361C38.0119 72.0342 37.3354 66.7611 39.6554 65.4093C39.9499 65.2377 40.2957 65.0685 40.6996 64.9034C41.9816 64.3796 42.5191 63.354 42.6994 62.3026C43.0738 60.1198 42.4069 57.87 42.4069 55.6554" fill="#E5F7FC"/>
<path d="M178 55L192.366 46.041C193.697 45.2111 195.39 45.2355 196.697 46.1035L211.033 55.6298" stroke="#71DAF2" stroke-linecap="round" stroke-linejoin="round"/>
<path fill-rule="evenodd" clip-rule="evenodd" d="M38 55.0645L54.2503 46.0221C54.7479 45.7452 55.3398 45.6935 55.8778 45.88L64.8599 48.9932C67.2756 49.8305 69.946 49.4627 72.0455 48.0036L109.791 21.7705C110.414 21.3378 111.227 21.2943 111.892 21.6582L136.362 35.0435C137.857 35.8609 139.573 36.1801 141.261 35.9545L151.885 34.5353C152.791 34.4142 153.711 34.6071 154.492 35.0819L187.368 55.0645" fill="white"/>
<path d="M38 55.0645L54.2503 46.0221C54.7479 45.7452 55.3398 45.6935 55.8778 45.88L64.8599 48.9932C67.2756 49.8305 69.946 49.4627 72.0455 48.0036L109.791 21.7705C110.414 21.3378 111.227 21.2943 111.892 21.6582L136.362 35.0435C137.857 35.8609 139.573 36.1801 141.261 35.9545L151.885 34.5353C152.791 34.4142 153.711 34.6071 154.492 35.0819L187.368 55.0645" stroke="#00B3E6" stroke-linecap="round" stroke-linejoin="round"/>
<path fill-rule="evenodd" clip-rule="evenodd" d="M38 56.0642C38.8926 56.3445 39.0092 57.56 38.1863 58.0049L37.6079 58.3176C36.926 58.6863 36.6999 59.5561 37.1159 60.2102L38.3887 62.2114C38.7568 62.7902 39.3615 63.1772 40.0412 63.2691L41.7898 63.5055C43.5817 63.7478 43.951 66.1779 42.3118 66.9415C40.6441 67.7184 41.0634 70.1989 42.8938 70.3845L48.1943 70.9221C49.3595 71.0402 49.6495 72.6063 48.6037 73.1338C47.5487 73.6659 47.8556 75.2482 49.0331 75.3473L52.0161 75.5983C52.4012 75.6307 52.7688 75.773 53.0754 76.0083L56.6753 78.7708C56.7971 78.8642 56.9667 78.8635 57.0876 78.769L60.5334 76.0754C60.89 75.7966 61.3208 75.629 61.7721 75.5935L65.6849 75.2854C66.7767 75.1995 67.0963 73.7513 66.1422 73.2137C65.1731 72.6677 65.5216 71.194 66.6327 71.1399L70.4923 70.9519C72.7393 70.8424 73.4199 67.8466 71.442 66.7746C69.4905 65.7169 67.8928 64.851 67.8928 64.851C67.8928 64.851 69.4989 66.6908 69.9402 67.1963C70.0125 67.2791 70.0512 67.384 70.0512 67.4939V68.5653C70.0512 71.1107 72.1146 73.1741 74.66 73.1741H77.0741C81.1504 73.1741 82.5801 78.5819 79.0363 80.5965C75.4926 82.611 76.9223 88.0188 80.9986 88.0188H84.2743C88.2707 88.0188 90.0869 93.0101 87.0249 95.5784C84.014 98.1039 85.7129 103.012 89.6408 103.136L96.5322 103.353C99.1055 103.434 100.194 106.669 98.1926 108.289L96.5927 109.584C95.0915 110.799 95.9507 113.226 97.8822 113.226H104.59C105.933 113.226 106.189 115.136 104.893 115.489C103.617 115.837 103.829 117.896 105.143 118.042C108.721 118.44 112.04 119.105 111.218 120.178C110.463 121.164 112.672 121.92 113.61 122.188C113.87 122.263 114.106 122.402 114.288 122.602C114.811 123.179 115.715 123.186 116.247 122.616L116.304 122.555C116.463 122.384 116.661 122.257 116.879 122.172C117.676 121.862 119.587 121.011 119.021 120.178C118.328 119.156 120.999 118.614 124.032 118.326C125.481 118.188 125.837 115.975 124.47 115.475C123.133 114.985 123.44 113.011 124.863 112.951L130.2 112.726C132.586 112.626 133.338 109.457 131.252 108.295L130.786 108.036C128.552 106.793 129.381 103.397 131.937 103.322L143.857 102.976C146.14 102.91 147.109 100.039 145.333 98.6029C143.276 96.9385 144.936 93.6439 147.498 94.3075L148.906 94.6723C148.969 94.6885 149.03 94.7093 149.089 94.7347L149.538 94.9268C150.476 95.3281 150.411 96.6789 149.439 96.988C148.392 97.3208 148.412 98.8528 149.457 99.19C151.468 99.839 153.703 100.659 154.359 101.28C156.119 102.944 158.898 103.554 160.503 101.739C160.707 101.508 160.878 101.345 161 101.28C161.494 101.014 164.913 99.967 167.643 99.1504C168.588 98.8679 168.552 97.5085 167.592 97.2799C166.558 97.0334 166.631 95.5377 167.684 95.393L174.876 94.405C176.94 94.1213 177.614 91.4719 175.936 90.2364L173.8 88.6639C171.465 86.9443 172.219 83.278 175.043 82.619L183.62 80.6177C186.093 80.0409 187.094 77.0644 185.474 75.1102C183.7 72.9712 185.086 69.7221 187.857 69.5221L195.077 69.0013C197.272 68.843 198.863 66.8421 198.523 64.6673C198.176 62.4466 199.841 60.4189 202.087 60.3266L205.587 60.1828C208.216 60.0748 210.447 58.2201 211.033 55.6554" fill="#E5F7FC"/>
<path fill-rule="evenodd" clip-rule="evenodd" d="M58.5724 13.6083C58.7358 13.6083 58.8973 13.6174 59.0566 13.6338C59.314 9.92932 62.4718 7 66.3397 7C69.6258 7 72.4043 9.11264 73.3241 12.0198C73.4178 12.015 73.5102 12.0059 73.6054 12.0059C76.5846 12.0059 79 14.3589 79 17.2616C79 20.0011 76.8476 22.2487 74.1008 22.4927V22.4936H74.0809C73.9241 22.5072 73.7657 22.5172 73.6054 22.5172C73.4445 22.5172 73.2865 22.5072 73.1293 22.4936H59.0423C58.888 22.5091 58.7311 22.5172 58.5724 22.5172C56.0472 22.5172 54 20.5228 54 18.0628C54 15.6027 56.0472 13.6083 58.5724 13.6083Z" fill="#BCECF8"/>
<path fill-rule="evenodd" clip-rule="evenodd" d="M159.074 5.22933C158.969 5.22933 158.866 5.23515 158.764 5.24563C158.599 2.87476 156.578 1 154.103 1C152 1 150.221 2.35209 149.633 4.21269C149.573 4.20959 149.513 4.20377 149.453 4.20377C147.546 4.20377 146 5.70971 146 7.5674C146 9.32071 147.378 10.7591 149.135 10.9153V10.9159H149.148C149.249 10.9246 149.35 10.931 149.453 10.931C149.555 10.931 149.657 10.9246 149.757 10.9159H158.773C158.872 10.9258 158.972 10.931 159.074 10.931C160.69 10.931 162 9.65461 162 8.08018C162 6.50575 160.69 5.22933 159.074 5.22933Z" fill="#BCECF8"/>
<path fill-rule="evenodd" clip-rule="evenodd" d="M136.5 53.1C139.814 53.1 142.5 50.0555 142.5 46.3C142.5 42.5445 139.814 39.5 136.5 39.5C133.186 39.5 130.5 42.5445 130.5 46.3C130.5 50.0555 133.186 53.1 136.5 53.1Z" fill="#FFD492"/>
<path d="M136.5 47.5V55.5" stroke="#FFA900"/>
<path fill-rule="evenodd" clip-rule="evenodd" d="M149 37L156 51H142L149 37Z" fill="#C8FACB"/>
<path d="M149 47.5V55.5" stroke="#89F495"/>
<path fill-rule="evenodd" clip-rule="evenodd" d="M71 32L78 50H64L71 32Z" fill="#FFD492"/>
<path fill-rule="evenodd" clip-rule="evenodd" d="M24 40L29 51.4286H19L24 40Z" fill="#89F495"/>
<path d="M24 47V55" stroke="#00E900"/>
<path fill-rule="evenodd" clip-rule="evenodd" d="M182 30L189 52H175L182 30Z" fill="#89F495"/>
<path fill-rule="evenodd" clip-rule="evenodd" d="M84 52.3333C86.7614 52.3333 89 49.7963 89 46.6667C89 43.5371 86.7614 41 84 41C81.2386 41 79 43.5371 79 46.6667C79 49.7963 81.2386 52.3333 84 52.3333Z" fill="#C8FACB"/>
<path d="M71 45.5V55.5" stroke="#FFA900"/>
<path d="M84 47V55" stroke="#89F495"/>
<path d="M182 45.5V55.5" stroke="#00E900"/>
<path d="M136.5 63.5V55.5" stroke="#B2E8F7"/>
<path d="M149 63.5V55.5" stroke="#B2E8F7"/>
<path fill-rule="evenodd" clip-rule="evenodd" d="M23.9161 73.2656C23.9161 73.2656 24.0401 72.4724 24.5287 72.1323C24.7912 71.9495 25.5187 71.5355 26.1358 71.1915C26.6856 70.8849 26.9089 70.2059 26.642 69.6357C26.4234 69.1685 26.5306 68.6136 26.9076 68.2615L28.1338 67.116C28.5741 66.7047 28.5112 65.9893 28.0059 65.6611C27.3766 65.2523 27.4684 64.3042 28.1646 64.0238L29.04 63.6712C29.8004 63.3649 29.9427 62.3495 29.2957 61.846C28.7273 61.4037 28.754 60.536 29.3486 60.1295L31 59.0002H17L18.5765 60.0157C19.1859 60.4083 19.2569 61.2722 18.7197 61.759C18.106 62.315 18.3017 63.3237 19.0786 63.61L19.6694 63.8277C20.4174 64.1033 20.5696 65.0944 19.9387 65.5817C19.4457 65.9625 19.4094 66.6936 19.8622 67.1214L21.0336 68.228C21.4196 68.5927 21.5007 69.1765 21.2287 69.6327C20.898 70.1874 21.0967 70.9058 21.6618 71.2186C22.2726 71.5566 22.9732 71.9534 23.2268 72.1323C23.7119 72.4743 23.9161 73.2656 23.9161 73.2656Z" fill="#B2E8F7"/>
<path fill-rule="evenodd" clip-rule="evenodd" d="M148.892 77C148.892 77 149.052 75.9991 149.68 75.5699C150.019 75.3379 150.965 74.8103 151.761 74.3745C152.457 73.994 152.739 73.1368 152.398 72.4211C152.117 71.8328 152.253 71.1303 152.734 70.6898L154.311 69.2437C154.875 68.7268 154.795 67.8158 154.15 67.4046C153.349 66.894 153.465 65.6904 154.348 65.3412L155.49 64.8897C156.455 64.5085 156.633 63.2206 155.809 62.5912C155.084 62.0372 155.118 60.9342 155.876 60.4256L158 59H140L142.031 60.2836C142.807 60.7742 142.896 61.8717 142.21 62.4818C141.428 63.177 141.674 64.4555 142.658 64.8113L143.443 65.0952C144.391 65.438 144.582 66.6951 143.779 67.3041C143.149 67.7816 143.103 68.7121 143.683 69.2496L145.189 70.6466C145.682 71.1032 145.785 71.8432 145.436 72.417C145.013 73.1129 145.264 74.0211 145.98 74.4096C146.769 74.8377 147.678 75.343 148.006 75.5699C148.63 76.0015 148.892 77 148.892 77Z" fill="#B2E8F7"/>
<path fill-rule="evenodd" clip-rule="evenodd" d="M136.547 58.779C138.595 58.779 139.903 59.2283 140.673 59.6416C141.303 59.9797 141.451 60.7312 141.214 61.4058C140.921 62.2385 141.193 63.1651 141.89 63.7071L142.064 63.8426C143.018 64.585 143.073 66.0085 142.178 66.8217L141.614 67.3342C141.123 67.7799 141.09 68.54 141.54 69.0265C142.049 69.5764 141.931 70.4535 141.295 70.849L140.75 71.1874C140.227 71.5126 140.024 72.1736 140.273 72.7368C140.529 73.3147 140.305 73.989 139.722 74.2324C138.88 74.5838 137.609 75 136.311 75C134.917 75 133.755 74.4453 133.074 74.0244C132.652 73.7639 132.484 73.2597 132.586 72.7747C132.713 72.1719 132.422 71.5584 131.875 71.2749L131.832 71.2524C130.842 70.7392 131.424 69.3186 131.149 68.2378C131.141 68.2057 131.129 68.1741 131.114 68.1433C130.99 67.8951 130.695 67.5044 130.354 67.0899C129.513 66.0705 129.595 64.5505 130.615 63.7096L130.697 63.6414C131.321 63.1267 131.596 62.3007 131.405 61.5148C131.225 60.7763 131.467 59.9986 132.151 59.6675C133.019 59.2473 134.456 58.779 136.547 58.779Z" fill="#B2E8F7"/>
<path fill-rule="evenodd" clip-rule="evenodd" d="M182.904 87C182.904 87 183.046 85.4431 183.604 84.7754C183.846 84.4858 184.435 83.9003 185.024 83.3301C185.962 82.422 186.347 81.079 186.004 79.8194C185.747 78.8743 185.895 77.8647 186.413 77.0334L187.816 74.782C188.348 73.9285 188.252 72.8261 187.581 72.0771C186.673 71.0637 186.859 69.4831 187.978 68.7088L188.407 68.4125C189.669 67.5389 189.954 65.7915 189.035 64.562C188.277 63.549 188.321 62.1463 189.141 61.1831L191 59H175L176.705 60.8866C177.577 61.8511 177.695 63.2802 176.992 64.3739L176.838 64.6127C176.059 65.8255 176.43 67.4498 177.648 68.2206C178.916 69.0225 179.243 70.7449 178.34 71.9423C177.704 72.786 177.651 73.9333 178.205 74.8327L179.541 77.0001C180.062 77.8462 180.176 78.882 179.85 79.8209C179.418 81.0638 179.767 82.441 180.716 83.3529C181.301 83.9151 181.879 84.4884 182.116 84.7754C182.671 85.4467 182.904 87 182.904 87Z" fill="#B2E8F7"/>
<path d="M24 64V56" stroke="#B2E8F7"/>
<path fill-rule="evenodd" clip-rule="evenodd" d="M84 57.9886C85.6426 57.9886 86.692 58.349 87.3099 58.6806C87.8153 58.9517 87.9336 59.5546 87.7434 60.0956C87.5086 60.7636 87.7271 61.5069 88.2859 61.9416L88.4256 62.0503C89.1911 62.6458 89.2347 63.7876 88.517 64.4399L88.0646 64.851C87.6712 65.2085 87.6447 65.8182 88.0056 66.2085C88.4136 66.6495 88.3187 67.3531 87.8084 67.6703L87.3718 67.9418C86.9522 68.2027 86.7889 68.7328 86.9891 69.1846C87.1945 69.6481 87.0148 70.189 86.5469 70.3843C85.8714 70.6662 84.8517 71 83.8108 71C82.6926 71 81.7604 70.5551 81.2141 70.2175C80.8759 70.0085 80.7411 69.604 80.8231 69.215C80.925 68.7315 80.6918 68.2393 80.2531 68.012L80.2182 67.9939C79.4239 67.5823 79.8912 66.4428 79.6705 65.5758C79.6639 65.55 79.6546 65.5247 79.6423 65.5C79.5431 65.3009 79.3065 64.9875 79.0323 64.6551C78.358 63.8374 78.424 62.6182 79.2416 61.9436L79.3079 61.8889C79.8084 61.4761 80.0288 60.8135 79.8755 60.1831C79.7313 59.5907 79.9254 58.9669 80.4741 58.7013C81.1706 58.3642 82.323 57.9886 84 57.9886Z" fill="#B2E8F7"/>
<path d="M71 65.5V55.5" stroke="#B2E8F7"/>
<path fill-rule="evenodd" clip-rule="evenodd" d="M70.9161 81C70.9161 81 71.0401 79.7767 71.5287 79.2521C71.7507 79.0138 72.3052 78.5205 72.8442 78.053C73.6108 77.3882 73.9258 76.3371 73.6312 75.3662C73.4064 74.6255 73.5327 73.8226 73.9741 73.1868L75.1991 71.422C75.6629 70.7539 75.5823 69.8497 75.0077 69.2741C74.2425 68.5076 74.3905 67.2281 75.3106 66.6566L75.8028 66.3508C76.8337 65.7105 77.0604 64.3066 76.2836 63.3742C75.635 62.5959 75.6717 61.4553 76.3688 60.7201L78 59H64L65.5083 60.4983C66.2441 61.2293 66.3413 62.386 65.7376 63.2294L65.6635 63.333C64.9727 64.2983 65.2698 65.6495 66.3019 66.236L66.411 66.298C67.4404 66.8829 67.6876 68.2579 66.9263 69.1647C66.3789 69.8168 66.3335 70.754 66.8153 71.456L67.9826 73.1567C68.4279 73.8055 68.5245 74.6323 68.2407 75.3664C67.871 76.3227 68.1556 77.4061 68.9325 78.075C69.467 78.5353 70.0101 79.0165 70.2268 79.2521C70.7119 79.7796 70.9161 81 70.9161 81Z" fill="#B2E8F7"/>
<path d="M84 64V56" stroke="#B2E8F7"/>
<path d="M182 65.5V55.5" stroke="#B2E8F7"/>
<path d="M221 55.6554L1 55.6295" stroke="#00B3E6" stroke-linecap="round" stroke-linejoin="round"/>
<path d="M115 87H145" stroke="#B2E8F7" stroke-linecap="round" stroke-linejoin="round"/>
<path fill-rule="evenodd" clip-rule="evenodd" d="M111.973 82.1011C111.973 82.1011 114.248 83.7728 120.225 84.5714C126.201 85.37 129.682 83.8027 129.682 83.8027L127.884 86.4863H114.573L111.973 82.1011Z" fill="#00B3E6"/>
<path d="M148 87H153" stroke="#B2E8F7" stroke-linecap="round" stroke-linejoin="round"/>
<path d="M156 87H158" stroke="#B2E8F7" stroke-linecap="round" stroke-linejoin="round"/>
</svg>
