<svg width="192" height="192" viewBox="0 0 192 192" fill="none" xmlns="http://www.w3.org/2000/svg">
<rect width="192" height="192" fill="#E5E5E5"/>
<g id="Assets">
<rect width="943" height="462" transform="translate(-607 -186)" fill="white"/>
<rect id="Rectangle 16092" x="-144" y="-79" width="480" height="355" fill="#121212"/>
<g id="cat-content-192-dark 1">
<path id="Vector" d="M170.666 89.5993C178.766 99.5993 183.966 112.499 183.966 126.399C183.966 158.399 157.966 184.399 125.966 184.399C93.9657 184.399 67.9657 158.399 67.9657 126.399C67.9657 112.499 73.0657 99.5993 81.2657 89.5993H170.666ZM117.866 76.3994C117.866 61.3994 131.866 59.3994 131.866 45.3994C131.866 39.3994 127.866 33.3994 123.866 27.3994L111.866 9.19935C110.966 7.89935 109.066 7.99935 108.366 9.39935L103.866 18.2994H94.8657L85.3657 8.79935C84.2657 7.69935 82.3657 8.19935 82.0657 9.69935L69.8657 55.3994C62.3657 79.2994 56.2657 89.9994 45.8657 101.399C32.7657 115.699 18.8657 128.399 17.8657 144.399C16.4657 167.399 31.8657 184.399 55.8657 184.399C65.8657 184.399 73.8657 179.399 73.8657 172.399C73.8657 165.399 67.8657 160.399 59.8657 160.399C39.8657 160.399 36.8657 184.399 3.86572 184.399L117.866 76.3994ZM123.866 150.399C123.866 150.399 126.866 152.399 131.866 152.399C131.866 148.399 127.866 146.399 127.866 146.399C127.866 146.399 131.866 144.399 131.866 140.399C121.866 140.399 121.866 151.399 111.866 151.399C106.866 151.399 103.866 148.399 103.866 146.399C103.866 144.399 106.866 141.399 111.866 141.399C115.866 141.399 117.866 143.399 117.866 143.399L123.866 150.399ZM91.8657 130.399C91.8657 130.399 88.8657 132.399 83.8657 132.399C83.8657 128.399 87.8657 126.399 87.8657 126.399C87.8657 126.399 83.8657 124.399 83.8657 120.399C93.8657 120.399 93.8657 131.399 103.866 131.399C108.866 131.399 111.866 128.399 111.866 126.399C111.866 124.399 108.866 121.399 103.866 121.399C99.8657 121.399 97.8657 123.399 97.8657 123.399L91.8657 130.399ZM147.866 118.399C147.866 118.399 144.866 120.399 139.866 120.399C139.866 116.399 143.866 114.399 143.866 114.399C143.866 114.399 139.866 112.399 139.866 108.399C149.866 108.399 149.866 119.399 159.866 119.399C164.866 119.399 167.866 116.399 167.866 114.399C167.866 112.399 164.866 109.399 159.866 109.399C155.866 109.399 153.866 111.399 153.866 111.399L147.866 118.399ZM101.866 170.399C101.866 170.399 106.866 166.399 111.866 166.399C117.866 166.399 119.866 172.399 127.866 172.399C136.866 172.399 138.866 162.399 146.866 162.399C152.866 162.399 156.866 166.399 156.866 166.399L101.866 170.399ZM170.866 90.3994C170.866 94.2653 150.719 97.3994 125.866 97.3994C101.013 97.3994 80.8657 94.2653 80.8657 90.3994C80.8657 86.5334 101.013 83.3994 125.866 83.3994C150.719 83.3994 170.866 86.5334 170.866 90.3994Z" stroke="#F7F7F7" stroke-width="2.5" stroke-miterlimit="10" stroke-linecap="round" stroke-linejoin="round"/>
<path id="Vector_2" d="M113.866 40.4004C114.971 40.4004 115.866 39.505 115.866 38.4004C115.866 37.2958 114.971 36.4004 113.866 36.4004C112.761 36.4004 111.866 37.2958 111.866 38.4004C111.866 39.505 112.761 40.4004 113.866 40.4004Z" fill="#F7F7F7"/>
<path id="Vector_3" d="M95.866 40.4004C96.9705 40.4004 97.866 39.505 97.866 38.4004C97.866 37.2958 96.9705 36.4004 95.866 36.4004C94.7614 36.4004 93.866 37.2958 93.866 38.4004C93.866 39.505 94.7614 40.4004 95.866 40.4004Z" fill="#F7F7F7"/>
</g>
</g>
</svg>
