<svg width="19" height="15" viewBox="0 0 19 15" fill="none" xmlns="http://www.w3.org/2000/svg">
<g>	
	<path fill-rule="evenodd" clip-rule="evenodd" d="M2 11H9.1C9.15 11.15 9.2 11.325 9.25 11.5C9.3 11.675 9.35 11.85 9.4 12H2C0.9 12 0 11.1 0 10V2C0 0.9 0.9 0 2 0H14C15.1 0 16 0.9 16 2V5.4C15.85 5.35 15.675 5.3 15.5 5.25C15.325 5.2 15.15 5.15 15 5.1V2C15 1.4 14.6 1 14 1H2C1.4 1 1 1.5 1 2V10C1 10.5 1.4 11 2 11ZM3 4.5C3 4.2 3.2 4 3.5 4H10.5C10.8 4 11 4.2 11 4.5C11 4.8 10.8 5 10.5 5H3.5C3.2 5 3 4.8 3 4.5ZM3.5 7C3.2 7 3 7.2 3 7.5C3 7.8 3.2 8 3.5 8H6.5C6.8 8 7 7.8 7 7.5C7 7.2 6.8 7 6.5 7H3.5Z"/>
	<path fill-rule="evenodd" clip-rule="evenodd" d="M14 15C16.8 15 19 12.8 19 10C19 7.2 16.8 5 14 5C11.2 5 9 7.2 9 10C9 12.8 11.2 15 14 15ZM18 10C18 12.2 16.2 14 14 14C11.8 14 10 12.2 10 10C10 7.8 11.8 6 14 6C16.2 6 18 7.8 18 10ZM15.9 8.9L14.7 10L15.8 11.1C16 11.3 16 11.6 15.8 11.8C15.8 12 15.6 12 15.5 12C15.4 12 15.2 12 15.1 11.9L14 10.7L12.9 11.8C12.7 12 12.4 12 12.2 11.8C12 11.6 12 11.3 12.2 11.1L13.3 10L12.2 8.9C12 8.7 12 8.4 12.2 8.2C12.4 8 12.7 8 12.9 8.2L14 9.3L15.1 8.2C15.3 8 15.6 8 15.8 8.2C16 8.2 16 8.4 16 8.5C16 8.6 16 8.8 15.9 8.9Z" fill="#A12512"/>
</g>	
</svg>
