<?xml version="1.0" encoding="UTF-8"?>
<svg width="48px" height="48px" viewBox="0 0 48 48" version="1.1" xmlns="http://www.w3.org/2000/svg" xmlns:xlink="http://www.w3.org/1999/xlink">
    <!-- Generator: Sketch 59.1 (86144) - https://sketch.com -->
    <title>Channel Illustration@2x</title>
    <desc>Created with Sketch.</desc>
    <g id="channel-illustration@2x" stroke="none" stroke-width="1" fill="none" fill-rule="evenodd">
        <g id="Channel-Illustration" transform="translate(0.000000, 2.000000)" fill="#B4B6B8" fill-rule="nonzero">
            <path d="M19.6533856,40.5950175 C25.3010249,42.1082979 31.0527929,40.403895 34.9622822,36.6055677 C35.4373712,37.3018942 36.0703057,37.8825925 36.8087871,38.2977228 C32.2869161,42.7588092 25.5855159,44.7727175 19.006338,43.0098321 C15.6760953,42.1174962 12.8025726,40.3714672 10.5581317,38.0702843 C11.2597536,37.6016426 11.8463409,36.9751427 12.2687626,36.2420938 C14.2202834,38.2719322 16.7339247,39.8127503 19.6533856,40.5950175 Z M28.8772086,7.33887508 L28.5857984,7.25879918 C38.0133999,9.78491738 43.7808361,19.1525539 41.9777434,28.5887603 C41.2333834,28.2120882 40.3914596,28 39.5,28 L39.5441457,28.0014603 C40.9778345,20.1757566 36.4056222,12.4311326 28.8099361,9.93330396 C28.9343566,9.47657053 29,8.99595118 29,8.5 C29,8.10164827 28.9576507,7.71318776 28.8772086,7.33887508 Z M18.085426,7.52908893 C18.0292915,7.84425219 18,8.1687054 18,8.5 C18,9.06408799 18.0849194,9.60834199 18.2426715,10.1206754 C13.5440087,11.8631823 9.73153645,15.7810552 8.33536631,20.9916331 C7.69885266,23.3671343 7.63161116,25.761058 8.05001641,28.0285608 C7.86998386,28.00924 7.68607098,28 7.5,28 C6.81991953,28 6.16866854,28.1234337 5.56742796,28.3491201 C5.10962013,25.7676586 5.19675799,23.0458205 5.92055174,20.3445854 C7.59590521,14.0920812 12.2805072,9.4495042 17.9985889,7.55756509 Z" id="Combined-Shape"></path>
            <path d="M7.95782065,25.7529412 C12.0999563,25.7529412 15.4578207,29.1108056 15.4578207,33.2529412 C15.4578207,37.3950768 12.0999563,40.7529412 7.95782065,40.7529412 C3.81568503,40.7529412 0.45782065,37.3950768 0.45782065,33.2529412 C0.45782065,29.1108056 3.81568503,25.7529412 7.95782065,25.7529412 Z M7.95782065,28.2529412 C5.1963969,28.2529412 2.95782065,30.4915175 2.95782065,33.2529412 C2.95782065,36.0143649 5.1963969,38.2529412 7.95782065,38.2529412 C10.7192444,38.2529412 12.9578207,36.0143649 12.9578207,33.2529412 C12.9578207,30.4915175 10.7192444,28.2529412 7.95782065,28.2529412 Z" id="Oval"></path>
            <path d="M23.7960681,0.55 C27.9382037,0.55 31.2960681,3.90786438 31.2960681,8.05 C31.2960681,12.1921356 27.9382037,15.55 23.7960681,15.55 C19.6539325,15.55 16.2960681,12.1921356 16.2960681,8.05 C16.2960681,3.90786438 19.6539325,0.55 23.7960681,0.55 Z M23.7960681,3.05 C21.0346444,3.05 18.7960681,5.28857625 18.7960681,8.05 C18.7960681,10.8114237 21.0346444,13.05 23.7960681,13.05 C26.5574918,13.05 28.7960681,10.8114237 28.7960681,8.05 C28.7960681,5.28857625 26.5574918,3.05 23.7960681,3.05 Z" id="Oval-Copy"></path>
            <path d="M39.6343156,25.7529412 C43.7764512,25.7529412 47.1343156,29.1108056 47.1343156,33.2529412 C47.1343156,37.3950768 43.7764512,40.7529412 39.6343156,40.7529412 C35.49218,40.7529412 32.1343156,37.3950768 32.1343156,33.2529412 C32.1343156,29.1108056 35.49218,25.7529412 39.6343156,25.7529412 Z M39.6343156,28.2529412 C36.8728919,28.2529412 34.6343156,30.4915175 34.6343156,33.2529412 C34.6343156,36.0143649 36.8728919,38.2529412 39.6343156,38.2529412 C42.3957393,38.2529412 44.6343156,36.0143649 44.6343156,33.2529412 C44.6343156,30.4915175 42.3957393,28.2529412 39.6343156,28.2529412 Z" id="Oval-Copy-4"></path>
        </g>
    </g>
</svg>