<?xml version="1.0" standalone="no"?>
<!DOCTYPE svg PUBLIC "-//W3C//DTD SVG 1.1//EN" "http://www.w3.org/Graphics/SVG/1.1/DTD/svg11.dtd" >
<svg xmlns="http://www.w3.org/2000/svg" id="chat_24">
<path unicode="&#xe933;" transform="scale(1,-1)" id="chat_24" data-tags="chat_24" d="M512 21.333c-74.368 0-147.968 19.797-212.864 57.259-3.285 1.92-6.955 2.859-10.667 2.859-1.835 0-3.712-0.256-5.504-0.683l-188.8-50.603 50.603 188.8c1.451 5.461 0.64 11.264-2.176 16.171-37.461 64.896-57.259 138.496-57.259 212.864 0 235.264 191.403 426.667 426.667 426.667s426.667-191.403 426.667-426.667c0-235.264-191.403-426.667-426.667-426.667zM512 917.333c-258.773 0-469.333-210.56-469.333-469.333 0-78.891 20.267-156.971 58.581-226.475l-57.856-216.021c-1.963-7.339 0.171-15.232 5.504-20.608 4.053-4.011 9.515-6.229 15.104-6.229 1.835 0 3.712 0.256 5.504 0.725l216.021 57.856c69.504-38.315 147.584-58.581 226.475-58.581 258.773 0 469.333 210.56 469.333 469.333s-210.56 469.333-469.333 469.333z" />
</svg>
