<?xml version="1.0" standalone="no"?>
<!DOCTYPE svg PUBLIC "-//W3C//DTD SVG 1.1//EN" "http://www.w3.org/Graphics/SVG/1.1/DTD/svg11.dtd" >
<svg xmlns="http://www.w3.org/2000/svg" id="chat_28">
<path unicode="&#xe934;" transform="scale(1,-1)" id="chat_28" data-tags="chat_28" d="M283.904 70.517c3.182 0 6.327-0.841 9.143-2.45 66.706-38.546 142.446-58.917 218.953-58.917 241.993 0 438.857 196.864 438.857 438.857 0 241.957-196.864 438.857-438.857 438.857s-438.857-196.901-438.857-438.857c0-76.544 20.37-152.247 58.917-218.953 2.45-4.206 3.109-9.216 1.829-13.897l-53.175-198.437 198.473 53.175c1.536 0.402 3.145 0.622 4.718 0.622zM54.857-27.421c-4.791 0-9.435 1.865-12.91 5.339-4.645 4.608-6.437 11.374-4.754 17.664l59.429 221.806c-39.314 70.656-60.050 150.199-60.050 230.619 0 262.144 213.285 475.429 475.429 475.429s475.429-213.285 475.429-475.429c0-262.144-213.285-475.429-475.429-475.429-80.384 0-159.963 20.736-230.583 60.050l-221.842-59.429c-1.536-0.439-3.145-0.622-4.718-0.622z" />
</svg>
