<svg width="16" height="16" viewBox="0 0 16 16" fill="none" xmlns="http://www.w3.org/2000/svg">
<g id="chat_group_16">
<g id="chat_group_16_2">
<path id="fill" fill-rule="evenodd" clip-rule="evenodd" d="M14.346 13.124L14.793 14.793L13.124 14.346C12.997 14.311 12.859 14.329 12.744 14.396C12.061 14.791 11.285 15 10.5 15C9.436 15 8.432 14.631 7.634 13.968C10.989 13.665 13.665 10.988 13.968 7.634C14.631 8.433 15 9.436 15 10.5C15 11.285 14.791 12.061 14.396 12.744C14.329 12.859 14.312 12.996 14.346 13.124ZM3.757 12.127C3.714 12.127 3.67 12.133 3.628 12.145L1.207 12.793L1.856 10.373C1.89 10.245 1.872 10.108 1.806 9.993C1.279 9.081 1 8.046 1 7C1 3.691 3.692 1 7 1C10.309 1 13 3.691 13 7C13 10.309 10.309 13 7 13C5.954 13 4.919 12.722 4.007 12.194C3.93 12.15 3.844 12.127 3.757 12.127ZM15.364 13.06C15.781 12.271 16 11.39 16 10.5C16 8.827 15.254 7.277 13.955 6.226C13.569 2.729 10.598 0 7 0C3.14 0 0 3.14 0 7C0 8.151 0.289 9.291 0.837 10.31L0.017 13.371C-0.029 13.543 0.02 13.727 0.147 13.853C0.242 13.949 0.369 14 0.5 14C0.543 14 0.587 13.995 0.63 13.983L3.691 13.163C4.479 13.587 5.341 13.852 6.224 13.952C7.274 15.252 8.825 16 10.5 16C11.39 16 12.271 15.781 13.06 15.364L15.371 15.983C15.414 15.995 15.457 16 15.5 16C15.631 16 15.759 15.949 15.854 15.853C15.98 15.727 16.03 15.543 15.983 15.371L15.364 13.06Z"/>
</g>
</g>
</svg>
