<?xml version="1.0" standalone="no"?>
<!DOCTYPE svg PUBLIC "-//W3C//DTD SVG 1.1//EN" "http://www.w3.org/Graphics/SVG/1.1/DTD/svg11.dtd" >
<svg xmlns="http://www.w3.org/2000/svg" id="check-circle-active_24">
<path unicode="&#xe936;" transform="scale(1,-1)" id="check-circle-active_24" data-tags="check-circle-active_24" d="M761.755 582.237l-298.66-298.66c-4.181-4.181-9.642-6.229-15.104-6.229-5.419 0-10.88 2.048-15.061 6.229l-127.997 127.997c-8.32 8.32-8.32 21.845 0 30.165s21.845 8.32 30.165 0l112.894-112.894 283.599 283.557c8.32 8.32 21.845 8.32 30.165 0s8.32-21.845 0-30.165zM511.989 960c-282.746 0-511.989-229.243-511.989-511.989 0-282.789 229.243-511.989 511.989-511.989 282.789 0 511.989 229.201 511.989 511.989 0 282.746-229.201 511.989-511.989 511.989z" />
</svg>
