<?xml version="1.0" standalone="no"?>
<!DOCTYPE svg PUBLIC "-//W3C//DTD SVG 1.1//EN" "http://www.w3.org/Graphics/SVG/1.1/DTD/svg11.dtd" >
<svg xmlns="http://www.w3.org/2000/svg" id="check_circle_36">
<path unicode="&#xec19;" id="check_circle_36" data-tags="check_circle_36." d="M18.0002 0c9.941 0 18 8.059 18 18 0 9.941-8.059 18-18 18-9.941 0-18-8.059-18-18 0-9.941 8.059-18 18-18zm0 35c9.374 0 17-7.626 17-17 0-9.374-7.626-17-17-17-9.374 0-17 7.626-17 17 0 9.374 7.626 17 17 17zm8.1465-22.8555c.195-.195.512-.195.707 0 .195.195.195.512 0 .707l-11.503 11.502c-.094.094-.221.146-.353.146-.133 0-.26-.052-.354-.146l-5.49-5.5c-.195-.195-.195-.513 0-.707.195-.195.512-.195.707 0l5.137 5.146 11.149-11.148z" />
</svg>
