<?xml version="1.0" encoding="UTF-8" standalone="no"?>
<svg width="12" height="12" viewBox="0 0 12 12" fill="none" xmlns="http://www.w3.org/2000/svg">
	<path fill-rule="evenodd" clip-rule="evenodd" d="M6 11C3.243 11 1 8.757 1 6C1 3.243 3.243 1 6 1C8.757 1 11 3.243 11 6C11 8.757 8.757 11 6 11ZM6 0C2.687 0 0 2.687 0 6C0 9.313 2.687 12 6 12C9.313 12 12 9.313 12 6C12 2.687 9.313 0 6 0ZM8.1465 3.98L5.1665 6.959L3.8535 5.647C3.6585 5.451 3.3415 5.451 3.1465 5.647C2.9515 5.842 2.9515 6.158 3.1465 6.354L4.8135 8.02C4.9105 8.118 5.0385 8.167 5.1665 8.167C5.2945 8.167 5.4225 8.118 5.5205 8.02L8.8535 4.687C9.0485 4.492 9.0485 4.175 8.8535 3.98C8.6585 3.785 8.3415 3.785 8.1465 3.98Z"/>
</svg>