<?xml version="1.0" encoding="UTF-8"?>
<svg width="114px" height="28px" viewBox="0 0 114 28" version="1.1" xmlns="http://www.w3.org/2000/svg" xmlns:xlink="http://www.w3.org/1999/xlink">
    <!-- Generator: Sketch 49.3 (51167) - http://www.bohemiancoding.com/sketch -->
    <title>info@1x</title>
    <desc>Created with Sketch.</desc>
    <g id="cisco_webex" stroke="none" stroke-width="1" fill="none" fill-rule="evenodd">
        <g id="Sign-In-4.2" transform="translate(-663.000000, -740.000000)">
            <g id="App" transform="translate(120.000000, 116.000000)">
                <g id="content">
                    <g id="footer" transform="translate(0.000000, 602.000000)">
                        <g id="info" transform="translate(543.000000, 22.000000)">
                            <g id="logo_cisco_webex">
                                <g>
                                    <rect id="size" x="0" y="0" width="114" height="28"></rect>
                                    <g id="cisco_webex" fill="#999999">
                                        <polygon id="shape" points="15.0242105 27.8356842 17.3544737 27.8356842 17.3544737 18.6052632 15.0242105 18.6052632"></polygon>
                                        <path d="M36.1363947,21.2494211 C36.0406053,21.2011579 35.2897632,20.7572105 34.1767632,20.7572105 C32.6702895,20.7572105 31.6254474,21.8057368 31.6254474,23.2186316 C31.6254474,24.5902632 32.6257105,25.6837368 34.1767632,25.6837368 C35.2720789,25.6837368 36.0336053,25.2482632 36.1363947,25.1926316 L36.1363947,27.6706316 C35.8435,27.7531579 35.0480789,27.9996316 34.0135526,27.9996316 C31.3940789,27.9996316 29.0932895,26.1936316 29.0932895,23.2186316 C29.0932895,20.4621053 31.1745,18.4409474 34.0135526,18.4409474 C35.1055526,18.4409474 35.9153421,18.7069474 36.1363947,18.7714211 L36.1363947,21.2494211 Z" id="shape"></path>
                                        <path d="M11.8224105,21.2494211 C11.7292,21.2011579 10.9794632,20.7572105 9.86498947,20.7572105 C8.35630526,20.7572105 7.31256842,21.8057368 7.31256842,23.2186316 C7.31256842,24.5902632 8.31393684,25.6837368 9.86498947,25.6837368 C10.9606737,25.6837368 11.7222,25.2482632 11.8224105,25.1926316 L11.8224105,27.6706316 C11.5332,27.7531579 10.7385158,27.9996316 9.69846316,27.9996316 C7.08009474,27.9996316 4.78298947,26.1936316 4.78298947,23.2186316 C4.78298947,20.4621053 6.8642,18.4409474 9.69846316,18.4409474 C10.7941474,18.4409474 11.6028316,18.7069474 11.8224105,18.7714211 L11.8224105,21.2494211 Z" id="shape"></path>
                                        <path d="M48.3421474,23.2188895 C48.3421474,25.8597316 46.3036737,28.0002579 43.4642526,28.0002579 C40.6252,28.0002579 38.5885684,25.8597316 38.5885684,23.2188895 C38.5885684,20.5828368 40.6252,18.4412053 43.4642526,18.4412053 C46.3036737,18.4412053 48.3421474,20.5828368 48.3421474,23.2188895 M43.4642526,20.7917316 C42.0819368,20.7917316 41.0562526,21.8789421 41.0562526,23.2188895 C41.0562526,24.5621526 42.0819368,25.6486263 43.4642526,25.6486263 C44.8443579,25.6486263 45.8737263,24.5621526 45.8737263,23.2188895 C45.8737263,21.8789421 44.8443579,20.7917316 43.4642526,20.7917316" id="shape"></path>
                                        <path d="M26.1879579,20.7029053 C26.1536947,20.6922211 25.1725895,20.4203263 24.3675895,20.4203263 C23.4336421,20.4203263 22.9259579,20.7334842 22.9259579,21.1774316 C22.9259579,21.7392737 23.6108526,21.9352737 23.9932737,22.0568526 L24.6365368,22.2609579 C26.1478,22.7413789 26.8371158,23.7770105 26.8371158,24.9018 C26.8371158,27.2202737 24.7986421,27.9998526 23.0158526,27.9998526 C21.7761158,27.9998526 20.6155895,27.7718 20.5010105,27.7471158 L20.5010105,25.6231684 C20.7065895,25.6751158 21.6829053,25.9669053 22.7015895,25.9669053 C23.8599053,25.9669053 24.3933789,25.6279579 24.3933789,25.1048 C24.3933789,24.6365368 23.9317474,24.3668526 23.3536947,24.1852211 C23.2129579,24.1380632 23.0003789,24.0721158 22.8563263,24.0249579 C21.5591158,23.6138 20.4774316,22.8526421 20.4774316,21.3236947 C20.4774316,19.5976421 21.7702211,18.4385895 23.9177474,18.4385895 C25.0510105,18.4385895 26.1183263,18.7138 26.1879579,18.7322211 L26.1879579,20.7029053 Z" id="shape"></path>
                                        <path d="M2.31272632,8.68390526 C2.31272632,8.04764211 1.79325263,7.53185263 1.15551579,7.53185263 C0.519252632,7.53185263 0.000147368421,8.04764211 0.000147368421,8.68390526 L0.000147368421,11.1077474 C0.000147368421,11.7473263 0.519252632,12.2631158 1.15551579,12.2631158 C1.79325263,12.2631158 2.31272632,11.7473263 2.31272632,11.1077474 L2.31272632,8.68390526 Z" id="shape"></path>
                                        <path d="M8.66493158,5.50354737 C8.66493158,4.86728421 8.14545789,4.35002105 7.50808947,4.35002105 C6.87182632,4.35002105 6.35235263,4.86728421 6.35235263,5.50354737 L6.35235263,11.1076 C6.35235263,11.7475474 6.87182632,12.2633368 7.50808947,12.2633368 C8.14545789,12.2633368 8.66493158,11.7475474 8.66493158,11.1076 L8.66493158,5.50354737 Z" id="shape"></path>
                                        <path d="M15.0171368,1.15212632 C15.0171368,0.515863158 14.4976632,7.36842105e-05 13.8602947,7.36842105e-05 C13.2240316,7.36842105e-05 12.7045579,0.515863158 12.7045579,1.15212632 L12.7045579,13.4098632 C12.7045579,14.0494421 13.2240316,14.5656 13.8602947,14.5656 C14.4976632,14.5656 15.0171368,14.0494421 15.0171368,13.4098632 L15.0171368,1.15212632 Z" id="shape"></path>
                                        <path d="M21.3693421,5.50354737 C21.3693421,4.86728421 20.8498684,4.35002105 20.2125,4.35002105 C19.5762368,4.35002105 19.0567632,4.86728421 19.0567632,5.50354737 L19.0567632,11.1076 C19.0567632,11.7475474 19.5762368,12.2633368 20.2125,12.2633368 C20.8498684,12.2633368 21.3693421,11.7475474 21.3693421,11.1076 L21.3693421,5.50354737 Z" id="shape"></path>
                                        <path d="M27.7145474,8.68390526 C27.7145474,8.04764211 27.1987579,7.53185263 26.5647053,7.53185263 C25.9284421,7.53185263 25.4089684,8.04764211 25.4089684,8.68390526 L25.4089684,11.1077474 C25.4089684,11.7473263 25.9284421,12.2631158 26.5647053,12.2631158 C27.1987579,12.2631158 27.7145474,11.7473263 27.7145474,11.1077474 L27.7145474,8.68390526 Z" id="shape"></path>
                                        <path d="M34.0698105,5.50354737 C34.0698105,4.86728421 33.5540211,4.35002105 32.9162842,4.35002105 C32.2814947,4.35002105 31.7642316,4.86728421 31.7642316,5.50354737 L31.7642316,11.1076 C31.7642316,11.7475474 32.2814947,12.2633368 32.9162842,12.2633368 C33.5540211,12.2633368 34.0698105,11.7475474 34.0698105,11.1076 L34.0698105,5.50354737 Z" id="shape"></path>
                                        <path d="M40.4265105,1.15212632 C40.4265105,0.515863158 39.9107211,7.36842105e-05 39.2729842,7.36842105e-05 C38.6370895,7.36842105e-05 38.1209316,0.515863158 38.1209316,1.15212632 L38.1209316,13.4098632 C38.1209316,14.0494421 38.6370895,14.5656 39.2729842,14.5656 C39.9107211,14.5656 40.4265105,14.0494421 40.4265105,13.4098632 L40.4265105,1.15212632 Z" id="shape"></path>
                                        <path d="M46.7817737,5.50354737 C46.7817737,4.86728421 46.2659842,4.35002105 45.6142474,4.35002105 C44.9779842,4.35002105 44.4618263,4.86728421 44.4618263,5.50354737 L44.4618263,11.1076 C44.4618263,11.7475474 44.9779842,12.2633368 45.6142474,12.2633368 C46.2659842,12.2633368 46.7817737,11.7475474 46.7817737,11.1076 L46.7817737,5.50354737 Z" id="shape"></path>
                                        <path d="M53.1237,8.68390526 C53.1237,8.04764211 52.6068053,7.53185263 51.9705421,7.53185263 C51.3342789,7.53185263 50.8170158,8.04764211 50.8170158,8.68390526 L50.8170158,11.1077474 C50.8170158,11.7473263 51.3342789,12.2631158 51.9705421,12.2631158 C52.6068053,12.2631158 53.1237,11.7473263 53.1237,11.1077474 L53.1237,8.68390526 Z" id="shape"></path>
                                        <polygon id="shape" points="77.4772895 7.81715789 74.2443947 19.754 72.6690263 19.754 69.7345526 9.16042105 66.7507105 19.754 65.0928158 19.754 61.8761316 7.81715789 63.2028158 7.81715789 65.9877105 18.2950526 68.9387632 7.81715789 70.6136053 7.81715789 73.4648158 18.2622632 76.2670263 7.81715789"></polygon>
                                        <path d="M81.7346158,11.8791474 C81.0161947,11.8791474 80.4024053,12.1171474 79.8943526,12.5920421 C79.3855632,13.0676737 79.0819842,13.7802 78.9825105,14.7307263 L84.4204053,14.7307263 C84.3651421,13.7802 84.0888263,13.0676737 83.5914579,12.5920421 C83.0937211,12.1171474 82.4747737,11.8791474 81.7346158,11.8791474 Z M85.5643526,17.3336211 C85.3429316,18.1294105 84.9118789,18.7734105 84.2711947,19.2652526 C83.6301421,19.7567263 82.8174053,20.0028316 81.8340895,20.0028316 C81.2368789,20.0028316 80.6842474,19.9059368 80.1761947,19.7128842 C79.6677737,19.5194632 79.2311947,19.2291474 78.8664579,18.8423053 C78.5017211,18.4558316 78.2139842,17.9802 78.0043526,17.4165158 C77.7943526,16.8528316 77.6893526,16.1955684 77.6893526,15.4436211 C77.6893526,14.7030947 77.7914053,14.0484105 77.9962474,13.4792 C78.2003526,12.9099895 78.4821947,12.4317789 78.8414053,12.0449368 C79.2006158,11.6580947 79.6261421,11.3677789 80.1179842,11.1747263 C80.6094579,10.9809368 81.1433,10.8844105 81.7180368,10.8844105 C82.2927737,10.8844105 82.8203526,10.9787263 83.3011421,11.1662526 C83.7823,11.3541474 84.1989842,11.6444632 84.5526684,12.0368316 C84.9063526,12.4292 85.1830368,12.9317263 85.3816158,13.5451474 C85.5805632,14.1585684 85.6804053,14.8854632 85.6804053,15.7254632 L78.9489842,15.7254632 C78.9710895,16.2780947 79.0624579,16.7588842 79.2230895,17.1678316 C79.3829842,17.5767789 79.5929842,17.9138842 79.8530895,18.1791474 C80.1124579,18.4444105 80.4167737,18.6407789 80.7645632,18.7675158 C81.1130895,18.8949895 81.4859316,18.9583579 81.8838263,18.9583579 C82.4696158,18.9583579 82.9721421,18.8117263 83.3925105,18.5188316 C83.8125105,18.2263053 84.0939842,17.8309895 84.2380368,17.3336211 L85.5643526,17.3336211 Z" id="shape"></path>
                                        <path d="M94.0411316,15.3277158 C94.0411316,14.7529789 93.9718684,14.2497158 93.8340789,13.8186632 C93.6955526,13.3876105 93.5076579,13.0339263 93.2700263,12.7576105 C93.0323947,12.4816632 92.7476053,12.2746105 92.4163947,12.1360842 C92.0844474,11.9979263 91.7256053,11.9286632 91.3383947,11.9286632 C90.9740263,11.9286632 90.6255,11.9953474 90.2942895,12.1276105 C89.9627105,12.2606105 89.6698158,12.4676632 89.4152368,12.7495053 C89.1610263,13.0317158 88.9565526,13.3905579 88.8018158,13.8271368 C88.6470789,14.2637158 88.5697105,14.7861368 88.5697105,15.3940316 C88.5697105,16.5545579 88.8272368,17.4387684 89.3408158,18.0466632 C89.8547632,18.6545579 90.5205,18.9581368 91.3383947,18.9581368 C91.7362895,18.9581368 92.0984474,18.8866632 92.4245,18.7429789 C92.7501842,18.5992947 93.0353421,18.3778737 93.2785,18.0798211 C93.5212895,17.7810316 93.7095526,17.4030316 93.8421842,16.9439789 C93.9744474,16.4856632 94.0411316,15.9466632 94.0411316,15.3277158 Z M87.4261316,19.7542947 L87.4261316,7.81708421 L88.6529737,7.81708421 L88.6529737,12.5420842 C88.9399737,12.0561368 89.3297632,11.6582421 89.8216053,11.3484 C90.3134474,11.0392947 90.9132368,10.8841895 91.6206053,10.8841895 C92.1618158,10.8841895 92.6621316,10.9810842 93.1208158,11.1748737 C93.5791316,11.3679263 93.9718684,11.6527158 94.2979211,12.0285053 C94.6239737,12.4039263 94.8781842,12.8714526 95.0609211,13.4292421 C95.2429211,13.9874 95.3342895,14.6310316 95.3342895,15.3608737 C95.3342895,16.1124526 95.2370263,16.7785579 95.0443421,17.3584526 C94.8505526,17.9387158 94.5852895,18.4250316 94.2481842,18.8174 C93.9107105,19.2097684 93.5076579,19.5056105 93.0379211,19.7045579 C92.5681842,19.9035053 92.0623421,20.0026105 91.5211316,20.0026105 C90.8248158,20.0026105 90.2360789,19.8534 89.7552895,19.5553474 C89.2745,19.2569263 88.8957632,18.8700842 88.6198158,18.3944526 L88.4370789,19.7542947 L87.4261316,19.7542947 Z" id="shape"></path>
                                        <path d="M100.6824,11.8791474 C99.9639789,11.8791474 99.3505579,12.1171474 98.8421368,12.5920421 C98.3337158,13.0676737 98.0297684,13.7802 97.9302947,14.7307263 L103.368189,14.7307263 C103.312926,13.7802 103.036611,13.0676737 102.539242,12.5920421 C102.041874,12.1171474 101.422926,11.8791474 100.6824,11.8791474 Z M104.512505,17.3336211 C104.291084,18.1294105 103.859663,18.7734105 103.218979,19.2652526 C102.577926,19.7567263 101.765189,20.0028316 100.782242,20.0028316 C100.185032,20.0028316 99.6320316,19.9059368 99.1243474,19.7128842 C98.6155579,19.5194632 98.1789789,19.2291474 97.8142421,18.8423053 C97.4498737,18.4558316 97.1617684,17.9802 96.9521368,17.4165158 C96.7421368,16.8528316 96.6375053,16.1955684 96.6375053,15.4436211 C96.6375053,14.7030947 96.7391895,14.0484105 96.9440316,13.4792 C97.1481368,12.9099895 97.4303474,12.4317789 97.7891895,12.0449368 C98.1484,11.6580947 98.5739263,11.3677789 99.0657684,11.1747263 C99.5576105,10.9809368 100.091084,10.8844105 100.665821,10.8844105 C101.240558,10.8844105 101.768137,10.9787263 102.249295,11.1662526 C102.730084,11.3541474 103.146768,11.6444632 103.500821,12.0368316 C103.854505,12.4292 104.130821,12.9317263 104.329768,13.5451474 C104.528716,14.1585684 104.628189,14.8854632 104.628189,15.7254632 L97.8971368,15.7254632 C97.9192421,16.2780947 98.0102421,16.7588842 98.1708737,17.1678316 C98.3307684,17.5767789 98.5411368,17.9138842 98.8008737,18.1791474 C99.0602421,18.4444105 99.3645579,18.6407789 99.7123474,18.7675158 C100.060874,18.8949895 100.433716,18.9583579 100.831611,18.9583579 C101.4174,18.9583579 101.919926,18.8117263 102.340295,18.5188316 C102.760295,18.2263053 103.042137,17.8309895 103.185821,17.3336211 L104.512505,17.3336211 Z" id="shape"></path>
                                        <polygon id="shape" points="109.781037 15.1783947 113.212511 19.7541842 111.704195 19.7541842 109.067774 16.1399737 106.498405 19.7541842 105.055668 19.7541842 108.3383 15.2612895 105.238405 11.1331316 106.730511 11.1331316 109.084353 14.2997105 111.3063 11.1331316 112.715511 11.1331316"></polygon>
                                    </g>
                                </g>
                            </g>
                        </g>
                    </g>
                </g>
            </g>
        </g>
    </g>
</svg>
