<?xml version="1.0" standalone="no"?>
<!DOCTYPE svg PUBLIC "-//W3C//DTD SVG 1.1//EN" "http://www.w3.org/Graphics/SVG/1.1/DTD/svg11.dtd" >
<svg xmlns="http://www.w3.org/2000/svg" id="clear-active_16">
<path unicode="&#xec13;" id="clear-active_16" data-tags="clear-active_16" d="M8 0c4.411 0 8 3.589 8 8 0 4.411-3.589 8-8 8-4.411 0-8-3.589-8-8 0-4.411 3.589-8 8-8zm2.8535 5.1465c-.195-.195-.512-.195-.707 0l-2.168 2.168-2.122-2.164c-.193-.2-.509-.2-.707-.008-.197.193-.2.51-.006.707l2.128 2.172-2.125 2.125c-.195.195-.195.512 0 .707.098.098.226.147.353.147.128 0 .256-.049.354-.147l2.118-2.118 2.071 2.114c.099.101.228.151.358.151.126 0 .253-.048.349-.143.198-.193.202-.51.008-.707l-2.079-2.122 2.175-2.175c.195-.195.195-.512 0-.707z" />
</svg>
