<?xml version="1.0" standalone="no"?>
<!DOCTYPE svg PUBLIC "-//W3C//DTD SVG 1.1//EN" "http://www.w3.org/Graphics/SVG/1.1/DTD/svg11.dtd" >
<svg xmlns="http://www.w3.org/2000/svg" id="close-active_24">
<path unicode="&#xe93c;" transform="scale(1,-1)" id="close-active_24" data-tags="close-active_24" d="M883.477 136.832l-311.125 311.168 311.168 311.168c16.64 16.683 16.64 43.691 0 60.373-16.64 16.64-43.691 16.597-60.331 0l-311.168-311.211-311.211 311.595c-16.128 16.043-44.16 16.128-60.331 0-16.64-16.597-16.64-43.691 0-60.416l311.211-311.509-311.253-311.595c-16.597-16.555-16.597-43.648 0.085-60.459 16.171-15.957 44.16-15.957 60.245 0.085l311.253 311.637 311.211-311.296c8.064-7.979 18.773-12.373 30.123-12.373 11.392 0 22.101 4.395 30.123 12.459 8.107 8.064 12.544 18.816 12.501 30.251 0 11.435-4.437 22.144-12.501 30.123z" />
</svg>
