<svg width="32" height="32" viewBox="0 0 32 32" fill="none" xmlns="http://www.w3.org/2000/svg">
<path fill-rule="evenodd" clip-rule="evenodd" d="M7 4.5H25C26.3256 4.50156 27.5965 5.03266 28.5338 5.97C29.4712 6.90734 29.9984 8.1744 30 9.5V20.5C29.9984 21.8256 29.4712 23.0965 28.5338 24.0338C27.5965 24.9712 26.3256 25.4984 25 25.5H11.6748C11.3376 25.7144 11.0217 25.9607 10.7314 26.2354C10.457 26.4746 10.1914 26.7041 9.95799 26.8711C8.57361 27.9173 6.88848 28.4886 5.1533 28.5C4.42471 28.52 3.70033 28.3832 3.0293 28.0986C2.74448 27.9958 2.4958 27.8122 2.31369 27.5702C2.13158 27.3283 2.02393 27.0385 2.00391 26.7363C2.00641 26.4372 2.09591 26.1452 2.26151 25.896C2.42711 25.6468 2.66164 25.4512 2.9365 25.333C3.32854 25.1086 3.66946 24.805 3.9375 24.4414C3.33698 23.9742 2.85051 23.3766 2.51486 22.6938C2.17921 22.011 2.00315 21.2608 2 20.5V9.5C2.00156 8.1744 2.52884 6.90734 3.46619 5.97C4.40353 5.03266 5.6744 4.50156 7 4.5ZM19.1725 17.3384C19.3615 17.4251 19.5679 17.4671 19.7757 17.4613C20.7484 17.4613 21.2718 16.9213 21.346 15.8412H23.056C23.0302 16.2624 22.9174 16.6736 22.7245 17.0489C22.5317 17.4243 22.2632 17.7556 21.9359 18.0218C21.2932 18.4619 20.5243 18.6796 19.7464 18.642C19.2741 18.6668 18.8025 18.5832 18.3675 18.3977C17.9325 18.2122 17.5457 17.9296 17.2367 17.5716C16.642 16.8014 16.3436 15.8432 16.3959 14.8714C16.3571 14.3415 16.4306 13.8094 16.6115 13.3098C16.7924 12.8102 17.0766 12.3543 17.4457 11.972C18.1009 11.3958 18.9551 11.098 19.8265 11.142C20.6336 11.1066 21.426 11.3658 22.056 11.8714C22.5773 12.3266 22.915 12.956 23.0062 13.642H21.3265C21.2976 13.2691 21.125 12.922 20.8452 12.6739C20.5654 12.4258 20.2002 12.296 19.8265 12.3119C19.5721 12.3005 19.3194 12.3587 19.0955 12.4802C18.8717 12.6017 18.6852 12.7818 18.556 13.0013C18.2492 13.5748 18.1072 14.2222 18.1459 14.8714C18.0855 15.609 18.2757 16.3453 18.6859 16.9613C18.817 17.1226 18.9835 17.2517 19.1725 17.3384ZM11.7778 17.3386C11.9668 17.4253 12.1733 17.4673 12.3812 17.4613C13.3538 17.4613 13.8773 16.9213 13.9515 15.8412H15.6605C15.6348 16.2623 15.5222 16.6735 15.3295 17.0488C15.1369 17.4242 14.8685 17.7555 14.5413 18.0218C13.8983 18.4619 13.1291 18.6796 12.3509 18.642C11.8786 18.6667 11.407 18.5831 10.972 18.3976C10.537 18.2121 10.1502 17.9296 9.84112 17.5716C9.24685 16.8011 8.94853 15.8431 9.0003 14.8714C8.96152 14.3414 9.03507 13.8092 9.21615 13.3095C9.39723 12.8099 9.68175 12.3541 10.0511 11.972C10.706 11.396 11.5599 11.0982 12.431 11.142C13.2381 11.1064 14.0305 11.3657 14.6605 11.8714C15.1821 12.3263 15.5199 12.9558 15.6107 13.642H13.931C13.9024 13.269 13.7299 12.9217 13.45 12.6735C13.1701 12.4253 12.8047 12.2957 12.431 12.3119C12.1766 12.3008 11.924 12.3591 11.7002 12.4805C11.4764 12.6019 11.2898 12.782 11.1605 13.0013C10.8537 13.5748 10.7117 14.2222 10.7503 14.8714C10.6897 15.6091 10.8804 16.3456 11.2913 16.9613C11.4223 17.1228 11.5888 17.2519 11.7778 17.3386Z"/>
</svg>
