<?xml version="1.0" standalone="no"?>
<!DOCTYPE svg PUBLIC "-//W3C//DTD SVG 1.1//EN" "http://www.w3.org/Graphics/SVG/1.1/DTD/svg11.dtd" >
<svg xmlns="http://www.w3.org/2000/svg" id="close_24">
<path unicode="&#xe93e;" transform="scale(1,-1)" id="close_24" data-tags="close_24" d="M542.165 448l347.563 347.563c8.363 8.363 8.363 21.845 0 30.208-8.32 8.32-21.803 8.32-30.165 0l-347.563-347.605-347.605 347.605c-8.32 8.32-21.803 8.32-30.165 0-8.32-8.363-8.32-21.845 0-30.208l347.605-347.563-347.605-347.563c-8.32-8.363-8.32-21.845 0-30.208 4.181-4.139 9.643-6.229 15.104-6.229s10.923 2.091 15.061 6.229l347.605 347.605 347.563-347.605c4.181-4.139 9.643-6.229 15.104-6.229s10.923 2.091 15.061 6.229c8.363 8.363 8.363 21.845 0 30.208l-347.563 347.563z" />
</svg>
