<?xml version="1.0" standalone="no"?>
<!DOCTYPE svg PUBLIC "-//W3C//DTD SVG 1.1//EN" "http://www.w3.org/Graphics/SVG/1.1/DTD/svg11.dtd" >
<svg xmlns="http://www.w3.org/2000/svg" id="close_8">
<path unicode="&#xe941;" transform="scale(1,-1)" id="close_8" data-tags="close_8" d="M602.496 448l402.688 402.688c25.088 25.088 25.088 65.536 0 90.624-24.96 24.96-65.408 24.96-90.496 0l-402.688-402.816-402.816 402.816c-24.96 24.96-65.408 24.96-90.496 0-24.96-25.088-24.96-65.536 0-90.624l402.816-402.688-402.816-402.688c-24.96-25.088-24.96-65.536 0-90.624 12.544-12.416 28.928-18.688 45.312-18.688s32.768 6.272 45.184 18.688l402.816 402.816 402.688-402.816c12.544-12.416 28.928-18.688 45.312-18.688s32.768 6.272 45.184 18.688c25.088 25.088 25.088 65.536 0 90.624l-402.688 402.688z" />
</svg>
