<svg width="32" height="32" viewBox="0 0 32 32" fill="none" xmlns="http://www.w3.org/2000/svg">
<g>
<path d="M25.0005 4.00073H7.00049C5.67488 4.00229 4.40402 4.52958 3.46668 5.46692C2.52933 6.40426 2.00205 7.67513 2.00049 9.00073V21.0007C2.00364 21.7616 2.1797 22.5117 2.51535 23.1946C2.851 23.8774 3.33747 24.475 3.93799 24.9421C3.66995 25.3057 3.32902 25.6094 2.93699 25.8337C2.66213 25.9519 2.4276 26.1475 2.262 26.3967C2.0964 26.6459 2.0069 26.9379 2.0044 27.2371C2.02442 27.5392 2.13207 27.829 2.31418 28.071C2.49629 28.3129 2.74496 28.4965 3.02979 28.5994C3.70082 28.8839 4.4252 29.0208 5.15379 29.0007C6.88897 28.9893 8.57409 28.418 9.95848 27.3718C10.1919 27.2048 10.4575 26.9753 10.7319 26.7361C11.0222 26.4614 11.3381 26.2152 11.6753 26.0007H25.0005C26.3261 25.9992 27.597 25.4719 28.5343 24.5345C29.4716 23.5972 29.9989 22.3263 30.0005 21.0007V9.00073C29.9989 7.67513 29.4716 6.40426 28.5343 5.46692C27.597 4.52958 26.3261 4.00229 25.0005 4.00073ZM28.0005 21.0007C27.9996 21.7961 27.6833 22.5587 27.1208 23.1211C26.5584 23.6835 25.7959 23.9999 25.0005 24.0007H11.6284C10.8013 23.9548 10.144 24.5916 9.41456 25.2312C9.1919 25.4255 8.97901 25.616 8.79056 25.7488L8.76419 25.7683C7.61828 26.6462 6.19307 27.0792 4.75245 26.9871C5.31584 26.4707 5.79494 25.8694 6.17237 25.2048C6.27281 25.0179 6.32169 24.8076 6.31397 24.5955C6.29845 24.4064 6.23354 24.2247 6.12574 24.0685C6.01794 23.9124 5.87103 23.7873 5.69971 23.7058C5.19192 23.4588 4.76353 23.0745 4.46317 22.5963C4.16282 22.1182 4.00252 21.5654 4.00049 21.0007V9.00073C4.00136 8.20535 4.31771 7.44279 4.88013 6.88037C5.44255 6.31795 6.20511 6.0016 7.00049 6.00073H25.0005C25.7959 6.0016 26.5584 6.31795 27.1208 6.88037C27.6833 7.44279 27.9996 8.20535 28.0005 9.00073V21.0007Z"/>
<path d="M12.3813 17.4607C12.1735 17.4667 11.967 17.4248 11.778 17.338C11.589 17.2513 11.4225 17.1222 11.2915 16.9607C10.8806 16.3451 10.6899 15.6085 10.7505 14.8709C10.7119 14.2216 10.8538 13.5743 11.1607 13.0007C11.29 12.7814 11.4766 12.6014 11.7004 12.4799C11.9242 12.3585 12.1768 12.3002 12.4312 12.3113C12.8049 12.2951 13.1703 12.4248 13.4502 12.6729C13.7301 12.9211 13.9026 13.2684 13.9312 13.6414H15.6109C15.5201 12.9552 15.1823 12.3258 14.6607 11.8709C14.0307 11.3651 13.2383 11.1058 12.4312 11.1414C11.5601 11.0976 10.7062 11.3954 10.0513 11.9714C9.68194 12.3535 9.39741 12.8093 9.21633 13.309C9.03525 13.8086 8.9617 14.3408 9.00049 14.8709C8.94871 15.8425 9.24704 16.8006 9.84131 17.5711C10.1504 17.929 10.5372 18.2115 10.9722 18.397C11.4072 18.5825 11.8788 18.6661 12.3511 18.6414C13.1293 18.679 13.8985 18.4613 14.5415 18.0212C14.8687 17.7549 15.1371 17.4236 15.3297 17.0483C15.5223 16.6729 15.635 16.2617 15.6606 15.8406H13.9516C13.8774 16.9207 13.354 17.4607 12.3813 17.4607Z"/>
<path d="M19.7759 17.4607C19.568 17.4665 19.3616 17.4245 19.1727 17.3378C18.9837 17.2511 18.8172 17.122 18.686 16.9607C18.2759 16.3447 18.0857 15.6084 18.146 14.8709C18.1074 14.2216 18.2494 13.5743 18.5562 13.0007C18.6854 12.7812 18.8719 12.6011 19.0957 12.4796C19.3196 12.3581 19.5723 12.2999 19.8267 12.3113C20.2003 12.2954 20.5656 12.4252 20.8454 12.6733C21.1252 12.9214 21.2978 13.2685 21.3267 13.6414H23.0064C22.9152 12.9554 22.5775 12.326 22.0562 11.8709C21.4262 11.3652 20.6338 11.106 19.8267 11.1414C18.9553 11.0974 18.1011 11.3952 17.4458 11.9714C17.0768 12.3537 16.7926 12.8096 16.6117 13.3092C16.4308 13.8088 16.3573 14.3409 16.396 14.8709C16.3438 15.8426 16.6422 16.8008 17.2369 17.5711C17.5459 17.9291 17.9327 18.2116 18.3677 18.3971C18.8027 18.5826 19.2743 18.6662 19.7466 18.6414C20.5245 18.6791 21.2934 18.4613 21.936 18.0212C22.2634 17.755 22.5319 17.4237 22.7247 17.0483C22.9175 16.673 23.0304 16.2618 23.0562 15.8406H21.3462C21.272 16.9207 20.7485 17.4607 19.7759 17.4607Z"/>
</g>
</svg>
