<?xml version="1.0" encoding="UTF-8"?>
<svg width="120px" height="90px" viewBox="0 0 120 90" version="1.1" xmlns="http://www.w3.org/2000/svg" xmlns:xlink="http://www.w3.org/1999/xlink">
    <!-- Generator: sketchtool 55.2 (78181) - https://sketchapp.com -->
    <title>AB6C21F4-E607-4F3F-9977-4D959281D209@1x</title>
    <desc>Created with sketchtool.</desc>
    <g id="cloud_illustration" stroke="none" stroke-width="1" fill="none" fill-rule="evenodd">
        <g id="ECM-connected-folders-2.1" transform="translate(-660.000000, -259.000000)" fill="#07C1E4">
            <g id="Dialog" transform="translate(208.000000, 120.000000)">
                <g id="window" transform="translate(152.000000, 67.000000)">
                    <g id="item" transform="translate(146.000000, 72.000000)">
                        <g id="cloud-illustration" transform="translate(154.000000, 0.000000)">
                            <path d="M79.854,38.854 L51.854,66.854 C51.756,66.952 51.628,67 51.5,67 C51.373,67 51.245,66.952 51.147,66.854 L38.147,53.854 C37.952,53.659 37.952,53.342 38.147,53.147 C38.342,52.952 38.659,52.952 38.854,53.147 L51.5,65.793 L79.147,38.147 C79.342,37.952 79.659,37.952 79.854,38.147 C80.049,38.342 80.049,38.659 79.854,38.854 M86.5,23 C85.692,23 84.893,23.041 84.098,23.1 C80.084,9.739 67.699,0 53.03,0 C35.11,0 20.583,14.527 20.583,32.448 C20.583,34.194 20.735,35.905 21.002,37.577 C9.006,40.108 0,50.75 0,63.5 C0,78.136 11.865,90 26.5,90 L86.5,90 C105.002,90 120,75.002 120,56.5 C120,37.999 105.002,23 86.5,23 L45,40" id="fill"></path>
                        </g>
                    </g>
                </g>
            </g>
        </g>
    </g>
</svg>