<?xml version="1.0" standalone="no"?>
<!DOCTYPE svg PUBLIC "-//W3C//DTD SVG 1.1//EN" "http://www.w3.org/Graphics/SVG/1.1/DTD/svg11.dtd" >
<svg xmlns="http://www.w3.org/2000/svg" id="admin_32">
<path id="cloud-outline" transform="scale(1,-1)" d="M739.556 142.222h-497.778c-133.689 0-241.778 108.089-241.778 241.778 0 116.622 85.333 216.178 199.111 238.933 5.689 142.222 125.156 258.844 270.222 258.844 110.933 0 210.489-68.267 250.311-170.667 5.689 0 11.378 0 19.911 0 156.444 0 284.444-128 284.444-284.444s-128-284.444-284.444-284.444zM469.333 824.889c-116.622 0-213.333-96.711-213.333-213.333 0-2.844 0-5.689 0-8.533v-5.689c0-17.067-11.378-28.444-25.6-31.289-96.711-2.844-173.511-85.333-173.511-182.044 0-102.4 82.489-184.889 184.889-184.889h497.778c125.156 0 227.556 102.4 227.556 227.556s-102.4 227.556-227.556 227.556c-11.378 0-19.911 0-34.133-2.844s-28.444 5.689-31.289 19.911c-25.6 91.022-110.933 153.6-204.8 153.6z" />
</svg>
