<svg width="12" height="12" viewBox="0 0 12 12" fill="none" xmlns="http://www.w3.org/2000/svg">
<path fill-rule="evenodd" clip-rule="evenodd" d="M2.99951 4C2.99951 2.346 4.34551 1 5.99951 1C7.65351 1 8.99951 2.346 8.99951 4C8.99951 5.654 7.65351 7 5.99951 7C4.34551 7 2.99951 5.654 2.99951 4ZM6.49951 11H1.04851L1.39751 9.645C1.64751 8.676 2.54651 8 3.58151 8H5.99951H6.00051C8.20651 7.999 9.99951 6.206 9.99951 4C9.99951 1.794 8.20551 0 5.99951 0C3.79351 0 1.99951 1.794 1.99951 4C1.99951 5.209 2.54951 6.281 3.39951 7.015C1.98551 7.093 0.778507 8.043 0.429507 9.395L0.0265072 10.961C-0.0374928 11.21 0.0155072 11.469 0.173507 11.673C0.334507 11.881 0.579507 12 0.843507 12H6.49951C6.77551 12 6.99951 11.776 6.99951 11.5C6.99951 11.224 6.77551 11 6.49951 11ZM11.4995 9H7.49951C7.22451 9 6.99951 9.225 6.99951 9.5C6.99951 9.775 7.22451 10 7.49951 10H11.4995C11.7745 10 11.9995 9.775 11.9995 9.5C11.9995 9.225 11.7745 9 11.4995 9Z"/>
</svg>
