<?xml version="1.0" encoding="UTF-8"?>
<svg width="156px" height="104px" viewBox="0 0 156 104" version="1.1" xmlns="http://www.w3.org/2000/svg" xmlns:xlink="http://www.w3.org/1999/xlink">
    <g id="connect_to_outlook" stroke="none" stroke-width="1" fill="none" fill-rule="evenodd">
        <g id="Iteration-Announcements-3.0" transform="translate(-642.000000, -257.000000)">
            <g id="Dialog" transform="translate(208.000000, 128.000000)">
                <g id="window" transform="translate(212.000000, 63.000000)">
                    <g id="form" transform="translate(53.000000, 66.000000)">
                        <g id="illustration" transform="translate(169.000000, 0.000000)">
                            <path d="M100.0003,64.428 C100.0003,65.296 99.3193,66 98.4803,66 L63.5203,66 C62.6813,66 62.0003,65.296 62.0003,64.428 L62.0003,42.768 L79.4213,53.551 C79.9083,53.852 80.4543,54.003 81.0003,54.003 C81.5463,54.003 82.0923,53.852 82.5793,53.551 L100.0003,42.768 L100.0003,64.428 Z M62.0003,39.573 C62.0003,38.703 62.6813,38 63.5203,38 L98.4803,38 C99.3193,38 100.0003,38.703 100.0003,39.573 L100.0003,40.414 L81.5263,51.85 C81.2023,52.051 80.7983,52.051 80.4743,51.85 L62.0003,40.414 L62.0003,39.573 Z M81.0003,0 C65.7623,0 52.0553,6.556 42.5433,17 C42.2463,17.326 41.9633,17.666 41.6743,18 C33.8863,27 29.1343,38.694 29.0133,51.5 L47.7933,51.5 L38.6463,42.354 C38.4513,42.158 38.4513,41.842 38.6463,41.647 C38.8423,41.451 39.1583,41.451 39.3543,41.647 L49.3543,51.647 C49.5493,51.842 49.5493,52.158 49.3543,52.354 L39.3543,62.354 C39.2563,62.451 39.1283,62.5 39.0003,62.5 C38.8723,62.5 38.7443,62.451 38.6463,62.354 C38.4513,62.158 38.4513,61.842 38.6463,61.647 L47.7933,52.5 L29.0133,52.5 C29.2823,80.988 52.4493,104 81.0003,104 C92.9503,104 103.9503,99.959 112.7313,93.183 C110.3743,89.522 109.0003,85.17 109.0003,80.5 C109.0003,67.542 119.5423,57 132.5003,57 C132.5863,57 132.6703,57.006 132.7553,57.006 C132.9123,55.359 133.0003,53.69 133.0003,52 C133.0003,23.282 109.7193,0 81.0003,0 Z" id="fill" fill="#FF7033"></path>
                            <path d="M29.013,51.5003 C29.011,51.6673 29,51.8323 29,52.0003 C29,52.1683 29.011,52.3333 29.013,52.5003 L17.75,52.5003 C7.963,52.5003 0,44.5373 0,34.7503 C0,24.9633 7.963,17.0003 17.75,17.0003 L42.543,17.0003 C42.246,17.3263 41.963,17.6663 41.674,18.0003 L17.75,18.0003 C8.514,18.0003 1,25.5143 1,34.7503 C1,43.9863 8.514,51.5003 17.75,51.5003 L29.013,51.5003 Z M155.9403,78.9123 C155.9763,79.4383 156.0003,79.9673 156.0003,80.5003 C156.0003,93.4583 145.4583,104.0003 132.5003,104.0003 C124.2113,104.0003 116.9173,99.6833 112.7313,93.1833 C113.0013,92.9753 113.2693,92.7663 113.5343,92.5533 C114.0513,93.3623 114.6023,94.1493 115.2153,94.8853 C116.8003,91.3073 120.3043,89.0003 124.2413,89.0003 L127.4213,89.0003 C125.0883,88.0493 123.0853,86.4593 121.6143,84.4553 C119.9763,82.2233 119.0003,79.4773 119.0003,76.5003 C119.0003,69.2873 124.6903,63.3953 131.8153,63.0353 C132.0443,63.0233 132.2693,63.0003 132.5003,63.0003 C139.9443,63.0003 146.0003,69.0563 146.0003,76.5003 C146.0003,82.1473 142.5123,86.9883 137.5793,89.0003 L140.7563,89.0003 C144.6623,89.0003 148.2193,91.3403 149.7923,94.8773 C153.0413,90.9763 155.0003,85.9633 155.0003,80.5003 C155.0003,71.2723 149.4413,63.0733 140.8403,59.6113 C140.5843,59.5083 140.4593,59.2173 140.5633,58.9613 C140.6653,58.7033 140.9553,58.5793 141.2133,58.6843 C142.8613,59.3483 144.4003,60.1813 145.8193,61.1543 C145.9123,61.2183 146.0023,61.2833 146.0943,61.3493 C146.4083,61.5713 146.7143,61.8033 147.0163,62.0393 C147.1683,62.1603 147.3223,62.2773 147.4733,62.4013 C147.7713,62.6483 148.0623,62.9043 148.3473,63.1643 C148.5743,63.3713 148.7963,63.5843 149.0143,63.8003 C149.0963,63.8803 149.1743,63.9623 149.2543,64.0433 C150.7823,65.5993 152.1003,67.3633 153.1503,69.2933 C153.1633,69.3143 153.1743,69.3373 153.1863,69.3593 C153.4913,69.9243 153.7713,70.5053 154.0303,71.0963 C154.0853,71.2213 154.1413,71.3453 154.1933,71.4713 C154.3073,71.7403 154.4143,72.0143 154.5173,72.2883 C154.6033,72.5193 154.6823,72.7523 154.7613,72.9853 C154.8713,73.3113 154.9743,73.6393 155.0703,73.9703 C155.1603,74.2833 155.2473,74.6003 155.3243,74.9183 C155.3713,75.1073 155.4153,75.2973 155.4563,75.4873 C155.5543,75.9363 155.6433,76.3883 155.7143,76.8453 C155.7273,76.9253 155.7373,77.0053 155.7493,77.0853 C155.8163,77.5503 155.8683,78.0193 155.9083,78.4903 C155.9203,78.6313 155.9313,78.7713 155.9403,78.9123 Z M132.5003,103.0003 C139.0433,103.0003 144.9413,100.1903 149.0573,95.7163 C147.7493,92.2953 144.4253,90.0003 140.7563,90.0003 L124.2413,90.0003 C120.6173,90.0003 117.3883,92.1643 116.0163,95.5143 C115.9903,95.5773 115.9523,95.6323 115.9063,95.6783 C120.0233,100.1743 125.9383,103.0003 132.5003,103.0003 Z M122.2553,83.6413 C124.5163,86.8753 128.2623,89.0003 132.5003,89.0003 C139.3933,89.0003 145.0003,83.3933 145.0003,76.5003 C145.0003,69.6073 139.3933,64.0003 132.5003,64.0003 C132.1903,64.0003 131.8873,64.0243 131.5823,64.0473 C125.1183,64.5203 120.0003,69.9173 120.0003,76.5003 C120.0003,79.1543 120.8383,81.6133 122.2553,83.6413 Z" id="fill" fill="#9F9F9F"></path>
                        </g>
                    </g>
                </g>
            </g>
        </g>
    </g>
</svg>