<svg width="124" height="80" viewBox="0 0 124 80" fill="none" xmlns="http://www.w3.org/2000/svg">
<path opacity="0.8" d="M62.3535 39.8536C62.1583 40.0489 61.8417 40.0489 61.6464 39.8536C61.4511 39.6583 61.4511 39.3418 61.6464 39.1465L79.919 20.8739L68.4404 19.4965C68.1662 19.4636 67.9706 19.2146 68.0035 18.9405C68.0364 18.6663 68.2854 18.4707 68.5596 18.5036L81.0556 20.0031C81.1555 20.0142 81.2527 20.0554 81.3325 20.1267C81.3462 20.1389 81.3592 20.1518 81.3715 20.1654C81.4343 20.235 81.4741 20.318 81.4908 20.4045C81.4945 20.4235 81.497 20.4425 81.4985 20.4617L82.4985 33.4617C82.5197 33.737 82.3137 33.9774 82.0383 33.9986C81.763 34.0198 81.5226 33.8137 81.5014 33.5384L80.5848 21.6223L62.3535 39.8536Z" fill="#00A0D1"/>
<path opacity="0.8" fill-rule="evenodd" clip-rule="evenodd" d="M81.0283 55.8372L73.7698 48.979C72.6357 48.2068 71.1181 48.3067 70.0946 49.2283L68.7772 50.4144L81.1345 60.7181L81.3483 60.5254C82.7674 59.2476 82.6383 56.9849 81.0845 55.8772L81.0283 55.8372ZM81.1598 62.0412L67.2505 50.4434L69.4255 48.4851C70.8133 47.2355 72.8816 47.1176 74.4027 48.2013L81.665 55.063C83.7396 56.5419 83.9121 59.5626 82.0177 61.2684L81.1598 62.0412Z" fill="#00A0D1"/>
<path opacity="0.8" fill-rule="evenodd" clip-rule="evenodd" d="M49.2444 18.2089C47.9904 15.9902 45.0044 15.5026 43.1099 17.2083L42.2516 17.9811L51.3377 32.974L53.5126 31.016C54.9004 29.7661 55.2339 27.7214 54.3151 26.0957L49.2444 18.2089ZM53.4575 26.6108L48.3878 18.7258L48.3738 18.7009C47.4345 17.0391 45.1979 16.6739 43.7791 17.9515L43.5357 18.1706L51.5667 31.4223L52.8434 30.273C52.8434 30.2729 52.8433 30.273 52.8434 30.273C53.8764 29.3424 54.1295 27.8245 53.4575 26.6108Z" fill="#00A0D1"/>
<path opacity="0.6" d="M81.1597 62.0411L79.0965 63.8985C63.663 77.7949 24.441 34.0178 39.1422 20.7812L42.2514 17.9812L51.3375 32.9741L49.1793 34.9184C48.5807 35.4567 48.3657 36.3029 48.6341 37.0619C48.5306 36.887 51.0939 47.0786 62.9029 52.7043C63.6297 53.0505 64.4937 52.9256 65.0923 52.3866L67.2505 50.4433L81.1597 62.0411Z" fill="#07C1F5"/>
</svg>
