<svg width="124" height="80" viewBox="0 0 124 80" fill="none" xmlns="http://www.w3.org/2000/svg">
<path opacity="0.8" fill-rule="evenodd" clip-rule="evenodd" d="M70.0211 43.2973V23.0846C70.0211 21.8743 69.04 20.8931 67.8297 20.8931C66.6193 20.8931 65.6382 21.8743 65.6382 23.0846V43.2973C65.6382 44.5076 66.6193 45.4887 67.8297 45.4887C69.04 45.4887 70.0211 44.5076 70.0211 43.2973ZM67.8297 19.8931C66.0671 19.8931 64.6382 21.322 64.6382 23.0846V43.2973C64.6382 45.0599 66.0671 46.4887 67.8297 46.4887C69.5923 46.4887 71.0211 45.0599 71.0211 43.2973V23.0846C71.0211 21.322 69.5923 19.8931 67.8297 19.8931Z" fill="#00A0D1"/>
<path opacity="0.8" d="M59.8833 24.0097C60.211 23.8589 60.5472 23.7256 60.8904 23.6104C61.1754 13.5599 69.4123 5.5 79.5317 5.5C89.7948 5.5 98.1216 13.7906 98.1802 24.0399C98.5236 24.2008 98.8576 24.3808 99.1805 24.579V24.1488C99.1805 13.2971 90.3834 4.5 79.5317 4.5C68.7263 4.5 59.9581 13.222 59.8833 24.0097Z" fill="#00A0D1"/>
<path opacity="0.8" fill-rule="evenodd" clip-rule="evenodd" d="M92.3615 43.298V23.0854C92.3615 21.8751 91.3803 20.8939 90.17 20.8939C88.9597 20.8939 87.9785 21.8751 87.9785 23.0854V43.298C87.9785 44.5084 88.9597 45.4895 90.17 45.4895C91.3803 45.4895 92.3615 44.5084 92.3615 43.298ZM90.17 19.8939C88.4074 19.8939 86.9785 21.3228 86.9785 23.0854V43.298C86.9785 45.0606 88.4074 46.4895 90.17 46.4895C91.9326 46.4895 93.3615 45.0606 93.3615 43.298V23.0854C93.3615 21.3228 91.9326 19.8939 90.17 19.8939Z" fill="#00A0D1"/>
<path opacity="0.6" d="M64.6382 23.0991V43.2837C63.3631 43.3509 62.0855 43.1759 60.8734 42.7667C59.5357 42.315 58.3075 41.5881 57.2679 40.6328C56.2284 39.6775 55.4005 38.5149 54.8377 37.2201C54.2749 35.9252 53.9896 34.5268 54.0003 33.115C54.011 31.7032 54.3173 30.3092 54.8997 29.023C55.482 27.7369 56.3273 26.587 57.3812 25.6475C58.4351 24.7079 59.6742 23.9997 61.0185 23.5683C62.1881 23.193 63.4147 23.0346 64.6382 23.0991Z" fill="#07C1F5"/>
<path opacity="0.6" d="M93.3613 43.2845V23.0999C94.6187 23.0336 95.8786 23.2027 97.0759 23.6C98.4025 24.0401 99.6233 24.7505 100.661 25.6864C101.699 26.6224 102.532 27.7634 103.106 29.0375C103.681 30.3115 103.985 31.6909 103.999 33.0885C104.014 34.486 103.738 35.8713 103.19 37.1569C102.641 38.4425 101.832 39.6004 100.814 40.5574C99.7953 41.5145 98.5894 42.2498 97.2721 42.717C96.018 43.1619 94.6889 43.3545 93.3613 43.2845Z" fill="#07C1F5"/>
<g opacity="0.8">
<path d="M43.5 46.5C44.0523 46.5 44.5 46.0523 44.5 45.5C44.5 44.9477 44.0523 44.5 43.5 44.5C42.9477 44.5 42.5 44.9477 42.5 45.5C42.5 46.0523 42.9477 46.5 43.5 46.5Z" fill="#00A0D1"/>
<path fill-rule="evenodd" clip-rule="evenodd" d="M32 46V59H29C29 60.1046 29.8954 61 31 61H56C57.1046 61 58 60.1046 58 59H55V46C55 44.3431 53.6569 43 52 43H35C33.3431 43 32 44.3431 32 46ZM52 44H35C33.8954 44 33 44.8954 33 46V59H54V46C54 44.8954 53.1046 44 52 44Z" fill="#00A0D1"/>
</g>
<path opacity="0.8" d="M98 42.4267V64C98 69.5229 93.5228 74 88 74C82.4772 74 78 69.5229 78 64V57.9659C78 54.1187 74.8813 51 71.0341 51H55V52H71.0341C74.329 52 77 54.671 77 57.9659V64C77 70.0751 81.9249 75 88 75C94.0751 75 99 70.0751 99 64V41.9136C98.6768 42.1029 98.3429 42.2742 98 42.4267Z" fill="#00A0D1"/>
<path opacity="0.2" d="M54.136 31.539C50.9424 29.9153 47.3281 29 43.5 29C30.5213 29 20 39.5213 20 52.5C20 65.4787 30.5213 76 43.5 76C56.4787 76 67 65.4787 67 52.5C67 48.8135 66.1511 45.3252 64.6382 42.22V43.2837C63.3631 43.3509 62.0855 43.1759 60.8734 42.7667C59.5357 42.315 58.3075 41.5881 57.2679 40.6328C56.2284 39.6775 55.4005 38.5149 54.8377 37.2201C54.2749 35.9252 53.9896 34.5268 54.0003 33.115C54.0043 32.5856 54.0499 32.0587 54.136 31.539Z" fill="#07C1F5"/>
</svg>
