<svg width="12" height="12" viewBox="0 0 12 12" fill="none" xmlns="http://www.w3.org/2000/svg">
<path fill-rule="evenodd" clip-rule="evenodd" d="M10.9948 2.33575C10.9101 1.03168 9.82555 0.00012207 8.50011 0.00012207C7.35273 0.00012207 6.36097 0.779423 6.07889 1.8755C6.01006 2.14293 6.17106 2.41552 6.43849 2.48434C6.70592 2.55317 6.97851 2.39217 7.04733 2.12474C7.21636 1.46796 7.81175 1.00012 8.50011 1.00012C9.32849 1.00012 10.0001 1.67172 10.0001 2.50012V7.50012L9.99324 7.64458C9.92055 8.40522 9.27978 9.00012 8.50011 9.00012C7.87248 9.00012 7.31783 8.61107 7.09789 8.03435C6.99949 7.77633 6.71055 7.64694 6.45254 7.74534C6.19452 7.84374 6.06513 8.13268 6.16353 8.39069C6.47032 9.19511 7.16764 9.78034 7.99998 9.94984L7.99999 11.0001H7.00011L6.91023 11.0082C6.67698 11.0505 6.50011 11.2546 6.50011 11.5001C6.50011 11.7762 6.72397 12.0001 7.00011 12.0001H10.0001L10.09 11.992C10.3232 11.9497 10.5001 11.7456 10.5001 11.5001C10.5001 11.224 10.2762 11.0001 10.0001 11.0001H8.99999L9.00053 9.95002C10.1414 9.71822 11.0001 8.70945 11.0001 7.50012V2.50012L10.9948 2.33575ZM3.85355 3.14657L3.78431 3.08871C3.58944 2.95372 3.32001 2.973 3.14645 3.14657L3.08859 3.21581C2.9536 3.41068 2.97288 3.68011 3.14645 3.85367L4.294 5.00012H1.5L1.41012 5.00818C1.17688 5.05051 1 5.25466 1 5.50012C1 5.77626 1.22386 6.00012 1.5 6.00012H4.292L3.14645 7.14657L3.08859 7.21581C2.9536 7.41068 2.97288 7.68011 3.14645 7.85367C3.34171 8.04894 3.65829 8.04894 3.85355 7.85367L5.86541 5.84141L5.91141 5.78443L5.96221 5.69116L5.98339 5.62827L5.99718 5.55355L6 5.50012L5.99481 5.42784L5.98339 5.37198L5.96239 5.30952L5.93325 5.25036L5.89104 5.18846L5.85355 5.14657L3.85355 3.14657Z"/>
</svg>
