<svg width="124" height="80" viewBox="0 0 124 80" fill="none" xmlns="http://www.w3.org/2000/svg">
<path opacity="0.9" fill-rule="evenodd" clip-rule="evenodd" d="M110.251 28.5C110.251 26.8431 108.908 25.5 107.251 25.5H86.426C84.7691 25.5 83.426 26.8431 83.426 28.5C83.426 30.1569 84.7691 31.5 86.426 31.5H107.251C108.908 31.5 110.251 30.1569 110.251 28.5ZM107.251 26.5C108.356 26.5 109.251 27.3954 109.251 28.5C109.251 29.6046 108.356 30.5 107.251 30.5H86.426C85.3214 30.5 84.426 29.6046 84.426 28.5C84.426 27.3954 85.3214 26.5 86.426 26.5H107.251Z" fill="#F7644A"/>
<g opacity="0.7">
<path d="M96.8388 5C90.8044 5 85.9126 9.89182 85.9126 15.9262V25.5438C86.0794 25.515 86.2509 25.5 86.426 25.5H107.251C107.427 25.5 107.598 25.515 107.765 25.5438V15.9262C107.765 9.89182 102.873 5 96.8388 5Z" fill="#F7644A"/>
<path d="M107.765 31.4562C107.598 31.485 107.427 31.5 107.251 31.5H86.426C86.2509 31.5 86.0794 31.485 85.9126 31.4562V32.0738C85.9126 38.1082 90.8044 43 96.8388 43C102.873 43 107.765 38.1082 107.765 32.0738V31.4562Z" fill="#F7644A"/>
</g>
<g opacity="0.9">
<path d="M53.6606 42.5C53.6606 42.2239 53.4367 42 53.1606 42C52.8844 42 52.6606 42.2239 52.6606 42.5V47.1897C52.6606 47.4658 52.8844 47.6897 53.1606 47.6897C53.4367 47.6897 53.6606 47.4658 53.6606 47.1897V42.5Z" fill="#F7644A"/>
<path d="M57.123 46.9339C56.9277 47.1291 56.9277 47.4457 57.123 47.641C57.3183 47.8362 57.6348 47.8362 57.8301 47.641L61.1462 44.3248C61.3415 44.1296 61.3415 43.813 61.1462 43.6177C60.951 43.4225 60.6344 43.4225 60.4391 43.6177L57.123 46.9339Z" fill="#F7644A"/>
<path d="M49.0721 47.8484C49.2674 47.6531 49.2674 47.3365 49.0721 47.1412L45.8536 43.9227C45.6583 43.7274 45.3417 43.7274 45.1464 43.9227C44.9512 44.1179 44.9512 44.4345 45.1464 44.6298L48.365 47.8484C48.5603 48.0436 48.8769 48.0436 49.0721 47.8484Z" fill="#F7644A"/>
<path d="M53.6606 61.5C53.6606 61.7761 53.4367 62 53.1606 62C52.8844 62 52.6606 61.7761 52.6606 61.5V56.8103C52.6606 56.5342 52.8844 56.3103 53.1606 56.3103C53.4367 56.3103 53.6606 56.5342 53.6606 56.8103V61.5Z" fill="#F7644A"/>
<path d="M57.123 56.3591C56.9277 56.5544 56.9277 56.8709 57.123 57.0662L60.4391 60.3823C60.6344 60.5776 60.951 60.5776 61.1462 60.3823C61.3415 60.1871 61.3415 59.8705 61.1462 59.6752L57.8301 56.3591C57.6348 56.1638 57.3183 56.1638 57.123 56.3591Z" fill="#F7644A"/>
<path d="M49.0721 56.8589C49.2674 56.6636 49.2674 56.347 49.0721 56.1518C48.8769 55.9565 48.5603 55.9565 48.365 56.1518L45.1464 59.3704C44.9512 59.5656 44.9512 59.8822 45.1464 60.0775C45.3417 60.2727 45.6583 60.2727 45.8536 60.0775L49.0721 56.8589Z" fill="#F7644A"/>
</g>
<g opacity="0.9">
<path d="M80.9463 31.5C81.2224 31.5 81.4463 31.7239 81.4463 32C81.4463 36.1119 83.0688 40.0548 85.9559 42.9613C88.8428 45.8678 92.7576 47.5 96.8389 47.5C100.92 47.5 104.835 45.8678 107.722 42.9613C110.609 40.0548 112.232 36.1119 112.232 32C112.232 31.7239 112.455 31.5 112.732 31.5C113.008 31.5 113.232 31.7239 113.232 32C113.232 36.375 111.505 40.5715 108.431 43.6661C105.593 46.5235 101.821 48.2253 97.8356 48.4695V67.6148C97.8356 71.1412 94.9768 74 91.4503 74C87.8416 74 84.9161 71.0745 84.9161 67.4658V56.3182C84.9161 54.4856 83.4305 53 81.5979 53H63C62.7239 53 62.5 52.7761 62.5 52.5C62.5 52.2239 62.7239 52 63 52H81.5979C83.9828 52 85.9161 53.9333 85.9161 56.3182V67.4658C85.9161 70.5222 88.3939 73 91.4503 73C94.4245 73 96.8356 70.5889 96.8356 67.6148V48.5C92.4881 48.4991 88.3195 46.76 85.2464 43.6661C82.1726 40.5715 80.4463 36.375 80.4463 32C80.4463 31.7239 80.6701 31.5 80.9463 31.5Z" fill="#F7644A"/>
<path d="M12 52C11.7239 52 11.5 52.2239 11.5 52.5C11.5 52.7761 11.7239 53 12 53H44C44.2761 53 44.5 52.7761 44.5 52.5C44.5 52.2239 44.2761 52 44 52H12Z" fill="#F7644A"/>
</g>
<path opacity="0.43" fill-rule="evenodd" clip-rule="evenodd" d="M76.9791 53H63C62.7239 53 62.5 52.7761 62.5 52.5C62.5 52.2239 62.7239 52 63 52H77C77 39.0213 66.4787 28.5 53.5 28.5C40.5213 28.5 30 39.0213 30 52H44C44.2761 52 44.5 52.2239 44.5 52.5C44.5 52.7761 44.2761 53 44 53H30.0209C30.5448 65.5149 40.8563 75.5 53.5 75.5C66.1437 75.5 76.4552 65.5149 76.9791 53ZM53.6605 42.5C53.6605 42.2239 53.4367 42 53.1605 42C52.8844 42 52.6606 42.2239 52.6606 42.5V47.1897C52.6606 47.4658 52.8844 47.6897 53.1605 47.6897C53.4367 47.6897 53.6605 47.4658 53.6605 47.1897V42.5ZM57.123 46.9339C56.9277 47.1291 56.9277 47.4457 57.123 47.641C57.3183 47.8362 57.6348 47.8362 57.8301 47.641L61.1462 44.3248C61.3415 44.1296 61.3415 43.813 61.1462 43.6177C60.951 43.4225 60.6344 43.4225 60.4391 43.6177L57.123 46.9339ZM49.0721 47.1412C49.2674 47.3365 49.2674 47.6531 49.0721 47.8484C48.8769 48.0436 48.5603 48.0436 48.365 47.8484L45.1464 44.6298C44.9512 44.4345 44.9512 44.1179 45.1464 43.9227C45.3417 43.7274 45.6583 43.7274 45.8536 43.9227L49.0721 47.1412ZM53.6605 61.5C53.6605 61.7761 53.4367 62 53.1605 62C52.8844 62 52.6606 61.7761 52.6606 61.5V56.8103C52.6606 56.5342 52.8844 56.3103 53.1605 56.3103C53.4367 56.3103 53.6605 56.5342 53.6605 56.8103V61.5ZM57.123 57.0662C56.9277 56.8709 56.9277 56.5544 57.123 56.3591C57.3183 56.1638 57.6348 56.1638 57.8301 56.3591L61.1462 59.6752C61.3415 59.8705 61.3415 60.1871 61.1462 60.3823C60.951 60.5776 60.6344 60.5776 60.4391 60.3823L57.123 57.0662ZM49.0721 56.8589C49.2674 56.6636 49.2674 56.347 49.0721 56.1518C48.8769 55.9565 48.5603 55.9565 48.365 56.1518L45.1464 59.3704C44.9512 59.5656 44.9512 59.8822 45.1464 60.0775C45.3417 60.2727 45.6583 60.2727 45.8536 60.0775L49.0721 56.8589Z" fill="#FFBBAD"/>
</svg>
