<svg width="12" height="12" viewBox="0 0 12 12" xmlns="http://www.w3.org/2000/svg">
<path fill-rule="evenodd" clip-rule="evenodd" d="M10.5 2.9945C10.224 2.9945 10 3.2195 10 3.4945C10 3.7705 10.224 3.9945 10.5 3.9945C10.776 3.9945 11 4.2205 11 4.4945V9.1545C11 9.6175 10.623 9.9945 10.16 9.9945H1.84C1.377 9.9945 1 9.6175 1 9.1545V4.4945C1 4.2205 1.225 3.9945 1.5 3.9945C1.777 3.9945 2 3.7705 2 3.4945C2 3.2195 1.777 2.9945 1.5 2.9945C0.674 2.9945 0.001 3.6675 0 4.4925V9.1565C0.001 10.1715 0.826 10.9945 1.84 10.9945H10.16C11.175 10.9945 12 10.1705 12 9.1545V4.4945C12 3.6685 11.327 2.9945 10.5 2.9945M4.3555 3.848L5.4985 2.703V6.494C5.4985 6.77 5.7235 6.994 5.9985 6.994C6.2745 6.994 6.4985 6.77 6.4985 6.494V2.702L7.6455 3.848C7.7435 3.946 7.8715 3.994 7.9985 3.994C8.1265 3.994 8.2545 3.946 8.3525 3.848C8.5475 3.653 8.5475 3.336 8.3525 3.141L6.3525 1.141C6.1655 0.953 5.8325 0.953 5.6455 1.141L3.6475 3.141C3.4525 3.336 3.4525 3.653 3.6475 3.848C3.8425 4.043 4.1605 4.043 4.3555 3.848"/>
</svg>
