<svg width="321" height="139" viewBox="0 0 321 139" fill="none" xmlns="http://www.w3.org/2000/svg">
<path fill-rule="evenodd" clip-rule="evenodd" d="M183.069 67.9577C191.016 67.9577 198.587 61.6777 198.587 53.931C198.587 46.1843 192.662 39.9044 180.529 39.9044C172.582 39.9044 168.609 46.1843 168.609 53.931C168.609 61.6777 175.121 67.9577 183.069 67.9577Z" fill="white"/>
<path fill-rule="evenodd" clip-rule="evenodd" d="M171.195 43.7045C173.281 41.04 176.408 39.4044 180.529 39.4044C186.678 39.4044 191.319 40.9961 194.431 43.6311C197.55 46.272 199.087 49.9228 199.087 53.931C199.087 62.0123 191.23 68.4577 183.069 68.4577C174.86 68.4577 168.109 61.9689 168.109 53.931C168.109 49.9792 169.122 46.3539 171.195 43.7045ZM171.983 44.3209C170.083 46.7482 169.109 50.1361 169.109 53.931C169.109 61.3865 175.382 67.4577 183.069 67.4577C190.802 67.4577 198.087 61.3432 198.087 53.931C198.087 50.1925 196.662 46.83 193.785 44.3943C190.901 41.9527 186.513 40.4044 180.529 40.4044C176.703 40.4044 173.871 41.9087 171.983 44.3209Z" fill="#005E7D"/>
<path fill-rule="evenodd" clip-rule="evenodd" d="M176.539 77.601V67.9577H189.345V77.8932" fill="white"/>
<path fill-rule="evenodd" clip-rule="evenodd" d="M189.345 77.8932V67.9577H176.539V77.601H177.539V68.9577H188.345V77.8704L189.345 77.8932Z" fill="#005E7D"/>
<path fill-rule="evenodd" clip-rule="evenodd" d="M189.922 44.3779C186.822 42.9139 183.306 42.4567 179.355 43.0292L179.212 42.0396C183.327 41.4432 187.046 41.9136 190.349 43.4737C193.65 45.0329 196.501 47.6637 198.91 51.3323L198.075 51.8813C195.744 48.3327 193.024 45.8429 189.922 44.3779Z" fill="#005E7D"/>
<path fill-rule="evenodd" clip-rule="evenodd" d="M189.59 47.4582C186.959 45.5998 183.361 44.6572 178.746 44.6853L178.74 43.6853C183.484 43.6565 187.31 44.6236 190.167 46.6414C193.462 48.9685 195.149 51.3049 195.996 53.729C196.83 56.1178 196.83 58.5503 196.83 61.007V61.0468H195.83C195.83 58.5484 195.826 56.2743 195.052 54.0588C194.286 51.8658 192.747 49.6881 189.59 47.4582Z" fill="#005E7D"/>
<path fill-rule="evenodd" clip-rule="evenodd" d="M171.094 62.1686C170.506 56.8803 170.965 52.219 172.496 48.2008L173.431 48.5569C171.968 52.3938 171.513 56.8888 172.088 62.0579L171.094 62.1686Z" fill="#005E7D"/>
<path fill-rule="evenodd" clip-rule="evenodd" d="M168.617 57.2205C168.567 54.0296 169.213 51.0091 170.557 48.1652L171.461 48.5925C170.184 51.2957 169.569 54.1644 169.617 57.2047L168.617 57.2205Z" fill="#005E7D"/>
<path d="M191.383 57.4377C191.383 52.596 187.473 48.6711 182.651 48.6711C177.829 48.6711 173.92 52.596 173.92 57.4377V65.0355C173.92 69.8772 177.829 73.8021 182.651 73.8021C187.473 73.8021 191.383 69.8772 191.383 65.0355V57.4377Z" fill="white"/>
<path fill-rule="evenodd" clip-rule="evenodd" d="M182.651 49.1711C178.107 49.1711 174.42 52.8703 174.42 57.4377V65.0355C174.42 69.6029 178.107 73.3021 182.651 73.3021C187.195 73.3021 190.883 69.6029 190.883 65.0355V57.4377C190.883 52.8703 187.195 49.1711 182.651 49.1711ZM173.42 57.4377C173.42 52.3218 177.551 48.1711 182.651 48.1711C187.751 48.1711 191.883 52.3218 191.883 57.4377V65.0355C191.883 70.1514 187.751 74.3021 182.651 74.3021C177.551 74.3021 173.42 70.1514 173.42 65.0355V57.4377Z" fill="#005E7D"/>
<path fill-rule="evenodd" clip-rule="evenodd" d="M173.92 63.0252L174.871 54.0895C174.804 54.0895 175.263 54.0895 176.248 54.0895C177.233 54.0895 177.971 53.6986 178.46 52.9169C179.13 53.6986 180.09 54.0895 181.341 54.0895C182.233 54.0895 183.154 53.6986 184.106 52.9169C185.056 53.6986 185.876 54.0895 186.565 54.0895C187.254 54.0895 188.003 53.6986 188.81 52.9169C189.04 55.1082 189.396 57.0048 189.879 58.6066C190.361 60.2084 190.863 61.6813 191.383 63.0252C192.681 63.0788 193.117 60.6428 192.692 55.7175C192.055 48.3294 184.979 47.0497 181.341 47.0497C177.703 47.0497 173.411 50.541 173.046 56.1351C172.803 59.8645 173.094 62.1612 173.92 63.0252Z" fill="#005E7D"/>
<path fill-rule="evenodd" clip-rule="evenodd" d="M191.383 65.3277C193.326 64.4944 194.188 63.4148 193.969 62.0889C193.749 60.763 192.887 60.3548 191.383 60.8643V65.3277Z" fill="white"/>
<path fill-rule="evenodd" clip-rule="evenodd" d="M193.371 60.3364C194.006 60.6368 194.337 61.2538 194.462 62.0072C194.596 62.8144 194.394 63.5579 193.877 64.205C193.375 64.8345 192.59 65.3538 191.58 65.7872L190.883 66.0861V60.5058L191.222 60.3907C192.02 60.1204 192.766 60.0497 193.371 60.3364ZM191.883 61.237V64.5316C192.438 64.2277 192.835 63.9078 193.096 63.581C193.441 63.1484 193.561 62.6893 193.475 62.1706C193.381 61.598 193.171 61.348 192.943 61.2402C192.731 61.1395 192.394 61.1085 191.883 61.237Z" fill="#005E7D"/>
<path d="M172.464 48.3788C176.483 48.3788 179.741 44.9772 179.741 40.7811C179.741 36.5849 176.483 33.1833 172.464 33.1833C168.446 33.1833 165.188 36.5849 165.188 40.7811C165.188 44.9772 168.446 48.3788 172.464 48.3788Z" fill="white"/>
<path fill-rule="evenodd" clip-rule="evenodd" d="M172.464 33.6833C168.742 33.6833 165.688 36.8405 165.688 40.7811C165.688 44.7216 168.742 47.8788 172.464 47.8788C176.187 47.8788 179.241 44.7216 179.241 40.7811C179.241 36.8405 176.187 33.6833 172.464 33.6833ZM164.688 40.7811C164.688 36.3294 168.15 32.6833 172.464 32.6833C176.779 32.6833 180.241 36.3294 180.241 40.7811C180.241 45.2327 176.779 48.8788 172.464 48.8788C168.15 48.8788 164.688 45.2327 164.688 40.7811Z" fill="#005E7D"/>
<path fill-rule="evenodd" clip-rule="evenodd" d="M179.762 42.2828C179.936 42.4967 179.904 42.8117 179.69 42.9862C177.335 44.9073 174.653 45.8734 171.662 45.8734C168.742 45.8734 166.567 45.2366 165.318 43.8087C165.137 43.6008 165.158 43.2849 165.366 43.1031C165.573 42.9213 165.889 42.9424 166.071 43.1503C167.031 44.2476 168.834 44.8734 171.662 44.8734C174.418 44.8734 176.878 43.9897 179.058 42.2114C179.272 42.0368 179.587 42.0688 179.762 42.2828Z" fill="#005E7D"/>
<path fill-rule="evenodd" clip-rule="evenodd" d="M171.93 32.7155C172.188 32.618 172.477 32.7483 172.574 33.0067C174.376 37.7772 174.015 42.0213 171.416 45.6638C171.256 45.8886 170.944 45.9408 170.719 45.7804C170.494 45.62 170.442 45.3078 170.602 45.083C172.974 41.7589 173.344 37.8763 171.639 33.36C171.541 33.1016 171.672 32.8131 171.93 32.7155Z" fill="#005E7D"/>
<path fill-rule="evenodd" clip-rule="evenodd" d="M174.83 33.2209C175.086 33.1175 175.377 33.2412 175.481 33.4973C177.289 37.9743 176.927 41.9652 174.317 45.3845C174.15 45.604 173.836 45.6462 173.616 45.4787C173.397 45.3111 173.355 44.9974 173.522 44.7779C175.883 41.6841 176.252 38.0772 174.554 33.8718C174.45 33.6158 174.574 33.3244 174.83 33.2209Z" fill="#005E7D"/>
<path fill-rule="evenodd" clip-rule="evenodd" d="M177.732 35.3526C177.986 35.2453 178.28 35.3645 178.387 35.6189C179.762 38.8774 179.49 41.8044 177.494 44.3072C177.322 44.5231 177.008 44.5586 176.792 44.3865C176.576 44.2143 176.54 43.8997 176.712 43.6838C178.445 41.5105 178.721 38.9827 177.466 36.0077C177.358 35.7533 177.478 35.46 177.732 35.3526Z" fill="#005E7D"/>
<path fill-rule="evenodd" clip-rule="evenodd" d="M172.945 41.0489C171.803 41.0057 170.588 41.2901 169.292 41.9291C168.027 42.5527 167.322 43.3561 167.064 44.3152L166.098 44.0554C166.451 42.7439 167.405 41.7442 168.85 41.0321C170.263 40.3354 171.643 39.9989 172.983 40.0496L172.945 41.0489Z" fill="#005E7D"/>
<path fill-rule="evenodd" clip-rule="evenodd" d="M173.153 37.9049C171.837 37.7932 170.345 38.0466 168.665 38.6952C167.051 39.3186 166.081 40.3068 165.666 41.6474L164.711 41.3516C165.232 39.667 166.46 38.4748 168.305 37.7624C170.084 37.0753 171.731 36.7806 173.237 36.9084L173.153 37.9049Z" fill="#005E7D"/>
<path fill-rule="evenodd" clip-rule="evenodd" d="M172.446 34.8565C171.24 34.8129 169.958 35.0998 168.594 35.7406C167.259 36.3684 166.521 37.1752 166.251 38.1286L165.289 37.857C165.661 36.5399 166.663 35.5436 168.169 34.8357C169.647 34.1408 171.087 33.8068 172.482 33.8571L172.446 34.8565Z" fill="#005E7D"/>
<path d="M176.971 61.8249C177.358 61.8249 177.671 61.5115 177.671 61.1249C177.671 60.7383 177.358 60.4249 176.971 60.4249C176.584 60.4249 176.271 60.7383 176.271 61.1249C176.271 61.5115 176.584 61.8249 176.971 61.8249Z" fill="#005E7D"/>
<path d="M186.392 61.8249C186.778 61.8249 187.092 61.5115 187.092 61.1249C187.092 60.7383 186.778 60.4249 186.392 60.4249C186.005 60.4249 185.692 60.7383 185.692 61.1249C185.692 61.5115 186.005 61.8249 186.392 61.8249Z" fill="#005E7D"/>
<path fill-rule="evenodd" clip-rule="evenodd" d="M185.477 65.9608C185.378 66.9715 185.022 67.8072 184.365 68.4075C183.709 69.006 182.833 69.2977 181.796 69.334L181.76 68.3347C182.632 68.3041 183.256 68.065 183.69 67.6689C184.122 67.2746 184.401 66.6929 184.482 65.8635L185.477 65.9608Z" fill="#005E7D"/>
<path fill-rule="evenodd" clip-rule="evenodd" d="M180.841 65.6917V60.3588H181.841V65.6917H180.841Z" fill="#005E7D"/>
<path fill-rule="evenodd" clip-rule="evenodd" d="M116.5 97.5C116.681 100.5 118.065 102.004 119.682 103.162L127.255 108.51C138.465 118.137 146.182 122.974 150.413 122.974C153.05 122.974 154.75 122.541 155.968 121.759C157.52 120.765 158.289 119.212 159.241 117.312C159.341 117.113 159.442 116.91 159.547 116.703C160.811 114.208 162.656 110.913 165.083 106.819L154.103 99.7785L147.83 110.182L130.962 100.096C129.744 95.8023 128.245 93.0573 126.442 91.8827C125.383 91.1926 122.5 90.5 121 91C119.682 91 118.234 92.2096 117.5 93.5C116.867 94.6123 116.396 95.7697 116.5 97.5Z" fill="white"/>
<path fill-rule="evenodd" clip-rule="evenodd" d="M123.793 91.4864C124.805 91.6778 125.718 92.0076 126.169 92.3017C126.977 92.8281 127.753 93.7318 128.483 95.0604C129.212 96.3862 129.878 98.1074 130.481 100.232L130.535 100.423L148.001 110.867L154.266 100.477L164.407 106.979C162.099 110.886 160.329 114.053 159.101 116.477C158.996 116.685 158.893 116.889 158.794 117.088C157.828 119.015 157.114 120.431 155.699 121.338C154.592 122.047 153.002 122.474 150.413 122.474C148.45 122.474 145.569 121.337 141.716 118.928C137.887 116.535 133.177 112.937 127.581 108.131L127.563 108.116L119.973 102.755C119.973 102.755 119.972 102.754 119.972 102.754C119.191 102.195 118.497 101.574 117.974 100.753C117.453 99.9363 117.085 98.894 116.999 97.47C116.903 95.8678 117.331 94.8077 117.935 93.7472C118.268 93.1614 118.768 92.5885 119.331 92.1662C119.9 91.7397 120.488 91.5 121 91.5H121.081L121.158 91.4744C121.784 91.2658 122.776 91.2938 123.793 91.4864ZM120.919 90.5012C121.785 90.2383 122.946 90.3084 123.979 90.5038C125.049 90.7062 126.107 91.0677 126.715 91.4638C127.71 92.112 128.585 93.168 129.36 94.579C130.113 95.951 130.787 97.685 131.388 99.7683L147.659 109.498L153.94 99.0802L165.76 106.658L165.514 107.074C163.089 111.164 161.25 114.449 159.993 116.929C159.889 117.135 159.788 117.337 159.688 117.536C159.67 117.571 159.653 117.606 159.635 117.641C158.719 119.471 157.894 121.119 156.238 122.18C154.907 123.034 153.099 123.474 150.413 123.474C148.144 123.474 145.052 122.193 141.186 119.776C137.3 117.347 132.553 113.718 126.947 108.905L119.394 103.57L119.391 103.568C118.555 102.97 117.749 102.261 117.131 101.291C116.51 100.316 116.096 99.106 116.001 97.5301C115.889 95.6716 116.403 94.4169 117.065 93.2528C117.466 92.5482 118.057 91.8711 118.731 91.366C119.377 90.882 120.141 90.5248 120.919 90.5012Z" fill="#005E7D"/>
<path d="M133.556 82.3281H122.205C121.884 82.3281 121.623 82.5898 121.623 82.9126V103.368C121.623 103.691 121.884 103.953 122.205 103.953H133.556C133.878 103.953 134.138 103.691 134.138 103.368V82.9126C134.138 82.5898 133.878 82.3281 133.556 82.3281Z" fill="white"/>
<path fill-rule="evenodd" clip-rule="evenodd" d="M122.205 82.8281C122.162 82.8281 122.123 82.864 122.123 82.9126V103.368C122.123 103.417 122.162 103.453 122.205 103.453H133.556C133.6 103.453 133.638 103.417 133.638 103.368V82.9126C133.638 82.864 133.6 82.8281 133.556 82.8281H122.205ZM121.123 82.9126C121.123 82.3155 121.606 81.8281 122.205 81.8281H133.556C134.156 81.8281 134.638 82.3155 134.638 82.9126V103.368C134.638 103.965 134.156 104.453 133.556 104.453H122.205C121.606 104.453 121.123 103.965 121.123 103.368V82.9126Z" fill="#005E7D"/>
<path fill-rule="evenodd" clip-rule="evenodd" d="M128.026 85.1659C127.661 85.1659 127.362 85.4635 127.362 85.8348C127.362 86.2061 127.661 86.5037 128.026 86.5037C128.391 86.5037 128.691 86.2061 128.691 85.8348C128.691 85.4635 128.391 85.1659 128.026 85.1659ZM126.362 85.8348C126.362 84.915 127.105 84.1659 128.026 84.1659C128.947 84.1659 129.691 84.915 129.691 85.8348C129.691 86.7546 128.947 87.5037 128.026 87.5037C127.105 87.5037 126.362 86.7546 126.362 85.8348Z" fill="#005E7D"/>
<path fill-rule="evenodd" clip-rule="evenodd" d="M120.5 91H127.145C128.048 91.1856 128.5 91.6856 128.5 92.5C128.5 93.3144 128.048 93.8144 127.145 94H120.5" fill="white"/>
<path fill-rule="evenodd" clip-rule="evenodd" d="M127.092 91.5H120.5V90.5H127.195L127.245 90.5102C127.763 90.6167 128.213 90.8255 128.532 91.179C128.858 91.5392 129 91.9961 129 92.5C129 93.0039 128.858 93.4608 128.532 93.821C128.213 94.1745 127.763 94.3833 127.245 94.4898L127.195 94.5H120.5V93.5H127.092C127.448 93.4199 127.663 93.291 127.79 93.1506C127.916 93.0108 128 92.8105 128 92.5C128 92.1895 127.916 91.9892 127.79 91.8494C127.663 91.709 127.448 91.5801 127.092 91.5Z" fill="#005E7D"/>
<path d="M127.145 94H120.5V102H123.822C126.786 102 128.5 99.7143 128.5 97.4286C128.5 95.1429 128.048 94.4949 127.145 94Z" fill="white"/>
<path fill-rule="evenodd" clip-rule="evenodd" d="M127.012 94.5H120.5V93.5H127.273L127.385 93.5615C127.898 93.8427 128.334 94.1994 128.618 94.8401C128.887 95.4476 129 96.2668 129 97.4286C129 99.9568 127.094 102.5 123.822 102.5H120.5L120.5 101.5H123.822C126.477 101.5 128 99.4718 128 97.4286C128 96.3046 127.886 95.657 127.704 95.2454C127.552 94.9031 127.34 94.6947 127.012 94.5Z" fill="#005E7D"/>
<mask id="mask0" mask-type="alpha" maskUnits="userSpaceOnUse" x="153" y="77" width="57" height="61">
<path d="M189.345 77.601L189.346 80.2431C190.622 80.2563 191.616 80.281 192.138 80.3205C195.204 80.5527 196.97 80.9339 199.592 81.6921C205.807 83.4888 209.136 88.5602 209.136 96.8277V111.232L208.992 137.885L165.479 137.799V107.359L153.837 99.4577C158.056 90.5795 161.391 85.1335 163.841 83.1197C165.843 81.4734 169.821 80.6018 172.432 80.4326C172.977 80.3972 174.526 80.3573 176.539 80.3224L176.539 77.601H189.345Z" fill="white"/>
</mask>
<g mask="url(#mask0)">
<path d="M189.345 77.601L189.346 80.2431C190.622 80.2563 191.616 80.281 192.138 80.3205C195.204 80.5527 196.97 80.9339 199.592 81.6921C205.807 83.4888 209.136 88.5602 209.136 96.8277V111.232L208.992 137.885L165.479 137.799V107.359L153.837 99.4577C158.056 90.5795 161.391 85.1335 163.841 83.1197C165.843 81.4734 169.821 80.6018 172.432 80.4326C172.977 80.3972 174.526 80.3573 176.539 80.3224L176.539 77.601H189.345Z" fill="#44CF50" fill-opacity="0.7"/>
</g>
<path fill-rule="evenodd" clip-rule="evenodd" d="M170.93 110.704L178.508 116.056C189.718 125.683 197.435 130.52 201.666 130.52C203.771 130.52 205.444 130.015 206.683 128.993C207.919 127.975 208.719 126.446 209.092 124.413V111.236L195.122 111.463V115.606L182.217 107.645C181.979 106.809 181.731 106.032 181.472 105.313C181.002 102.476 181.328 99.3619 182.454 95.9927C181.778 95.8449 181.196 95.8242 180.706 95.9351C180.196 96.0504 179.79 96.3098 179.488 96.7145C178.901 97.5014 178.88 98.0024 178.86 98.4954C178.847 98.8074 178.833 99.116 178.701 99.4807C178.653 99.611 178.595 99.7369 178.526 99.8582C178.496 99.9107 178.464 99.9618 178.431 100.011C178.389 99.9724 178.347 99.9336 178.303 99.895C178.104 99.7186 177.902 99.5633 177.696 99.4289C176.64 98.7414 174.582 98.7818 172.91 99.4423C171.531 99.9867 170.431 100.839 169.611 102.002C168.704 103.252 168.196 104.735 168.083 106.45C168.028 107.29 168.234 108.061 168.702 108.765C169.178 109.481 169.922 110.127 170.93 110.704Z" fill="white"/>
<path fill-rule="evenodd" clip-rule="evenodd" d="M181.8 96.3893C180.799 99.6088 180.519 102.62 180.979 105.395L180.987 105.44L181.002 105.482C181.257 106.189 181.501 106.955 181.735 107.782L181.789 107.969L195.622 116.502V111.954L208.592 111.744V124.367C208.23 126.297 207.477 127.691 206.365 128.608C205.241 129.534 203.692 130.02 201.666 130.02C199.704 130.02 196.822 128.883 192.969 126.474C189.14 124.08 184.43 120.482 178.833 115.676L178.815 115.661L171.199 110.282L171.179 110.27C170.214 109.718 169.538 109.121 169.118 108.488C168.711 107.875 168.534 107.212 168.582 106.483C168.689 104.85 169.171 103.46 170.015 102.296L170.019 102.29C170.781 101.211 171.801 100.418 173.093 99.9074C173.872 99.6 174.743 99.4364 175.538 99.4301C176.344 99.4238 177.01 99.5794 177.423 99.8479C177.607 99.9678 177.79 100.108 177.971 100.269C178.011 100.304 178.05 100.34 178.088 100.375L178.516 100.779L178.845 100.291C178.886 100.231 178.924 100.169 178.96 100.106C179.043 99.9602 179.114 99.8084 179.171 99.651C179.331 99.2087 179.346 98.8324 179.359 98.5191L179.359 98.5159C179.37 98.2672 179.379 98.0734 179.442 97.8518C179.504 97.6346 179.625 97.3667 179.889 97.0136C180.116 96.7083 180.418 96.5129 180.816 96.4227C181.09 96.3607 181.416 96.3464 181.8 96.3893ZM182.56 95.5043C181.841 95.3467 181.18 95.3152 180.596 95.4474C179.975 95.5879 179.464 95.9112 179.087 96.4154C178.763 96.8492 178.581 97.2253 178.48 97.5785C178.383 97.9208 178.371 98.2191 178.361 98.461L178.36 98.4748C178.349 98.7501 178.337 98.9701 178.262 99.2158C178.165 99.1432 178.068 99.0745 177.968 99.01C177.325 98.591 176.435 98.423 175.53 98.4301C174.614 98.4373 173.62 98.6241 172.726 98.9773C171.262 99.5554 170.083 100.466 169.204 101.711C168.237 103.045 167.702 104.62 167.584 106.417C167.522 107.367 167.758 108.247 168.285 109.041C168.813 109.837 169.618 110.526 170.661 111.126L178.2 116.45C183.806 121.264 188.553 124.893 192.439 127.322C196.305 129.739 199.398 131.02 201.666 131.02C203.849 131.02 205.647 130.495 207.001 129.379C208.352 128.266 209.196 126.617 209.584 124.503L209.592 124.458V110.728L194.622 110.971V114.71L182.644 107.321C182.425 106.563 182.197 105.851 181.958 105.187C181.515 102.459 181.828 99.4427 182.928 96.1512L183.104 95.6233L182.56 95.5043Z" fill="#005E7D"/>
<path fill-rule="evenodd" clip-rule="evenodd" d="M195.767 99.5176V111.611H194.767V99.5176H195.767Z" fill="#005E7D"/>
<path d="M170.622 117.854L160.69 92.1947C160.51 91.6341 159.987 91.254 159.398 91.254C158.78 91.254 158.239 91.6704 158.083 92.2683L157.039 95.5856C156.471 95.5856 155.922 95.5856 155.391 95.5856C154.859 95.5856 154.31 95.5856 153.744 95.5856L152.698 92.2683C152.542 91.6704 152.002 91.254 151.384 91.254C150.794 91.254 150.271 91.6341 150.091 92.1947L141.206 118.102C141.121 118.539 140.923 118.757 140.611 118.757C140.3 118.757 140.137 118.325 140.122 117.461C140.122 114.262 137.747 111.525 134.714 111.23C132.999 111.064 131.352 111.605 130.081 112.757C128.827 113.895 128.107 115.513 128.107 117.2V120.163C128.107 120.869 128.506 122.293 129.951 122.293C131.396 122.293 131.798 120.869 131.798 120.163V118.757C131.798 117.2 132.469 115.619 134.091 115.619C136.182 115.619 136.614 117.2 136.614 119.302V127.126C136.614 134.62 140.945 138 146.492 138H155.391H156.454H159.711C173.955 138 172.618 124.054 170.622 117.854Z" fill="white"/>
<path fill-rule="evenodd" clip-rule="evenodd" d="M149.616 92.0365C149.865 91.2714 150.58 90.754 151.384 90.754C152.224 90.754 152.961 91.3173 153.178 92.1292L154.111 95.0856H156.672L157.603 92.129C157.821 91.3176 158.557 90.754 159.398 90.754C160.198 90.754 160.91 91.2667 161.161 92.0269L171.088 117.673C171.092 117.682 171.095 117.691 171.098 117.701C172.111 120.846 172.972 125.992 171.738 130.387C171.118 132.597 169.961 134.637 168.009 136.122C166.056 137.607 163.355 138.5 159.711 138.5H146.492C143.618 138.5 141.01 137.623 139.119 135.726C137.227 133.828 136.114 130.97 136.114 127.126V119.302C136.114 118.262 136.003 117.454 135.701 116.917C135.557 116.66 135.371 116.469 135.129 116.338C134.884 116.206 134.551 116.119 134.091 116.119C133.474 116.119 133.051 116.406 132.76 116.87C132.454 117.356 132.298 118.039 132.298 118.757V120.163C132.298 120.589 132.181 121.22 131.839 121.76C131.482 122.325 130.873 122.793 129.951 122.793C129.03 122.793 128.421 122.324 128.064 121.76C127.723 121.219 127.607 120.589 127.607 120.163V117.2C127.607 115.371 128.387 113.618 129.745 112.387C131.122 111.139 132.908 110.553 134.762 110.732C138.069 111.054 140.62 114.022 140.622 117.456C140.627 117.762 140.653 117.98 140.686 118.127C140.696 118.094 140.706 118.054 140.716 118.006C140.72 117.984 140.726 117.961 140.734 117.94L149.616 92.0365ZM151.384 91.754C151.011 91.754 150.68 91.9947 150.566 92.3482L150.564 92.3569L141.69 118.234C141.636 118.487 141.54 118.736 141.364 118.93C141.164 119.149 140.899 119.257 140.611 119.257C140.15 119.257 139.901 118.909 139.788 118.61C139.675 118.312 139.63 117.918 139.622 117.469L139.622 117.461C139.622 114.499 137.423 111.996 134.666 111.727C133.09 111.575 131.582 112.071 130.417 113.128C129.266 114.171 128.607 115.655 128.607 117.2V120.163C128.607 120.443 128.69 120.878 128.91 121.226C129.114 121.55 129.428 121.793 129.951 121.793C130.475 121.793 130.789 121.55 130.994 121.225C131.214 120.877 131.298 120.442 131.298 120.163V118.757C131.298 117.918 131.477 117.032 131.913 116.338C132.362 115.622 133.086 115.119 134.091 115.119C134.676 115.119 135.182 115.23 135.605 115.459C136.033 115.69 136.347 116.026 136.573 116.427C137.01 117.205 137.114 118.24 137.114 119.302V127.126C137.114 130.776 138.167 133.355 139.827 135.02C141.489 136.687 143.819 137.5 146.492 137.5H159.711C163.19 137.5 165.663 136.65 167.403 135.326C169.144 134.002 170.199 132.168 170.775 130.117C171.933 125.995 171.132 121.076 170.151 118.021L160.224 92.3752C160.22 92.366 160.217 92.3568 160.214 92.3474C160.101 91.9948 159.771 91.754 159.398 91.754C159.007 91.754 158.666 92.0173 158.567 92.395C158.565 92.4028 158.562 92.4107 158.56 92.4185L157.516 95.7357C157.45 95.9439 157.257 96.0856 157.039 96.0856H153.744C153.526 96.0856 153.333 95.9441 153.267 95.736L152.221 92.4187C152.218 92.4106 152.216 92.4024 152.214 92.3942C152.116 92.0174 151.775 91.754 151.384 91.754Z" fill="#005E7D"/>
<path d="M158.018 101.736C158.018 103.927 159.787 105.703 161.969 105.703C163.086 105.703 164.094 105.237 164.813 104.489L162.246 97.7797C162.154 97.7734 162.062 97.7701 161.969 97.7701C159.787 97.7701 158.018 99.5459 158.018 101.736Z" fill="#FFCE73"/>
<path fill-rule="evenodd" clip-rule="evenodd" d="M138.808 123.681C139.101 122.137 139.635 120.255 140.404 118.038L141.349 118.366C140.588 120.557 140.071 122.39 139.79 123.868C139.508 125.358 139.476 126.439 139.643 127.154L138.669 127.382C138.454 126.461 138.517 125.213 138.808 123.681Z" fill="#005E7D"/>
<path fill-rule="evenodd" clip-rule="evenodd" d="M153.221 106.053C153.497 106.053 153.721 106.277 153.721 106.553C153.721 106.969 154.002 107.186 154.208 107.186C154.416 107.186 154.696 106.969 154.696 106.553C154.696 106.277 154.92 106.053 155.196 106.053C155.473 106.053 155.696 106.277 155.696 106.553C155.696 107.388 155.092 108.186 154.208 108.186C153.324 108.186 152.721 107.387 152.721 106.553C152.721 106.277 152.945 106.053 153.221 106.053Z" fill="#005E7D"/>
<path fill-rule="evenodd" clip-rule="evenodd" d="M155.479 106.053C155.755 106.053 155.979 106.277 155.979 106.553C155.979 106.969 156.259 107.186 156.466 107.186C156.673 107.186 156.954 106.969 156.954 106.553C156.954 106.277 157.178 106.053 157.454 106.053C157.73 106.053 157.954 106.277 157.954 106.553C157.954 107.388 157.351 108.186 156.466 108.186C155.582 108.186 154.979 107.387 154.979 106.553C154.979 106.277 155.202 106.053 155.479 106.053Z" fill="#005E7D"/>
<path fill-rule="evenodd" clip-rule="evenodd" d="M155.709 106.407L156.452 105.702C156.783 105.388 156.549 104.853 156.082 104.853H154.594C154.126 104.853 153.892 105.388 154.223 105.702L154.966 106.407C155.171 106.601 155.504 106.601 155.709 106.407Z" fill="#005E7D"/>
<path fill-rule="evenodd" clip-rule="evenodd" d="M152.375 102.445C152.375 102.836 152.059 103.153 151.669 103.153C151.28 103.153 150.964 102.836 150.964 102.445C150.964 102.054 151.28 101.736 151.669 101.736C152.059 101.736 152.375 102.054 152.375 102.445Z" fill="#005E7D"/>
<path fill-rule="evenodd" clip-rule="evenodd" d="M159.994 102.445C159.994 102.836 159.678 103.153 159.288 103.153C158.899 103.153 158.583 102.836 158.583 102.445C158.583 102.054 158.899 101.736 159.288 101.736C159.678 101.736 159.994 102.054 159.994 102.445Z" fill="#005E7D"/>
<path fill-rule="evenodd" clip-rule="evenodd" d="M164.142 105.514C164.22 105.779 164.068 106.057 163.803 106.135L161.545 106.797C161.28 106.874 161.002 106.723 160.925 106.458C160.847 106.193 160.999 105.915 161.264 105.837L163.521 105.175C163.786 105.098 164.064 105.25 164.142 105.514Z" fill="#005E7D"/>
<path fill-rule="evenodd" clip-rule="evenodd" d="M160.925 107.78C161.003 107.515 161.28 107.364 161.545 107.441L163.803 108.104C164.068 108.182 164.22 108.46 164.142 108.725C164.064 108.99 163.786 109.142 163.521 109.064L161.264 108.401C160.999 108.323 160.847 108.045 160.925 107.78Z" fill="#005E7D"/>
<path fill-rule="evenodd" clip-rule="evenodd" d="M146.533 105.514C146.611 105.25 146.889 105.098 147.154 105.175L149.411 105.837C149.676 105.915 149.828 106.193 149.75 106.458C149.673 106.723 149.395 106.874 149.13 106.797L146.872 106.135C146.607 106.057 146.456 105.779 146.533 105.514Z" fill="#005E7D"/>
<path fill-rule="evenodd" clip-rule="evenodd" d="M149.75 107.78C149.828 108.045 149.676 108.323 149.411 108.401L147.154 109.064C146.889 109.142 146.611 108.99 146.533 108.725C146.456 108.46 146.607 108.182 146.872 108.104L149.13 107.441C149.395 107.364 149.672 107.515 149.75 107.78Z" fill="#005E7D"/>
<path fill-rule="evenodd" clip-rule="evenodd" d="M155.196 125.884C155.473 125.884 155.696 126.108 155.696 126.384V135.82C155.696 136.762 156.434 137.5 157.312 137.5C158.192 137.5 158.929 136.762 158.929 135.82V128.645C158.929 128.369 159.153 128.145 159.429 128.145C159.705 128.145 159.929 128.369 159.929 128.645V135.82C159.929 137.287 158.771 138.5 157.312 138.5C155.854 138.5 154.696 137.286 154.696 135.82V126.384C154.696 126.108 154.92 125.884 155.196 125.884Z" fill="#005E7D"/>
<path fill-rule="evenodd" clip-rule="evenodd" d="M150.964 128.145C151.24 128.145 151.464 128.369 151.464 128.645V135.82C151.464 136.761 152.201 137.5 153.08 137.5C153.959 137.5 154.696 136.761 154.696 135.82V132.05C154.696 131.774 154.92 131.55 155.196 131.55C155.473 131.55 155.696 131.774 155.696 132.05V135.82C155.696 137.285 154.54 138.5 153.08 138.5C151.621 138.5 150.464 137.285 150.464 135.82V128.645C150.464 128.369 150.687 128.145 150.964 128.145Z" fill="#005E7D"/>
<path d="M7.09314 47.0981C7.09314 56.5402 14.7924 64.1949 24.2904 64.1949C33.7885 64.1949 41.4885 56.5402 41.4885 47.0981C41.4885 37.656 33.7885 30.0022 24.2904 30.0022C14.7924 30.0022 7.09314 37.656 7.09314 47.0981Z" fill="#FF9D52"/>
<path fill-rule="evenodd" clip-rule="evenodd" d="M29.4099 53.1325H18.83C18.4334 53.1325 18.1109 52.8268 18.1109 52.4517V51.1212H30.1301V52.4517C30.1301 52.8268 29.8066 53.1325 29.4099 53.1325M18.83 43.0759H29.4099C29.8066 43.0759 30.1301 43.3816 30.1301 43.7567V50.1155H18.1109V43.7567C18.1109 43.3816 18.4334 43.0759 18.83 43.0759M29.4099 42.0702H28.1009V40.5617C28.1009 40.2841 27.8775 40.0589 27.6001 40.0589C27.3236 40.0589 27.0992 40.2841 27.0992 40.5617V42.0702H21.0896V40.5617C21.0896 40.2841 20.8663 40.0589 20.5888 40.0589C20.3124 40.0589 20.088 40.2841 20.088 40.5617V42.0702H18.83C17.8805 42.0702 17.1093 42.8265 17.1093 43.7567V52.4517C17.1093 53.3819 17.8805 54.1382 18.83 54.1382H29.4099C30.3585 54.1382 31.1317 53.3819 31.1317 52.4517V43.7567C31.1317 42.8265 30.3585 42.0702 29.4099 42.0702" fill="white"/>
<path d="M261.562 63.8365H261.272C258.071 63.8365 255.476 66.4421 255.476 69.6564V82.4604C255.476 85.6746 258.071 88.2803 261.272 88.2803H261.562C264.763 88.2803 267.359 85.6746 267.359 82.4604V69.6564C267.359 66.4421 264.763 63.8365 261.562 63.8365Z" fill="white"/>
<path fill-rule="evenodd" clip-rule="evenodd" d="M261.272 64.3365C258.349 64.3365 255.976 66.7164 255.976 69.6564V82.4604C255.976 85.4004 258.349 87.7803 261.272 87.7803H261.562C264.485 87.7803 266.859 85.4004 266.859 82.4604V69.6564C266.859 66.7164 264.485 64.3365 261.562 64.3365H261.272ZM254.976 69.6564C254.976 66.1679 257.793 63.3365 261.272 63.3365H261.562C265.041 63.3365 267.859 66.1679 267.859 69.6564V82.4604C267.859 85.9489 265.041 88.7803 261.562 88.7803H261.272C257.793 88.7803 254.976 85.9489 254.976 82.4604V69.6564Z" fill="#005E7D"/>
<path fill-rule="evenodd" clip-rule="evenodd" d="M261.657 42.5087C261.69 42.2994 261.707 42.0847 261.707 41.8661C261.707 39.6161 259.89 37.7921 257.649 37.7921C255.408 37.7921 253.592 39.6161 253.592 41.8661C253.592 42.2081 253.634 42.5404 253.713 42.8579C253.093 41.7453 251.908 40.9931 250.548 40.9931C248.548 40.9931 246.926 42.6216 246.926 44.6306C246.926 45.9126 247.586 47.0397 248.584 47.6875C248.531 47.7485 248.479 47.81 248.428 47.8719C247.813 47.3907 247.04 47.104 246.201 47.104C244.2 47.104 242.578 48.7326 242.578 50.7415C242.578 51.931 243.147 52.9872 244.026 53.6509C242.52 54.0918 241.419 55.4886 241.419 57.1435C241.419 59.1524 243.041 60.781 245.042 60.781C245.297 60.781 245.546 60.7544 245.787 60.704C245.839 60.8745 245.895 61.0438 245.954 61.2116C245.474 61.8103 245.187 62.5715 245.187 63.4C245.187 65.3285 246.744 66.8919 248.664 66.8919C248.981 66.8919 249.288 66.8494 249.58 66.7697C252.309 69.3618 256.085 70.966 260.258 70.966C263.432 70.966 266.377 70.0376 268.806 68.4523C269.401 68.9326 270.158 69.22 270.981 69.22C272.902 69.22 274.459 67.6565 274.459 65.728C274.459 64.8319 274.123 64.0147 273.571 63.3965L273.582 63.3766C274.198 63.9338 275.014 64.2729 275.909 64.2729C277.829 64.2729 279.386 62.7095 279.386 60.781C279.386 59.2291 278.378 57.9137 276.984 57.459C278.534 57.0467 279.676 55.6286 279.676 53.9425C279.676 51.9336 278.054 50.305 276.053 50.305C275.976 50.305 275.899 50.3075 275.823 50.3123C276.419 49.6031 276.778 48.6867 276.778 47.686C276.778 45.436 274.961 43.612 272.72 43.612C271.34 43.612 270.121 44.3041 269.388 45.3614C269.321 45.3135 269.254 45.2661 269.187 45.2192C269.589 44.5869 269.822 43.8358 269.822 43.0301C269.822 40.7801 268.006 38.9561 265.765 38.9561C263.697 38.9561 261.991 40.5087 261.739 42.5161L261.657 42.5087Z" fill="#005E7D"/>
<path d="M267.214 60.49C267.214 55.6686 263.321 51.76 258.519 51.76C253.717 51.76 249.824 55.6686 249.824 60.49V67.765C249.824 72.5864 253.717 76.4949 258.519 76.4949C263.321 76.4949 267.214 72.5864 267.214 67.765V60.49Z" fill="white"/>
<path fill-rule="evenodd" clip-rule="evenodd" d="M258.519 52.26C253.995 52.26 250.324 55.9428 250.324 60.49V67.765C250.324 72.3121 253.995 75.9949 258.519 75.9949C263.043 75.9949 266.714 72.3121 266.714 67.765V60.49C266.714 55.9428 263.043 52.26 258.519 52.26ZM249.324 60.49C249.324 55.3943 253.439 51.26 258.519 51.26C263.599 51.26 267.714 55.3943 267.714 60.49V67.765C267.714 72.8606 263.599 76.9949 258.519 76.9949C253.439 76.9949 249.324 72.8606 249.324 67.765V60.49Z" fill="#005E7D"/>
<path fill-rule="evenodd" clip-rule="evenodd" d="M253.157 60.408C251.274 60.408 249.744 61.9411 249.744 63.8365C249.744 65.7319 251.274 67.265 253.157 67.265C255.04 67.265 256.57 65.7319 256.57 63.8365C256.57 61.9411 255.04 60.408 253.157 60.408ZM248.744 63.8365C248.744 61.3926 250.718 59.408 253.157 59.408C255.596 59.408 257.57 61.3926 257.57 63.8365C257.57 66.2804 255.596 68.265 253.157 68.265C250.718 68.265 248.744 66.2804 248.744 63.8365Z" fill="#005E7D"/>
<path fill-rule="evenodd" clip-rule="evenodd" d="M262.431 60.408C260.549 60.408 259.019 61.9411 259.019 63.8365C259.019 65.7319 260.549 67.265 262.431 67.265C264.314 67.265 265.844 65.7319 265.844 63.8365C265.844 61.9411 264.314 60.408 262.431 60.408ZM258.019 63.8365C258.019 61.3926 259.993 59.408 262.431 59.408C264.87 59.408 266.844 61.3926 266.844 63.8365C266.844 66.2804 264.87 68.265 262.431 68.265C259.993 68.265 258.019 66.2804 258.019 63.8365Z" fill="#005E7D"/>
<path fill-rule="evenodd" clip-rule="evenodd" d="M262.416 62.3911C259.009 60.9362 258.04 58.5428 256.591 57.1347C255.142 55.7266 253.564 55.2647 252.142 55.9795C249.772 57.1719 249.798 61.7412 249.006 59.9999C248.478 58.839 248.478 55.8069 249.006 50.9035L266.851 50.305L269.273 60.3932C266.973 62.6952 264.688 63.3611 262.416 62.3911Z" fill="#005E7D"/>
<path d="M253.155 64.5735C253.542 64.5735 253.855 64.2601 253.855 63.8735C253.855 63.4869 253.542 63.1735 253.155 63.1735C252.769 63.1735 252.455 63.4869 252.455 63.8735C252.455 64.2601 252.769 64.5735 253.155 64.5735Z" fill="#005E7D"/>
<path d="M262.537 64.5732C262.923 64.5732 263.237 64.2598 263.237 63.8732C263.237 63.4866 262.923 63.1732 262.537 63.1732C262.15 63.1732 261.837 63.4866 261.837 63.8732C261.837 64.2598 262.15 64.5732 262.537 64.5732Z" fill="#005E7D"/>
<path fill-rule="evenodd" clip-rule="evenodd" d="M261.335 68.6866C261.237 69.6935 260.882 70.5262 260.226 71.1244C259.573 71.7208 258.701 72.0114 257.667 72.0476L257.632 71.0482C258.5 71.0178 259.121 70.7798 259.552 70.3858C259.982 69.9936 260.259 69.4149 260.34 68.5893L261.335 68.6866Z" fill="#005E7D"/>
<path fill-rule="evenodd" clip-rule="evenodd" d="M256.715 68.4184V63.1078H257.715V68.4184H256.715Z" fill="#005E7D"/>
<path fill-rule="evenodd" clip-rule="evenodd" d="M267.214 66.31C269.149 65.4801 270.008 64.405 269.789 63.0847C269.57 61.7643 268.712 61.3579 267.214 61.8653V66.31Z" fill="white"/>
<path fill-rule="evenodd" clip-rule="evenodd" d="M269.195 61.3377C269.828 61.6372 270.158 62.2524 270.282 63.003C270.415 63.8074 270.215 64.5485 269.7 65.1932C269.199 65.8205 268.418 66.3378 267.411 66.7695L266.714 67.0684V61.5067L267.053 61.3917C267.848 61.1224 268.592 61.0518 269.195 61.3377ZM267.714 62.238V65.5136C268.265 65.2117 268.659 64.8938 268.918 64.5693C269.262 64.139 269.381 63.6823 269.296 63.1664C269.201 62.5966 268.993 62.3484 268.767 62.2415C268.556 62.1416 268.222 62.1106 267.714 62.238Z" fill="#005E7D"/>
<path d="M317.486 78.3502L304.389 76.0584L300.207 101.425C292.751 94.3113 290.58 92.0375 289.52 90.9739L286.342 87.783C285.283 86.7193 283.013 84.9314 282.105 84.5921C281.197 84.2528 279.986 83.5284 277.338 82.9966C274.69 82.4648 269.663 82.3795 261.797 82.3795H248.61L248.39 82.3805C243.698 82.4195 239.944 83.7072 237.126 86.2436C233.568 89.4456 231.984 94.181 232.374 100.45V111.085L232.373 111.29C232.346 118.021 232.347 121.758 232.374 122.502C232.61 128.969 235.895 132.291 242.228 132.467L242.201 137.669H281.188L281.195 109.889L281.197 105.126C283.933 107.204 288.288 110.532 294.264 115.109C302.173 120.93 308.133 120.93 312.143 115.109C313.116 113.697 313.882 109.61 314.441 102.847L317.486 78.3502Z" fill="#1DC4F2" fill-opacity="0.7"/>
<path fill-rule="evenodd" clip-rule="evenodd" d="M247.452 101.957V114H246.452V101.957H247.452Z" fill="#005E7D"/>
<path fill-rule="evenodd" clip-rule="evenodd" d="M238.84 118.473L247.825 113.011L248.345 113.865L239.36 119.327L238.84 118.473Z" fill="#005E7D"/>
<path fill-rule="evenodd" clip-rule="evenodd" d="M262.431 102.976H267.741H277.706V117.558H267.793V114.663L262.431 109.442V102.976Z" fill="#FFE6B3"/>
<path fill-rule="evenodd" clip-rule="evenodd" d="M267.993 116.24C266.617 117.509 264.659 117.834 262.852 117.834C261.653 117.834 260.172 117.82 258.411 117.791L251.952 123.082L247.976 113.434L255.577 108.745C256.403 107.777 257.406 106.642 258.614 105.323C259.865 103.957 261.087 103.219 262.287 103.129L262.287 105.502C263.179 105.259 263.975 105.156 264.674 105.193C265.449 105.234 267.272 105.563 268.518 107.081C269.287 108.016 269.832 109.401 269.79 111.439C269.742 113.759 269.04 115.273 267.993 116.24Z" fill="white"/>
<path fill-rule="evenodd" clip-rule="evenodd" d="M262.787 102.59L262.787 104.867C263.472 104.723 264.111 104.662 264.7 104.693C265.539 104.738 267.53 105.09 268.905 106.764C269.76 107.805 270.334 109.312 270.29 111.449C270.24 113.87 269.502 115.527 268.332 116.607C266.815 118.007 264.696 118.334 262.852 118.334C261.691 118.334 260.269 118.321 258.586 118.294L251.747 123.897L247.352 113.232L255.247 108.361C256.068 107.401 257.058 106.281 258.245 104.985C259.535 103.577 260.867 102.734 262.249 102.63L262.787 102.59ZM261.787 103.718C260.918 103.944 259.985 104.567 258.983 105.661C257.778 106.976 256.779 108.107 255.957 109.07L255.906 109.13L248.6 113.636L252.157 122.268L258.236 117.288L258.419 117.291C260.179 117.32 261.656 117.334 262.852 117.334C264.621 117.334 266.42 117.011 267.654 115.872C268.578 115.02 269.244 113.648 269.29 111.428C269.33 109.49 268.813 108.227 268.132 107.398C267.013 106.037 265.359 105.73 264.647 105.692C264.016 105.659 263.275 105.752 262.418 105.984L261.786 106.156L261.787 103.718Z" fill="#005E7D"/>
<path fill-rule="evenodd" clip-rule="evenodd" d="M304.726 76.4519L306.338 66.2313L307.522 58.7247C307.665 57.7021 308.094 57.2475 308.808 57.3611C309.522 57.4747 309.799 58.0414 309.638 59.0613L308.93 66.297C312.275 66.9536 314.492 67.9518 315.583 69.2915C316.674 70.6313 317.205 72.133 317.175 73.7966L316.462 78.3188" fill="white"/>
<path fill-rule="evenodd" clip-rule="evenodd" d="M308.315 57.9603C308.204 58.0775 308.083 58.3255 308.017 58.7949L308.015 58.8033L305.22 76.5304L304.232 76.3733L307.027 58.6502C307.105 58.0988 307.27 57.6098 307.587 57.2733C307.934 56.9058 308.395 56.7891 308.886 56.8672C309.377 56.9452 309.779 57.199 310 57.6524C310.202 58.0663 310.218 58.5781 310.134 59.1249L309.472 65.8971C312.6 66.5593 314.816 67.5578 315.971 68.976C317.133 70.4037 317.707 72.0195 317.675 73.8061L317.674 73.8408L316.956 78.3973L315.968 78.2402L316.676 73.7529C316.696 72.2259 316.208 70.8496 315.196 69.6071C314.223 68.4122 312.16 67.4405 308.835 66.7877L308.388 66.7001L309.142 58.9973L309.144 58.9828C309.218 58.5153 309.174 58.2393 309.102 58.0903C309.046 57.9769 308.953 57.8905 308.73 57.855C308.507 57.8194 308.397 57.8733 308.315 57.9603Z" fill="#005E7D"/>
<path fill-rule="evenodd" clip-rule="evenodd" d="M313.79 68.5037L313.881 68.8721C313.99 69.3123 313.973 69.7456 313.79 70.1431C313.608 70.5361 313.288 70.8413 312.884 71.0754C312.327 71.3986 311.744 71.5748 311.14 71.598C311.628 73.8853 311.294 75.7359 309.959 77.003L309.27 76.2771C310.349 75.2536 310.674 73.6226 310.013 71.1906L309.81 70.4446L310.573 70.566C311.196 70.665 311.793 70.5517 312.382 70.2101C312.661 70.048 312.809 69.88 312.882 69.7226C312.915 69.6511 312.938 69.5706 312.946 69.478L309.835 69.3809L306.742 71.3928L306.196 70.554L309.552 68.3714L313.79 68.5037Z" fill="#005E7D"/>
<path fill-rule="evenodd" clip-rule="evenodd" d="M253.035 82.3795H270.069L261.547 101.697L253.035 82.3795Z" fill="white"/>
<path d="M12.3373 82.0522C14.8299 82.8467 16.7928 84.0732 18.2262 85.7315C19.2475 86.9131 22.0182 92.1962 25.2869 97.7063L18.8606 109.689C16.7946 104.972 15.437 100.056 14.7291 99.365C13.1739 97.847 12.71 97.4334 8.55528 95.9813C4.4006 94.5293 0.99509 90.2122 0.692142 89.5934C0.389193 88.9746 0.389193 85.7315 1.09779 85.7315C1.57019 85.7315 2.8939 86.4047 5.06892 87.7512C2.8733 85.6611 1.66254 84.4912 1.43664 84.2414C1.09779 83.8668 1.47259 82.9067 2.15594 82.9067C2.83929 82.9067 10.0356 87.1214 11.1772 87.0405C11.2861 87.0328 11.0762 86.1752 10.5476 84.4676C9.61135 84.4691 8.86246 84.0954 8.30097 83.3465C7.73949 82.5975 7.48431 81.9198 7.53544 81.3133L12.3373 82.0522Z" fill="white"/>
<path fill-rule="evenodd" clip-rule="evenodd" d="M7.08216 80.7377L7.03718 81.2713C6.97143 82.0511 7.30392 82.8501 7.90088 83.6464C8.48025 84.4192 9.24783 84.8588 10.1727 84.9498C10.3588 85.5605 10.4959 86.0394 10.5855 86.3894C10.3104 86.2897 9.97304 86.1478 9.58869 85.9734C8.75525 85.5953 7.73713 85.0812 6.72356 84.5594C6.40424 84.395 6.08503 84.2297 5.77272 84.0679C5.09921 83.7191 4.45782 83.3869 3.91665 83.1166C3.52043 82.9187 3.1693 82.7497 2.89247 82.6292C2.75456 82.5691 2.62759 82.5179 2.51859 82.4807C2.42862 82.45 2.29003 82.4067 2.15591 82.4067C1.55724 82.4067 1.14956 82.8241 0.961605 83.2184C0.864382 83.4223 0.807055 83.6529 0.809992 83.8812C0.812902 84.1075 0.877007 84.3681 1.06578 84.5768C1.17157 84.6938 1.46601 84.9864 1.94603 85.4521C1.89111 85.4295 1.83814 85.4087 1.78717 85.3895C1.55218 85.3015 1.31038 85.2315 1.09776 85.2315C0.792253 85.2315 0.583366 85.4131 0.464048 85.5726C0.346699 85.7295 0.269138 85.9217 0.214258 86.1031C0.102705 86.4718 0.0426941 86.9416 0.0164165 87.4019C-0.0102005 87.8681 -0.00377464 88.3545 0.0296555 88.7691C0.0463676 88.9764 0.0703106 89.1719 0.101988 89.3416C0.131891 89.5017 0.174776 89.6738 0.243038 89.8133C0.348204 90.0281 0.654627 90.4556 1.07947 90.9676C1.51793 91.4962 2.11526 92.1538 2.83491 92.8374C4.26732 94.1982 6.21766 95.6941 8.39029 96.4534C10.4692 97.1799 11.5836 97.6333 12.3687 98.0824C13.1373 98.5221 13.6021 98.9637 14.3798 99.7228C14.4075 99.7499 14.4761 99.8412 14.5813 100.044C14.6803 100.235 14.793 100.486 14.9201 100.796C15.1743 101.416 15.4712 102.232 15.8151 103.187C15.8532 103.292 15.8918 103.4 15.9309 103.508C16.5962 105.357 17.4194 107.645 18.4026 109.89L18.8152 110.832L25.8608 97.694L25.7169 97.4512C24.4432 95.3042 23.246 93.1929 22.1962 91.3416C21.9014 90.8216 21.6182 90.3222 21.3482 89.8482C20.7336 88.7694 20.1863 87.8207 19.7279 87.0665C19.2756 86.3226 18.891 85.736 18.6045 85.4045C17.1001 83.664 15.0524 82.3929 12.4892 81.5758L12.4519 81.5639L7.08216 80.7377ZM12.2224 82.5404C14.6264 83.3126 16.4925 84.4903 17.8479 86.0585C18.072 86.3178 18.4167 86.8347 18.8734 87.5859C19.3238 88.3269 19.8649 89.2648 20.4793 90.3432C20.7476 90.8142 21.0296 91.3115 21.3236 91.8301C22.3344 93.6127 23.4874 95.6459 24.7129 97.7185L18.9117 108.536C18.1195 106.637 17.4411 104.751 16.8698 103.164C16.8313 103.057 16.7934 102.952 16.7559 102.848C16.4137 101.898 16.1093 101.06 15.8453 100.417C15.7133 100.095 15.5877 99.8121 15.4688 99.5832C15.3563 99.3664 15.2275 99.1529 15.0783 99.0072C14.3008 98.2483 13.756 97.724 12.8652 97.2144C11.9909 96.7142 10.7959 96.2348 8.7202 95.5093C6.73814 94.8166 4.9084 93.4279 3.52365 92.1124C2.83471 91.4579 2.2642 90.8295 1.84909 90.3291C1.42036 89.8124 1.18749 89.4682 1.14118 89.3736L1.14065 89.3724L1.13921 89.3691C1.13796 89.3661 1.13631 89.362 1.1343 89.3565C1.13024 89.3453 1.12531 89.3303 1.11978 89.3109C1.10862 89.2718 1.09675 89.221 1.08501 89.1581C1.06146 89.0319 1.04124 88.8726 1.02642 88.6887C0.996792 88.3213 0.990702 87.8808 1.01479 87.4589C1.03922 87.031 1.09314 86.6514 1.17141 86.3927C1.18894 86.3348 1.20577 86.2895 1.22058 86.2551C1.27797 86.2704 1.34938 86.2934 1.43619 86.3259C1.63652 86.401 1.89593 86.5182 2.21818 86.6821C2.86184 87.0095 3.72293 87.506 4.80571 88.1763L5.41363 87.389C3.23303 85.3133 2.04537 84.1652 1.81532 83.9147C1.81335 83.9081 1.81023 83.8936 1.80991 83.8684C1.80918 83.8114 1.82472 83.7317 1.86426 83.6487C1.94267 83.4843 2.05116 83.418 2.13392 83.408C2.1452 83.411 2.16529 83.4168 2.19601 83.4272C2.26805 83.4518 2.36687 83.491 2.49336 83.5461C2.74534 83.6557 3.07746 83.8153 3.46982 84.0113C4.0043 84.2782 4.63456 84.6046 5.30406 84.9514C5.61797 85.114 5.94051 85.281 6.26586 85.4485C7.2795 85.9703 8.31722 86.4947 9.17553 86.8841C9.60406 87.0785 9.99694 87.2435 10.3248 87.3581C10.4886 87.4154 10.6438 87.4629 10.7838 87.4949C10.9166 87.5252 11.0681 87.5495 11.2126 87.5393C11.4179 87.5247 11.5542 87.3994 11.6216 87.2881C11.6778 87.1952 11.6931 87.1059 11.6988 87.0634C11.7108 86.9724 11.7032 86.8813 11.6957 86.8174C11.6793 86.6772 11.6406 86.4912 11.5871 86.2727C11.4784 85.8286 11.2901 85.1755 11.0252 84.3198L10.916 83.967L10.5468 83.9676C9.76816 83.9689 9.16787 83.6693 8.701 83.0465C8.37527 82.612 8.18304 82.2333 8.09255 81.9049L12.2224 82.5404Z" fill="#005E7D"/>
<path fill-rule="evenodd" clip-rule="evenodd" d="M11.0035 84.3205L10.0436 84.6009L10.7398 86.9843C9.68687 88.3112 9.63947 90.0088 10.4279 91.949L11.3544 91.5725C10.6105 89.7421 10.7808 88.4142 11.6656 87.4382L11.8536 87.2308L11.0035 84.3205Z" fill="#005E7D"/>
<path fill-rule="evenodd" clip-rule="evenodd" d="M72.8675 79.0218C64.5242 79.0218 57.0574 79.9373 50.4673 81.7682L50.4675 81.8441C49.411 82.1213 44.8852 83.7136 42.9328 90.9911C41.4541 96.5033 38.676 103.093 34.5986 110.76L25.645 97.659L18.6985 110.76C22.3397 118.183 25.3097 123.629 27.6083 127.098C31.0562 132.3 38.8551 132.3 44.3677 125.501C46.2722 123.152 48.3072 120.227 50.4724 116.728L50.4782 137.422H93.1471L107.326 137.585C110.701 137.585 113.455 136.903 115.589 135.539C118.79 133.493 120.189 127.34 118.85 123.922C117.476 120.413 116.147 117.562 114.863 115.369C106.813 100.258 101.475 90.9934 98.8489 87.5751C97.3296 85.5977 94.9648 83.5197 93.1471 82.2697C91.3295 81.0197 85.3825 79.0218 72.8675 79.0218ZM93.1471 111.506C97.7604 118.449 100.447 122.211 101.208 122.792C101.338 122.892 98.6514 122.892 93.1471 122.792V111.506Z" fill="#F2A62C" fill-opacity="0.7"/>
<path d="M78.6611 78.8799H65.3313V137.281H78.6611V78.8799Z" fill="white"/>
<path fill-rule="evenodd" clip-rule="evenodd" d="M65.3313 79.7924L71.9962 85.9087L65.3313 89.2217V79.7924Z" fill="white"/>
<path fill-rule="evenodd" clip-rule="evenodd" d="M64.8313 78.655L72.8705 86.0325L64.8313 90.0286V78.655ZM65.8313 80.9299V88.4148L71.1218 85.785L65.8313 80.9299Z" fill="#005E7D"/>
<path fill-rule="evenodd" clip-rule="evenodd" d="M78.661 79.7924L71.9961 85.9087L78.661 89.2217V79.7924Z" fill="white"/>
<path fill-rule="evenodd" clip-rule="evenodd" d="M79.161 78.655L71.1218 86.0325L79.161 90.0286V78.655ZM78.161 80.9299V88.4148L72.8705 85.785L78.161 80.9299Z" fill="#005E7D"/>
<path fill-rule="evenodd" clip-rule="evenodd" d="M65.3314 79.1841V79.4167L65.3354 79.4168C65.4575 83.0048 68.393 85.8759 71.9963 85.8759C75.4732 85.8759 78.3283 83.2027 78.6341 79.7917L78.6612 79.7925V79.1841V67.0173H65.3314V79.1841Z" fill="white"/>
<path fill-rule="evenodd" clip-rule="evenodd" d="M64.8314 66.5173H79.1612V80.3068L79.0747 80.3043C78.5387 83.743 75.5753 86.3759 71.9963 86.3759C68.2796 86.3759 65.2266 83.5364 64.8669 79.9038L64.8314 79.9028V66.5173ZM78.1612 79.467V67.5173H65.8314V79.2922L65.8351 79.3998C65.9481 82.7212 68.6652 85.3759 71.9963 85.3759C75.2104 85.3759 77.8531 82.9043 78.1361 79.7471L78.1612 79.467Z" fill="#005E7D"/>
<path fill-rule="evenodd" clip-rule="evenodd" d="M82.1921 65.1374C82.1876 67.5222 81.2209 69.6793 79.6615 71.2392C78.1021 72.799 75.95 73.7616 73.5733 73.7571C71.1265 73.7267 68.9378 72.7307 67.3597 71.1403C65.7745 69.5426 64.8052 67.3451 64.8092 64.9231L64.8238 56.1288C64.8277 53.7174 65.8038 51.5353 67.3793 49.9561C68.9547 48.3769 71.1297 47.4006 73.5314 47.4006C75.9276 47.4006 78.097 48.3758 79.6673 49.9524C81.2376 51.529 82.2089 53.7072 82.2089 56.1133L82.1921 65.1374Z" fill="white"/>
<path fill-rule="evenodd" clip-rule="evenodd" d="M73.5314 47.9006C71.2681 47.9006 69.219 48.82 67.7332 50.3093C66.2475 51.7985 65.3275 53.8553 65.3238 56.1296L65.3092 64.9239C65.3054 67.2093 66.2194 69.2811 67.7147 70.7881C69.2025 72.2875 71.266 73.2277 73.5768 73.2571C75.8139 73.2606 77.839 72.3549 79.3079 70.8857C80.7774 69.4157 81.6879 67.384 81.6921 65.1365L81.7089 56.1133C81.7089 56.113 81.7089 56.1127 81.7089 56.1124C81.7086 53.8439 80.7934 51.7916 79.313 50.3052C77.8325 48.8187 75.789 47.9006 73.5314 47.9006ZM67.0253 49.603C68.6905 47.9338 70.9912 46.9006 73.5314 46.9006C76.0662 46.9006 78.3615 47.9328 80.0216 49.5996C81.6816 51.2663 82.7089 53.5699 82.7089 56.1133V56.1143L82.6921 65.1384C82.6874 67.6604 81.6644 69.9429 80.0151 71.5927C78.3657 73.2425 76.0876 74.2618 73.5723 74.2571L73.567 74.2571V74.2571C70.9854 74.225 68.6726 73.1732 67.0048 71.4924C65.3296 69.8042 64.305 67.481 64.3092 64.9223L64.3238 56.128C64.328 53.5795 65.3601 51.2721 67.0253 49.603Z" fill="#005E7D"/>
<path fill-rule="evenodd" clip-rule="evenodd" d="M73.698 64.2931V59.8986H74.698V64.2931H73.698Z" fill="#005E7D"/>
<path fill-rule="evenodd" clip-rule="evenodd" d="M82.0439 64.282L82.0421 65.1373C82.0326 69.8281 78.2375 73.6231 73.5654 73.6136C73.5388 73.6135 73.5123 73.6133 73.4857 73.613C68.7564 73.5586 64.9535 69.6894 64.9621 64.9407L64.9632 64.3235L82.0439 64.282Z" fill="#005E7D"/>
<path d="M69.9698 59.5964C70.3564 59.5964 70.6698 59.283 70.6698 58.8964C70.6698 58.5098 70.3564 58.1964 69.9698 58.1964C69.5832 58.1964 69.2698 58.5098 69.2698 58.8964C69.2698 59.283 69.5832 59.5964 69.9698 59.5964Z" fill="#005E7D"/>
<path d="M77.8465 59.5964C78.2331 59.5964 78.5465 59.283 78.5465 58.8964C78.5465 58.5098 78.2331 58.1964 77.8465 58.1964C77.4599 58.1964 77.1465 58.5098 77.1465 58.8964C77.1465 59.283 77.4599 59.5964 77.8465 59.5964Z" fill="#005E7D"/>
<path fill-rule="evenodd" clip-rule="evenodd" d="M64.6928 63.3566C64.7048 63.392 64.734 58.507 64.7011 58.5006C63.378 58.5029 62.3043 59.198 62.302 60.539C62.2997 61.8799 63.3698 63.3589 64.6928 63.3566Z" fill="white"/>
<path fill-rule="evenodd" clip-rule="evenodd" d="M64.7493 58.0005L64.7974 58.0099C64.9795 58.0457 65.0758 58.1657 65.1051 58.2058C65.1415 58.2556 65.1601 58.3006 65.1677 58.3201C65.184 58.3617 65.1909 58.3966 65.193 58.4072C65.1985 58.4346 65.2008 58.4581 65.2017 58.4671C65.2039 58.4899 65.2052 58.5144 65.2061 58.5345C65.208 58.5775 65.2094 58.6358 65.2106 58.7038C65.213 58.8415 65.2145 59.0355 65.2154 59.2652C65.2171 59.7253 65.2161 60.3369 65.2138 60.9462C65.2115 61.5557 65.2077 62.164 65.2038 62.618C65.2018 62.8448 65.1998 63.0339 65.1979 63.1656C65.197 63.2311 65.196 63.284 65.1951 63.3207C65.1947 63.3382 65.1941 63.3559 65.1934 63.3704C65.1932 63.3751 65.1924 63.3907 65.1905 63.4082C65.19 63.4133 65.189 63.4223 65.1872 63.4334L65.1872 63.4336C65.1861 63.4407 65.1819 63.4672 65.1722 63.4997C65.1661 63.5187 65.1459 63.5687 65.1304 63.5991C65.0942 63.6551 64.9399 63.7916 64.8094 63.843C64.7732 63.8449 64.7339 63.8417 64.6937 63.8348L64.6937 63.8566C63.8376 63.8581 63.1081 63.3822 62.611 62.7652C62.1135 62.1475 61.8007 61.3335 61.802 60.5381C61.8034 59.719 62.1393 59.0639 62.697 58.6249C63.2406 58.197 63.9578 58.0019 64.7002 58.0006L64.7493 58.0005ZM63.3155 59.4107C63.005 59.6551 62.8029 60.018 62.802 60.5398C62.8011 61.0854 63.0221 61.6814 63.3898 62.1378C63.6282 62.4338 63.908 62.6482 64.2024 62.7623C64.2029 62.7137 64.2034 62.6626 64.2038 62.6094C64.2077 62.1572 64.2115 61.5505 64.2138 60.9424C64.2161 60.334 64.2171 59.7254 64.2154 59.2689C64.2151 59.1873 64.2147 59.1108 64.2142 59.0402C63.8503 59.1014 63.5441 59.2308 63.3155 59.4107Z" fill="#005E7D"/>
<path fill-rule="evenodd" clip-rule="evenodd" d="M71.3098 66.2445C71.1098 67.2624 71.3355 67.9801 71.9871 68.3974C72.6386 68.8148 73.4275 68.7016 74.3536 68.0579L71.3098 66.2445Z" fill="white"/>
<path fill-rule="evenodd" clip-rule="evenodd" d="M62.5232 59.3326V46.5484C62.5232 42.9349 64.5308 40.2866 69.8758 40.2503C72.8768 40.23 77.2606 41.9856 80.5282 44.1256C80.7782 42.7854 81.9496 41.7712 83.357 41.7712C84.9464 41.7712 86.235 43.0649 86.235 44.6608C86.235 44.8054 86.2244 44.9475 86.204 45.0864C88.1038 44.8978 89.786 45.4993 90.5919 46.8458C91.8845 49.0057 90.4327 52.2647 87.3492 54.1249C86.4988 54.6379 85.613 54.991 84.7489 55.188C82.3394 55.9044 80.0073 55.6448 77.7524 54.4089C75.981 53.4381 74.8284 52.4802 73.8785 51.6908L73.8785 51.6908C72.5322 50.5719 71.593 49.7914 69.8758 49.7914C66.947 49.7914 65.3421 53.0619 65.0292 54.8311C64.8206 56.0105 64.8206 57.2932 65.0292 58.6792C64.2784 58.6848 63.7635 58.724 63.4845 58.7968C63.2054 58.8695 62.885 59.0481 62.5232 59.3326Z" fill="#005E7D"/>
<path fill-rule="evenodd" clip-rule="evenodd" d="M71.1932 137.279L71.3442 86.0265L72.3442 86.0294L72.1932 137.282L71.1932 137.279Z" fill="#005E7D"/>
<path fill-rule="evenodd" clip-rule="evenodd" d="M86.8433 130.589C77.7445 132.416 72.1881 133.85 70.1742 134.892C68.1602 135.934 68.1602 136.73 70.1742 137.281H87.1436L86.8433 130.589Z" fill="white"/>
<path fill-rule="evenodd" clip-rule="evenodd" d="M87.3167 129.984L87.6665 137.781H70.107L70.0423 137.763C69.5187 137.62 69.0809 137.45 68.7634 137.237C68.449 137.027 68.1637 136.711 68.1637 136.271C68.1637 135.858 68.4188 135.519 68.7042 135.258C69.0026 134.986 69.4241 134.717 69.9444 134.448C71.0075 133.898 72.951 133.267 75.7269 132.551C78.5176 131.83 82.1913 131.013 86.7449 130.099L87.3167 129.984ZM75.9769 133.519C73.1964 134.237 71.3547 134.844 70.4039 135.336C69.9173 135.588 69.5835 135.809 69.3784 135.997C69.2055 136.154 69.1718 136.243 69.1653 136.266C69.1756 136.286 69.2108 136.334 69.3192 136.406C69.4969 136.525 69.7946 136.654 70.2423 136.781H86.6206L86.37 131.194C82.0891 132.06 78.6257 132.835 75.9769 133.519ZM69.1615 136.256C69.1617 136.256 69.1625 136.258 69.1631 136.262C69.1615 136.258 69.1612 136.256 69.1615 136.256Z" fill="#005E7D"/>
<path fill-rule="evenodd" clip-rule="evenodd" d="M130.03 0H113.606C107.562 0 102.662 4.92106 102.662 10.9902V11.3257C102.662 17.3957 107.562 22.316 113.606 22.316H113.883L117.97 26.4206L122.058 22.316H130.03C136.074 22.316 140.974 17.3957 140.974 11.3257V10.9902C140.974 4.92106 136.074 0 130.03 0Z" fill="#73E3FF"/>
<path fill-rule="evenodd" clip-rule="evenodd" d="M118.654 11.1579C118.654 11.8789 118.071 12.4638 117.354 12.4638C116.636 12.4638 116.053 11.8789 116.053 11.1579C116.053 10.4369 116.636 9.85202 117.354 9.85202C118.071 9.85202 118.654 10.4369 118.654 11.1579Z" fill="white"/>
<path fill-rule="evenodd" clip-rule="evenodd" d="M123.326 11.1579C123.326 11.8789 122.743 12.4638 122.025 12.4638C121.307 12.4638 120.725 11.8789 120.725 11.1579C120.725 10.4369 121.307 9.85202 122.025 9.85202C122.743 9.85202 123.326 10.4369 123.326 11.1579Z" fill="white"/>
<path fill-rule="evenodd" clip-rule="evenodd" d="M127.582 11.1579C127.582 11.8789 127 12.4638 126.282 12.4638C125.564 12.4638 124.982 11.8789 124.982 11.1579C124.982 10.4369 125.564 9.85202 126.282 9.85202C127 9.85202 127.582 10.4369 127.582 11.1579Z" fill="white"/>
<path fill-rule="evenodd" clip-rule="evenodd" d="M153.167 15.8389H136.742C130.698 15.8389 125.799 20.7599 125.799 26.8291V27.1646C125.799 33.2346 130.698 38.1548 136.742 38.1548H137.019L141.106 42.2594L145.194 38.1548H153.167C159.211 38.1548 164.11 33.2346 164.11 27.1646V26.8291C164.11 20.7599 159.211 15.8389 153.167 15.8389Z" fill="#1DC4F2"/>
<path fill-rule="evenodd" clip-rule="evenodd" d="M141.79 26.9968C141.79 27.7178 141.208 28.3027 140.49 28.3027C139.772 28.3027 139.19 27.7178 139.19 26.9968C139.19 26.2758 139.772 25.6909 140.49 25.6909C141.208 25.6909 141.79 26.2758 141.79 26.9968Z" fill="white"/>
<path fill-rule="evenodd" clip-rule="evenodd" d="M146.462 26.9968C146.462 27.7178 145.88 28.3027 145.162 28.3027C144.444 28.3027 143.861 27.7178 143.861 26.9968C143.861 26.2758 144.444 25.6909 145.162 25.6909C145.88 25.6909 146.462 26.2758 146.462 26.9968Z" fill="white"/>
<path fill-rule="evenodd" clip-rule="evenodd" d="M150.719 26.9968C150.719 27.7178 150.137 28.3027 149.419 28.3027C148.701 28.3027 148.118 27.7178 148.118 26.9968C148.118 26.2758 148.701 25.6909 149.419 25.6909C150.137 25.6909 150.719 26.2758 150.719 26.9968Z" fill="white"/>
<path d="M297.473 15.5045L297.755 15.5069C306.752 15.658 314 23.0303 314 32.1023L313.997 32.3852C313.847 41.4212 306.506 48.6992 297.473 48.6992L297.192 48.6969C288.194 48.5459 280.947 41.1743 280.947 32.1023C280.947 22.9358 288.345 15.5045 297.473 15.5045Z" fill="#44CF50"/>
<path fill-rule="evenodd" clip-rule="evenodd" d="M292.616 26.5669C292.413 26.5669 292.224 26.6594 292.1 26.8203C291.978 26.9782 291.936 27.1783 291.984 27.3694C292.537 29.5547 294.112 32.0709 296.307 34.2753C298.5 36.4777 301.007 38.0597 303.184 38.6148C303.375 38.6641 303.574 38.6218 303.731 38.4981C303.891 38.3734 303.983 38.1844 303.983 37.9802V36.4717C303.983 36.0584 303.739 35.6843 303.359 35.5213L302.04 34.9511C301.657 34.7862 301.223 34.7983 300.849 34.9863L300.098 35.3635C299.657 35.5847 299.121 35.5274 298.734 35.2146C297.436 34.1687 296.204 32.9388 295.353 31.8406C295.052 31.4524 294.998 30.9194 295.216 30.4819L295.599 29.7136C295.785 29.3385 295.798 28.9031 295.633 28.5179L295.066 27.1924C294.903 26.8123 294.531 26.5669 294.118 26.5669H292.616ZM303.342 39.6406C303.207 39.6406 303.072 39.6235 302.938 39.5903C300.591 38.9909 297.917 37.3134 295.599 34.9863C293.28 32.6582 291.608 29.9721 291.013 27.6168C290.888 27.123 290.996 26.6071 291.309 26.2028C291.625 25.7945 292.101 25.5612 292.616 25.5612H294.118C294.932 25.5612 295.664 26.0449 295.985 26.7952L296.553 28.1206C296.835 28.7783 296.814 29.5225 296.494 30.1632L296.112 30.9315C296.066 31.026 296.078 31.1366 296.144 31.2231C296.937 32.2469 298.14 33.4456 299.361 34.4292C299.445 34.4976 299.555 34.5117 299.65 34.4634L300.402 34.0863C301.039 33.7655 301.78 33.7443 302.436 34.0269V34.0269L303.756 34.5971C304.502 34.92 304.985 35.6561 304.985 36.4717V37.9802C304.985 38.4971 304.751 38.9748 304.346 39.2926C304.053 39.5209 303.702 39.6406 303.342 39.6406V39.6406Z" fill="white"/>
</svg>
