<?xml version="1.0" encoding="UTF-8"?>
<svg width="241px" height="163px" viewBox="0 0 241 163" version="1.1" xmlns="http://www.w3.org/2000/svg" xmlns:xlink="http://www.w3.org/1999/xlink">
    <!-- Generator: Sketch 60 (88103) - https://sketch.com -->
    <title>Contact_a_person</title>
    <desc>Created with Sketch.</desc>
    <g id="Contact_a_person" stroke="none" stroke-width="1" fill="none" fill-rule="evenodd">
        <g id="Contact-a-person-1.0" transform="translate(-797.000000, -364.000000)">
            <g id="App" transform="translate(162.000000, 101.000000)">
                <g id="content" transform="translate(550.000000, 76.000000)">
                    <g id="Contact-a-person" transform="translate(85.000000, 187.000000)">
                        <path d="M84.91,128.12 C83.56,121.37 78.84,116.58 72.1,116.619751 C68.9550326,116.634321 65.938993,117.871579 63.69,120.07 C63.01,120.73 55.76,127.54 48.69,134.15 L35.05,147 L35.05,147 C33.5497405,148.347803 33.0424726,150.484629 33.776878,152.362927 C34.5112833,154.241224 36.3334165,155.467266 38.35,155.44 C40.17,155.44 42.62,152.98 42.62,152.98 L51.83,142.87 C53.57,149.02 60.33,152.49 66.41,152.68 C71.5665161,152.706395 76.5226926,150.685081 80.19,147.06 C85.16,142.2 86.4,134.74 84.91,128.12 Z M45.76,141.87 L36.54,150.53 C36.4480171,150.61732 36.3267987,150.667233 36.2,150.670061 C36.059424,150.672218 35.9246679,150.613945 35.83,150.51 C35.7359359,150.417836 35.6829286,150.29169 35.6829286,150.16 C35.6829286,150.02831 35.7359359,149.902164 35.83,149.81 L45.06,141.14 C45.1521636,141.045936 45.2783103,140.992929 45.41,140.992929 C45.5416897,140.992929 45.6678364,141.045936 45.76,141.14 C45.8609752,141.234536 45.9182764,141.366678 45.9182764,141.505 C45.9182764,141.643322 45.8609752,141.775464 45.76,141.87 Z M63.76,143.5 C63.12294,143.577975 62.4818113,143.618045 61.84,143.62 C57.9233686,143.748761 54.2290651,141.802791 52.12,138.5 C52.0093759,138.294073 52.0596173,138.03868 52.24,137.89 L56.42,134.25 C56.6310973,134.071466 56.9460078,134.093642 57.13,134.3 C57.3085343,134.511097 57.2863575,134.826008 57.08,135.01 L53.21,138.37 C54,139.55 57.06,143.37 63.63,142.51 C71.15,141.51 70.87,133.88 70.85,133.56 C70.8438761,133.283901 71.0546462,133.051176 71.33,133.03 C71.4626365,133.024588 71.5919809,133.072143 71.6895237,133.162183 C71.7870666,133.252222 71.8448005,133.377355 71.85,133.51 C71.9,133.6 72.22,142.43 63.8,143.5 L63.76,143.5 Z" id="Shape" fill="#16B1E0" fill-rule="nonzero" opacity="0.5"></path>
                        <line x1="0.5" y1="161.72" x2="240.5" y2="161.72" id="Path" stroke="#48E33D" stroke-linecap="round" stroke-linejoin="round"></line>
                        <path d="M82.9,122.32 C82.44,122.32 87.9,122.94 87.9,122.94 L84.53,126" id="Path" fill="#16B1E0" fill-rule="nonzero"></path>
                        <circle id="Oval" stroke="#16B1E0" fill="#FFFFFF" fill-rule="nonzero" stroke-linecap="round" cx="75.81" cy="125.19" r="2.85"></circle>
                        <circle id="Oval" stroke="#16B1E0" fill="#16B1E0" fill-rule="nonzero" stroke-linecap="round" stroke-linejoin="round" cx="77.09" cy="124.73" r="1"></circle>
                        <polyline id="Path" stroke="#16B1E0" stroke-linecap="round" stroke-linejoin="round" points="63.63 152.77 63.71 159.38 67.48 161.56"></polyline>
                        <line x1="67.68" y1="159.4" x2="64.06" y2="159.42" id="Path" stroke="#16B1E0" stroke-linecap="round" stroke-linejoin="round"></line>
                        <path d="M211.17,94.51 C210.706218,93.2119032 209.708846,92.1744914 208.43,91.66 L208.43,91.66 L191.2,84.27 L191.02,84.19 C189.33,88.66 185.49,92.78 179.54,96.47 C179.54,96.47 178.43,96.96 178.24,96.29 C178.17,96.03 179.02,95.62 179.02,95.62 C185.37,91.68 188.67,87.62 190.11,83.8 L177.11,78.23 L170.36,89.47 C170.36,89.47 169.88,90.35 169.43,90.03 C168.98,89.71 169.32,89.24 169.51,88.96 L176.18,77.83 L172.32,76.16 C169.452672,74.8600901 166.191149,74.7309209 163.23,75.8 C156.88,78.06 154.09,84.18 155.14,90.99 C156,97.71 159.72,104.3 166.04,107.16 C170.72644,109.322901 176.081831,109.528047 180.92,107.73 C186.56,105.47 191.72,99.89 191.25,93.53 L203.37,99.87 C203.37,99.87 206.51,101.33 208.23,100.72 C210.756053,99.8162968 212.072019,97.0366548 211.17,94.51 L211.17,94.51 Z" id="Path" fill="#16B1E0" fill-rule="nonzero"></path>
                        <line x1="62.3" y1="160.82" x2="63.71" y2="159.38" id="Path" stroke="#16B1E0" stroke-linecap="round" stroke-linejoin="round"></line>
                        <polyline id="Path" stroke="#16B1E0" stroke-linecap="round" stroke-linejoin="round" points="71.41 152.72 71.5 159.33 75.26 161.51"></polyline>
                        <line x1="75.46" y1="159.35" x2="71.84" y2="159.38" id="Path" stroke="#16B1E0" stroke-linecap="round" stroke-linejoin="round"></line>
                        <line x1="70.08" y1="160.77" x2="71.5" y2="159.33" id="Path" stroke="#16B1E0" stroke-linecap="round" stroke-linejoin="round"></line>
                        <path d="M155,84.85 C155.42,84.65 150.5,87.15 150.5,87.15 L154.73,88.87" id="Path" fill="#16B1E0" fill-rule="nonzero" opacity="0.5"></path>
                        <circle id="Oval" stroke="#16B1E0" fill="#FFFFFF" fill-rule="nonzero" cx="162.68" cy="85.11" r="2.85"></circle>
                        <circle id="Oval" fill="#16B1E0" fill-rule="nonzero" cx="161.14" cy="86.09" r="1"></circle>
                        <polyline id="Path" stroke="#16B1E0" stroke-linecap="round" stroke-linejoin="round" points="177.94 108.89 177.57 115.48 173.72 117.5"></polyline>
                        <line x1="173.61" y1="115.33" x2="177.22" y2="115.51" id="Path" stroke="#16B1E0" stroke-linecap="round" stroke-linejoin="round"></line>
                        <line x1="178.92" y1="116.98" x2="177.57" y2="115.49" id="Path" stroke="#16B1E0" stroke-linecap="round" stroke-linejoin="round"></line>
                        <polyline id="Path" stroke="#16B1E0" stroke-linecap="round" stroke-linejoin="round" points="170.16 108.5 169.8 115.1 165.94 117.12"></polyline>
                        <line x1="165.83" y1="114.95" x2="169.45" y2="115.13" id="Path" stroke="#16B1E0" stroke-linecap="round" stroke-linejoin="round"></line>
                        <line x1="171.15" y1="116.59" x2="169.8" y2="115.1" id="Path" stroke="#16B1E0" stroke-linecap="round" stroke-linejoin="round"></line>
                        <line x1="208.45" y1="95.03" x2="196.82" y2="90.04" id="Path" stroke="#16B1E0"></line>
                        <path d="M170.36,89.47 L184.8,65.4 C184.8,65.4 202.14,81.26 179,95.62" id="Path" fill="#16B1E0" fill-rule="nonzero"></path>
                        <path d="M191,63.17 C191,63.17 198.63,69.87 196.78,78.8" id="Path" stroke="#16B1E0" stroke-linecap="round" stroke-linejoin="round"></path>
                        <path d="M192,56.92 C192.86,56.92 200.4,62.22 201,71.99" id="Path" stroke="#16B1E0" stroke-linecap="round" stroke-linejoin="round"></path>
                        <line x1="190.26" y1="161.72" x2="209.8" y2="145.84" id="Path" stroke="#48E33D" stroke-linecap="round" stroke-linejoin="round"></line>
                        <line x1="197.35" y1="155.77" x2="193.37" y2="144.57" id="Path" stroke="#48E33D" stroke-linecap="round" stroke-linejoin="round"></line>
                        <path d="M204.05,144 C202.75599,141.545032 202.22989,138.757746 202.54,136 C202.841471,133.937049 203.645008,131.979716 204.88,130.3 C205.820287,129.05279 206.974941,127.982789 208.29,127.14 C208.650947,127.806226 208.945691,128.506242 209.17,129.23 C209.855055,131.109601 210.071305,133.127932 209.8,135.11 C209.493186,137.173202 208.686413,139.130054 207.45,140.81 C206.525679,142.076202 205.372483,143.158171 204.05,144 Z" id="Path" fill="#48E33D" fill-rule="nonzero" opacity="0.5"></path>
                        <path d="M18.52,157.31 C17.28534,157.087858 16.0736145,156.753127 14.9,156.31 C11.7492608,155.239658 8.90712973,153.416987 6.62,151 C4.24364794,148.476419 2.52628193,145.405768 1.62,142.06 C0.97434499,139.550937 0.781323222,136.946836 1.05,134.37 C2.28653081,134.583857 3.49903281,134.918802 4.67,135.37 C7.84087862,136.423473 10.7023404,138.244091 13,140.67 C15.3790397,143.19161 17.0968047,146.262974 18,149.61 C18.6631379,152.119962 18.8396479,154.733668 18.52,157.31 L18.52,157.31 Z" id="Path" fill="#48E33D" fill-rule="nonzero" opacity="0.5"></path>
                        <path d="M214.22,145.12 C214.729394,143.97032 215.341898,142.869153 216.05,141.83 C217.821635,139.02109 220.251926,136.686912 223.13,135.03 C226.142029,133.321402 229.528287,132.380393 232.99,132.29 C235.580271,132.246823 238.157424,132.666754 240.6,133.53 C240.098615,134.683654 239.485703,135.785556 238.77,136.82 C237.001211,139.63123 234.570277,141.966026 231.69,143.62 C228.68253,145.330848 225.298922,146.272075 221.84,146.36 C219.244244,146.435192 216.657986,146.014331 214.22,145.12 Z" id="Path" fill="#48E33D" fill-rule="nonzero" opacity="0.5"></path>
                        <path d="M71.82,39.42 C71.3557405,39.4181277 70.8917225,39.4414955 70.43,39.49 C69.7190904,29.4148845 61.9366435,21.2729966 51.9038657,20.1082155 C41.8710879,18.9434345 32.4302804,25.0857446 29.43,34.73 C29.17,34.73 28.9,34.73 28.63,34.73 C20.0695865,34.3351166 12.809884,40.9545866 12.4150004,49.515 C12.0201168,58.0754135 18.6395865,65.3351162 27.2,65.73 L27.26,65.73 C27.71,65.73 28.16,65.79 28.63,65.79 C29.1,65.79 29.54,65.79 29.99,65.73 L70.47,65.73 C70.9233333,65.77 71.3733333,65.79 71.82,65.79 C76.6027031,65.9219272 81.0796599,63.4457586 83.5099084,59.3244061 C85.9401569,55.2030536 85.9401569,50.0869464 83.5099084,45.9655939 C81.0796599,41.8442414 76.6027031,39.3680728 71.82,39.5 L71.82,39.42 Z" id="cloud" fill="#16B1E0" fill-rule="nonzero" opacity="0.5"></path>
                        <path d="M118.06,10.35 C117.81,10.35 117.56,10.35 117.32,10.35 C116.929401,5.00492728 112.791312,0.693876519 107.466702,0.0848605186 C102.142092,-0.524155482 97.1374346,2.74116995 95.55,7.86 L95.12,7.86 C90.6992421,7.82748159 87.0425312,11.2933348 86.8382538,15.7094901 C86.6339764,20.1256455 89.9551179,23.9142721 94.36,24.29 L94.36,24.29 C94.6,24.29 94.85,24.29 95.09,24.29 C95.33,24.29 95.58,24.29 95.82,24.29 L117.31,24.29 C117.55,24.29 117.79,24.29 118.03,24.29 C120.662915,24.51312 123.197104,23.2346306 124.582233,20.9844211 C125.967362,18.7342117 125.967362,15.8957883 124.582233,13.6455789 C123.197104,11.3953694 120.662915,10.11688 118.03,10.34 L118.06,10.35 Z" id="cloud-2" fill="#16B1E0" fill-rule="nonzero" opacity="0.25"></path>
                    </g>
                </g>
            </g>
        </g>
    </g>
</svg>