<?xml version="1.0" encoding="UTF-8"?>
<svg width="68px" height="72px" viewBox="0 0 68 72" version="1.1" xmlns="http://www.w3.org/2000/svg" xmlns:xlink="http://www.w3.org/1999/xlink">
    <!-- Generator: Sketch 50.2 (55047) - http://www.bohemiancoding.com/sketch -->
    <title>contact_94</title>
    <desc>Created with Sketch.</desc>
    <defs></defs>
    <g id="contact_94" stroke="none" stroke-width="1" fill="none" fill-rule="evenodd">
        <g id="Empty-state-3.0" transform="translate(-334.000000, -327.000000)" fill="#FFFFFF">
            <g id="App" transform="translate(208.000000, 120.000000)">
                <g id="sidebar">
                    <g id="item" transform="translate(39.000000, 207.000000)">
                        <g id="illustration" transform="translate(41.000000, 0.000000)">
                            <g id="contact_94" transform="translate(46.000000, 0.000000)">
                                <path d="M0,23.5076096 C0,10.7876096 10.11,0.0916095849 22.83,0.000609584899 C33.108,-0.0733904151 41.834,6.59760958 44.858,15.8476096 C43.168,15.3016096 41.368,14.9996096 39.497,14.9996096 C29.848,14.9996096 21.997,22.8506096 21.997,32.4996096 C21.997,32.7766096 22.221,32.9996096 22.497,32.9996096 C22.773,32.9996096 22.997,32.7766096 22.997,32.4996096 C22.997,23.4026096 30.399,15.9996096 39.497,15.9996096 C41.51,15.9996096 43.431,16.3796096 45.215,17.0426096 C45.724,18.9426096 45.998,20.9376096 45.998,22.9986096 C45.998,33.6306096 38.781,42.5726096 28.98,45.2056096 C28.584,45.3126096 28.184,45.4096096 27.778,45.4956096 C26.236,45.8216096 24.639,45.9966096 22.999,45.9966096 L22.488,45.9966096 C10.068,45.9966096 0,35.9276096 0,23.5076096 Z" id="fill" opacity="0.400000006"></path>
                                <path d="M66.6986,70.5264 C66.4616,70.8274 66.1126,71.0004 65.7436,71.0004 L13.2456,71.0004 C12.8766,71.0004 12.5276,70.8274 12.2906,70.5264 C12.0266,70.1924 11.9326,69.7594 12.0336,69.3384 L14.0896,60.7254 C15.5956,54.4104 20.9806,50.0004 27.1846,50.0004 L39.4946,50.0004 L51.8036,50.0004 C58.0086,50.0004 63.3926,54.4104 64.8996,60.7254 L66.9556,69.3384 C67.0556,69.7594 66.9626,70.1924 66.6986,70.5264 M67.9276,69.1054 L65.8726,60.4934 C64.2586,53.7264 58.4726,49.0004 51.8036,49.0004 L45.2706,49.0004 C52.0866,46.6064 56.9946,40.1234 56.9946,32.5004 C56.9946,24.7214 51.8896,18.1184 44.8556,15.8474 C44.9846,16.2414 45.1046,16.6394 45.2126,17.0424 C51.4966,19.3754 55.9946,25.4144 55.9946,32.5004 C55.9946,41.5974 48.5926,49.0004 39.4946,49.0004 C35.6016,49.0004 31.9016,47.6264 28.9776,45.2064 C28.5816,45.3134 28.1806,45.4104 27.7756,45.4964 C29.4976,47.0494 31.5086,48.2344 33.6826,49.0004 L27.1846,49.0004 C20.5156,49.0004 14.7306,53.7264 13.1166,60.4934 L11.0606,69.1054 C10.8886,69.8274 11.0516,70.5714 11.5056,71.1454 C11.9336,71.6884 12.5686,72.0004 13.2456,72.0004 L65.7436,72.0004 C66.4206,72.0004 67.0546,71.6884 67.4836,71.1454 C67.9376,70.5714 68.0996,69.8274 67.9276,69.1054" id="fill"></path>
                            </g>
                        </g>
                    </g>
                </g>
            </g>
        </g>
    </g>
</svg>