<svg width="10" height="10" viewBox="0 0 10 10" fill="none" xmlns="http://www.w3.org/2000/svg">
<path fill-rule="evenodd" clip-rule="evenodd" d="M8.67 2.99607H8.5C8.224 2.99607 8 3.22007 8 3.49607C8 3.77207 8.224 3.99607 8.5 3.99607H8.67C8.852 3.99607 9 4.14407 9 4.32607V8.66607C9 8.84907 8.852 8.99607 8.67 8.99607H1.33C1.148 8.99607 1 8.84907 1 8.66607V4.32607C1 4.14407 1.148 3.99607 1.33 3.99607H1.5C1.776 3.99607 2 3.77207 2 3.49607C2 3.22007 1.776 2.99607 1.5 2.99607H1.33C0.596 2.99607 0 3.59207 0 4.32607V8.66607C0 9.40007 0.596 9.99607 1.33 9.99607H8.67C9.405 9.99607 10 9.40007 10 8.66607V4.32607C10 3.59207 9.405 2.99607 8.67 2.99607ZM3.3536 2.85197L4.4996 1.70597V5.49797C4.4996 5.77297 4.7256 5.99797 4.9996 5.99797C5.2746 5.99797 5.4996 5.77297 5.4996 5.49797V1.70597L6.6466 2.85197C6.7446 2.94997 6.8726 2.99797 6.9996 2.99797C7.1276 2.99797 7.2556 2.94997 7.3536 2.85197C7.5486 2.65697 7.5486 2.33997 7.3536 2.14497L5.3536 0.144969C5.3376 0.128969 5.3176 0.122969 5.2996 0.108969C5.2656 0.0819695 5.2326 0.0539695 5.1916 0.0379695C5.1306 0.0129695 5.0656 -3.05176e-05 5.0006 -3.05176e-05H4.9986C4.9346 -3.05176e-05 4.8696 0.0129695 4.8086 0.0379695C4.7686 0.0539695 4.7366 0.0809695 4.7026 0.107969C4.6846 0.121969 4.6636 0.127969 4.6466 0.144969L2.6466 2.14497C2.4516 2.33997 2.4516 2.65697 2.6466 2.85197C2.8416 3.04697 3.1586 3.04697 3.3536 2.85197Z" fill="#F7F7F7"/>
</svg>
