<?xml version="1.0" standalone="no"?>
<!DOCTYPE svg PUBLIC "-//W3C//DTD SVG 1.1//EN" "http://www.w3.org/Graphics/SVG/1.1/DTD/svg11.dtd" >
<svg xmlns="http://www.w3.org/2000/svg" id="copy_24">
<path unicode="&#xec0b;" transform="scale(1,-1)" id="copy_24" data-tags="copy_24" d="M18.5 5l-9 0C8.119 5 7 6.119 7 7.5l0 13C7 21.881 8.119 23 9.5 23l9 0c1.381 0 2.5-1.119 2.5-2.5l0-13C21 6.119 19.881 5 18.5 5m0 1c.827 0 1.5.673 1.5 1.5l0 13c0 .827-.673 1.5-1.5 1.5l-9 0c-.827 0-1.5-.673-1.5-1.5l0-13C8 6.673 8.673 6 9.5 6l9 0zm-5-5c.275 0 .5.225.5.5 0 .275-.225.5-.5.5l-8 0C4.673 2 4 2.673 4 3.5l0 14c0 .275-.225.5-.5.5-.275 0-.5-.225-.5-.5l0-14C3 2.119 4.119 1 5.5 1l8 0z" />
</svg>
