<?xml version="1.0" standalone="no"?>
<!DOCTYPE svg PUBLIC "-//W3C//DTD SVG 1.1//EN" "http://www.w3.org/Graphics/SVG/1.1/DTD/svg11.dtd" >
<svg xmlns="http://www.w3.org/2000/svg" id="copy_16">
<path unicode="&#xe947;" transform="scale(1,-1)" id="copy_16" data-tags="copy_16" d="M521.338 694.592c2.944 2.944 6.528 5.312 10.432 6.976 3.904 1.6 8.064 2.432 12.224 2.432s8.32-0.832 12.224-2.432c3.968-1.664 7.488-4.032 10.432-6.976l256-255.936c12.48-12.544 12.48-32.768 0-45.248-12.544-12.544-32.768-12.544-45.248 0l-201.408 201.344v-562.752c0-17.664-14.336-32-32-32s-32 14.336-32 32v562.752l-201.344-201.344c-12.544-12.544-32.768-12.544-45.248 0-12.544 12.48-12.544 32.704 0 45.248l255.936 255.936zM928 832.006h-768c-17.664 0-32 14.336-32 32s14.336 32 32 32h768c17.664 0 32-14.336 32-32s-14.336-32-32-32z" />
</svg>
