<svg width="2560" height="1440" viewBox="0 0 2560 1440" fill="none" xmlns="http://www.w3.org/2000/svg">
<g clip-path="url(#clip0)">
<rect width="2560" height="1440" fill="white"/>
<path d="M0.599365 492.546L2568.2 492.546L2568.2 8.50696L0.599365 8.50696L0.599365 492.546Z" fill="#FCFAEF"/>
<path d="M-0.000244141 1440.01L2568.2 1440.01L2568.2 -461.323L-0.000244055 -461.323L-0.000244141 1440.01Z" fill="#070606"/>
<path d="M649.099 -123.729L0.00146484 419.359V1439.35H2361.73L649.099 -123.729Z" fill="#102B2A"/>
<path d="M2560 419.333L2047.05 816.468L2568.2 899.985L2560 419.333Z" fill="#313244"/>
<path d="M1775.86 184.757L706.415 1075.72L934.235 1440L2568.2 1439.35V907.911L2560 864L1775.86 184.757Z" fill="#393A47"/>
<path d="M649.099 -123.729L533.37 360.194L473.454 470.806L593.286 438.544L428.902 572.2L559.925 867.677L649.955 941.645L874.422 747.333L649.099 1155.98L0.00146484 1291.76V419.333L649.099 -123.729Z" fill="#313244"/>
<path d="M3.7417 1112.85L560 867.526L965.573 1153.84L560 1395.01L3.7417 1112.85Z" fill="#102B2A"/>
<path d="M2064.43 1439.36L1049.48 1048.52L326.49 1278.33L1243.05 1439.35L2064.43 1439.36Z" fill="#102B2A"/>
<path d="M2008.11 1205.66L1674.23 1078.66L914.29 1330.61H1946.66L2008.11 1205.66Z" fill="#102B2A"/>
<path d="M1278.74 1439.91L1543.64 1210.17H1674.23L1578.46 1159.09L1674.23 1078.66L2001.18 1204.64L1683.81 1330.61L1409.84 1439.36L1278.74 1439.91Z" fill="#103C39"/>
<path d="M1622.49 1318.62L1656.19 1284.26H1595.27L1560.62 1318.62H1622.49Z" fill="#102B2A"/>
<path d="M1560.61 1412.98L1622.49 1412.98L1622.49 1318.62L1560.61 1318.62L1560.61 1412.98Z" fill="#313244"/>
<path d="M1656.19 1284.26L1690.55 1318.62V1412.99H1622.49V1318.62L1656.19 1284.26Z" fill="#0D485D"/>
<path d="M1409.84 1439.36H2568.2V1111.99L2412.84 1041.24L2156.91 1142.83L2101.76 1165.09L2100.1 1165.38L1409.84 1439.36Z" fill="#0D485D"/>
<path d="M887.13 1098.67L625.013 1179.65L559.925 867.685L887.13 1098.67Z" fill="#12423F"/>
<path d="M0.00146484 1111.99V1439.36H669.956L0.00146484 1111.99Z" fill="#0D485D"/>
<path d="M0.122404 1365.15L275.007 1246.37L0.00146484 1111.99L0.122404 1365.15Z" fill="#313244"/>
<path d="M176.581 1210.17L147.393 1334.3L212.681 1317.4L176.581 1210.17Z" fill="#0D485D"/>
<path d="M122.889 1229.14L93.7012 1353.27L158.994 1336.37L122.889 1229.14Z" fill="#0D485D"/>
<path d="M1025.17 810.172L874.422 747.344L738.542 993.781L774.401 1019.09L1025.17 810.172Z" fill="#393A47"/>
<path d="M1416.97 1163.96L965.498 1313.64L1060.22 1229.14L1000.31 1204.64L1049.48 1048.52L1416.97 1163.96Z" fill="#12423F"/>
<path d="M1420.43 1117.58L1449.62 1241.71L1384.32 1224.81L1420.43 1117.58Z" fill="#102B2A"/>
<path d="M1474.12 1097.02L1503.3 1221.15L1438.02 1204.26L1474.12 1097.02Z" fill="#102B2A"/>
<path d="M1722.58 1249.65L1751.77 1373.78L1686.48 1356.88L1722.58 1249.65Z" fill="#0D485D"/>
<path d="M1776.27 1229.09L1805.46 1353.22L1740.17 1336.33L1776.27 1229.09Z" fill="#0D485D"/>
<path d="M887.13 1098.68L473.454 1231.62L723.528 1103.09L887.13 1098.68Z" fill="#12423F"/>
<path d="M586.899 1074.89L669.957 1119.16H516.383L586.899 1074.89Z" fill="#102B2A"/>
<path d="M914.29 1330.61L473.454 1440.01L1243.05 1439.34L914.29 1330.61Z" fill="#102B2A"/>
<path d="M2560 1365.34L2396.62 1439.34L2352.16 1308.4L2444.66 1144.08L2412.84 1041.26L2568.2 1111.99L2560 1365.34Z" fill="#313244"/>
<path d="M2352.16 1308.4L2008.11 1346.24L2430.58 1234.28L2352.16 1308.4Z" fill="#313244"/>
<path d="M2290.8 629.645L1775.86 995.094L1699.29 548.244L1775.86 184.757L2290.8 629.645Z" fill="#102B2A"/>
<path d="M1025.17 810.17L1347.48 908.605L1009.29 759.632L1025.17 810.17Z" fill="#102B2A"/>
<path d="M1725.11 698.903L1637.31 710.201L1725.11 1039.73L1775.86 995.105L1854.63 807.659L1725.11 698.903Z" fill="#102B2A"/>
<path d="M0.00146484 1034.01L147.393 1078.66L15.3335 1118.68L0.00146484 1110.68V1034.01Z" fill="#102B2A"/>
<path d="M2560 1034.01L2450.4 1058.35L2544.26 1101.09L2560 1110.68V1034.01Z" fill="#102B2A"/>
<path d="M0 864L214 1019.5L108 1067.5L0 1034V864Z" fill="#393A47"/>
</g>
<defs>
<clipPath id="clip0">
<rect width="2560" height="1440" fill="white"/>
</clipPath>
</defs>
</svg>
