<svg width="2560" height="1440" viewBox="0 0 2560 1440" fill="none" xmlns="http://www.w3.org/2000/svg">
<g clip-path="url(#clip0)">
<rect width="2560" height="1440" fill="white"/>
<path d="M2560 -462.667H-0.666626V1440.67H2560V-462.667Z" fill="#F6EDDA"/>
<path d="M2352.99 -85.3467L2308 -40.3496V196.328H2478.71V-40.3496L2434.58 -85.3467H2352.99Z" fill="#FEEFFB"/>
<path d="M2397.42 196.33L2560 196.33L2560 -39.7137L2397.42 -39.7137L2397.42 196.33Z" fill="#EBE6F5"/>
<path d="M2422.77 6.71094L2538.8 6.71094L2538.8 -7.31337L2422.77 -7.31337L2422.77 6.71094Z" fill="white"/>
<path d="M2422.77 48.8105L2538.8 48.8105L2538.8 34.7862L2422.77 34.7862L2422.77 48.8105Z" fill="white"/>
<path d="M2422.77 90.9092L2538.8 90.9092L2538.8 76.8848L2422.77 76.8848L2422.77 90.9092Z" fill="white"/>
<path d="M2422.77 133.003L2538.8 133.003L2538.8 118.979L2422.77 118.979L2422.77 133.003Z" fill="white"/>
<path d="M379.863 196.327L700.919 -124.729L1015.79 196.327H379.863Z" fill="#F6EDDA"/>
<path d="M-0.341431 196.328L430.418 -234.432L852.876 196.328H-0.341431Z" fill="#EBE6F5"/>
<path d="M853.189 58.3281H674.346V72.3525H853.189V58.3281Z" fill="#EBE6F5"/>
<path d="M674.346 72.3525H584.925V196.332H674.346V72.3525Z" fill="#EBE6F5"/>
<path d="M853.212 72.334V196.327H806.511V151.116C806.511 127.509 790.94 164.666 767.333 164.666C743.727 164.666 721.024 127.509 721.024 151.116V196.327H670V72.334H853.212Z" fill="#FEEFFB"/>
<path d="M422.368 -54.4336H341.081V196.328H422.368V-54.4336Z" fill="#EBE6F5"/>
<path d="M503.66 -54.4336H381.725V196.328H503.66V-54.4336Z" fill="#F6EDDA"/>
<path d="M438.068 -16.915H404.833V16.3206H438.068V-16.915Z" fill="#FEEFFB"/>
<path d="M480.547 -16.915H447.311V16.3206H480.547V-16.915Z" fill="#FEEFFB"/>
<path d="M438.068 25.1816H404.833V58.4173H438.068V25.1816Z" fill="#FEEFFB"/>
<path d="M480.547 25.1816H447.311V58.4173H480.547V25.1816Z" fill="#FEEFFB"/>
<path d="M438.068 67.2773H404.833V100.513H438.068V67.2773Z" fill="#FEEFFB"/>
<path d="M480.547 67.2773H447.311V100.513H480.547V67.2773Z" fill="#FEEFFB"/>
<path d="M438.068 109.379H404.833V142.615H438.068V109.379Z" fill="#FEEFFB"/>
<path d="M480.547 109.379H447.311V142.615H480.547V109.379Z" fill="#FEEFFB"/>
<path d="M1808.26 196.329L1889.55 196.329L1889.55 -54.4329L1808.26 -54.4329L1808.26 196.329Z" fill="#EBE6F5"/>
<path d="M1704.16 196.329L1848.9 196.329L1848.9 -54.4329L1704.16 -54.4329L1704.16 196.329Z" fill="#F6EDDA"/>
<path d="M1781.15 16.3174L1814.39 16.3174L1814.39 -16.9183L1781.15 -16.9183L1781.15 16.3174Z" fill="#FEEFFB"/>
<path d="M1738.68 16.3174L1771.91 16.3174L1771.91 -16.9183L1738.68 -16.9183L1738.68 16.3174Z" fill="#FEEFFB"/>
<path d="M1781.15 58.416L1814.39 58.416L1814.39 25.1804L1781.15 25.1804L1781.15 58.416Z" fill="#FEEFFB"/>
<path d="M1738.68 58.416L1771.91 58.416L1771.91 25.1804L1738.68 25.1804L1738.68 58.416Z" fill="#FEEFFB"/>
<path d="M1781.15 100.515L1814.39 100.515L1814.39 67.279L1781.15 67.279L1781.15 100.515Z" fill="#FEEFFB"/>
<path d="M1738.68 100.515L1771.91 100.515L1771.91 67.279L1738.68 67.279L1738.68 100.515Z" fill="#FEEFFB"/>
<path d="M1781.15 142.608L1814.39 142.608L1814.39 109.373L1781.15 109.373L1781.15 142.608Z" fill="#FEEFFB"/>
<path d="M1738.68 142.608L1771.91 142.608L1771.91 109.373L1738.68 109.373L1738.68 142.608Z" fill="#FEEFFB"/>
<path d="M934.505 196.33L1015.79 196.33L1015.79 -112.513L934.505 -112.513L934.505 196.33Z" fill="#EBE6F5"/>
<path d="M853.208 196.33L975.144 196.33L975.144 -112.513L853.208 -112.513L853.208 196.33Z" fill="#F6EDDA"/>
<path d="M170.367 -39.7158H89.0802V196.328H170.367V-39.7158Z" fill="#EBE6F5"/>
<path d="M44.8 27.207L-0.341431 72.3531V196.328H89.08V72.3531L44.8 27.207Z" fill="#FEEFFB"/>
<path d="M89.0814 72.3531L44.8014 27.207H124.836L170.369 72.3531H89.0814Z" fill="white"/>
<path d="M170.367 72.3525H89.0802V196.332H170.367V72.3525Z" fill="#F6EDDA"/>
<path d="M126.888 94.3438H112.864V108.368H126.888V94.3438Z" fill="#FEEFFB"/>
<path d="M146.583 94.3438H132.559V108.368H146.583V94.3438Z" fill="#FEEFFB"/>
<path d="M126.888 113.555H112.864V127.579H126.888V113.555Z" fill="#FEEFFB"/>
<path d="M146.583 113.555H132.559V127.579H146.583V113.555Z" fill="#FEEFFB"/>
<path d="M547.138 108.366L561.162 108.366L561.162 94.3419L547.138 94.3419L547.138 108.366Z" fill="#FEEFFB"/>
<path d="M527.44 108.366L541.464 108.366L541.464 94.3419L527.44 94.3419L527.44 108.366Z" fill="#FEEFFB"/>
<path d="M547.138 127.576L561.162 127.576L561.162 113.552L547.138 113.552L547.138 127.576Z" fill="#FEEFFB"/>
<path d="M527.44 127.576L541.464 127.576L541.464 113.552L527.44 113.552L527.44 127.576Z" fill="#FEEFFB"/>
<path d="M254.891 -126.54L341.081 -40.3499V196.327H170.368V-40.3499L254.891 -126.54Z" fill="#FEEFFB"/>
<path d="M580.333 58.3287L624.609 13.1826L549.17 13.1827L503.637 58.3288L580.333 58.3287Z" fill="white"/>
<path d="M503.649 196.331L584.936 196.331L584.936 58.3318L503.649 58.3318L503.649 196.331Z" fill="#FEEFFB"/>
<path d="M624.275 13.1826L669.422 58.3287L669.445 196.328H580.023L580 58.3287L624.275 13.1826Z" fill="#EBE6F5"/>
<path d="M534.904 81.1299H520.88V128.385H534.904V81.1299Z" fill="#F6EDDA"/>
<path d="M567.706 81.1299H553.682V128.385H567.706V81.1299Z" fill="#F6EDDA"/>
<path d="M2218.57 72.3531L2262.85 27.207H2182.82L2137.29 72.3531H2218.57Z" fill="white"/>
<path d="M2137.29 196.327L2218.58 196.327L2218.58 72.3476L2137.29 72.3476L2137.29 196.327Z" fill="#FEEFFB"/>
<path d="M2262.85 27.207L2308 72.3531V196.328H2218.57V72.3531L2262.85 27.207Z" fill="#EBE6F5"/>
<path d="M2168.54 95.1484H2154.52V128.384H2168.54V95.1484Z" fill="#F6EDDA"/>
<path d="M2201.35 95.1484H2187.32V128.384H2201.35V95.1484Z" fill="#F6EDDA"/>
<path d="M213.527 95.1484H199.503V128.384H213.527V95.1484Z" fill="#F6EDDA"/>
<path d="M246.334 95.1484H232.309V128.384H246.334V95.1484Z" fill="#F6EDDA"/>
<path d="M279.141 95.1484H265.116V128.384H279.141V95.1484Z" fill="#F6EDDA"/>
<path d="M311.947 95.1484H297.923V128.384H311.947V95.1484Z" fill="#F6EDDA"/>
<path d="M213.527 39.1172H199.503V72.3528H213.527V39.1172Z" fill="#F6EDDA"/>
<path d="M246.334 39.1172H232.309V72.3528H246.334V39.1172Z" fill="#F6EDDA"/>
<path d="M279.141 39.1172H265.116V72.3528H279.141V39.1172Z" fill="#F6EDDA"/>
<path d="M311.947 39.1172H297.923V72.3528H311.947V39.1172Z" fill="#F6EDDA"/>
<path d="M213.527 -16.915H199.503V16.3206H213.527V-16.915Z" fill="#F6EDDA"/>
<path d="M246.334 -16.915H232.309V16.3206H246.334V-16.915Z" fill="#F6EDDA"/>
<path d="M279.141 -16.915H265.116V16.3206H279.141V-16.915Z" fill="#F6EDDA"/>
<path d="M311.947 -16.915H297.923V16.3206H311.947V-16.915Z" fill="#F6EDDA"/>
<path d="M888.385 22.5H874.361V55.7356H888.385V22.5Z" fill="#EBE6F5"/>
<path d="M921.192 22.5H907.168V55.7356H921.192V22.5Z" fill="#EBE6F5"/>
<path d="M953.999 22.5H939.975V55.7356H953.999V22.5Z" fill="#EBE6F5"/>
<path d="M888.385 134.563H874.361V167.799H888.385V134.563Z" fill="#EBE6F5"/>
<path d="M921.192 134.563H907.168V167.799H921.192V134.563Z" fill="#EBE6F5"/>
<path d="M953.999 134.563H939.975V167.799H953.999V134.563Z" fill="#EBE6F5"/>
<path d="M888.385 78.5312H874.361V111.767H888.385V78.5312Z" fill="#EBE6F5"/>
<path d="M921.192 78.5312H907.168V111.767H921.192V78.5312Z" fill="#EBE6F5"/>
<path d="M953.999 78.5312H939.975V111.767H953.999V78.5312Z" fill="#EBE6F5"/>
<path d="M888.385 22.5H874.361V55.7356H888.385V22.5Z" fill="#EBE6F5"/>
<path d="M921.192 22.5H907.168V55.7356H921.192V22.5Z" fill="#EBE6F5"/>
<path d="M953.999 22.5H939.975V55.7356H953.999V22.5Z" fill="#EBE6F5"/>
<path d="M1060.94 -54.4336L1015.79 -9.28751V196.333H1105.21V-9.28751L1060.94 -54.4336Z" fill="#FEEFFB"/>
<path d="M1186.5 -9.28809H1105.21V196.332H1186.5V-9.28809Z" fill="#F6EDDA"/>
<path d="M1162.47 10.5889H1129.24V43.8245H1162.47V10.5889Z" fill="#EBE6F5"/>
<path d="M1162.47 55.7354H1129.24V88.971H1162.47V55.7354Z" fill="#EBE6F5"/>
<path d="M1162.47 100.886H1129.24V134.121H1162.47V100.886Z" fill="#EBE6F5"/>
<path d="M1015.79 196.328L1439.41 -227.294L1854.87 196.328H1015.79Z" fill="#EBE6F5"/>
<path d="M1622.88 196.33L1704.16 196.33L1704.16 -39.7137L1622.88 -39.7137L1622.88 196.33Z" fill="#EBE6F5"/>
<path d="M1538.35 -126.54L1452.17 -40.3499V196.327H1622.88V-40.3499L1538.35 -126.54Z" fill="#FEEFFB"/>
<path d="M1579.72 128.385L1593.74 128.385L1593.74 95.1491L1579.72 95.1491L1579.72 128.385Z" fill="#F6EDDA"/>
<path d="M1546.91 128.385L1560.94 128.385L1560.94 95.1491L1546.91 95.1491L1546.91 128.385Z" fill="#F6EDDA"/>
<path d="M1514.11 128.385L1528.13 128.385L1528.13 95.1491L1514.11 95.1491L1514.11 128.385Z" fill="#F6EDDA"/>
<path d="M1481.3 128.385L1495.32 128.385L1495.32 95.1491L1481.3 95.1491L1481.3 128.385Z" fill="#F6EDDA"/>
<path d="M1579.72 72.3506L1593.74 72.3506L1593.74 39.1149L1579.72 39.1149L1579.72 72.3506Z" fill="#F6EDDA"/>
<path d="M1546.91 72.3506L1560.94 72.3506L1560.94 39.1149L1546.91 39.1149L1546.91 72.3506Z" fill="#F6EDDA"/>
<path d="M1514.11 72.3506L1528.13 72.3506L1528.13 39.1149L1514.11 39.1149L1514.11 72.3506Z" fill="#F6EDDA"/>
<path d="M1481.3 72.3506L1495.32 72.3506L1495.32 39.1149L1481.3 39.1149L1481.3 72.3506Z" fill="#F6EDDA"/>
<path d="M1579.72 16.3174L1593.74 16.3174L1593.74 -16.9183L1579.72 -16.9183L1579.72 16.3174Z" fill="#F6EDDA"/>
<path d="M1546.91 16.3174L1560.94 16.3174L1560.94 -16.9183L1546.91 -16.9183L1546.91 16.3174Z" fill="#F6EDDA"/>
<path d="M1514.11 16.3174L1528.13 16.3174L1528.13 -16.9183L1514.11 -16.9183L1514.11 16.3174Z" fill="#F6EDDA"/>
<path d="M1481.3 16.3174L1495.32 16.3174L1495.32 -16.9183L1481.3 -16.9183L1481.3 16.3174Z" fill="#F6EDDA"/>
<path d="M1438.33 72.3531L1482.61 27.207H1402.58L1357.05 72.3531H1438.33Z" fill="white"/>
<path d="M1357.04 196.327L1438.33 196.327L1438.33 72.3476L1357.04 72.3476L1357.04 196.327Z" fill="#FEEFFB"/>
<path d="M1482.61 27.207L1527.75 72.3531V196.328H1438.33V72.3531L1482.61 27.207Z" fill="#FCFAEF"/>
<path d="M1224.31 92.7607H1210.28V106.785H1224.31V92.7607Z" fill="#EBE6F5"/>
<path d="M1244.01 92.7607H1229.98V106.785H1244.01V92.7607Z" fill="#EBE6F5"/>
<path d="M1224.31 111.972H1210.28V125.996H1224.31V111.972Z" fill="#EBE6F5"/>
<path d="M1244.01 111.972H1229.98V125.996H1244.01V111.972Z" fill="#EBE6F5"/>
<path d="M2013.42 196.329L2137.29 196.329L2137.29 -227.293L2013.42 -227.293L2013.42 196.329Z" fill="#EBE6F5"/>
<path d="M1889.55 196.329L2075.35 196.329L2075.35 -227.293L1889.55 -227.293L1889.55 196.329Z" fill="#FCFAEF"/>
<path d="M1956.66 97.8311H1942.63V131.067H1956.66V97.8311Z" fill="#EBE6F5"/>
<path d="M1989.46 97.8311H1975.44V131.067H1989.46V97.8311Z" fill="#EBE6F5"/>
<path d="M2022.27 97.8311H2008.24V131.067H2022.27V97.8311Z" fill="#EBE6F5"/>
<path d="M1956.66 41.7988H1942.63V75.0345H1956.66V41.7988Z" fill="#EBE6F5"/>
<path d="M1989.46 41.7988H1975.44V75.0345H1989.46V41.7988Z" fill="#EBE6F5"/>
<path d="M2022.27 41.7988H2008.24V75.0345H2022.27V41.7988Z" fill="#EBE6F5"/>
<path d="M1956.66 -14.2324H1942.63V19.0032H1956.66V-14.2324Z" fill="#EBE6F5"/>
<path d="M1989.46 -14.2324H1975.44V19.0032H1989.46V-14.2324Z" fill="#EBE6F5"/>
<path d="M2022.27 -14.2324H2008.24V19.0032H2022.27V-14.2324Z" fill="#EBE6F5"/>
<path d="M206.662 237.521L251.659 282.518V519.199H80.9458V282.518L125.077 237.521H206.662Z" fill="#FEEFFB"/>
<path d="M162.238 283.155H-0.341431V519.199H162.238V283.155Z" fill="#EBE6F5"/>
<path d="M206.662 237.521L162.233 283.156H-0.341431L44.7441 237.521H206.662Z" fill="white"/>
<path d="M136.881 315.558H20.8544V329.582H136.881V315.558Z" fill="white"/>
<path d="M136.881 357.654H20.8544V371.679H136.881V357.654Z" fill="white"/>
<path d="M136.881 399.755H20.8544V413.779H136.881V399.755Z" fill="white"/>
<path d="M136.881 441.852H20.8544V455.876H136.881V441.852Z" fill="white"/>
<path d="M1327.23 253.906H1556.87V194.442H1369.34C1346.08 194.442 1327.23 213.295 1327.23 236.553V253.906Z" fill="#EBE6F5"/>
<path d="M1598.06 253.906L1827.7 253.906L1827.7 194.442L1598.06 194.442L1598.06 253.906Z" fill="#EBE6F5"/>
<path d="M1556.87 253.906L1598.05 253.906L1598.05 194.442L1556.87 194.442L1556.87 253.906Z" fill="#FEEFFB"/>
<path d="M1868.88 253.906H2098.53V213.346C2098.53 202.907 2090.06 194.442 2079.62 194.442H1868.88V253.906V253.906Z" fill="#EBE6F5"/>
<path d="M1827.7 253.906L1868.88 253.906L1868.88 194.442L1827.7 194.442L1827.7 253.906Z" fill="#FEEFFB"/>
<path d="M1518.7 228.937L1542.94 228.938L1542.94 204.698L1518.7 204.698L1518.7 228.937Z" fill="#FEEFFB"/>
<path d="M1484.82 228.937L1509.06 228.938L1509.06 204.698L1484.82 204.698L1484.82 228.937Z" fill="#FEEFFB"/>
<path d="M1450.94 228.937L1475.18 228.938L1475.18 204.698L1450.94 204.698L1450.94 228.937Z" fill="#FEEFFB"/>
<path d="M1417.06 228.937L1441.3 228.938L1441.3 204.698L1417.06 204.698L1417.06 228.937Z" fill="#FEEFFB"/>
<path d="M1383.19 228.937L1407.42 228.938L1407.42 204.698L1383.19 204.698L1383.19 228.937Z" fill="#FEEFFB"/>
<path d="M1747.92 228.937L1772.16 228.938L1772.16 204.698L1747.92 204.698L1747.92 228.937Z" fill="#FEEFFB"/>
<path d="M1714.05 228.937L1738.29 228.938L1738.29 204.698L1714.05 204.698L1714.05 228.937Z" fill="#FEEFFB"/>
<path d="M1781.86 228.937L1806.1 228.938L1806.1 204.698L1781.86 204.698L1781.86 228.937Z" fill="#FEEFFB"/>
<path d="M1680.17 228.937L1704.41 228.938L1704.41 204.698L1680.17 204.698L1680.17 228.937Z" fill="#FEEFFB"/>
<path d="M1646.29 228.937L1670.53 228.938L1670.53 204.698L1646.29 204.698L1646.29 228.937Z" fill="#FEEFFB"/>
<path d="M1612.41 228.937L1636.65 228.938L1636.65 204.698L1612.41 204.698L1612.41 228.937Z" fill="#FEEFFB"/>
<path d="M2022.37 228.937L2046.61 228.938L2046.61 204.698L2022.37 204.698L2022.37 228.937Z" fill="#FEEFFB"/>
<path d="M1988.49 228.937L2012.73 228.938L2012.73 204.698L1988.49 204.698L1988.49 228.937Z" fill="#FEEFFB"/>
<path d="M2056.31 228.937L2080.55 228.938L2080.55 204.698L2056.31 204.698L2056.31 228.937Z" fill="#FEEFFB"/>
<path d="M1954.62 228.937L1978.86 228.938L1978.86 204.698L1954.62 204.698L1954.62 228.937Z" fill="#FEEFFB"/>
<path d="M1920.74 228.937L1944.98 228.938L1944.98 204.698L1920.74 204.698L1920.74 228.937Z" fill="#FEEFFB"/>
<path d="M1886.86 228.937L1911.1 228.938L1911.1 204.698L1886.86 204.698L1886.86 228.937Z" fill="#FEEFFB"/>
<path d="M1345 228.939H1369.24V204.699H1361.65C1352.46 204.699 1345 212.154 1345 221.35V228.939Z" fill="#FEEFFB"/>
<path d="M1327.22 268.567L2098.53 268.567L2098.53 253.91L1327.22 253.91L1327.22 268.567Z" fill="white"/>
<path d="M2179.79 519.199L1858.74 198.139L1543.86 519.199H2179.79Z" fill="#F6EDDA"/>
<path d="M2560 519.2L2129.24 88.4355L1706.78 519.2H2560Z" fill="#EBE6F5"/>
<path d="M938.374 130.434H759.531V144.458H938.374V130.434Z" fill="#EBE6F5"/>
<path d="M759.53 130.434H670.109V144.458H759.53V130.434Z" fill="white"/>
<path d="M759.53 144.458H670.109V268.437H759.53V144.458Z" fill="#EBE6F5"/>
<path d="M938.396 144.439V268.433H891.695V223.222C891.695 199.615 872.558 180.478 848.952 180.478C825.345 180.478 806.208 199.615 806.208 223.222V268.433H759.553V144.439H938.396Z" fill="#FEEFFB"/>
<path d="M891.695 223.221V268.432H806.208V223.221C806.208 199.614 825.345 180.478 848.952 180.478C872.558 180.478 891.695 199.614 891.695 223.221Z" fill="#F6EDDA"/>
<path d="M2137.29 519.198L2218.58 519.198L2218.58 268.436L2137.29 268.436L2137.29 519.198Z" fill="#EBE6F5"/>
<path d="M2056 519.198L2177.93 519.198L2177.93 268.436L2056 268.436L2056 519.198Z" fill="#F6EDDA"/>
<path d="M2121.58 339.187L2154.82 339.188L2154.82 305.952L2121.58 305.952L2121.58 339.187Z" fill="#FEEFFB"/>
<path d="M2177.93 282.459L2232.6 282.459L2232.6 268.435L2177.93 268.435L2177.93 282.459Z" fill="#F6EDDA"/>
<path d="M2041.97 282.459L2177.93 282.459L2177.93 268.435L2041.97 268.435L2041.97 282.459Z" fill="white"/>
<path d="M2079.11 339.187L2112.34 339.188L2112.34 305.952L2079.11 305.952L2079.11 339.187Z" fill="#FEEFFB"/>
<path d="M2121.58 381.286L2154.82 381.286L2154.82 348.05L2121.58 348.05L2121.58 381.286Z" fill="#FEEFFB"/>
<path d="M2079.11 381.286L2112.34 381.286L2112.34 348.05L2079.11 348.05L2079.11 381.286Z" fill="#FEEFFB"/>
<path d="M2121.58 423.38L2154.82 423.38L2154.82 390.144L2121.58 390.144L2121.58 423.38Z" fill="#FEEFFB"/>
<path d="M2079.11 423.38L2112.34 423.38L2112.34 390.144L2079.11 390.144L2079.11 423.38Z" fill="#FEEFFB"/>
<path d="M2121.58 465.479L2154.82 465.479L2154.82 432.243L2121.58 432.243L2121.58 465.479Z" fill="#FEEFFB"/>
<path d="M2079.11 465.479L2112.34 465.479L2112.34 432.243L2079.11 432.243L2079.11 465.479Z" fill="#FEEFFB"/>
<path d="M751.396 268.433H670.109V519.195H751.396V268.433Z" fill="#EBE6F5"/>
<path d="M855.489 268.433H710.752V519.195H855.489V268.433Z" fill="#F6EDDA"/>
<path d="M710.751 268.433H656.083V282.457H710.751V268.433Z" fill="#F6EDDA"/>
<path d="M870.03 268.433H710.752V282.457H870.03V268.433Z" fill="white"/>
<path d="M778.5 305.952H745.264V339.188H778.5V305.952Z" fill="#FEEFFB"/>
<path d="M820.978 305.952H787.743V339.188H820.978V305.952Z" fill="#FEEFFB"/>
<path d="M778.5 348.049H745.264V381.284H778.5V348.049Z" fill="#FEEFFB"/>
<path d="M820.978 348.049H787.743V381.284H820.978V348.049Z" fill="#FEEFFB"/>
<path d="M778.5 390.149H745.264V423.385H778.5V390.149Z" fill="#FEEFFB"/>
<path d="M820.978 390.149H787.743V423.385H820.978V390.149Z" fill="#FEEFFB"/>
<path d="M778.5 432.246H745.264V465.482H778.5V432.246Z" fill="#FEEFFB"/>
<path d="M820.978 432.246H787.743V465.482H820.978V432.246Z" fill="#FEEFFB"/>
<path d="M1625.15 210.356H1543.86V519.199H1625.15V210.356Z" fill="#EBE6F5"/>
<path d="M1706.44 210.356H1584.51V519.199H1706.44V210.356Z" fill="#FCFAEF"/>
<path d="M1584.67 194.666H1544V210.666H1584.67V194.666Z" fill="#F6EDDA"/>
<path d="M1706.67 194.666H1584.67V210.666H1706.67V194.666Z" fill="white"/>
<path d="M2389.29 519.195L2470.58 519.195L2470.58 283.151L2389.29 283.151L2389.29 519.195Z" fill="#EBE6F5"/>
<path d="M2389.29 283.156L2304.76 196.333H2384.79L2470.57 283.156H2389.29Z" fill="white"/>
<path d="M2514.85 350.074L2560 395.22V519.2H2470.57V395.22L2514.85 350.074Z" fill="#FEEFFB"/>
<path d="M2470.57 395.22L2514.85 350.074H2434.82L2389.29 395.22H2470.57Z" fill="white"/>
<path d="M2389.29 519.196L2470.58 519.196L2470.58 395.217L2389.29 395.217L2389.29 519.196Z" fill="#F6EDDA"/>
<path d="M2432.77 431.235L2446.79 431.235L2446.79 417.211L2432.77 417.211L2432.77 431.235Z" fill="#FEEFFB"/>
<path d="M2413.07 431.235L2427.09 431.235L2427.09 417.211L2413.07 417.211L2413.07 431.235Z" fill="#FEEFFB"/>
<path d="M2432.77 450.445L2446.79 450.445L2446.79 436.421L2432.77 436.421L2432.77 450.445Z" fill="#FEEFFB"/>
<path d="M2413.07 450.445L2427.09 450.445L2427.09 436.421L2413.07 436.421L2413.07 450.445Z" fill="#FEEFFB"/>
<path d="M2304.76 196.333L2218.57 282.518V519.2H2389.29V282.518L2304.76 196.333Z" fill="#FEEFFB"/>
<path d="M341.082 395.22L296.802 350.074H376.837L422.369 395.22H341.082Z" fill="white"/>
<path d="M422.368 395.22H341.081V519.199H422.368V395.22Z" fill="#FEEFFB"/>
<path d="M296.801 350.074L251.659 395.22V519.2H341.081V395.22L296.801 350.074Z" fill="#EBE6F5"/>
<path d="M391.113 451.254L405.137 451.254L405.137 418.018L391.113 418.018L391.113 451.254Z" fill="#F6EDDA"/>
<path d="M358.308 451.254L372.333 451.254L372.333 418.018L358.308 418.018L358.308 451.254Z" fill="#F6EDDA"/>
<path d="M2346.13 451.254L2360.15 451.254L2360.15 418.018L2346.13 418.018L2346.13 451.254Z" fill="#F6EDDA"/>
<path d="M2313.32 451.254L2327.35 451.254L2327.35 418.018L2313.32 418.018L2313.32 451.254Z" fill="#F6EDDA"/>
<path d="M2280.52 451.254L2294.54 451.254L2294.54 418.018L2280.52 418.018L2280.52 451.254Z" fill="#F6EDDA"/>
<path d="M2247.71 451.254L2261.73 451.254L2261.73 418.018L2247.71 418.018L2247.71 451.254Z" fill="#F6EDDA"/>
<path d="M2346.13 395.221L2360.15 395.221L2360.15 361.985L2346.13 361.985L2346.13 395.221Z" fill="#F6EDDA"/>
<path d="M2313.32 395.221L2327.35 395.221L2327.35 361.985L2313.32 361.985L2313.32 395.221Z" fill="#F6EDDA"/>
<path d="M2280.52 395.221L2294.54 395.221L2294.54 361.985L2280.52 361.985L2280.52 395.221Z" fill="#F6EDDA"/>
<path d="M2247.71 395.221L2261.73 395.221L2261.73 361.985L2247.71 361.985L2247.71 395.221Z" fill="#F6EDDA"/>
<path d="M2346.13 339.187L2360.15 339.188L2360.15 305.952L2346.13 305.952L2346.13 339.187Z" fill="#F6EDDA"/>
<path d="M2313.32 339.187L2327.35 339.188L2327.35 305.952L2313.32 305.952L2313.32 339.187Z" fill="#F6EDDA"/>
<path d="M2280.52 339.187L2294.54 339.188L2294.54 305.952L2280.52 305.952L2280.52 339.187Z" fill="#F6EDDA"/>
<path d="M2247.71 339.187L2261.73 339.188L2261.73 305.952L2247.71 305.952L2247.71 339.187Z" fill="#F6EDDA"/>
<path d="M2313.32 283.153L2327.35 283.153L2327.35 249.918L2313.32 249.918L2313.32 283.153Z" fill="#F6EDDA"/>
<path d="M2280.52 283.153L2294.54 283.153L2294.54 249.918L2280.52 249.918L2280.52 283.153Z" fill="#F6EDDA"/>
<path d="M1671.27 378.604L1685.29 378.604L1685.29 345.369L1671.27 345.369L1671.27 378.604Z" fill="#EBE6F5"/>
<path d="M1638.46 378.604L1652.49 378.604L1652.49 345.369L1638.46 345.369L1638.46 378.604Z" fill="#EBE6F5"/>
<path d="M1605.66 378.604L1619.68 378.604L1619.68 345.369L1605.66 345.369L1605.66 378.604Z" fill="#EBE6F5"/>
<path d="M1671.27 322.57L1685.29 322.57L1685.29 289.335L1671.27 289.335L1671.27 322.57Z" fill="#EBE6F5"/>
<path d="M1638.46 322.57L1652.49 322.57L1652.49 289.335L1638.46 289.335L1638.46 322.57Z" fill="#EBE6F5"/>
<path d="M1605.66 322.57L1619.68 322.57L1619.68 289.335L1605.66 289.335L1605.66 322.57Z" fill="#EBE6F5"/>
<path d="M1671.27 266.536L1685.29 266.536L1685.29 233.3L1671.27 233.3L1671.27 266.536Z" fill="#EBE6F5"/>
<path d="M1638.46 266.536L1652.49 266.536L1652.49 233.3L1638.46 233.3L1638.46 266.536Z" fill="#EBE6F5"/>
<path d="M1605.66 266.536L1619.68 266.536L1619.68 233.3L1605.66 233.3L1605.66 266.536Z" fill="#EBE6F5"/>
<path d="M1671.27 490.668L1685.29 490.668L1685.29 457.432L1671.27 457.432L1671.27 490.668Z" fill="#EBE6F5"/>
<path d="M1638.46 490.668L1652.49 490.668L1652.49 457.432L1638.46 457.432L1638.46 490.668Z" fill="#EBE6F5"/>
<path d="M1605.66 490.668L1619.68 490.668L1619.68 457.432L1605.66 457.432L1605.66 490.668Z" fill="#EBE6F5"/>
<path d="M1671.27 434.633L1685.29 434.633L1685.29 401.397L1671.27 401.397L1671.27 434.633Z" fill="#EBE6F5"/>
<path d="M1638.46 434.633L1652.49 434.633L1652.49 401.397L1638.46 401.397L1638.46 434.633Z" fill="#EBE6F5"/>
<path d="M1605.66 434.633L1619.68 434.633L1619.68 401.397L1605.66 401.397L1605.66 434.633Z" fill="#EBE6F5"/>
<path d="M1671.27 378.604L1685.29 378.604L1685.29 345.369L1671.27 345.369L1671.27 378.604Z" fill="#EBE6F5"/>
<path d="M1638.46 378.604L1652.49 378.604L1652.49 345.369L1638.46 345.369L1638.46 378.604Z" fill="#EBE6F5"/>
<path d="M1605.66 378.604L1619.68 378.604L1619.68 345.369L1605.66 345.369L1605.66 378.604Z" fill="#EBE6F5"/>
<path d="M1498.72 268.433L1543.86 313.579V519.199H1454.44V313.579L1498.72 268.433Z" fill="#FEEFFB"/>
<path d="M1454.44 313.579L1498.72 268.433H1418.68L1373.16 313.579H1454.44Z" fill="white"/>
<path d="M1373.15 519.2L1454.44 519.2L1454.44 313.58L1373.15 313.58L1373.15 519.2Z" fill="#F6EDDA"/>
<path d="M1397.18 366.691L1430.42 366.691L1430.42 333.456L1397.18 333.456L1397.18 366.691Z" fill="#EBE6F5"/>
<path d="M1397.18 411.838L1430.42 411.838L1430.42 378.602L1397.18 378.602L1397.18 411.838Z" fill="#EBE6F5"/>
<path d="M1397.18 456.988L1430.42 456.988L1430.42 423.753L1397.18 423.753L1397.18 456.988Z" fill="#EBE6F5"/>
<path d="M1543.86 519.2L1120.24 95.5732L704.782 519.2H1543.86Z" fill="#EBE6F5"/>
<path d="M1246.33 519.199H1327.62V226.094L1286.97 184.654L1246.33 226.094V519.199Z" fill="#FCFAEF"/>
<path d="M1246.33 226.094H1156.91V519.199H1246.33V226.094Z" fill="#FEEFFB"/>
<path d="M1296.37 282.129L1310.39 282.129L1310.39 248.893L1296.37 248.893L1296.37 282.129Z" fill="#EBE6F5"/>
<path d="M1263.56 282.129L1277.58 282.129L1277.58 248.893L1263.56 248.893L1263.56 282.129Z" fill="#EBE6F5"/>
<path d="M1246.33 226.094L1286.97 184.654H1198.81L1156.91 226.094H1246.33Z" fill="white"/>
<path d="M1291.86 395.22L1247.59 350.074H1327.62L1373.15 395.22H1291.86Z" fill="white"/>
<path d="M1373.15 395.22H1291.86V519.199H1373.15V395.22Z" fill="#FEEFFB"/>
<path d="M1247.59 350.074L1202.44 395.22V519.2H1291.86V395.22L1247.59 350.074Z" fill="#FCFAEF"/>
<path d="M936.776 283.155H855.489V519.199H936.776V283.155Z" fill="#EBE6F5"/>
<path d="M936.776 283.156L1021.3 196.333H941.269L855.489 283.156H936.776Z" fill="white"/>
<path d="M1021.3 196.333L1107.49 282.518V519.2H936.776V282.518L1021.3 196.333Z" fill="#FEEFFB"/>
<path d="M979.933 418.017H965.909V451.252H979.933V418.017Z" fill="#F6EDDA"/>
<path d="M1012.74 418.017H998.718V451.252H1012.74V418.017Z" fill="#F6EDDA"/>
<path d="M1045.55 418.017H1031.52V451.252H1045.55V418.017Z" fill="#F6EDDA"/>
<path d="M1078.36 418.017H1064.33V451.252H1078.36V418.017Z" fill="#F6EDDA"/>
<path d="M979.933 361.984H965.909V395.22H979.933V361.984Z" fill="#F6EDDA"/>
<path d="M1012.74 361.984H998.718V395.22H1012.74V361.984Z" fill="#F6EDDA"/>
<path d="M1045.55 361.984H1031.52V395.22H1045.55V361.984Z" fill="#F6EDDA"/>
<path d="M1078.36 361.984H1064.33V395.22H1078.36V361.984Z" fill="#F6EDDA"/>
<path d="M979.933 305.952H965.909V339.188H979.933V305.952Z" fill="#F6EDDA"/>
<path d="M1012.74 305.952H998.718V339.188H1012.74V305.952Z" fill="#F6EDDA"/>
<path d="M1045.55 305.952H1031.52V339.188H1045.55V305.952Z" fill="#F6EDDA"/>
<path d="M1078.36 305.952H1064.33V339.188H1078.36V305.952Z" fill="#F6EDDA"/>
<path d="M1012.74 249.92H998.718V283.156H1012.74V249.92Z" fill="#F6EDDA"/>
<path d="M1045.55 249.92H1031.52V283.156H1045.55V249.92Z" fill="#F6EDDA"/>
<path d="M1121.32 395.22L1077.05 350.074H1157.08L1202.61 395.22H1121.32Z" fill="white"/>
<path d="M1202.61 395.22H1121.32V519.199H1202.61V395.22Z" fill="#FEEFFB"/>
<path d="M1077.05 350.074L1031.9 395.22V519.2H1121.32V395.22L1077.05 350.074Z" fill="#FCFAEF"/>
<path d="M1335.34 429.651L1349.37 429.651L1349.37 415.627L1335.34 415.627L1335.34 429.651Z" fill="#EBE6F5"/>
<path d="M1315.65 429.651L1329.67 429.651L1329.67 415.627L1315.65 415.627L1315.65 429.651Z" fill="#EBE6F5"/>
<path d="M1335.34 448.861L1349.37 448.861L1349.37 434.837L1335.34 434.837L1335.34 448.861Z" fill="#EBE6F5"/>
<path d="M1315.65 448.861L1329.67 448.861L1329.67 434.837L1315.65 434.837L1315.65 448.861Z" fill="#EBE6F5"/>
<path d="M546.241 95.5732H422.368V519.195H546.241V95.5732Z" fill="#EBE6F5"/>
<path d="M670.11 95.5732H484.306V519.195H670.11V95.5732Z" fill="#F6EDDA"/>
<path d="M603.002 289.465L617.027 289.465L617.027 256.229L603.002 256.229L603.002 289.465Z" fill="#EBE6F5"/>
<path d="M570.196 289.465L584.22 289.465L584.22 256.229L570.196 256.229L570.196 289.465Z" fill="#EBE6F5"/>
<path d="M537.386 289.465L551.411 289.465L551.411 256.229L537.386 256.229L537.386 289.465Z" fill="#EBE6F5"/>
<path d="M603.002 233.431L617.027 233.431L617.027 200.195L603.002 200.195L603.002 233.431Z" fill="#EBE6F5"/>
<path d="M570.196 233.431L584.22 233.431L584.22 200.195L570.196 200.195L570.196 233.431Z" fill="#EBE6F5"/>
<path d="M537.386 233.431L551.411 233.431L551.411 200.195L537.386 200.195L537.386 233.431Z" fill="#EBE6F5"/>
<path d="M603.002 177.402L617.027 177.402L617.027 144.167L603.002 144.167L603.002 177.402Z" fill="#EBE6F5"/>
<path d="M570.196 177.402L584.22 177.402L584.22 144.167L570.196 144.167L570.196 177.402Z" fill="#EBE6F5"/>
<path d="M537.386 177.402L551.411 177.402L551.411 144.167L537.386 144.167L537.386 177.402Z" fill="#EBE6F5"/>
<path d="M603.002 453.936L617.027 453.936L617.027 420.7L603.002 420.7L603.002 453.936Z" fill="#EBE6F5"/>
<path d="M570.196 453.936L584.22 453.936L584.22 420.7L570.196 420.7L570.196 453.936Z" fill="#EBE6F5"/>
<path d="M537.386 453.936L551.411 453.936L551.411 420.7L537.386 420.7L537.386 453.936Z" fill="#EBE6F5"/>
<path d="M603.002 397.902L617.027 397.902L617.027 364.667L603.002 364.667L603.002 397.902Z" fill="#EBE6F5"/>
<path d="M570.196 397.902L584.22 397.902L584.22 364.667L570.196 364.667L570.196 397.902Z" fill="#EBE6F5"/>
<path d="M537.386 397.902L551.411 397.902L551.411 364.667L537.386 364.667L537.386 397.902Z" fill="#EBE6F5"/>
<path d="M603.002 341.868L617.027 341.868L617.027 308.633L603.002 308.633L603.002 341.868Z" fill="#EBE6F5"/>
<path d="M570.196 341.868L584.22 341.868L584.22 308.633L570.196 308.633L570.196 341.868Z" fill="#EBE6F5"/>
<path d="M537.386 341.868L551.411 341.868L551.411 308.633L537.386 308.633L537.386 341.868Z" fill="#EBE6F5"/>
<path d="M484.305 81.5488H422.368V95.5731H484.305V81.5488Z" fill="#F6EDDA"/>
<path d="M670.11 81.5488H484.306V95.5731H670.11V81.5488Z" fill="white"/>
<path d="M2312.28 519.199H1553.94V686.048H2312.28V519.199Z" fill="#EBE6F5"/>
<path d="M2559.68 458.94L2477.63 376.898L2062.17 800.52H2559.68V458.94Z" fill="#EBE6F5"/>
<path d="M2560 676.54H2478.71V800.52H2560V676.54Z" fill="#FEEFFB"/>
<path d="M1403.03 518.841L1358.04 563.838V800.52H1528.75V563.838L1484.62 518.841H1403.03Z" fill="#FEEFFB"/>
<path d="M1447.46 800.52L1610.04 800.52L1610.04 564.476L1447.46 564.476L1447.46 800.52Z" fill="#EBE6F5"/>
<path d="M1403.04 518.841L1447.46 564.476H1610.04L1564.95 518.841H1403.04Z" fill="white"/>
<path d="M1472.81 610.905L1588.84 610.905L1588.84 596.881L1472.81 596.881L1472.81 610.905Z" fill="white"/>
<path d="M1472.81 652.999L1588.84 652.999L1588.84 638.975L1472.81 638.975L1472.81 652.999Z" fill="white"/>
<path d="M1472.81 695.098L1588.84 695.098L1588.84 681.073L1472.81 681.073L1472.81 695.098Z" fill="white"/>
<path d="M1472.81 737.197L1588.84 737.197L1588.84 723.173L1472.81 723.173L1472.81 737.197Z" fill="white"/>
<path d="M1808.26 800.518L1889.55 800.518L1889.55 549.756L1808.26 549.756L1808.26 800.518Z" fill="#EBE6F5"/>
<path d="M1704.16 800.518L1848.9 800.518L1848.9 549.756L1704.16 549.756L1704.16 800.518Z" fill="#F6EDDA"/>
<path d="M1848.9 563.777L1903.57 563.777L1903.57 549.753L1848.9 549.753L1848.9 563.777Z" fill="#F6EDDA"/>
<path d="M1689.62 563.777L1848.9 563.777L1848.9 549.753L1689.62 549.753L1689.62 563.777Z" fill="white"/>
<path d="M1781.15 620.511L1814.39 620.511L1814.39 587.275L1781.15 587.275L1781.15 620.511Z" fill="#FEEFFB"/>
<path d="M1738.68 620.511L1771.91 620.511L1771.91 587.275L1738.68 587.275L1738.68 620.511Z" fill="#FEEFFB"/>
<path d="M1781.15 662.604L1814.39 662.604L1814.39 629.369L1781.15 629.369L1781.15 662.604Z" fill="#FEEFFB"/>
<path d="M1738.68 662.604L1771.91 662.604L1771.91 629.369L1738.68 629.369L1738.68 662.604Z" fill="#FEEFFB"/>
<path d="M1781.15 704.703L1814.39 704.703L1814.39 671.468L1781.15 671.468L1781.15 704.703Z" fill="#FEEFFB"/>
<path d="M1738.68 704.703L1771.91 704.703L1771.91 671.468L1738.68 671.468L1738.68 704.703Z" fill="#FEEFFB"/>
<path d="M1781.15 746.803L1814.39 746.803L1814.39 713.567L1781.15 713.567L1781.15 746.803Z" fill="#FEEFFB"/>
<path d="M1738.68 746.803L1771.91 746.803L1771.91 713.567L1738.68 713.567L1738.68 746.803Z" fill="#FEEFFB"/>
<path d="M2222.22 676.54L2266.5 631.394H2186.47L2140.93 676.54H2222.22Z" fill="white"/>
<path d="M2140.93 800.521L2222.22 800.521L2222.22 676.541L2140.93 676.541L2140.93 800.521Z" fill="#FEEFFB"/>
<path d="M2266.5 631.394L2311.64 676.54V800.519H2222.22V676.54L2266.5 631.394Z" fill="#EBE6F5"/>
<path d="M2172.18 699.342H2158.16V732.577H2172.18V699.342Z" fill="#F6EDDA"/>
<path d="M2204.99 699.342H2190.97V732.577H2204.99V699.342Z" fill="#F6EDDA"/>
<path d="M2059.65 800.52L2140.93 800.52L2140.93 564.476L2059.65 564.476L2059.65 800.52Z" fill="#EBE6F5"/>
<path d="M2059.64 564.476L1975.12 477.652H2055.15L2140.93 564.476H2059.64Z" fill="white"/>
<path d="M1975.12 477.652L1888.93 563.838V800.52H2059.64V563.838L1975.12 477.652Z" fill="#FEEFFB"/>
<path d="M2016.49 732.574L2030.51 732.574L2030.51 699.339L2016.49 699.339L2016.49 732.574Z" fill="#F6EDDA"/>
<path d="M1983.68 732.574L1997.7 732.574L1997.7 699.339L1983.68 699.339L1983.68 732.574Z" fill="#F6EDDA"/>
<path d="M1950.87 732.574L1964.9 732.574L1964.9 699.339L1950.87 699.339L1950.87 732.574Z" fill="#F6EDDA"/>
<path d="M1918.06 732.574L1932.09 732.574L1932.09 699.339L1918.06 699.339L1918.06 732.574Z" fill="#F6EDDA"/>
<path d="M2016.49 676.54L2030.51 676.54L2030.51 643.304L2016.49 643.304L2016.49 676.54Z" fill="#F6EDDA"/>
<path d="M1983.68 676.54L1997.7 676.54L1997.7 643.304L1983.68 643.304L1983.68 676.54Z" fill="#F6EDDA"/>
<path d="M1950.87 676.54L1964.9 676.54L1964.9 643.304L1950.87 643.304L1950.87 676.54Z" fill="#F6EDDA"/>
<path d="M1918.06 676.54L1932.09 676.54L1932.09 643.304L1918.06 643.304L1918.06 676.54Z" fill="#F6EDDA"/>
<path d="M2016.49 620.511L2030.51 620.511L2030.51 587.275L2016.49 587.275L2016.49 620.511Z" fill="#F6EDDA"/>
<path d="M1983.68 620.511L1997.7 620.511L1997.7 587.275L1983.68 587.275L1983.68 620.511Z" fill="#F6EDDA"/>
<path d="M1950.87 620.511L1964.9 620.511L1964.9 587.275L1950.87 587.275L1950.87 620.511Z" fill="#F6EDDA"/>
<path d="M1918.06 620.511L1932.09 620.511L1932.09 587.275L1918.06 587.275L1918.06 620.511Z" fill="#F6EDDA"/>
<path d="M1983.68 564.477L1997.7 564.477L1997.7 531.241L1983.68 531.241L1983.68 564.477Z" fill="#F6EDDA"/>
<path d="M1950.87 564.477L1964.9 564.477L1964.9 531.241L1950.87 531.241L1950.87 564.477Z" fill="#F6EDDA"/>
<path d="M1622.88 676.54L1578.6 631.394H1658.63L1704.17 676.54H1622.88Z" fill="white"/>
<path d="M1578.6 631.394L1533.46 676.54V800.519H1622.88V676.54L1578.6 631.394Z" fill="#FCFAEF"/>
<path d="M1622.88 800.521L1704.16 800.521L1704.16 676.541L1622.88 676.541L1622.88 800.521Z" fill="#EBE6F5"/>
<path d="M2436.12 800.518L2560 800.518L2560 376.896L2436.12 376.896L2436.12 800.518Z" fill="#EBE6F5"/>
<path d="M2312.26 800.518L2498.06 800.518L2498.06 376.896L2312.26 376.896L2312.26 800.518Z" fill="#FCFAEF"/>
<path d="M2379.36 537.554H2365.34V570.789H2379.36V537.554Z" fill="#EBE6F5"/>
<path d="M2412.17 537.554H2398.15V570.789H2412.17V537.554Z" fill="#EBE6F5"/>
<path d="M2444.98 537.554H2430.96V570.789H2444.98V537.554Z" fill="#EBE6F5"/>
<path d="M2379.36 481.521H2365.34V514.757H2379.36V481.521Z" fill="#EBE6F5"/>
<path d="M2412.17 481.521H2398.15V514.757H2412.17V481.521Z" fill="#EBE6F5"/>
<path d="M2444.98 481.521H2430.96V514.757H2444.98V481.521Z" fill="#EBE6F5"/>
<path d="M2379.36 425.489H2365.34V458.725H2379.36V425.489Z" fill="#EBE6F5"/>
<path d="M2412.17 425.489H2398.15V458.725H2412.17V425.489Z" fill="#EBE6F5"/>
<path d="M2444.98 425.489H2430.96V458.725H2444.98V425.489Z" fill="#EBE6F5"/>
<path d="M2379.36 702.023H2365.34V735.259H2379.36V702.023Z" fill="#EBE6F5"/>
<path d="M2412.17 702.023H2398.15V735.259H2412.17V702.023Z" fill="#EBE6F5"/>
<path d="M2444.98 702.023H2430.96V735.259H2444.98V702.023Z" fill="#EBE6F5"/>
<path d="M2379.36 645.991H2365.34V679.227H2379.36V645.991Z" fill="#EBE6F5"/>
<path d="M2412.17 645.991H2398.15V679.227H2412.17V645.991Z" fill="#EBE6F5"/>
<path d="M2444.98 645.991H2430.96V679.227H2444.98V645.991Z" fill="#EBE6F5"/>
<path d="M2379.36 589.954H2365.34V623.19H2379.36V589.954Z" fill="#EBE6F5"/>
<path d="M2412.17 589.954H2398.15V623.19H2412.17V589.954Z" fill="#EBE6F5"/>
<path d="M2444.98 589.954H2430.96V623.19H2444.98V589.954Z" fill="#EBE6F5"/>
<path d="M2498.06 376.896L2560 376.896L2560 362.871L2498.06 362.871L2498.06 376.896Z" fill="#F6EDDA"/>
<path d="M2312.26 376.896L2498.06 376.896L2498.06 362.871L2312.26 362.871L2312.26 376.896Z" fill="white"/>
<path d="M124.272 535.23H353.918V475.767H166.382C143.125 475.767 124.272 494.619 124.272 517.877V535.23V535.23Z" fill="#EBE6F5"/>
<path d="M395.101 535.23L624.747 535.23L624.747 475.767L395.101 475.767L395.101 535.23Z" fill="#EBE6F5"/>
<path d="M353.918 535.23L395.102 535.23L395.102 475.767L353.918 475.767L353.918 535.23Z" fill="#FEEFFB"/>
<path d="M665.932 535.23H895.578V494.671C895.578 484.231 887.114 475.767 876.675 475.767H665.932V535.23Z" fill="#EBE6F5"/>
<path d="M624.746 535.23L665.93 535.23L665.93 475.767L624.746 475.767L624.746 535.23Z" fill="#FEEFFB"/>
<path d="M315.743 510.258L339.983 510.258L339.983 486.018L315.743 486.018L315.743 510.258Z" fill="#FEEFFB"/>
<path d="M281.861 510.258L306.101 510.258L306.101 486.018L281.861 486.018L281.861 510.258Z" fill="#FEEFFB"/>
<path d="M247.986 510.258L272.225 510.258L272.225 486.018L247.986 486.018L247.986 510.258Z" fill="#FEEFFB"/>
<path d="M214.11 510.258L238.35 510.258L238.35 486.018L214.11 486.018L214.11 510.258Z" fill="#FEEFFB"/>
<path d="M180.235 510.258L204.475 510.258L204.475 486.018L180.235 486.018L180.235 510.258Z" fill="#FEEFFB"/>
<path d="M544.97 510.258L569.21 510.258L569.21 486.018L544.97 486.018L544.97 510.258Z" fill="#FEEFFB"/>
<path d="M511.09 510.258L535.33 510.258L535.33 486.018L511.09 486.018L511.09 510.258Z" fill="#FEEFFB"/>
<path d="M578.907 510.258L603.147 510.258L603.147 486.018L578.907 486.018L578.907 510.258Z" fill="#FEEFFB"/>
<path d="M477.213 510.258L501.453 510.258L501.453 486.018L477.213 486.018L477.213 510.258Z" fill="#FEEFFB"/>
<path d="M443.337 510.258L467.577 510.258L467.577 486.018L443.337 486.018L443.337 510.258Z" fill="#FEEFFB"/>
<path d="M409.46 510.258L433.699 510.258L433.699 486.018L409.46 486.018L409.46 510.258Z" fill="#FEEFFB"/>
<path d="M819.417 510.258L843.657 510.258L843.657 486.018L819.417 486.018L819.417 510.258Z" fill="#FEEFFB"/>
<path d="M785.542 510.258L809.782 510.258L809.782 486.018L785.542 486.018L785.542 510.258Z" fill="#FEEFFB"/>
<path d="M853.359 510.258L877.599 510.258L877.599 486.018L853.359 486.018L853.359 510.258Z" fill="#FEEFFB"/>
<path d="M751.664 510.258L775.905 510.258L775.905 486.018L751.664 486.018L751.664 510.258Z" fill="#FEEFFB"/>
<path d="M717.785 510.258L742.025 510.258L742.025 486.018L717.785 486.018L717.785 510.258Z" fill="#FEEFFB"/>
<path d="M683.909 510.258L708.149 510.258L708.149 486.018L683.909 486.018L683.909 510.258Z" fill="#FEEFFB"/>
<path d="M142.053 510.259H166.293V486.02H158.704C149.508 486.02 142.053 493.474 142.053 502.67V510.259Z" fill="#FEEFFB"/>
<path d="M124.271 549.887L895.577 549.887L895.577 535.229L124.271 535.229L124.271 549.887Z" fill="white"/>
<path d="M976.842 800.52L655.781 479.459L340.908 800.52H976.842Z" fill="#F6EDDA"/>
<path d="M1357.05 800.519L926.286 369.76L503.828 800.519H1357.05Z" fill="#EBE6F5"/>
<path d="M503.511 676.544L682.354 676.544L682.354 662.52L503.511 662.52L503.511 676.544Z" fill="#EBE6F5"/>
<path d="M682.354 676.544L771.776 676.544L771.776 662.52L682.354 662.52L682.354 676.544Z" fill="white"/>
<path d="M771.775 676.545H682.354V800.524H771.775V676.545Z" fill="#EBE6F5"/>
<path d="M550.19 755.308V800.519H635.677V755.308C635.677 731.701 616.54 712.564 592.933 712.564C569.327 712.564 550.19 731.701 550.19 755.308Z" fill="#F6EDDA"/>
<path d="M934.336 800.518L1015.62 800.518L1015.62 549.756L934.336 549.756L934.336 800.518Z" fill="#EBE6F5"/>
<path d="M853.042 800.518L974.978 800.518L974.978 549.756L853.042 549.756L853.042 800.518Z" fill="#F6EDDA"/>
<path d="M918.632 620.511L951.867 620.511L951.867 587.275L918.632 587.275L918.632 620.511Z" fill="#FEEFFB"/>
<path d="M974.977 563.777L1029.64 563.777L1029.64 549.753L974.977 549.753L974.977 563.777Z" fill="#F6EDDA"/>
<path d="M839.018 563.777L974.978 563.777L974.978 549.753L839.018 549.753L839.018 563.777Z" fill="white"/>
<path d="M876.151 620.511L909.387 620.511L909.387 587.275L876.151 587.275L876.151 620.511Z" fill="#FEEFFB"/>
<path d="M918.632 662.604L951.867 662.604L951.867 629.369L918.632 629.369L918.632 662.604Z" fill="#FEEFFB"/>
<path d="M876.151 662.604L909.387 662.604L909.387 629.369L876.151 629.369L876.151 662.604Z" fill="#FEEFFB"/>
<path d="M918.632 704.703L951.867 704.703L951.867 671.468L918.632 671.468L918.632 704.703Z" fill="#FEEFFB"/>
<path d="M876.151 704.703L909.387 704.703L909.387 671.468L876.151 671.468L876.151 704.703Z" fill="#FEEFFB"/>
<path d="M918.632 746.803L951.867 746.803L951.867 713.567L918.632 713.567L918.632 746.803Z" fill="#FEEFFB"/>
<path d="M876.151 746.803L909.387 746.803L909.387 713.567L876.151 713.567L876.151 746.803Z" fill="#FEEFFB"/>
<path d="M422.2 491.678H340.913V800.521H422.2V491.678Z" fill="#EBE6F5"/>
<path d="M503.492 491.678H381.557V800.521H503.492V491.678Z" fill="#F6EDDA"/>
<path d="M381.333 476H340.667V492H381.333V476Z" fill="#F6EDDA"/>
<path d="M503.333 476H381.333V492H503.333V476Z" fill="white"/>
<path d="M1186.34 800.52L1267.62 800.52L1267.62 564.476L1186.34 564.476L1186.34 800.52Z" fill="#EBE6F5"/>
<path d="M1186.33 564.476L1101.81 477.652H1181.84L1267.62 564.476H1186.33Z" fill="white"/>
<path d="M1311.9 631.394L1357.05 676.54V800.519H1267.62V676.54L1311.9 631.394Z" fill="#FEEFFB"/>
<path d="M1267.62 676.54L1311.9 631.394H1231.87L1186.33 676.54H1267.62Z" fill="white"/>
<path d="M1186.34 800.521L1267.62 800.521L1267.62 676.541L1186.34 676.541L1186.34 800.521Z" fill="#F6EDDA"/>
<path d="M1229.81 712.559L1243.84 712.559L1243.84 698.534L1229.81 698.534L1229.81 712.559Z" fill="#FEEFFB"/>
<path d="M1210.12 712.559L1224.14 712.559L1224.14 698.534L1210.12 698.534L1210.12 712.559Z" fill="#FEEFFB"/>
<path d="M1229.81 731.77L1243.84 731.77L1243.84 717.745L1229.81 717.745L1229.81 731.77Z" fill="#FEEFFB"/>
<path d="M1210.12 731.77L1224.14 731.77L1224.14 717.745L1210.12 717.745L1210.12 731.77Z" fill="#FEEFFB"/>
<path d="M809.561 698.531H795.536V712.556H809.561V698.531Z" fill="#FEEFFB"/>
<path d="M829.261 698.531H815.236V712.556H829.261V698.531Z" fill="#FEEFFB"/>
<path d="M809.561 717.742H795.536V731.767H809.561V717.742Z" fill="#FEEFFB"/>
<path d="M829.261 717.742H815.236V731.767H829.261V717.742Z" fill="#FEEFFB"/>
<path d="M1101.81 477.652L1015.62 563.838V800.52H1186.33V563.838L1101.81 477.652Z" fill="#FEEFFB"/>
<path d="M771.777 662.52L727.501 617.374H807.536L853.064 662.52H771.777Z" fill="white"/>
<path d="M853.054 662.521H771.767V800.52H853.054V662.521Z" fill="#FEEFFB"/>
<path d="M727.501 617.374L682.354 662.52L682.331 800.519H771.753L771.776 662.52L727.501 617.374Z" fill="#EBE6F5"/>
<path d="M821.801 732.577L835.825 732.577L835.825 685.322L821.801 685.322L821.801 732.577Z" fill="#F6EDDA"/>
<path d="M788.994 732.577L803.018 732.577L803.018 685.322L788.994 685.322L788.994 732.577Z" fill="#F6EDDA"/>
<path d="M1143.18 732.574L1157.2 732.574L1157.2 699.339L1143.18 699.339L1143.18 732.574Z" fill="#F6EDDA"/>
<path d="M1110.37 732.574L1124.39 732.574L1124.39 699.339L1110.37 699.339L1110.37 732.574Z" fill="#F6EDDA"/>
<path d="M1077.56 732.574L1091.58 732.574L1091.58 699.339L1077.56 699.339L1077.56 732.574Z" fill="#F6EDDA"/>
<path d="M1044.75 732.574L1058.78 732.574L1058.78 699.339L1044.75 699.339L1044.75 732.574Z" fill="#F6EDDA"/>
<path d="M1143.18 676.54L1157.2 676.54L1157.2 643.304L1143.18 643.304L1143.18 676.54Z" fill="#F6EDDA"/>
<path d="M1110.37 676.54L1124.39 676.54L1124.39 643.304L1110.37 643.304L1110.37 676.54Z" fill="#F6EDDA"/>
<path d="M1077.56 676.54L1091.58 676.54L1091.58 643.304L1077.56 643.304L1077.56 676.54Z" fill="#F6EDDA"/>
<path d="M1044.75 676.54L1058.78 676.54L1058.78 643.304L1044.75 643.304L1044.75 676.54Z" fill="#F6EDDA"/>
<path d="M1143.18 620.511L1157.2 620.511L1157.2 587.275L1143.18 587.275L1143.18 620.511Z" fill="#F6EDDA"/>
<path d="M1110.37 620.511L1124.39 620.511L1124.39 587.275L1110.37 587.275L1110.37 620.511Z" fill="#F6EDDA"/>
<path d="M1077.56 620.511L1091.58 620.511L1091.58 587.275L1077.56 587.275L1077.56 620.511Z" fill="#F6EDDA"/>
<path d="M1044.75 620.511L1058.78 620.511L1058.78 587.275L1044.75 587.275L1044.75 620.511Z" fill="#F6EDDA"/>
<path d="M1110.37 564.477L1124.39 564.477L1124.39 531.241L1110.37 531.241L1110.37 564.477Z" fill="#F6EDDA"/>
<path d="M1077.56 564.477L1091.58 564.477L1091.58 531.241L1077.56 531.241L1077.56 564.477Z" fill="#F6EDDA"/>
<path d="M468.319 659.923L482.344 659.923L482.344 626.687L468.319 626.687L468.319 659.923Z" fill="#EBE6F5"/>
<path d="M435.508 659.923L449.532 659.923L449.532 626.687L435.508 626.687L435.508 659.923Z" fill="#EBE6F5"/>
<path d="M402.701 659.923L416.725 659.923L416.725 626.687L402.701 626.687L402.701 659.923Z" fill="#EBE6F5"/>
<path d="M468.319 603.89L482.344 603.89L482.344 570.654L468.319 570.654L468.319 603.89Z" fill="#EBE6F5"/>
<path d="M435.508 603.89L449.532 603.89L449.532 570.654L435.508 570.654L435.508 603.89Z" fill="#EBE6F5"/>
<path d="M402.701 603.89L416.725 603.89L416.725 570.654L402.701 570.654L402.701 603.89Z" fill="#EBE6F5"/>
<path d="M468.319 547.86L482.344 547.86L482.344 514.625L468.319 514.625L468.319 547.86Z" fill="#EBE6F5"/>
<path d="M435.508 547.86L449.532 547.86L449.532 514.625L435.508 514.625L435.508 547.86Z" fill="#EBE6F5"/>
<path d="M402.701 547.86L416.725 547.86L416.725 514.625L402.701 514.625L402.701 547.86Z" fill="#EBE6F5"/>
<path d="M468.319 771.991L482.344 771.991L482.344 738.756L468.319 738.756L468.319 771.991Z" fill="#EBE6F5"/>
<path d="M435.508 771.991L449.532 771.991L449.532 738.756L435.508 738.756L435.508 771.991Z" fill="#EBE6F5"/>
<path d="M402.701 771.991L416.725 771.991L416.725 738.756L402.701 738.756L402.701 771.991Z" fill="#EBE6F5"/>
<path d="M468.319 715.957L482.344 715.957L482.344 682.721L468.319 682.721L468.319 715.957Z" fill="#EBE6F5"/>
<path d="M435.508 715.957L449.532 715.957L449.532 682.721L435.508 682.721L435.508 715.957Z" fill="#EBE6F5"/>
<path d="M402.701 715.957L416.725 715.957L416.725 682.721L402.701 682.721L402.701 715.957Z" fill="#EBE6F5"/>
<path d="M468.319 659.923L482.344 659.923L482.344 626.687L468.319 626.687L468.319 659.923Z" fill="#EBE6F5"/>
<path d="M435.508 659.923L449.532 659.923L449.532 626.687L435.508 626.687L435.508 659.923Z" fill="#EBE6F5"/>
<path d="M402.701 659.923L416.725 659.923L416.725 626.687L402.701 626.687L402.701 659.923Z" fill="#EBE6F5"/>
<path d="M295.762 549.758L340.908 594.904V800.52H251.486V594.904L295.762 549.758Z" fill="#FEEFFB"/>
<path d="M251.486 594.904L295.762 549.758H215.732L170.199 594.904H251.486Z" fill="white"/>
<path d="M170.202 800.52L251.489 800.52L251.489 594.899L170.202 594.899L170.202 800.52Z" fill="#F6EDDA"/>
<path d="M194.227 648.011L227.462 648.011L227.462 614.775L194.227 614.775L194.227 648.011Z" fill="#EBE6F5"/>
<path d="M194.227 693.162L227.462 693.162L227.462 659.926L194.227 659.926L194.227 693.162Z" fill="#EBE6F5"/>
<path d="M194.227 738.312L227.462 738.312L227.462 705.076L194.227 705.076L194.227 738.312Z" fill="#EBE6F5"/>
<path d="M132.392 710.975L146.416 710.975L146.416 696.95L132.392 696.95L132.392 710.975Z" fill="#EBE6F5"/>
<path d="M112.692 710.975L126.716 710.975L126.716 696.95L112.692 696.95L112.692 710.975Z" fill="#EBE6F5"/>
<path d="M132.392 730.186L146.416 730.186L146.416 716.161L132.392 716.161L132.392 730.186Z" fill="#EBE6F5"/>
<path d="M112.692 730.186L126.716 730.186L126.716 716.161L112.692 716.161L112.692 730.186Z" fill="#EBE6F5"/>
<path d="M-0.666626 458.939V800.52H340.909L-0.666626 458.939Z" fill="#EBE6F5"/>
<path d="M206.337 836.14L251.334 881.137V1117.82H80.6205V881.137L124.752 836.14H206.337Z" fill="#FEEFFB"/>
<path d="M161.912 881.774H-0.666626V1117.82H161.912V881.774Z" fill="#EBE6F5"/>
<path d="M206.337 836.14L161.912 881.775H-0.666626L44.4189 836.14H206.337Z" fill="white"/>
<path d="M136.561 914.176H20.5339V928.2H136.561V914.176Z" fill="white"/>
<path d="M136.561 956.272H20.5339V970.297H136.561V956.272Z" fill="white"/>
<path d="M136.561 998.374H20.5339V1012.4H136.561V998.374Z" fill="white"/>
<path d="M136.561 1040.47H20.5339V1054.5H136.561V1040.47Z" fill="white"/>
<path d="M1326.9 852.529H1556.55V793.065H1369.01C1345.75 793.065 1326.9 811.918 1326.9 835.176V852.529V852.529Z" fill="#EBE6F5"/>
<path d="M1597.73 852.527L1827.38 852.527L1827.38 793.064L1597.73 793.064L1597.73 852.527Z" fill="#EBE6F5"/>
<path d="M1556.55 852.527L1597.73 852.527L1597.73 793.064L1556.55 793.064L1556.55 852.527Z" fill="#FEEFFB"/>
<path d="M1868.56 852.529H2098.21V811.969C2098.21 801.53 2089.74 793.065 2079.3 793.065H1868.56V852.529Z" fill="#EBE6F5"/>
<path d="M1827.38 852.527L1868.56 852.527L1868.56 793.064L1827.38 793.064L1827.38 852.527Z" fill="#FEEFFB"/>
<path d="M1518.37 827.559L1542.61 827.559L1542.61 803.319L1518.37 803.319L1518.37 827.559Z" fill="#FEEFFB"/>
<path d="M1484.49 827.559L1508.73 827.559L1508.73 803.319L1484.49 803.319L1484.49 827.559Z" fill="#FEEFFB"/>
<path d="M1450.62 827.559L1474.86 827.559L1474.86 803.319L1450.62 803.319L1450.62 827.559Z" fill="#FEEFFB"/>
<path d="M1416.74 827.559L1440.98 827.559L1440.98 803.319L1416.74 803.319L1416.74 827.559Z" fill="#FEEFFB"/>
<path d="M1382.86 827.559L1407.1 827.559L1407.1 803.319L1382.86 803.319L1382.86 827.559Z" fill="#FEEFFB"/>
<path d="M1747.6 827.559L1771.84 827.559L1771.84 803.319L1747.6 803.319L1747.6 827.559Z" fill="#FEEFFB"/>
<path d="M1713.72 827.559L1737.96 827.559L1737.96 803.319L1713.72 803.319L1713.72 827.559Z" fill="#FEEFFB"/>
<path d="M1781.54 827.559L1805.78 827.559L1805.78 803.319L1781.54 803.319L1781.54 827.559Z" fill="#FEEFFB"/>
<path d="M1679.84 827.559L1704.08 827.559L1704.08 803.319L1679.84 803.319L1679.84 827.559Z" fill="#FEEFFB"/>
<path d="M1645.97 827.559L1670.21 827.559L1670.21 803.319L1645.97 803.319L1645.97 827.559Z" fill="#FEEFFB"/>
<path d="M1612.09 827.559L1636.33 827.559L1636.33 803.319L1612.09 803.319L1612.09 827.559Z" fill="#FEEFFB"/>
<path d="M2022.05 827.559L2046.29 827.559L2046.29 803.319L2022.05 803.319L2022.05 827.559Z" fill="#FEEFFB"/>
<path d="M1988.17 827.559L2012.41 827.559L2012.41 803.319L1988.17 803.319L1988.17 827.559Z" fill="#FEEFFB"/>
<path d="M2055.99 827.559L2080.23 827.559L2080.23 803.319L2055.99 803.319L2055.99 827.559Z" fill="#FEEFFB"/>
<path d="M1954.3 827.559L1978.54 827.559L1978.54 803.319L1954.3 803.319L1954.3 827.559Z" fill="#FEEFFB"/>
<path d="M1920.41 827.559L1944.65 827.559L1944.65 803.319L1920.41 803.319L1920.41 827.559Z" fill="#FEEFFB"/>
<path d="M1886.54 827.559L1910.78 827.559L1910.78 803.319L1886.54 803.319L1886.54 827.559Z" fill="#FEEFFB"/>
<path d="M1344.68 827.559H1368.92V803.318H1361.33C1352.14 803.318 1344.68 810.773 1344.68 819.969V827.559Z" fill="#FEEFFB"/>
<path d="M1326.9 867.184L2098.21 867.184L2098.21 852.526L1326.9 852.526L1326.9 867.184Z" fill="white"/>
<path d="M2179.47 1117.82L1858.41 796.758L1543.54 1117.82H2179.47Z" fill="#F6EDDA"/>
<path d="M2559.68 1117.82L2128.92 687.059L1706.46 1117.82H2559.68Z" fill="#EBE6F5"/>
<path d="M1706.14 993.841L1884.98 993.841L1884.98 979.816L1706.14 979.816L1706.14 993.841Z" fill="#EBE6F5"/>
<path d="M1974.4 993.844H1884.98V1117.82H1974.4V993.844Z" fill="#EBE6F5"/>
<path d="M1706.12 993.825V1117.82H1752.82V1072.61C1752.82 1049 1778.39 1078.67 1802 1078.67C1825.61 1078.67 1838.31 1049 1838.31 1072.61V1117.82H1889V993.825H1706.12Z" fill="#FEEFFB"/>
<path d="M938.053 729.053H759.21V743.077H938.053V729.053Z" fill="#EBE6F5"/>
<path d="M759.21 729.053H669.788V743.077H759.21V729.053Z" fill="white"/>
<path d="M759.21 743.077H669.788V867.057H759.21V743.077Z" fill="#EBE6F5"/>
<path d="M938.071 743.058V867.051H891.37V821.84C891.37 798.233 872.233 779.096 848.626 779.096C825.02 779.096 805.883 798.233 805.883 821.84V867.051H759.228V743.058H938.071Z" fill="#FEEFFB"/>
<path d="M891.37 821.84V867.052H805.883V821.84C805.883 798.233 825.02 779.097 848.626 779.097C872.233 779.097 891.37 798.233 891.37 821.84Z" fill="#F6EDDA"/>
<path d="M2136.97 1117.82L2218.25 1117.82L2218.25 867.057L2136.97 867.057L2136.97 1117.82Z" fill="#EBE6F5"/>
<path d="M2055.67 1117.82L2177.61 1117.82L2177.61 867.057L2055.67 867.057L2055.67 1117.82Z" fill="#F6EDDA"/>
<path d="M2121.26 937.808L2154.5 937.808L2154.5 904.572L2121.26 904.572L2121.26 937.808Z" fill="#FEEFFB"/>
<path d="M2177.61 881.078L2232.27 881.078L2232.27 867.054L2177.61 867.054L2177.61 881.078Z" fill="#F6EDDA"/>
<path d="M2041.65 881.078L2177.61 881.078L2177.61 867.054L2041.65 867.054L2041.65 881.078Z" fill="white"/>
<path d="M2078.78 937.808L2112.02 937.808L2112.02 904.572L2078.78 904.572L2078.78 937.808Z" fill="#FEEFFB"/>
<path d="M2121.26 979.906L2154.5 979.906L2154.5 946.671L2121.26 946.671L2121.26 979.906Z" fill="#FEEFFB"/>
<path d="M2078.78 979.906L2112.02 979.906L2112.02 946.671L2078.78 946.671L2078.78 979.906Z" fill="#FEEFFB"/>
<path d="M2121.26 1022L2154.5 1022L2154.5 988.765L2121.26 988.765L2121.26 1022Z" fill="#FEEFFB"/>
<path d="M2078.78 1022L2112.02 1022L2112.02 988.765L2078.78 988.765L2078.78 1022Z" fill="#FEEFFB"/>
<path d="M2121.26 1064.1L2154.5 1064.1L2154.5 1030.86L2121.26 1030.86L2121.26 1064.1Z" fill="#FEEFFB"/>
<path d="M2078.78 1064.1L2112.02 1064.1L2112.02 1030.86L2078.78 1030.86L2078.78 1064.1Z" fill="#FEEFFB"/>
<path d="M751.075 867.052H669.788V1117.81H751.075V867.052Z" fill="#EBE6F5"/>
<path d="M855.168 867.052H710.432V1117.81H855.168V867.052Z" fill="#F6EDDA"/>
<path d="M710.431 867.052H655.763V881.076H710.431V867.052Z" fill="#F6EDDA"/>
<path d="M869.709 867.052H710.432V881.076H869.709V867.052Z" fill="white"/>
<path d="M778.177 904.57H744.941V937.806H778.177V904.57Z" fill="#FEEFFB"/>
<path d="M820.655 904.57H787.42V937.806H820.655V904.57Z" fill="#FEEFFB"/>
<path d="M778.177 946.668H744.941V979.904H778.177V946.668Z" fill="#FEEFFB"/>
<path d="M820.655 946.668H787.42V979.904H820.655V946.668Z" fill="#FEEFFB"/>
<path d="M778.177 988.769H744.941V1022H778.177V988.769Z" fill="#FEEFFB"/>
<path d="M820.655 988.769H787.42V1022H820.655V988.769Z" fill="#FEEFFB"/>
<path d="M778.177 1030.87H744.941V1064.1H778.177V1030.87Z" fill="#FEEFFB"/>
<path d="M820.655 1030.87H787.42V1064.1H820.655V1030.87Z" fill="#FEEFFB"/>
<path d="M1624.83 808.976H1543.54V1117.82H1624.83V808.976Z" fill="#EBE6F5"/>
<path d="M1706.12 808.976H1584.19V1117.82H1706.12V808.976Z" fill="#F6EDDA"/>
<path d="M1576.67 793.333H1533.33V808.666H1576.67V793.333Z" fill="#F6EDDA"/>
<path d="M1706 793.333H1576.67V808.666H1706V793.333Z" fill="white"/>
<path d="M2388.97 1117.82L2470.25 1117.82L2470.25 881.771L2388.97 881.771L2388.97 1117.82Z" fill="#EBE6F5"/>
<path d="M2388.96 881.775L2304.44 794.951H2384.47L2470.25 881.775H2388.96Z" fill="white"/>
<path d="M2514.56 948.666L2560 993.867V1118H2470V993.867L2514.56 948.666Z" fill="#FEEFFB"/>
<path d="M2470.25 993.838L2514.53 948.692H2434.49L2388.96 993.838H2470.25Z" fill="white"/>
<path d="M2388.97 1117.82L2470.25 1117.82L2470.25 993.838L2388.97 993.838L2388.97 1117.82Z" fill="#F6EDDA"/>
<path d="M2432.44 1029.86L2446.47 1029.86L2446.47 1015.83L2432.44 1015.83L2432.44 1029.86Z" fill="#FEEFFB"/>
<path d="M2412.75 1029.86L2426.77 1029.86L2426.77 1015.83L2412.75 1015.83L2412.75 1029.86Z" fill="#FEEFFB"/>
<path d="M2432.44 1049.07L2446.47 1049.07L2446.47 1035.04L2432.44 1035.04L2432.44 1049.07Z" fill="#FEEFFB"/>
<path d="M2412.75 1049.07L2426.77 1049.07L2426.77 1035.04L2412.75 1035.04L2412.75 1049.07Z" fill="#FEEFFB"/>
<path d="M2012.19 1015.83H1998.17V1029.85H2012.19V1015.83Z" fill="#FEEFFB"/>
<path d="M2031.89 1015.83H2017.87V1029.85H2031.89V1015.83Z" fill="#FEEFFB"/>
<path d="M2012.19 1035.04H1998.17V1049.07H2012.19V1035.04Z" fill="#FEEFFB"/>
<path d="M2031.89 1035.04H2017.87V1049.07H2031.89V1035.04Z" fill="#FEEFFB"/>
<path d="M2304.44 794.951L2218.25 881.137V1117.82H2388.96V881.137L2304.44 794.951Z" fill="#FEEFFB"/>
<path d="M1977.67 979.819L1933.39 934.673H2010.16L2055.7 979.819H1977.67Z" fill="white"/>
<path d="M2055.68 979.819H1974.4V1117.82H2055.68V979.819Z" fill="#FEEFFB"/>
<path d="M1933.84 934.673L1888.69 979.819L1888.67 1117.82H1978.09L1978.11 979.819L1933.84 934.673Z" fill="#EBE6F5"/>
<path d="M2024.43 1049.87L2038.45 1049.87L2038.45 1002.62L2024.43 1002.62L2024.43 1049.87Z" fill="#F6EDDA"/>
<path d="M1991.62 1049.87L2005.65 1049.87L2005.65 1002.62L1991.62 1002.62L1991.62 1049.87Z" fill="#F6EDDA"/>
<path d="M340.755 993.838L296.479 948.692H376.514L422.042 993.838H340.755Z" fill="white"/>
<path d="M422.043 993.839H340.756V1117.82H422.043V993.839Z" fill="#FEEFFB"/>
<path d="M296.48 948.692L251.334 993.838V1117.82H340.756V993.838L296.48 948.692Z" fill="#EBE6F5"/>
<path d="M390.793 1049.87L404.817 1049.87L404.817 1016.63L390.793 1016.63L390.793 1049.87Z" fill="#F6EDDA"/>
<path d="M357.986 1049.87L372.01 1049.87L372.01 1016.63L357.986 1016.63L357.986 1049.87Z" fill="#F6EDDA"/>
<path d="M2345.81 1049.87L2359.83 1049.87L2359.83 1016.63L2345.81 1016.63L2345.81 1049.87Z" fill="#F6EDDA"/>
<path d="M2313 1049.87L2327.02 1049.87L2327.02 1016.63L2313 1016.63L2313 1049.87Z" fill="#F6EDDA"/>
<path d="M2280.19 1049.87L2294.21 1049.87L2294.21 1016.63L2280.19 1016.63L2280.19 1049.87Z" fill="#F6EDDA"/>
<path d="M2247.38 1049.87L2261.41 1049.87L2261.41 1016.63L2247.38 1016.63L2247.38 1049.87Z" fill="#F6EDDA"/>
<path d="M2345.81 993.842L2359.83 993.842L2359.83 960.606L2345.81 960.606L2345.81 993.842Z" fill="#F6EDDA"/>
<path d="M2313 993.842L2327.02 993.842L2327.02 960.606L2313 960.606L2313 993.842Z" fill="#F6EDDA"/>
<path d="M2280.19 993.842L2294.21 993.842L2294.21 960.606L2280.19 960.606L2280.19 993.842Z" fill="#F6EDDA"/>
<path d="M2247.38 993.842L2261.41 993.842L2261.41 960.606L2247.38 960.606L2247.38 993.842Z" fill="#F6EDDA"/>
<path d="M2345.81 937.808L2359.83 937.808L2359.83 904.572L2345.81 904.572L2345.81 937.808Z" fill="#F6EDDA"/>
<path d="M2313 937.808L2327.02 937.808L2327.02 904.572L2313 904.572L2313 937.808Z" fill="#F6EDDA"/>
<path d="M2280.19 937.808L2294.21 937.808L2294.21 904.572L2280.19 904.572L2280.19 937.808Z" fill="#F6EDDA"/>
<path d="M2247.38 937.808L2261.41 937.808L2261.41 904.572L2247.38 904.572L2247.38 937.808Z" fill="#F6EDDA"/>
<path d="M2313 881.773L2327.02 881.773L2327.02 848.538L2313 848.538L2313 881.773Z" fill="#F6EDDA"/>
<path d="M2280.19 881.773L2294.21 881.773L2294.21 848.538L2280.19 848.538L2280.19 881.773Z" fill="#F6EDDA"/>
<path d="M1670.95 977.22L1684.97 977.22L1684.97 943.984L1670.95 943.984L1670.95 977.22Z" fill="#EBE6F5"/>
<path d="M1638.14 977.22L1652.16 977.22L1652.16 943.984L1638.14 943.984L1638.14 977.22Z" fill="#EBE6F5"/>
<path d="M1605.33 977.22L1619.36 977.22L1619.36 943.984L1605.33 943.984L1605.33 977.22Z" fill="#EBE6F5"/>
<path d="M1670.95 921.191L1684.97 921.191L1684.97 887.956L1670.95 887.956L1670.95 921.191Z" fill="#EBE6F5"/>
<path d="M1638.14 921.191L1652.16 921.191L1652.16 887.956L1638.14 887.956L1638.14 921.191Z" fill="#EBE6F5"/>
<path d="M1605.33 921.191L1619.36 921.191L1619.36 887.956L1605.33 887.956L1605.33 921.191Z" fill="#EBE6F5"/>
<path d="M1670.95 865.157L1684.97 865.157L1684.97 831.922L1670.95 831.922L1670.95 865.157Z" fill="#EBE6F5"/>
<path d="M1638.14 865.157L1652.16 865.157L1652.16 831.922L1638.14 831.922L1638.14 865.157Z" fill="#EBE6F5"/>
<path d="M1605.33 865.157L1619.36 865.157L1619.36 831.922L1605.33 831.922L1605.33 865.157Z" fill="#EBE6F5"/>
<path d="M1670.95 1089.29L1684.97 1089.29L1684.97 1056.05L1670.95 1056.05L1670.95 1089.29Z" fill="#EBE6F5"/>
<path d="M1638.14 1089.29L1652.16 1089.29L1652.16 1056.05L1638.14 1056.05L1638.14 1089.29Z" fill="#EBE6F5"/>
<path d="M1605.33 1089.29L1619.36 1089.29L1619.36 1056.05L1605.33 1056.05L1605.33 1089.29Z" fill="#EBE6F5"/>
<path d="M1670.95 1033.25L1684.97 1033.25L1684.97 1000.02L1670.95 1000.02L1670.95 1033.25Z" fill="#EBE6F5"/>
<path d="M1638.14 1033.25L1652.16 1033.25L1652.16 1000.02L1638.14 1000.02L1638.14 1033.25Z" fill="#EBE6F5"/>
<path d="M1605.33 1033.25L1619.36 1033.25L1619.36 1000.02L1605.33 1000.02L1605.33 1033.25Z" fill="#EBE6F5"/>
<path d="M1670.95 977.22L1684.97 977.22L1684.97 943.984L1670.95 943.984L1670.95 977.22Z" fill="#EBE6F5"/>
<path d="M1638.14 977.22L1652.16 977.22L1652.16 943.984L1638.14 943.984L1638.14 977.22Z" fill="#EBE6F5"/>
<path d="M1605.33 977.22L1619.36 977.22L1619.36 943.984L1605.33 943.984L1605.33 977.22Z" fill="#EBE6F5"/>
<path d="M1498.4 867.052L1543.54 912.198V1117.82H1454.12V912.198L1498.4 867.052Z" fill="#FEEFFB"/>
<path d="M1454.12 912.198L1498.4 867.052H1418.36L1372.83 912.198H1454.12Z" fill="white"/>
<path d="M1372.83 1117.82L1454.12 1117.82L1454.12 912.2L1372.83 912.2L1372.83 1117.82Z" fill="#F6EDDA"/>
<path d="M1396.86 965.312L1430.09 965.312L1430.09 932.077L1396.86 932.077L1396.86 965.312Z" fill="#EBE6F5"/>
<path d="M1396.86 1010.46L1430.09 1010.46L1430.09 977.222L1396.86 977.222L1396.86 1010.46Z" fill="#EBE6F5"/>
<path d="M1396.86 1055.61L1430.09 1055.61L1430.09 1022.37L1396.86 1022.37L1396.86 1055.61Z" fill="#EBE6F5"/>
<path d="M1543.54 1117.82L1119.92 694.191L704.457 1117.82H1543.54Z" fill="#EBE6F5"/>
<path d="M936.451 881.774H855.164V1117.82H936.451V881.774Z" fill="#EBE6F5"/>
<path d="M936.455 881.775L1020.98 794.951H940.949L855.164 881.775H936.455Z" fill="white"/>
<path d="M1020.98 794.951L1107.16 881.137V1117.82H936.455V881.137L1020.98 794.951Z" fill="#FEEFFB"/>
<path d="M979.613 1016.64H965.588V1049.88H979.613V1016.64Z" fill="#F6EDDA"/>
<path d="M1012.42 1016.64H998.395V1049.88H1012.42V1016.64Z" fill="#F6EDDA"/>
<path d="M1045.23 1016.64H1031.2V1049.88H1045.23V1016.64Z" fill="#F6EDDA"/>
<path d="M1078.03 1016.64H1064.01V1049.88H1078.03V1016.64Z" fill="#F6EDDA"/>
<path d="M979.613 960.604H965.588V993.839H979.613V960.604Z" fill="#F6EDDA"/>
<path d="M1012.42 960.604H998.395V993.839H1012.42V960.604Z" fill="#F6EDDA"/>
<path d="M1045.23 960.604H1031.2V993.839H1045.23V960.604Z" fill="#F6EDDA"/>
<path d="M1078.03 960.604H1064.01V993.839H1078.03V960.604Z" fill="#F6EDDA"/>
<path d="M979.613 904.57H965.588V937.806H979.613V904.57Z" fill="#F6EDDA"/>
<path d="M1012.42 904.57H998.395V937.806H1012.42V904.57Z" fill="#F6EDDA"/>
<path d="M1045.23 904.57H1031.2V937.806H1045.23V904.57Z" fill="#F6EDDA"/>
<path d="M1078.03 904.57H1064.01V937.806H1078.03V904.57Z" fill="#F6EDDA"/>
<path d="M1012.42 848.539H998.395V881.775H1012.42V848.539Z" fill="#F6EDDA"/>
<path d="M1045.23 848.539H1031.2V881.775H1045.23V848.539Z" fill="#F6EDDA"/>
<path d="M1121 993.838L1076.72 948.692H1156.76L1202.29 993.838H1121Z" fill="white"/>
<path d="M1202.28 993.839H1121V1117.82H1202.28V993.839Z" fill="#FEEFFB"/>
<path d="M1076.72 948.692L1031.57 993.838V1117.82H1121V993.838L1076.72 948.692Z" fill="#FCFAEF"/>
<path d="M1335.02 1028.27L1349.05 1028.27L1349.05 1014.25L1335.02 1014.25L1335.02 1028.27Z" fill="#EBE6F5"/>
<path d="M1315.32 1028.27L1329.35 1028.27L1329.35 1014.25L1315.32 1014.25L1315.32 1028.27Z" fill="#EBE6F5"/>
<path d="M1335.02 1047.48L1349.05 1047.48L1349.05 1033.46L1335.02 1033.46L1335.02 1047.48Z" fill="#EBE6F5"/>
<path d="M1315.32 1047.48L1329.35 1047.48L1329.35 1033.46L1315.32 1033.46L1315.32 1047.48Z" fill="#EBE6F5"/>
<path d="M545.916 694.191H422.043V1117.81H545.916V694.191Z" fill="#EBE6F5"/>
<path d="M669.783 694.191H483.979V1117.81H669.783V694.191Z" fill="#FCFAEF"/>
<path d="M602.675 888.086L616.699 888.086L616.699 854.85L602.675 854.85L602.675 888.086Z" fill="#EBE6F5"/>
<path d="M569.87 888.086L583.895 888.086L583.895 854.85L569.87 854.85L569.87 888.086Z" fill="#EBE6F5"/>
<path d="M537.064 888.086L551.088 888.086L551.088 854.85L537.064 854.85L537.064 888.086Z" fill="#EBE6F5"/>
<path d="M602.675 832.052L616.699 832.052L616.699 798.816L602.675 798.816L602.675 832.052Z" fill="#EBE6F5"/>
<path d="M569.87 832.052L583.895 832.052L583.895 798.816L569.87 798.816L569.87 832.052Z" fill="#EBE6F5"/>
<path d="M537.064 832.052L551.088 832.052L551.088 798.816L537.064 798.816L537.064 832.052Z" fill="#EBE6F5"/>
<path d="M602.675 776.022L616.699 776.022L616.699 742.787L602.675 742.787L602.675 776.022Z" fill="#EBE6F5"/>
<path d="M569.87 776.022L583.895 776.022L583.895 742.787L569.87 742.787L569.87 776.022Z" fill="#EBE6F5"/>
<path d="M537.064 776.022L551.088 776.022L551.088 742.787L537.064 742.787L537.064 776.022Z" fill="#EBE6F5"/>
<path d="M602.675 1052.55L616.699 1052.55L616.699 1019.32L602.675 1019.32L602.675 1052.55Z" fill="#EBE6F5"/>
<path d="M569.87 1052.55L583.895 1052.55L583.895 1019.32L569.87 1019.32L569.87 1052.55Z" fill="#EBE6F5"/>
<path d="M537.064 1052.55L551.088 1052.55L551.088 1019.32L537.064 1019.32L537.064 1052.55Z" fill="#EBE6F5"/>
<path d="M602.675 996.522L616.699 996.522L616.699 963.287L602.675 963.287L602.675 996.522Z" fill="#EBE6F5"/>
<path d="M569.87 996.522L583.895 996.522L583.895 963.287L569.87 963.287L569.87 996.522Z" fill="#EBE6F5"/>
<path d="M537.064 996.522L551.088 996.522L551.088 963.287L537.064 963.287L537.064 996.522Z" fill="#EBE6F5"/>
<path d="M602.675 940.488L616.699 940.488L616.699 907.253L602.675 907.253L602.675 940.488Z" fill="#EBE6F5"/>
<path d="M569.87 940.488L583.895 940.488L583.895 907.253L569.87 907.253L569.87 940.488Z" fill="#EBE6F5"/>
<path d="M537.064 940.489L551.088 940.489L551.088 907.254L537.064 907.254L537.064 940.489Z" fill="#EBE6F5"/>
<path d="M484 676.666H422V693.999H484V676.666Z" fill="#F6EDDA"/>
<path d="M670 676.666H484V693.999H670V676.666Z" fill="white"/>
<path d="M2352.67 1159.01L2307.67 1204V1440.69H2478.38V1204L2434.26 1159.01H2352.67Z" fill="#FEEFFB"/>
<path d="M2397.33 1440.67L2560 1440.67L2560 1204.67L2397.33 1204.67L2397.33 1440.67Z" fill="#EBE6F5"/>
<path d="M2352.67 1159.01L2397.09 1204.64H2559.67L2514.59 1159.01H2352.67Z" fill="white"/>
<path d="M2422.45 1251.07L2538.48 1251.07L2538.48 1237.05L2422.45 1237.05L2422.45 1251.07Z" fill="white"/>
<path d="M2422.45 1293.17L2538.48 1293.17L2538.48 1279.14L2422.45 1279.14L2422.45 1293.17Z" fill="white"/>
<path d="M2422.45 1335.26L2538.48 1335.26L2538.48 1321.24L2422.45 1321.24L2422.45 1335.26Z" fill="white"/>
<path d="M2422.45 1377.36L2538.48 1377.36L2538.48 1363.34L2422.45 1363.34L2422.45 1377.36Z" fill="white"/>
<path d="M1232.11 1175.4H1002.46V1115.93H1190C1213.25 1115.93 1232.11 1134.79 1232.11 1158.04V1175.4Z" fill="#EBE6F5"/>
<path d="M961.276 1115.93H731.63V1175.4H961.276V1115.93Z" fill="#EBE6F5"/>
<path d="M1002.46 1115.93H961.278V1175.4H1002.46V1115.93Z" fill="#FEEFFB"/>
<path d="M690.446 1175.4H460.8V1134.84C460.8 1124.4 469.265 1115.93 479.704 1115.93H690.446V1175.4Z" fill="#EBE6F5"/>
<path d="M731.631 1115.93H690.448V1175.4H731.631V1115.93Z" fill="#FEEFFB"/>
<path d="M1040.64 1126.19H1016.4V1150.43H1040.64V1126.19Z" fill="#FEEFFB"/>
<path d="M1074.51 1126.19H1050.27V1150.43H1074.51V1126.19Z" fill="#FEEFFB"/>
<path d="M1108.39 1126.19H1084.15V1150.43H1108.39V1126.19Z" fill="#FEEFFB"/>
<path d="M1142.27 1126.19H1118.03V1150.43H1142.27V1126.19Z" fill="#FEEFFB"/>
<path d="M1176.14 1126.19H1151.91V1150.43H1176.14V1126.19Z" fill="#FEEFFB"/>
<path d="M811.409 1126.19H787.169V1150.43H811.409V1126.19Z" fill="#FEEFFB"/>
<path d="M845.287 1126.19H821.047V1150.43H845.287V1126.19Z" fill="#FEEFFB"/>
<path d="M777.471 1126.19H753.231V1150.43H777.471V1126.19Z" fill="#FEEFFB"/>
<path d="M879.165 1126.19H854.925V1150.43H879.165V1126.19Z" fill="#FEEFFB"/>
<path d="M913.038 1126.19H888.798V1150.43H913.038V1126.19Z" fill="#FEEFFB"/>
<path d="M946.918 1126.19H922.678V1150.43H946.918V1126.19Z" fill="#FEEFFB"/>
<path d="M536.96 1126.19H512.72V1150.43H536.96V1126.19Z" fill="#FEEFFB"/>
<path d="M570.836 1126.19H546.596V1150.43H570.836V1126.19Z" fill="#FEEFFB"/>
<path d="M503.019 1126.19H478.779V1150.43H503.019V1126.19Z" fill="#FEEFFB"/>
<path d="M604.713 1126.19H580.473V1150.43H604.713V1126.19Z" fill="#FEEFFB"/>
<path d="M638.591 1126.19H614.351V1150.43H638.591V1126.19Z" fill="#FEEFFB"/>
<path d="M672.468 1126.19H648.228V1150.43H672.468V1126.19Z" fill="#FEEFFB"/>
<path d="M1214.32 1150.43H1190.08V1126.19H1197.67C1206.87 1126.19 1214.32 1133.64 1214.32 1142.84V1150.43V1150.43Z" fill="#FEEFFB"/>
<path d="M1232.11 1175.4H460.8V1190.05H1232.11V1175.4Z" fill="white"/>
<path d="M379.535 1440.69L700.596 1119.62L1015.46 1440.69H379.535Z" fill="#F6EDDA"/>
<path d="M-0.666626 1440.69L430.093 1009.93L852.551 1440.69H-0.666626Z" fill="#EBE6F5"/>
<path d="M852.867 1302.69H674.024V1316.71H852.867V1302.69Z" fill="#EBE6F5"/>
<path d="M674.026 1302.69H584.604V1316.71H674.026V1302.69Z" fill="white"/>
<path d="M674.026 1316.71H584.604V1440.69H674.026V1316.71Z" fill="#EBE6F5"/>
<path d="M852.887 1316.69V1440.69H806.186V1395.47C806.186 1371.87 787.049 1352.73 763.442 1352.73C739.836 1352.73 720.699 1371.87 720.699 1395.47V1440.69H674.044V1316.69H852.887Z" fill="#FEEFFB"/>
<path d="M806.184 1395.47V1440.69H720.697V1395.47C720.697 1371.87 739.834 1352.73 763.44 1352.73C787.047 1352.73 806.184 1371.87 806.184 1395.47Z" fill="#F6EDDA"/>
<path d="M1620.96 1065.95L1799.8 1065.95L1799.8 1051.92L1620.96 1051.92L1620.96 1065.95Z" fill="#EBE6F5"/>
<path d="M1799.8 1065.95L1889.22 1065.95L1889.22 1051.92L1799.8 1051.92L1799.8 1065.95Z" fill="white"/>
<path d="M1889.22 1065.95H1799.8V1189.93H1889.22V1065.95Z" fill="#EBE6F5"/>
<path d="M1620.94 1065.93V1189.92H1667.64V1144.71C1667.64 1121.11 1686.78 1101.97 1710.38 1101.97C1733.99 1101.97 1753.13 1121.11 1753.13 1144.71V1189.92H1799.78V1065.93H1620.94Z" fill="#FEEFFB"/>
<path d="M1667.64 1144.71V1189.92H1753.13V1144.71C1753.13 1121.11 1733.99 1101.97 1710.38 1101.97C1686.77 1101.97 1667.64 1121.11 1667.64 1144.71Z" fill="#F6EDDA"/>
<path d="M422.043 1189.92H340.756V1440.69H422.043V1189.92Z" fill="#EBE6F5"/>
<path d="M503.335 1189.92H381.4V1440.69H503.335V1189.92Z" fill="#F6EDDA"/>
<path d="M437.748 1227.44H404.512V1260.68H437.748V1227.44Z" fill="#FEEFFB"/>
<path d="M381.399 1189.92H326.731V1203.95H381.399V1189.92Z" fill="#F6EDDA"/>
<path d="M517.359 1189.92H381.4V1203.95H517.359V1189.92Z" fill="white"/>
<path d="M480.226 1227.44H446.99V1260.68H480.226V1227.44Z" fill="#FEEFFB"/>
<path d="M437.748 1269.54H404.512V1302.77H437.748V1269.54Z" fill="#FEEFFB"/>
<path d="M480.226 1269.54H446.99V1302.77H480.226V1269.54Z" fill="#FEEFFB"/>
<path d="M437.748 1311.64H404.512V1344.87H437.748V1311.64Z" fill="#FEEFFB"/>
<path d="M480.226 1311.64H446.99V1344.87H480.226V1311.64Z" fill="#FEEFFB"/>
<path d="M437.748 1353.73H404.512V1386.97H437.748V1353.73Z" fill="#FEEFFB"/>
<path d="M480.226 1353.73H446.99V1386.97H480.226V1353.73Z" fill="#FEEFFB"/>
<path d="M1807.93 1440.68L1889.22 1440.68L1889.22 1189.92L1807.93 1189.92L1807.93 1440.68Z" fill="#EBE6F5"/>
<path d="M1703.84 1440.68L1848.58 1440.68L1848.58 1189.92L1703.84 1189.92L1703.84 1440.68Z" fill="#F6EDDA"/>
<path d="M1848.58 1203.94L1903.25 1203.94L1903.25 1189.92L1848.58 1189.92L1848.58 1203.94Z" fill="#F6EDDA"/>
<path d="M1689.3 1203.94L1848.58 1203.94L1848.58 1189.92L1689.3 1189.92L1689.3 1203.94Z" fill="white"/>
<path d="M1780.83 1260.67L1814.07 1260.67L1814.07 1227.44L1780.83 1227.44L1780.83 1260.67Z" fill="#FEEFFB"/>
<path d="M1738.35 1260.67L1771.59 1260.67L1771.59 1227.44L1738.35 1227.44L1738.35 1260.67Z" fill="#FEEFFB"/>
<path d="M1780.83 1302.77L1814.07 1302.77L1814.07 1269.54L1780.83 1269.54L1780.83 1302.77Z" fill="#FEEFFB"/>
<path d="M1738.35 1302.77L1771.59 1302.77L1771.59 1269.54L1738.35 1269.54L1738.35 1302.77Z" fill="#FEEFFB"/>
<path d="M1780.83 1344.87L1814.07 1344.87L1814.07 1311.63L1780.83 1311.63L1780.83 1344.87Z" fill="#FEEFFB"/>
<path d="M1738.35 1344.87L1771.59 1344.87L1771.59 1311.63L1738.35 1311.63L1738.35 1344.87Z" fill="#FEEFFB"/>
<path d="M1780.83 1386.97L1814.07 1386.97L1814.07 1353.73L1780.83 1353.73L1780.83 1386.97Z" fill="#FEEFFB"/>
<path d="M1738.35 1386.97L1771.59 1386.97L1771.59 1353.73L1738.35 1353.73L1738.35 1386.97Z" fill="#FEEFFB"/>
<path d="M934.177 1440.69L1015.46 1440.69L1015.46 1131.84L934.177 1131.84L934.177 1440.69Z" fill="#EBE6F5"/>
<path d="M852.888 1440.69L974.823 1440.69L974.823 1131.84L852.888 1131.84L852.888 1440.69Z" fill="#F6EDDA"/>
<path d="M974.667 1132L1015.33 1132L1015.33 1116L974.667 1116L974.667 1132Z" fill="#F6EDDA"/>
<path d="M852.667 1132L974.667 1132L974.667 1116L852.667 1116L852.667 1132Z" fill="white"/>
<path d="M170.043 1204.64H88.7554V1440.69H170.043V1204.64Z" fill="#EBE6F5"/>
<path d="M170.047 1204.64L254.57 1117.82H174.536L88.7554 1204.64H170.047Z" fill="white"/>
<path d="M44.4795 1271.56L-0.666626 1316.71V1440.69H88.7549V1316.71L44.4795 1271.56Z" fill="#FEEFFB"/>
<path d="M88.754 1316.71L44.4786 1271.56H124.513L170.046 1316.71H88.754Z" fill="white"/>
<path d="M170.043 1316.71H88.7554V1440.68H170.043V1316.71Z" fill="#F6EDDA"/>
<path d="M126.563 1338.7H112.538V1352.73H126.563V1338.7Z" fill="#FEEFFB"/>
<path d="M146.263 1338.7H132.238V1352.73H146.263V1338.7Z" fill="#FEEFFB"/>
<path d="M126.563 1357.91H112.538V1371.93H126.563V1357.91Z" fill="#FEEFFB"/>
<path d="M146.263 1357.91H132.238V1371.93H146.263V1357.91Z" fill="#FEEFFB"/>
<path d="M546.817 1352.72L560.841 1352.72L560.841 1338.7L546.817 1338.7L546.817 1352.72Z" fill="#FEEFFB"/>
<path d="M527.117 1352.72L541.141 1352.72L541.141 1338.7L527.117 1338.7L527.117 1352.72Z" fill="#FEEFFB"/>
<path d="M546.817 1371.94L560.841 1371.94L560.841 1357.91L546.817 1357.91L546.817 1371.94Z" fill="#FEEFFB"/>
<path d="M527.117 1371.94L541.141 1371.94L541.141 1357.91L527.117 1357.91L527.117 1371.94Z" fill="#FEEFFB"/>
<path d="M254.57 1117.82L340.756 1204V1440.69H170.047V1204L254.57 1117.82Z" fill="#FEEFFB"/>
<path d="M584.602 1302.69L628.877 1257.54H548.843L503.31 1302.69H584.602Z" fill="white"/>
<path d="M503.324 1440.69L584.611 1440.69L584.611 1302.69L503.324 1302.69L503.324 1440.69Z" fill="#FEEFFB"/>
<path d="M628.88 1257.54L674.026 1302.69L674.044 1440.69H584.623L584.604 1302.69L628.88 1257.54Z" fill="#EBE6F5"/>
<path d="M534.577 1325.49H520.552V1372.74H534.577V1325.49Z" fill="#F6EDDA"/>
<path d="M567.383 1325.49H553.359V1372.74H567.383V1325.49Z" fill="#F6EDDA"/>
<path d="M2218.25 1316.71L2262.53 1271.56H2182.49L2136.96 1316.71H2218.25Z" fill="white"/>
<path d="M2136.97 1440.69L2218.25 1440.69L2218.25 1316.71L2136.97 1316.71L2136.97 1440.69Z" fill="#FEEFFB"/>
<path d="M2262.53 1271.56L2307.67 1316.71V1440.69H2218.25V1316.71L2262.53 1271.56Z" fill="#EBE6F5"/>
<path d="M2168.22 1339.51H2154.19V1372.74H2168.22V1339.51Z" fill="#F6EDDA"/>
<path d="M2201.02 1339.51H2187V1372.74H2201.02V1339.51Z" fill="#F6EDDA"/>
<path d="M213.204 1339.51H199.18V1372.74H213.204V1339.51Z" fill="#F6EDDA"/>
<path d="M246.006 1339.51H231.982V1372.74H246.006V1339.51Z" fill="#F6EDDA"/>
<path d="M278.815 1339.51H264.791V1372.74H278.815V1339.51Z" fill="#F6EDDA"/>
<path d="M311.622 1339.51H297.598V1372.74H311.622V1339.51Z" fill="#F6EDDA"/>
<path d="M213.204 1283.47H199.18V1316.71H213.204V1283.47Z" fill="#F6EDDA"/>
<path d="M246.006 1283.47H231.982V1316.71H246.006V1283.47Z" fill="#F6EDDA"/>
<path d="M278.815 1283.47H264.791V1316.71H278.815V1283.47Z" fill="#F6EDDA"/>
<path d="M311.622 1283.47H297.598V1316.71H311.622V1283.47Z" fill="#F6EDDA"/>
<path d="M213.204 1227.44H199.18V1260.68H213.204V1227.44Z" fill="#F6EDDA"/>
<path d="M246.006 1227.44H231.982V1260.68H246.006V1227.44Z" fill="#F6EDDA"/>
<path d="M278.815 1227.44H264.791V1260.68H278.815V1227.44Z" fill="#F6EDDA"/>
<path d="M311.622 1227.44H297.598V1260.68H311.622V1227.44Z" fill="#F6EDDA"/>
<path d="M246.006 1171.41H231.982V1204.64H246.006V1171.41Z" fill="#F6EDDA"/>
<path d="M278.815 1171.41H264.791V1204.64H278.815V1171.41Z" fill="#F6EDDA"/>
<path d="M888.063 1266.86H874.038V1300.09H888.063V1266.86Z" fill="#EBE6F5"/>
<path d="M920.865 1266.86H906.841V1300.09H920.865V1266.86Z" fill="#EBE6F5"/>
<path d="M953.674 1266.86H939.65V1300.09H953.674V1266.86Z" fill="#EBE6F5"/>
<path d="M888.063 1210.82H874.038V1244.06H888.063V1210.82Z" fill="#EBE6F5"/>
<path d="M920.865 1210.82H906.841V1244.06H920.865V1210.82Z" fill="#EBE6F5"/>
<path d="M953.674 1210.82H939.65V1244.06H953.674V1210.82Z" fill="#EBE6F5"/>
<path d="M888.063 1154.79H874.038V1188.02H888.063V1154.79Z" fill="#EBE6F5"/>
<path d="M920.865 1154.79H906.841V1188.02H920.865V1154.79Z" fill="#EBE6F5"/>
<path d="M953.674 1154.79H939.65V1188.02H953.674V1154.79Z" fill="#EBE6F5"/>
<path d="M888.063 1378.92H874.038V1412.16H888.063V1378.92Z" fill="#EBE6F5"/>
<path d="M920.865 1378.92H906.841V1412.16H920.865V1378.92Z" fill="#EBE6F5"/>
<path d="M953.674 1378.92H939.65V1412.16H953.674V1378.92Z" fill="#EBE6F5"/>
<path d="M888.063 1322.89H874.038V1356.13H888.063V1322.89Z" fill="#EBE6F5"/>
<path d="M920.865 1322.89H906.841V1356.13H920.865V1322.89Z" fill="#EBE6F5"/>
<path d="M953.674 1322.89H939.65V1356.13H953.674V1322.89Z" fill="#EBE6F5"/>
<path d="M888.063 1266.86H874.038V1300.09H888.063V1266.86Z" fill="#EBE6F5"/>
<path d="M920.865 1266.86H906.841V1300.09H920.865V1266.86Z" fill="#EBE6F5"/>
<path d="M953.674 1266.86H939.65V1300.09H953.674V1266.86Z" fill="#EBE6F5"/>
<path d="M1060.61 1189.92L1015.46 1235.07V1440.69H1104.89V1235.07L1060.61 1189.92Z" fill="#FEEFFB"/>
<path d="M1104.89 1235.07L1060.61 1189.92H1140.65L1186.18 1235.07H1104.89Z" fill="white"/>
<path d="M1186.17 1235.07H1104.89V1440.69H1186.17V1235.07Z" fill="#F6EDDA"/>
<path d="M1162.15 1254.95H1128.92V1288.18H1162.15V1254.95Z" fill="#EBE6F5"/>
<path d="M1162.15 1300.09H1128.92V1333.33H1162.15V1300.09Z" fill="#EBE6F5"/>
<path d="M1162.15 1345.24H1128.92V1378.48H1162.15V1345.24Z" fill="#EBE6F5"/>
<path d="M1015.46 1440.69L1439.09 1017.06L1854.55 1440.69H1015.46Z" fill="#EBE6F5"/>
<path d="M1313 1440.69H1231.71V1147.59L1272.35 1106.14L1313 1147.59V1440.69Z" fill="#FCFAEF"/>
<path d="M1402.42 1147.58H1313V1440.69H1402.42V1147.58Z" fill="#FEEFFB"/>
<path d="M1262.96 1170.38H1248.94V1203.62H1262.96V1170.38Z" fill="#EBE6F5"/>
<path d="M1295.77 1170.38H1281.75V1203.62H1295.77V1170.38Z" fill="#EBE6F5"/>
<path d="M1313 1147.58L1272.36 1106.14H1360.52L1402.42 1147.58H1313Z" fill="white"/>
<path d="M1267.47 1316.71L1311.74 1271.56H1231.71L1186.18 1316.71H1267.47Z" fill="white"/>
<path d="M1186.18 1440.69L1267.47 1440.69L1267.47 1316.71L1186.18 1316.71L1186.18 1440.69Z" fill="#FEEFFB"/>
<path d="M1311.74 1271.56L1356.89 1316.71V1440.69H1267.47V1316.71L1311.74 1271.56Z" fill="#FCFAEF"/>
<path d="M1622.56 1440.69L1703.84 1440.69L1703.84 1204.64L1622.56 1204.64L1622.56 1440.69Z" fill="#EBE6F5"/>
<path d="M1622.55 1204.64L1538.03 1117.82H1618.06L1703.84 1204.64H1622.55Z" fill="white"/>
<path d="M1538.03 1117.82L1451.85 1204V1440.69H1622.55V1204L1538.03 1117.82Z" fill="#FEEFFB"/>
<path d="M1579.4 1372.74L1593.42 1372.74L1593.42 1339.51L1579.4 1339.51L1579.4 1372.74Z" fill="#F6EDDA"/>
<path d="M1546.59 1372.74L1560.61 1372.74L1560.61 1339.51L1546.59 1339.51L1546.59 1372.74Z" fill="#F6EDDA"/>
<path d="M1513.78 1372.74L1527.81 1372.74L1527.81 1339.51L1513.78 1339.51L1513.78 1372.74Z" fill="#F6EDDA"/>
<path d="M1480.97 1372.74L1495 1372.74L1495 1339.51L1480.97 1339.51L1480.97 1372.74Z" fill="#F6EDDA"/>
<path d="M1579.4 1316.71L1593.42 1316.71L1593.42 1283.47L1579.4 1283.47L1579.4 1316.71Z" fill="#F6EDDA"/>
<path d="M1546.59 1316.71L1560.61 1316.71L1560.61 1283.47L1546.59 1283.47L1546.59 1316.71Z" fill="#F6EDDA"/>
<path d="M1513.78 1316.71L1527.81 1316.71L1527.81 1283.47L1513.78 1283.47L1513.78 1316.71Z" fill="#F6EDDA"/>
<path d="M1480.97 1316.71L1495 1316.71L1495 1283.47L1480.97 1283.47L1480.97 1316.71Z" fill="#F6EDDA"/>
<path d="M1579.4 1260.67L1593.42 1260.67L1593.42 1227.44L1579.4 1227.44L1579.4 1260.67Z" fill="#F6EDDA"/>
<path d="M1546.59 1260.67L1560.61 1260.67L1560.61 1227.44L1546.59 1227.44L1546.59 1260.67Z" fill="#F6EDDA"/>
<path d="M1513.78 1260.67L1527.81 1260.67L1527.81 1227.44L1513.78 1227.44L1513.78 1260.67Z" fill="#F6EDDA"/>
<path d="M1480.97 1260.67L1495 1260.67L1495 1227.44L1480.97 1227.44L1480.97 1260.67Z" fill="#F6EDDA"/>
<path d="M1546.59 1204.64L1560.61 1204.64L1560.61 1171.41L1546.59 1171.41L1546.59 1204.64Z" fill="#F6EDDA"/>
<path d="M1513.78 1204.64L1527.81 1204.64L1527.81 1171.41L1513.78 1171.41L1513.78 1204.64Z" fill="#F6EDDA"/>
<path d="M1438.01 1316.71L1482.29 1271.56H1402.25L1356.72 1316.71H1438.01Z" fill="white"/>
<path d="M1356.72 1440.69L1438.01 1440.69L1438.01 1316.71L1356.72 1316.71L1356.72 1440.69Z" fill="#FEEFFB"/>
<path d="M1482.29 1271.56L1527.43 1316.71V1440.69H1438.01V1316.71L1482.29 1271.56Z" fill="#FCFAEF"/>
<path d="M1223.99 1337.11H1209.96V1351.14H1223.99V1337.11Z" fill="#EBE6F5"/>
<path d="M1243.68 1337.11H1229.66V1351.14H1243.68V1337.11Z" fill="#EBE6F5"/>
<path d="M1223.99 1356.33H1209.96V1370.35H1223.99V1356.33Z" fill="#EBE6F5"/>
<path d="M1243.68 1356.33H1229.66V1370.35H1243.68V1356.33Z" fill="#EBE6F5"/>
<path d="M2013.09 1440.68L2136.96 1440.68L2136.96 1017.06L2013.09 1017.06L2013.09 1440.68Z" fill="#EBE6F5"/>
<path d="M1888.67 1440.67L2075.33 1440.67L2075.33 1017.33L1888.67 1017.33L1888.67 1440.67Z" fill="#FCFAEF"/>
<path d="M1956.33 1177.72H1942.31V1210.96H1956.33V1177.72Z" fill="#EBE6F5"/>
<path d="M1989.14 1177.72H1975.11V1210.96H1989.14V1177.72Z" fill="#EBE6F5"/>
<path d="M2021.94 1177.72H2007.92V1210.96H2021.94V1177.72Z" fill="#EBE6F5"/>
<path d="M1956.33 1121.69H1942.31V1154.92H1956.33V1121.69Z" fill="#EBE6F5"/>
<path d="M1989.14 1121.69H1975.11V1154.92H1989.14V1121.69Z" fill="#EBE6F5"/>
<path d="M2021.94 1121.69H2007.92V1154.92H2021.94V1121.69Z" fill="#EBE6F5"/>
<path d="M1956.33 1065.66H1942.31V1098.89H1956.33V1065.66Z" fill="#EBE6F5"/>
<path d="M1989.14 1065.66H1975.11V1098.89H1989.14V1065.66Z" fill="#EBE6F5"/>
<path d="M2021.94 1065.66H2007.92V1098.89H2021.94V1065.66Z" fill="#EBE6F5"/>
<path d="M1956.33 1342.19H1942.31V1375.42H1956.33V1342.19Z" fill="#EBE6F5"/>
<path d="M1989.14 1342.19H1975.11V1375.42H1989.14V1342.19Z" fill="#EBE6F5"/>
<path d="M2021.94 1342.19H2007.92V1375.42H2021.94V1342.19Z" fill="#EBE6F5"/>
<path d="M1956.33 1286.16H1942.31V1319.39H1956.33V1286.16Z" fill="#EBE6F5"/>
<path d="M1989.14 1286.16H1975.11V1319.39H1989.14V1286.16Z" fill="#EBE6F5"/>
<path d="M2021.94 1286.16H2007.92V1319.39H2021.94V1286.16Z" fill="#EBE6F5"/>
<path d="M1956.33 1230.12H1942.31V1263.35H1956.33V1230.12Z" fill="#EBE6F5"/>
<path d="M1989.14 1230.12H1975.11V1263.35H1989.14V1230.12Z" fill="#EBE6F5"/>
<path d="M2021.94 1230.12H2007.92V1263.35H2021.94V1230.12Z" fill="#EBE6F5"/>
<path d="M2075.03 1017.06L2136.96 1017.06L2136.96 1003.04L2075.03 1003.04L2075.03 1017.06Z" fill="#F6EDDA"/>
<path d="M1888.67 1017.33L2075.33 1017.33L2075.33 1003.33L1888.67 1003.33L1888.67 1017.33Z" fill="white"/>
</g>
<defs>
<clipPath id="clip0">
<rect width="2560" height="1440" fill="white"/>
</clipPath>
</defs>
</svg>
