<svg width="788" height="96" viewBox="0 0 788 96" fill="none" xmlns="http://www.w3.org/2000/svg">
<g clip-path="url(#clip0)">
<path d="M788 361.534H0.00201416V-205H788V361.534Z" fill="#E9F7F3"/>
<path d="M787.999 193.558V361.537H330.118L0 153.878V-204.998H105.917C119.006 -171.233 135.72 -137.791 184.28 -107.245C293.898 -38.2915 346.536 -121.978 456.154 -53.0246C565.772 15.9292 513.133 99.6091 622.744 168.563C690.672 211.29 736.715 195.408 787.999 193.558Z" fill="#BAF5E7"/>
<path d="M269 81.2655C269 108.295 277.928 131.897 291.203 144.526C304.478 131.897 313.406 108.295 313.406 81.2655C313.406 54.2308 304.478 30.6283 291.203 18C277.928 30.6283 269 54.2301 269 81.2655Z" fill="#E9F7F3"/>
<path d="M269 81.2655C269 108.295 277.928 131.897 291.203 144.526V18C277.928 30.6283 269 54.2301 269 81.2655Z" fill="#30C9B0"/>
<path d="M199 75.2655C199 102.295 207.928 125.897 221.203 138.526C234.478 125.897 243.406 102.295 243.406 75.2655C243.406 48.2308 234.478 24.6283 221.203 12C207.928 24.629 199 48.2308 199 75.2655Z" fill="#E9F7F3"/>
<path d="M199 75.2655C199 102.295 207.928 125.897 221.203 138.526V12C207.928 24.629 199 48.2308 199 75.2655Z" fill="#30C9B0"/>
<path d="M787.999 -13.6545V361.536H0V176.871C26.8111 182.319 56.7106 185.407 90.6544 185.407C375.253 185.407 375.253 -31.861 659.858 -31.861C710.516 -31.861 752.163 -24.976 787.999 -13.6545Z" fill="#90F2DB"/>
<path d="M787.999 144.131V361.536H0V86.1823C40.1342 61.7166 88.3158 43.4 160.489 43.4C377.571 43.4 377.571 209.123 594.66 209.123C687.481 209.123 740.615 178.825 787.999 144.131Z" fill="#74E8D1"/>
</g>
<defs>
<clipPath id="clip0">
<rect width="788" height="96" fill="white"/>
</clipPath>
</defs>
</svg>
