<svg width="2560" height="1440" viewBox="0 0 2560 1440" fill="none" xmlns="http://www.w3.org/2000/svg">
<g clip-path="url(#clip0)">
<rect width="2560" height="1440" fill="white"/>
<g clip-path="url(#clip1)">
<path d="M2560 -463.334H-0.666626V1440H2560V-463.334Z" fill="#2A2721"/>
<path d="M2352.99 -85.9766L2308 -40.9813V195.686H2478.71V-40.9813L2434.58 -85.9766H2352.99Z" fill="#442C3F"/>
<path d="M2397.42 195.691L2560 195.691L2560 -40.3429L2397.42 -40.3429L2397.42 195.691Z" fill="#1F1B28"/>
<path d="M2422.77 6.0791L2538.8 6.0791L2538.8 -7.94461L2422.77 -7.94461L2422.77 6.0791Z" fill="#070606"/>
<path d="M2422.77 48.1777L2538.8 48.1777L2538.8 34.1541L2422.77 34.1541L2422.77 48.1777Z" fill="#070606"/>
<path d="M2422.77 90.2725L2538.8 90.2725L2538.8 76.2487L2422.77 76.2487L2422.77 90.2725Z" fill="#070606"/>
<path d="M2422.77 132.367L2538.8 132.367L2538.8 118.344L2422.77 118.344L2422.77 132.367Z" fill="#070606"/>
<path d="M379.862 195.686L700.918 -125.356L1015.79 195.686H379.862Z" fill="#2A2721"/>
<path d="M-0.34021 195.689L430.419 -235.054L852.877 195.689H-0.34021Z" fill="#1F1B28"/>
<path d="M853.188 57.6943H674.345V71.7181H853.188V57.6943Z" fill="#1F1B28"/>
<path d="M674.346 71.7168H584.924V195.691H674.346V71.7168Z" fill="#1F1B28"/>
<path d="M853.212 71.6992V195.688H806.51V150.478C806.51 126.872 788.805 160.335 765.198 160.335C741.591 160.335 721.023 126.872 721.023 150.478V195.688H674.369V71.6992H853.212Z" fill="#442C3F"/>
<path d="M422.368 -55.0625H341.081V195.689H422.368V-55.0625Z" fill="#1F1B28"/>
<path d="M503.66 -55.0625H381.724V195.689H503.66V-55.0625Z" fill="#2A2721"/>
<path d="M438.069 -17.5469H404.833V15.6874H438.069V-17.5469Z" fill="#442C3F"/>
<path d="M480.547 -17.5469H447.311V15.6874H480.547V-17.5469Z" fill="#442C3F"/>
<path d="M438.069 24.5479H404.833V57.7822H438.069V24.5479Z" fill="#442C3F"/>
<path d="M480.547 24.5479H447.311V57.7822H480.547V24.5479Z" fill="#442C3F"/>
<path d="M438.069 66.6426H404.833V99.8769H438.069V66.6426Z" fill="#442C3F"/>
<path d="M480.547 66.6426H447.311V99.8769H480.547V66.6426Z" fill="#442C3F"/>
<path d="M438.069 108.742H404.833V141.977H438.069V108.742Z" fill="#442C3F"/>
<path d="M480.547 108.742H447.311V141.977H480.547V108.742Z" fill="#442C3F"/>
<path d="M1808.26 195.69L1889.55 195.69L1889.55 -55.0613L1808.26 -55.0613L1808.26 195.69Z" fill="#1F1B28"/>
<path d="M1704.16 195.69L1848.9 195.69L1848.9 -55.0613L1704.16 -55.0613L1704.16 195.69Z" fill="#2A2721"/>
<path d="M1781.15 15.6855L1814.39 15.6855L1814.39 -17.5487L1781.15 -17.5487L1781.15 15.6855Z" fill="#442C3F"/>
<path d="M1738.68 15.6855L1771.91 15.6855L1771.91 -17.5487L1738.68 -17.5487L1738.68 15.6855Z" fill="#442C3F"/>
<path d="M1781.15 57.7813L1814.39 57.7812L1814.39 24.5469L1781.15 24.5469L1781.15 57.7813Z" fill="#442C3F"/>
<path d="M1738.68 57.7813L1771.91 57.7812L1771.91 24.5469L1738.68 24.5469L1738.68 57.7813Z" fill="#442C3F"/>
<path d="M1781.15 99.8799L1814.39 99.8799L1814.39 66.6454L1781.15 66.6454L1781.15 99.8799Z" fill="#442C3F"/>
<path d="M1738.68 99.8799L1771.91 99.8799L1771.91 66.6454L1738.68 66.6454L1738.68 99.8799Z" fill="#442C3F"/>
<path d="M1781.15 141.971L1814.39 141.971L1814.39 108.736L1781.15 108.736L1781.15 141.971Z" fill="#442C3F"/>
<path d="M1738.68 141.971L1771.91 141.971L1771.91 108.736L1738.68 108.736L1738.68 141.971Z" fill="#442C3F"/>
<path d="M934.504 195.691L1015.79 195.691L1015.79 -113.139L934.504 -113.139L934.504 195.691Z" fill="#1F1B28"/>
<path d="M853.209 195.691L975.145 195.691L975.145 -113.139L853.209 -113.139L853.209 195.691Z" fill="#2A2721"/>
<path d="M170.367 -40.3447H89.0802V195.689H170.367V-40.3447Z" fill="#1F1B28"/>
<path d="M44.8012 26.5752L-0.34021 71.7194V195.689H89.0813V71.7194L44.8012 26.5752Z" fill="#442C3F"/>
<path d="M89.0811 71.7194L44.801 26.5752H124.836L170.368 71.7194H89.0811Z" fill="#070606"/>
<path d="M170.367 71.7168H89.0802V195.691H170.367V71.7168Z" fill="#2A2721"/>
<path d="M126.889 93.71H112.865V107.734H126.889V93.71Z" fill="#442C3F"/>
<path d="M146.585 93.71H132.56V107.734H146.585V93.71Z" fill="#442C3F"/>
<path d="M126.889 112.92H112.865V126.944H126.889V112.92Z" fill="#442C3F"/>
<path d="M146.585 112.92H132.56V126.944H146.585V112.92Z" fill="#442C3F"/>
<path d="M547.139 107.729L561.163 107.729L561.163 93.7047L547.139 93.7047L547.139 107.729Z" fill="#442C3F"/>
<path d="M527.439 107.729L541.464 107.729L541.464 93.7047L527.439 93.7047L527.439 107.729Z" fill="#442C3F"/>
<path d="M547.139 126.938L561.163 126.938L561.163 112.915L547.139 112.915L547.139 126.938Z" fill="#442C3F"/>
<path d="M527.439 126.938L541.464 126.938L541.464 112.915L527.439 112.915L527.439 126.938Z" fill="#442C3F"/>
<path d="M254.891 -127.166L341.081 -40.9794V195.688H170.368V-40.9794L254.891 -127.166Z" fill="#442C3F"/>
<path d="M580.15 57.6931L624.426 12.5488H549.17L503.637 57.6931H580.15Z" fill="#070606"/>
<path d="M503.649 195.691L584.937 195.691L584.937 57.6978L503.649 57.6978L503.649 195.691Z" fill="#442C3F"/>
<path d="M625.093 12.5488L670.239 57.6931L670.262 195.687H580.841L580.817 57.6931L625.093 12.5488Z" fill="#1F1B28"/>
<path d="M534.903 80.4961H520.879V127.749H534.903V80.4961Z" fill="#2A2721"/>
<path d="M567.706 80.4961H553.681V127.749H567.706V80.4961Z" fill="#2A2721"/>
<path d="M2218.57 71.7194L2262.85 26.5752H2182.82L2137.29 71.7194H2218.57Z" fill="#070606"/>
<path d="M2137.29 195.687L2218.58 195.687L2218.58 71.712L2137.29 71.712L2137.29 195.687Z" fill="#442C3F"/>
<path d="M2262.85 26.5752L2308 71.7194V195.689H2218.57V71.7194L2262.85 26.5752Z" fill="#1F1B28"/>
<path d="M2168.54 94.5146H2154.51V127.749H2168.54V94.5146Z" fill="#2A2721"/>
<path d="M2201.35 94.5146H2187.32V127.749H2201.35V94.5146Z" fill="#2A2721"/>
<path d="M213.526 94.5146H199.502V127.749H213.526V94.5146Z" fill="#2A2721"/>
<path d="M246.333 94.5146H232.309V127.749H246.333V94.5146Z" fill="#2A2721"/>
<path d="M279.14 94.5146H265.116V127.749H279.14V94.5146Z" fill="#2A2721"/>
<path d="M311.947 94.5146H297.923V127.749H311.947V94.5146Z" fill="#2A2721"/>
<path d="M213.526 38.4844H199.502V71.7187H213.526V38.4844Z" fill="#2A2721"/>
<path d="M246.333 38.4844H232.309V71.7187H246.333V38.4844Z" fill="#2A2721"/>
<path d="M279.14 38.4844H265.116V71.7187H279.14V38.4844Z" fill="#2A2721"/>
<path d="M311.947 38.4844H297.923V71.7187H311.947V38.4844Z" fill="#2A2721"/>
<path d="M213.526 -17.5469H199.502V15.6874H213.526V-17.5469Z" fill="#2A2721"/>
<path d="M246.333 -17.5469H232.309V15.6874H246.333V-17.5469Z" fill="#2A2721"/>
<path d="M279.14 -17.5469H265.116V15.6874H279.14V-17.5469Z" fill="#2A2721"/>
<path d="M311.947 -17.5469H297.923V15.6874H311.947V-17.5469Z" fill="#2A2721"/>
<path d="M888.385 21.8652H874.36V55.0995H888.385V21.8652Z" fill="#1F1B28"/>
<path d="M921.192 21.8652H907.167V55.0995H921.192V21.8652Z" fill="#1F1B28"/>
<path d="M953.999 21.8652H939.975V55.0995H953.999V21.8652Z" fill="#1F1B28"/>
<path d="M888.385 133.927H874.36V167.161H888.385V133.927Z" fill="#1F1B28"/>
<path d="M921.192 133.927H907.167V167.161H921.192V133.927Z" fill="#1F1B28"/>
<path d="M953.999 133.927H939.975V167.161H953.999V133.927Z" fill="#1F1B28"/>
<path d="M888.385 77.8965H874.36V111.131H888.385V77.8965Z" fill="#1F1B28"/>
<path d="M921.192 77.8965H907.167V111.131H921.192V77.8965Z" fill="#1F1B28"/>
<path d="M953.999 77.8965H939.975V111.131H953.999V77.8965Z" fill="#1F1B28"/>
<path d="M888.385 21.8652H874.36V55.0995H888.385V21.8652Z" fill="#1F1B28"/>
<path d="M921.192 21.8652H907.167V55.0995H921.192V21.8652Z" fill="#1F1B28"/>
<path d="M953.999 21.8652H939.975V55.0995H953.999V21.8652Z" fill="#1F1B28"/>
<path d="M1060.94 -55.0625L1015.79 -9.91825V195.694H1105.21V-9.91825L1060.94 -55.0625Z" fill="#442C3F"/>
<path d="M1186.5 -9.91797H1105.21V195.694H1186.5V-9.91797Z" fill="#2A2721"/>
<path d="M1162.47 9.95703H1129.24V43.1913H1162.47V9.95703Z" fill="#1F1B28"/>
<path d="M1162.47 55.1025H1129.24V88.3368H1162.47V55.1025Z" fill="#1F1B28"/>
<path d="M1162.47 100.249H1129.24V133.483H1162.47V100.249Z" fill="#1F1B28"/>
<path d="M1015.79 195.689L1439.41 -227.916L1854.87 195.689H1015.79Z" fill="#1F1B28"/>
<path d="M1622.88 195.691L1704.16 195.691L1704.16 -40.3429L1622.88 -40.3429L1622.88 195.691Z" fill="#1F1B28"/>
<path d="M1538.35 -127.166L1452.17 -40.9794V195.688H1622.88V-40.9794L1538.35 -127.166Z" fill="#442C3F"/>
<path d="M1579.72 127.748L1593.74 127.748L1593.74 94.5137L1579.72 94.5137L1579.72 127.748Z" fill="#2A2721"/>
<path d="M1546.91 127.748L1560.94 127.748L1560.94 94.5137L1546.91 94.5137L1546.91 127.748Z" fill="#2A2721"/>
<path d="M1514.11 127.748L1528.13 127.748L1528.13 94.5137L1514.11 94.5137L1514.11 127.748Z" fill="#2A2721"/>
<path d="M1481.3 127.748L1495.32 127.748L1495.32 94.5137L1481.3 94.5137L1481.3 127.748Z" fill="#2A2721"/>
<path d="M1579.72 71.7168L1593.74 71.7168L1593.74 38.4825L1579.72 38.4825L1579.72 71.7168Z" fill="#2A2721"/>
<path d="M1546.91 71.7168L1560.94 71.7168L1560.94 38.4825L1546.91 38.4825L1546.91 71.7168Z" fill="#2A2721"/>
<path d="M1514.11 71.7168L1528.13 71.7168L1528.13 38.4825L1514.11 38.4825L1514.11 71.7168Z" fill="#2A2721"/>
<path d="M1481.3 71.7168L1495.32 71.7168L1495.32 38.4825L1481.3 38.4825L1481.3 71.7168Z" fill="#2A2721"/>
<path d="M1579.72 15.6855L1593.74 15.6855L1593.74 -17.5487L1579.72 -17.5487L1579.72 15.6855Z" fill="#2A2721"/>
<path d="M1546.91 15.6855L1560.94 15.6855L1560.94 -17.5487L1546.91 -17.5487L1546.91 15.6855Z" fill="#2A2721"/>
<path d="M1514.11 15.6855L1528.13 15.6855L1528.13 -17.5487L1514.11 -17.5487L1514.11 15.6855Z" fill="#2A2721"/>
<path d="M1481.3 15.6855L1495.32 15.6855L1495.32 -17.5487L1481.3 -17.5487L1481.3 15.6855Z" fill="#2A2721"/>
<path d="M1438.33 71.7194L1482.61 26.5752H1402.58L1357.05 71.7194H1438.33Z" fill="#070606"/>
<path d="M1357.04 195.687L1438.33 195.687L1438.33 71.712L1357.04 71.712L1357.04 195.687Z" fill="#442C3F"/>
<path d="M1482.61 26.5752L1527.75 71.7194V195.689H1438.33V71.7194L1482.61 26.5752Z" fill="#3E382E"/>
<path d="M1224.31 92.127H1210.28V106.151H1224.31V92.127Z" fill="#1F1B28"/>
<path d="M1244.01 92.127H1229.98V106.151H1244.01V92.127Z" fill="#1F1B28"/>
<path d="M1224.31 111.338H1210.28V125.362H1224.31V111.338Z" fill="#1F1B28"/>
<path d="M1244.01 111.338H1229.98V125.362H1244.01V111.338Z" fill="#1F1B28"/>
<path d="M2013.42 195.69L2137.29 195.69L2137.29 -227.914L2013.42 -227.914L2013.42 195.69Z" fill="#1F1B28"/>
<path d="M1889.55 195.69L2075.35 195.69L2075.35 -227.914L1889.55 -227.914L1889.55 195.69Z" fill="#3E382E"/>
<path d="M1956.66 97.1973H1942.63V130.432H1956.66V97.1973Z" fill="#1F1B28"/>
<path d="M1989.46 97.1973H1975.44V130.432H1989.46V97.1973Z" fill="#1F1B28"/>
<path d="M2022.27 97.1973H2008.24V130.432H2022.27V97.1973Z" fill="#1F1B28"/>
<path d="M1956.66 41.167H1942.63V74.4012H1956.66V41.167Z" fill="#1F1B28"/>
<path d="M1989.46 41.167H1975.44V74.4012H1989.46V41.167Z" fill="#1F1B28"/>
<path d="M2022.27 41.167H2008.24V74.4012H2022.27V41.167Z" fill="#1F1B28"/>
<path d="M1956.66 -14.8643H1942.63V18.3701H1956.66V-14.8643Z" fill="#1F1B28"/>
<path d="M1989.46 -14.8643H1975.44V18.3701H1989.46V-14.8643Z" fill="#1F1B28"/>
<path d="M2022.27 -14.8643H2008.24V18.3701H2022.27V-14.8643Z" fill="#1F1B28"/>
<path d="M206.662 236.881L251.66 281.876V518.548H80.9462V281.876L125.077 236.881H206.662Z" fill="#442C3F"/>
<path d="M162.239 282.513H-0.34021V518.547H162.239V282.513Z" fill="#1F1B28"/>
<path d="M206.663 236.881L162.234 282.514H-0.34021L44.7454 236.881H206.663Z" fill="#070606"/>
<path d="M136.881 314.914H20.8541V328.938H136.881V314.914Z" fill="#070606"/>
<path d="M136.881 357.008H20.8541V371.032H136.881V357.008Z" fill="#070606"/>
<path d="M136.881 399.107H20.8541V413.131H136.881V399.107Z" fill="#070606"/>
<path d="M136.881 441.202H20.8541V455.226H136.881V441.202Z" fill="#070606"/>
<path d="M1327.23 253.265H1556.87V193.804H1369.34C1346.08 193.804 1327.23 212.656 1327.23 235.912V253.265Z" fill="#1F1B28"/>
<path d="M1598.06 253.264L1827.7 253.264L1827.7 193.802L1598.06 193.802L1598.06 253.264Z" fill="#1F1B28"/>
<path d="M1556.87 253.264L1598.05 253.264L1598.05 193.802L1556.87 193.802L1556.87 253.264Z" fill="#442C3F"/>
<path d="M1868.88 253.265H2098.53V212.707C2098.53 202.268 2090.06 193.804 2079.62 193.804H1868.88V253.265V253.265Z" fill="#1F1B28"/>
<path d="M1827.7 253.264L1868.89 253.264L1868.89 193.802L1827.7 193.802L1827.7 253.264Z" fill="#442C3F"/>
<path d="M1518.69 228.297L1542.93 228.297L1542.93 204.058L1518.69 204.058L1518.69 228.297Z" fill="#442C3F"/>
<path d="M1484.82 228.297L1509.06 228.297L1509.06 204.058L1484.82 204.058L1484.82 228.297Z" fill="#442C3F"/>
<path d="M1450.94 228.297L1475.18 228.297L1475.18 204.058L1450.94 204.058L1450.94 228.297Z" fill="#442C3F"/>
<path d="M1417.06 228.297L1441.3 228.297L1441.3 204.058L1417.06 204.058L1417.06 228.297Z" fill="#442C3F"/>
<path d="M1383.19 228.297L1407.43 228.297L1407.43 204.058L1383.19 204.058L1383.19 228.297Z" fill="#442C3F"/>
<path d="M1747.92 228.297L1772.16 228.297L1772.16 204.058L1747.92 204.058L1747.92 228.297Z" fill="#442C3F"/>
<path d="M1714.05 228.297L1738.29 228.297L1738.29 204.058L1714.05 204.058L1714.05 228.297Z" fill="#442C3F"/>
<path d="M1781.86 228.297L1806.1 228.297L1806.1 204.058L1781.86 204.058L1781.86 228.297Z" fill="#442C3F"/>
<path d="M1680.17 228.297L1704.41 228.297L1704.41 204.058L1680.17 204.058L1680.17 228.297Z" fill="#442C3F"/>
<path d="M1646.29 228.297L1670.53 228.297L1670.53 204.058L1646.29 204.058L1646.29 228.297Z" fill="#442C3F"/>
<path d="M1612.41 228.297L1636.65 228.297L1636.65 204.058L1612.41 204.058L1612.41 228.297Z" fill="#442C3F"/>
<path d="M2022.37 228.297L2046.61 228.297L2046.61 204.058L2022.37 204.058L2022.37 228.297Z" fill="#442C3F"/>
<path d="M1988.49 228.297L2012.73 228.297L2012.73 204.058L1988.49 204.058L1988.49 228.297Z" fill="#442C3F"/>
<path d="M2056.31 228.297L2080.55 228.297L2080.55 204.058L2056.31 204.058L2056.31 228.297Z" fill="#442C3F"/>
<path d="M1954.62 228.297L1978.86 228.297L1978.86 204.058L1954.62 204.058L1954.62 228.297Z" fill="#442C3F"/>
<path d="M1920.74 228.297L1944.98 228.297L1944.98 204.058L1920.74 204.058L1920.74 228.297Z" fill="#442C3F"/>
<path d="M1886.86 228.297L1911.1 228.297L1911.1 204.058L1886.86 204.058L1886.86 228.297Z" fill="#442C3F"/>
<path d="M1345 228.3H1369.24V204.062H1361.66C1352.46 204.062 1345 211.516 1345 220.711V228.3Z" fill="#442C3F"/>
<path d="M1327.22 267.926L2098.53 267.926L2098.53 253.269L1327.22 253.269L1327.22 267.926Z" fill="#070606"/>
<path d="M2179.79 518.547L1858.74 197.5L1543.86 518.547H2179.79Z" fill="#2A2721"/>
<path d="M2560 518.546L2129.24 87.7988L1706.78 518.546H2560Z" fill="#1F1B28"/>
<path d="M938.373 129.798H759.53V143.822H938.373V129.798Z" fill="#1F1B28"/>
<path d="M759.53 129.798H670.109V143.822H759.53V129.798Z" fill="#070606"/>
<path d="M759.53 143.82H670.109V267.795H759.53V143.82Z" fill="#1F1B28"/>
<path d="M938.396 143.803V267.791H891.695V222.582C891.695 198.976 872.558 179.84 848.951 179.84C825.345 179.84 806.208 198.976 806.208 222.582V267.791H759.553V143.803H938.396Z" fill="#442C3F"/>
<path d="M891.695 222.583V267.792H806.208V222.583C806.208 198.977 825.345 179.841 848.951 179.841C872.558 179.841 891.695 198.977 891.695 222.583Z" fill="#2A2721"/>
<path d="M2137.29 518.545L2218.58 518.545L2218.58 267.793L2137.29 267.793L2137.29 518.545Z" fill="#1F1B28"/>
<path d="M2056 518.545L2177.93 518.545L2177.93 267.793L2056 267.793L2056 518.545Z" fill="#2A2721"/>
<path d="M2121.58 338.543L2154.82 338.543L2154.82 305.309L2121.58 305.309L2121.58 338.543Z" fill="#442C3F"/>
<path d="M2177.93 281.817L2232.6 281.817L2232.6 267.794L2177.93 267.794L2177.93 281.817Z" fill="#2A2721"/>
<path d="M2041.97 281.817L2177.93 281.817L2177.93 267.794L2041.97 267.794L2041.97 281.817Z" fill="#070606"/>
<path d="M2079.11 338.543L2112.34 338.543L2112.34 305.309L2079.11 305.309L2079.11 338.543Z" fill="#442C3F"/>
<path d="M2121.58 380.639L2154.82 380.639L2154.82 347.404L2121.58 347.404L2121.58 380.639Z" fill="#442C3F"/>
<path d="M2079.11 380.639L2112.34 380.639L2112.34 347.404L2079.11 347.404L2079.11 380.639Z" fill="#442C3F"/>
<path d="M2121.58 422.732L2154.82 422.732L2154.82 389.498L2121.58 389.498L2121.58 422.732Z" fill="#442C3F"/>
<path d="M2079.11 422.732L2112.34 422.732L2112.34 389.498L2079.11 389.498L2079.11 422.732Z" fill="#442C3F"/>
<path d="M2121.58 464.828L2154.82 464.828L2154.82 431.594L2121.58 431.594L2121.58 464.828Z" fill="#442C3F"/>
<path d="M2079.11 464.828L2112.34 464.828L2112.34 431.594L2079.11 431.594L2079.11 464.828Z" fill="#442C3F"/>
<path d="M751.396 267.791H670.109V518.543H751.396V267.791Z" fill="#1F1B28"/>
<path d="M855.489 267.791H710.752V518.543H855.489V267.791Z" fill="#2A2721"/>
<path d="M710.752 267.791H656.084V281.815H710.752V267.791Z" fill="#2A2721"/>
<path d="M870.03 267.791H710.752V281.815H870.03V267.791Z" fill="#070606"/>
<path d="M778.499 305.307H745.264V338.541H778.499V305.307Z" fill="#442C3F"/>
<path d="M820.977 305.307H787.742V338.541H820.977V305.307Z" fill="#442C3F"/>
<path d="M778.499 347.401H745.264V380.636H778.499V347.401Z" fill="#442C3F"/>
<path d="M820.977 347.401H787.742V380.636H820.977V347.401Z" fill="#442C3F"/>
<path d="M778.499 389.501H745.264V422.735H778.499V389.501Z" fill="#442C3F"/>
<path d="M820.977 389.501H787.742V422.735H820.977V389.501Z" fill="#442C3F"/>
<path d="M778.499 431.596H745.264V464.83H778.499V431.596Z" fill="#442C3F"/>
<path d="M820.977 431.596H787.742V464.83H820.977V431.596Z" fill="#442C3F"/>
<path d="M1625.15 209.718H1543.86V518.548H1625.15V209.718Z" fill="#1F1B28"/>
<path d="M1706.44 209.718H1584.51V518.548H1706.44V209.718Z" fill="#3E382E"/>
<path d="M1584.41 193.677H1543.73V209.681H1584.41V193.677Z" fill="#2A2721"/>
<path d="M1706.44 193.677H1584.41V209.681H1706.44V193.677Z" fill="#070606"/>
<path d="M2389.29 518.544L2470.58 518.544L2470.58 282.51L2389.29 282.51L2389.29 518.544Z" fill="#1F1B28"/>
<path d="M2389.29 282.511L2304.76 195.691H2384.79L2470.57 282.511H2389.29Z" fill="#070606"/>
<path d="M2514.85 349.429L2560 394.573V518.547H2470.57V394.573L2514.85 349.429Z" fill="#442C3F"/>
<path d="M2470.57 394.573L2514.85 349.429H2434.82L2389.29 394.573H2470.57Z" fill="#070606"/>
<path d="M2389.29 518.544L2470.58 518.544L2470.58 394.57L2389.29 394.57L2389.29 518.544Z" fill="#2A2721"/>
<path d="M2432.77 430.586L2446.79 430.586L2446.79 416.562L2432.77 416.562L2432.77 430.586Z" fill="#442C3F"/>
<path d="M2413.07 430.586L2427.09 430.586L2427.09 416.562L2413.07 416.562L2413.07 430.586Z" fill="#442C3F"/>
<path d="M2432.77 449.796L2446.79 449.796L2446.79 435.772L2432.77 435.772L2432.77 449.796Z" fill="#442C3F"/>
<path d="M2413.07 449.796L2427.09 449.796L2427.09 435.772L2413.07 435.772L2413.07 449.796Z" fill="#442C3F"/>
<path d="M2304.76 195.691L2218.57 281.873V518.546H2389.29V281.873L2304.76 195.691Z" fill="#442C3F"/>
<path d="M341.081 394.573L296.801 349.429H376.835L422.368 394.573H341.081Z" fill="#070606"/>
<path d="M422.368 394.574H341.081V518.549H422.368V394.574Z" fill="#442C3F"/>
<path d="M296.801 349.429L251.659 394.573V518.547H341.081V394.573L296.801 349.429Z" fill="#1F1B28"/>
<path d="M391.114 450.605L405.138 450.605L405.138 417.371L391.114 417.371L391.114 450.605Z" fill="#2A2721"/>
<path d="M358.308 450.605L372.333 450.605L372.333 417.371L358.308 417.371L358.308 450.605Z" fill="#2A2721"/>
<path d="M2346.13 450.605L2360.15 450.605L2360.15 417.371L2346.13 417.371L2346.13 450.605Z" fill="#2A2721"/>
<path d="M2313.32 450.605L2327.35 450.605L2327.35 417.371L2313.32 417.371L2313.32 450.605Z" fill="#2A2721"/>
<path d="M2280.52 450.605L2294.54 450.605L2294.54 417.371L2280.52 417.371L2280.52 450.605Z" fill="#2A2721"/>
<path d="M2247.71 450.605L2261.74 450.605L2261.74 417.371L2247.71 417.371L2247.71 450.605Z" fill="#2A2721"/>
<path d="M2346.13 394.574L2360.15 394.574L2360.15 361.34L2346.13 361.34L2346.13 394.574Z" fill="#2A2721"/>
<path d="M2313.32 394.574L2327.35 394.574L2327.35 361.34L2313.32 361.34L2313.32 394.574Z" fill="#2A2721"/>
<path d="M2280.52 394.574L2294.54 394.574L2294.54 361.34L2280.52 361.34L2280.52 394.574Z" fill="#2A2721"/>
<path d="M2247.71 394.574L2261.74 394.574L2261.74 361.34L2247.71 361.34L2247.71 394.574Z" fill="#2A2721"/>
<path d="M2346.13 338.543L2360.15 338.543L2360.15 305.309L2346.13 305.309L2346.13 338.543Z" fill="#2A2721"/>
<path d="M2313.32 338.543L2327.35 338.543L2327.35 305.309L2313.32 305.309L2313.32 338.543Z" fill="#2A2721"/>
<path d="M2280.52 338.543L2294.54 338.543L2294.54 305.309L2280.52 305.309L2280.52 338.543Z" fill="#2A2721"/>
<path d="M2247.71 338.543L2261.74 338.543L2261.74 305.309L2247.71 305.309L2247.71 338.543Z" fill="#2A2721"/>
<path d="M2313.32 282.509L2327.35 282.509L2327.35 249.274L2313.32 249.274L2313.32 282.509Z" fill="#2A2721"/>
<path d="M2280.52 282.509L2294.54 282.509L2294.54 249.274L2280.52 249.274L2280.52 282.509Z" fill="#2A2721"/>
<path d="M1671.27 377.956L1685.29 377.956L1685.29 344.722L1671.27 344.722L1671.27 377.956Z" fill="#1F1B28"/>
<path d="M1638.46 377.956L1652.49 377.956L1652.49 344.722L1638.46 344.722L1638.46 377.956Z" fill="#1F1B28"/>
<path d="M1605.66 377.956L1619.68 377.956L1619.68 344.722L1605.66 344.722L1605.66 377.956Z" fill="#1F1B28"/>
<path d="M1671.27 321.925L1685.29 321.925L1685.29 288.691L1671.27 288.691L1671.27 321.925Z" fill="#1F1B28"/>
<path d="M1638.46 321.925L1652.49 321.925L1652.49 288.691L1638.46 288.691L1638.46 321.925Z" fill="#1F1B28"/>
<path d="M1605.66 321.925L1619.68 321.925L1619.68 288.691L1605.66 288.691L1605.66 321.925Z" fill="#1F1B28"/>
<path d="M1671.27 265.895L1685.29 265.895L1685.29 232.66L1671.27 232.66L1671.27 265.895Z" fill="#1F1B28"/>
<path d="M1638.46 265.895L1652.49 265.895L1652.49 232.66L1638.46 232.66L1638.46 265.895Z" fill="#1F1B28"/>
<path d="M1605.66 265.895L1619.68 265.895L1619.68 232.66L1605.66 232.66L1605.66 265.895Z" fill="#1F1B28"/>
<path d="M1671.27 490.018L1685.29 490.018L1685.29 456.783L1671.27 456.783L1671.27 490.018Z" fill="#1F1B28"/>
<path d="M1638.46 490.018L1652.49 490.018L1652.49 456.783L1638.46 456.783L1638.46 490.018Z" fill="#1F1B28"/>
<path d="M1605.66 490.018L1619.68 490.018L1619.68 456.783L1605.66 456.783L1605.66 490.018Z" fill="#1F1B28"/>
<path d="M1671.27 433.982L1685.29 433.982L1685.29 400.748L1671.27 400.748L1671.27 433.982Z" fill="#1F1B28"/>
<path d="M1638.46 433.982L1652.49 433.982L1652.49 400.748L1638.46 400.748L1638.46 433.982Z" fill="#1F1B28"/>
<path d="M1605.66 433.982L1619.68 433.982L1619.68 400.748L1605.66 400.748L1605.66 433.982Z" fill="#1F1B28"/>
<path d="M1671.27 377.956L1685.29 377.956L1685.29 344.722L1671.27 344.722L1671.27 377.956Z" fill="#1F1B28"/>
<path d="M1638.46 377.956L1652.49 377.956L1652.49 344.722L1638.46 344.722L1638.46 377.956Z" fill="#1F1B28"/>
<path d="M1605.66 377.956L1619.68 377.956L1619.68 344.722L1605.66 344.722L1605.66 377.956Z" fill="#1F1B28"/>
<path d="M1498.72 267.791L1543.86 312.935V518.547H1454.44V312.935L1498.72 267.791Z" fill="#442C3F"/>
<path d="M1454.44 312.935L1498.72 267.791H1418.68L1373.16 312.935H1454.44Z" fill="#070606"/>
<path d="M1373.15 518.549L1454.44 518.549L1454.44 312.937L1373.15 312.937L1373.15 518.549Z" fill="#2A2721"/>
<path d="M1397.18 366.044L1430.42 366.044L1430.42 332.81L1397.18 332.81L1397.18 366.044Z" fill="#1F1B28"/>
<path d="M1397.18 411.188L1430.42 411.188L1430.42 377.954L1397.18 377.954L1397.18 411.188Z" fill="#1F1B28"/>
<path d="M1397.18 456.339L1430.42 456.339L1430.42 423.105L1397.18 423.105L1397.18 456.339Z" fill="#1F1B28"/>
<path d="M1543.86 518.547L1120.24 94.9375L704.783 518.547H1543.86Z" fill="#1F1B28"/>
<path d="M1246.33 518.546H1327.62V225.453L1286.97 184.015L1246.33 225.453V518.546Z" fill="#3E382E"/>
<path d="M1246.33 225.455H1156.91V518.548H1246.33V225.455Z" fill="#442C3F"/>
<path d="M1296.37 281.485L1310.39 281.485L1310.39 248.251L1296.37 248.251L1296.37 281.485Z" fill="#1F1B28"/>
<path d="M1263.56 281.485L1277.58 281.485L1277.58 248.251L1263.56 248.251L1263.56 281.485Z" fill="#1F1B28"/>
<path d="M1246.33 225.453L1286.98 184.015H1198.81L1156.91 225.453H1246.33Z" fill="#070606"/>
<path d="M1291.86 394.573L1247.59 349.429H1327.62L1373.16 394.573H1291.86Z" fill="#070606"/>
<path d="M1373.15 394.574H1291.86V518.549H1373.15V394.574Z" fill="#442C3F"/>
<path d="M1247.59 349.429L1202.44 394.573V518.547H1291.86V394.573L1247.59 349.429Z" fill="#3E382E"/>
<path d="M936.776 282.513H855.489V518.547H936.776V282.513Z" fill="#1F1B28"/>
<path d="M936.776 282.511L1021.3 195.691H941.269L855.489 282.511H936.776Z" fill="#070606"/>
<path d="M1021.3 195.691L1107.49 281.873V518.546H936.776V281.873L1021.3 195.691Z" fill="#442C3F"/>
<path d="M979.934 417.368H965.91V450.602H979.934V417.368Z" fill="#2A2721"/>
<path d="M1012.74 417.368H998.717V450.602H1012.74V417.368Z" fill="#2A2721"/>
<path d="M1045.55 417.368H1031.52V450.602H1045.55V417.368Z" fill="#2A2721"/>
<path d="M1078.36 417.368H1064.33V450.602H1078.36V417.368Z" fill="#2A2721"/>
<path d="M979.934 361.338H965.91V394.572H979.934V361.338Z" fill="#2A2721"/>
<path d="M1012.74 361.338H998.717V394.572H1012.74V361.338Z" fill="#2A2721"/>
<path d="M1045.55 361.338H1031.52V394.572H1045.55V361.338Z" fill="#2A2721"/>
<path d="M1078.36 361.338H1064.33V394.572H1078.36V361.338Z" fill="#2A2721"/>
<path d="M979.934 305.307H965.91V338.541H979.934V305.307Z" fill="#2A2721"/>
<path d="M1012.74 305.307H998.717V338.541H1012.74V305.307Z" fill="#2A2721"/>
<path d="M1045.55 305.307H1031.52V338.541H1045.55V305.307Z" fill="#2A2721"/>
<path d="M1078.36 305.307H1064.33V338.541H1078.36V305.307Z" fill="#2A2721"/>
<path d="M1012.74 249.279H998.717V282.514H1012.74V249.279Z" fill="#2A2721"/>
<path d="M1045.55 249.279H1031.52V282.514H1045.55V249.279Z" fill="#2A2721"/>
<path d="M1121.32 394.573L1077.05 349.429H1157.08L1202.61 394.573H1121.32Z" fill="#070606"/>
<path d="M1202.61 394.574H1121.32V518.549H1202.61V394.574Z" fill="#442C3F"/>
<path d="M1077.05 349.429L1031.9 394.573V518.547H1121.32V394.573L1077.05 349.429Z" fill="#3E382E"/>
<path d="M1335.34 429.004L1349.37 429.004L1349.37 414.98L1335.34 414.98L1335.34 429.004Z" fill="#1F1B28"/>
<path d="M1315.65 429.004L1329.67 429.004L1329.67 414.98L1315.65 414.98L1315.65 429.004Z" fill="#1F1B28"/>
<path d="M1335.34 448.213L1349.37 448.213L1349.37 434.189L1335.34 434.189L1335.34 448.213Z" fill="#1F1B28"/>
<path d="M1315.65 448.213L1329.67 448.213L1329.67 434.189L1315.65 434.189L1315.65 448.213Z" fill="#1F1B28"/>
<path d="M546.241 94.9375H422.369V518.542H546.241V94.9375Z" fill="#1F1B28"/>
<path d="M674.175 94.9844H484.125V518.427H674.175V94.9844Z" fill="#2A2721"/>
<path d="M603.002 288.824L617.026 288.824L617.026 255.59L603.002 255.59L603.002 288.824Z" fill="#1F1B28"/>
<path d="M570.196 288.824L584.22 288.824L584.22 255.59L570.196 255.59L570.196 288.824Z" fill="#1F1B28"/>
<path d="M537.386 288.824L551.41 288.824L551.41 255.59L537.386 255.59L537.386 288.824Z" fill="#1F1B28"/>
<path d="M603.002 232.789L617.026 232.789L617.026 199.555L603.002 199.555L603.002 232.789Z" fill="#1F1B28"/>
<path d="M570.196 232.789L584.22 232.789L584.22 199.555L570.196 199.555L570.196 232.789Z" fill="#1F1B28"/>
<path d="M537.386 232.789L551.41 232.789L551.41 199.555L537.386 199.555L537.386 232.789Z" fill="#1F1B28"/>
<path d="M603.002 176.763L617.026 176.763L617.026 143.528L603.002 143.528L603.002 176.763Z" fill="#1F1B28"/>
<path d="M570.196 176.763L584.22 176.763L584.22 143.528L570.196 143.528L570.196 176.763Z" fill="#1F1B28"/>
<path d="M537.386 176.763L551.41 176.763L551.41 143.528L537.386 143.528L537.386 176.763Z" fill="#1F1B28"/>
<path d="M603.002 453.288L617.026 453.288L617.026 420.054L603.002 420.054L603.002 453.288Z" fill="#1F1B28"/>
<path d="M570.196 453.288L584.22 453.288L584.22 420.054L570.196 420.054L570.196 453.288Z" fill="#1F1B28"/>
<path d="M537.386 453.288L551.41 453.288L551.41 420.054L537.386 420.054L537.386 453.288Z" fill="#1F1B28"/>
<path d="M603.002 397.253L617.026 397.253L617.026 364.019L603.002 364.019L603.002 397.253Z" fill="#1F1B28"/>
<path d="M570.196 397.253L584.22 397.253L584.22 364.019L570.196 364.019L570.196 397.253Z" fill="#1F1B28"/>
<path d="M537.386 397.253L551.41 397.253L551.41 364.019L537.386 364.019L537.386 397.253Z" fill="#1F1B28"/>
<path d="M603.002 341.223L617.026 341.223L617.026 307.988L603.002 307.988L603.002 341.223Z" fill="#1F1B28"/>
<path d="M570.196 341.223L584.22 341.223L584.22 307.988L570.196 307.988L570.196 341.223Z" fill="#1F1B28"/>
<path d="M537.386 341.223L551.41 341.223L551.41 307.988L537.386 307.988L537.386 341.223Z" fill="#1F1B28"/>
<path d="M484.305 80.915H422.369V94.9387H484.305V80.915Z" fill="#2A2721"/>
<path d="M674.175 80.9805H484.125V94.9842H674.175V80.9805Z" fill="#070606"/>
<path d="M2312.28 518.549H1553.94V685.391H2312.28V518.549Z" fill="#1F1B28"/>
<path d="M2559.68 458.289L2477.63 376.251L2062.17 799.855H2559.68V458.289Z" fill="#1F1B28"/>
<path d="M2560 675.883H2478.71V799.857H2560V675.883Z" fill="#442C3F"/>
<path d="M1403.03 518.189L1358.04 563.185V799.857H1528.75V563.185L1484.62 518.189H1403.03Z" fill="#442C3F"/>
<path d="M1447.46 799.857L1610.04 799.857L1610.04 563.823L1447.46 563.823L1447.46 799.857Z" fill="#1F1B28"/>
<path d="M1403.03 518.189L1447.46 563.823H1610.04L1564.95 518.189H1403.03Z" fill="#070606"/>
<path d="M1472.81 610.249L1588.84 610.249L1588.84 596.225L1472.81 596.225L1472.81 610.249Z" fill="#070606"/>
<path d="M1472.81 652.34L1588.84 652.34L1588.84 638.316L1472.81 638.316L1472.81 652.34Z" fill="#070606"/>
<path d="M1472.81 694.438L1588.84 694.438L1588.84 680.415L1472.81 680.415L1472.81 694.438Z" fill="#070606"/>
<path d="M1472.81 736.534L1588.84 736.534L1588.84 722.51L1472.81 722.51L1472.81 736.534Z" fill="#070606"/>
<path d="M1808.26 799.853L1889.55 799.853L1889.55 549.101L1808.26 549.101L1808.26 799.853Z" fill="#1F1B28"/>
<path d="M1704.16 799.853L1848.9 799.853L1848.9 549.101L1704.16 549.101L1704.16 799.853Z" fill="#2A2721"/>
<path d="M1848.9 563.121L1903.57 563.121L1903.57 549.098L1848.9 549.098L1848.9 563.121Z" fill="#2A2721"/>
<path d="M1689.62 563.121L1848.9 563.121L1848.9 549.098L1689.62 549.098L1689.62 563.121Z" fill="#070606"/>
<path d="M1781.15 619.853L1814.39 619.853L1814.39 586.619L1781.15 586.619L1781.15 619.853Z" fill="#442C3F"/>
<path d="M1738.68 619.853L1771.91 619.853L1771.91 586.619L1738.68 586.619L1738.68 619.853Z" fill="#442C3F"/>
<path d="M1781.15 661.947L1814.39 661.947L1814.39 628.713L1781.15 628.713L1781.15 661.947Z" fill="#442C3F"/>
<path d="M1738.68 661.947L1771.91 661.947L1771.91 628.713L1738.68 628.713L1738.68 661.947Z" fill="#442C3F"/>
<path d="M1781.15 704.042L1814.39 704.042L1814.39 670.808L1781.15 670.808L1781.15 704.042Z" fill="#442C3F"/>
<path d="M1738.68 704.042L1771.91 704.042L1771.91 670.808L1738.68 670.808L1738.68 704.042Z" fill="#442C3F"/>
<path d="M1781.15 746.141L1814.39 746.141L1814.39 712.906L1781.15 712.906L1781.15 746.141Z" fill="#442C3F"/>
<path d="M1738.68 746.141L1771.91 746.141L1771.91 712.906L1738.68 712.906L1738.68 746.141Z" fill="#442C3F"/>
<path d="M2222.22 675.882L2266.49 630.737H2186.47L2140.93 675.882H2222.22Z" fill="#070606"/>
<path d="M2140.93 799.857L2222.22 799.857L2222.22 675.883L2140.93 675.883L2140.93 799.857Z" fill="#442C3F"/>
<path d="M2266.5 630.737L2311.64 675.882V799.856H2222.22V675.882L2266.5 630.737Z" fill="#1F1B28"/>
<path d="M2172.18 698.682H2158.16V731.916H2172.18V698.682Z" fill="#2A2721"/>
<path d="M2204.99 698.682H2190.97V731.916H2204.99V698.682Z" fill="#2A2721"/>
<path d="M2059.65 799.857L2140.93 799.857L2140.93 563.823L2059.65 563.823L2059.65 799.857Z" fill="#1F1B28"/>
<path d="M2059.64 563.82L1975.12 477H2055.15L2140.93 563.82H2059.64Z" fill="#070606"/>
<path d="M1975.12 477L1888.93 563.182V799.854H2059.64V563.182L1975.12 477Z" fill="#442C3F"/>
<path d="M2016.49 731.914L2030.51 731.914L2030.51 698.68L2016.49 698.68L2016.49 731.914Z" fill="#2A2721"/>
<path d="M1983.68 731.914L1997.7 731.914L1997.7 698.68L1983.68 698.68L1983.68 731.914Z" fill="#2A2721"/>
<path d="M1950.87 731.914L1964.89 731.914L1964.89 698.68L1950.87 698.68L1950.87 731.914Z" fill="#2A2721"/>
<path d="M1918.06 731.914L1932.09 731.914L1932.09 698.68L1918.06 698.68L1918.06 731.914Z" fill="#2A2721"/>
<path d="M2016.49 675.879L2030.51 675.879L2030.51 642.645L2016.49 642.645L2016.49 675.879Z" fill="#2A2721"/>
<path d="M1983.68 675.879L1997.7 675.879L1997.7 642.645L1983.68 642.645L1983.68 675.879Z" fill="#2A2721"/>
<path d="M1950.87 675.879L1964.89 675.879L1964.89 642.645L1950.87 642.645L1950.87 675.879Z" fill="#2A2721"/>
<path d="M1918.06 675.879L1932.09 675.879L1932.09 642.645L1918.06 642.645L1918.06 675.879Z" fill="#2A2721"/>
<path d="M2016.49 619.853L2030.51 619.853L2030.51 586.619L2016.49 586.619L2016.49 619.853Z" fill="#2A2721"/>
<path d="M1983.68 619.853L1997.7 619.853L1997.7 586.619L1983.68 586.619L1983.68 619.853Z" fill="#2A2721"/>
<path d="M1950.87 619.853L1964.89 619.853L1964.89 586.619L1950.87 586.619L1950.87 619.853Z" fill="#2A2721"/>
<path d="M1918.06 619.853L1932.09 619.853L1932.09 586.619L1918.06 586.619L1918.06 619.853Z" fill="#2A2721"/>
<path d="M1983.68 563.822L1997.7 563.822L1997.7 530.588L1983.68 530.588L1983.68 563.822Z" fill="#2A2721"/>
<path d="M1950.87 563.822L1964.89 563.822L1964.89 530.588L1950.87 530.588L1950.87 563.822Z" fill="#2A2721"/>
<path d="M1622.88 675.882L1578.6 630.737H1658.63L1704.17 675.882H1622.88Z" fill="#070606"/>
<path d="M1578.6 630.737L1533.46 675.882V799.856H1622.88V675.882L1578.6 630.737Z" fill="#3E382E"/>
<path d="M1622.88 799.857L1704.16 799.857L1704.16 675.883L1622.88 675.883L1622.88 799.857Z" fill="#1F1B28"/>
<path d="M2436.12 799.854L2560 799.854L2560 376.249L2436.12 376.249L2436.12 799.854Z" fill="#1F1B28"/>
<path d="M2312.26 799.854L2498.06 799.854L2498.06 376.249L2312.26 376.249L2312.26 799.854Z" fill="#3E382E"/>
<path d="M2379.36 536.9H2365.34V570.135H2379.36V536.9Z" fill="#1F1B28"/>
<path d="M2412.17 536.9H2398.15V570.135H2412.17V536.9Z" fill="#1F1B28"/>
<path d="M2444.98 536.9H2430.96V570.135H2444.98V536.9Z" fill="#1F1B28"/>
<path d="M2379.36 480.869H2365.34V514.103H2379.36V480.869Z" fill="#1F1B28"/>
<path d="M2412.17 480.869H2398.15V514.103H2412.17V480.869Z" fill="#1F1B28"/>
<path d="M2444.98 480.869H2430.96V514.103H2444.98V480.869Z" fill="#1F1B28"/>
<path d="M2379.36 424.843H2365.34V458.077H2379.36V424.843Z" fill="#1F1B28"/>
<path d="M2412.17 424.843H2398.15V458.077H2412.17V424.843Z" fill="#1F1B28"/>
<path d="M2444.98 424.843H2430.96V458.077H2444.98V424.843Z" fill="#1F1B28"/>
<path d="M2379.36 701.363H2365.34V734.598H2379.36V701.363Z" fill="#1F1B28"/>
<path d="M2412.17 701.363H2398.15V734.598H2412.17V701.363Z" fill="#1F1B28"/>
<path d="M2444.98 701.363H2430.96V734.598H2444.98V701.363Z" fill="#1F1B28"/>
<path d="M2379.36 645.333H2365.34V678.567H2379.36V645.333Z" fill="#1F1B28"/>
<path d="M2412.17 645.333H2398.15V678.567H2412.17V645.333Z" fill="#1F1B28"/>
<path d="M2444.98 645.333H2430.96V678.567H2444.98V645.333Z" fill="#1F1B28"/>
<path d="M2379.36 589.298H2365.34V622.532H2379.36V589.298Z" fill="#1F1B28"/>
<path d="M2412.17 589.298H2398.15V622.532H2412.17V589.298Z" fill="#1F1B28"/>
<path d="M2444.98 589.298H2430.96V622.532H2444.98V589.298Z" fill="#1F1B28"/>
<path d="M2498.06 376.25L2560 376.25L2560 362.226L2498.06 362.226L2498.06 376.25Z" fill="#2A2721"/>
<path d="M2312.26 376.25L2498.06 376.25L2498.06 362.226L2312.26 362.226L2312.26 376.25Z" fill="#070606"/>
<path d="M124.272 534.579H353.918V475.117H166.382C143.125 475.117 124.272 493.969 124.272 517.226V534.579V534.579Z" fill="#1F1B28"/>
<path d="M395.101 534.576L624.747 534.576L624.747 475.115L395.101 475.115L395.101 534.576Z" fill="#1F1B28"/>
<path d="M353.918 534.576L395.102 534.576L395.102 475.115L353.918 475.115L353.918 534.576Z" fill="#442C3F"/>
<path d="M665.932 534.579H895.578V494.02C895.578 483.582 887.113 475.117 876.674 475.117H665.932V534.579Z" fill="#1F1B28"/>
<path d="M624.747 534.576L665.93 534.576L665.93 475.115L624.747 475.115L624.747 534.576Z" fill="#442C3F"/>
<path d="M315.743 509.605L339.983 509.605L339.983 485.367L315.743 485.367L315.743 509.605Z" fill="#442C3F"/>
<path d="M281.863 509.605L306.103 509.605L306.103 485.367L281.863 485.367L281.863 509.605Z" fill="#442C3F"/>
<path d="M247.986 509.605L272.226 509.605L272.226 485.367L247.986 485.367L247.986 509.605Z" fill="#442C3F"/>
<path d="M214.11 509.605L238.35 509.605L238.35 485.367L214.11 485.367L214.11 509.605Z" fill="#442C3F"/>
<path d="M180.234 509.605L204.474 509.605L204.474 485.367L180.234 485.367L180.234 509.605Z" fill="#442C3F"/>
<path d="M544.97 509.605L569.21 509.605L569.21 485.367L544.97 485.367L544.97 509.605Z" fill="#442C3F"/>
<path d="M511.089 509.605L535.329 509.605L535.329 485.367L511.089 485.367L511.089 509.605Z" fill="#442C3F"/>
<path d="M578.907 509.605L603.147 509.605L603.147 485.367L578.907 485.367L578.907 509.605Z" fill="#442C3F"/>
<path d="M477.213 509.605L501.453 509.605L501.453 485.367L477.213 485.367L477.213 509.605Z" fill="#442C3F"/>
<path d="M443.337 509.605L467.577 509.605L467.577 485.367L443.337 485.367L443.337 509.605Z" fill="#442C3F"/>
<path d="M409.46 509.605L433.7 509.605L433.7 485.367L409.46 485.367L409.46 509.605Z" fill="#442C3F"/>
<path d="M819.418 509.605L843.658 509.605L843.658 485.367L819.418 485.367L819.418 509.605Z" fill="#442C3F"/>
<path d="M785.541 509.605L809.781 509.605L809.781 485.367L785.541 485.367L785.541 509.605Z" fill="#442C3F"/>
<path d="M853.36 509.605L877.6 509.605L877.6 485.367L853.36 485.367L853.36 509.605Z" fill="#442C3F"/>
<path d="M751.665 509.605L775.906 509.605L775.906 485.367L751.665 485.367L751.665 509.605Z" fill="#442C3F"/>
<path d="M717.784 509.605L742.024 509.605L742.024 485.367L717.784 485.367L717.784 509.605Z" fill="#442C3F"/>
<path d="M683.909 509.605L708.148 509.605L708.148 485.367L683.909 485.367L683.909 509.605Z" fill="#442C3F"/>
<path d="M142.054 509.609H166.294V485.37H158.704C149.508 485.37 142.054 492.824 142.054 502.02V509.609Z" fill="#442C3F"/>
<path d="M124.271 549.231L895.577 549.231L895.577 534.575L124.271 534.575L124.271 549.231Z" fill="#070606"/>
<path d="M976.842 799.856L655.781 478.809L340.909 799.856H976.842Z" fill="#2A2721"/>
<path d="M1357.05 799.855L926.286 369.112L503.828 799.855H1357.05Z" fill="#1F1B28"/>
<path d="M503.511 675.884L682.354 675.884L682.354 661.86L503.511 661.86L503.511 675.884Z" fill="#1F1B28"/>
<path d="M682.354 675.884L771.775 675.884L771.775 661.86L682.354 661.86L682.354 675.884Z" fill="#070606"/>
<path d="M771.776 675.888H682.354V799.862H771.776V675.888Z" fill="#1F1B28"/>
<path d="M503.488 675.869V799.857H550.189V754.648C550.189 731.042 569.326 711.906 592.933 711.906C616.539 711.906 635.676 731.042 635.676 754.648V799.857H682.331V675.869H503.488V675.869Z" fill="#442C3F"/>
<path d="M550.19 754.645V799.854H635.677V754.645C635.677 731.039 616.54 711.903 592.933 711.903C569.326 711.903 550.19 731.039 550.19 754.645Z" fill="#2A2721"/>
<path d="M934.336 799.853L1015.62 799.853L1015.62 549.101L934.336 549.101L934.336 799.853Z" fill="#1F1B28"/>
<path d="M853.042 799.853L974.977 799.853L974.977 549.101L853.042 549.101L853.042 799.853Z" fill="#2A2721"/>
<path d="M918.63 619.853L951.866 619.853L951.866 586.619L918.63 586.619L918.63 619.853Z" fill="#442C3F"/>
<path d="M974.976 563.121L1029.64 563.121L1029.64 549.098L974.976 549.098L974.976 563.121Z" fill="#2A2721"/>
<path d="M839.018 563.121L974.978 563.121L974.978 549.098L839.018 549.098L839.018 563.121Z" fill="#070606"/>
<path d="M876.152 619.853L909.388 619.853L909.388 586.619L876.152 586.619L876.152 619.853Z" fill="#442C3F"/>
<path d="M918.63 661.947L951.866 661.947L951.866 628.713L918.63 628.713L918.63 661.947Z" fill="#442C3F"/>
<path d="M876.152 661.947L909.388 661.947L909.388 628.713L876.152 628.713L876.152 661.947Z" fill="#442C3F"/>
<path d="M918.63 704.042L951.866 704.042L951.866 670.808L918.63 670.808L918.63 704.042Z" fill="#442C3F"/>
<path d="M876.152 704.042L909.388 704.042L909.388 670.808L876.152 670.808L876.152 704.042Z" fill="#442C3F"/>
<path d="M918.63 746.141L951.866 746.141L951.866 712.906L918.63 712.906L918.63 746.141Z" fill="#442C3F"/>
<path d="M876.152 746.141L909.388 746.141L909.388 712.906L876.152 712.906L876.152 746.141Z" fill="#442C3F"/>
<path d="M422.201 491.026H340.914V799.857H422.201V491.026Z" fill="#1F1B28"/>
<path d="M503.493 491.026H381.557V799.857H503.493V491.026Z" fill="#2A2721"/>
<path d="M381.432 475.083H340.755V491.087H381.432V475.083Z" fill="#2A2721"/>
<path d="M503.464 475.083H381.432V491.087H503.464V475.083Z" fill="#070606"/>
<path d="M1186.34 799.857L1267.62 799.857L1267.62 563.823L1186.34 563.823L1186.34 799.857Z" fill="#1F1B28"/>
<path d="M1186.33 563.82L1101.81 477H1181.84L1267.62 563.82H1186.33Z" fill="#070606"/>
<path d="M1312.56 630.457L1358.35 675.67V799.834H1267.66V675.67L1312.56 630.457Z" fill="#442C3F"/>
<path d="M1267.62 675.882L1311.9 630.737H1231.86L1186.33 675.882H1267.62Z" fill="#070606"/>
<path d="M1186.34 799.857L1267.62 799.857L1267.62 675.883L1186.34 675.883L1186.34 799.857Z" fill="#2A2721"/>
<path d="M1229.81 711.898L1243.84 711.898L1243.84 697.875L1229.81 697.875L1229.81 711.898Z" fill="#442C3F"/>
<path d="M1210.12 711.898L1224.14 711.898L1224.14 697.875L1210.12 697.875L1210.12 711.898Z" fill="#442C3F"/>
<path d="M1229.81 731.109L1243.84 731.109L1243.84 717.086L1229.81 717.086L1229.81 731.109Z" fill="#442C3F"/>
<path d="M1210.12 731.109L1224.14 731.109L1224.14 717.086L1210.12 717.086L1210.12 731.109Z" fill="#442C3F"/>
<path d="M809.561 697.871H795.536V711.895H809.561V697.871Z" fill="#442C3F"/>
<path d="M829.261 697.871H815.237V711.895H829.261V697.871Z" fill="#442C3F"/>
<path d="M809.561 717.082H795.536V731.106H809.561V717.082Z" fill="#442C3F"/>
<path d="M829.261 717.082H815.237V731.106H829.261V717.082Z" fill="#442C3F"/>
<path d="M1101.81 477L1015.62 563.182V799.854H1186.33V563.182L1101.81 477Z" fill="#442C3F"/>
<path d="M771.775 661.863L727.5 616.719H807.535L853.063 661.863H771.775Z" fill="#070606"/>
<path d="M853.053 661.861H771.766V799.855H853.053V661.861Z" fill="#442C3F"/>
<path d="M727.5 616.719L682.354 661.863L682.331 799.857H771.753L771.776 661.863L727.5 616.719Z" fill="#1F1B28"/>
<path d="M821.8 731.914L835.825 731.914L835.825 684.661L821.8 684.661L821.8 731.914Z" fill="#2A2721"/>
<path d="M788.994 731.914L803.018 731.914L803.018 684.661L788.994 684.661L788.994 731.914Z" fill="#2A2721"/>
<path d="M1143.18 731.914L1157.2 731.914L1157.2 698.68L1143.18 698.68L1143.18 731.914Z" fill="#2A2721"/>
<path d="M1110.37 731.914L1124.39 731.914L1124.39 698.68L1110.37 698.68L1110.37 731.914Z" fill="#2A2721"/>
<path d="M1077.56 731.914L1091.58 731.914L1091.58 698.68L1077.56 698.68L1077.56 731.914Z" fill="#2A2721"/>
<path d="M1044.75 731.914L1058.78 731.914L1058.78 698.68L1044.75 698.68L1044.75 731.914Z" fill="#2A2721"/>
<path d="M1143.18 675.879L1157.2 675.879L1157.2 642.645L1143.18 642.645L1143.18 675.879Z" fill="#2A2721"/>
<path d="M1110.37 675.879L1124.39 675.879L1124.39 642.645L1110.37 642.645L1110.37 675.879Z" fill="#2A2721"/>
<path d="M1077.56 675.879L1091.58 675.879L1091.58 642.645L1077.56 642.645L1077.56 675.879Z" fill="#2A2721"/>
<path d="M1044.75 675.879L1058.78 675.879L1058.78 642.645L1044.75 642.645L1044.75 675.879Z" fill="#2A2721"/>
<path d="M1143.18 619.853L1157.2 619.853L1157.2 586.619L1143.18 586.619L1143.18 619.853Z" fill="#2A2721"/>
<path d="M1110.37 619.853L1124.39 619.853L1124.39 586.619L1110.37 586.619L1110.37 619.853Z" fill="#2A2721"/>
<path d="M1077.56 619.853L1091.58 619.853L1091.58 586.619L1077.56 586.619L1077.56 619.853Z" fill="#2A2721"/>
<path d="M1044.75 619.853L1058.78 619.853L1058.78 586.619L1044.75 586.619L1044.75 619.853Z" fill="#2A2721"/>
<path d="M1110.37 563.822L1124.39 563.822L1124.39 530.588L1110.37 530.588L1110.37 563.822Z" fill="#2A2721"/>
<path d="M1077.56 563.822L1091.58 563.822L1091.58 530.588L1077.56 530.588L1077.56 563.822Z" fill="#2A2721"/>
<path d="M468.318 659.265L482.342 659.265L482.342 626.03L468.318 626.03L468.318 659.265Z" fill="#1F1B28"/>
<path d="M435.508 659.265L449.532 659.265L449.532 626.03L435.508 626.03L435.508 659.265Z" fill="#1F1B28"/>
<path d="M402.702 659.265L416.726 659.265L416.726 626.03L402.702 626.03L402.702 659.265Z" fill="#1F1B28"/>
<path d="M468.318 603.233L482.342 603.233L482.342 569.999L468.318 569.999L468.318 603.233Z" fill="#1F1B28"/>
<path d="M435.508 603.233L449.532 603.233L449.532 569.999L435.508 569.999L435.508 603.233Z" fill="#1F1B28"/>
<path d="M402.702 603.233L416.726 603.233L416.726 569.999L402.702 569.999L402.702 603.233Z" fill="#1F1B28"/>
<path d="M468.318 547.207L482.342 547.207L482.342 513.973L468.318 513.973L468.318 547.207Z" fill="#1F1B28"/>
<path d="M435.508 547.207L449.532 547.207L449.532 513.973L435.508 513.973L435.508 547.207Z" fill="#1F1B28"/>
<path d="M402.702 547.207L416.726 547.207L416.726 513.973L402.702 513.973L402.702 547.207Z" fill="#1F1B28"/>
<path d="M468.318 771.326L482.342 771.326L482.342 738.092L468.318 738.092L468.318 771.326Z" fill="#1F1B28"/>
<path d="M435.508 771.326L449.532 771.326L449.532 738.092L435.508 738.092L435.508 771.326Z" fill="#1F1B28"/>
<path d="M402.702 771.326L416.726 771.326L416.726 738.092L402.702 738.092L402.702 771.326Z" fill="#1F1B28"/>
<path d="M468.318 715.295L482.342 715.295L482.342 682.061L468.318 682.061L468.318 715.295Z" fill="#1F1B28"/>
<path d="M435.508 715.295L449.532 715.295L449.532 682.061L435.508 682.061L435.508 715.295Z" fill="#1F1B28"/>
<path d="M402.702 715.295L416.726 715.295L416.726 682.061L402.702 682.061L402.702 715.295Z" fill="#1F1B28"/>
<path d="M468.318 659.265L482.342 659.265L482.342 626.03L468.318 626.03L468.318 659.265Z" fill="#1F1B28"/>
<path d="M435.508 659.265L449.532 659.265L449.532 626.03L435.508 626.03L435.508 659.265Z" fill="#1F1B28"/>
<path d="M402.702 659.265L416.726 659.265L416.726 626.03L402.702 626.03L402.702 659.265Z" fill="#1F1B28"/>
<path d="M295.763 549.104L340.909 594.248V799.855H251.488V594.248L295.763 549.104Z" fill="#442C3F"/>
<path d="M251.488 594.248L295.763 549.104H215.733L170.201 594.248H251.488Z" fill="#070606"/>
<path d="M170.202 799.857L251.489 799.857L251.489 594.245L170.202 594.245L170.202 799.857Z" fill="#2A2721"/>
<path d="M194.227 647.352L227.463 647.352L227.463 614.118L194.227 614.118L194.227 647.352Z" fill="#1F1B28"/>
<path d="M194.227 692.502L227.463 692.502L227.463 659.268L194.227 659.268L194.227 692.502Z" fill="#1F1B28"/>
<path d="M194.227 737.651L227.463 737.651L227.463 704.417L194.227 704.417L194.227 737.651Z" fill="#1F1B28"/>
<path d="M132.391 710.316L146.416 710.316L146.416 696.293L132.391 696.293L132.391 710.316Z" fill="#1F1B28"/>
<path d="M112.691 710.316L126.716 710.316L126.716 696.293L112.691 696.293L112.691 710.316Z" fill="#1F1B28"/>
<path d="M132.391 729.522L146.416 729.522L146.416 715.499L132.391 715.499L132.391 729.522Z" fill="#1F1B28"/>
<path d="M112.691 729.522L126.716 729.522L126.716 715.499L112.691 715.499L112.691 729.522Z" fill="#1F1B28"/>
<path d="M-0.666626 458.289V799.856H340.909L-0.666626 458.289Z" fill="#1F1B28"/>
<path d="M206.337 835.473L251.334 880.468V1117.14H80.6204V880.468L124.751 835.473H206.337Z" fill="#442C3F"/>
<path d="M161.912 881.105H-0.666626V1117.14H161.912V881.105Z" fill="#1F1B28"/>
<path d="M206.337 835.473L161.912 881.106H-0.666626L44.4189 835.473H206.337Z" fill="#070606"/>
<path d="M136.56 913.506H20.5328V927.53H136.56V913.506Z" fill="#070606"/>
<path d="M136.56 955.601H20.5328V969.624H136.56V955.601Z" fill="#070606"/>
<path d="M136.56 997.7H20.5328V1011.72H136.56V997.7Z" fill="#070606"/>
<path d="M136.56 1039.79H20.5328V1053.82H136.56V1039.79Z" fill="#070606"/>
<path d="M1326.9 851.862H1556.55V792.4H1369.01C1345.75 792.4 1326.9 811.252 1326.9 834.509V851.862V851.862Z" fill="#1F1B28"/>
<path d="M1597.73 851.859L1827.38 851.859L1827.38 792.398L1597.73 792.398L1597.73 851.859Z" fill="#1F1B28"/>
<path d="M1556.55 851.859L1597.73 851.859L1597.73 792.398L1556.55 792.398L1556.55 851.859Z" fill="#442C3F"/>
<path d="M1868.56 851.862H2098.21V811.304C2098.21 800.865 2089.74 792.4 2079.3 792.4H1868.56V851.862Z" fill="#1F1B28"/>
<path d="M1827.38 851.859L1868.56 851.859L1868.56 792.398L1827.38 792.398L1827.38 851.859Z" fill="#442C3F"/>
<path d="M1518.37 826.893L1542.61 826.893L1542.61 802.654L1518.37 802.654L1518.37 826.893Z" fill="#442C3F"/>
<path d="M1484.49 826.893L1508.73 826.893L1508.73 802.654L1484.49 802.654L1484.49 826.893Z" fill="#442C3F"/>
<path d="M1450.62 826.893L1474.86 826.893L1474.86 802.654L1450.62 802.654L1450.62 826.893Z" fill="#442C3F"/>
<path d="M1416.74 826.893L1440.98 826.893L1440.98 802.654L1416.74 802.654L1416.74 826.893Z" fill="#442C3F"/>
<path d="M1382.86 826.893L1407.1 826.893L1407.1 802.654L1382.86 802.654L1382.86 826.893Z" fill="#442C3F"/>
<path d="M1747.6 826.893L1771.84 826.893L1771.84 802.654L1747.6 802.654L1747.6 826.893Z" fill="#442C3F"/>
<path d="M1713.72 826.893L1737.96 826.893L1737.96 802.654L1713.72 802.654L1713.72 826.893Z" fill="#442C3F"/>
<path d="M1781.54 826.893L1805.78 826.893L1805.78 802.654L1781.54 802.654L1781.54 826.893Z" fill="#442C3F"/>
<path d="M1679.84 826.893L1704.08 826.893L1704.08 802.654L1679.84 802.654L1679.84 826.893Z" fill="#442C3F"/>
<path d="M1645.97 826.893L1670.21 826.893L1670.21 802.654L1645.97 802.654L1645.97 826.893Z" fill="#442C3F"/>
<path d="M1612.09 826.893L1636.33 826.893L1636.33 802.654L1612.09 802.654L1612.09 826.893Z" fill="#442C3F"/>
<path d="M2022.05 826.893L2046.29 826.893L2046.29 802.654L2022.05 802.654L2022.05 826.893Z" fill="#442C3F"/>
<path d="M1988.17 826.893L2012.41 826.893L2012.41 802.654L1988.17 802.654L1988.17 826.893Z" fill="#442C3F"/>
<path d="M2055.99 826.893L2080.23 826.893L2080.23 802.654L2055.99 802.654L2055.99 826.893Z" fill="#442C3F"/>
<path d="M1954.3 826.893L1978.54 826.893L1978.54 802.654L1954.3 802.654L1954.3 826.893Z" fill="#442C3F"/>
<path d="M1920.41 826.893L1944.65 826.893L1944.65 802.654L1920.41 802.654L1920.41 826.893Z" fill="#442C3F"/>
<path d="M1886.54 826.893L1910.78 826.893L1910.78 802.654L1886.54 802.654L1886.54 826.893Z" fill="#442C3F"/>
<path d="M1344.68 826.892H1368.92V802.653H1361.33C1352.14 802.653 1344.68 810.108 1344.68 819.303V826.892Z" fill="#442C3F"/>
<path d="M1326.9 866.515L2098.21 866.515L2098.21 851.858L1326.9 851.858L1326.9 866.515Z" fill="#070606"/>
<path d="M2179.47 1117.14L1858.41 796.093L1543.54 1117.14H2179.47Z" fill="#2A2721"/>
<path d="M2559.68 1117.14L2128.92 686.4L1706.46 1117.14H2559.68Z" fill="#1F1B28"/>
<path d="M1706.14 993.167L1884.98 993.167L1884.98 979.143L1706.14 979.143L1706.14 993.167Z" fill="#1F1B28"/>
<path d="M1974.4 993.171H1884.98V1117.15H1974.4V993.171Z" fill="#1F1B28"/>
<path d="M1706.12 993.153V1117.14H1752.82V1071.93C1752.82 1048.33 1774.53 1060.57 1798.13 1060.57C1821.74 1060.57 1838.31 1048.33 1838.31 1071.93V1117.14H1884.96V993.153H1706.12Z" fill="#442C3F"/>
<path d="M938.052 728.391H759.208V742.414H938.052V728.391Z" fill="#1F1B28"/>
<path d="M759.209 728.391H669.788V742.414H759.209V728.391Z" fill="#070606"/>
<path d="M759.209 742.417H669.788V866.391H759.209V742.417Z" fill="#1F1B28"/>
<path d="M938.071 742.395V866.383H891.369V821.173C891.369 797.568 872.233 778.432 848.626 778.432C825.019 778.432 805.882 797.568 805.882 821.173V866.383H759.228V742.395H938.071Z" fill="#442C3F"/>
<path d="M891.369 821.174V866.384H805.882V821.174C805.882 797.569 825.019 778.433 848.626 778.433C872.233 778.433 891.369 797.569 891.369 821.174Z" fill="#2A2721"/>
<path d="M2136.97 1117.14L2218.25 1117.14L2218.25 866.389L2136.97 866.389L2136.97 1117.14Z" fill="#1F1B28"/>
<path d="M2055.67 1117.14L2177.61 1117.14L2177.61 866.389L2055.67 866.389L2055.67 1117.14Z" fill="#2A2721"/>
<path d="M2121.26 937.14L2154.5 937.14L2154.5 903.906L2121.26 903.906L2121.26 937.14Z" fill="#442C3F"/>
<path d="M2177.61 880.41L2232.27 880.41L2232.27 866.386L2177.61 866.386L2177.61 880.41Z" fill="#2A2721"/>
<path d="M2041.65 880.41L2177.61 880.41L2177.61 866.386L2041.65 866.386L2041.65 880.41Z" fill="#070606"/>
<path d="M2078.78 937.14L2112.02 937.14L2112.02 903.906L2078.78 903.906L2078.78 937.14Z" fill="#442C3F"/>
<path d="M2121.26 979.234L2154.5 979.234L2154.5 946L2121.26 946L2121.26 979.234Z" fill="#442C3F"/>
<path d="M2078.78 979.234L2112.02 979.234L2112.02 946L2078.78 946L2078.78 979.234Z" fill="#442C3F"/>
<path d="M2121.26 1021.33L2154.5 1021.33L2154.5 988.091L2121.26 988.091L2121.26 1021.33Z" fill="#442C3F"/>
<path d="M2078.78 1021.33L2112.02 1021.33L2112.02 988.091L2078.78 988.091L2078.78 1021.33Z" fill="#442C3F"/>
<path d="M2121.26 1063.42L2154.5 1063.42L2154.5 1030.19L2121.26 1030.19L2121.26 1063.42Z" fill="#442C3F"/>
<path d="M2078.78 1063.42L2112.02 1063.42L2112.02 1030.19L2078.78 1030.19L2078.78 1063.42Z" fill="#442C3F"/>
<path d="M751.075 866.387H669.788V1117.14H751.075V866.387Z" fill="#1F1B28"/>
<path d="M855.167 866.387H710.431V1117.14H855.167V866.387Z" fill="#2A2721"/>
<path d="M710.431 866.387H655.763V880.41H710.431V866.387Z" fill="#2A2721"/>
<path d="M869.708 866.387H710.431V880.41H869.708V866.387Z" fill="#070606"/>
<path d="M778.178 903.902H744.942V937.137H778.178V903.902Z" fill="#442C3F"/>
<path d="M820.657 903.902H787.421V937.137H820.657V903.902Z" fill="#442C3F"/>
<path d="M778.178 945.997H744.942V979.231H778.178V945.997Z" fill="#442C3F"/>
<path d="M820.657 945.997H787.421V979.231H820.657V945.997Z" fill="#442C3F"/>
<path d="M778.178 988.097H744.942V1021.33H778.178V988.097Z" fill="#442C3F"/>
<path d="M820.657 988.097H787.421V1021.33H820.657V988.097Z" fill="#442C3F"/>
<path d="M778.178 1030.19H744.942V1063.43H778.178V1030.19Z" fill="#442C3F"/>
<path d="M820.657 1030.19H787.421V1063.43H820.657V1030.19Z" fill="#442C3F"/>
<path d="M1625.09 808.502H1533.73V1117.25H1625.09V808.502Z" fill="#1F1B28"/>
<path d="M1704.44 808.502H1584.41V1117.25H1704.44V808.502Z" fill="#2A2721"/>
<path d="M1584.41 792.498H1533.73V808.502H1584.41V792.498Z" fill="#2A2721"/>
<path d="M1704.44 792.498H1584.41V808.502H1704.44V792.498Z" fill="#070606"/>
<path d="M2388.97 1117.14L2470.25 1117.14L2470.25 881.105L2388.97 881.105L2388.97 1117.14Z" fill="#1F1B28"/>
<path d="M2388.96 881.107L2304.44 794.287H2384.47L2470.25 881.107H2388.96Z" fill="#070606"/>
<path d="M2514.56 947.999L2560 993.201V1117.33H2470V993.201L2514.56 947.999Z" fill="#442C3F"/>
<path d="M2470.25 993.166L2514.53 948.021H2434.49L2388.96 993.166H2470.25Z" fill="#070606"/>
<path d="M2388.97 1117.14L2470.25 1117.14L2470.25 993.166L2388.97 993.166L2388.97 1117.14Z" fill="#2A2721"/>
<path d="M2432.44 1029.18L2446.47 1029.18L2446.47 1015.16L2432.44 1015.16L2432.44 1029.18Z" fill="#442C3F"/>
<path d="M2412.75 1029.18L2426.77 1029.18L2426.77 1015.16L2412.75 1015.16L2412.75 1029.18Z" fill="#442C3F"/>
<path d="M2432.44 1048.39L2446.47 1048.39L2446.47 1034.37L2432.44 1034.37L2432.44 1048.39Z" fill="#442C3F"/>
<path d="M2412.75 1048.39L2426.77 1048.39L2426.77 1034.37L2412.75 1034.37L2412.75 1048.39Z" fill="#442C3F"/>
<path d="M2012.19 1015.16H1998.17V1029.18H2012.19V1015.16Z" fill="#442C3F"/>
<path d="M2031.89 1015.16H2017.87V1029.18H2031.89V1015.16Z" fill="#442C3F"/>
<path d="M2012.19 1034.37H1998.17V1048.39H2012.19V1034.37Z" fill="#442C3F"/>
<path d="M2031.89 1034.37H2017.87V1048.39H2031.89V1034.37Z" fill="#442C3F"/>
<path d="M2304.44 794.287L2218.25 880.469V1117.14H2388.96V880.469L2304.44 794.287Z" fill="#442C3F"/>
<path d="M1979.18 979.147L1934.9 934.003H2010.16L2055.7 979.147H1979.18Z" fill="#070606"/>
<path d="M2055.68 979.148H1974.4V1117.14H2055.68V979.148Z" fill="#442C3F"/>
<path d="M1934.99 934.003L1889.85 979.147L1889.82 1117.14H1979.24L1979.27 979.147L1934.99 934.003Z" fill="#1F1B28"/>
<path d="M2024.43 1049.2L2038.46 1049.2L2038.46 1001.94L2024.43 1001.94L2024.43 1049.2Z" fill="#2A2721"/>
<path d="M1991.62 1049.2L2005.65 1049.2L2005.65 1001.94L1991.62 1001.94L1991.62 1049.2Z" fill="#2A2721"/>
<path d="M340.755 993.166L296.48 948.021H376.515L422.043 993.166H340.755Z" fill="#070606"/>
<path d="M422.042 993.166H340.755V1117.14H422.042V993.166Z" fill="#442C3F"/>
<path d="M296.48 948.021L251.334 993.166V1117.14H340.756V993.166L296.48 948.021Z" fill="#1F1B28"/>
<path d="M390.791 1049.2L404.816 1049.2L404.816 1015.96L390.791 1015.96L390.791 1049.2Z" fill="#2A2721"/>
<path d="M357.986 1049.2L372.011 1049.2L372.011 1015.96L357.986 1015.96L357.986 1049.2Z" fill="#2A2721"/>
<path d="M2345.81 1049.2L2359.83 1049.2L2359.83 1015.96L2345.81 1015.96L2345.81 1049.2Z" fill="#2A2721"/>
<path d="M2313 1049.2L2327.02 1049.2L2327.02 1015.96L2313 1015.96L2313 1049.2Z" fill="#2A2721"/>
<path d="M2280.19 1049.2L2294.21 1049.2L2294.21 1015.96L2280.19 1015.96L2280.19 1049.2Z" fill="#2A2721"/>
<path d="M2247.38 1049.2L2261.41 1049.2L2261.41 1015.96L2247.38 1015.96L2247.38 1049.2Z" fill="#2A2721"/>
<path d="M2345.81 993.17L2359.83 993.17L2359.83 959.936L2345.81 959.936L2345.81 993.17Z" fill="#2A2721"/>
<path d="M2313 993.17L2327.02 993.17L2327.02 959.936L2313 959.936L2313 993.17Z" fill="#2A2721"/>
<path d="M2280.19 993.17L2294.21 993.17L2294.21 959.936L2280.19 959.936L2280.19 993.17Z" fill="#2A2721"/>
<path d="M2247.38 993.17L2261.41 993.17L2261.41 959.936L2247.38 959.936L2247.38 993.17Z" fill="#2A2721"/>
<path d="M2345.81 937.14L2359.83 937.14L2359.83 903.906L2345.81 903.906L2345.81 937.14Z" fill="#2A2721"/>
<path d="M2313 937.14L2327.02 937.14L2327.02 903.906L2313 903.906L2313 937.14Z" fill="#2A2721"/>
<path d="M2280.19 937.14L2294.21 937.14L2294.21 903.906L2280.19 903.906L2280.19 937.14Z" fill="#2A2721"/>
<path d="M2247.38 937.14L2261.41 937.14L2261.41 903.906L2247.38 903.906L2247.38 937.14Z" fill="#2A2721"/>
<path d="M2313 881.105L2327.02 881.105L2327.02 847.871L2313 847.871L2313 881.105Z" fill="#2A2721"/>
<path d="M2280.19 881.105L2294.21 881.105L2294.21 847.871L2280.19 847.871L2280.19 881.105Z" fill="#2A2721"/>
<path d="M1670.95 976.548L1684.97 976.548L1684.97 943.314L1670.95 943.314L1670.95 976.548Z" fill="#1F1B28"/>
<path d="M1638.14 976.548L1652.16 976.548L1652.16 943.314L1638.14 943.314L1638.14 976.548Z" fill="#1F1B28"/>
<path d="M1605.33 976.548L1619.36 976.548L1619.36 943.314L1605.33 943.314L1605.33 976.548Z" fill="#1F1B28"/>
<path d="M1670.95 920.521L1684.97 920.521L1684.97 887.287L1670.95 887.287L1670.95 920.521Z" fill="#1F1B28"/>
<path d="M1638.14 920.521L1652.16 920.521L1652.16 887.287L1638.14 887.287L1638.14 920.521Z" fill="#1F1B28"/>
<path d="M1605.33 920.521L1619.36 920.521L1619.36 887.287L1605.33 887.287L1605.33 920.521Z" fill="#1F1B28"/>
<path d="M1670.95 864.49L1684.97 864.49L1684.97 831.256L1670.95 831.256L1670.95 864.49Z" fill="#1F1B28"/>
<path d="M1638.14 864.49L1652.16 864.49L1652.16 831.256L1638.14 831.256L1638.14 864.49Z" fill="#1F1B28"/>
<path d="M1605.33 864.49L1619.36 864.49L1619.36 831.256L1605.33 831.256L1605.33 864.49Z" fill="#1F1B28"/>
<path d="M1670.95 1088.61L1684.97 1088.61L1684.97 1055.38L1670.95 1055.38L1670.95 1088.61Z" fill="#1F1B28"/>
<path d="M1638.14 1088.61L1652.16 1088.61L1652.16 1055.38L1638.14 1055.38L1638.14 1088.61Z" fill="#1F1B28"/>
<path d="M1605.33 1088.61L1619.36 1088.61L1619.36 1055.38L1605.33 1055.38L1605.33 1088.61Z" fill="#1F1B28"/>
<path d="M1670.95 1032.58L1684.97 1032.58L1684.97 999.345L1670.95 999.345L1670.95 1032.58Z" fill="#1F1B28"/>
<path d="M1638.14 1032.58L1652.16 1032.58L1652.16 999.345L1638.14 999.345L1638.14 1032.58Z" fill="#1F1B28"/>
<path d="M1605.33 1032.58L1619.36 1032.58L1619.36 999.345L1605.33 999.345L1605.33 1032.58Z" fill="#1F1B28"/>
<path d="M1670.95 976.548L1684.97 976.548L1684.97 943.314L1670.95 943.314L1670.95 976.548Z" fill="#1F1B28"/>
<path d="M1638.14 976.548L1652.16 976.548L1652.16 943.314L1638.14 943.314L1638.14 976.548Z" fill="#1F1B28"/>
<path d="M1605.33 976.548L1619.36 976.548L1619.36 943.314L1605.33 943.314L1605.33 976.548Z" fill="#1F1B28"/>
<path d="M1498.4 866.387L1543.54 911.531V1117.14H1454.12V911.531L1498.4 866.387Z" fill="#442C3F"/>
<path d="M1454.12 911.531L1498.4 866.387H1418.36L1372.83 911.531H1454.12Z" fill="#070606"/>
<path d="M1372.83 1117.14L1454.12 1117.14L1454.12 911.532L1372.83 911.532L1372.83 1117.14Z" fill="#2A2721"/>
<path d="M1396.86 964.64L1430.09 964.64L1430.09 931.406L1396.86 931.406L1396.86 964.64Z" fill="#1F1B28"/>
<path d="M1396.86 1009.79L1430.09 1009.79L1430.09 976.551L1396.86 976.551L1396.86 1009.79Z" fill="#1F1B28"/>
<path d="M1396.86 1054.93L1430.09 1054.93L1430.09 1021.7L1396.86 1021.7L1396.86 1054.93Z" fill="#1F1B28"/>
<path d="M1543.54 1117.14L1119.92 693.533L704.457 1117.14H1543.54Z" fill="#1F1B28"/>
<path d="M936.45 881.105H855.163V1117.14H936.45V881.105Z" fill="#1F1B28"/>
<path d="M936.455 881.107L1020.98 794.287H940.948L855.163 881.107H936.455Z" fill="#070606"/>
<path d="M1020.98 794.287L1107.16 880.469V1117.14H936.455V880.469L1020.98 794.287Z" fill="#442C3F"/>
<path d="M979.612 1015.97H965.588V1049.2H979.612V1015.97Z" fill="#2A2721"/>
<path d="M1012.42 1015.97H998.396V1049.2H1012.42V1015.97Z" fill="#2A2721"/>
<path d="M1078.03 1015.97H1064.01V1049.2H1078.03V1015.97Z" fill="#2A2721"/>
<path d="M979.612 959.934H965.588V993.168H979.612V959.934Z" fill="#2A2721"/>
<path d="M1012.42 959.934H998.396V993.168H1012.42V959.934Z" fill="#2A2721"/>
<path d="M1045.23 959.934H1031.2V993.168H1045.23V959.934Z" fill="#2A2721"/>
<path d="M1078.03 959.934H1064.01V993.168H1078.03V959.934Z" fill="#2A2721"/>
<path d="M979.612 903.902H965.588V937.137H979.612V903.902Z" fill="#2A2721"/>
<path d="M1012.42 903.902H998.396V937.137H1012.42V903.902Z" fill="#2A2721"/>
<path d="M1045.23 903.902H1031.2V937.137H1045.23V903.902Z" fill="#2A2721"/>
<path d="M1078.03 903.902H1064.01V937.137H1078.03V903.902Z" fill="#2A2721"/>
<path d="M1012.42 847.872H998.396V881.106H1012.42V847.872Z" fill="#2A2721"/>
<path d="M1045.23 847.872H1031.2V881.106H1045.23V847.872Z" fill="#2A2721"/>
<path d="M1121 993.166L1076.72 948.021H1156.76L1202.29 993.166H1121Z" fill="#070606"/>
<path d="M1202.28 993.166H1121V1117.14H1202.28V993.166Z" fill="#442C3F"/>
<path d="M1076.72 948.021L1031.57 993.166V1117.14H1121V993.166L1076.72 948.021Z" fill="#3E382E"/>
<path d="M1335.02 1027.6L1349.05 1027.6L1349.05 1013.58L1335.02 1013.58L1335.02 1027.6Z" fill="#1F1B28"/>
<path d="M1315.32 1027.6L1329.35 1027.6L1329.35 1013.58L1315.32 1013.58L1315.32 1027.6Z" fill="#1F1B28"/>
<path d="M1335.02 1046.81L1349.05 1046.81L1349.05 1032.79L1335.02 1032.79L1335.02 1046.81Z" fill="#1F1B28"/>
<path d="M1315.32 1046.81L1329.35 1046.81L1329.35 1032.79L1315.32 1032.79L1315.32 1046.81Z" fill="#1F1B28"/>
<path d="M545.915 693.533H422.042V1117.14H545.915V693.533Z" fill="#1F1B28"/>
<path d="M669.783 693.533H483.979V1117.14H669.783V693.533Z" fill="#3E382E"/>
<path d="M602.675 887.416L616.699 887.416L616.699 854.182L602.675 854.182L602.675 887.416Z" fill="#1F1B28"/>
<path d="M569.87 887.416L583.894 887.416L583.894 854.182L569.87 854.182L569.87 887.416Z" fill="#1F1B28"/>
<path d="M537.064 887.416L551.088 887.416L551.088 854.182L537.064 854.182L537.064 887.416Z" fill="#1F1B28"/>
<path d="M602.675 831.386L616.699 831.386L616.699 798.152L602.675 798.152L602.675 831.386Z" fill="#1F1B28"/>
<path d="M569.87 831.386L583.894 831.386L583.894 798.152L569.87 798.152L569.87 831.386Z" fill="#1F1B28"/>
<path d="M537.064 831.386L551.088 831.386L551.088 798.152L537.064 798.152L537.064 831.386Z" fill="#1F1B28"/>
<path d="M602.675 775.359L616.699 775.359L616.699 742.125L602.675 742.125L602.675 775.359Z" fill="#1F1B28"/>
<path d="M569.87 775.359L583.894 775.359L583.894 742.125L569.87 742.125L569.87 775.359Z" fill="#1F1B28"/>
<path d="M537.064 775.359L551.088 775.359L551.088 742.125L537.064 742.125L537.064 775.359Z" fill="#1F1B28"/>
<path d="M602.675 1051.88L616.699 1051.88L616.699 1018.64L602.675 1018.64L602.675 1051.88Z" fill="#1F1B28"/>
<path d="M569.87 1051.88L583.894 1051.88L583.894 1018.64L569.87 1018.64L569.87 1051.88Z" fill="#1F1B28"/>
<path d="M537.064 1051.88L551.088 1051.88L551.088 1018.64L537.064 1018.64L537.064 1051.88Z" fill="#1F1B28"/>
<path d="M602.675 995.85L616.699 995.85L616.699 962.615L602.675 962.615L602.675 995.85Z" fill="#1F1B28"/>
<path d="M569.87 995.85L583.894 995.85L583.894 962.615L569.87 962.615L569.87 995.85Z" fill="#1F1B28"/>
<path d="M537.064 995.85L551.088 995.85L551.088 962.615L537.064 962.615L537.064 995.85Z" fill="#1F1B28"/>
<path d="M602.675 939.818L616.699 939.818L616.699 906.584L602.675 906.584L602.675 939.818Z" fill="#1F1B28"/>
<path d="M569.87 939.818L583.894 939.818L583.894 906.584L569.87 906.584L569.87 939.818Z" fill="#1F1B28"/>
<path d="M537.064 939.818L551.088 939.818L551.088 906.584L537.064 906.584L537.064 939.818Z" fill="#1F1B28"/>
<path d="M484.126 675.802H422.11V693.807H484.126V675.802Z" fill="#2A2721"/>
<path d="M669.507 675.802H484.125V693.807H669.507V675.802Z" fill="#070606"/>
<path d="M2352.67 1158.33L2307.67 1203.32V1439.99H2478.38V1203.32L2434.26 1158.33H2352.67Z" fill="#442C3F"/>
<path d="M2397.33 1440L2560 1440L2560 1204L2397.33 1204L2397.33 1440Z" fill="#1F1B28"/>
<path d="M2352.67 1158.33L2397.1 1203.96H2559.68L2514.59 1158.33H2352.67Z" fill="#070606"/>
<path d="M2422.45 1250.39L2538.48 1250.39L2538.48 1236.37L2422.45 1236.37L2422.45 1250.39Z" fill="#070606"/>
<path d="M2422.45 1292.48L2538.48 1292.48L2538.48 1278.46L2422.45 1278.46L2422.45 1292.48Z" fill="#070606"/>
<path d="M2422.45 1334.58L2538.48 1334.58L2538.48 1320.56L2422.45 1320.56L2422.45 1334.58Z" fill="#070606"/>
<path d="M2422.45 1376.67L2538.48 1376.67L2538.48 1362.65L2422.45 1362.65L2422.45 1376.67Z" fill="#070606"/>
<path d="M1232.11 1174.72H1002.46V1115.25H1190C1213.25 1115.25 1232.11 1134.11 1232.11 1157.36V1174.72Z" fill="#1F1B28"/>
<path d="M961.277 1115.25H731.63V1174.72H961.277V1115.25Z" fill="#1F1B28"/>
<path d="M1002.46 1115.25H961.277V1174.72H1002.46V1115.25Z" fill="#442C3F"/>
<path d="M690.446 1174.72H460.8V1134.16C460.8 1123.72 469.265 1115.25 479.704 1115.25H690.446V1174.72Z" fill="#1F1B28"/>
<path d="M731.63 1115.25H690.446V1174.72H731.63V1115.25Z" fill="#442C3F"/>
<path d="M1040.64 1125.51H1016.4V1149.75H1040.64V1125.51Z" fill="#442C3F"/>
<path d="M1074.51 1125.51H1050.27V1149.75H1074.51V1125.51Z" fill="#442C3F"/>
<path d="M1108.39 1125.51H1084.15V1149.75H1108.39V1125.51Z" fill="#442C3F"/>
<path d="M1142.27 1125.51H1118.03V1149.75H1142.27V1125.51Z" fill="#442C3F"/>
<path d="M1176.14 1125.51H1151.9V1149.75H1176.14V1125.51Z" fill="#442C3F"/>
<path d="M811.408 1125.51H787.168V1149.75H811.408V1125.51Z" fill="#442C3F"/>
<path d="M845.287 1125.51H821.047V1149.75H845.287V1125.51Z" fill="#442C3F"/>
<path d="M777.471 1125.51H753.231V1149.75H777.471V1125.51Z" fill="#442C3F"/>
<path d="M879.165 1125.51H854.925V1149.75H879.165V1125.51Z" fill="#442C3F"/>
<path d="M913.039 1125.51H888.8V1149.75H913.039V1125.51Z" fill="#442C3F"/>
<path d="M946.917 1125.51H922.677V1149.75H946.917V1125.51Z" fill="#442C3F"/>
<path d="M536.961 1125.51H512.721V1149.75H536.961V1125.51Z" fill="#442C3F"/>
<path d="M570.835 1125.51H546.595V1149.75H570.835V1125.51Z" fill="#442C3F"/>
<path d="M503.018 1125.51H478.778V1149.75H503.018V1125.51Z" fill="#442C3F"/>
<path d="M604.713 1125.51H580.473V1149.75H604.713V1125.51Z" fill="#442C3F"/>
<path d="M638.591 1125.51H614.351V1149.75H638.591V1125.51Z" fill="#442C3F"/>
<path d="M672.469 1125.51H648.229V1149.75H672.469V1125.51Z" fill="#442C3F"/>
<path d="M1214.32 1149.75H1190.08V1125.51H1197.67C1206.87 1125.51 1214.32 1132.96 1214.32 1142.16V1149.75V1149.75Z" fill="#442C3F"/>
<path d="M1232.11 1174.72H460.8V1189.37H1232.11V1174.72Z" fill="#070606"/>
<path d="M379.537 1439.99L700.597 1118.95L1015.47 1439.99H379.537Z" fill="#2A2721"/>
<path d="M-0.666626 1440L430.093 1009.25L852.551 1440H-0.666626Z" fill="#1F1B28"/>
<path d="M852.868 1302H674.025V1316.03H852.868V1302Z" fill="#1F1B28"/>
<path d="M674.024 1302H584.603V1316.03H674.024V1302Z" fill="#070606"/>
<path d="M674.024 1316.02H584.603V1440H674.024V1316.02Z" fill="#1F1B28"/>
<path d="M852.886 1316.01V1439.99H806.185V1394.78C806.185 1371.18 787.048 1352.04 763.442 1352.04C739.835 1352.04 720.698 1371.18 720.698 1394.78V1439.99H674.043V1316.01H852.886Z" fill="#442C3F"/>
<path d="M806.185 1394.79V1440H720.698V1394.79C720.698 1371.18 739.835 1352.04 763.441 1352.04C787.048 1352.04 806.185 1371.18 806.185 1394.79Z" fill="#2A2721"/>
<path d="M1620.96 1065.27L1799.8 1065.27L1799.8 1051.25L1620.96 1051.25L1620.96 1065.27Z" fill="#1F1B28"/>
<path d="M1799.8 1065.27L1889.22 1065.27L1889.22 1051.25L1799.8 1051.25L1799.8 1065.27Z" fill="#070606"/>
<path d="M1889.22 1065.27H1799.8V1189.25H1889.22V1065.27Z" fill="#1F1B28"/>
<path d="M1620.94 1065.26V1189.25H1667.64V1144.04C1667.64 1120.43 1686.78 1101.29 1710.38 1101.29C1733.99 1101.29 1753.13 1120.43 1753.13 1144.04V1189.25H1799.78V1065.26H1620.94Z" fill="#442C3F"/>
<path d="M1667.64 1144.03V1189.24H1753.13V1144.03C1753.13 1120.43 1733.99 1101.29 1710.38 1101.29C1686.78 1101.29 1667.64 1120.43 1667.64 1144.03Z" fill="#2A2721"/>
<path d="M422.042 1189.24H340.755V1440H422.042V1189.24Z" fill="#1F1B28"/>
<path d="M503.335 1189.24H381.399V1440H503.335V1189.24Z" fill="#2A2721"/>
<path d="M437.748 1226.76H404.512V1259.99H437.748V1226.76Z" fill="#442C3F"/>
<path d="M381.399 1189.24H326.731V1203.27H381.399V1189.24Z" fill="#2A2721"/>
<path d="M517.359 1189.24H381.399V1203.27H517.359V1189.24Z" fill="#070606"/>
<path d="M480.226 1226.76H446.99V1259.99H480.226V1226.76Z" fill="#442C3F"/>
<path d="M437.748 1268.86H404.512V1302.09H437.748V1268.86Z" fill="#442C3F"/>
<path d="M480.226 1268.86H446.99V1302.09H480.226V1268.86Z" fill="#442C3F"/>
<path d="M437.748 1310.95H404.512V1344.18H437.748V1310.95Z" fill="#442C3F"/>
<path d="M480.226 1310.95H446.99V1344.18H480.226V1310.95Z" fill="#442C3F"/>
<path d="M437.748 1353.04H404.512V1386.28H437.748V1353.04Z" fill="#442C3F"/>
<path d="M480.226 1353.04H446.99V1386.28H480.226V1353.04Z" fill="#442C3F"/>
<path d="M1807.93 1439.99L1889.22 1439.99L1889.22 1189.24L1807.93 1189.24L1807.93 1439.99Z" fill="#1F1B28"/>
<path d="M1703.84 1439.99L1848.58 1439.99L1848.58 1189.24L1703.84 1189.24L1703.84 1439.99Z" fill="#2A2721"/>
<path d="M1848.58 1203.26L1903.25 1203.26L1903.25 1189.24L1848.58 1189.24L1848.58 1203.26Z" fill="#2A2721"/>
<path d="M1689.3 1203.26L1848.58 1203.26L1848.58 1189.24L1689.3 1189.24L1689.3 1203.26Z" fill="#070606"/>
<path d="M1780.83 1259.99L1814.07 1259.99L1814.07 1226.76L1780.83 1226.76L1780.83 1259.99Z" fill="#442C3F"/>
<path d="M1738.35 1259.99L1771.59 1259.99L1771.59 1226.76L1738.35 1226.76L1738.35 1259.99Z" fill="#442C3F"/>
<path d="M1780.83 1302.09L1814.07 1302.09L1814.07 1268.85L1780.83 1268.85L1780.83 1302.09Z" fill="#442C3F"/>
<path d="M1738.35 1302.09L1771.59 1302.09L1771.59 1268.85L1738.35 1268.85L1738.35 1302.09Z" fill="#442C3F"/>
<path d="M1780.83 1344.18L1814.07 1344.18L1814.07 1310.95L1780.83 1310.95L1780.83 1344.18Z" fill="#442C3F"/>
<path d="M1738.35 1344.18L1771.59 1344.18L1771.59 1310.95L1738.35 1310.95L1738.35 1344.18Z" fill="#442C3F"/>
<path d="M1780.83 1386.28L1814.07 1386.28L1814.07 1353.05L1780.83 1353.05L1780.83 1386.28Z" fill="#442C3F"/>
<path d="M1738.35 1386.28L1771.59 1386.28L1771.59 1353.05L1738.35 1353.05L1738.35 1386.28Z" fill="#442C3F"/>
<path d="M934.178 1439.99L1015.46 1439.99L1015.46 1131.16L934.178 1131.16L934.178 1439.99Z" fill="#1F1B28"/>
<path d="M852.887 1439.99L974.822 1439.99L974.822 1131.16L852.887 1131.16L852.887 1439.99Z" fill="#2A2721"/>
<path d="M974.919 1131.25L1015.6 1131.25L1015.6 1115.25L974.919 1115.25L974.919 1131.25Z" fill="#2A2721"/>
<path d="M852.888 1131.25L974.919 1131.25L974.919 1115.25L852.888 1115.25L852.888 1131.25Z" fill="#070606"/>
<path d="M170.042 1203.96H88.7551V1440H170.042V1203.96Z" fill="#1F1B28"/>
<path d="M170.047 1203.96L254.57 1117.14H174.535L88.7551 1203.96H170.047Z" fill="#070606"/>
<path d="M44.4795 1270.88L-0.666626 1316.02V1440H88.7549V1316.02L44.4795 1270.88Z" fill="#442C3F"/>
<path d="M88.7553 1316.02L44.4799 1270.88H124.515L170.047 1316.02H88.7553Z" fill="#070606"/>
<path d="M170.042 1316.02H88.7551V1439.99H170.042V1316.02Z" fill="#2A2721"/>
<path d="M126.563 1338.02H112.538V1352.04H126.563V1338.02Z" fill="#442C3F"/>
<path d="M146.263 1338.02H132.239V1352.04H146.263V1338.02Z" fill="#442C3F"/>
<path d="M126.563 1357.22H112.538V1371.25H126.563V1357.22Z" fill="#442C3F"/>
<path d="M146.263 1357.22H132.239V1371.25H146.263V1357.22Z" fill="#442C3F"/>
<path d="M546.817 1352.04L560.841 1352.04L560.841 1338.01L546.817 1338.01L546.817 1352.04Z" fill="#442C3F"/>
<path d="M527.117 1352.04L541.142 1352.04L541.142 1338.01L527.117 1338.01L527.117 1352.04Z" fill="#442C3F"/>
<path d="M546.817 1371.25L560.841 1371.25L560.841 1357.23L546.817 1357.23L546.817 1371.25Z" fill="#442C3F"/>
<path d="M527.117 1371.25L541.142 1371.25L541.142 1357.23L527.117 1357.23L527.117 1371.25Z" fill="#442C3F"/>
<path d="M254.57 1117.14L340.755 1203.32V1439.99H170.047V1203.32L254.57 1117.14Z" fill="#442C3F"/>
<path d="M584.603 1302L628.879 1256.86H548.844L503.311 1302H584.603Z" fill="#070606"/>
<path d="M503.323 1439.99L584.611 1439.99L584.611 1302L503.323 1302L503.323 1439.99Z" fill="#442C3F"/>
<path d="M628.878 1256.86L674.024 1302L674.043 1439.99H584.621L584.603 1302L628.878 1256.86Z" fill="#1F1B28"/>
<path d="M534.577 1324.8H520.553V1372.06H534.577V1324.8Z" fill="#2A2721"/>
<path d="M567.384 1324.8H553.36V1372.06H567.384V1324.8Z" fill="#2A2721"/>
<path d="M2218.25 1316.02L2262.53 1270.88H2182.49L2136.96 1316.02H2218.25Z" fill="#070606"/>
<path d="M2136.97 1440L2218.25 1440L2218.25 1316.02L2136.97 1316.02L2136.97 1440Z" fill="#442C3F"/>
<path d="M2262.53 1270.88L2307.67 1316.02V1440H2218.25V1316.02L2262.53 1270.88Z" fill="#1F1B28"/>
<path d="M2168.22 1338.82H2154.19V1372.06H2168.22V1338.82Z" fill="#2A2721"/>
<path d="M2201.02 1338.82H2187V1372.06H2201.02V1338.82Z" fill="#2A2721"/>
<path d="M213.205 1338.82H199.18V1372.06H213.205V1338.82Z" fill="#2A2721"/>
<path d="M246.007 1338.82H231.983V1372.06H246.007V1338.82Z" fill="#2A2721"/>
<path d="M278.815 1338.82H264.79V1372.06H278.815V1338.82Z" fill="#2A2721"/>
<path d="M311.622 1338.82H297.597V1372.06H311.622V1338.82Z" fill="#2A2721"/>
<path d="M213.205 1282.79H199.18V1316.03H213.205V1282.79Z" fill="#2A2721"/>
<path d="M246.007 1282.79H231.983V1316.03H246.007V1282.79Z" fill="#2A2721"/>
<path d="M278.815 1282.79H264.79V1316.03H278.815V1282.79Z" fill="#2A2721"/>
<path d="M311.622 1282.79H297.597V1316.03H311.622V1282.79Z" fill="#2A2721"/>
<path d="M213.205 1226.76H199.18V1259.99H213.205V1226.76Z" fill="#2A2721"/>
<path d="M246.007 1226.76H231.983V1259.99H246.007V1226.76Z" fill="#2A2721"/>
<path d="M278.815 1226.76H264.79V1259.99H278.815V1226.76Z" fill="#2A2721"/>
<path d="M311.622 1226.76H297.597V1259.99H311.622V1226.76Z" fill="#2A2721"/>
<path d="M246.007 1170.73H231.983V1203.96H246.007V1170.73Z" fill="#2A2721"/>
<path d="M278.815 1170.73H264.79V1203.96H278.815V1170.73Z" fill="#2A2721"/>
<path d="M888.063 1266.17H874.039V1299.41H888.063V1266.17Z" fill="#1F1B28"/>
<path d="M920.866 1266.17H906.842V1299.41H920.866V1266.17Z" fill="#1F1B28"/>
<path d="M953.674 1266.17H939.649V1299.41H953.674V1266.17Z" fill="#1F1B28"/>
<path d="M888.063 1210.15H874.039V1243.38H888.063V1210.15Z" fill="#1F1B28"/>
<path d="M920.866 1210.15H906.842V1243.38H920.866V1210.15Z" fill="#1F1B28"/>
<path d="M953.674 1210.15H939.649V1243.38H953.674V1210.15Z" fill="#1F1B28"/>
<path d="M888.063 1154.11H874.039V1187.34H888.063V1154.11Z" fill="#1F1B28"/>
<path d="M920.866 1154.11H906.842V1187.34H920.866V1154.11Z" fill="#1F1B28"/>
<path d="M953.674 1154.11H939.649V1187.34H953.674V1154.11Z" fill="#1F1B28"/>
<path d="M888.063 1378.23H874.039V1411.47H888.063V1378.23Z" fill="#1F1B28"/>
<path d="M920.866 1378.23H906.842V1411.47H920.866V1378.23Z" fill="#1F1B28"/>
<path d="M953.674 1378.23H939.649V1411.47H953.674V1378.23Z" fill="#1F1B28"/>
<path d="M888.063 1322.2H874.039V1355.44H888.063V1322.2Z" fill="#1F1B28"/>
<path d="M920.866 1322.2H906.842V1355.44H920.866V1322.2Z" fill="#1F1B28"/>
<path d="M953.674 1322.2H939.649V1355.44H953.674V1322.2Z" fill="#1F1B28"/>
<path d="M888.063 1266.17H874.039V1299.41H888.063V1266.17Z" fill="#1F1B28"/>
<path d="M920.866 1266.17H906.842V1299.41H920.866V1266.17Z" fill="#1F1B28"/>
<path d="M953.674 1266.17H939.649V1299.41H953.674V1266.17Z" fill="#1F1B28"/>
<path d="M1060.61 1189.24L1015.46 1234.39V1440H1104.89V1234.39L1060.61 1189.24Z" fill="#442C3F"/>
<path d="M1104.89 1234.39L1060.61 1189.24H1140.65L1186.18 1234.39H1104.89Z" fill="#070606"/>
<path d="M1186.17 1234.39H1104.89V1440H1186.17V1234.39Z" fill="#2A2721"/>
<path d="M1162.15 1254.26H1128.92V1287.5H1162.15V1254.26Z" fill="#1F1B28"/>
<path d="M1162.15 1299.41H1128.92V1332.64H1162.15V1299.41Z" fill="#1F1B28"/>
<path d="M1162.15 1344.56H1128.92V1377.79H1162.15V1344.56Z" fill="#1F1B28"/>
<path d="M1015.46 1440L1439.09 1016.39L1854.55 1440H1015.46Z" fill="#1F1B28"/>
<path d="M1313 1440H1231.71V1146.91L1272.35 1105.46L1313 1146.91V1440Z" fill="#3E382E"/>
<path d="M1402.42 1146.91H1313V1440H1402.42V1146.91Z" fill="#442C3F"/>
<path d="M1262.96 1169.7H1248.94V1202.94H1262.96V1169.7Z" fill="#1F1B28"/>
<path d="M1295.77 1169.7H1281.75V1202.94H1295.77V1169.7Z" fill="#1F1B28"/>
<path d="M1313 1146.91L1272.35 1105.46H1360.52L1402.42 1146.91H1313Z" fill="#070606"/>
<path d="M1267.47 1316.02L1311.74 1270.88H1231.71L1186.18 1316.02H1267.47Z" fill="#070606"/>
<path d="M1186.18 1440L1267.47 1440L1267.47 1316.02L1186.18 1316.02L1186.18 1440Z" fill="#442C3F"/>
<path d="M1311.74 1270.88L1356.89 1316.02V1440H1267.46V1316.02L1311.74 1270.88Z" fill="#3E382E"/>
<path d="M1622.56 1439.99L1703.84 1439.99L1703.84 1203.96L1622.56 1203.96L1622.56 1439.99Z" fill="#1F1B28"/>
<path d="M1622.55 1203.96L1538.03 1117.14H1618.06L1703.84 1203.96H1622.55Z" fill="#070606"/>
<path d="M1538.03 1117.14L1451.84 1203.32V1439.99H1622.55V1203.32L1538.03 1117.14Z" fill="#442C3F"/>
<path d="M1579.4 1372.05L1593.42 1372.05L1593.42 1338.82L1579.4 1338.82L1579.4 1372.05Z" fill="#2A2721"/>
<path d="M1546.59 1372.05L1560.61 1372.05L1560.61 1338.82L1546.59 1338.82L1546.59 1372.05Z" fill="#2A2721"/>
<path d="M1513.78 1372.05L1527.81 1372.05L1527.81 1338.82L1513.78 1338.82L1513.78 1372.05Z" fill="#2A2721"/>
<path d="M1480.97 1372.05L1495 1372.05L1495 1338.82L1480.97 1338.82L1480.97 1372.05Z" fill="#2A2721"/>
<path d="M1579.4 1316.02L1593.42 1316.02L1593.42 1282.79L1579.4 1282.79L1579.4 1316.02Z" fill="#2A2721"/>
<path d="M1546.59 1316.02L1560.61 1316.02L1560.61 1282.79L1546.59 1282.79L1546.59 1316.02Z" fill="#2A2721"/>
<path d="M1513.78 1316.02L1527.81 1316.02L1527.81 1282.79L1513.78 1282.79L1513.78 1316.02Z" fill="#2A2721"/>
<path d="M1480.97 1316.02L1495 1316.02L1495 1282.79L1480.97 1282.79L1480.97 1316.02Z" fill="#2A2721"/>
<path d="M1579.4 1259.99L1593.42 1259.99L1593.42 1226.76L1579.4 1226.76L1579.4 1259.99Z" fill="#2A2721"/>
<path d="M1546.59 1259.99L1560.61 1259.99L1560.61 1226.76L1546.59 1226.76L1546.59 1259.99Z" fill="#2A2721"/>
<path d="M1513.78 1259.99L1527.81 1259.99L1527.81 1226.76L1513.78 1226.76L1513.78 1259.99Z" fill="#2A2721"/>
<path d="M1480.97 1259.99L1495 1259.99L1495 1226.76L1480.97 1226.76L1480.97 1259.99Z" fill="#2A2721"/>
<path d="M1546.59 1203.96L1560.61 1203.96L1560.61 1170.73L1546.59 1170.73L1546.59 1203.96Z" fill="#2A2721"/>
<path d="M1513.78 1203.96L1527.81 1203.96L1527.81 1170.73L1513.78 1170.73L1513.78 1203.96Z" fill="#2A2721"/>
<path d="M1438.01 1316.02L1482.29 1270.88H1402.25L1356.72 1316.02H1438.01Z" fill="#070606"/>
<path d="M1356.72 1440L1438.01 1440L1438.01 1316.02L1356.72 1316.02L1356.72 1440Z" fill="#442C3F"/>
<path d="M1482.29 1270.88L1527.43 1316.02V1440H1438.01V1316.02L1482.29 1270.88Z" fill="#3E382E"/>
<path d="M1223.99 1336.43H1209.96V1350.45H1223.99V1336.43Z" fill="#1F1B28"/>
<path d="M1243.68 1336.43H1229.66V1350.45H1243.68V1336.43Z" fill="#1F1B28"/>
<path d="M1223.99 1355.64H1209.96V1369.66H1223.99V1355.64Z" fill="#1F1B28"/>
<path d="M1243.68 1355.64H1229.66V1369.66H1243.68V1355.64Z" fill="#1F1B28"/>
<path d="M2013.09 1439.99L2136.96 1439.99L2136.96 1016.39L2013.09 1016.39L2013.09 1439.99Z" fill="#1F1B28"/>
<path d="M1885.15 1440L2075.2 1440L2075.2 1016.56L1885.15 1016.56L1885.15 1440Z" fill="#3E382E"/>
<path d="M1956.33 1177.04H1942.31V1210.28H1956.33V1177.04Z" fill="#1F1B28"/>
<path d="M1989.14 1177.04H1975.11V1210.28H1989.14V1177.04Z" fill="#1F1B28"/>
<path d="M2021.94 1177.04H2007.92V1210.28H2021.94V1177.04Z" fill="#1F1B28"/>
<path d="M1956.33 1121.01H1942.31V1154.24H1956.33V1121.01Z" fill="#1F1B28"/>
<path d="M1989.14 1121.01H1975.11V1154.24H1989.14V1121.01Z" fill="#1F1B28"/>
<path d="M2021.94 1121.01H2007.92V1154.24H2021.94V1121.01Z" fill="#1F1B28"/>
<path d="M1956.33 1064.98H1942.31V1098.21H1956.33V1064.98Z" fill="#1F1B28"/>
<path d="M1989.14 1064.98H1975.11V1098.21H1989.14V1064.98Z" fill="#1F1B28"/>
<path d="M2021.94 1064.98H2007.92V1098.21H2021.94V1064.98Z" fill="#1F1B28"/>
<path d="M1956.33 1341.5H1942.31V1374.74H1956.33V1341.5Z" fill="#1F1B28"/>
<path d="M1989.14 1341.5H1975.11V1374.74H1989.14V1341.5Z" fill="#1F1B28"/>
<path d="M2021.94 1341.5H2007.92V1374.74H2021.94V1341.5Z" fill="#1F1B28"/>
<path d="M1956.33 1285.47H1942.31V1318.71H1956.33V1285.47Z" fill="#1F1B28"/>
<path d="M1989.14 1285.47H1975.11V1318.71H1989.14V1285.47Z" fill="#1F1B28"/>
<path d="M2021.94 1285.47H2007.92V1318.71H2021.94V1285.47Z" fill="#1F1B28"/>
<path d="M1956.33 1229.44H1942.31V1262.67H1956.33V1229.44Z" fill="#1F1B28"/>
<path d="M1989.14 1229.44H1975.11V1262.67H1989.14V1229.44Z" fill="#1F1B28"/>
<path d="M2021.94 1229.44H2007.92V1262.67H2021.94V1229.44Z" fill="#1F1B28"/>
<path d="M2075.02 1016.39L2136.96 1016.39L2136.96 1002.37L2075.02 1002.37L2075.02 1016.39Z" fill="#2A2721"/>
<path d="M1885.15 1016.56L2075.2 1016.56L2075.2 1002.55L1885.15 1002.55L1885.15 1016.56Z" fill="#070606"/>
</g>
</g>
<defs>
<clipPath id="clip0">
<rect width="2560" height="1440" fill="white"/>
</clipPath>
<clipPath id="clip1">
<rect width="2560" height="1902.67" fill="white" transform="translate(0 -462.667)"/>
</clipPath>
</defs>
</svg>
