<svg
    xmlns="http://www.w3.org/2000/svg"
    xmlns:xlink="http://www.w3.org/1999/xlink" viewBox="0 0 287.37 119.44">
    <defs>
        <style type="text/css">.cls-1,.cls-13,.cls-14,.cls-18,.cls-2,.cls-25,.cls-27,.cls-29,.cls-30,.cls-34,.cls-7,.cls-9{fill:none;}.cls-2{clip-rule:evenodd;}.cls-10,.cls-11,.cls-12,.cls-16,.cls-26,.cls-3,.cls-6{fill:#fff;}.cls-4{clip-path:url(#clip-path);}.cls-5{fill:#9b4aff;}.cls-20,.cls-5{opacity:0.75;}.cls-11,.cls-12,.cls-13,.cls-16,.cls-27,.cls-32,.cls-6,.cls-7,.cls-9{stroke:#005ca8;}.cls-10,.cls-11,.cls-12,.cls-13,.cls-14,.cls-18,.cls-25,.cls-26,.cls-27,.cls-30,.cls-32,.cls-6{stroke-linejoin:round;}.cls-10,.cls-11,.cls-12,.cls-13,.cls-14,.cls-18,.cls-25,.cls-26,.cls-27,.cls-30,.cls-32,.cls-7{stroke-linecap:round;}.cls-16,.cls-29,.cls-34,.cls-7,.cls-9{stroke-miterlimit:10;}.cls-23,.cls-32,.cls-8{fill:#005ca8;}.cls-10,.cls-14{stroke:#045ca6;}.cls-11,.cls-20,.cls-23,.cls-27{fill-rule:evenodd;}.cls-15{fill:#045ca6;}.cls-17,.cls-19{fill:#16b1e0;}.cls-17,.cls-31{opacity:0.5;}.cls-18,.cls-34{stroke:#16b1e0;}.cls-20{fill:#ffac38;}.cls-21{clip-path:url(#clip-path-2);}.cls-22{clip-path:url(#clip-path-3);}.cls-24{fill:#06599b;}.cls-25{stroke:#fff;stroke-width:0.5px;}.cls-26{stroke:#06599b;}.cls-28{fill:#005ba8;}.cls-29,.cls-30{stroke:#005ba8;}.cls-29{stroke-width:0.15px;}.cls-33{fill:#095da8;}</style>
        <clipPath id="clip-path">
            <rect class="cls-1" x="99.65" y="23.16" width="114.04" height="62.54"/>
        </clipPath>
        <clipPath id="clip-path-2">
            <path class="cls-2" d="M246.78,64s3.08.58,3.56-2.09"/>
        </clipPath>
        <clipPath id="clip-path-3">
            <rect class="cls-1" x="235.45" y="34.23" width="37.43" height="36.84"/>
        </clipPath>
    </defs>
    <title>Create_team</title>
    <g id="Create_team">
        <g id="Light-2" data-name="Light">
            <g id="girl_on_webex_board" data-name="girl on webex board">
                <rect class="cls-3" x="99.65" y="23.16" width="114.04" height="62.54"/>
                <g class="cls-4">
                    <path id="Stroke-251" class="cls-5" d="M141.72,85.7,147,73c1.43-3.83,4.86-5.21,7.56-5.86L163,64.86l13.14-.81,11.56,3.06A6.76,6.76,0,0,1,192.81,73l1.27,12.73"/>
                    <path class="cls-6" d="M147.77,85.7A7.39,7.39,0,0,0,149,78.88l-8.73-27.17a1.05,1.05,0,0,0-2,.06l-.81,3.9a1.31,1.31,0,0,1-2.56,0l-.81-3.9a1.05,1.05,0,0,0-2-.06l-6.89,21.46-.85,2.62V72.67a4.8,4.8,0,0,0-4.19-4.84,4.65,4.65,0,0,0-5.13,4.63v2.31a1,1,0,0,0,2,0V72.58a2.74,2.74,0,0,1,2.14-2.74,2.69,2.69,0,0,1,3.21,2.62V84.08a4.36,4.36,0,0,0,.3,1.62"/>
                    <path class="cls-7" d="M136.11,65.3a1.22,1.22,0,0,1-2.43,0"/>
                    <path class="cls-7" d="M138.55,65.3a1.22,1.22,0,0,1-2.44,0"/>
                    <path class="cls-8" d="M136.53,65.24l.85-.84a.6.6,0,0,0-.42-1h-1.7a.6.6,0,0,0-.42,1l.85.84A.58.58,0,0,0,136.53,65.24Z"/>
                    <circle class="cls-8" cx="133.5" cy="60.97" r="0.6"/>
                    <circle class="cls-8" cx="139.12" cy="60.97" r="0.6"/>
                    <line class="cls-7" x1="139.51" y1="85.4" x2="139.51" y2="81.34"/>
                    <line class="cls-7" x1="136.13" y1="77.39" x2="136.13" y2="85.65"/>
                    <line class="cls-9" x1="136.13" y1="85.65" x2="136.13" y2="77.36"/>
                    <line class="cls-7" x1="132.75" y1="81.31" x2="132.75" y2="85.4"/>
                    <path class="cls-7" d="M140.43,73a4.32,4.32,0,1,1-8.64,0"/>
                    <line class="cls-7" x1="142.61" y1="63.51" x2="140.9" y2="63.96"/>
                    <line class="cls-7" x1="142.61" y1="65.88" x2="140.9" y2="65.42"/>
                    <line class="cls-7" x1="129.61" y1="63.51" x2="131.32" y2="63.96"/>
                    <line class="cls-7" x1="129.61" y1="65.88" x2="131.32" y2="65.42"/>
                    <path class="cls-8" d="M173.06,28.08h0a7.28,7.28,0,0,0-6.27,3.58,5.74,5.74,0,0,0-.93-.07h0c-5.09,0-7.59,4.12-7.59,9.21V52l0,0A8.2,8.2,0,1,0,168.66,60c.09,5.72,10,4.54,10,4.54a5.71,5.71,0,0,0,5.71-5.71V39.42A11.34,11.34,0,0,0,173.06,28.08Z"/>
                    <path class="cls-10" d="M171.23,60.23h0a9.15,9.15,0,0,1-9.13-9.14v-9a9.15,9.15,0,0,1,9.13-9.14h0a9.15,9.15,0,0,1,9.14,9.14v9A9.13,9.13,0,0,1,171.23,60.23Z"/>
                    <path id="Fill-75" class="cls-11" d="M167,48.43h9.28V64.66a4.64,4.64,0,0,1-9.28,0V48.43Z"/>
                    <path class="cls-12" d="M171.23,60.23h0a9.15,9.15,0,0,1-9.13-9.14v-9a9.15,9.15,0,0,1,9.13-9.14h0a9.15,9.15,0,0,1,9.14,9.14v9A9.13,9.13,0,0,1,171.23,60.23Z"/>
                    <path class="cls-12" d="M180.49,48.87a1.8,1.8,0,0,0,.7.23,1.94,1.94,0,1,0,.47-3.86,2,2,0,0,0-1.17.23Z"/>
                    <path class="cls-12" d="M162,48.87a1.8,1.8,0,0,1-.7.23,1.94,1.94,0,1,1-.47-3.86,2,2,0,0,1,1.17.23Z"/>
                    <polyline class="cls-12" points="171.53 46.35 172.05 50.33 170.53 50.33"/>
                    <line class="cls-13" x1="164.91" y1="40.26" x2="166.9" y2="39.91"/>
                    <line class="cls-14" x1="175.62" y1="39.74" x2="177.5" y2="40.44"/>
                    <circle class="cls-8" cx="176.56" cy="44.6" r="0.76"/>
                    <circle class="cls-8" cx="166.31" cy="44.6" r="0.76"/>
                    <path class="cls-12" d="M171.41,54.49a2.15,2.15,0,0,1-2.87,1,2.1,2.1,0,0,1-1-2.87Z"/>
                    <path class="cls-15" d="M166.84,32.76s3.16,8.49,14,11.12l-1.28-12.53Z"/>
                    <path class="cls-16" d="M181.13,85.42l-4.56-8.84H173a5.18,5.18,0,0,1-5.11-4.32l-.36-2.13a3.11,3.11,0,0,1,3.07-3.59h4.69v-6a1.46,1.46,0,0,1,1.46-1.47h0a1.69,1.69,0,0,1,1.68,1.69l.3,5.89,2.7,5,9.18,13.78"/>
                </g>
                <g id="webex_board" data-name="webex board">
                    <path class="cls-17" d="M213.54,22.54a8,8,0,0,0-7.84-6.39h-98a8,8,0,0,0-7.94,7h114Z"/>
                    <path class="cls-17" d="M213.54,86.28a8,8,0,0,1-7.84,6.39h-98a8,8,0,0,1-7.94-7h114Z"/>
                    <rect class="cls-18" x="99.65" y="23.16" width="114.04" height="62.54" rx="1"/>
                    <rect class="cls-18" x="99.66" y="16.15" width="114.04" height="76.55" rx="8"/>
                    <rect class="cls-19" x="153.56" y="17.79" width="6.24" height="3.83" rx="1.92"/>
                </g>
            </g>
            <path class="cls-20" d="M278.52,98.69,269.57,72a4.47,4.47,0,0,0-4.48-2.82,2.48,2.48,0,0,0-.27,0h-7.09c0,.1,0,.21,0,.31a5.18,5.18,0,0,1-5.18,5.18,4.45,4.45,0,0,1-3.39-1.46c.72-2,1.15-4-.62-4h-.67a8.07,8.07,0,0,0-2.06.25c-2.61.49-5.42,1.75-6.42,4.33L231,98.86a4.48,4.48,0,0,0,8.47,3l1.48-4.4-1.78,18.68h31.34l-4.7-13.25-.26-8.46.62-4.38,3.9,11.65a4.49,4.49,0,0,0,8.47-3Z"/>
            <rect class="cls-1" x="230.73" y="69.31" width="17.87" height="35.52"/>
            <g class="cls-21">
                <g class="cls-22">
                    <rect class="cls-3" x="245.31" y="60.4" width="6.51" height="5.09"/>
                </g>
            </g>
            <path id="Fill-75-2" data-name="Fill-75" class="cls-11" d="M248.29,53.84h9.1V70.07a4.55,4.55,0,1,1-9.1,0V53.84Z"/>
            <path id="Fill-77" class="cls-23" d="M257.63,59.82s-.29,11.76-9.3,11V65.15Z"/>
            <path class="cls-12" d="M249.39,39.78A8.37,8.37,0,0,0,241,48.14V59.25a7.69,7.69,0,0,0,3.45,6.35,6,6,0,0,0,9.83,0,7.68,7.68,0,0,0,3.44-6.35V48.1A8.34,8.34,0,0,0,249.39,39.78Z"/>
            <path class="cls-24" d="M260.09,60.44a2.56,2.56,0,0,0,2.42-.86,2.46,2.46,0,0,0,.37-2.5c.16-.17.28-.33.41-.49a2.61,2.61,0,0,0,.2-.5,2.54,2.54,0,0,0,1.93-1.59,2.57,2.57,0,0,0-.45-2.42,2.47,2.47,0,0,0,.2-.58,2.55,2.55,0,0,0,0-.53,2.48,2.48,0,0,0,1.19-2.09,2.42,2.42,0,0,0-1.19-2.09,2.3,2.3,0,0,0,0-.74,2.38,2.38,0,0,0-.16-.57,2.53,2.53,0,0,0,.37-2.34,2.4,2.4,0,0,0-1.81-1.55,2.16,2.16,0,0,0-.28-.82,3.2,3.2,0,0,0-.41-.54,2.51,2.51,0,0,0-.45-2.25,2.42,2.42,0,0,0-2.13-.86,3.4,3.4,0,0,0-.5-.62,2.08,2.08,0,0,0-.65-.36A2.51,2.51,0,0,0,258,34.21a2.43,2.43,0,0,0-2.25-.12,1.88,1.88,0,0,0-.7-.41,2.67,2.67,0,0,0-.82-.17,2.54,2.54,0,0,0-1.76-1.39,2.33,2.33,0,0,0-2.22.74,2.32,2.32,0,0,0-1-.21,2.45,2.45,0,0,0-.82.17,2.53,2.53,0,0,0-2.21-.66,2.45,2.45,0,0,0-1.76,1.39,1.88,1.88,0,0,0-.66.13,2.22,2.22,0,0,0-.74.49,2.47,2.47,0,0,0-2.33.12,2.5,2.5,0,0,0-1.19,1.89,2.39,2.39,0,0,0-.45.28,2.64,2.64,0,0,0-.58.74,2.47,2.47,0,0,0-2.66,3.16,1.38,1.38,0,0,0-.29.41,2.35,2.35,0,0,0-.28.86,2.37,2.37,0,0,0-1.81,1.6,2.41,2.41,0,0,0,.37,2.29,1,1,0,0,0-.08.33,3.39,3.39,0,0,0,0,.9,2.44,2.44,0,0,0-1.23,2.13A2.49,2.49,0,0,0,233.7,51a1.17,1.17,0,0,0,0,.37,2.59,2.59,0,0,0,.29.82,2.45,2.45,0,0,0,1.39,4.06c0,.12.12.28.16.41a2,2,0,0,0,.54.61,2.44,2.44,0,0,0,2.78,3.36v.08a1.48,1.48,0,0,0,1.48,1.48,1.42,1.42,0,0,0,1.06-.45s0,0,.09,0v-.08c-.21-.45-.33-.54-.33-.86,0-.54,0-.82,0-1.31l0-9.64c.2,0,.36,0,.57,0,5.29,0,10-.41,13-4.27a4.23,4.23,0,0,0,3,2.46,7.71,7.71,0,0,1,.13,1.35l-.05,10a1.4,1.4,0,0,0-.69,1.22,1.3,1.3,0,0,0,.37,1s0,.08,0,.08,0,0,.08,0a1.48,1.48,0,0,0,2.54-1Z"/>
            <path class="cls-12" d="M257.75,54.17V51.83a2.38,2.38,0,0,1,0,4.76Z"/>
            <path class="cls-25" d="M256.85,40.56a7,7,0,0,1-1.8,4.39"/>
            <line class="cls-26" x1="257.75" y1="45.73" x2="257.75" y2="47.49"/>
            <path class="cls-12" d="M248.16,62a1.7,1.7,0,0,1,2.75,1.23,2.82,2.82,0,0,1-5.49,0A1.74,1.74,0,0,1,248.16,62"/>
            <path class="cls-12" d="M248.16,63.51c-1-1-2.41,0-3.27-1"/>
            <path class="cls-12" d="M251.48,62.49c-.69,1-2.54,0-3.27,1"/>
            <line class="cls-12" x1="246.77" y1="59.7" x2="249.52" y2="59.7"/>
            <circle class="cls-8" cx="243.82" cy="55.07" r="0.74"/>
            <circle class="cls-8" cx="251.73" cy="55.07" r="0.74"/>
            <path class="cls-12" d="M250.38,53.76a2.66,2.66,0,0,1,3.81,0"/>
            <path class="cls-16" d="M242.34,53.76a2.67,2.67,0,0,1,3.82,0"/>
            <path class="cls-12" d="M242.34,53.76a2.67,2.67,0,0,1,3.82,0"/>
            <circle class="cls-13" cx="244.39" cy="54.74" r="3.85"/>
            <circle class="cls-13" cx="252.1" cy="54.74" r="3.85"/>
            <path class="cls-25" d="M241.12,52.69a3.54,3.54,0,0,0,0,4.1"/>
            <path id="hand_right_" data-name="hand(right)" class="cls-12" d="M199,66.43l10.61,2.17-.78-.73a1.08,1.08,0,1,1,1.47-1.58l3.39,3.14.74.16A4,4,0,0,1,218,71.38l20.51,25.94c1.83,1.83.86,5.37-1,6.59a4.76,4.76,0,0,1-7-1.53l-17.69-27.6-.36-.54-3.71-.75a14.7,14.7,0,0,1-4.88-2L198.37,68A.88.88,0,0,1,199,66.43Z"/>
            <path id="Fill-75-3" data-name="Fill-75" class="cls-27" d="M257.39,68.18v1.89a4.55,4.55,0,1,1-9.1,0v-2"/>
            <rect class="cls-1" x="260.8" y="69.14" width="17.98" height="35.66"/>
            <path class="cls-28" d="M235.61,84.12h-1.1V83a.69.69,0,0,0-.71-.72l-8.38,0a.72.72,0,0,0-.73.72l0,8a2.91,2.91,0,0,0,2.9,2.93h4a2.93,2.93,0,0,0,2.91-2.54h1.11a2.5,2.5,0,0,0,2.57-2.54V86.68A2.52,2.52,0,0,0,235.61,84.12Zm1.07,4.75a1.09,1.09,0,0,1-1.1,1.09h-1.09V85.59h1.1a1.11,1.11,0,0,1,1.09,1.1Z"/>
            <path class="cls-29" d="M229.12,81.35c0-1.18-.89-1.19-.89-2.37s.9-1.18.91-2.36"/>
            <path class="cls-30" d="M229.12,81.35c0-1.18-.89-1.19-.89-2.37s.9-1.18.91-2.36"/>
            <path class="cls-30" d="M230,79.24c0-1.18.9-1.18.91-2.36s-.89-1.19-.89-2.37"/>
            <path class="cls-12" d="M246,94.42a6.6,6.6,0,0,1-11-2.94l-1.73,2.08a1.3,1.3,0,1,1-2-1.67l4.54-5.45,1.37-1.8.42-.51,6.89,2.29h0l30.4,10.23a5.22,5.22,0,1,1-3.3,9.9Z"/>
            <path class="cls-12" d="M29.38,87.8,23.11,70.36a1.35,1.35,0,0,0-1.72-1A1.4,1.4,0,0,0,20.48,71l.64,3.19h0l-7.42-4.93a1.35,1.35,0,1,0-1.49,2.25L17,74.62h0l-6.24-4.14a1.39,1.39,0,0,0-1.84.24,1.34,1.34,0,0,0,.3,2l6.29,4.18h0L10.7,73.71A1.35,1.35,0,1,0,9.21,76L14,79.14h0l-2.54-1.68A1.35,1.35,0,1,0,10,79.7l5.17,3.43L20,86l.55,2.25"/>
            <g class="cls-31">
                <path class="cls-19" d="M99.65,116.08,95.34,78a6.47,6.47,0,0,0-5-5.65l-.46-.13v-.1L77.27,68.76,77,116.07H99.65Z"/>
                <path class="cls-19" d="M51.85,72.17a6.5,6.5,0,0,0-4.06,2.88L34.66,95.52l-3-7.51a.51.51,0,0,0-.48-.31l-12.27.67a.5.5,0,0,0-.43.67l9.11,23.57a6.55,6.55,0,0,0,2.9,2.72l.37.16.06,0A6.48,6.48,0,0,0,38.83,113l13.1-20.41L52,116.07H64.66l-.25-47.31Z"/>
            </g>
            <rect class="cls-3" x="64.56" y="69.77" width="12.41" height="46.32"/>
            <polygon class="cls-19" points="69.19 77.84 72.46 77.84 73.29 71.67 68.35 71.67 69.19 77.84"/>
            <path class="cls-19" d="M65.8,116.07l1.7-35.61a3,3,0,0,1,3-3h.57a3,3,0,0,1,3,3l1.7,35.61Z"/>
            <rect class="cls-12" x="66.11" y="51.93" width="9.26" height="20" rx="4.63"/>
            <rect class="cls-32" x="66.11" y="48.41" width="9.26" height="20" rx="4.63"/>
            <rect class="cls-12" x="61.43" y="37.19" width="19.14" height="28.52" rx="9.57"/>
            <rect class="cls-12" x="61.43" y="37.19" width="19.14" height="28.52" rx="9.57"/>
            <path class="cls-12" d="M80.57,49.64v3.48a2,2,0,0,0,.76.25,2,2,0,1,0,.48-4,2,2,0,0,0-1.24.25"/>
            <path class="cls-12" d="M61.42,53.12a2,2,0,0,1-.76.25,2,2,0,0,1-.48-4,1.94,1.94,0,0,1,1.24.25Z"/>
            <circle class="cls-8" cx="67.78" cy="57.95" r="0.15"/>
            <circle class="cls-8" cx="67.78" cy="56.88" r="0.15"/>
            <circle class="cls-8" cx="68.84" cy="56.88" r="0.15"/>
            <circle class="cls-8" cx="69.91" cy="56.88" r="0.15"/>
            <circle class="cls-8" cx="70.98" cy="56.88" r="0.15"/>
            <circle class="cls-8" cx="72.05" cy="56.88" r="0.15"/>
            <circle class="cls-8" cx="73.12" cy="56.88" r="0.15"/>
            <circle class="cls-8" cx="74.19" cy="56.88" r="0.15"/>
            <circle class="cls-8" cx="74.19" cy="57.95" r="0.15"/>
            <circle class="cls-8" cx="67.78" cy="59.02" r="0.15"/>
            <circle class="cls-8" cx="74.19" cy="59.02" r="0.15"/>
            <circle class="cls-8" cx="67.78" cy="60.09" r="0.15"/>
            <circle class="cls-8" cx="74.19" cy="60.09" r="0.15"/>
            <circle class="cls-8" cx="67.78" cy="61.16" r="0.15"/>
            <circle class="cls-8" cx="69.91" cy="61.16" r="0.15"/>
            <circle class="cls-8" cx="70.98" cy="61.16" r="0.15"/>
            <circle class="cls-8" cx="72.05" cy="61.16" r="0.15"/>
            <circle class="cls-8" cx="74.19" cy="61.16" r="0.15"/>
            <circle class="cls-8" cx="67.78" cy="62.23" r="0.15"/>
            <circle class="cls-8" cx="68.84" cy="62.23" r="0.15"/>
            <circle class="cls-8" cx="73.12" cy="62.23" r="0.15"/>
            <circle class="cls-8" cx="74.19" cy="62.23" r="0.15"/>
            <circle class="cls-8" cx="67.78" cy="63.3" r="0.15"/>
            <circle class="cls-8" cx="68.84" cy="63.3" r="0.15"/>
            <circle class="cls-8" cx="69.91" cy="63.3" r="0.15"/>
            <circle class="cls-8" cx="70.98" cy="63.3" r="0.15"/>
            <circle class="cls-8" cx="72.05" cy="63.3" r="0.15"/>
            <circle class="cls-8" cx="73.12" cy="63.3" r="0.15"/>
            <circle class="cls-8" cx="74.19" cy="63.3" r="0.15"/>
            <circle class="cls-8" cx="68.84" cy="64.36" r="0.15"/>
            <circle class="cls-8" cx="69.91" cy="64.36" r="0.15"/>
            <circle class="cls-8" cx="70.98" cy="64.36" r="0.15"/>
            <circle class="cls-8" cx="72.05" cy="64.36" r="0.15"/>
            <circle class="cls-8" cx="73.12" cy="64.36" r="0.15"/>
            <path class="cls-13" d="M76.46,46.14a2.79,2.79,0,0,0-2.08,0"/>
            <path class="cls-13" d="M67.8,46.14a2.76,2.76,0,0,0-2.07,0"/>
            <circle class="cls-33" cx="75.57" cy="49.66" r="0.66"/>
            <circle class="cls-33" cx="66.5" cy="49.66" r="0.66"/>
            <path class="cls-13" d="M73.21,57.8a2.24,2.24,0,1,1-4.48,0Z"/>
            <line class="cls-13" x1="69.67" y1="54.69" x2="72.44" y2="54.69"/>
            <path class="cls-8" d="M71,37h0a9.59,9.59,0,0,0-9.57,9.57v4.05A3.3,3.3,0,0,0,64,47.41V44.26a2.59,2.59,0,0,1,2.6-2.6h8.74a2.59,2.59,0,0,1,2.6,2.6v3.15a3.45,3.45,0,0,0,2.62,3.19v-4A9.59,9.59,0,0,0,71,37Z"/>
            <polygon class="cls-34" points="80.87 98.16 77.06 112.12 76.81 68.17 84.59 80.44 79.62 83.82 83.28 89.36 80.87 98.16"/>
            <polygon class="cls-34" points="57.01 80.44 61.97 83.82 58.31 89.36 64.53 112.12 64.78 68.17 57.01 80.44"/>
            <path class="cls-12" d="M77.18,68.74v0l-1.19,8a.07.07,0,0,1-.12,0L71,71.67l4.79-5.25S77.18,68.74,77.18,68.74Z"/>
            <path class="cls-12" d="M64.46,68.74s0,0,0,0l1.19,8a.07.07,0,0,0,.12,0l4.89-5.12-4.79-5.25S64.46,68.74,64.46,68.74Z"/>
            <path class="cls-19" d="M201.44,4.79,200,5l1,.88"/>
            <path class="cls-19" d="M204.57,3.16a3.43,3.43,0,0,1,2.41,1l4.29,4,3.93,3.69h0a1.39,1.39,0,0,1-.94,2.42c-.52,0-1.23-.71-1.23-.71l-2.64-2.9a4.41,4.41,0,0,1-4.18,2.82,5.59,5.59,0,0,1-3.95-1.62,5.79,5.79,0,0,1-1.35-5.42A3.73,3.73,0,0,1,204.57,3.16Z"/>
            <circle class="cls-3" cx="203.51" cy="5.61" r="1"/>
            <circle class="cls-28" cx="202.89" cy="5.73" r="0.4"/>
            <polyline class="cls-13" points="207 13.31 206.98 15.42 205.9 16.04"/>
            <line class="cls-13" x1="205.84" y1="15.42" x2="206.88" y2="15.43"/>
            <line class="cls-13" x1="207.38" y1="15.83" x2="206.98" y2="15.42"/>
            <polyline class="cls-13" points="204.77 13.32 204.75 15.4 203.67 16.03"/>
            <line class="cls-13" x1="203.61" y1="15.41" x2="204.65" y2="15.42"/>
            <line class="cls-13" x1="205.15" y1="15.82" x2="204.75" y2="15.41"/>
            <path class="cls-13" d="M204.77,8a2.57,2.57,0,0,0,2.2,2.71,3.07,3.07,0,0,0,3.19-1.36l-1.2-1"/>
            <line class="cls-18" x1="3.83" y1="116.17" x2="283.55" y2="116.17"/>
        </g>
    </g>
</svg>