<?xml version="1.0" encoding="UTF-8"?>
<svg width="241px" height="125px" viewBox="0 0 241 125" version="1.1" xmlns="http://www.w3.org/2000/svg" xmlns:xlink="http://www.w3.org/1999/xlink">
    <!-- Generator: Sketch 60 (88103) - https://sketch.com -->
    <title>Create_a_space</title>
    <desc>Created with Sketch.</desc>
    <g id="Create_a_space" stroke="none" stroke-width="1" fill="none" fill-rule="evenodd">
        <g id="Create-a-space-1.0" transform="translate(-796.000000, -404.000000)">
            <g id="App" transform="translate(162.000000, 103.000000)">
                <g id="content" transform="translate(550.000000, 76.000000)">
                    <g id="Create-a-space" transform="translate(84.000000, 225.000000)">
                        <polygon id="Path" fill="#48E33D" opacity="0.25" points="206.87 6.91 207.13 6.91 235 99.91 175 99.91"></polygon>
                        <polygon id="Path" stroke="#16B1E0" stroke-linecap="round" stroke-linejoin="round" points="140.22 87.24 140.37 87.24 156.61 124.41 121.66 124.41"></polygon>
                        <polygon id="Path" stroke="#16B1E0" stroke-linecap="round" stroke-linejoin="round" points="140.37 87.24 173.58 87.24 189.81 123.94 156.61 123.94"></polygon>
                        <polygon id="Path" fill="#16B1E0" opacity="0.5" points="140.22 87.24 140.37 87.24 156.61 124.44 121.65 124.44"></polygon>
                        <polygon id="Path" fill="#16B1E0" points="140.37 87.24 173.58 87.24 189.81 123.94 156.61 123.94"></polygon>
                        <path d="M202.7,122.9 C202.7,122.9 188.84,120.15 173.58,87.24" id="Path" stroke="#16B1E0" stroke-linecap="round" stroke-linejoin="round"></path>
                        <path d="M110.05,123 C110.05,123 118.11,126.23 140.37,87.2 L138.49,123.77" id="Path" stroke="#16B1E0" stroke-linecap="round" stroke-linejoin="round"></path>
                        <line x1="109.98" y1="121.42" x2="109.98" y2="124.06" id="Path" stroke="#16B1E0" stroke-linecap="round" stroke-linejoin="round"></line>
                        <line x1="109.12" y1="121.21" x2="110.84" y2="121.21" id="Path" stroke="#16B1E0" stroke-linecap="round" stroke-linejoin="round"></line>
                        <line x1="203.03" y1="121.42" x2="203.03" y2="124.06" id="Path" stroke="#16B1E0" stroke-linecap="round" stroke-linejoin="round"></line>
                        <line x1="202.16" y1="121.21" x2="203.89" y2="121.21" id="Path" stroke="#16B1E0" stroke-linecap="round" stroke-linejoin="round"></line>
                        <polyline id="Path" stroke="#16B1E0" stroke-linecap="round" stroke-linejoin="round" points="54.5 52.91 88.6 0.5 94.06 10.3"></polyline>
                        <polyline id="Path" stroke="#16B1E0" stroke-linecap="round" stroke-linejoin="round" points="118.44 34.51 136.6 7.5 176.39 79.21"></polyline>
                        <line x1="205.5" y1="64.41" x2="205.5" y2="124.41" id="Path" stroke="#48E33D" stroke-linecap="round" stroke-linejoin="round"></line>
                        <line x1="0.5" y1="124.41" x2="240.5" y2="124.41" id="Path" stroke="#48E33D" stroke-linecap="round" stroke-linejoin="round"></line>
                        <path d="M99.84,12.9099968 C105.267264,12.9064885 110.273121,15.8349147 112.929762,20.5675107 C115.586404,25.3001067 115.479415,31.0986269 112.65,35.73 C119.95,39.22 124.84,45.61 124.84,52.9099968 C124.838949,55.3079618 124.313329,57.6766648 123.3,59.85 C130.39,64.7 134.84,71.67 134.84,79.4099968 C134.84,94.05 118.95,105.909997 99.34,105.909997 C79.73,105.909997 63.84,94.05 63.84,79.4099968 C63.84,71.4099968 68.62,64.2 76.16,59.34 C75.2940641,57.3066206 74.845194,55.1200791 74.84,52.9099968 C74.84,45.61 79.73,39.22 87.04,35.73 C84.2115191,31.1001541 84.1036052,25.3037932 86.7577933,20.5718735 C89.4119813,15.8399539 94.4145251,12.9099968 99.84,12.9099968 L99.84,12.9099968 Z" id="Path" fill="#48E33D" opacity="0.25"></path>
                        <line x1="100.34" y1="37.41" x2="100.34" y2="124.41" id="Path" stroke="#48E33D" stroke-linecap="round" stroke-linejoin="round"></line>
                        <line x1="111.34" y1="49.41" x2="100.22" y2="63.57" id="Path" stroke="#48E33D" stroke-linecap="round" stroke-linejoin="round"></line>
                        <line x1="82.34" y1="78.41" x2="99.71" y2="91.92" id="Path" stroke="#48E33D" stroke-linecap="round" stroke-linejoin="round"></line>
                        <line x1="53.34" y1="69.41" x2="49.34" y2="75.07" id="Path" stroke="#48E33D" stroke-linecap="round" stroke-linejoin="round"></line>
                        <path d="M64.27,64.35 C60.84,59.28 56.06,55.91 49.84,55.91 C42.1803742,55.9153972 35.3631419,60.76758 32.8495178,68.0030199 C30.3358937,75.2384597 32.6765248,83.2721252 38.6830363,88.0251995 C44.6895478,92.7782739 53.0461234,93.209525 59.51,89.1 C59.97,88.8 60.42,88.49 60.85,88.15 C60.85,88.15 63.91,85.81 64.63,85.08 C64.63,85.08 62.01,76.96 66.45,69.38 C65.9128514,67.6274065 65.181653,65.9402835 64.27,64.35 Z" id="Path" fill="#48E33D" fill-rule="nonzero" opacity="0.25"></path>
                        <line x1="45.34" y1="77.41" x2="49.34" y2="83.07" id="Path" stroke="#48E33D" stroke-linecap="round" stroke-linejoin="round"></line>
                        <line x1="49.72" y1="63.41" x2="49.34" y2="124.41" id="Path" stroke="#48E33D" stroke-linecap="round" stroke-linejoin="round"></line>
                    </g>
                </g>
            </g>
        </g>
    </g>
</svg>