<?xml version="1.0" encoding="UTF-8"?>
<svg width="216px" height="102px" viewBox="0 0 216 102" version="1.1" xmlns="http://www.w3.org/2000/svg" xmlns:xlink="http://www.w3.org/1999/xlink">
    <!-- Generator: Sketch 55.2 (78181) - https://sketchapp.com -->
    <title>defaultThemeChangeIllustration</title>       
    <g id="defaultThemeChangeIllustration" stroke="none" stroke-width="1" fill="none" fill-rule="evenodd">
        <g id="defaultThemeChangeIllustration" transform="translate(-612.000000, -234.000000)">
            
            <g id="defaultThemeChangeIllustration" transform="translate(162.000000, 103.000000)">                
                                    
                    <g id="defaultThemeChangeIllustration" transform="translate(210.000000, 66.000000)">
                        <g id="new-light-mode">
                            <path d="M1,90 L129,90 L129,97.5 C129,98.6045695 128.104569,99.5 127,99.5 L3,99.5 C1.8954305,99.5 1,98.6045695 1,97.5 L1,90 Z" id="Rectangle" fill="#FFFFFF"></path>
                            <path d="M51.8,99.6 C101.964851,99.6 127.047276,99.6 127.047276,99.6 C128.372966,99.6 129.2,98.793361 129.2,97.5597919 C129.2,97.566896 129.2,95.1136321 129.2,90.2" id="Path-2" stroke="#D2D5D6" stroke-width="0.75" stroke-linecap="round" stroke-linejoin="round"></path>
                            <text id="F2A62C" font-family="CiscoSansTTLight, CiscoSansTT" font-size="16" font-weight="300" line-spacing="26" letter-spacing="1.14285714" fill="#FFFFFF">
                                <tspan x="45" y="61">F2A62C</tspan>
                            </text>
                            <path d="M11.825,22 L37.9472677,22 C37.9472677,65.4653283 37.9472677,87.1979925 37.9472677,87.1979925 C37.9472677,89.5751053 38.8762694,90 40.7974003,90 C40.7974003,90 44.3982669,90 51.6,90 L51.6,100 L11.825,100 L11.825,22 Z" id="Rectangle" fill="#383C40"></path>
                            <path d="M2.142,22 L11.825,22 L11.825,100 L2.142,100 C0.959006066,100 7.58110839e-15,99.0409939 0,97.858 L0,24.142 C-1.44874973e-16,22.9590061 0.959006066,22 2.142,22 Z" id="Rectangle" fill="#171B1F"></path>
                            <path d="M8.98392857,30.2843137 C8.98392857,31.868402 7.69508036,33.1519608 6.10446429,33.1519608 C4.51384821,33.1519608 3.225,31.868402 3.225,30.2843137 C3.225,28.7002255 4.51384821,27.4166667 6.10446429,27.4166667 C7.69508036,27.4166667 8.98392857,28.7002255 8.98392857,30.2843137" id="fill" fill="#F0677E"></path>
                            <path d="M37.9324745,33.1519608 C41.8976684,33.1519608 35.946665,33.1519608 20.0794643,33.1519608 C18.4957589,33.1519608 17.2,31.8615196 17.2,30.2843137 C17.2,28.7071078 18.4957589,27.4166667 20.0794643,27.4166667 C27.9826086,27.4166667 33.9099668,27.4166667 37.861539,27.4166667 C37.9324745,27.4166667 37.861539,33.1519608 37.9324745,33.1519608 Z" id="fill" fill="#D2D5D6"></path>
                        </g>
                        <g id="new-light-mode" transform="translate(37.000000, 2.000000)">
                            <path d="M18,5 L132.5,5 C133.880712,5 135,6.11928813 135,7.5 L135,80.5 C135,81.8807119 133.880712,83 132.5,83 L18,83 L18,5 Z" id="Rectangle" fill="#FFFFFF"></path>
                            <rect id="Rectangle" fill="#E6EAEB" x="17.825" y="5" width="39.775" height="78"></rect>
                            <path d="M8.142,5 L17.825,5 L17.825,83 L8.142,83 C6.95900607,83 6,82.0409939 6,80.858 L6,7.142 C6,5.95900607 6.95900607,5 8.142,5 Z" id="Rectangle" fill="#171B1F"></path>
                            <path d="M14.9839286,13.2843137 C14.9839286,14.868402 13.6950804,16.1519608 12.1044643,16.1519608 C10.5138482,16.1519608 9.225,14.868402 9.225,13.2843137 C9.225,11.7002255 10.5138482,10.4166667 12.1044643,10.4166667 C13.6950804,10.4166667 14.9839286,11.7002255 14.9839286,13.2843137" id="fill" fill="#F0677E"></path>
                            <path d="M49.1151786,16.1519608 L26.0794643,16.1519608 C24.4957589,16.1519608 23.2,14.8615196 23.2,13.2843137 C23.2,11.7071078 24.4957589,10.4166667 26.0794643,10.4166667 L49.1151786,10.4166667 C50.6988839,10.4166667 51.9946429,11.7071078 51.9946429,13.2843137 C51.9946429,14.8615196 50.6988839,16.1519608 49.1151786,16.1519608" id="fill" fill="#D2D5D6"></path>
                            <rect id="Rectangle" stroke="#025EBD" stroke-width="0.75" x="6.375" y="5.375" width="128.25" height="77.25" rx="2.5"></rect>
                        </g>
                    </g>
                </g>
            </g>
        
    
	</g>
</svg>