<?xml version="1.0" standalone="no"?>
<!DOCTYPE svg PUBLIC "-//W3C//DTD SVG 1.1//EN" "http://www.w3.org/Graphics/SVG/1.1/DTD/svg11.dtd" >
<svg xmlns="http://www.w3.org/2000/svg" id="delete_24">
<path unicode="&#xeaa2;" transform="scale(1,-1)" id="delete_24" data-tags="delete_24" d="M736.085 39.334c-4.267-34.603-32.853-60.672-66.517-60.672h-315.136c-33.664 0-62.251 26.069-66.517 60.672l-74.496 611.925c-0.469 3.712 1.195 6.229 2.261 7.381 1.067 1.195 2.944 2.688 5.76 2.688h581.12c2.816 0 4.693-1.493 5.76-2.688 1.067-1.152 2.731-3.669 2.261-7.381l-74.496-611.925zM802.56 703.996h-581.12c-14.336 0-28.16-6.229-37.717-17.067-9.856-11.136-14.464-26.027-12.629-40.832l74.496-611.925c6.827-55.979 53.632-98.176 108.843-98.176h315.136c55.211 0 102.016 42.197 108.843 98.176l74.496 611.925c1.835 14.805-2.773 29.696-12.629 40.832-9.557 10.837-23.339 17.067-37.717 17.067zM192 789.333h640c11.776 0 21.333 9.557 21.333 21.333s-9.557 21.333-21.333 21.333h-149.333v42.667c0 47.061-37.205 85.333-82.901 85.333h-175.531c-45.696 0-82.901-38.272-82.901-85.333v-42.667h-149.333c-11.776 0-21.333-9.557-21.333-21.333s9.557-21.333 21.333-21.333zM384 874.667c0 23.509 18.048 42.667 40.235 42.667h175.531c22.187 0 40.235-19.157 40.235-42.667v-42.667h-256v42.667z" />
</svg>
