<svg width="180" height="96" viewBox="0 0 180 96" fill="none" xmlns="http://www.w3.org/2000/svg">
<path d="M47.2946 92.0001H39.7978C38.6664 92.0001 37.75 90.8889 37.75 89.5197V70.9167H52.0844L49.3107 89.9513C49.1387 91.1369 48.2878 92.0001 47.2946 92.0001Z" fill="url(#paint0_linear)"/>
<g filter="url(#filter0_i)">
<path d="M47.2946 92.0001H39.7978C38.6664 92.0001 37.75 90.8889 37.75 89.5197V70.9167H52.0844L49.3107 89.9513C49.1387 91.1369 48.2878 92.0001 47.2946 92.0001Z" fill="black"/>
</g>
<path d="M133.29 92.0001H140.787C141.918 92.0001 142.834 90.8889 142.834 89.5197V70.9167H128.5L131.274 89.9513C131.446 91.1369 132.297 92.0001 133.29 92.0001Z" fill="url(#paint1_linear)"/>
<g filter="url(#filter1_i)">
<path d="M133.29 92.0001H140.787C141.918 92.0001 142.834 90.8889 142.834 89.5197V70.9167H128.5L131.274 89.9513C131.446 91.1369 132.297 92.0001 133.29 92.0001Z" fill="black"/>
</g>
<path d="M35 74.5833H145V88.3333C145 89.852 143.769 91.0833 142.25 91.0833H37.75C36.2312 91.0833 35 89.852 35 88.3333V74.5833Z" fill="#C5C5C5"/>
<g filter="url(#filter2_iiii)">
<path d="M35 74.5833H145V88.3333C145 89.852 143.769 91.0833 142.25 91.0833H37.75C36.2312 91.0833 35 89.852 35 88.3333V74.5833Z" fill="black"/>
</g>
<path d="M35 73.9155H145V88.7917C145 90.0574 143.974 91.0834 142.708 91.0834H37.2917C36.026 91.0834 35 90.0574 35 88.7917V73.9155Z" fill="url(#paint2_linear)"/>
<path d="M35 73.9155H145V88.7917C145 90.0574 143.974 91.0834 142.708 91.0834H37.2917C36.026 91.0834 35 90.0574 35 88.7917V73.9155Z" fill="url(#paint3_linear)"/>
<path fill-rule="evenodd" clip-rule="evenodd" d="M144.725 74.1904V88.7916C144.725 89.3485 144.499 89.8527 144.134 90.2176C143.769 90.5826 143.265 90.8083 142.708 90.8083H37.2917C36.7348 90.8083 36.2306 90.5826 35.8657 90.2176C35.5007 89.8527 35.275 89.3485 35.275 88.7916V74.1904H144.725Z" fill="url(#paint4_linear)" stroke="url(#paint5_linear)" stroke-width="0.6"/>
<path fill-rule="evenodd" clip-rule="evenodd" d="M144.771 74.1448V88.7918C144.771 89.3613 144.54 89.877 144.167 90.2502C143.794 90.6234 143.278 90.8543 142.708 90.8543H37.2917C36.7221 90.8543 36.2065 90.6234 35.8333 90.2502C35.46 89.877 35.2292 89.3613 35.2292 88.7918V74.1448H144.771Z" stroke="#999999" stroke-opacity="0.48" stroke-width="0.5"/>
<path fill-rule="evenodd" clip-rule="evenodd" d="M144.817 74.0989V88.7917C144.817 89.3739 144.581 89.901 144.199 90.2826C143.818 90.6641 143.291 90.9001 142.708 90.9001H37.2917C36.7095 90.9001 36.1824 90.6641 35.8009 90.2826C35.4193 89.901 35.1833 89.3739 35.1833 88.7917V74.0989H144.817Z" stroke="#151B1E" stroke-opacity="0.12" stroke-width="0.4"/>
<path d="M145 74.5833H35V7.00355C35 5.34559 36.3319 4 37.973 4H142.027C143.668 4 145 5.34559 145 7.00355V74.5833Z" fill="#1A1A1A"/>
<g filter="url(#filter3_i)">
<path d="M145 74.5833H35V7.00355C35 5.34559 36.3319 4 37.973 4H142.027C143.668 4 145 5.34559 145 7.00355V74.5833Z" fill="black"/>
</g>
<path fill-rule="evenodd" clip-rule="evenodd" d="M142.536 71.7916C142.536 72.4674 141.99 73.0138 141.316 73.0138C140.643 73.0138 140.096 72.4674 140.096 71.7916C140.096 71.1157 140.643 70.5693 141.316 70.5693C141.99 70.5693 142.536 71.1157 142.536 71.7916Z" stroke="#474747" stroke-width="0.3"/>
<path fill-rule="evenodd" clip-rule="evenodd" d="M131.554 73.0138H136.435C137.108 73.0138 137.655 72.4674 137.655 71.7916C137.655 71.1157 137.108 70.5693 136.435 70.5693H131.554C130.88 70.5693 130.333 71.1157 130.333 71.7916C130.333 72.4674 130.88 73.0138 131.554 73.0138Z" stroke="#474747" stroke-width="0.3"/>
<path d="M90 8.125C90.7594 8.125 91.375 7.50939 91.375 6.75C91.375 5.99061 90.7594 5.375 90 5.375C89.2406 5.375 88.625 5.99061 88.625 6.75C88.625 7.50939 89.2406 8.125 90 8.125Z" fill="#232323"/>
<path d="M90 7.66659C90.5062 7.66659 90.9166 7.25618 90.9166 6.74992C90.9166 6.24366 90.5062 5.83325 90 5.83325C89.4937 5.83325 89.0833 6.24366 89.0833 6.74992C89.0833 7.25618 89.4937 7.66659 90 7.66659Z" fill="#555B6C"/>
<path fill-rule="evenodd" clip-rule="evenodd" d="M91.5983 83.729C91.884 83.729 92.0885 83.9379 92.0885 84.1964C92.0885 84.4548 91.884 84.6665 91.5983 84.6665C91.3154 84.6665 91.1109 84.4548 91.1109 84.1964C91.1109 83.9379 91.3154 83.729 91.5983 83.729ZM89.6439 83.7265C89.7559 83.7265 89.8624 83.754 89.8708 83.7568V83.9492C89.868 83.9492 89.77 83.9217 89.6887 83.9217C89.5935 83.9217 89.5431 83.952 89.5431 83.9959C89.5431 84.0509 89.6131 84.0702 89.6523 84.0812L89.7139 84.1032C89.868 84.1499 89.9352 84.2516 89.9352 84.3616C89.9352 84.5898 89.7335 84.6667 89.5543 84.6667C89.4282 84.6667 89.3134 84.642 89.2994 84.6393V84.4331C89.3218 84.4386 89.4198 84.4661 89.5206 84.4661C89.6383 84.4661 89.6915 84.4331 89.6915 84.3808C89.6915 84.3368 89.6439 84.3094 89.5851 84.2929C89.5739 84.2874 89.5515 84.2819 89.5375 84.2764C89.4058 84.2351 89.2966 84.1609 89.2966 84.0097C89.2966 83.842 89.4282 83.7265 89.6439 83.7265ZM90.6521 83.7279C90.7613 83.7279 90.8425 83.7526 90.8649 83.7609V84.0028C90.8565 84.0001 90.7809 83.9533 90.6689 83.9533C90.5176 83.9533 90.414 84.0578 90.414 84.198C90.414 84.3327 90.5148 84.4399 90.6689 84.4399C90.7781 84.4399 90.8565 84.396 90.8649 84.3905V84.6324C90.8369 84.6434 90.7557 84.6654 90.6521 84.6654C90.3915 84.6654 90.1618 84.4867 90.1618 84.198C90.1618 83.9258 90.3691 83.7279 90.6521 83.7279ZM88.2217 83.7279C88.331 83.7279 88.4122 83.7526 88.4318 83.7609V84.0028C88.4234 84.0001 88.3478 83.9533 88.2357 83.9533C88.0845 83.9533 87.9808 84.0578 87.9808 84.198C87.9808 84.3327 88.0817 84.4399 88.2357 84.4399C88.345 84.4399 88.4234 84.396 88.4318 84.3905V84.6324C88.4038 84.6434 88.3254 84.6654 88.2217 84.6654C87.9584 84.6654 87.7287 84.4867 87.7287 84.198C87.7287 83.9258 87.936 83.7279 88.2217 83.7279ZM88.9848 83.7422V84.6494H88.7523V83.7422H88.9848ZM91.5983 83.9572C91.461 83.9572 91.3574 84.0672 91.3574 84.1964C91.3574 84.3283 91.461 84.4355 91.5983 84.4355C91.7384 84.4355 91.8392 84.3283 91.8392 84.1964C91.8392 84.0672 91.7384 83.9572 91.5983 83.9572ZM88.6355 81.9167C88.6999 81.9167 88.7531 81.9662 88.7531 82.0295V83.2336C88.7531 83.2941 88.6999 83.3463 88.6355 83.3463C88.5738 83.3463 88.5206 83.2941 88.5206 83.2336V82.0295C88.5206 81.9662 88.5738 81.9167 88.6355 81.9167ZM91.1798 81.9167C91.2442 81.9167 91.2946 81.9662 91.2946 82.0295V83.2336C91.2946 83.2941 91.2442 83.3463 91.1798 83.3463C91.1154 83.3463 91.0621 83.2941 91.0621 83.2336V82.0295C91.0621 81.9662 91.1154 81.9167 91.1798 81.9167ZM87.9996 82.3437C88.064 82.3437 88.1173 82.3959 88.1173 82.4564V83.0062C88.1173 83.0695 88.064 83.1217 87.9996 83.1217C87.938 83.1217 87.8848 83.0695 87.8848 83.0062V82.4564C87.8848 82.3959 87.938 82.3437 87.9996 82.3437ZM89.273 82.3437C89.3346 82.3437 89.3879 82.3959 89.3879 82.4564V83.0062C89.3879 83.0695 89.3346 83.1217 89.273 83.1217C89.2086 83.1217 89.1554 83.0695 89.1554 83.0062V82.4564C89.1554 82.3959 89.2086 82.3437 89.273 82.3437ZM90.5408 82.3437C90.6053 82.3437 90.6585 82.3959 90.6585 82.4564V83.0062C90.6585 83.0695 90.6053 83.1217 90.5408 83.1217C90.4792 83.1217 90.426 83.0695 90.426 83.0062V82.4564C90.426 82.3959 90.4792 82.3437 90.5408 82.3437ZM91.8143 82.3437C91.8787 82.3437 91.9319 82.3959 91.9319 82.4564V83.0062C91.9319 83.0695 91.8787 83.1217 91.8143 83.1217C91.7498 83.1217 91.6994 83.0695 91.6994 83.0062V82.4564C91.6994 82.3959 91.7498 82.3437 91.8143 82.3437ZM87.3648 82.6566C87.4265 82.6566 87.4825 82.706 87.4825 82.7693V83.0057C87.4825 83.0689 87.4265 83.1212 87.3648 83.1212C87.3004 83.1212 87.25 83.0689 87.25 83.0057V82.7693C87.25 82.706 87.3004 82.6566 87.3648 82.6566ZM89.9061 82.6566C89.9705 82.6566 90.0237 82.706 90.0237 82.7693V83.0057C90.0237 83.0689 89.9705 83.1212 89.9061 83.1212C89.8445 83.1212 89.7912 83.0689 89.7912 83.0057V82.7693C89.7912 82.706 89.8445 82.6566 89.9061 82.6566ZM92.4518 82.6566C92.5134 82.6566 92.5667 82.706 92.5667 82.7693V83.0057C92.5667 83.0689 92.5134 83.1212 92.4518 83.1212C92.3874 83.1212 92.3342 83.0689 92.3342 83.0057V82.7693C92.3342 82.706 92.3874 82.6566 92.4518 82.6566Z" fill="white"/>
<path d="M90 73.2083C90.7594 73.2083 91.375 72.5926 91.375 71.8333C91.375 71.0739 90.7594 70.4583 90 70.4583C89.2406 70.4583 88.625 71.0739 88.625 71.8333C88.625 72.5926 89.2406 73.2083 90 73.2083Z" stroke="white" stroke-opacity="0.6" stroke-width="0.3"/>
<path d="M142.361 69.0833H37.6389C37.1942 69.0833 36.8333 68.7126 36.8333 68.2558V10.3275C36.8333 9.87074 37.1942 9.5 37.6389 9.5H142.361C142.806 9.5 143.167 9.87074 143.167 10.3275V68.2558C143.167 68.7126 142.806 69.0833 142.361 69.0833Z" fill="#222222"/>
<path d="M142.361 69.0833H37.6389C37.1942 69.0833 36.8333 68.7126 36.8333 68.2558V10.3275C36.8333 9.87074 37.1942 9.5 37.6389 9.5H142.361C142.806 9.5 143.167 9.87074 143.167 10.3275V68.2558C143.167 68.7126 142.806 69.0833 142.361 69.0833Z" fill="url(#paint6_linear)"/>
<defs>
<filter id="filter0_i" x="37.75" y="70.9167" width="14.3344" height="21.0833" filterUnits="userSpaceOnUse" color-interpolation-filters="sRGB">
<feFlood flood-opacity="0" result="BackgroundImageFix"/>
<feBlend mode="normal" in="SourceGraphic" in2="BackgroundImageFix" result="shape"/>
<feColorMatrix in="SourceAlpha" type="matrix" values="0 0 0 0 0 0 0 0 0 0 0 0 0 0 0 0 0 0 127 0" result="hardAlpha"/>
<feOffset/>
<feGaussianBlur stdDeviation="2"/>
<feComposite in2="hardAlpha" operator="arithmetic" k2="-1" k3="1"/>
<feColorMatrix type="matrix" values="0 0 0 0 0 0 0 0 0 0 0 0 0 0 0 0 0 0 0.08 0"/>
<feBlend mode="normal" in2="shape" result="effect1_innerShadow"/>
</filter>
<filter id="filter1_i" x="128.5" y="70.9167" width="14.3344" height="21.0833" filterUnits="userSpaceOnUse" color-interpolation-filters="sRGB">
<feFlood flood-opacity="0" result="BackgroundImageFix"/>
<feBlend mode="normal" in="SourceGraphic" in2="BackgroundImageFix" result="shape"/>
<feColorMatrix in="SourceAlpha" type="matrix" values="0 0 0 0 0 0 0 0 0 0 0 0 0 0 0 0 0 0 127 0" result="hardAlpha"/>
<feOffset/>
<feGaussianBlur stdDeviation="2"/>
<feComposite in2="hardAlpha" operator="arithmetic" k2="-1" k3="1"/>
<feColorMatrix type="matrix" values="0 0 0 0 0 0 0 0 0 0 0 0 0 0 0 0 0 0 0.08 0"/>
<feBlend mode="normal" in2="shape" result="effect1_innerShadow"/>
</filter>
<filter id="filter2_iiii" x="35" y="74.5833" width="110" height="16.5" filterUnits="userSpaceOnUse" color-interpolation-filters="sRGB">
<feFlood flood-opacity="0" result="BackgroundImageFix"/>
<feBlend mode="normal" in="SourceGraphic" in2="BackgroundImageFix" result="shape"/>
<feColorMatrix in="SourceAlpha" type="matrix" values="0 0 0 0 0 0 0 0 0 0 0 0 0 0 0 0 0 0 127 0" result="hardAlpha"/>
<feOffset/>
<feGaussianBlur stdDeviation="2"/>
<feComposite in2="hardAlpha" operator="arithmetic" k2="-1" k3="1"/>
<feColorMatrix type="matrix" values="0 0 0 0 0 0 0 0 0 0 0 0 0 0 0 0 0 0 0.08 0"/>
<feBlend mode="normal" in2="shape" result="effect1_innerShadow"/>
<feColorMatrix in="SourceAlpha" type="matrix" values="0 0 0 0 0 0 0 0 0 0 0 0 0 0 0 0 0 0 127 0" result="hardAlpha"/>
<feOffset/>
<feGaussianBlur stdDeviation="2"/>
<feComposite in2="hardAlpha" operator="arithmetic" k2="-1" k3="1"/>
<feColorMatrix type="matrix" values="0 0 0 0 0 0 0 0 0 0 0 0 0 0 0 0 0 0 0.04 0"/>
<feBlend mode="normal" in2="effect1_innerShadow" result="effect2_innerShadow"/>
<feColorMatrix in="SourceAlpha" type="matrix" values="0 0 0 0 0 0 0 0 0 0 0 0 0 0 0 0 0 0 127 0" result="hardAlpha"/>
<feOffset/>
<feGaussianBlur stdDeviation="2"/>
<feComposite in2="hardAlpha" operator="arithmetic" k2="-1" k3="1"/>
<feColorMatrix type="matrix" values="0 0 0 0 0 0 0 0 0 0 0 0 0 0 0 0 0 0 0.08 0"/>
<feBlend mode="normal" in2="effect2_innerShadow" result="effect3_innerShadow"/>
<feColorMatrix in="SourceAlpha" type="matrix" values="0 0 0 0 0 0 0 0 0 0 0 0 0 0 0 0 0 0 127 0" result="hardAlpha"/>
<feOffset/>
<feGaussianBlur stdDeviation="2"/>
<feComposite in2="hardAlpha" operator="arithmetic" k2="-1" k3="1"/>
<feColorMatrix type="matrix" values="0 0 0 0 0 0 0 0 0 0 0 0 0 0 0 0 0 0 0.04 0"/>
<feBlend mode="normal" in2="effect3_innerShadow" result="effect4_innerShadow"/>
</filter>
<filter id="filter3_i" x="35" y="4" width="110" height="70.5833" filterUnits="userSpaceOnUse" color-interpolation-filters="sRGB">
<feFlood flood-opacity="0" result="BackgroundImageFix"/>
<feBlend mode="normal" in="SourceGraphic" in2="BackgroundImageFix" result="shape"/>
<feColorMatrix in="SourceAlpha" type="matrix" values="0 0 0 0 0 0 0 0 0 0 0 0 0 0 0 0 0 0 127 0" result="hardAlpha"/>
<feOffset/>
<feGaussianBlur stdDeviation="2"/>
<feComposite in2="hardAlpha" operator="arithmetic" k2="-1" k3="1"/>
<feColorMatrix type="matrix" values="0 0 0 0 1 0 0 0 0 1 0 0 0 0 1 0 0 0 0.6 0"/>
<feBlend mode="normal" in2="shape" result="effect1_innerShadow"/>
</filter>
<linearGradient id="paint0_linear" x1="44.9172" y1="81.4584" x2="44.9172" y2="91.8401" gradientUnits="userSpaceOnUse">
<stop stop-color="#CACACA"/>
<stop offset="1" stop-color="#989898"/>
</linearGradient>
<linearGradient id="paint1_linear" x1="135.667" y1="81.4584" x2="135.667" y2="91.8401" gradientUnits="userSpaceOnUse">
<stop stop-color="#CACACA"/>
<stop offset="1" stop-color="#989898"/>
</linearGradient>
<linearGradient id="paint2_linear" x1="35" y1="83.8312" x2="145" y2="83.8312" gradientUnits="userSpaceOnUse">
<stop stop-color="#E4E4E4"/>
<stop offset="1" stop-color="#A8A8A8"/>
</linearGradient>
<linearGradient id="paint3_linear" x1="90" y1="87.87" x2="90" y2="91.0834" gradientUnits="userSpaceOnUse">
<stop stop-opacity="0"/>
<stop offset="1" stop-opacity="0.08"/>
</linearGradient>
<linearGradient id="paint4_linear" x1="90" y1="78.6976" x2="90" y2="90.8083" gradientUnits="userSpaceOnUse">
<stop stop-opacity="0"/>
<stop offset="1" stop-opacity="0.08"/>
</linearGradient>
<linearGradient id="paint5_linear" x1="90" y1="74.1904" x2="90" y2="90.8083" gradientUnits="userSpaceOnUse">
<stop stop-color="#E9E9E8"/>
<stop offset="1" stop-color="#E0E2E5"/>
</linearGradient>
<linearGradient id="paint6_linear" x1="36.8333" y1="29.9375" x2="125.736" y2="79.7535" gradientUnits="userSpaceOnUse">
<stop stop-color="white" stop-opacity="0.24"/>
<stop offset="1" stop-opacity="0.5"/>
</linearGradient>
</defs>
</svg>
