<?xml version="1.0" standalone="no"?>
<!DOCTYPE svg PUBLIC "-//W3C//DTD SVG 1.1//EN" "http://www.w3.org/Graphics/SVG/1.1/DTD/svg11.dtd" >
<svg xmlns="http://www.w3.org/2000/svg" id="desk-phone_32">
<path unicode="&#xe949;" transform="scale(1,-1)" id="desk-phone_32" data-tags="desk-phone_32" d="M112 832c-61.6 0-112-50.4-112-112v-544c0-61.6 50.4-112 112-112s112 50.4 112 112v544c0 61.6-50.4 112-112 112zM192 176c0-44.096-35.904-80-80-80s-80 35.904-80 80v544c0 44.128 35.904 80 80 80s80-35.872 80-80v-544zM384.219 832h543.562c53.14 0 96.219-42.937 96.219-95.715v-576.57c0-52.862-42.752-95.715-96.219-95.715h-543.562c-53.14 0-96.219 42.937-96.219 95.715v576.57c0 52.862 42.752 95.715 96.219 95.715zM320 159.715c0-35.101 28.748-63.715 64.219-63.715h543.562c35.702 0 64.219 28.434 64.219 63.715v576.57c0 35.101-28.748 63.715-64.219 63.715h-543.562c-35.702 0-64.219-28.434-64.219-63.715v-576.57zM320 544h672v-32h-672v32zM560 416c-8.832 0-16-7.168-16-16s7.168-16 16-16c8.832 0 16 7.168 16 16s-7.168 16-16 16zM656 416c-8.832 0-16-7.168-16-16s7.168-16 16-16c8.832 0 16 7.168 16 16s-7.168 16-16 16zM752 416c-8.832 0-16-7.168-16-16s7.168-16 16-16c8.832 0 16 7.168 16 16s-7.168 16-16 16zM560 320c-8.832 0-16-7.168-16-16s7.168-16 16-16c8.832 0 16 7.168 16 16s-7.168 16-16 16zM656 320c-8.832 0-16-7.168-16-16s7.168-16 16-16c8.832 0 16 7.168 16 16s-7.168 16-16 16zM752 320c-8.832 0-16-7.168-16-16s7.168-16 16-16c8.832 0 16 7.168 16 16s-7.168 16-16 16zM560 224c-8.832 0-16-7.168-16-16s7.168-16 16-16c8.832 0 16 7.168 16 16s-7.168 16-16 16zM656 224c-8.832 0-16-7.168-16-16s7.168-16 16-16c8.832 0 16 7.168 16 16s-7.168 16-16 16zM752 224c-8.832 0-16-7.168-16-16s7.168-16 16-16c8.832 0 16 7.168 16 16s-7.168 16-16 16z" />
</svg>
