<?xml version="1.0" encoding="UTF-8"?>
<svg width="108px" height="96px" viewBox="0 0 108 96" version="1.1" xmlns="http://www.w3.org/2000/svg" xmlns:xlink="http://www.w3.org/1999/xlink">
    <!-- Generator: Sketch 43.2 (39069) - http://www.bohemiancoding.com/sketch -->
    <title>desktop_share_screen@3x</title>
    <desc>Created with Sketch.</desc>
    <defs></defs>
    <g id="desktop_share_screen_3" stroke="none" stroke-width="1" fill="none" fill-rule="evenodd">
        <g id="desktop_share_screen_3" transform="translate(-735.000000, -411.000000)">
            <g id="desktop_share_screen_3" transform="translate(713.000000, 411.000000)">
                <rect id="Bounds" x="0" y="0" width="144" height="96"></rect>
                <g id="img" transform="translate(22.400000, 0.000000)" fill="#444444">
                    <path d="M53.6,0.8 C54.4824,0.8 55.2,1.5176 55.2,2.4 C55.2,3.2824 54.4824,4 53.6,4 C52.7176,4 52,3.2824 52,2.4 C52,1.5176 52.7176,0.8 53.6,0.8 M53.6,4.8 C54.9252,4.8 56,3.7252 56,2.4 C56,1.0748 54.9252,0 53.6,0 C52.2748,0 51.2,1.0748 51.2,2.4 C51.2,3.7252 52.2748,4.8 53.6,4.8" id="Fill-11" fill-opacity="0.48"></path>
                    <path d="M4.8,7.2 C2.1532,7.2 0,9.3532 0,12 L0,68 L0,68.8 L0,74.4 C0,77.0468 2.1532,79.2 4.8,79.2 L21.2511719,79.2 L21.2511719,78.4 L4.8,78.4 C2.5944,78.4 0.8,76.6056 0.8,74.4 L0.8,68.8 L21.2511719,68.8 L21.2511719,68 L0.8,68 L0.8,12 C0.8,9.7944 2.5944,8 4.8,8 L102.4,8 C104.6056,8 106.4,9.7944 106.4,12 L106.4,68 L86.0140625,68 L86.0140625,68.8 L106.4,68.8 L106.4,74.4 C106.4,76.6056 104.6056,78.4 102.4,78.4 L86.0140625,78.4 L86.0140625,79.2 L102.4,79.2 C105.0468,79.2 107.2,77.0468 107.2,74.4 L107.2,68.8 L107.2,68 L107.2,12 C107.2,9.3532 105.0468,7.2 102.4,7.2 L4.8,7.2 Z" id="Fill-13" fill-opacity="0.48"></path>
                    <path d="M87.99984,95.2 L19.19984,95.2 C17.34984,95.2 15.82144,93.7976 15.62184,92 L51.23584,92 C51.42744,93.1332 52.41304,94 53.59984,94 C54.78664,94 55.77264,93.1332 55.96384,92 L91.57744,92 C91.37784,93.7976 89.84984,95.2 87.99984,95.2 L87.99984,95.2 Z M55.14304,92 C54.96424,92.6884 54.34304,93.2 53.59984,93.2 C52.85664,93.2 52.23544,92.6884 52.05664,92 L55.14304,92 Z M21.59984,54 C21.59984,51.574 23.57384,49.6 25.99984,49.6 L81.19984,49.6 C83.62584,49.6 85.59984,51.574 85.59984,54 L85.59984,91.2 L21.59984,91.2 L21.59984,54 Z M91.99984,91.2 L86.39984,91.2 L86.39984,54 C86.39984,51.1328 84.06704,48.8 81.19984,48.8 L25.99984,48.8 C23.13264,48.8 20.79984,51.1328 20.79984,54 L20.79984,91.2 L15.19984,91.2 C14.97904,91.2 14.79984,91.3788 14.79984,91.6 C14.79984,94.026 16.77384,96 19.19984,96 L87.99984,96 C90.42584,96 92.39984,94.026 92.39984,91.6 C92.39984,91.3788 92.22104,91.2 91.99984,91.2 L91.99984,91.2 Z" id="Fill-9"></path>
                    <path d="M61.2,71.6 C61.2,72.2616 60.6616,72.8 60,72.8 L51.2,72.8 C50.5384,72.8 50,72.2616 50,71.6 L50,65.6 C50,64.9384 50.5384,64.4 51.2,64.4 L60,64.4 C60.6616,64.4 61.2,64.9384 61.2,65.6 L61.2,71.6 Z M57.2,75.2 C57.2,75.8616 56.6616,76.4 56,76.4 L47.2,76.4 C46.5384,76.4 46,75.8616 46,75.2 L46,69.2 C46,68.5384 46.5384,68 47.2,68 L49.2,68 L49.2,71.6 C49.2,72.7048 50.0956,73.6 51.2,73.6 L57.2,73.6 L57.2,75.2 Z M60,63.6 L51.2,63.6 C50.0956,63.6 49.2,64.4956 49.2,65.6 L49.2,67.2 L47.2,67.2 C46.0956,67.2 45.2,68.0956 45.2,69.2 L45.2,75.2 C45.2,76.3048 46.0956,77.2 47.2,77.2 L56,77.2 C57.1048,77.2 58,76.3048 58,75.2 L58,73.6 L60,73.6 C61.1048,73.6 62,72.7048 62,71.6 L62,65.6 C62,64.4956 61.1048,63.6 60,63.6 L60,63.6 Z" id="Page-1"></path>
                </g>
            </g>
        </g>
    </g>
</svg>