<?xml version="1.0" standalone="no"?>
<!DOCTYPE svg PUBLIC "-//W3C//DTD SVG 1.1//EN" "http://www.w3.org/Graphics/SVG/1.1/DTD/svg11.dtd" >
<svg xmlns="http://www.w3.org/2000/svg" id="desk-phone_16">
<path unicode="&#xe948;" transform="scale(1,-1)" id="desk-phone_16" data-tags="desk-phone_16" d="M128 831.872c-70.72 0-128-57.28-128-128v-512c0-70.72 57.28-128 128-128s128 57.28 128 128v512c0 70.72-57.28 128-128 128zM192 191.872c0-35.264-28.736-64-64-64s-64 28.736-64 64v512c0 35.264 28.736 64 64 64s64-28.736 64-64v-512zM447.489 832h449.022c70.41 0 127.489-57.725 127.489-128.546v-510.908c0-70.994-57.611-128.546-127.489-128.546h-449.022c-70.41 0-127.489 57.725-127.489 128.546v510.908c0 70.994 57.611 128.546 127.489 128.546zM384 192.546c0-35.665 28.616-64.546 63.489-64.546h449.022c34.638 0 63.489 29.006 63.489 64.546v510.908c0 35.665-28.616 64.546-63.489 64.546h-449.022c-34.638 0-63.489-29.006-63.489-64.546v-510.908zM544 319.872c17.664 0 32 14.336 32 32s-14.336 32-32 32c-17.664 0-32-14.336-32-32s14.336-32 32-32zM672 319.872c17.664 0 32 14.336 32 32s-14.336 32-32 32c-17.664 0-32-14.336-32-32s14.336-32 32-32zM800 319.872c17.664 0 32 14.336 32 32s-14.336 32-32 32c-17.664 0-32-14.336-32-32s14.336-32 32-32zM544 191.872c17.664 0 32 14.336 32 32s-14.336 32-32 32c-17.664 0-32-14.336-32-32s14.336-32 32-32zM672 191.872c17.664 0 32 14.336 32 32s-14.336 32-32 32c-17.664 0-32-14.336-32-32s14.336-32 32-32zM800 191.872c17.664 0 32 14.336 32 32s-14.336 32-32 32c-17.664 0-32-14.336-32-32s14.336-32 32-32zM384 512h576v-64h-576v64z" />
</svg>
