<?xml version="1.0" encoding="UTF-8"?>
<svg width="24px" height="24px" viewBox="0 0 24 24" version="1.1" xmlns="http://www.w3.org/2000/svg" xmlns:xlink="http://www.w3.org/1999/xlink">
    <!-- Generator: Sketch 56.3 (81716) - https://sketch.com -->
    <title>device-connection-active</title>
    <desc>Created with Sketch.</desc>
    <g id="device-connection-active" stroke="none" stroke-width="1" fill-rule="evenodd">
        <g id="device-connection-active" transform="translate(0.000000, 3.000000)">
            <path d="M12.5,16 C12.224,16 12,15.776 12,15.5 C12,10.262 7.738,6 2.5,6 C2.224,6 2,5.776 2,5.5 C2,5.224 2.224,5 2.5,5 C8.29,5 13,9.71 13,15.5 C13,15.776 12.776,16 12.5,16 M7.5,16 C7.224,16 7,15.776 7,15.5 C7,13.019 4.981,11 2.5,11 C2.224,11 2,10.776 2,10.5 C2,10.224 2.224,10 2.5,10 C5.533,10 8,12.468 8,15.5 C8,15.776 7.776,16 7.5,16 M2.5,16 C2.224,16 2,15.776 2,15.5 C2,15.224 2.224,15 2.5,15 C2.776,15 3,15.224 3,15.5 C3,15.776 2.776,16 2.5,16 M21.5,0 L2.5,0 C1.125,0 0,1.12 0,2.503 L0,15.497 C0,16.874 1.119,18 2.5,18 L21.5,18 C22.875,18 24,16.88 24,15.497 L24,2.503 C24,1.126 22.881,0 21.5,0" id="fill"></path>
        </g>
    </g>
</svg>