<svg width="160" height="72" viewBox="0 0 160 72" fill="none" xmlns="http://www.w3.org/2000/svg">
<path opacity="0.7" fill-rule="evenodd" clip-rule="evenodd" d="M32.5 0H118.5C120.981 0 123 2.019 123 4.5V40H122V4.5C122 2.57 120.43 1 118.5 1H32.5C30.57 1 29 2.57 29 4.5V57.498C29 59.428 30.57 60.998 32.5 60.998H50.5C50.775 60.998 51 61.223 51 61.498C51 61.772 50.775 61.998 50.5 61.998C50.225 61.998 32.5 61.998 32.5 61.998C30.019 61.998 28 59.979 28 57.498V4.5C28 2.019 30.019 0 32.5 0Z" fill="#00A0D1"/>
<path opacity="0.7" fill-rule="evenodd" clip-rule="evenodd" d="M73 5.5C73 5.22386 73.2239 5 73.5 5H78.5C78.7761 5 79 5.22386 79 5.5C79 5.77614 78.7761 6 78.5 6H73.5C73.2239 6 73 5.77614 73 5.5Z" fill="#00A0D1"/>
<rect opacity="0.1" x="31" y="11" width="89" height="42" rx="2" fill="#07C1F5"/>
<rect opacity="0.3" x="48" y="22" width="21" height="13" rx="2" fill="#07C1F5"/>
<rect opacity="0.65" x="48" y="37" width="5" height="2" rx="1" fill="#07C1F5"/>
<rect opacity="0.65" x="56" y="37" width="5" height="2" rx="1" fill="#07C1F5"/>
<rect opacity="0.65" x="64" y="37" width="5" height="2" rx="1" fill="#07C1F5"/>
<rect opacity="0.3" x="81" y="22" width="21" height="13" rx="2" fill="#07C1F5"/>
<rect x="56" y="45" width="25" height="18" rx="4" fill="#00A0D1"/>
<rect x="87" y="45" width="25" height="18" rx="4" fill="#00A0D1"/>
<rect x="118" y="45" width="25" height="18" rx="4" fill="#00A0D1"/>
<path fill-rule="evenodd" clip-rule="evenodd" d="M70.8586 55.0607L69.128 54L70.8586 52.9393C70.9936 52.8567 71.0401 52.6713 70.9622 52.5273L70.9321 52.4727C70.8542 52.3287 70.6797 52.2793 70.5446 52.362L68.814 53.4227V51.3013C68.814 51.1353 68.6865 51 68.5301 51H68.4699C68.3135 51 68.186 51.1353 68.186 51.3013V53.4227L66.4554 52.362C66.3203 52.2793 66.1458 52.3287 66.0679 52.4727L66.0378 52.5273C65.9599 52.6713 66.0064 52.8567 66.1414 52.9393L67.872 54L66.1414 55.0607C66.0064 55.1433 65.9599 55.3287 66.0378 55.4727L66.0679 55.5273C66.1458 55.6713 66.3203 55.7207 66.4554 55.638L68.186 54.5773V56.6987C68.186 56.8647 68.3135 57 68.4699 57H68.5301C68.6865 57 68.814 56.8647 68.814 56.6987V54.5773L70.5446 55.638C70.6797 55.7207 70.8542 55.6713 70.9321 55.5273L70.9622 55.4727C71.0401 55.3287 70.9936 55.1433 70.8586 55.0607" fill="#BCEDFC"/>
<path fill-rule="evenodd" clip-rule="evenodd" d="M76.8586 55.0607L75.128 54L76.8586 52.9393C76.9936 52.8567 77.0401 52.6713 76.9622 52.5273L76.9321 52.4727C76.8542 52.3287 76.6797 52.2793 76.5446 52.362L74.814 53.4227V51.3013C74.814 51.1353 74.6865 51 74.5301 51H74.4699C74.3135 51 74.186 51.1353 74.186 51.3013V53.4227L72.4554 52.362C72.3203 52.2793 72.1458 52.3287 72.0679 52.4727L72.0378 52.5273C71.9599 52.6713 72.0064 52.8567 72.1414 52.9393L73.872 54L72.1414 55.0607C72.0064 55.1433 71.9599 55.3287 72.0378 55.4727L72.0679 55.5273C72.1458 55.6713 72.3203 55.7207 72.4554 55.638L74.186 54.5773V56.6987C74.186 56.8647 74.3135 57 74.4699 57H74.5301C74.6865 57 74.814 56.8647 74.814 56.6987V54.5773L76.5446 55.638C76.6797 55.7207 76.8542 55.6713 76.9321 55.5273L76.9622 55.4727C77.0401 55.3287 76.9936 55.1433 76.8586 55.0607" fill="#BCEDFC"/>
<path fill-rule="evenodd" clip-rule="evenodd" d="M64.8586 55.0607L63.128 54L64.8586 52.9393C64.9936 52.8567 65.0401 52.6713 64.9622 52.5273L64.9321 52.4727C64.8542 52.3287 64.6797 52.2793 64.5446 52.362L62.814 53.4227V51.3013C62.814 51.1353 62.6865 51 62.5301 51H62.4699C62.3135 51 62.186 51.1353 62.186 51.3013V53.4227L60.4554 52.362C60.3203 52.2793 60.1458 52.3287 60.0679 52.4727L60.0378 52.5273C59.9599 52.6713 60.0064 52.8567 60.1414 52.9393L61.872 54L60.1414 55.0607C60.0064 55.1433 59.9599 55.3287 60.0378 55.4727L60.0679 55.5273C60.1458 55.6713 60.3203 55.7207 60.4554 55.638L62.186 54.5773V56.6987C62.186 56.8647 62.3135 57 62.4699 57H62.5301C62.6865 57 62.814 56.8647 62.814 56.6987V54.5773L64.5446 55.638C64.6797 55.7207 64.8542 55.6713 64.9321 55.5273L64.9622 55.4727C65.0401 55.3287 64.9936 55.1433 64.8586 55.0607" fill="#BCEDFC"/>
<path fill-rule="evenodd" clip-rule="evenodd" d="M101.859 55.0607L100.128 54L101.859 52.9393C101.994 52.8567 102.04 52.6713 101.962 52.5273L101.932 52.4727C101.854 52.3287 101.68 52.2793 101.545 52.362L99.814 53.4227V51.3013C99.814 51.1353 99.6865 51 99.5301 51H99.4699C99.3135 51 99.186 51.1353 99.186 51.3013V53.4227L97.4554 52.362C97.3203 52.2793 97.1458 52.3287 97.0679 52.4727L97.0378 52.5273C96.9599 52.6713 97.0064 52.8567 97.1414 52.9393L98.872 54L97.1414 55.0607C97.0064 55.1433 96.9599 55.3287 97.0378 55.4727L97.0679 55.5273C97.1458 55.6713 97.3203 55.7207 97.4554 55.638L99.186 54.5773V56.6987C99.186 56.8647 99.3135 57 99.4699 57H99.5301C99.6865 57 99.814 56.8647 99.814 56.6987V54.5773L101.545 55.638C101.68 55.7207 101.854 55.6713 101.932 55.5273L101.962 55.4727C102.04 55.3287 101.994 55.1433 101.859 55.0607" fill="#BCEDFC"/>
<path fill-rule="evenodd" clip-rule="evenodd" d="M107.859 55.0607L106.128 54L107.859 52.9393C107.994 52.8567 108.04 52.6713 107.962 52.5273L107.932 52.4727C107.854 52.3287 107.68 52.2793 107.545 52.362L105.814 53.4227V51.3013C105.814 51.1353 105.687 51 105.53 51H105.47C105.313 51 105.186 51.1353 105.186 51.3013V53.4227L103.455 52.362C103.32 52.2793 103.146 52.3287 103.068 52.4727L103.038 52.5273C102.96 52.6713 103.006 52.8567 103.141 52.9393L104.872 54L103.141 55.0607C103.006 55.1433 102.96 55.3287 103.038 55.4727L103.068 55.5273C103.146 55.6713 103.32 55.7207 103.455 55.638L105.186 54.5773V56.6987C105.186 56.8647 105.313 57 105.47 57H105.53C105.687 57 105.814 56.8647 105.814 56.6987V54.5773L107.545 55.638C107.68 55.7207 107.854 55.6713 107.932 55.5273L107.962 55.4727C108.04 55.3287 107.994 55.1433 107.859 55.0607" fill="#BCEDFC"/>
<path fill-rule="evenodd" clip-rule="evenodd" d="M95.8586 55.0607L94.128 54L95.8586 52.9393C95.9936 52.8567 96.0401 52.6713 95.9622 52.5273L95.9321 52.4727C95.8542 52.3287 95.6797 52.2793 95.5446 52.362L93.814 53.4227V51.3013C93.814 51.1353 93.6865 51 93.5301 51H93.4699C93.3135 51 93.186 51.1353 93.186 51.3013V53.4227L91.4554 52.362C91.3203 52.2793 91.1458 52.3287 91.0679 52.4727L91.0378 52.5273C90.9599 52.6713 91.0064 52.8567 91.1414 52.9393L92.872 54L91.1414 55.0607C91.0064 55.1433 90.9599 55.3287 91.0378 55.4727L91.0679 55.5273C91.1458 55.6713 91.3203 55.7207 91.4554 55.638L93.186 54.5773V56.6987C93.186 56.8647 93.3135 57 93.4699 57H93.5301C93.6865 57 93.814 56.8647 93.814 56.6987V54.5773L95.5446 55.638C95.6797 55.7207 95.8542 55.6713 95.9321 55.5273L95.9622 55.4727C96.0401 55.3287 95.9936 55.1433 95.8586 55.0607" fill="#BCEDFC"/>
<path fill-rule="evenodd" clip-rule="evenodd" d="M132.859 55.0607L131.128 54L132.859 52.9393C132.994 52.8567 133.04 52.6713 132.962 52.5273L132.932 52.4727C132.854 52.3287 132.68 52.2793 132.545 52.362L130.814 53.4227V51.3013C130.814 51.1353 130.687 51 130.53 51H130.47C130.313 51 130.186 51.1353 130.186 51.3013V53.4227L128.455 52.362C128.32 52.2793 128.146 52.3287 128.068 52.4727L128.038 52.5273C127.96 52.6713 128.006 52.8567 128.141 52.9393L129.872 54L128.141 55.0607C128.006 55.1433 127.96 55.3287 128.038 55.4727L128.068 55.5273C128.146 55.6713 128.32 55.7207 128.455 55.638L130.186 54.5773V56.6987C130.186 56.8647 130.313 57 130.47 57H130.53C130.687 57 130.814 56.8647 130.814 56.6987V54.5773L132.545 55.638C132.68 55.7207 132.854 55.6713 132.932 55.5273L132.962 55.4727C133.04 55.3287 132.994 55.1433 132.859 55.0607" fill="#BCEDFC"/>
<path fill-rule="evenodd" clip-rule="evenodd" d="M138.859 55.0607L137.128 54L138.859 52.9393C138.994 52.8567 139.04 52.6713 138.962 52.5273L138.932 52.4727C138.854 52.3287 138.68 52.2793 138.545 52.362L136.814 53.4227V51.3013C136.814 51.1353 136.687 51 136.53 51H136.47C136.313 51 136.186 51.1353 136.186 51.3013V53.4227L134.455 52.362C134.32 52.2793 134.146 52.3287 134.068 52.4727L134.038 52.5273C133.96 52.6713 134.006 52.8567 134.141 52.9393L135.872 54L134.141 55.0607C134.006 55.1433 133.96 55.3287 134.038 55.4727L134.068 55.5273C134.146 55.6713 134.32 55.7207 134.455 55.638L136.186 54.5773V56.6987C136.186 56.8647 136.313 57 136.47 57H136.53C136.687 57 136.814 56.8647 136.814 56.6987V54.5773L138.545 55.638C138.68 55.7207 138.854 55.6713 138.932 55.5273L138.962 55.4727C139.04 55.3287 138.994 55.1433 138.859 55.0607" fill="#BCEDFC"/>
<path fill-rule="evenodd" clip-rule="evenodd" d="M126.859 55.0607L125.128 54L126.859 52.9393C126.994 52.8567 127.04 52.6713 126.962 52.5273L126.932 52.4727C126.854 52.3287 126.68 52.2793 126.545 52.362L124.814 53.4227V51.3013C124.814 51.1353 124.687 51 124.53 51H124.47C124.313 51 124.186 51.1353 124.186 51.3013V53.4227L122.455 52.362C122.32 52.2793 122.146 52.3287 122.068 52.4727L122.038 52.5273C121.96 52.6713 122.006 52.8567 122.141 52.9393L123.872 54L122.141 55.0607C122.006 55.1433 121.96 55.3287 122.038 55.4727L122.068 55.5273C122.146 55.6713 122.32 55.7207 122.455 55.638L124.186 54.5773V56.6987C124.186 56.8647 124.313 57 124.47 57H124.53C124.687 57 124.814 56.8647 124.814 56.6987V54.5773L126.545 55.638C126.68 55.7207 126.854 55.6713 126.932 55.5273L126.962 55.4727C127.04 55.3287 126.994 55.1433 126.859 55.0607" fill="#BCEDFC"/>
<rect x="82" y="54" width="4" height="1" rx="0.5" fill="#00A0D1"/>
<rect x="113" y="54" width="4" height="1" rx="0.5" fill="#00A0D1"/>
</svg>
