<svg width="160" height="72" viewBox="0 0 160 72" fill="none" xmlns="http://www.w3.org/2000/svg">
<path opacity="0.7" fill-rule="evenodd" clip-rule="evenodd" d="M32.5 0H118.5C120.981 0 123 2.019 123 4.5V17H122V4.5C122 2.57 120.43 1 118.5 1H32.5C30.57 1 29 2.57 29 4.5V57.498C29 59.428 30.57 60.998 32.5 60.998H98.5C98.775 60.998 99 61.223 99 61.498C99 61.772 98.775 61.998 98.5 61.998C98.225 61.998 32.5 61.998 32.5 61.998C30.019 61.998 28 59.979 28 57.498V4.5C28 2.019 30.019 0 32.5 0Z" fill="#00A0D1"/>
<path fill-rule="evenodd" clip-rule="evenodd" d="M73 5.5C73 5.22386 73.2239 5 73.5 5H78.5C78.7761 5 79 5.22386 79 5.5C79 5.77614 78.7761 6 78.5 6H73.5C73.2239 6 73 5.77614 73 5.5Z" fill="#4CBDDF"/>
<rect opacity="0.1" x="31" y="11" width="89" height="42" rx="2" fill="#07C1F5"/>
<g opacity="0.3">
<circle cx="49" cy="25" r="4" fill="#07C1F5"/>
<circle cx="49" cy="40" r="4" fill="#07C1F5"/>
<circle cx="65" cy="25" r="4" fill="#07C1F5"/>
<circle cx="81" cy="25" r="4" fill="#07C1F5"/>
<circle cx="65" cy="40" r="4" fill="#07C1F5"/>
</g>
<circle cx="107" cy="32" r="16" fill="#00A0D1"/>
<path fill-rule="evenodd" clip-rule="evenodd" d="M104.5 26C103.671 26 103 26.671 103 27.5V29H101.5C100.671 29 100 29.671 100 30.5V36.5C100 37.328 100.671 38 101.5 38H109.5C110.328 38 111 37.328 111 36.5V35H112.5C113.328 35 114 34.328 114 33.5V27.5C114 26.671 113.328 26 112.5 26H104.5ZM110 36.5C110 36.775 109.775 37 109.5 37H101.5C101.224 37 101 36.775 101 36.5V30.5C101 30.224 101.224 30 101.5 30H103V33.5C103 34.328 103.671 35 104.5 35H110V36.5ZM113 33.5C113 33.775 112.775 34 112.5 34H111H110H104.5C104.224 34 104 33.775 104 33.5V30V29V27.5C104 27.224 104.224 27 104.5 27H112.5C112.775 27 113 27.224 113 27.5V33.5Z" fill="#BCEDFC"/>
<g opacity="0.7">
<path d="M111.8 53.6023L111.8 39.9993C111.8 38.956 112.65 38.1104 113.699 38.1104C114.749 38.1104 115.599 38.956 115.599 39.9993L115.6 53.6023" stroke="#00A0D1" stroke-width="1.125"/>
<path d="M115.6 53.6024V50.4895C115.6 49.4462 116.451 48.6006 117.5 48.6006C118.55 48.6006 119.4 49.4462 119.4 50.4895V53.6024" stroke="#00A0D1" stroke-width="1.125"/>
<path d="M108 57.035V53.9221C108 52.8789 108.851 52.0332 109.9 52.0332C110.949 52.0332 111.8 52.8789 111.8 53.9221V59.2544" stroke="#00A0D1" stroke-width="1.125"/>
<path d="M119.4 53.6024V50.4895C119.4 49.4462 120.251 48.6006 121.3 48.6006C122.349 48.6006 123.2 49.4462 123.2 50.4895V53.6024" stroke="#00A0D1" stroke-width="1.125"/>
<path d="M123.2 53.6024V50.4895C123.2 49.4462 124.051 48.6006 125.1 48.6006C126.15 48.6006 127 49.4462 127 50.4895V53.6024" stroke="#00A0D1" stroke-width="1.125"/>
<path d="M127 53.6025V61.5561C127 66.7716 122.747 70.9998 117.5 70.9998C112.253 70.9998 108 66.7716 108 61.5561V57.0357" stroke="#00A0D1" stroke-width="1.125"/>
</g>
<path d="M111.85 47.2639V44V40.8732C111.85 39.8386 112.692 39 113.73 39C114.769 39 115.611 39.8386 115.611 40.8732V45.5" stroke="#BCEDFC" stroke-width="1.125"/>
<g opacity="0.7">
<path d="M127.087 36.29L130.206 36.9507" stroke="#00A0D1" stroke-width="1.125" stroke-linecap="round"/>
<path d="M127.14 32.1248L129.742 30.4561" stroke="#00A0D1" stroke-width="1.125" stroke-linecap="round"/>
<path d="M125.812 40.181L127.513 42.7613" stroke="#00A0D1" stroke-width="1.125" stroke-linecap="round"/>
</g>
</svg>
