<?xml version="1.0" standalone="no"?>
<!DOCTYPE svg PUBLIC "-//W3C//DTD SVG 1.1//EN" "http://www.w3.org/Graphics/SVG/1.1/DTD/svg11.dtd" >
<svg xmlns="http://www.w3.org/2000/svg" id="dialpad_neo_16">
<path unicode="&#xe954;" transform="scale(1,-1)" id="dialpad_neo_16" data-tags="dialpad_neo_16" d="M256 896c-35.328 0-64-28.672-64-64s28.672-64 64-64c35.328 0 64 28.672 64 64s-28.672 64-64 64zM512 896c-35.328 0-64-28.672-64-64s28.672-64 64-64c35.328 0 64 28.672 64 64s-28.672 64-64 64zM768 768c35.328 0 64 28.672 64 64s-28.672 64-64 64c-35.328 0-64-28.672-64-64s28.672-64 64-64zM256 640c-35.328 0-64-28.672-64-64s28.672-64 64-64c35.328 0 64 28.672 64 64s-28.672 64-64 64zM512 640c-35.328 0-64-28.672-64-64s28.672-64 64-64c35.328 0 64 28.672 64 64s-28.672 64-64 64zM768 640c-35.328 0-64-28.672-64-64s28.672-64 64-64c35.328 0 64 28.672 64 64s-28.672 64-64 64zM256 384c-35.328 0-64-28.672-64-64s28.672-64 64-64c35.328 0 64 28.672 64 64s-28.672 64-64 64zM512 384c-35.328 0-64-28.672-64-64s28.672-64 64-64c35.328 0 64 28.672 64 64s-28.672 64-64 64zM512 128c-35.328 0-64-28.672-64-64s28.672-64 64-64c35.328 0 64 28.672 64 64s-28.672 64-64 64zM768 384c-35.328 0-64-28.672-64-64s28.672-64 64-64c35.328 0 64 28.672 64 64s-28.672 64-64 64z" />
</svg>
