<svg width="16" height="16" viewBox="0 0 16 16" xmlns="http://www.w3.org/2000/svg">
<path d="M3.5 3C3.628 3 3.756 3.048 3.854 3.146L7 6.293V3.5C7 3.225 7.225 3 7.5 3C7.775 3 8 3.225 8 3.5V7.5C8 7.565 7.986 7.631 7.961 7.691C7.944 7.732 7.916 7.766 7.889 7.8C7.876 7.816 7.869 7.838 7.854 7.854C7.838 7.869 7.817 7.876 7.8 7.889C7.766 7.916 7.732 7.944 7.691 7.961C7.63 7.986 7.565 8 7.5 8H3.5C3.225 8 3 7.775 3 7.5C3 7.225 3.225 7 3.5 7H6.293L3.147 3.853C2.951 3.658 2.951 3.341 3.147 3.146C3.244 3.048 3.372 3 3.5 3ZM2 0H12C13.104 0 14 0.896 14 2V6.5C14 6.775 13.775 7 13.5 7C13.225 7 13 6.775 13 6.5V2C13 1.449 12.552 1 12 1H2C1.448 1 1 1.449 1 2V12C1 12.551 1.448 13 2 13H6.5C6.775 13 7 13.225 7 13.5C7 13.775 6.775 14 6.5 14H2C0.896 14 0 13.104 0 12V2C0 0.896 0.896 0 2 0ZM10.5 9H14.5C15.329 9 16 9.672 16 10.5V14.5C16 15.328 15.329 16 14.5 16H10.5C9.671 16 9 15.328 9 14.5V10.5C9 9.672 9.671 9 10.5 9ZM10.5 10C10.224 10 10 10.225 10 10.5V14.5C10 14.775 10.224 15 10.5 15H14.5C14.776 15 15 14.775 15 14.5V10.5C15 10.225 14.776 10 14.5 10H10.5Z"/>
</svg>
