<svg width="16" height="16" viewBox="0 0 16 16" xmlns="http://www.w3.org/2000/svg">
<path d="M3.5 3H7.5C7.775 3 8 3.225 8 3.5C8 3.776 7.775 4 7.5 4H4.707L7.853 7.147C8.049 7.343 8.049 7.659 7.853 7.854C7.756 7.952 7.628 8 7.5 8C7.372 8 7.244 7.952 7.146 7.854L4 4.707V7.5C4 7.776 3.775 8 3.5 8C3.225 8 3 7.776 3 7.5V3.5C3 3.435 3.014 3.37 3.039 3.309C3.056 3.268 3.084 3.235 3.111 3.201C3.124 3.184 3.131 3.163 3.146 3.147C3.162 3.131 3.183 3.124 3.2 3.112C3.234 3.084 3.268 3.056 3.309 3.039C3.37 3.014 3.435 3 3.5 3ZM2 0H12C13.104 0 14 0.896 14 2V6.5C14 6.775 13.775 7 13.5 7C13.225 7 13 6.775 13 6.5V2C13 1.449 12.552 1 12 1H2C1.448 1 1 1.449 1 2V12C1 12.551 1.448 13 2 13H6.5C6.775 13 7 13.225 7 13.5C7 13.775 6.775 14 6.5 14H2C0.896 14 0 13.104 0 12V2C0 0.896 0.896 0 2 0ZM10.5 9H14.5C15.329 9 16 9.672 16 10.5V14.5C16 15.328 15.329 16 14.5 16H10.5C9.671 16 9 15.328 9 14.5V10.5C9 9.672 9.671 9 10.5 9ZM10.5 10C10.224 10 10 10.225 10 10.5V14.5C10 14.775 10.224 15 10.5 15H14.5C14.776 15 15 14.775 15 14.5V10.5C15 10.225 14.776 10 14.5 10H10.5Z"/>
</svg>
