<?xml version="1.0" standalone="no"?>
<!DOCTYPE svg PUBLIC "-//W3C//DTD SVG 1.1//EN" "http://www.w3.org/Graphics/SVG/1.1/DTD/svg11.dtd" >
<svg xmlns="http://www.w3.org/2000/svg" id="document-file_32">
<path unicode="&#xea48;" transform="scale(1,-1)" id="document-file_32" data-tags="document-file_32" d="M864 32c0-35.296-28.704-64-64-64h-576c-35.296 0-64 28.704-64 64v832c0 35.296 28.704 64 64 64h379.232l260.768-260.768v-635.232zM886.624 689.888l-260.736 260.736c-6.016 6.016-14.144 9.376-22.656 9.376h-379.232c-53.024 0-96-42.976-96-96v-832c0-53.024 42.976-96 96-96h576c53.024 0 96 42.976 96 96v635.232c0 8.512-3.36 16.64-9.376 22.656zM496 128h-192c-8.832 0-16-7.168-16-16s7.168-16 16-16h192c8.832 0 16 7.168 16 16s-7.168 16-16 16zM720 320h-416c-8.832 0-16-7.168-16-16s7.168-16 16-16h416c8.832 0 16 7.168 16 16s-7.168 16-16 16zM288 496c0-8.832 7.168-16 16-16h416c8.832 0 16 7.168 16 16s-7.168 16-16 16h-416c-8.832 0-16-7.168-16-16z" />
</svg>
