<?xml version="1.0" standalone="no"?>
<!DOCTYPE svg PUBLIC "-//W3C//DTD SVG 1.1//EN" "http://www.w3.org/Graphics/SVG/1.1/DTD/svg11.dtd" >
<svg xmlns="http://www.w3.org/2000/svg" id="download_24">
<path unicode="&#xe95a;" transform="scale(1,-1)" id="download_24" data-tags="download_24" d="M518.508 198.276c1.961-1.963 4.349-3.541 6.95-4.651 2.601-1.067 5.372-1.621 8.144-1.621s5.543 0.555 8.144 1.621c2.644 1.109 4.989 2.688 6.95 4.651l255.825 255.957c8.314 8.363 8.314 21.845 0 30.165-8.357 8.363-21.83 8.363-30.145 0l-219.455-219.563v588.501c0 11.776-9.551 21.333-21.319 21.333s-21.319-9.557-21.319-21.333v-588.501l-219.413 219.563c-8.357 8.363-21.83 8.363-30.145 0-8.357-8.32-8.357-21.803 0-30.165l255.782-255.957zM917.344 64h-768.029c-11.768 0-21.319-9.557-21.319-21.333s9.551-21.333 21.319-21.333h768.029c11.768 0 21.319 9.557 21.319 21.333s-9.551 21.333-21.319 21.333z" />
</svg>
