<svg id="duo_people_illustration" data-name="Layer 1" xmlns="http://www.w3.org/2000/svg" viewBox="0 0 245.65 187.37">
	<defs>
		<style type="text/css">.cls-1{fill:#9b4aff;opacity:0.75;}.cls-1,.cls-11,.cls-9{fill-rule:evenodd;}.cls-14,.cls-2,.cls-4,.cls-5,.cls-6{fill:none;}.cls-10,.cls-11,.cls-2,.cls-7{stroke:#005ba8;}.cls-10,.cls-11,.cls-12,.cls-14,.cls-2,.cls-5,.cls-6,.cls-7{stroke-linecap:round;}.cls-11,.cls-12,.cls-14,.cls-2,.cls-5,.cls-6,.cls-7{stroke-linejoin:round;}.cls-3{fill:#19b0de;opacity:0.5;}.cls-5{stroke:#19b0de;}.cls-12,.cls-6{stroke:#fff;}.cls-10,.cls-11,.cls-13,.cls-7{fill:#fff;}.cls-8,.cls-9{fill:#005ba8;}.cls-10{stroke-miterlimit:10;}.cls-12{fill:#12283d;}.cls-14{stroke:#9b4aff;}</style>
	</defs>
	<title>Artboard 2</title>
	<g id="duo_people_illustration">
		<path class="cls-1" d="M232.72,107.19l-14-41.86a7.52,7.52,0,0,0-5.63-4.64,6.29,6.29,0,0,0-2.55-.54h-12c0,.17,0,.35,0,.53a8.74,8.74,0,0,1-8.78,8.7c-4.85,0-7.94-3.79-7.94-8.59v-.64c-2.94,0-5.64,0-7.48,1a7.68,7.68,0,0,0-1.17-.4A7.55,7.55,0,0,0,164,66.28l-8.9,46.49A7.54,7.54,0,0,0,169,118.14l-2,21.4h53.16l-8-22.76-.43-14.21,1.05-7.43,6.49,19.36"/>
		<path class="cls-2" d="M130,143.71h4.83a8,8,0,0,1,8,8v17.74c0,.32,0,.64,0,1"/>
		<path class="cls-2" d="M54.91,174.44a8,8,0,0,1-1.76-5V151.71a8,8,0,0,1,8-8h6"/>
		<path class="cls-3" d="M147.18,181.46,131,147a10.47,10.47,0,0,0-12-6.53H78.24a10.49,10.49,0,0,0-12,6.53L53.15,181.55l22.56-.37v.59h45.8v-7.29l3.37,7.28Z"/>
		<polygon class="cls-4" points="126.85 185.06 126.85 140.18 70.38 140.18 70.38 184.76 126.85 185.06"/>
		<line class="cls-5" x1="98.3" y1="150.19" x2="98.3" y2="181.69"/>
		<path class="cls-5" d="M112.44,177.45h0a6.38,6.38,0,0,1-6.36-6.4V157.54H118.8v13.51A6.38,6.38,0,0,1,112.44,177.45Z"/>
		<line class="cls-6" x1="82.42" y1="105.25" x2="82.42" y2="113.36"/>
		<rect class="cls-7" x="90.42" y="114.77" width="15.56" height="33.59" rx="7.78"/>
		<rect class="cls-7" x="82.55" y="87.74" width="32.13" height="49.03" rx="16.07"/>
		<path class="cls-7" d="M114.21,110.64a3.32,3.32,0,0,1,2.09-.42,3.37,3.37,0,1,1-.81,6.69,3.23,3.23,0,0,1-1.28-.42"/>
		<path class="cls-7" d="M114.92,111.87a1.92,1.92,0,0,1,1.21-.25,2,2,0,0,1,1.71,2.18"/>
		<path class="cls-7" d="M83.07,110.64a3.37,3.37,0,1,0-1.28,6.27,3.23,3.23,0,0,0,1.28-.42"/>
		<path class="cls-7" d="M82.36,111.87a1.92,1.92,0,0,0-1.21-.25,2,2,0,0,0-1.71,2.18"/>
		<circle class="cls-8" cx="112.15" cy="98.95" r="0.28"/>
		<circle class="cls-8" cx="85.18" cy="98.95" r="0.28"/>
		<circle class="cls-8" cx="112.06" cy="97.03" r="0.28"/>
		<circle class="cls-8" cx="114.14" cy="102.94" r="0.28"/>
		<circle class="cls-8" cx="112.21" cy="102.94" r="0.28"/>
		<circle class="cls-8" cx="112.21" cy="101.02" r="0.28"/>
		<circle class="cls-8" cx="114.06" cy="101.02" r="0.28"/>
		<circle class="cls-8" cx="85.11" cy="97.03" r="0.28"/>
		<circle class="cls-8" cx="85.11" cy="102.94" r="0.28"/>
		<circle class="cls-8" cx="83.19" cy="102.94" r="0.28"/>
		<circle class="cls-8" cx="85.11" cy="101.02" r="0.28"/>
		<circle class="cls-8" cx="83.12" cy="101.02" r="0.28"/>
		<circle class="cls-8" cx="110.22" cy="95.1" r="0.28"/>
		<circle class="cls-8" cx="108.29" cy="95.1" r="0.28"/>
		<circle class="cls-8" cx="106.37" cy="95.1" r="0.28"/>
		<circle class="cls-8" cx="90.96" cy="95.1" r="0.28"/>
		<circle class="cls-8" cx="89.03" cy="95.1" r="0.28"/>
		<circle class="cls-8" cx="87.11" cy="95.1" r="0.28"/>
		<circle class="cls-8" cx="108.29" cy="93.18" r="0.28"/>
		<circle class="cls-8" cx="106.37" cy="93.18" r="0.28"/>
		<circle class="cls-8" cx="104.44" cy="93.18" r="0.28"/>
		<circle class="cls-8" cx="102.52" cy="93.18" r="0.28"/>
		<circle class="cls-8" cx="100.59" cy="93.18" r="0.28"/>
		<circle class="cls-8" cx="98.66" cy="93.18" r="0.28"/>
		<circle class="cls-8" cx="96.74" cy="93.18" r="0.28"/>
		<circle class="cls-8" cx="94.81" cy="93.18" r="0.28"/>
		<circle class="cls-8" cx="92.88" cy="93.18" r="0.28"/>
		<circle class="cls-8" cx="90.96" cy="93.18" r="0.28"/>
		<circle class="cls-8" cx="89.03" cy="93.18" r="0.28"/>
		<circle class="cls-8" cx="106.37" cy="91.25" r="0.28"/>
		<circle class="cls-8" cx="104.44" cy="91.25" r="0.28"/>
		<circle class="cls-8" cx="102.52" cy="91.25" r="0.28"/>
		<circle class="cls-8" cx="100.59" cy="91.25" r="0.28"/>
		<circle class="cls-8" cx="98.66" cy="91.25" r="0.28"/>
		<circle class="cls-8" cx="96.74" cy="91.25" r="0.28"/>
		<circle class="cls-8" cx="94.81" cy="91.25" r="0.28"/>
		<circle class="cls-8" cx="92.88" cy="91.25" r="0.28"/>
		<circle class="cls-8" cx="90.96" cy="91.25" r="0.28"/>
		<circle class="cls-8" cx="102.52" cy="89.32" r="0.28"/>
		<circle class="cls-8" cx="100.59" cy="89.32" r="0.28"/>
		<circle class="cls-8" cx="98.66" cy="89.32" r="0.28"/>
		<circle class="cls-8" cx="96.74" cy="89.32" r="0.28"/>
		<circle class="cls-8" cx="94.81" cy="89.32" r="0.28"/>
		<path class="cls-7" d="M94,123.22a4.92,4.92,0,0,0,9.08-.18"/>
		<line class="cls-7" x1="82.55" y1="120.77" x2="114.68" y2="120.77"/>
		<path class="cls-7" d="M90.7,122.13h0a2.91,2.91,0,0,1,2.92-2.91h9.84a2.91,2.91,0,0,1,2.91,2.91h0"/>
		<circle class="cls-8" cx="91.85" cy="110.24" r="1.32"/>
		<circle class="cls-8" cx="104.85" cy="110.24" r="1.32"/>
		<line class="cls-7" x1="90" y1="106.31" x2="94.65" y2="106.31"/>
		<line class="cls-7" x1="103" y1="106.31" x2="107.65" y2="106.31"/>
		<polyline class="cls-7" points="100.26 116.22 97.3 116.22 97.3 105.51"/>
		<path class="cls-9" d="M184.22,181.77l3.41-16.42a4.54,4.54,0,0,1,9,.8l.33,15h21.23l2-42H167l-5.62,42.36"/>
		<path class="cls-2" d="M16.39,170.57a5.07,5.07,0,0,0,5.08,5.07,5.4,5.4,0,0,0,2-.42,14.76,14.76,0,0,0,5.07,6.41H38.65c4.19-2.81,7.09-9,7.09-16.18H21.47A5.11,5.11,0,0,0,16.39,170.57Zm2.1,0a3,3,0,0,1,3-3h.08a23,23,0,0,0,1.13,5.74,2.61,2.61,0,0,1-1.25.29A3,3,0,0,1,18.49,170.52Z"/>
		<path class="cls-2" d="M33.62,163c-.2-1.75,1.12-1.91.92-3.66S33,157.72,32.79,156s1.13-1.91.92-3.67"/>
		<path class="cls-2" d="M34.71,156.12c-.21-1.76,1.12-1.91.91-3.67s-1.53-1.59-1.74-3.35,1.12-1.91.91-3.66"/>
		<line class="cls-10" x1="3.19" y1="181.69" x2="242.45" y2="181.69"/>
		<path class="cls-11" d="M198.5,60.15c0,.17,0,.35,0,.53a8.74,8.74,0,0,1-8.78,8.7c-4.85,0-7.94-3.79-7.94-8.59v-.64"/>
		<path class="cls-8" d="M217.83,32.22a3.83,3.83,0,0,0-1.06-.46,3.81,3.81,0,0,0,.35-6.72,3.76,3.76,0,0,0-2.89-.44v0a3.82,3.82,0,1,0-6.54-3.95,3.79,3.79,0,0,0,.18,4.21,3.42,3.42,0,0,0-1,1.07,3.52,3.52,0,0,0,.17,3.91,3.54,3.54,0,0,0-3.38,5.59A3.54,3.54,0,0,0,200.29,41a3.54,3.54,0,0,0-3.37,5.59,3.53,3.53,0,0,0-3.55,1.66,3.62,3.62,0,0,0-.48,1.38,3.93,3.93,0,0,0-2.53.52,3.91,3.91,0,0,0-2.53-.52,3.62,3.62,0,0,0-.48-1.38,3.53,3.53,0,0,0-3.54-1.66A3.54,3.54,0,0,0,180.43,41a3.53,3.53,0,0,0-3.37-5.58,3.55,3.55,0,0,0-3.38-5.59,3.54,3.54,0,0,0,.17-3.91,3.67,3.67,0,0,0-1-1.07,3.82,3.82,0,1,0-6.36-.26v0A3.82,3.82,0,0,0,164,31.76a4.11,4.11,0,0,0-1.06.46,4.34,4.34,0,0,0,3.69,7.8c-.16.07-.32.16-.48.25A4.77,4.77,0,0,0,171,48.43a3.52,3.52,0,0,0,.45-.3A4.34,4.34,0,0,0,176.67,55a4.63,4.63,0,0,0,.9-.73,3.82,3.82,0,0,0,7.53,1.07v0a3.8,3.8,0,0,0,5.24,1.29h0a3.81,3.81,0,0,0,5.25-1.29v0a3.82,3.82,0,0,0,7,1.07,3.84,3.84,0,0,0,.54-2.14,4.63,4.63,0,0,0,.9.73,4.34,4.34,0,0,0,5.2-6.89,3.41,3.41,0,0,0,.44.3,4.77,4.77,0,1,0,4.94-8.16c-.16-.09-.32-.18-.48-.25a4.34,4.34,0,0,0,3.68-7.8Z"/>
		<polyline class="cls-7" points="183.17 60.15 183.17 47.76 197.06 47.76 197.06 60.15"/>
		<path class="cls-8" d="M197.06,39.3V51.69a6.94,6.94,0,0,1-6.94,7h0a6.94,6.94,0,0,1-6.95-6.94l0-12.38"/>
		<path class="cls-7" d="M176.12,16.91l-1.26,2.62c-1.54,3.19-1.3,6.76-.82,10.26l1,7.12h0a23.93,23.93,0,0,0,9.9,16.33L187.37,55a5.49,5.49,0,0,0,3.21,1h0a5.52,5.52,0,0,0,3.21-1l1.6-1.13A24.61,24.61,0,0,0,205.59,37l0-.11,1-7.12c.47-3.5.72-7.07-.82-10.26l-1.27-2.62a5.62,5.62,0,0,0-5.07-3.18H181.2A5.64,5.64,0,0,0,176.12,16.91Z"/>
		<path class="cls-7" d="M175.44,37.39a3.82,3.82,0,1,1,0-5.4"/>
		<path class="cls-7" d="M204.94,32a3.82,3.82,0,1,1,0,5.4"/>
		<circle class="cls-8" cx="183" cy="33.71" r="1.33"/>
		<circle class="cls-8" cx="197.14" cy="33.71" r="1.33"/>
		<path class="cls-2" d="M195.88,46.82a15.17,15.17,0,0,1-11.28,0"/>
		<path class="cls-8" d="M194.47,47c.84,1.15-1.58,2.89-4.1,2.89s-4.83-1.56-4.11-2.79C186.8,46.22,193.78,46.09,194.47,47Z"/>
		<path class="cls-8" d="M208.66,31.2c3.27-4.78,3.84-16.77-3.16-21.21-1.12-.72-3.14-1.33-4.27-.79a5.82,5.82,0,0,0-.57-3.45C198.09.89,185.55.93,177,7.45c-10.94,8.36-7.23,19.74-4.11,24.09,3.67,5.1,1.41-1.72,15.23-7.91a28,28,0,0,0,8.15-5.9c.34,4.49,2.2,4.18,5.81,7a13.1,13.1,0,0,1,4,6.3"/>
		<line class="cls-12" x1="200.53" y1="11.43" x2="195.88" y2="18.47"/>
		<path class="cls-8" d="M186.61,47.48c-1.38-.33,1.59-1.95,3.63-1.95s5.27,1.44,3.91,1.86A16.5,16.5,0,0,1,186.61,47.48Z"/>
		<path class="cls-7" d="M194,29.94a4.79,4.79,0,0,1,6.79,0"/>
		<path class="cls-12" d="M194.5,47.3a15.25,15.25,0,0,1-8.26.06"/>
		<path class="cls-13" d="M179.61,29.94a4.79,4.79,0,0,1,6.79,0"/>
		<path class="cls-2" d="M179.61,29.94a4.79,4.79,0,0,1,6.79,0"/>
		<polyline class="cls-7" points="189.53 35.91 188.98 41.84 191.25 41.84"/>
		<path id="hand_left_" data-name="hand(left)" class="cls-7" d="M212,173c-2.11-3.27-2.26-13.42.81-15.83a39.78,39.78,0,0,0,3.76-4.26l1.83-45c.75-4.23,4.5-7.1,8.36-6.42h0c3.86.68,6.37,4.66,5.62,8.89l-9.13,51.12h0a9,9,0,0,1-1.87,4.75C218.52,169.58,214.13,176.22,212,173Z"/>
		<line class="cls-14" x1="170.01" y1="113.8" x2="173.68" y2="74.23"/>
		<path class="cls-8" d="M200.42,89v3.5c0,4.1,4.12,4.08,4.12,4.08h1.79a4.69,4.69,0,0,0,4.66,4.08l6.44,0a4.67,4.67,0,0,0,4.65-4.7L222,83.1A1.12,1.12,0,0,0,220.88,82l-13.45,0a1.14,1.14,0,0,0-1.15,1.16v1.76h-1.76S200.43,85,200.42,89Zm2.36,0a1.78,1.78,0,0,1,1.76-1.77h1.76l0,7h-1.76a1.77,1.77,0,0,1-1.77-1.76Z"/>
		<path class="cls-8" d="M214.82,80.48h.24a2.63,2.63,0,0,1,.69-1.82,2.91,2.91,0,0,0,.73-2,2.87,2.87,0,0,0-.75-2,2.63,2.63,0,0,1-.7-1.82h-.24a2.87,2.87,0,0,0,.75,2,2.76,2.76,0,0,1,0,3.65A2.89,2.89,0,0,0,214.82,80.48Z"/>
		<path class="cls-8" d="M214.94,81.29h0a.8.8,0,0,0,.8-.81,2,2,0,0,1,.55-1.42,3.63,3.63,0,0,0,0-4.76,2.06,2.06,0,0,1-.56-1.41.8.8,0,0,0-.8-.8h0a.8.8,0,0,0-.8.8,3.49,3.49,0,0,0,.89,2.38,2.08,2.08,0,0,1,0,2.83,3.54,3.54,0,0,0-.87,2.39A.8.8,0,0,0,214.94,81.29Z"/>
		<path class="cls-8" d="M213.49,77.9h0a.81.81,0,0,0,.8-.81,3.56,3.56,0,0,0-.89-2.38,2.07,2.07,0,0,1,0-2.82,3.54,3.54,0,0,0,.87-2.39.82.82,0,0,0-.8-.8.79.79,0,0,0-.8.81,2,2,0,0,1-.55,1.41,3.54,3.54,0,0,0-.88,2.39,3.61,3.61,0,0,0,.89,2.38,2,2,0,0,1,.57,1.41A.8.8,0,0,0,213.49,77.9Z"/>
		<path id="hand" class="cls-7" d="M192.47,101.32a9,9,0,0,0,14.09-6.48l2.8,2.39a1.76,1.76,0,1,0,2.29-2.68l-7.33-6.27-2.24-2.08-.68-.59-8.7,4.64h0L158.56,108.5a7.09,7.09,0,0,0,6.69,12.5l17.19-12.43Z"/>
	</g>
</svg>