<?xml version="1.0" standalone="no"?>
<!DOCTYPE svg PUBLIC "-//W3C//DTD SVG 1.1//EN" "http://www.w3.org/Graphics/SVG/1.1/DTD/svg11.dtd" >
<svg xmlns="http://www.w3.org/2000/svg" id="email_12">
<path unicode="&#xec20;" id="email_12" data-tags="email_12" d="M10.5 10l-9 0c-.276 0-.5-.225-.5-.5l0-5.848 3.888 2.973c.328.25.721.375 1.113.375.394 0 .787-.125 1.114-.375L11 3.654 11 9.5c0 .275-.224.5-.5.5m-9-8l9 0c.244 0 .437.179.481.409L6.508 5.83c-.298.228-.715.228-1.012 0L1.019 2.406C1.064 2.178 1.257 2 1.5 2m9-1l-9 0C.673 1 0 1.673 0 2.5l0 7c0 .827.673 1.5 1.5 1.5l9 0c.827 0 1.5-.673 1.5-1.5l0-7c0-.827-.673-1.5-1.5-1.5" />
</svg>
