<svg id="emojipicker_illustration" data-name="Layer 1" xmlns="http://www.w3.org/2000/svg" viewBox="0 0 165.24 75.06"><defs><style type="text/css">.cls-1,.cls-5,.cls-6{fill:#48e33d;}.cls-1,.cls-3{opacity:0.25;}.cls-2,.cls-4{fill:none;stroke-linecap:round;stroke-linejoin:round;}.cls-2{stroke:#48e33d;}.cls-3{fill:#f37531;}.cls-4{stroke:#f37531;}.cls-6{opacity:0.5;}</style></defs><path class="cls-1" d="M48.09,55C44,53.66,41.64,52,41.64,50.28c0-4.37,14.78-7.91,33-7.91l-.33,2-.17,2.5.31,3.74-4.11-1.06-4.45,1.06-1.07-1.17-2.58-1-3.41.31-4,1.86-3,2.13-2.28,2.52S48.35,55.06,48.09,55Z"/><path class="cls-2" d="M100.5,55.2c-6,1.82-15.38,3-25.84,3-18.24,0-33-3.54-33-7.91s14.78-7.91,33-7.91"/><polygon class="cls-3" points="50.21 54.23 51.44 53.04 53.24 51.62 55.01 50.6 56.75 49.58 58.85 48.78 60.3 48.44 61.9 48.42 64.51 49.26 65.48 50.72 68.15 49.94 71.82 49.78 74.47 50.59 74.24 45.04 75.48 40.87 77.86 40.06 79.56 40.41 80.34 38.53 84.72 31.12 90.03 25.88 93.27 23.37 96.36 21.66 100.92 19.76 105.43 18.98 110.11 19.21 114.09 20.27 118.5 22.56 121.26 24.81 122.44 25.39 124.97 24.21 127.77 21.66 129.23 17.47 128.64 12.99 126.4 8.16 124.87 5.7 127.67 6.61 129.23 7.75 130.49 7.15 131.67 7.82 132.24 9.39 132.51 11.46 133.38 11.46 134.46 10.05 135.07 11.46 135.07 12.91 135.07 15.14 134.44 16.79 134.14 20.58 132.69 23.53 131.31 26.09 129.81 27.78 128.47 29 125.59 30.77 127.04 33.75 127.61 38.2 127.62 41.38 127.67 45.08 127.69 48.5 127.67 50.45 127.67 52.27 127.04 54.05 126.59 55.33 125.52 56.22 123.2 57.13 117.88 57.02 100.5 57.02 100.5 54.69 99.13 55.06 98.69 55.7 93.82 56.72 82.1 57.98 71.78 57.98 59.66 57.33 54.06 56.46 49.52 55.55 50.21 54.23"/><path class="cls-4" d="M127.67,51.71A5.06,5.06,0,0,1,122.21,57H100.5"/><path class="cls-4" d="M79.56,40.41c2.54-7,10.87-17.62,20.94-20.53"/><path class="cls-4" d="M100.5,56.93a8.06,8.06,0,0,1,8.33-8,8.68,8.68,0,0,1,4.65,1.32"/><path class="cls-4" d="M110.63,49.05C103,45.28,103.2,29.31,115,32.1"/><path class="cls-4" d="M59.66,57.32c.3-2,2.85-4.76,4.41-5.71A10.58,10.58,0,0,1,73,50.05a12.11,12.11,0,0,1,7.49,5.58"/><path class="cls-4" d="M65.48,50.61c-2-5.48-13.62.38-15.9,4.72"/><path class="cls-4" d="M125.59,30.77a13.86,13.86,0,0,0,4.22-3c2.89-3,4.94-6.31,4.63-11-.09-1.34,1.92-3.52,0-6.74-.12-.21-1.61,2.38-1.72,2.16-.65-1.34.09-3.57-1.86-5.35-.23-.22-1,1.46-1.24,1.25-2.34-2.15-4.78-3-4.83-2a17.51,17.51,0,0,1,4.42,10.34c.26,4.91-3.24,7.74-6.79,9"/><path class="cls-4" d="M100.5,19.88a21,21,0,0,1,27.18,20c0,3.65,0,9,0,11.82"/><path class="cls-4" d="M92.89,42.17c6.08,6.47,9.42,8.73.93,14.55"/><path class="cls-4" d="M74.53,50.42c-.56-2.35-.75-8.07,1.46-9.74,3.94-3,10.71,5.61,11.59,7.79a26.09,26.09,0,0,1,2.57,7.32q.15.74.24,1.44"/><path class="cls-2" d="M99.45,55.5c-6,1.65-14.91,2.69-24.79,2.69-18.24,0-33-3.54-33-7.91C41.64,47,50,44.19,61.81,43"/><path class="cls-2" d="M128.47,69.42a2.68,2.68,0,0,1,2.84,0"/><path class="cls-2" d="M145.73,53.58a2.7,2.7,0,0,1,2.85,0"/><path class="cls-2" d="M150.45,57.13a2.7,2.7,0,0,1,2.85,0"/><path class="cls-2" d="M65.23,64.75a2.7,2.7,0,0,1,2.85,0"/><path class="cls-2" d="M29.7,60.9a2.7,2.7,0,0,1,2.85,0"/><path class="cls-2" d="M36.11,42.08a2.7,2.7,0,0,1,2.85,0"/><path class="cls-2" d="M23.73,58.19a2.68,2.68,0,0,1,2.84,0"/><path class="cls-2" d="M115,62a2.68,2.68,0,0,1,2.84,0"/><path class="cls-2" d="M112.35,65a2.68,2.68,0,0,1,2.84,0"/><path class="cls-2" d="M54.56,73.66a2.68,2.68,0,0,1,2.84,0"/><path class="cls-2" d="M77.37,69.63a2.68,2.68,0,0,1,2.84,0"/><path class="cls-2" d="M81.52,72.4a2.68,2.68,0,0,1,2.84,0"/><path class="cls-2" d="M1.39,42.17H13.72a4.12,4.12,0,0,0-.81-2.71c-.93-1,2.43-.42,3.24,1.35,0,0,1.22-4.25,3.3-4.25,0,0-1.5,5.61.54,5.61H30.17"/><path class="cls-2" d="M154.27,42.17a4.06,4.06,0,0,0-.81-2.71c-.93-1,2.43-.42,3.24,1.35,0,0,1.22-4.25,3.3-4.25,0,0-1.5,5.61.54,5.61,1,0,1-3.14,3.31-3.14,0,0-.9,2.32,0,3.14"/><line class="cls-2" x1="137.34" y1="42.17" x2="154.12" y2="42.17"/><path class="cls-2" d="M75.48,27.18s-.09-4.51,2.37-7.3"/><path class="cls-2" d="M73.87,22a10.94,10.94,0,0,1,2.95-5.64"/><path class="cls-1" d="M62.43,21.66a6.6,6.6,0,0,0,.3,3.87,5.94,5.94,0,0,0,1.79,2.34,6.2,6.2,0,0,0,2,1,7,7,0,0,0,.15-1.07A5.92,5.92,0,0,0,64.4,22.7,5.81,5.81,0,0,0,62.43,21.66Z"/><path class="cls-5" d="M84.36,13.45a5.09,5.09,0,0,1,.3-.88,5,5,0,0,1,1.41-2,5.22,5.22,0,0,1,2.26-1.1,5.34,5.34,0,0,1,1.9,0,5.2,5.2,0,0,1-.29.88,5,5,0,0,1-1.41,2,5.14,5.14,0,0,1-2.27,1.11A5.34,5.34,0,0,1,84.36,13.45Z"/><path class="cls-6" d="M82.61,8.16a4.42,4.42,0,0,1-.3-.88,4.92,4.92,0,0,1-.1-2.41,5.15,5.15,0,0,1,1.1-2.27,5.48,5.48,0,0,1,1.48-1.2,4.66,4.66,0,0,1,.3.88,4.92,4.92,0,0,1,.1,2.41A5.27,5.27,0,0,1,84.09,7,5,5,0,0,1,82.61,8.16Z"/><path class="cls-6" d="M39.2,26a5,5,0,0,1-.89.28,5.09,5.09,0,0,1-2.42,0,5.27,5.27,0,0,1-2.22-1.19,5.38,5.38,0,0,1-1.14-1.52,5.21,5.21,0,0,1,.88-.27,5.05,5.05,0,0,1,2.42,0,5.22,5.22,0,0,1,2.22,1.2A5,5,0,0,1,39.2,26Z"/><path class="cls-2" d="M46.86,31.1a11,11,0,0,0-5.07-3.86"/></svg>