<?xml version="1.0" standalone="no"?>
<!DOCTYPE svg PUBLIC "-//W3C//DTD SVG 1.1//EN" "http://www.w3.org/Graphics/SVG/1.1/DTD/svg11.dtd" >
<svg xmlns="http://www.w3.org/2000/svg" id="emoticons_16">
<path unicode="&#xe95e;" transform="scale(1,-1)" id="emoticons_16" data-tags="emoticons_16" d="M512 960c-282.304 0-512-229.696-512-512s229.696-512 512-512c282.304 0 512 229.696 512 512s-229.696 512-512 512zM512 0c-247.040 0-448 200.96-448 448s200.96 448 448 448c247.040 0 448-200.96 448-448s-200.96-448-448-448zM724.877 305.747c-47.68-71.232-127.296-113.728-212.864-113.728s-165.12 42.496-212.864 113.664c-9.856 14.72-29.696 18.624-44.416 8.768-14.656-9.856-18.56-29.696-8.704-44.416 59.584-88.896 159.040-142.016 265.984-142.016 107.008 0 206.464 53.12 266.048 142.144 9.792 14.656 5.888 34.496-8.768 44.416-14.72 9.856-34.624 5.824-44.416-8.832zM320.282 449.248c16.704 0 33.152 6.784 45.12 18.688 11.84 11.968 18.624 28.352 18.624 45.12s-6.784 33.216-18.624 45.056c-23.872 23.872-66.624 23.808-90.24 0-11.904-11.84-18.752-28.224-18.752-45.056s6.848-33.216 18.752-45.12c11.904-11.904 28.288-18.688 45.12-18.688zM703.872 449.248c16.704 0 33.152 6.784 45.056 18.688 11.904 11.968 18.688 28.352 18.688 45.12s-6.784 33.216-18.688 45.056c-23.808 23.872-66.56 23.808-90.176 0-11.968-11.84-18.752-28.224-18.752-45.056s6.784-33.216 18.752-45.12c11.84-11.904 28.288-18.688 45.12-18.688z" />
</svg>
