<?xml version="1.0" encoding="UTF-8"?>
<svg xmlns="http://www.w3.org/2000/svg" viewBox="0 0 181 121.57">
   <defs>
      <style type="text/css">.cls-1,.cls-3,.cls-6{fill:none;stroke-linecap:round;}.cls-1{stroke:#16b1e0;}.cls-1,.cls-3{stroke-linejoin:round;}.cls-2,.cls-7,.cls-9{fill:#16b1e0;}.cls-2,.cls-5{opacity:0.25;}.cls-3,.cls-6{stroke:#ffac38;}.cls-4,.cls-5{fill:#ffac38;}.cls-6{stroke-miterlimit:10;}.cls-7{opacity:0.5;}.cls-8{fill:#fff;}</style>
   </defs>
   <title>emptyUnreadFilter</title>
   <g id="emptyUnreadFilter" data-name="Layer 2">
      <g id="Final">
         <line class="cls-1" x1="0.5" y1="121.07" x2="180.5" y2="121.07" />
         <path class="cls-1" d="M51.88,89.79a40.36,40.36,0,0,1,0,31.07H96.4a42.9,42.9,0,0,0,0-31.07" />
         <path class="cls-2" d="M133.33,89.79H96.4a42.9,42.9,0,0,1,0,31.07h36.93a7.58,7.58,0,0,0,7.59-7.58V97.38A7.59,7.59,0,0,0,133.33,89.79Z" />
         <line class="cls-1" x1="54.99" y1="108.21" x2="75.14" y2="108.21" />
         <line class="cls-1" x1="54.99" y1="100.14" x2="64.24" y2="100.14" />
         <line class="cls-1" x1="66.99" y1="110.84" x2="55.26" y2="110.84" />
         <line class="cls-1" x1="136.84" y1="96.73" x2="136.84" y2="112.33" />
         <path class="cls-2" d="M97.49,62.27,95,62.44l-6.24-.07-7.91-.1-6.84,0-5.46-.18-4.5-.31c-4.19,0-4.46,1.75-4.46,3.9v8.2c0,2.16.27,3.91,4.46,3.91H94.44l-.33-1.48s-.37-1.4-.73-2.89c-.87-3.64,1.55-7.45,5.17-11.17C98.69,62.15,97.37,62.43,97.49,62.27Z" />
         <path class="cls-1" d="M113.23,77.83h11.39a11.26,11.26,0,0,1,0-15.54h-4.05" />
         <line class="cls-1" x1="122.12" y1="65.45" x2="115.74" y2="65.45" />
         <path class="cls-2" d="M117.24,77.83a1.23,1.23,0,0,1,1.23,1.23v9.43a1.23,1.23,0,0,1-1.23,1.23H41.31a1.23,1.23,0,0,1-1.23-1.23V79.06a1.23,1.23,0,0,1,1.23-1.23H94.82l1.58,2.1,1.95,1.65,1.38.7,3.21,1.07,2.72.14,3.72-.61,3.46-.65,1.3-1.81L114,79l-.65-.7-.64-.42Z" />
         <path class="cls-1" d="M94.82,77.83H41.31a1.23,1.23,0,0,0-1.23,1.23v9.43a1.23,1.23,0,0,0,1.23,1.23h75.93a1.23,1.23,0,0,0,1.23-1.23V79.06a1.23,1.23,0,0,0-1.23-1.23h-4.32" />
         <line class="cls-1" x1="63.97" y1="67.23" x2="63.97" y2="71.83" />
         <line class="cls-1" x1="113.61" y1="81.53" x2="113.61" y2="85.79" />
         <path class="cls-3" d="M128.32,55.4a23.25,23.25,0,0,0,1.31-3.65A22.72,22.72,0,0,0,113.5,24a23.21,23.21,0,0,0-3.25-.61" />
         <path class="cls-3" d="M97.62,62.36H70.16C54.31,62.36,46,45.89,46.56,35c.62-7.42,9.12,6.39,13.24,3.82,3.73-2.33-1.64-12.88,1.74-14.17S68,31.33,73.26,31.87c8.54.88,22.85-11.93,40.24-7.91" />
         <path class="cls-3" d="M68.11,52.61a2.28,2.28,0,0,1-3.65,2.73" />
         <path class="cls-3" d="M71.77,49.88a2.28,2.28,0,0,1-3.66,2.73" />
         <path class="cls-4" d="M68.69,52.06,69,49.84a1.12,1.12,0,0,0-1.78-1.06l-2.54,1.9a1.12,1.12,0,0,0,.51,2l2.22.32A1.12,1.12,0,0,0,68.69,52.06Z" />
         <path class="cls-3" d="M57.64,49.77A3.42,3.42,0,0,0,61,47.26" />
         <path class="cls-3" d="M65.65,43.93a3.4,3.4,0,0,0,3.3-2.5" />
         <line class="cls-3" x1="75.86" y1="42.64" x2="73.81" y2="45.24" />
         <line class="cls-3" x1="78.51" y1="46.2" x2="75.44" y2="47.43" />
         <path class="cls-3" d="M128.87,54.07c-2.92,8.22-12.3,9.37-14.58,9.84L103.77,65.7a6.76,6.76,0,0,0-3.56,1.69,6.52,6.52,0,0,0-1.63,7.1,6.64,6.64,0,0,0,7.42,4l5.26-.89a2.42,2.42,0,0,1,2.82,2.23,2.52,2.52,0,0,1-2.15,2.56l-5.39.92a11.36,11.36,0,0,1-8.9-2.27,11.15,11.15,0,0,1-.55-17.19c3.59-3.51,13.49-4,17.24-4.61A16.77,16.77,0,0,0,124.91,52" />
         <path class="cls-3" d="M112,32.65A18.13,18.13,0,0,0,98.46,62.84" />
         <path class="cls-5" d="M113.5,24a23.21,23.21,0,0,0-3.25-.61l0,0c-15.94-1.91-29,9.3-37,8.47-5.28-.54-8.58-8.79-11.72-7s2,12.05-1.74,13.86C55.21,41,47,28.05,46.56,35c-.56,8.51,2.35,17.29,11.5,23.3C55.72,59.52,55,61.11,55,64.06v3.6a2.53,2.53,0,0,0,2.17,2.56,2.42,2.42,0,0,0,2.67-2.41V64.34c0-1.92,1.76-3,3.19-3.4.54.24,1.06.49,1.63.71,5.6,2.22,12.74.12,20,.74l8.7.11c.86,0,2.17-1.2,5,.39a7.37,7.37,0,0,0-1.3,1,11.15,11.15,0,0,0,.55,17.19,11.36,11.36,0,0,0,8.9,2.27l5.39-.92a2.52,2.52,0,0,0,2.15-2.56,2.42,2.42,0,0,0-2.82-2.23l-5.26.89a6.64,6.64,0,0,1-7.42-4,6.51,6.51,0,0,1,1.63-7.1,6.76,6.76,0,0,1,3.56-1.69l10.52-1.79c2.28-.47,11.66-1.62,14.58-9.84l1.44-6.24,0,0A22.7,22.7,0,0,0,113.5,24Z" />
         <path class="cls-6" d="M57.8,58.46C55,59.78,55,60.88,55,64.06v3.6a2.53,2.53,0,0,0,2.17,2.56,2.42,2.42,0,0,0,2.67-2.41v-3c0-3.33,3.14-3.45,4.28-3.28" />
         <line class="cls-1" x1="105.16" y1="23.81" x2="107.16" y2="23.83" />
         <line class="cls-1" x1="107.49" y1="23.84" x2="109.49" y2="23.85" />
         <line class="cls-1" x1="110.46" y1="24.62" x2="109.68" y2="23.83" />
         <polyline class="cls-1" points="107.4 20.16 107.35 23.8 105.27 25" />
         <path class="cls-7" d="M107.53,21.32a10.71,10.71,0,0,0,6.63-4.84c1.68-2.91,2-7.09-.37-9.69l7.41-1.4s1.87-.44,2.4-1.29a2.7,2.7,0,0,0-.85-3.7,2.63,2.63,0,0,0-2.16-.29h0l-10,2.7-11,2.94a6.73,6.73,0,0,0-4.06,2.95c-2,3.15-1.09,6.75,1.69,9.35S103.81,22.24,107.53,21.32Zm7.21-17.87a.28.28,0,0,1,.19-.34l6.75-1.82a.28.28,0,0,1,.34.2.26.26,0,0,1,0,.21.25.25,0,0,1-.16.12l-6.74,1.82A.28.28,0,0,1,114.74,3.45Zm-11.17,10a.28.28,0,0,1-.07-.38.29.29,0,0,1,.39-.08c.15.11,3.67,2.46,6.29-.79a5.71,5.71,0,0,0,1.08-6.1l-2.7.84a.27.27,0,1,1-.16-.52l2.92-.91a.27.27,0,0,1,.32.12,6.12,6.12,0,0,1-.41,6.05,8.75,8.75,0,0,1-.62.86C107.67,16.23,103.62,13.52,103.57,13.49Z" />
         <circle class="cls-8" cx="98.53" cy="12.91" r="1.57" />
         <path class="cls-9" d="M98.18,14.42a.69.69,0,0,1-.54-.25h0a.73.73,0,0,1,.07-1,.71.71,0,0,1,.53-.17.69.69,0,0,1,.49.25.71.71,0,0,1-.07,1A.74.74,0,0,1,98.18,14.42Z" />
         <polyline class="cls-1" points="109.73 20.18 109.68 23.83 107.61 25.03" />
         <path class="cls-9" d="M95.57,16.06c.09-.21-.94,2.37-.94,2.37l2.18-.75" />
      </g>
   </g>
</svg>

