<?xml version="1.0" encoding="UTF-8"?>
<svg xmlns="http://www.w3.org/2000/svg" id="working_files" data-name="working files" viewBox="0 0 199.85 135.01">
   <defs>
      <style type="text/css">.cls-1,.cls-5,.cls-7,.cls-8{fill:none;stroke-linecap:round;stroke-linejoin:round;}.cls-1,.cls-7,.cls-8{stroke:#19b0de;}.cls-2,.cls-3{fill:#19b0de;}.cls-2,.cls-4{opacity:0.25;}.cls-3{opacity:0.5;}.cls-4,.cls-6{fill:#f37531;}.cls-5{stroke:#f37531;}.cls-7{stroke-dasharray:3.96 3.96;}.cls-8{stroke-dasharray:2.43 2.43;}</style>
   </defs>
   <title>emptyDraftsFilter</title>
   <g id="emptyDraftsFilter" data-name="Layer 2">
      <line class="cls-1" x1="15.34" y1="102.65" x2="2.08" y2="102.65" />
      <polygon class="cls-2" points="159.41 127.35 150.64 125.78 153.27 121.08 159.41 127.35" />
      <polygon class="cls-3" points="153.27 121.08 110.21 119.19 156.22 115.69 159.41 127.35 153.27 121.08" />
      <polygon class="cls-1" points="153.27 121.08 146.36 133.44 110.21 119.19 162.32 105.13 156.22 115.69 159.41 127.35 153.27 121.08" />
      <line class="cls-1" x1="159.42" y1="127.35" x2="150.64" y2="125.78" />
      <polyline class="cls-1" points="153.27 121.08 110.21 119.19 156.22 115.69" />
      <polygon class="cls-2" points="178.3 114.71 169.92 111.68 173.32 107.49 178.3 114.71" />
      <polygon class="cls-3" points="173.32 107.49 131.2 98.31 177.13 102.68 178.3 114.71 173.32 107.49" />
      <polyline class="cls-1" points="148.53 108.85 131.2 98.31 184.94 93.31 177.13 102.68 178.3 114.71 173.32 107.49 164.4 118.49 157.15 114.08" />
      <line class="cls-1" x1="178.3" y1="114.71" x2="169.92" y2="111.68" />
      <polyline class="cls-1" points="173.32 107.49 131.2 98.31 177.13 102.68" />
      <path class="cls-4" d="M62.13,88.65a14.3,14.3,0,0,1-7.93-3.59c-3.08-2.79-5.34-5.72-5.34-10.42,0-1.34-2.14-3.38-.46-6.72.1-.21,1.76,2,1.85,1.8.57-1.38-.32-3.56,1.51-5.47.22-.23,1.11,1.39,1.32,1.17,2.2-2.3,4.58-3.28,4.69-2.33A17.52,17.52,0,0,0,54,73.7c.07,5.37,4.46,8,8.38,8.73" />
      <path class="cls-4" d="M110.3,29.26c1,1.33,2.28,1.26,3.91-3.47a37.86,37.86,0,0,0,1.49-10.21c.22-2.42-.66-12.34-6.51-14.06-3.34-1-6.84,5.54-7.76,9.22l.35.86c-5.07-3.39-13.17-3-17,.89l1.42-1.75C82,5.25,65.59,16.84,65.94,20.58c0,2.81,2.75,9.13,2.75,9.13C73,40.78,76.53,32.88,80,22.39l-2,6L75.36,40,95.88,35.8l14.89-3.08-1-4.31v-.09M126.13,101a9.79,9.79,0,0,0-3.44-4.77L120,95c7.78-4.42,4.94-13,4.23-14.25-.54-1-3.41-3-3.41-3a54.24,54.24,0,0,0-1-5.55l-7.76-33.86L91.57,63.26,79.35,54l4.35,3.31-7,7-2-15.66L73.55,48,68.12,71.65h0c-.57,2.44-.92,4.23-1.25,6.18a9.66,9.66,0,0,0-2.9,2c-2.81,3.57-1.31,7.51-1.14,9.84.25,3.57,5,5.39,3.92,5.68l-2.09,1.2a7,7,0,0,0-.84.81c-.51.59,8,5.5,8,5.5h9.1a5.45,5.45,0,0,0,7.47,0h10a5.47,5.47,0,0,0,7.48,0h18C126.47,102.9,127,103.57,126.13,101Zm-14.81-65.9L79.35,54l32-18.82Z" />
      <line class="cls-5" x1="75.36" y1="39.96" x2="78.26" y2="27.31" />
      <path class="cls-5" d="M66.84,77.83c.46-2.82,1-5,1.13-5.59l5.51-24" />
      <line class="cls-5" x1="110.5" y1="32.48" x2="109.19" y2="26.88" />
      <path class="cls-5" d="M121,78.05c-.48-2.93-1-5.22-1.17-5.81l-7.92-33.7" />
      <path class="cls-5" d="M62.13,88.65a14.3,14.3,0,0,1-7.93-3.59c-3.08-2.79-5.34-6-5.34-10.67,0-1.34-2.14-3.38-.46-6.72.1-.21,1.76,2.27,1.85,2,.57-1.38-.32-3.56,1.51-5.47.22-.23,1.11,1.39,1.32,1.17,2.2-2.3,4.58-3.28,4.69-2.33A17.52,17.52,0,0,0,54,73.7c.07,5.37,4.46,8,8.38,8.73" />
      <path class="cls-5" d="M104.36,14.05c-4.59-6.29-16.69-6.31-20.52-.39" />
      <ellipse class="cls-6" cx="86.83" cy="23.7" rx="1.93" ry="1.87" transform="matrix(0.99, -0.11, 0.11, 0.99, -2.1, 9.83)" />
      <ellipse class="cls-6" cx="93.18" cy="30.63" rx="4.01" ry="2.55" transform="translate(-0.48 1.51) rotate(-0.93)" />
      <ellipse class="cls-4" cx="100.31" cy="22.04" rx="4.77" ry="6.46" transform="translate(-0.78 40.18) rotate(-22.56)" />
      <ellipse class="cls-6" cx="99.81" cy="23.7" rx="1.87" ry="1.93" transform="translate(65.13 120.25) rotate(-83.6)" />
      <path class="cls-5" d="M111.73,32.48c-1.55-2.57-3-6.75-4.5-11.3" />
      <path class="cls-5" d="M101.41,10.76c.66-2.68,3.45-8.59,6.57-9.14,5.56-1,8,11.29,7.7,14a29.71,29.71,0,0,1-1.2,8.77c-1.21,4.1-3,7.73-4.7,4.05" />
      <path class="cls-5" d="M86.19,10.76C82,5.27,65.58,16.86,65.93,20.59c0,2.82,2.74,9.13,2.74,9.13,4.46,11.49,8.12,2.54,11.71-8.54" />
      <path class="cls-5" d="M63.73,97.32a8.49,8.49,0,0,1,6.16-2.55,8.61,8.61,0,0,1,4.66,1.33" />
      <path class="cls-5" d="M126.07,101.77a8.1,8.1,0,0,0-8.27-7,8.61,8.61,0,0,0-4.66,1.33" />
      <line class="cls-5" x1="88.33" y1="18.18" x2="84.06" y2="18.88" />
      <line class="cls-5" x1="98.33" y1="18.18" x2="102.61" y2="18.88" />
      <path class="cls-5" d="M67.26,94.91c-7.63-3.77-7.42-19.75,4.41-17" />
      <path class="cls-5" d="M120.24,94.91c7.64-3.77,7.43-19.75-4.4-17" />
      <polyline class="cls-2" points="83.7 57.26 76.69 64.31 79.35 53.95 83.7 57.26" />
      <polyline class="cls-1" points="95.88 35.8 64.18 42.34 74.68 48.64 117.92 31.25" />
      <polyline class="cls-1" points="83.7 57.26 76.69 64.31 79.35 53.95 91.57 63.26 117.92 31.25 98.09 35.34" />
      <line class="cls-1" x1="79.35" y1="53.95" x2="117.92" y2="31.25" />
      <line class="cls-1" x1="76.69" y1="64.3" x2="74.68" y2="48.64" />
      <polygon class="cls-3" points="76.69 64.31 74.68 48.64 117.92 31.25 79.35 53.95 76.69 64.31" />
      <path class="cls-5" d="M87.67,34.29a3.36,3.36,0,0,0,2.79,1.65,3.42,3.42,0,0,0,3-2.82h0a3.35,3.35,0,0,0,3,2.7A3.47,3.47,0,0,0,99.2,34" />
      <line class="cls-1" x1="177.35" y1="102.65" x2="197.77" y2="102.65" />
      <line class="cls-1" x1="106.34" y1="102.65" x2="138" y2="102.65" />
      <polyline class="cls-1" points="88.58 102.91 97.98 102.9 46.61 125.6 20.3 123.18" />
      <line class="cls-1" x1="72.26" y1="102.91" x2="80.77" y2="102.91" />
      <polyline class="cls-1" points="72.02 102.97 54.86 109.69 47.41 86.58 14.19 97.87 20.3 123.18" />
      <line class="cls-1" x1="72.02" y1="102.97" x2="47.81" y2="86.46" />
      <polyline class="cls-2" points="47.81 86.46 72.02 102.97 54.86 109.69 47.41 86.58" />
      <line class="cls-1" x1="20.3" y1="123.18" x2="22.16" y2="122.45" />
      <line class="cls-7" x1="25.85" y1="121.01" x2="68.31" y2="104.42" />
      <line class="cls-1" x1="70.15" y1="103.69" x2="72.02" y2="102.97" />
      <line class="cls-1" x1="71.89" y1="103.3" x2="71.8" y2="105.3" />
      <line class="cls-8" x1="71.69" y1="107.73" x2="71.52" y2="111.37" />
      <line class="cls-1" x1="71.47" y1="112.58" x2="71.38" y2="114.58" />
      <path class="cls-5" d="M79.19,74.05V99a5.51,5.51,0,0,0,5.5,5.49h0A5.51,5.51,0,0,0,90.18,99V66" />
      <path class="cls-5" d="M107.66,73.91V98.82a5.51,5.51,0,0,1-5.5,5.49h0a5.51,5.51,0,0,1-5.49-5.49v-33" />
   </g>
</svg>

