<?xml version="1.0" encoding="UTF-8"?>
<svg width="251px" height="68px" viewBox="0 0 251 68" version="1.1" xmlns="http://www.w3.org/2000/svg" xmlns:xlink="http://www.w3.org/1999/xlink">
    <!-- Generator: sketchtool 63.1 (101010) - https://sketch.com -->
    <title>A2F01886-80AC-4320-AC6C-46CF625756A0@1.00x</title>
    <desc>Created with sketchtool.</desc>
    <g id="Unified-Client" stroke="none" stroke-width="1" fill="none" fill-rule="evenodd">
        <g id="Voicemail_empty" transform="translate(-269.000000, -282.000000)">
            <g id="voicemail_default" transform="translate(162.000000, 72.000000)">
                <g id="narrow">
                    <g id="sidebar" transform="translate(72.000000, 0.000000)">
                        <g id="illustration" transform="translate(32.000000, 210.000000)">
                            <g id="ill" transform="translate(3.000000, 0.000000)">
                                <polygon id="Line" fill-opacity="0.9" fill="#6CBD45" fill-rule="nonzero" points="250.1 66.6174 250.1 67.8174 0.5 67.8174 0.5 66.6174"></polygon>
                                <g id="Group" opacity="0.5" transform="translate(42.000000, 8.000000)" fill="#6CBD45">
                                    <path d="M43.4428,37.0224 C43.4428,37.0224 53.1766,35.6736 59.615,40.8871 C63.7582508,44.242245 65.5266406,49.497693 66.2608915,52.8179128 L52.5,52.8174 C52.2506781,52.8174 52.0084597,52.8478141 51.7768528,52.9051347 C51.3697358,52.6393957 50.971586,52.35021 50.5853,52.0374 C44.1472,46.824 43.4428,37.0224 43.4428,37.0224 Z" id="Combined-Shape" fill-opacity="0.45"></path>
                                    <path d="M82.732,31.227 C82.732,31.227 85.61,40.6429 81.468,47.8173 C80.28398,49.868153 78.6544538,51.5138339 76.930875,52.8184015 L66.9129849,52.8184106 C66.5572519,49.4365328 66.6576076,44.6693851 68.997,40.6173 C73.139,33.4429 82.732,31.227 82.732,31.227 Z" id="Combined-Shape"></path>
                                    <path d="M73.787,31.6056 C71.198,37.7062 63.944,40.4636 63.944,40.4636 C63.944,40.4636 60.888,33.33 63.478,27.2294 C66.067,21.1288 73.321,18.3714 73.321,18.3714 C73.321,18.3714 76.377,25.505 73.787,31.6056 Z" id="Oval-Copy-2" fill-opacity="0.45"></path>
                                    <path d="M98.185,44.9008 C98.185,44.9008 96.116,50.3413 91.541,52.2835 C86.966,54.2256 81.615,51.9339 81.615,51.9339 C81.615,51.9339 83.683,46.4934 88.259,44.5512 C92.834,42.6091 98.185,44.9008 98.185,44.9008 Z" id="Combined-Shape" fill-opacity="0.45"></path>
                                    <path d="M52.7848,35.246 C55.2329,38.3795 59.865,38.851 59.865,38.851 C59.865,38.851 60.528,34.2422 58.08,31.1087 C55.6321,27.9753 50.9997,27.5037 50.9997,27.5037 C50.9997,27.5037 50.3366,32.1125 52.7848,35.246 Z" id="Oval-Copy-3" fill-opacity="0.45"></path>
                                    <path d="M39.266,56.2637 C43.1694,55.505 45.6926,51.5916 45.6926,51.5916 C45.6926,51.5916 41.8871,48.9084 37.9837,49.6672 C34.0803,50.4259 31.5571,54.3393 31.5571,54.3393 C31.5571,54.3393 35.3626,57.0225 39.266,56.2637 Z" id="Oval-Copy-6" fill-opacity="0.45"></path>
                                    <path d="M5.2147,41.8943 C9.53,45.5154 16.1137,44.7738 16.1137,44.7738 C16.1137,44.7738 15.7008,38.1613 11.3854,34.5403 C7.0701,30.9193 0.4864,31.6609 0.4864,31.6609 C0.4864,31.6609 0.8993,38.2733 5.2147,41.8943 Z" id="Oval-Copy-9"></path>
                                    <path d="M52.722,23.0592 C54.6487,28.3528 60.721,31.0023 60.721,31.0023 C60.721,31.0023 63.67,25.0694 61.743,19.7758 C59.816,14.4822 53.7439,11.8326 53.7439,11.8326 C53.7439,11.8326 50.7952,17.7656 52.722,23.0592 Z" id="Oval-Copy-4"></path>
                                    <path d="M25.6117,18.2895 C27.4891,21.414 31.5825,22.4017 31.5825,22.4017 C31.5825,22.4017 32.6321,18.3237 30.7547,15.1993 C28.8774,12.0749 24.784,11.0871 24.784,11.0871 C24.784,11.0871 23.7344,15.1651 25.6117,18.2895 Z" id="Oval-Copy-8"></path>
                                    <path d="M136.864,5.4892 C134.157,9.6578 135.485,15.3247 135.485,15.3247 C135.485,15.3247 141.202,14.2328 143.909,10.0641 C146.616,5.8955 145.288,0.22863 145.288,0.22863 C145.288,0.22863 139.571,1.32052 136.864,5.4892 Z" id="Oval-Copy-10"></path>
                                </g>
                                <g id="Group-5" opacity="0.45" transform="translate(184.000000, 39.000000)" fill="#6CBD45">
                                    <polygon id="Path-4" fill-rule="nonzero" points="22.516 9.2148 23.284 10.1367 1.684 28.1367 0.916 27.2148"></polygon>
                                    <polygon id="Path-5" fill-rule="nonzero" points="4.264 8.2708 9.064 21.4708 7.936 21.8808 3.136 8.6808"></polygon>
                                    <path d="M19.915,5.4107 C20.653,7.6798 23.076,8.9259 23.076,8.9259 C23.076,8.9259 24.305,6.4931 23.567,4.224 C22.83,1.9549 20.406,0.7088 20.406,0.7088 C20.406,0.7088 19.178,3.1416 19.915,5.4107 Z" id="Oval-Copy-3_2"></path>
                                    <path d="M29.494,3.1878 C25.62,4.913 23.845,9.3811 23.845,9.3811 C23.845,9.3811 28.353,11.0521 32.228,9.3269 C36.102,7.6017 37.877,3.1336 37.877,3.1336 C37.877,3.1336 33.369,1.4626 29.494,3.1878 Z" id="Oval-Copy-5"></path>
                                </g>
                                <g id="Group-4" transform="translate(91.000000, 0.000000)">
                                    <rect id="Rectangle" fill="#16B1E0" fill-rule="nonzero" x="0.5" y="60.8174" width="81.6" height="6" rx="3"></rect>
                                    <g id="Group-2" transform="translate(50.140000, 29.717450)">
                                        <g id="Group-3" transform="translate(0.220000, 0.880000)">
                                            <g id="Group" transform="translate(19.634191, 16.500498) scale(-1, 1) translate(-19.634191, -16.500498) translate(0.134191, 0.500498)">
                                                <path d="M38.28,4.62560953 L35.0479599,7.02927536 C34.7701346,5.99650462 34.3700321,5.04258239 33.859299,4.19218474 C35.7779636,4.37858399 38.28,4.62560953 38.28,4.62560953 Z" id="Combined-Shape" fill="#F47531"></path>
                                                <path d="M20.7021817,2.34583268 C20.2388091,2.79330001 15.2719279,7.4300018 10.452176,11.9231447 C5.697533,16.3575207 1.08663701,20.6542145 1.08663701,20.6542145 L1.09424714,20.6592516 C0.422018585,21.269587 -0.00668566346,22.1393359 -7.70837248e-05,23.114865 C0.0119168878,24.940834 1.51195897,26.4116834 3.35107483,26.4000691 C4.59829134,26.3923743 6.27759437,24.7233967 6.27759437,24.7233967 L12.5872415,17.8527164 C13.7794959,22.029358 18.4081489,24.3926235 22.570047,24.52275 C26.4072459,24.6436418 29.8639382,22.7840918 32.008305,20.6970303 C35.4066529,17.3926562 36.2564513,12.32108 35.2341565,7.82289994 C34.3091024,3.22817445 31.079023,-0.0291862184 26.4638992,0.000197189642 C24.219755,0.0144691307 22.1912314,0.906045684 20.7021817,2.34583268 Z" id="Fill-9" fill="#FBAB39"></path>
                                                <path d="M31.6799497,5.92713723 C31.6876705,7.02091649 30.8057842,7.91309721 29.7120049,7.91996014 C28.6190835,7.92682307 27.7269028,7.04665247 27.7200399,5.95201535 C27.7131769,4.85909396 28.5933475,3.96691324 29.6879847,3.96005031 C30.780906,3.95232952 31.6730868,4.83421585 31.6799497,5.92713723" id="Fill-11" fill="#FFFFFF"></path>
                                                <path d="M30.3124141,4.7486 C30.4180141,5.08652 30.2305741,5.44688 29.8926541,5.55248 C29.5534141,5.65808 29.1930541,5.46932 29.0874541,5.1314 C28.9818541,4.79216 29.1706141,4.43312 29.5098541,4.32752 C29.8464541,4.22192 30.2068141,4.41068 30.3124141,4.7486" id="Fill-15" fill="#FFFFFF"></path>
                                                <path d="M31.5848282,6.2172 C31.7960282,6.89304 31.4211482,7.61376 30.7453082,7.82496 C30.0668282,8.03616 29.3461082,7.65864 29.1349082,6.9828 C28.9237082,6.30432 29.3012282,5.58624 29.9797082,5.37504 C30.6529082,5.16384 31.3736282,5.54136 31.5848282,6.2172 Z" id="Stroke-17" fill="#F47531"></path>
                                                <path d="M21.784924,24.4722599 L21.827,28.0449509 L23.7537303,28.0274898 C24.1182218,28.0240271 24.4165076,28.3166988 24.4200006,28.6811903 C24.4231181,29.0125462 24.1815268,29.2891866 23.8637273,29.339348 L23.7662697,29.3474302 L22.902,29.3549509 L24.113072,30.1223799 C24.3902406,30.2978766 24.4921367,30.6456881 24.3675919,30.938002 L24.3176201,31.033072 C24.1421234,31.3102406 23.7943119,31.4121367 23.501998,31.2875919 L23.406928,31.2376201 L20.8270242,29.6040853 C20.7578034,29.5602563 20.6984366,29.5046762 20.6508752,29.44084 L20.2666905,29.8266905 C20.0089444,30.0844365 19.5910556,30.0844365 19.3333095,29.8266905 C19.1013381,29.594719 19.078141,29.2330319 19.2637181,28.9751173 L19.3333095,28.8933095 L20.504,27.7219509 L20.4626155,24.2723743 C20.9028442,24.3628263 21.3451024,24.4296149 21.784924,24.4722599 Z" id="Combined-Shape" fill="#F47531" fill-rule="nonzero"></path>
                                                <path d="M27.0516165,23.9745806 L27.0599517,24.0720169 L27.108,28.0449509 L29.0337303,28.0274898 C29.3982218,28.0240271 29.6965076,28.3166988 29.7000006,28.6811903 C29.7031181,29.0125462 29.4615268,29.2891866 29.1437273,29.339348 L29.0462697,29.3474302 L28.182,29.3549509 L29.3930701,30.1223787 C29.6702393,30.2978744 29.7721365,30.6456857 29.6475928,30.938 L29.5976213,31.0330701 C29.4221256,31.3102393 29.0743143,31.4121365 28.782,31.2875928 L28.6869299,31.2376213 L26.1070068,29.6040865 C26.0377854,29.5602574 25.978418,29.504677 25.9308563,29.4408404 L25.5466905,29.8266905 C25.2889444,30.0844365 24.8710556,30.0844365 24.6133095,29.8266905 C24.3813381,29.594719 24.358141,29.2330319 24.5437181,28.9751173 L24.6133095,28.8933095 L25.784,27.7219509 L25.7414578,24.1829104 C26.170883,24.0778642 26.5908163,23.9510882 26.9996001,23.8057007 C27.0243533,23.8575449 27.0420053,23.9146983 27.0516165,23.9745806 Z" id="Combined-Shape" fill="#F47531" fill-rule="nonzero"></path>
                                                <path d="M7.45330952,16.6933095 C7.71105556,16.4355635 8.12894444,16.4355635 8.38669048,16.6933095 C8.6186619,16.925281 8.64185905,17.2869681 8.4562819,17.5448827 L8.38669048,17.6266905 L1.78669048,24.2266905 C1.52894444,24.4844365 1.11105556,24.4844365 0.853309524,24.2266905 C0.621338095,23.994719 0.598140952,23.6330319 0.783718096,23.3751173 L0.853309524,23.2933095 L7.45330952,16.6933095 Z" id="Stroke-45" fill="#FFFFFF" fill-rule="nonzero"></path>
                                                <path d="M26.3656077,11.2207793 C26.6965873,11.2046814 26.9824599,11.4352743 27.0450054,11.7508702 L27.0586223,11.8981441 C27.0668307,12.2212864 27.0457115,12.6566981 26.9714867,13.1664716 C26.8576369,13.9483885 26.6413043,14.7242007 26.2955371,15.4551633 C25.3673475,17.4173854 23.6710986,18.731432 21.0993862,19.0512704 C18.2692351,19.4028795 16.0024666,18.7058178 14.2817009,17.3238852 C13.4264133,16.637011 12.8865191,15.9430749 12.6203399,15.454163 C12.4875873,15.210326 12.5229219,14.9134482 12.6994656,14.70831 L12.7722362,14.6359663 L15.7126632,12.1334195 C15.9902478,11.897172 16.4067909,11.9306824 16.6430384,12.208267 C16.8556611,12.4580931 16.8497799,12.8204756 16.6441183,13.0626782 L16.5681909,13.1386421 L14.079,15.256 L14.2511425,15.4670576 C14.4321543,15.6785717 14.6378358,15.8890418 14.8688095,16.0930452 L15.108237,16.2946923 C16.5584123,17.4593159 18.4714692,18.0476066 20.9365602,17.7413514 C23.0426678,17.4794193 24.3607946,16.4582955 25.1023013,14.8907271 C25.5586937,13.9258993 25.730727,12.9251842 25.7403566,12.1402096 L25.7385983,11.9169136 C25.7207419,11.547985 26.0015301,11.2384869 26.3656077,11.2207793 Z" id="Stroke-75" fill="#FFFFFF" fill-rule="nonzero"></path>
                                            </g>
                                        </g>
                                    </g>
                                    <g id="Group-10" transform="translate(44.000000, 0.000000)" fill="#8AD8EF">
                                        <g id="Group-8" transform="translate(0.000000, 16.000000)">
                                            <path d="M0.552,0.881592334 L0.641,0.8893 C0.872,0.9283 1.096,0.9808 1.312,1.0468 C1.462,1.0384 1.604,1.0923 1.71,1.1876 C2.376,1.4564 2.959,1.8661 3.453,2.4145 C4.291,3.3459 4.737,3.5844 5.458,3.5844 C5.762,3.5844 6.008,3.8307 6.008,4.1344 C6.008,4.4382 5.762,4.6844 5.458,4.6844 C4.392,4.6844 3.667,4.2962 2.635,3.1504 C2.452,2.9465 2.253,2.7679 2.04,2.6145 L2.958,9.1692 C3.328,9.2165 3.638,9.3779 3.824,9.654 C4.277,10.3255 3.827,11.4207 2.82,12.1001 C1.813,12.7796 0.629,12.786 0.176,12.1144 C-0.277,11.4429 0.172,10.3477 1.18,9.6683 C1.404,9.5173 1.636,9.3995 1.867,9.3151 L0.851,2.059 C0.724,2.025 0.593,1.9967 0.458,1.974 C0.159,1.9235 -0.043,1.6398 0.007,1.3403 C0.053,1.0707 0.287,0.8802 0.552,0.881592334 Z" id="Combined-Shape"></path>
                                        </g>
                                        <g id="Group-8-Copy" transform="translate(6.000000, 0.000000)">
                                            <path d="M6.073,0.286395 L5.984,0.29101 C5.751,0.321898 5.526,0.366584 5.308,0.425006 C5.158,0.411364 5.014,0.460227 4.905,0.551804 C4.229,0.797138 3.633,1.1863 3.12,1.71716 C2.25,2.61866 1.796,2.84153 1.075,2.81637 C0.772,2.80577 0.517,3.04327 0.507,3.34684 C0.496,3.65041 0.734,3.9051 1.037,3.9157 C2.102,3.9529 2.841,3.5902 3.912,2.48112 C4.102,2.28369 4.307,2.11215 4.526,1.96628 L3.373,8.52351 C3.003,8.55881 2.69,8.70923 2.496,8.97728 C2.02,9.6326 2.43,10.7428 3.413,11.457 C4.396,12.1711 5.579,12.2189 6.055,11.5635 C6.531,10.9082 6.121,9.79802 5.138,9.08385 C4.918,8.92398 4.687,8.7975 4.458,8.70483 L5.733,1.4526 C5.861,1.42314 5.993,1.39942 6.128,1.38143 C6.43,1.34142 6.641,1.06489 6.601,0.763776 C6.565,0.492777 6.338,0.294229 6.073,0.286395 Z" id="Combined-Shape_2"></path>
                                        </g>
                                    </g>
                                    <path d="M18.9,63.2166 L10.1,63.2166 C9.437,63.2166 8.8999,63.7538 8.8999,64.4166 C8.8999,65.0793 9.437,65.6166 10.1,65.6166 L18.9,65.6166 L18.9,63.2166 Z M20.9,65.6166 L29.7,65.6166 C30.363,65.6166 30.9,65.0793 30.9,64.4166 C30.9,63.7538 30.363,63.2166 29.7,63.2166 L20.9,63.2166 L20.9,65.6166 Z" id="Combined-Shape_3" fill="#9ECFE3"></path>
                                </g>
                                <g id="Group-6" opacity="0.8" transform="translate(44.000000, 52.000000)" fill="#6CBD45" fill-rule="nonzero">
                                    <polygon id="Path-4_2" points="0.7125 6.3604 0.2891 7.4832 21.858 15.6161 22.2814 14.4933"></polygon>
                                    <polygon id="Path-5_2" points="14.3665 0.9553 14.2801 12.3392 15.4801 12.3483 15.5665 0.9644"></polygon>
                                </g>
                            </g>
                        </g>
                    </g>
                </g>
            </g>
        </g>
    </g>
</svg>