<?xml version="1.0" encoding="UTF-8"?>
<svg xmlns="http://www.w3.org/2000/svg" viewBox="0 0 141 207.05">
   <defs>
      <style type="text/css">.cls-1,.cls-15,.cls-17{fill:#f37531;}.cls-1,.cls-11,.cls-14,.cls-2,.cls-8{opacity:0.25;}.cls-2,.cls-3,.cls-7{fill:#19b0de;}.cls-12,.cls-3,.cls-4,.cls-9{opacity:0.5;}.cls-13,.cls-16,.cls-5,.cls-6,.cls-8,.cls-9{fill:none;}.cls-5,.cls-6,.cls-8,.cls-9{stroke:#19b0de;}.cls-5{stroke-miterlimit:10;}.cls-13,.cls-16,.cls-6,.cls-8,.cls-9{stroke-linecap:round;stroke-linejoin:round;}.cls-10,.cls-11,.cls-12{fill:#48e13d;}.cls-13{stroke:#48e13d;}.cls-16{stroke:#f37531;}.cls-17{opacity:0.3;}</style>
   </defs>
   <title>emptyHiddenFilter</title>
   <g id="emptyHiddenFilter" data-name="Layer 2">
      <g id="working_files" data-name="working files">
         <path class="cls-1" d="M59.75,149.71a9.93,9.93,0,0,1-5.54-2.51c-2.16-1.95-3.74-4.18-3.74-7.46,0-.94-1.5-2.37-.33-4.7.08-.15,1.24,1.58,1.3,1.43.4-1-.22-2.5,1.06-3.83.15-.16.78,1,.92.82,1.54-1.61,3.21-2.3,3.29-1.63a12.26,12.26,0,0,0-2.62,7.42c0,3.76,3.12,5.58,5.86,6.11" />
         <path class="cls-2" d="M117.78,40.07H23.22a1.51,1.51,0,0,1-1-2.65L36.86,24.85a1.48,1.48,0,0,1,1-.37h65.31a1.5,1.5,0,0,1,1,.37l14.63,12.57A1.51,1.51,0,0,1,117.78,40.07Z" />
         <path class="cls-3" d="M22.29,39.79h96.22l-13.06,9.35a1.94,1.94,0,0,1-1.13.35H36.49a2,2,0,0,1-1.14-.35Z" />
         <g class="cls-4">
            <path class="cls-2" d="M103.47,24.4C100.21,9.72,86.69.5,70.5.5s-29.71,9.22-33,23.9Z" />
         </g>
         <path class="cls-5" d="M117.78,40.07H23.22a1.51,1.51,0,0,1-1-2.65L36.86,24.85a1.48,1.48,0,0,1,1-.37h65.31a1.5,1.5,0,0,1,1,.37l14.63,12.57A1.51,1.51,0,0,1,117.78,40.07Z" />
         <path class="cls-6" d="M22.29,39.79h96.22l-13.06,9.35a1.94,1.94,0,0,1-1.13.35H36.49a2,2,0,0,1-1.14-.35Z" />
         <g class="cls-4">
            <path class="cls-5" d="M103.47,24.4C100.21,9.72,86.69.5,70.5.5s-29.71,9.22-33,23.9Z" />
         </g>
         <circle class="cls-7" cx="39.22" cy="44.7" r="1.45" />
         <circle class="cls-7" cx="55.01" cy="44.7" r="1.45" />
         <circle class="cls-7" cx="70.8" cy="44.7" r="1.45" />
         <circle class="cls-7" cx="70.83" cy="44.7" r="1.45" />
         <circle class="cls-7" cx="86.62" cy="44.7" r="1.45" />
         <circle class="cls-7" cx="102.41" cy="44.7" r="1.45" />
         <line class="cls-8" x1="72.06" y1="55.81" x2="72.06" y2="88.98" />
         <line class="cls-8" x1="55.74" y1="60.93" x2="54.41" y2="76.82" />
         <line class="cls-8" x1="52.88" y1="89.66" x2="52.15" y2="98.4" />
         <line class="cls-9" x1="41.27" y1="55.86" x2="37.05" y2="95.51" />
         <line class="cls-9" x1="33.91" y1="121.4" x2="30.51" y2="153.32" />
         <path class="cls-10" d="M86.3,83.5a6.48,6.48,0,0,1-1.12,0,6.18,6.18,0,0,1-2.77-1,6.24,6.24,0,0,1-2-2.25,6.46,6.46,0,0,1-.7-2.19,6.48,6.48,0,0,1,1.12,0,6.22,6.22,0,0,1,2.77,1,6.33,6.33,0,0,1,2,2.25A6.24,6.24,0,0,1,86.3,83.5Z" />
         <path class="cls-10" d="M98.74,128.18a6.42,6.42,0,0,1-1.09-.29,6.1,6.1,0,0,1-2.48-1.55,6.22,6.22,0,0,1-1.51-2.64,6.71,6.71,0,0,1-.2-2.3,6.19,6.19,0,0,1,1.09.29A6.1,6.1,0,0,1,97,123.24a6.36,6.36,0,0,1,1.51,2.65A6,6,0,0,1,98.74,128.18Z" />
         <path class="cls-11" d="M88.25,188.16a5.74,5.74,0,0,1,.18-1.1,6,6,0,0,1,1.28-2.63,6.21,6.21,0,0,1,4.74-2.21,5.74,5.74,0,0,1-.18,1.1A6,6,0,0,1,93,186a6.31,6.31,0,0,1-2.48,1.78A5.86,5.86,0,0,1,88.25,188.16Z" />
         <path class="cls-10" d="M28.87,183a6.71,6.71,0,0,1,.17-1.11,6.08,6.08,0,0,1,1.28-2.63,6.25,6.25,0,0,1,2.47-1.78,6.33,6.33,0,0,1,2.26-.44,6.71,6.71,0,0,1-.17,1.11,6.08,6.08,0,0,1-1.28,2.63,6.35,6.35,0,0,1-2.47,1.78A6.15,6.15,0,0,1,28.87,183Z" />
         <path class="cls-12" d="M102.07,114.44a6.57,6.57,0,0,1-.32-1.08,6,6,0,0,1,0-2.92,6.14,6.14,0,0,1,1.46-2.68,6.62,6.62,0,0,1,1.85-1.37,6.28,6.28,0,0,1,.32,1.08,6,6,0,0,1,0,2.92,6.21,6.21,0,0,1-3.31,4Z" />
         <path class="cls-11" d="M85,70a9.88,9.88,0,0,1,0-1.79,9.71,9.71,0,0,1,1.42-4.47,10,10,0,0,1,3.51-3.39A10.18,10.18,0,0,1,93.4,59.1a9,9,0,0,1,0,1.79A9.79,9.79,0,0,1,92,65.36a10.27,10.27,0,0,1-3.51,3.39A9.79,9.79,0,0,1,85,70Z" />
         <path class="cls-11" d="M26.31,161.49A9.56,9.56,0,0,1,28,162a9.77,9.77,0,0,1,4,2.5,10,10,0,0,1,2.4,4.24,10.35,10.35,0,0,1,.3,3.67A9.18,9.18,0,0,1,33,171.9a9.52,9.52,0,0,1-4-2.49,10.11,10.11,0,0,1-2.4-4.25A9.73,9.73,0,0,1,26.31,161.49Z" />
         <path class="cls-11" d="M43.42,102.54a8.8,8.8,0,0,0-1.73.47,9.6,9.6,0,0,0-4,2.49,10,10,0,0,0-2.4,4.25,10.34,10.34,0,0,0-.3,3.67,11,11,0,0,0,1.73-.47,9.69,9.69,0,0,0,4-2.5,10,10,0,0,0,2.4-4.25A9.68,9.68,0,0,0,43.42,102.54Z" />
         <line class="cls-8" x1="71.76" y1="174.98" x2="71.76" y2="196.3" />
         <line class="cls-8" x1="46.05" y1="155.15" x2="43.49" y2="185.22" />
         <line class="cls-8" x1="91.35" y1="88.98" x2="92.02" y2="97.72" />
         <line class="cls-9" x1="102.29" y1="55.81" x2="106.45" y2="94.89" />
         <line class="cls-9" x1="109.6" y1="120.79" x2="113" y2="152.7" />
         <line class="cls-8" x1="97.65" y1="155.09" x2="100.12" y2="185.19" />
         <path class="cls-12" d="M52.31,202.19a9.15,9.15,0,0,1,.15-1.79A9.61,9.61,0,0,1,54.18,196a10.14,10.14,0,0,1,3.73-3.14,10.39,10.39,0,0,1,3.55-1,11,11,0,0,1-1.86,6.15,10.21,10.21,0,0,1-3.74,3.14A9.74,9.74,0,0,1,52.31,202.19Z" />
         <path class="cls-10" d="M115.08,205.63a6,6,0,0,0,.06-1.13,6.15,6.15,0,0,0-.72-2.87,6.37,6.37,0,0,0-2.08-2.27,6.49,6.49,0,0,0-2.15-.9,6,6,0,0,0-.06,1.13,6.2,6.2,0,0,0,.73,2.87,6.27,6.27,0,0,0,2.08,2.27A6.05,6.05,0,0,0,115.08,205.63Z" />
         <line class="cls-13" x1="0.5" y1="206.55" x2="140.5" y2="206.55" />
         <path class="cls-11" d="M115.87,205.65a4.29,4.29,0,0,0,.82-.38,4.88,4.88,0,0,0,1.77-1.57,5.07,5.07,0,0,0,.84-2.31,5.29,5.29,0,0,0-.16-1.85,4.84,4.84,0,0,0-.82.37,4.95,4.95,0,0,0-2.61,3.89A4.82,4.82,0,0,0,115.87,205.65Z" />
         <g class="cls-14">
            <path class="cls-15" d="M81.61,110.89l0,0,.48,1c2.55-.85,5.23-5.16,5.07-6.94,0-1.65-1.61-5.34-1.61-5.34-2.6-6.71-4.74-1.48-6.84,5l.12.26c-2.22-2.35-6.43-2.83-9.28-1.53h0l-.15.08c-.15.07-.29.15-.43.23l-.45.24.17-.4c-2.47-3.21-12,3.56-11.84,5.74,0,1.65,1.6,5.34,1.6,5.34,2.07,5.32,4.35,3.13,6.25-1.23l.24.83c-1.07,7.09-4.43,29.27-4.74,31.34-.79,5.29-1,9.83,4.42,11.58v9a3.46,3.46,0,1,0,6.92,0v-8.69h3.71v8.69a3.47,3.47,0,1,0,6.93,0v-9c4.4-1.18,5.63-5.76,4.62-10.49Z" />
         </g>
         <path class="cls-16" d="M71.58,118.53v1.28a1.28,1.28,0,0,0,1.28,1.28h0a1.28,1.28,0,0,0,1.29-1.28v-1.42" />
         <path class="cls-16" d="M81.45,109.83l5.39,36.76c1,4.73-.22,9.31-4.62,10.49v9a3.47,3.47,0,1,1-6.93,0v-8.69H71.58v8.69a3.46,3.46,0,1,1-6.92,0v-9c-5.44-1.75-5.21-6.29-4.42-11.58.37-2.46,5.07-33.5,5.07-33.5" />
         <path class="cls-16" d="M81.36,131.45v10.9A2.68,2.68,0,0,1,78.69,145h0A2.69,2.69,0,0,1,76,142.35v-13" />
         <path class="cls-16" d="M65.7,131.45v10.9A2.69,2.69,0,0,0,68.38,145h0a2.69,2.69,0,0,0,2.68-2.68v-13" />
         <path class="cls-16" d="M79.34,105.4c-2.68-3.67-9.75-3.68-12-.23" />
         <path class="cls-16" d="M69.59,117.23a1.93,1.93,0,0,0,1.58,1,2,2,0,0,0,1.69-1.66h0a1.9,1.9,0,0,0,1.72,1.57,2,2,0,0,0,1.57-1" />
         <ellipse class="cls-15" cx="72.89" cy="115.06" rx="2.38" ry="1.52" transform="translate(-1.85 1.19) rotate(-0.93)" />
         <ellipse class="cls-17" cx="76.59" cy="110.41" rx="2.58" ry="3.49" transform="translate(-36.51 37.84) rotate(-22.56)" />
         <path class="cls-16" d="M82.13,111.89c2.55-.85,5.23-5.16,5.07-6.94,0-1.65-1.61-5.34-1.61-5.34-2.6-6.71-4.74-1.48-6.84,5" />
         <path class="cls-16" d="M68.73,103.48c-2.47-3.21-12,3.56-11.84,5.74,0,1.65,1.6,5.34,1.6,5.34,2.61,6.71,5.55,1.48,7.65-5" />
         <path class="cls-16" d="M59.75,149.71a9.93,9.93,0,0,1-5.54-2.51c-2.16-1.95-3.74-4.18-3.74-7.46,0-.94-1.5-2.37-.33-4.7.08-.15,1.24,1.58,1.3,1.43.4-1-.22-2.5,1.06-3.83.15-.16.78,1,.92.82,1.54-1.61,3.21-2.3,3.29-1.63a12.26,12.26,0,0,0-2.62,7.42c0,3.76,3.12,5.58,5.86,6.11" />
         <ellipse class="cls-15" cx="69.54" cy="110.92" rx="1.18" ry="1.14" transform="matrix(0.99, -0.11, 0.11, 0.99, -11.93, 8.45)" />
         <ellipse class="cls-15" cx="76.73" cy="110.92" rx="1.14" ry="1.18" transform="translate(-42.06 174.8) rotate(-83.6)" />
         <line class="cls-16" x1="70.46" y1="107.55" x2="67.85" y2="107.98" />
         <line class="cls-16" x1="75.82" y1="107.55" x2="78.44" y2="107.98" />
      </g>
   </g>
</svg>

