<?xml version="1.0" encoding="UTF-8"?>
<svg xmlns="http://www.w3.org/2000/svg" viewBox="0 0 138.4 202.4">
   <defs>
      <style type="text/css">.cls-1,.cls-11{fill:#00b8f1;}.cls-2{fill:#fff;}.cls-11,.cls-16,.cls-3,.cls-5,.cls-6{opacity:0.5;}.cls-4,.cls-5{fill:#19b0de;}.cls-6,.cls-8,.cls-9{fill:#48e33d;}.cls-10,.cls-12,.cls-14,.cls-16,.cls-7{fill:none;stroke-linecap:round;}.cls-7{stroke:#48e33d;}.cls-10,.cls-14,.cls-16,.cls-7{stroke-linejoin:round;}.cls-9{opacity:0.25;}.cls-10,.cls-12,.cls-16{stroke:#00b8f1;}.cls-12{stroke-miterlimit:10;}.cls-13{fill:#ffac38;}.cls-14{stroke:#d67f04;}.cls-15{fill:#d67f04;}</style>
   </defs>
   <title>emptySpacesFilter</title>
   <g id="emptySpacesFilter" data-name="Layer 2">
      <g id="Layer_1-2" data-name="Layer 1">
         <path class="cls-1" d="M103.32,192.75a7.71,7.71,0,0,0,5.47,2.24c2.41-.08,5.1-1.46,5.79-3.9l3.66,4s1,1,1.69,1a1.92,1.92,0,0,0,1.31-3.35h0l-5.43-5.1c-2.8-2.63-5.68-5.33-5.95-5.6a4.82,4.82,0,0,0-3.34-1.37c-2.67,0-4.55,1.89-5.08,4.57A8,8,0,0,0,103.32,192.75ZM117,190.41a.2.2,0,0,1,.28,0l3.66,3.44a.2.2,0,0,1,0,.28.21.21,0,0,1-.15.07.16.16,0,0,1-.13-.06L117,190.69A.19.19,0,0,1,117,190.41Zm-10.37-3a.19.19,0,0,1,.2-.19.2.2,0,0,1,.19.21c0,.13-.11,3.18,2.87,3.55A4.11,4.11,0,0,0,114,189.3L112.48,188a.2.2,0,0,1,0-.28.19.19,0,0,1,.28,0l1.67,1.44a.19.19,0,0,1,0,.24,4.39,4.39,0,0,1-3.86,2,6.91,6.91,0,0,1-.76,0C106.49,190.91,106.61,187.41,106.62,187.37Z" />
         <circle class="cls-2" cx="105.06" cy="184.07" r="1.13" />
         <g class="cls-3">
            <path class="cls-4" d="M104.56,184.54a.64.64,0,0,1-.2,0,.66.66,0,1,1,.78-.93.67.67,0,0,1-.28.89A.66.66,0,0,1,104.56,184.54Z" />
         </g>
         <path class="cls-5" d="M102.16,183.06l-1.82.19,1.2,1.14" />
         <path class="cls-6" d="M105.53,101.76a11.71,11.71,0,0,0,1.67-1.31,11.51,11.51,0,0,0,3.14-4.55,12,12,0,0,0,.64-5.73,12.22,12.22,0,0,0-1.38-4.12,11.19,11.19,0,0,0-1.66,1.32,11.45,11.45,0,0,0-3.15,4.54,11.89,11.89,0,0,0-.63,5.73A11.66,11.66,0,0,0,105.53,101.76Z" />
         <line class="cls-7" x1="89.44" y1="128.96" x2="132.17" y2="94.4" />
         <line class="cls-7" x1="101.67" y1="119.76" x2="110.92" y2="121.93" />
         <path class="cls-8" d="M103.41,103.1a5.81,5.81,0,0,1-1.2-.29,6.54,6.54,0,0,1-2.77-1.64,6.93,6.93,0,0,1-1.73-2.87,7.1,7.1,0,0,1-.27-2.52,7.76,7.76,0,0,1,1.2.29,6.83,6.83,0,0,1,2.77,1.64,7,7,0,0,1,1.72,2.88A6.68,6.68,0,0,1,103.41,103.1Z" />
         <line class="cls-7" x1="124.24" y1="100.61" x2="126.4" y2="91.36" />
         <line class="cls-7" x1="101.27" y1="119.22" x2="104.93" y2="103.57" />
         <path class="cls-9" d="M117,108.68a7.61,7.61,0,0,1,4.36-.67,6.82,6.82,0,0,1,4.71,3.29,6.34,6.34,0,0,1-1.15.44,6.65,6.65,0,0,1-3.21.23,7,7,0,0,1-3-1.38A6.71,6.71,0,0,1,117,108.68Z" />
         <line class="cls-7" x1="89.32" y1="41.58" x2="89.32" y2="201.9" />
         <line class="cls-7" x1="125.27" y1="42.71" x2="89.39" y2="70.51" />
         <path class="cls-6" d="M91.65,41.39a6.83,6.83,0,0,1,.26-1.16,6.43,6.43,0,0,1,1.52-2.69,6.64,6.64,0,0,1,2.72-1.71,6.77,6.77,0,0,1,2.41-.32,6.63,6.63,0,0,1-.26,1.16,6.38,6.38,0,0,1-1.51,2.69,6.62,6.62,0,0,1-2.73,1.71A6.32,6.32,0,0,1,91.65,41.39Z" />
         <path class="cls-9" d="M89.35,39.87a10.24,10.24,0,0,1-1.06-1.39A9.48,9.48,0,0,1,86.7,34.2a9.76,9.76,0,0,1,.66-4.71,10.06,10.06,0,0,1,1.94-3,10.24,10.24,0,0,1,1.06,1.39A9.48,9.48,0,0,1,92,32.14a9.9,9.9,0,0,1-.66,4.71A9.45,9.45,0,0,1,89.35,39.87Z" />
         <line class="cls-7" x1="102.51" y1="60.35" x2="111.76" y2="62.51" />
         <path class="cls-6" d="M65.9,191.38a9.56,9.56,0,0,0,.29,1.79,10,10,0,0,0,2.11,4.23,10.06,10.06,0,0,0,4,2.84,10.51,10.51,0,0,0,3.65.67,9.5,9.5,0,0,0-.3-1.78,9.75,9.75,0,0,0-2.1-4.24,10.14,10.14,0,0,0-4-2.84A9.84,9.84,0,0,0,65.9,191.38Z" />
         <path class="cls-6" d="M77.79,179a9.5,9.5,0,0,0,.3,1.78,9.75,9.75,0,0,0,2.1,4.24,10.14,10.14,0,0,0,4,2.84,10.51,10.51,0,0,0,3.65.67,9.56,9.56,0,0,0-.29-1.79,10,10,0,0,0-2.11-4.23,10.06,10.06,0,0,0-4-2.84A9.64,9.64,0,0,0,77.79,179Z" />
         <path class="cls-8" d="M83.6,188.56a9.55,9.55,0,0,0-1.63.78,9.77,9.77,0,0,0-3.5,3.19,10.24,10.24,0,0,0-1.62,4.65,10.41,10.41,0,0,0,.36,3.7,9.59,9.59,0,0,0,1.64-.78,9.85,9.85,0,0,0,3.49-3.19A10.06,10.06,0,0,0,84,192.26,9.73,9.73,0,0,0,83.6,188.56Z" />
         <path class="cls-9" d="M76.14,175.94a10.69,10.69,0,0,0-1.67.72,9.82,9.82,0,0,0-3.6,3.06,10.08,10.08,0,0,0-1.79,4.59A10.41,10.41,0,0,0,69.3,188,10.65,10.65,0,0,0,71,187.3a9.8,9.8,0,0,0,3.61-3.06,10.14,10.14,0,0,0,1.79-4.59A9.74,9.74,0,0,0,76.14,175.94Z" />
         <path class="cls-6" d="M101.37,191.53a9.67,9.67,0,0,0-1.8.18,9.77,9.77,0,0,0-4.37,1.81,10.18,10.18,0,0,0-3.11,3.82,10.65,10.65,0,0,0-.92,3.6,9.61,9.61,0,0,0,1.81-.17A9.79,9.79,0,0,0,97.34,199a10.24,10.24,0,0,0,3.11-3.83A9.77,9.77,0,0,0,101.37,191.53Z" />
         <path class="cls-6" d="M117.37,196.8a5.7,5.7,0,0,0-1-.15,5.84,5.84,0,0,0-2.72.43,6,6,0,0,0-2.28,1.74,6.14,6.14,0,0,0-1,1.91,5.82,5.82,0,0,0,1.05.14,5.56,5.56,0,0,0,2.71-.43,5.82,5.82,0,0,0,3.29-3.64Z" />
         <path class="cls-6" d="M113.85,185.78a5.9,5.9,0,0,1,2.2,0,5.77,5.77,0,0,1,2.49,1.16,5.39,5.39,0,0,1,.79.71,5.86,5.86,0,0,1-1.91,1l-.39.1Z" />
         <path class="cls-6" d="M66.46,188.88a5.34,5.34,0,0,0-.14-1,5.78,5.78,0,0,0-1.16-2.5,6.06,6.06,0,0,0-2.3-1.71,6.27,6.27,0,0,0-2.11-.45,4.85,4.85,0,0,0,.15,1,5.71,5.71,0,0,0,1.15,2.49,5.86,5.86,0,0,0,2.3,1.71A5.6,5.6,0,0,0,66.46,188.88Z" />
         <path class="cls-6" d="M65.57,184.32a5.88,5.88,0,0,0,.07-1A5.67,5.67,0,0,0,65,180.6a5.86,5.86,0,0,0-3.88-3,7,7,0,0,0-.07,1,5.65,5.65,0,0,0,.63,2.68,5.89,5.89,0,0,0,1.89,2.14A5.63,5.63,0,0,0,65.57,184.32Z" />
         <path class="cls-8" d="M26,201.05a5.29,5.29,0,0,0,.06-1.05,5.75,5.75,0,0,0-.67-2.67,6,6,0,0,0-1.94-2.11,6.17,6.17,0,0,0-2-.84,6.33,6.33,0,0,0-.05,1.05A5.82,5.82,0,0,0,26,201.05Z" />
         <path class="cls-8" d="M69.39,200.12a6.1,6.1,0,0,0-.7-.79,5.68,5.68,0,0,0-2.33-1.45,5.83,5.83,0,0,0-2.86-.17,5.89,5.89,0,0,0-2,.78,5.25,5.25,0,0,0,.69.79,5.66,5.66,0,0,0,2.34,1.45,5.91,5.91,0,0,0,4.87-.61Z" />
         <path class="cls-9" d="M100.94,188.21a6.55,6.55,0,0,0-1-.15,5.76,5.76,0,0,0-2.72.41,6,6,0,0,0-2.28,1.73,6.15,6.15,0,0,0-1,1.9,5.7,5.7,0,0,0,1,.15,5.62,5.62,0,0,0,2.72-.41,5.94,5.94,0,0,0,2.29-1.72A5.71,5.71,0,0,0,100.94,188.21Z" />
         <path class="cls-9" d="M112.21,184.24a.94.94,0,0,0,0-.16,5.93,5.93,0,0,0-.13-2.86,5.5,5.5,0,0,0-1-1.92,5.62,5.62,0,0,0-.71.77,5.56,5.56,0,0,0-.94,1.6Z" />
         <path class="cls-9" d="M127.32,194.19a5.41,5.41,0,0,0-1,.36,5.65,5.65,0,0,0-2.2,1.64,6,6,0,0,0-1.2,2.6,5.89,5.89,0,0,0,0,2.16,6.54,6.54,0,0,0,3.19-2,6,6,0,0,0,1.2-2.6A5.72,5.72,0,0,0,127.32,194.19Z" />
         <path class="cls-8" d="M88.52,197.65a6.13,6.13,0,0,0-1-.29,5.72,5.72,0,0,0-2.75,0,5.8,5.8,0,0,0-2.5,1.4A6,6,0,0,0,81,200.56a6.29,6.29,0,0,0,1,.29,5.68,5.68,0,0,0,2.74,0,5.75,5.75,0,0,0,2.5-1.4A5.67,5.67,0,0,0,88.52,197.65Z" />
         <path class="cls-8" d="M76.89,168.29a5.56,5.56,0,0,0,0,1.05A5.71,5.71,0,0,0,77.8,172,5.85,5.85,0,0,0,82,174.57a6.61,6.61,0,0,0,0-1,5.77,5.77,0,0,0-.88-2.6,5.91,5.91,0,0,0-2.1-1.95A5.62,5.62,0,0,0,76.89,168.29Z" />
         <path class="cls-6" d="M90.56,173.57a5.35,5.35,0,0,0,.93-.49,5.85,5.85,0,0,0,1.94-2,5.87,5.87,0,0,0,.5-4.88,5.35,5.35,0,0,0-.93.49,5.85,5.85,0,0,0-1.94,1.95,5.92,5.92,0,0,0-.81,2.74A5.55,5.55,0,0,0,90.56,173.57Z" />
         <path class="cls-6" d="M85,189.11a7,7,0,0,0-.31,1,5.83,5.83,0,0,0,0,2.75,5.86,5.86,0,0,0,3.1,3.81,6,6,0,0,0,.3-1,5.65,5.65,0,0,0,0-2.75,5.93,5.93,0,0,0-1.37-2.51A5.83,5.83,0,0,0,85,189.11Z" />
         <path class="cls-8" d="M70.22,189.35a6.39,6.39,0,0,0,1,.39,5.77,5.77,0,0,0,2.74.23,5.93,5.93,0,0,0,2.62-1.14A6.07,6.07,0,0,0,78,187.22a4.72,4.72,0,0,0-1-.39,5.65,5.65,0,0,0-2.74-.24,5.89,5.89,0,0,0-2.63,1.15A5.65,5.65,0,0,0,70.22,189.35Z" />
         <path class="cls-8" d="M111.69,188.06a6.54,6.54,0,0,0-2.17,3.08,5.84,5.84,0,0,0-.11,2.86,6.25,6.25,0,0,0,.82,2,5.15,5.15,0,0,0,.78-.71,5.74,5.74,0,0,0,1.4-2.37,5.82,5.82,0,0,0,.11-2.86A5.54,5.54,0,0,0,111.69,188.06Z" />
         <path class="cls-9" d="M94.5,184.18a6,6,0,0,0-1,.43,5.67,5.67,0,0,0-2.08,1.81,6,6,0,0,0-1,2.67,6.08,6.08,0,0,0,.16,2.16,6.46,6.46,0,0,0,1-.43,5.68,5.68,0,0,0,2.07-1.8,5.83,5.83,0,0,0,1-2.68A5.66,5.66,0,0,0,94.5,184.18Z" />
         <path class="cls-9" d="M49.67,185.83a6,6,0,0,0-1,.43,5.69,5.69,0,0,0-2.08,1.8,6.08,6.08,0,0,0-1,2.68,6.32,6.32,0,0,0,.16,2.16,6.46,6.46,0,0,0,1-.43A5.7,5.7,0,0,0,49.82,188,5.62,5.62,0,0,0,49.67,185.83Z" />
         <path class="cls-8" d="M121.45,190.65a5.58,5.58,0,0,0-.54.91,5.71,5.71,0,0,0-.67,2.66,5.89,5.89,0,0,0,.7,2.78,6.43,6.43,0,0,0,1.36,1.68,6.32,6.32,0,0,0,.55-.91,5.71,5.71,0,0,0,.67-2.66,6.08,6.08,0,0,0-.71-2.78A5.76,5.76,0,0,0,121.45,190.65Z" />
         <path class="cls-6" d="M102,183.58c0,.07-.1.11-.14.16l.31-.68-1.82.19,1,.94a6.34,6.34,0,0,1-.94.62,5.44,5.44,0,0,1-1,.42,6,6,0,0,1-.15-2.15,5.78,5.78,0,0,1,1-2.68,5.58,5.58,0,0,1,2.07-1.8,5.15,5.15,0,0,1,1-.43,5.79,5.79,0,0,1,.16,2.15,6.12,6.12,0,0,1-.54,1.88A5.52,5.52,0,0,0,102,183.58Z" />
         <line class="cls-7" x1="7.12" y1="201.9" x2="137.12" y2="201.9" />
         <path class="cls-8" d="M102.61,188.69a10.49,10.49,0,0,0-.21,1.8,10,10,0,0,0,.86,4.66,10.24,10.24,0,0,0,3.09,3.83,10.45,10.45,0,0,0,3.33,1.66,10.49,10.49,0,0,0,.21-1.8,10,10,0,0,0-.86-4.66,10.16,10.16,0,0,0-3.09-3.83A9.76,9.76,0,0,0,102.61,188.69Z" />
         <path class="cls-6" d="M69.11,151.3a9,9,0,0,1-.12,1.81,9.79,9.79,0,0,1-1.67,4.43,10.28,10.28,0,0,1-3.73,3.22,10.39,10.39,0,0,1-3.57,1,10.76,10.76,0,0,1,.12-1.81,9.81,9.81,0,0,1,1.68-4.42,10.12,10.12,0,0,1,3.72-3.22A9.86,9.86,0,0,1,69.11,151.3Z" />
         <path class="cls-8" d="M68.68,150.05a7.14,7.14,0,0,1-1.12.52,6.69,6.69,0,0,1-3.19.45,7,7,0,0,1-3.14-1.17,7.17,7.17,0,0,1-1.78-1.79,5.87,5.87,0,0,1,1.11-.52,6.57,6.57,0,0,1,3.19-.45,6.93,6.93,0,0,1,3.14,1.17A6.47,6.47,0,0,1,68.68,150.05Z" />
         <path class="cls-8" d="M85.77,137.59a6.43,6.43,0,0,1-.4,1.16,6.66,6.66,0,0,1-1.88,2.62,6.83,6.83,0,0,1-5.55,1.5,6.43,6.43,0,0,1,.4-1.16,6.66,6.66,0,0,1,1.88-2.62,7.07,7.07,0,0,1,3-1.46A6.74,6.74,0,0,1,85.77,137.59Z" />
         <line class="cls-7" x1="89.32" y1="91.76" x2="73.04" y2="78.58" />
         <line class="cls-7" x1="80.86" y1="84.91" x2="71.61" y2="87.07" />
         <path class="cls-6" d="M71.7,77.6a12.42,12.42,0,0,1-2.12-.13,11.52,11.52,0,0,1-5.18-1.94,11.94,11.94,0,0,1-3.79-4.34A12.36,12.36,0,0,1,59.39,67a13,13,0,0,1,7.29,2.07,11.85,11.85,0,0,1,3.79,4.34A11.54,11.54,0,0,1,71.7,77.6Z" />
         <path class="cls-9" d="M62.46,83.91a5.28,5.28,0,0,1,1-.29,5.69,5.69,0,0,1,2.75,0,6,6,0,0,1,2.5,1.4A6.16,6.16,0,0,1,70,86.81a6.44,6.44,0,0,1-1,.29,5.69,5.69,0,0,1-2.75,0,5.93,5.93,0,0,1-2.5-1.41A5.65,5.65,0,0,1,62.46,83.91Z" />
         <path class="cls-8" d="M74.39,67.65a5.71,5.71,0,0,0-.85.89,6.56,6.56,0,0,0-1.43,2.89,6.9,6.9,0,0,0,.11,3.35A7.29,7.29,0,0,0,73.36,77a6.37,6.37,0,0,0,.85-.9,6.67,6.67,0,0,0,1.43-2.88,6.82,6.82,0,0,0-.12-3.35A6.51,6.51,0,0,0,74.39,67.65Z" />
         <line class="cls-7" x1="70.05" y1="150.08" x2="80.62" y2="146.81" />
         <path class="cls-9" d="M113.1,63a7.47,7.47,0,0,1,1.15-.45,6.75,6.75,0,0,1,6.27,1.16,7.2,7.2,0,0,1,1.66,1.9A6.56,6.56,0,0,1,121,66a6.67,6.67,0,0,1-3.21.23,7,7,0,0,1-3.06-1.38A6.85,6.85,0,0,1,113.1,63Z" />
         <path class="cls-9" d="M75,134.51a5,5,0,0,0-.4,1,5.7,5.7,0,0,0-.25,2.74,5.92,5.92,0,0,0,1.13,2.62,6.16,6.16,0,0,0,1.6,1.45,5.43,5.43,0,0,0,.4-1,5.69,5.69,0,0,0,.24-2.73A5.76,5.76,0,0,0,76.59,136,5.61,5.61,0,0,0,75,134.51Z" />
         <path class="cls-8" d="M96.84,200.58a5.54,5.54,0,0,0,.8.25,4.55,4.55,0,0,0,2.2,0,4.66,4.66,0,0,0,2-1.07,4.85,4.85,0,0,0,1-1.37,4.42,4.42,0,0,0-.8-.26,4.67,4.67,0,0,0-2.2,0,4.76,4.76,0,0,0-2,1.08A4.37,4.37,0,0,0,96.84,200.58Z" />
         <path class="cls-6" d="M131.1,196.17a3.5,3.5,0,0,0,.09.83,4.46,4.46,0,0,0,.85,2,4.82,4.82,0,0,0,1.79,1.43,4.9,4.9,0,0,0,1.67.42,4.09,4.09,0,0,0-.08-.84,4.68,4.68,0,0,0-.86-2,4.73,4.73,0,0,0-1.79-1.43A4.41,4.41,0,0,0,131.1,196.17Z" />
         <path class="cls-6" d="M101.23,187.83a4.61,4.61,0,0,1-1.28-1.11,4.19,4.19,0,0,1-.48-.69,4.52,4.52,0,0,1,1.66-.46h.25A8.14,8.14,0,0,0,101.23,187.83Z" />
         <path class="cls-8" d="M94.62,189.2a4.61,4.61,0,0,0,.82-.18,4.46,4.46,0,0,0,1.91-1.08A4.61,4.61,0,0,0,98.57,186a5,5,0,0,0,.22-1.71,5.11,5.11,0,0,0-2.73,1.26,4.69,4.69,0,0,0-1.22,1.93A4.54,4.54,0,0,0,94.62,189.2Z" />
         <path class="cls-8" d="M106,180.69a5.64,5.64,0,0,0-.47-.57,4.8,4.8,0,0,0-1.4-1,4.88,4.88,0,0,0-.23.81,5.15,5.15,0,0,0-.08,1.5A4.52,4.52,0,0,1,106,180.69Z" />
         <path class="cls-6" d="M110.55,197.66a3.88,3.88,0,0,0,.83-.07,4.48,4.48,0,0,0,2.05-.79,4.75,4.75,0,0,0,1.48-1.74,4.88,4.88,0,0,0,.47-1.66,5.15,5.15,0,0,0-2.89.85A4.82,4.82,0,0,0,111,196,4.36,4.36,0,0,0,110.55,197.66Z" />
         <path class="cls-8" d="M90.91,197a4.42,4.42,0,0,0,.7-.48A4.51,4.51,0,0,0,93,194.79a4.67,4.67,0,0,0,.4-2.25,4.76,4.76,0,0,0-.44-1.67,4.93,4.93,0,0,0-.69.48,4.51,4.51,0,0,0-1.36,1.72,4.64,4.64,0,0,0-.4,2.25A4.52,4.52,0,0,0,90.91,197Z" />
         <path class="cls-9" d="M77.65,191.7a4,4,0,0,0,.77-.35,4.61,4.61,0,0,0,1.64-1.46,4.79,4.79,0,0,0,.77-2.15,4.92,4.92,0,0,0-.14-1.72,5.24,5.24,0,0,0-.76.35,4.59,4.59,0,0,0-1.64,1.47,4.53,4.53,0,0,0-.78,2.14A4.44,4.44,0,0,0,77.65,191.7Z" />
         <path class="cls-9" d="M90.49,178.34a4.27,4.27,0,0,0,.76-.35,4.52,4.52,0,0,0,1.63-1.46,4.76,4.76,0,0,0,.78-2.16,5,5,0,0,0-.15-1.71,4,4,0,0,0-.77.35,4.6,4.6,0,0,0-1.63,1.46,4.72,4.72,0,0,0-.77,2.16A4.19,4.19,0,0,0,90.49,178.34Z" />
         <path class="cls-6" d="M95.59,183.54a3.58,3.58,0,0,0-.09-.84,4.53,4.53,0,0,0-.86-2,4.71,4.71,0,0,0-1.8-1.42,4.84,4.84,0,0,0-1.67-.41,4.21,4.21,0,0,0,.09.84,4.46,4.46,0,0,0,.87,2,4.56,4.56,0,0,0,1.79,1.42A4.41,4.41,0,0,0,95.59,183.54Z" />
         <path class="cls-6" d="M113.85,168.62a4.41,4.41,0,0,0,.83-.11,4.52,4.52,0,0,0,2-.89,4.8,4.8,0,0,0,1.39-1.81,4.75,4.75,0,0,0,.38-1.68,4.26,4.26,0,0,0-.83.1,4.64,4.64,0,0,0-2,.89,4.78,4.78,0,0,0-1.39,1.82A4.27,4.27,0,0,0,113.85,168.62Z" />
         <path class="cls-6" d="M106.41,180.66a4.69,4.69,0,0,1-.32-1.13,4.56,4.56,0,0,1,.22-2.18,4,4,0,0,1,.33-.78,5.1,5.1,0,0,1,1.26,1.17,4.63,4.63,0,0,1,.88,2.11,4.5,4.5,0,0,1,0,1.38A4.63,4.63,0,0,0,106.41,180.66Z" />
         <path class="cls-9" d="M83.19,177.12a4.43,4.43,0,0,0,.63-.55A4.68,4.68,0,0,0,85,174.7a4.59,4.59,0,0,0,.13-2.28,4.87,4.87,0,0,0-.63-1.61,4.61,4.61,0,0,0-.63.56,4.42,4.42,0,0,0-1.15,1.87,4.56,4.56,0,0,0-.13,2.28A4.33,4.33,0,0,0,83.19,177.12Z" />
         <path class="cls-9" d="M70.94,178.14a5.07,5.07,0,0,0,2.57-1.57,4.71,4.71,0,0,0,1-2.06,5,5,0,0,0,0-1.72,4.42,4.42,0,0,0-.8.27,4.61,4.61,0,0,0-1.77,1.3,4.75,4.75,0,0,0-1,2.06A4.5,4.5,0,0,0,70.94,178.14Z" />
         <path class="cls-6" d="M54.32,189.34a5.86,5.86,0,0,0,.83-.12,4.59,4.59,0,0,0,2-.95,4.65,4.65,0,0,0,1.35-1.84,4.57,4.57,0,0,0,.34-1.69,4.69,4.69,0,0,0-.83.12,4.54,4.54,0,0,0-2,.94,4.8,4.8,0,0,0-1.35,1.85A4.34,4.34,0,0,0,54.32,189.34Z" />
         <path class="cls-9" d="M26.75,201.07a4.93,4.93,0,0,0,.77-.36,4.59,4.59,0,0,0,2.41-3.61,4.84,4.84,0,0,0-.14-1.71,3.71,3.71,0,0,0-.76.35,4.43,4.43,0,0,0-1.64,1.46,4.64,4.64,0,0,0-.78,2.15A4.48,4.48,0,0,0,26.75,201.07Z" />
         <path class="cls-9" d="M85.15,177.81a4.9,4.9,0,0,0,.76-.36A4.43,4.43,0,0,0,87.55,176a4.71,4.71,0,0,0,.78-2.15,4.84,4.84,0,0,0-.14-1.71,4,4,0,0,0-.77.35,4.51,4.51,0,0,0-1.64,1.46,4.62,4.62,0,0,0-.77,2.15A4.48,4.48,0,0,0,85.15,177.81Z" />
         <path class="cls-8" d="M68,188.71a4.23,4.23,0,0,0,.39-.75,4.52,4.52,0,0,0,.39-2.16,4.62,4.62,0,0,0-.7-2.17A5,5,0,0,0,67,182.36a3.9,3.9,0,0,0-.39.75,4.62,4.62,0,0,0-.4,2.16,4.85,4.85,0,0,0,.71,2.17A4.78,4.78,0,0,0,68,188.71Z" />
         <path class="cls-8" d="M60.49,194.53a5.49,5.49,0,0,0-.12-.83,4.59,4.59,0,0,0-.95-2,4.65,4.65,0,0,0-1.84-1.35,4.85,4.85,0,0,0-1.69-.35,4.45,4.45,0,0,0,.12.83,4.51,4.51,0,0,0,.94,2,4.9,4.9,0,0,0,1.85,1.35A4.54,4.54,0,0,0,60.49,194.53Z" />
         <path class="cls-9" d="M52.72,182.06a4.84,4.84,0,0,0-.39.74,4.49,4.49,0,0,0-.4,2.16,4.68,4.68,0,0,0,.7,2.18,4.61,4.61,0,0,0,1.16,1.27,3.9,3.9,0,0,0,.39-.75,4.44,4.44,0,0,0,.4-2.15,4.6,4.6,0,0,0-.69-2.18A4.47,4.47,0,0,0,52.72,182.06Z" />
         <path class="cls-6" d="M45.43,196.61a4.22,4.22,0,0,0,.16.83,4.42,4.42,0,0,0,1,1.94,4.74,4.74,0,0,0,1.9,1.27,4.88,4.88,0,0,0,1.7.26,4.28,4.28,0,0,0-.16-.82,4.42,4.42,0,0,0-1-1.94,4.74,4.74,0,0,0-1.9-1.27A4.47,4.47,0,0,0,45.43,196.61Z" />
         <path class="cls-6" d="M76.17,197.48a4,4,0,0,0,.37-.75,4.63,4.63,0,0,0-1.6-5.57,5.23,5.23,0,0,0-.37.75,4.62,4.62,0,0,0-.35,2.17,4.86,4.86,0,0,0,.75,2.16A4.58,4.58,0,0,0,76.17,197.48Z" />
         <path class="cls-8" d="M117.18,196.36a5.53,5.53,0,0,0,.46-.71,4.63,4.63,0,0,0-1-5.71,4.07,4.07,0,0,0-.45.7,4.59,4.59,0,0,0-.6,2.12,4.89,4.89,0,0,0,.5,2.23A4.84,4.84,0,0,0,117.18,196.36Z" />
         <path class="cls-6" d="M50.72,197a6.09,6.09,0,0,0,.34-.77,4.56,4.56,0,0,0,.26-2.18,4.61,4.61,0,0,0-2.08-3.32,6.09,6.09,0,0,0-.34.77,4.62,4.62,0,0,0,.57,4.31A4.44,4.44,0,0,0,50.72,197Z" />
         <path class="cls-6" d="M59.1,198.14a4.77,4.77,0,0,0,.84-.07,4.64,4.64,0,0,0,2-.81,4.79,4.79,0,0,0,1.47-1.76,5,5,0,0,0,.45-1.66,4,4,0,0,0-.84.07,4.4,4.4,0,0,0-2,.81,4.73,4.73,0,0,0-1.47,1.75A4.8,4.8,0,0,0,59.1,198.14Z" />
         <path class="cls-6" d="M55.79,193.86a4.62,4.62,0,0,0-.84.06,4.52,4.52,0,0,0-2,.81,4.66,4.66,0,0,0-1.48,1.74,4.8,4.8,0,0,0-.45,1.67,4.67,4.67,0,0,0,.83-.07,4.53,4.53,0,0,0,2-.8,4.73,4.73,0,0,0,1.47-1.75A4.4,4.4,0,0,0,55.79,193.86Z" />
         <path class="cls-6" d="M40.15,176a3.87,3.87,0,0,0,.84.07,4.66,4.66,0,0,0,2.15-.48,4.74,4.74,0,0,0,1.72-1.49,4.65,4.65,0,0,0,.71-1.58,5.23,5.23,0,0,0-3,.42,4.63,4.63,0,0,0-1.72,1.49A4.68,4.68,0,0,0,40.15,176Z" />
         <path class="cls-9" d="M43.44,189.34a5.51,5.51,0,0,0-.39.75,4.45,4.45,0,0,0-.43,2.15,4.7,4.7,0,0,0,.68,2.18,4.75,4.75,0,0,0,1.15,1.29,4.09,4.09,0,0,0,.39-.74,4.53,4.53,0,0,0,.43-2.16,4.67,4.67,0,0,0-.67-2.18A4.6,4.6,0,0,0,43.44,189.34Z" />
         <path class="cls-8" d="M91,186a2.71,2.71,0,0,0,.41-.45,3.08,3.08,0,0,0,.67-1.42,3.29,3.29,0,0,0-.09-1.64,3.54,3.54,0,0,0-.57-1.1,2.71,2.71,0,0,0-.41.45,3.14,3.14,0,0,0-.67,1.42,3.41,3.41,0,0,0,.08,1.65A3.45,3.45,0,0,0,91,186Z" />
         <path class="cls-6" d="M69.71,189.62a3.69,3.69,0,0,0-.54-.28,3.32,3.32,0,0,0-3.11.24,3.63,3.63,0,0,0-.91.84,2.91,2.91,0,0,0,.54.28,3.34,3.34,0,0,0,1.55.28,3.44,3.44,0,0,0,1.56-.52A3.3,3.3,0,0,0,69.71,189.62Z" />
         <path class="cls-6" d="M61.64,182.51a3.79,3.79,0,0,0-.21-.57,3.17,3.17,0,0,0-.93-1.27,3.37,3.37,0,0,0-2.73-.71,3.3,3.3,0,0,0,.2.57,3.34,3.34,0,0,0,3.67,2Z" />
         <path class="cls-6" d="M51.69,186.48a3.29,3.29,0,0,0-.49.36,3.2,3.2,0,0,0-.93,1.27,3.4,3.4,0,0,0-.24,1.63,3.66,3.66,0,0,0,.36,1.19,4.2,4.2,0,0,0,.49-.36,3.31,3.31,0,0,0,1.16-2.9A3.39,3.39,0,0,0,51.69,186.48Z" />
         <path class="cls-8" d="M40.55,199.65a3,3,0,0,0-.54-.27,3.1,3.1,0,0,0-1.55-.28,3.26,3.26,0,0,0-1.56.51,3.63,3.63,0,0,0-.91.84,2.41,2.41,0,0,0,.54.28,3.22,3.22,0,0,0,1.55.28,3.42,3.42,0,0,0,1.56-.51A3.46,3.46,0,0,0,40.55,199.65Z" />
         <path class="cls-6" d="M65.49,194.2a3.19,3.19,0,0,0,.17-.58,3.34,3.34,0,0,0,0-1.58,3.37,3.37,0,0,0-1.79-2.18,3.19,3.19,0,0,0-.17.58,3.25,3.25,0,0,0,0,1.58,3.32,3.32,0,0,0,1.78,2.18Z" />
         <path class="cls-6" d="M85.81,167.69a3,3,0,0,0,.17-.58,3.2,3.2,0,0,0,0-1.58,3.37,3.37,0,0,0-.8-1.43,3.43,3.43,0,0,0-1-.73,3.89,3.89,0,0,0-.14,2.16,3.37,3.37,0,0,0,.81,1.43A3.24,3.24,0,0,0,85.81,167.69Z" />
         <path class="cls-8" d="M110.74,156.46a3.89,3.89,0,0,0,.14-2.16,3.42,3.42,0,0,0-1.81-2.16,3.61,3.61,0,0,0-.14,2.16,3.37,3.37,0,0,0,.8,1.43A3.25,3.25,0,0,0,110.74,156.46Z" />
         <path class="cls-6" d="M73.55,193.3a3.53,3.53,0,0,0-.1-.6,3.29,3.29,0,0,0-.69-1.41,3.47,3.47,0,0,0-1.34-.95,3.52,3.52,0,0,0-1.22-.24,2.75,2.75,0,0,0,.1.6,3.24,3.24,0,0,0,.69,1.42,3.49,3.49,0,0,0,1.34.95A3.25,3.25,0,0,0,73.55,193.3Z" />
         <path class="cls-6" d="M82.35,172.66a3.74,3.74,0,0,0,.35-.5,3.39,3.39,0,0,0,.48-1.5,3.28,3.28,0,0,0-.29-1.62,3.51,3.51,0,0,0-.72-1,2.89,2.89,0,0,0-.34.49,3.25,3.25,0,0,0-.49,1.51,3.45,3.45,0,0,0,.3,1.61A3.27,3.27,0,0,0,82.35,172.66Z" />
         <path class="cls-6" d="M62.64,188.84a3,3,0,0,0-.19-.58,3.28,3.28,0,0,0-.9-1.29,3.34,3.34,0,0,0-1.46-.75,3.56,3.56,0,0,0-1.24,0,3.55,3.55,0,0,0,.18.57,3.29,3.29,0,0,0,.9,1.3,3.42,3.42,0,0,0,1.47.74A3.16,3.16,0,0,0,62.64,188.84Z" />
         <path class="cls-9" d="M60.32,191.8a3.65,3.65,0,0,0,.11-2.16,3.48,3.48,0,0,0-.83-1.42,3.64,3.64,0,0,0-1-.71,3.4,3.4,0,0,0-.15.58,3.15,3.15,0,0,0,0,1.58,3.36,3.36,0,0,0,.83,1.42A3.3,3.3,0,0,0,60.32,191.8Z" />
         <path class="cls-8" d="M49.26,196.85a4.26,4.26,0,0,0-.14-.58,3.2,3.2,0,0,0-.8-1.36,3.36,3.36,0,0,0-1.41-.85,3.3,3.3,0,0,0-1.23-.14,4.26,4.26,0,0,0,.14.58,3.28,3.28,0,0,0,.8,1.37,3.49,3.49,0,0,0,1.41.84A3.1,3.1,0,0,0,49.26,196.85Z" />
         <path class="cls-6" d="M55.93,193.06a3.6,3.6,0,0,0,0-.6,3.23,3.23,0,0,0-.4-1.53,3.37,3.37,0,0,0-2.27-1.67,3.56,3.56,0,0,0,0,.6,3.23,3.23,0,0,0,.4,1.53,3.42,3.42,0,0,0,1.12,1.2A3.29,3.29,0,0,0,55.93,193.06Z" />
         <path class="cls-8" d="M52.32,194.59a2.83,2.83,0,0,0,.36-.49,3.32,3.32,0,0,0,.52-1.49,3.41,3.41,0,0,0-.26-1.62,3.69,3.69,0,0,0-.69-1,3.47,3.47,0,0,0-.36.49,3.32,3.32,0,0,0-.52,1.49,3.41,3.41,0,0,0,.26,1.62A3.35,3.35,0,0,0,52.32,194.59Z" />
         <path class="cls-8" d="M95.61,174.87a3.33,3.33,0,0,0,.17-.59,3.16,3.16,0,0,0,0-1.57,3.38,3.38,0,0,0-.8-1.44,3.56,3.56,0,0,0-1-.72,3.06,3.06,0,0,0-.16.58,3.29,3.29,0,0,0,0,1.58,3.49,3.49,0,0,0,.81,1.43A3.41,3.41,0,0,0,95.61,174.87Z" />
         <path class="cls-9" d="M106.8,200.05a3.29,3.29,0,0,0-.48-.36,3.21,3.21,0,0,0-1.48-.55,3.46,3.46,0,0,0-1.63.24,3.38,3.38,0,0,0-1,.68,4,4,0,0,0,.48.36,3.28,3.28,0,0,0,1.48.54,3.41,3.41,0,0,0,1.63-.23A3.25,3.25,0,0,0,106.8,200.05Z" />
         <path class="cls-6" d="M104.05,198.34a3.68,3.68,0,0,0,0-.61,3.23,3.23,0,0,0-.56-1.47,3.31,3.31,0,0,0-1.24-1.08,3.48,3.48,0,0,0-1.19-.35,3.68,3.68,0,0,0,0,.61,3.23,3.23,0,0,0,.56,1.47,3.31,3.31,0,0,0,1.24,1.08A3.27,3.27,0,0,0,104.05,198.34Z" />
         <path class="cls-6" d="M126.32,191.42a2.44,2.44,0,0,0-.56.22,3.24,3.24,0,0,0-1.24,1,3.5,3.5,0,0,0-.64,1.52,3.42,3.42,0,0,0,0,1.24,3.51,3.51,0,0,0,.56-.23,3.23,3.23,0,0,0,1.23-1,3.27,3.27,0,0,0,.64-1.51A3.22,3.22,0,0,0,126.32,191.42Z" />
         <path class="cls-8" d="M122.68,187a3.19,3.19,0,0,0-.34.51,3.4,3.4,0,0,0-.45,1.51,3.5,3.5,0,0,0,.34,1.61,3.43,3.43,0,0,0,.74,1,4.16,4.16,0,0,0,.33-.51,3.27,3.27,0,0,0,.45-1.51,3.31,3.31,0,0,0-.33-1.61A3.46,3.46,0,0,0,122.68,187Z" />
         <path class="cls-9" d="M120.26,191.8a3,3,0,0,0,.33-.37,3.36,3.36,0,0,0,.65-1.52,3.21,3.21,0,0,0,0-1.24,3.51,3.51,0,0,0-.56.23,3.24,3.24,0,0,0-1.24,1,3.88,3.88,0,0,0-.41.72Z" />
         <path class="cls-8" d="M138.32,196.54a2.63,2.63,0,0,0-.56.22,3.16,3.16,0,0,0-1.23,1,3.36,3.36,0,0,0-.65,1.52,3.42,3.42,0,0,0,0,1.24,3.51,3.51,0,0,0,.56-.23,3.24,3.24,0,0,0,1.24-1,3.51,3.51,0,0,0,.64-1.51A3.18,3.18,0,0,0,138.32,196.54Z" />
         <path class="cls-8" d="M113.94,185.36a3.18,3.18,0,0,0,.59-.15,3.41,3.41,0,0,0,1.35-.83,3.48,3.48,0,0,0,.82-1.42,3.43,3.43,0,0,0,.11-1.24,3.51,3.51,0,0,0-.58.16,3.23,3.23,0,0,0-1.35.82,3.4,3.4,0,0,0-.94,2.66Z" />
         <path class="cls-6" d="M129.5,199.72a3.29,3.29,0,0,0-.55-.25,3.34,3.34,0,0,0-1.56-.19,3.44,3.44,0,0,0-1.54.6,3.63,3.63,0,0,0-.86.89,3.92,3.92,0,0,0,.56.25,3.32,3.32,0,0,0,1.56.19,3.38,3.38,0,0,0,1.53-.6A3.14,3.14,0,0,0,129.5,199.72Z" />
         <path class="cls-9" d="M119.63,199.47a3.72,3.72,0,0,0-.55-.25,3.36,3.36,0,0,0-1.57-.19,3.42,3.42,0,0,0-1.53.6,3.63,3.63,0,0,0-.86.89,3.72,3.72,0,0,0,.55.25,3.36,3.36,0,0,0,1.57.19,3.42,3.42,0,0,0,1.53-.6A3.29,3.29,0,0,0,119.63,199.47Z" />
         <path class="cls-6" d="M119.54,197.36a3.09,3.09,0,0,0,0,.6,3.25,3.25,0,0,0,.49,1.5,3.34,3.34,0,0,0,1.19,1.13,3.46,3.46,0,0,0,1.18.4,4.16,4.16,0,0,0,0-.6,3.3,3.3,0,0,0-.5-1.5,3.37,3.37,0,0,0-2.36-1.53Z" />
         <path class="cls-8" d="M119.22,194.07a2.87,2.87,0,0,0-.46.4,3.13,3.13,0,0,0-.84,1.33,3.26,3.26,0,0,0-.11,1.64,3.19,3.19,0,0,0,.44,1.16,2.87,2.87,0,0,0,.45-.4,3.22,3.22,0,0,0,.85-1.33,3.52,3.52,0,0,0,.11-1.64A3.38,3.38,0,0,0,119.22,194.07Z" />
         <path class="cls-9" d="M58.49,198.23a3.09,3.09,0,0,0,.17-.59,3.29,3.29,0,0,0,0-1.57,3.38,3.38,0,0,0-.8-1.44,3.7,3.7,0,0,0-1-.72,3,3,0,0,0-.17.58,3.33,3.33,0,0,0,0,1.58,3.49,3.49,0,0,0,.81,1.43A3.41,3.41,0,0,0,58.49,198.23Z" />
         <path class="cls-9" d="M75.47,174.57a4.37,4.37,0,0,0,.49.37,3.35,3.35,0,0,0,1.48.54,3.38,3.38,0,0,0,1.62-.23,3.65,3.65,0,0,0,1-.67,2.36,2.36,0,0,0-.48-.37,3.21,3.21,0,0,0-1.48-.55,3.43,3.43,0,0,0-1.62.24A3.33,3.33,0,0,0,75.47,174.57Z" />
         <path class="cls-9" d="M67.48,197.77a3.88,3.88,0,0,0-.06-.6,3.25,3.25,0,0,0-.6-1.46,3.43,3.43,0,0,0-1.27-1,3.63,3.63,0,0,0-1.2-.31,2.82,2.82,0,0,0,.05.6,3.29,3.29,0,0,0,.6,1.46,3.4,3.4,0,0,0,1.28,1A3.1,3.1,0,0,0,67.48,197.77Z" />
         <path class="cls-9" d="M93.77,179.34a2.87,2.87,0,0,0,.43-.43,3.3,3.3,0,0,0,.74-1.4,3.38,3.38,0,0,0-.55-2.76,2.87,2.87,0,0,0-.43.43,3.33,3.33,0,0,0-.19,4.16Z" />
         <path class="cls-9" d="M84.71,180.63a3.2,3.2,0,0,0-.08-.6A3.16,3.16,0,0,0,84,178.6a3.4,3.4,0,0,0-2.52-1.26,3.2,3.2,0,0,0,.08.6,3.3,3.3,0,0,0,.66,1.44,3.33,3.33,0,0,0,2.52,1.25Z" />
         <path class="cls-9" d="M100.56,179.11a4.61,4.61,0,0,0,.72-.42,4.54,4.54,0,0,0,1.48-1.63,4.78,4.78,0,0,0,.55-2.22,4.67,4.67,0,0,0-.32-1.69,4.07,4.07,0,0,0-.72.43,4.57,4.57,0,0,0-1.48,1.62,4.65,4.65,0,0,0-.55,2.22A4.42,4.42,0,0,0,100.56,179.11Z" />
         <path class="cls-8" d="M88,183.79a4.48,4.48,0,0,0,.18-.82,4.56,4.56,0,0,0-.2-2.19A4.76,4.76,0,0,0,85.29,178a4.12,4.12,0,0,0-.17.83,4.47,4.47,0,0,0,.19,2.18,4.81,4.81,0,0,0,1.27,1.91A4.49,4.49,0,0,0,88,183.79Z" />
         <path class="cls-8" d="M86.33,172.27a5.45,5.45,0,0,0,.65-.53,4.71,4.71,0,0,0,1.22-1.83,4.64,4.64,0,0,0-.37-3.9A5.12,5.12,0,0,0,86,168.37a4.81,4.81,0,0,0-.21,2.27A4.62,4.62,0,0,0,86.33,172.27Z" />
         <path class="cls-8" d="M77.9,186.72a5.7,5.7,0,0,0,.38-.75,4.76,4.76,0,0,0,.38-2.17,4.68,4.68,0,0,0-1.91-3.42,4.65,4.65,0,0,0-.38.75,4.55,4.55,0,0,0-.38,2.16,4.8,4.8,0,0,0,.73,2.17A4.56,4.56,0,0,0,77.9,186.72Z" />
         <polyline class="cls-10" points="124 40.08 123.97 42.71 122.47 43.57" />
         <line class="cls-10" x1="122.39" y1="42.72" x2="123.83" y2="42.73" />
         <path class="cls-11" d="M119.61,37.91A7.72,7.72,0,0,0,125.13,40c2.41-.13,5.06-1.58,5.7-4l3.75,3.92s1,1,1.72.94a1.93,1.93,0,0,0,1.89-2,2,2,0,0,0-.66-1.42h0l-5.55-5-6.07-5.45a4.84,4.84,0,0,0-3.37-1.3c-2.68.05-4.51,2-5,4.69A8,8,0,0,0,119.61,37.91Zm13.61-2.66a.19.19,0,0,1,.28,0l3.74,3.35a.19.19,0,0,1,0,.28.21.21,0,0,1-.14.07.24.24,0,0,1-.14,0l-3.74-3.36A.19.19,0,0,1,133.22,35.25Zm-10.44-2.79a.2.2,0,1,1,.39,0,3.33,3.33,0,0,0,3,3.48,4.09,4.09,0,0,0,4.09-1.74l-1.56-1.29a.2.2,0,1,1,.25-.31l1.7,1.4a.21.21,0,0,1,0,.25,4.4,4.4,0,0,1-3.81,2.12,5.1,5.1,0,0,1-.77,0C122.73,36,122.78,32.49,122.78,32.46Z" />
         <circle class="cls-2" cx="121.15" cy="29.19" r="1.13" />
         <path class="cls-1" d="M120.78,29.66a.53.53,0,0,1-.33,0,.58.58,0,0,1-.39-.31.62.62,0,0,1-.06-.5h0a.64.64,0,0,1,.82-.45.66.66,0,0,1,.45.81A.65.65,0,0,1,120.78,29.66Z" />
         <polyline class="cls-10" points="125.68 40.1 125.64 42.73 124.15 43.59" />
         <line class="cls-10" x1="124.07" y1="42.74" x2="125.51" y2="42.74" />
         <line class="cls-10" x1="126.21" y1="43.3" x2="125.64" y2="42.73" />
         <path class="cls-1" d="M118.22,28.26l-1.82.23,1.23,1.11" />
         <g class="cls-3">
            <ellipse class="cls-1" cx="111.29" cy="18.75" rx="1.33" ry="0.97" transform="translate(8.76 65.9) rotate(-34.26)" />
            <line class="cls-12" x1="112.11" y1="18.26" x2="111.01" y2="12.64" />
            <path class="cls-12" d="M110.81,12.44s.64-.13,1.54,1,1.62,1,1.62,1" />
         </g>
         <g class="cls-3">
            <ellipse class="cls-1" cx="117.92" cy="6.82" rx="0.97" ry="1.33" transform="translate(45.9 100.44) rotate(-55.74)" />
            <line class="cls-12" x1="117.1" y1="6.32" x2="118.2" y2="0.71" />
            <path class="cls-12" d="M118.4.5s-.65-.12-1.55,1.05-1.61,1-1.61,1" />
         </g>
         <path class="cls-7" d="M18.11,169.1c3.93-9.7,15.36-25.41,30.53-29.16,23.61-5.85,40.61,10.13,40.61,22.2l.07,6.15" />
         <path class="cls-11" d="M52.44,124.2l-1-.93a4.79,4.79,0,0,0-3.34-1.37c-2.68,0-4.55,1.88-5.09,4.56A8,8,0,0,0,44.88,134a7.71,7.71,0,0,0,5.47,2.24,7,7,0,0,0,4.76-2.07C53.86,129.79,52.29,124.5,52.44,124.2Zm.82,8.32a7.62,7.62,0,0,1-1.1.1,6.93,6.93,0,0,1-.77-.05c-3.34-.42-3.21-3.93-3.21-4a.19.19,0,0,1,.21-.19.19.19,0,0,1,.18.21c0,.13-.11,3.18,2.87,3.56a6.51,6.51,0,0,0,1.54,0" />
         <polyline class="cls-10" points="49.59 136.25 49.55 138.88 48.06 139.74" />
         <line class="cls-10" x1="47.98" y1="138.89" x2="49.42" y2="138.9" />
         <circle class="cls-2" cx="46.62" cy="125.3" r="1.13" />
         <path class="cls-1" d="M46.11,126a.63.63,0,0,1-.19,0,.66.66,0,0,1-.43-.83.65.65,0,1,1,1.25.39A.64.64,0,0,1,46.11,126Z" />
         <polyline class="cls-10" points="51.46 136.25 51.43 138.88 49.93 139.74" />
         <line class="cls-10" x1="49.85" y1="138.89" x2="51.29" y2="138.9" />
         <line class="cls-10" x1="51.99" y1="139.45" x2="51.43" y2="138.88" />
         <path class="cls-1" d="M43.68,124.46l-1.82.2,1.21,1.13" />
         <path class="cls-11" d="M24,142.16a6,6,0,0,0-4.53,0l-1.95.76,3.12,5.66c.08.15.19.42,0,.53s-.45-.29-.45-.29l-1-1.81L17,143.11l-3.59-6.52s-4.69,4-3,9.06h0v0l.12.32,0,0c0,.11.08.21.13.32l0,.05c.05.1.1.21.16.32l0,0,.19.35h0a10,10,0,0,0,.75,1.13h0c.09.12.19.24.29.35l.07.09c.08.09.16.19.25.28l.1.12.24.25.14.13c.07.08.16.16.24.24l.15.14.25.23.17.15.27.23.18.14.3.24.17.14.35.25.16.12.54.38s.41.21.37.34c-.1.33-.65.07-.65.07-2.89-2-4.72-4.07-5.49-6.32h0L4.09,142.5A3.46,3.46,0,0,0,1.68,142a2.47,2.47,0,0,0-1.57,3,2.42,2.42,0,0,0,1.32,1.46h0l8.29,3.89v.08c-.35,3.16,2.12,6,4.88,7.26a9.72,9.72,0,0,0,7.41,0,10.07,10.07,0,0,0,5.73-7.85C28.38,146.49,27.11,143.4,24,142.16Z" />
         <path class="cls-2" d="M8.54,148.16l-7.15-3.33a.26.26,0,0,1-.09-.09.23.23,0,0,1,0-.14.16.16,0,0,1,.22-.08l7.16,3.33a.17.17,0,0,1-.15.31Z" />
         <path class="cls-1" d="M26.92,144.46l2.56.44-1.76,1.44A6.43,6.43,0,0,0,26.92,144.46Z" />
         <circle class="cls-2" cx="24.09" cy="146.8" r="1.42" />
         <circle class="cls-1" cx="24.69" cy="146.41" r="0.3" />
         <path class="cls-1" d="M24.69,147.21h-.07a.84.84,0,0,1-.55-.28.83.83,0,0,1-.18-.59.82.82,0,0,1,.28-.54.75.75,0,0,1,.58-.18.74.74,0,0,1,.55.28.76.76,0,0,1,.18.58.8.8,0,0,1-.28.54A.74.74,0,0,1,24.69,147.21Z" />
         <path class="cls-10" d="M10.38,135.37S6.46,138.56,7.22,143" />
         <path class="cls-10" d="M10,132.24c-.43,0-4.28,2.48-4.74,7.33" />
         <polyline class="cls-10" points="20.28 158.16 21.14 162.43 23.06 161.4" />
         <line class="cls-10" x1="22.9" y1="162.82" x2="21.19" y2="162.5" />
         <line class="cls-10" x1="21.22" y1="161.71" x2="21.84" y2="161" />
         <polyline class="cls-10" points="16.28 158.2 17.67 160.31 19.45 160.64" />
         <line class="cls-10" x1="17.67" y1="160.31" x2="18.55" y2="159.62" />
         <path class="cls-13" d="M55.33,134.36a7.75,7.75,0,0,0,5.85.82c2.32-.67,4.58-2.67,4.65-5.21l4.53,3a3.42,3.42,0,0,0,1.89.53,1.92,1.92,0,0,0,.44-3.57h0l-6.52-3.61-7.14-4a4.8,4.8,0,0,0-3.58-.51c-2.59.64-3.94,3-3.8,5.68A8,8,0,0,0,55.33,134.36ZM68,128.72a.21.21,0,0,1,.27-.08l4.39,2.44a.2.2,0,0,1,.08.27.18.18,0,0,1-.13.09.15.15,0,0,1-.14,0L68.07,129A.19.19,0,0,1,68,128.72Zm-10.8-.39a.19.19,0,0,1,.15-.23.21.21,0,0,1,.24.15A3.32,3.32,0,0,0,61.24,131a4.12,4.12,0,0,0,3.61-2.61L63,127.46a.19.19,0,0,1-.09-.26.2.2,0,0,1,.27-.09l2,1a.2.2,0,0,1,.1.22A4.41,4.41,0,0,1,62,131.25a7.27,7.27,0,0,1-.75.13C57.94,131.8,57.2,128.37,57.2,128.33Z" />
         <polyline class="cls-14" points="58.28 135.29 58.24 137.92 56.75 138.78" />
         <line class="cls-14" x1="56.67" y1="137.92" x2="58.11" y2="137.93" />
         <circle class="cls-2" cx="54.34" cy="126.25" r="1.13" />
         <path class="cls-15" d="M54.25,127.21a.45.45,0,0,1-.19.05.66.66,0,0,1-.73-.58h0a.65.65,0,0,1,1.07-.58.59.59,0,0,1,.24.44.64.64,0,0,1-.14.48A.58.58,0,0,1,54.25,127.21Z" />
         <polyline class="cls-14" points="60.15 135.29 60.12 137.92 58.62 138.78" />
         <line class="cls-14" x1="58.54" y1="137.92" x2="59.98" y2="137.93" />
         <line class="cls-14" x1="60.68" y1="138.49" x2="60.12" y2="137.92" />
         <path class="cls-15" d="M51.56,127.05l-1.53,1,1.59.46" />
         <path class="cls-8" d="M63,189.2a5.16,5.16,0,0,0-.63.36A4,4,0,0,0,61,191a4.24,4.24,0,0,0-.5,1.92,4.18,4.18,0,0,0,.26,1.48,3.7,3.7,0,0,0,.64-.36,4,4,0,0,0,1.3-1.4,4.16,4.16,0,0,0,.51-1.92A3.89,3.89,0,0,0,63,189.2Z" />
         <path class="cls-8" d="M81.94,175a3.63,3.63,0,0,0-.73,0,3.89,3.89,0,0,0-1.81.61,4,4,0,0,0-1.84,2.87,3.76,3.76,0,0,0,.73,0,4,4,0,0,0,1.81-.6,4.1,4.1,0,0,0,1.36-1.45A3.91,3.91,0,0,0,81.94,175Z" />
         <path class="cls-6" d="M56.72,200a3.59,3.59,0,0,0,.58.44,3.88,3.88,0,0,0,1.8.66,4,4,0,0,0,2-.28,4.41,4.41,0,0,0,1.26-.81,4.42,4.42,0,0,0-.59-.45,4.07,4.07,0,0,0-1.79-.66,4.18,4.18,0,0,0-2,.29A4,4,0,0,0,56.72,200Z" />
         <path class="cls-6" d="M10.86,199.89a3.73,3.73,0,0,0,.58.44,4,4,0,0,0,1.79.66,4,4,0,0,0,2-.28,4.13,4.13,0,0,0,1.26-.82,4.29,4.29,0,0,0-.58-.44,4,4,0,0,0-1.79-.66,4.25,4.25,0,0,0-2,.28A4,4,0,0,0,10.86,199.89Z" />
         <path class="cls-8" d="M57.78,198.49a5.89,5.89,0,0,0-.88-.4,5.46,5.46,0,0,0-2.51-.31,5.6,5.6,0,0,0-2.45,1,5.71,5.71,0,0,0-1.38,1.43,4.84,4.84,0,0,0,.89.4,5.28,5.28,0,0,0,2.5.31,5.62,5.62,0,0,0,2.46-1A5.31,5.31,0,0,0,57.78,198.49Z" />
         <path class="cls-9" d="M68.1,171.62a9.21,9.21,0,0,0-2.16,4.9,8.44,8.44,0,0,0,.65,4,8.72,8.72,0,0,0,1.72,2.54,8,8,0,0,0,.88-1.2,8.12,8.12,0,0,0,1.27-3.69,8.21,8.21,0,0,0-.65-4A8.1,8.1,0,0,0,68.1,171.62Z" />
         <path class="cls-6" d="M37.07,193.21a8.34,8.34,0,0,0,.34,1.46,8.22,8.22,0,0,0,2,3.37,8.41,8.41,0,0,0,3.47,2.12,8.81,8.81,0,0,0,3,.36,8.34,8.34,0,0,0-.34-1.46,8.11,8.11,0,0,0-2-3.37,8.43,8.43,0,0,0-3.46-2.12A8.18,8.18,0,0,0,37.07,193.21Z" />
         <path class="cls-9" d="M97.67,172.77a8.25,8.25,0,0,0-.94,1.16,8,8,0,0,0-1.49,3.6,8.38,8.38,0,0,0,.43,4,8.82,8.82,0,0,0,1.57,2.64,8.25,8.25,0,0,0,.94-1.16,8,8,0,0,0,1.49-3.61,8.4,8.4,0,0,0-.43-4A8.23,8.23,0,0,0,97.67,172.77Z" />
         <path class="cls-9" d="M19.34,177.3a6.31,6.31,0,0,1,.74,1,6.75,6.75,0,0,1,1.09,3,7,7,0,0,1-.51,3.31,7.2,7.2,0,0,1-1.39,2.11,6.47,6.47,0,0,1-.74-1,6.67,6.67,0,0,1-1.08-3,6.84,6.84,0,0,1,.5-3.31A6.75,6.75,0,0,1,19.34,177.3Z" />
         <path class="cls-9" d="M17.64,170.5a11,11,0,0,0-2,.79,11.52,11.52,0,0,0-4.3,3.47,12,12,0,0,0-2.23,5.32,12.31,12.31,0,0,0,.16,4.34,12.08,12.08,0,0,0,2-.79,11.56,11.56,0,0,0,4.31-3.48,11.92,11.92,0,0,0,2.22-5.31A11.64,11.64,0,0,0,17.64,170.5Z" />
         <path class="cls-8" d="M19.8,170a7.35,7.35,0,0,1,3.26,3,7,7,0,0,1,.85,3.25,7.09,7.09,0,0,1-.45,2.49,6.88,6.88,0,0,1-1.07-.62,6.64,6.64,0,0,1-2.19-2.36,6.94,6.94,0,0,1-.85-3.24A6.78,6.78,0,0,1,19.8,170Z" />
         <path class="cls-1" d="M55.05,25.9a4.86,4.86,0,0,0-3.31-1.53l-1.69-.12.34,5.21c0,.14,0,.37-.16.4s-.24-.37-.24-.37l-.11-1.67-.24-3.59-.4-6S44.45,19.54,44,23.84h0v0c0,.09,0,.18,0,.27v0a2.53,2.53,0,0,0,0,.28v.36c0,.11,0,.21,0,.32v0a9.23,9.23,0,0,0,.17,1.08h0l.09.36,0,.08a2.45,2.45,0,0,0,.08.29s0,.08,0,.12l.09.27c0,.05,0,.1,0,.14a2.77,2.77,0,0,0,.1.26l.06.15a2,2,0,0,0,.11.26.77.77,0,0,0,.07.16l.12.26a.89.89,0,0,0,.08.17c0,.09.09.19.14.28l.08.16c.05.1.11.2.16.31a.64.64,0,0,1,.08.14l.27.45s.23.3.15.38-.5-.17-.5-.17a10.53,10.53,0,0,1-1.85-6.5h0l-3.17-4.45s-.86-1.1-1.59-1.2a2,2,0,0,0-1.72,3.22h0l4.74,5.67,0,.06c-1.33,2.19-.51,5.14,1.1,7a7.8,7.8,0,0,0,5.43,2.52,8.13,8.13,0,0,0,6.87-3.79C56.79,30.58,56.91,27.88,55.05,25.9Z" />
         <path class="cls-11" d="M56.51,28.84,58.19,30l-1.78.47" />
         <circle class="cls-2" cx="53.54" cy="29.34" r="1.15" />
         <g class="cls-3">
            <path class="cls-1" d="M54.1,29.89a.6.6,0,0,1-.56-.42h0a.59.59,0,0,1,0-.45.65.65,0,0,1,.35-.28.59.59,0,0,1,.34,1.12A.47.47,0,0,1,54.1,29.89Z" />
         </g>
         <path class="cls-16" d="M47.41,16.29s-4,1-4.93,4.53" />
         <path class="cls-16" d="M48.2,13.86a7.39,7.39,0,0,0-6,3.76" />
         <polyline class="cls-10" points="44.4 35.23 45 38.2 44.08 39.26" />
         <line class="cls-10" x1="45.08" y1="39.29" x2="45.01" y2="38.25" />
         <line class="cls-10" x1="43.85" y1="38.14" x2="44.88" y2="37.89" />
         <polyline class="cls-10" points="42.35 33.08 42.95 36.05 42.03 37.11" />
         <line class="cls-10" x1="43.03" y1="37.14" x2="42.96" y2="36.1" />
         <line class="cls-10" x1="41.81" y1="35.99" x2="42.84" y2="35.74" />
      </g>
   </g>
</svg>

