<?xml version="1.0" encoding="UTF-8"?>
<svg xmlns="http://www.w3.org/2000/svg" viewBox="0 0 204.21 132.94">
   <defs>
      <style type="text/css">.cls-1,.cls-6,.cls-7,.cls-8{fill:none;}.cls-1{stroke:#48e33d;}.cls-1,.cls-13,.cls-6,.cls-7,.cls-8{stroke-linecap:round;stroke-linejoin:round;}.cls-2,.cls-5{fill:#48e33d;}.cls-2{fill-rule:evenodd;}.cls-2,.cls-3,.cls-5,.cls-9{opacity:0.25;}.cls-12,.cls-13,.cls-3,.cls-4{fill:#ffac38;}.cls-11,.cls-14,.cls-4{opacity:0.5;}.cls-13,.cls-6{stroke:#ffac38;}.cls-7{stroke:#19b0de;}.cls-8{stroke:#16b1e0;}.cls-10,.cls-14,.cls-9{fill:#19b0de;}</style>
   </defs>
   <title>emptyNotificationsFilter</title>
   <g id="emptyNotificationsFilter" data-name="Layer 2">
      <g id="working_files" data-name="working files">
         <line class="cls-1" x1="122" y1="89.12" x2="122" y2="95.48" />
         <polyline class="cls-2" points="118.59 92.7 126.9 92.7 121.91 78.87 117.98 89.75" />
         <line class="cls-1" x1="127.96" y1="90.82" x2="127.96" y2="95.48" />
         <polygon class="cls-2" points="127.89 82.6 125.57 89.02 126.9 92.7 124.25 92.7 124.23 92.73 131.54 92.73 127.89 82.6" />
         <rect class="cls-3" x="94.79" y="11.05" width="12.92" height="7.98" />
         <rect class="cls-4" x="98.54" y="11.05" width="9.16" height="7.98" />
         <ellipse class="cls-5" cx="32.23" cy="88.73" rx="3.18" ry="3.44" />
         <line class="cls-1" x1="32.24" y1="89.02" x2="32.24" y2="95.33" />
         <ellipse class="cls-5" cx="150.31" cy="88.73" rx="3.18" ry="3.44" />
         <line class="cls-1" x1="150.32" y1="89.02" x2="150.32" y2="95.33" />
         <ellipse class="cls-5" cx="73.56" cy="88.73" rx="3.18" ry="3.44" />
         <line class="cls-1" x1="82.11" y1="89.02" x2="82.11" y2="95.33" />
         <polygon class="cls-2" points="82.02 78.87 77.08 92.57 86.97 92.57 82.02 78.87" />
         <line class="cls-1" x1="59.61" y1="89.02" x2="59.61" y2="95.33" />
         <polygon class="cls-2" points="59.52 78.87 54.58 92.57 64.47 92.57 59.52 78.87" />
         <line class="cls-1" x1="73.57" y1="89.02" x2="73.57" y2="95.33" />
         <ellipse class="cls-5" cx="173.56" cy="88.73" rx="3.18" ry="3.44" />
         <line class="cls-1" x1="182.11" y1="89.02" x2="182.11" y2="95.33" />
         <polygon class="cls-2" points="182.02 78.87 177.08 92.57 186.97 92.57 182.02 78.87" />
         <line class="cls-1" x1="173.57" y1="89.02" x2="173.57" y2="95.33" />
         <rect class="cls-6" x="94.79" y="11.05" width="12.92" height="7.98" />
         <line class="cls-6" x1="98.54" y1="19.03" x2="98.54" y2="11.05" />
         <line class="cls-7" x1="85.49" y1="83.74" x2="94.34" y2="26" />
         <line class="cls-7" x1="111.9" y1="51" x2="108.07" y2="26" />
         <line class="cls-7" x1="118.79" y1="95.98" x2="114.97" y2="71.07" />
         <rect class="cls-7" x="92.82" y="19.04" width="17.22" height="6.71" />
         <line class="cls-7" x1="0.5" y1="95.98" x2="203.71" y2="95.98" />
         <line class="cls-8" x1="123.14" y1="132.44" x2="146.1" y2="132.44" />
         <line class="cls-8" x1="112.34" y1="132.44" x2="119.23" y2="132.44" />
         <line class="cls-8" x1="135.39" y1="120.24" x2="170.98" y2="120.24" />
         <line class="cls-8" x1="175.58" y1="120.24" x2="181.32" y2="120.24" />
         <line class="cls-8" x1="22.71" y1="110.58" x2="61.07" y2="110.58" />
         <line class="cls-8" x1="61.49" y1="104.39" x2="76.32" y2="104.39" />
         <line class="cls-8" x1="56.42" y1="104.39" x2="58.71" y2="104.39" />
         <line class="cls-8" x1="85.37" y1="120.24" x2="100.2" y2="120.24" />
         <line class="cls-8" x1="80.29" y1="120.24" x2="82.59" y2="120.24" />
         <line class="cls-8" x1="114.65" y1="104.39" x2="99.82" y2="104.39" />
         <line class="cls-8" x1="119.72" y1="104.39" x2="117.43" y2="104.39" />
         <line class="cls-7" x1="94.79" y1="19.15" x2="94.79" y2="25.75" />
         <line class="cls-7" x1="96.94" y1="19.15" x2="96.94" y2="25.75" />
         <line class="cls-7" x1="99.09" y1="19.15" x2="99.09" y2="25.75" />
         <line class="cls-7" x1="101.25" y1="19.15" x2="101.25" y2="25.75" />
         <line class="cls-7" x1="103.4" y1="19.15" x2="103.4" y2="25.75" />
         <line class="cls-7" x1="105.55" y1="19.15" x2="105.55" y2="25.75" />
         <line class="cls-7" x1="107.71" y1="19.15" x2="107.71" y2="25.75" />
         <path class="cls-9" d="M149.8,27.14H150a4.76,4.76,0,0,0-1.27,3.24,5,5,0,0,0,6.9,4.47,6.05,6.05,0,1,1-5.79-7.71Z" />
         <circle class="cls-10" cx="187.42" cy="36.87" r="0.7" />
         <circle class="cls-10" cx="165.77" cy="20.64" r="0.7" />
         <circle class="cls-10" cx="196.54" cy="25.24" r="0.7" />
         <circle class="cls-10" cx="126.78" cy="26.74" r="0.7" />
         <circle class="cls-10" cx="177.84" cy="0.88" r="0.7" />
         <circle class="cls-10" cx="138.22" cy="6.24" r="0.7" />
         <g class="cls-11">
            <polygon class="cls-12" points="0.34 10.56 90.95 13.2 90.95 17.2 0.37 35.81 0.34 10.56" />
         </g>
         <polygon class="cls-13" points="101.15 0.5 105.95 5.72 110.75 10.93 101.15 10.93 91.55 10.93 96.35 5.72 101.15 0.5" />
         <path id="cloud" class="cls-9" d="M83,48.64l-.3,0a4.56,4.56,0,0,0-8.9-1h-.17a3.36,3.36,0,0,0-.31,6.71h0l.3,0,.3,0h8.78l.29,0a2.86,2.86,0,0,0,0-5.71Z" />
         <line class="cls-7" x1="97.94" y1="37.98" x2="92.94" y2="37.98" />
         <line class="cls-7" x1="110.84" y1="44.89" x2="105.84" y2="44.89" />
         <line class="cls-7" x1="95.79" y1="40.75" x2="92.31" y2="40.75" />
         <line class="cls-7" x1="105.6" y1="51" x2="102.12" y2="51" />
         <line class="cls-7" x1="92.15" y1="64.92" x2="88.68" y2="64.92" />
         <line class="cls-7" x1="95.68" y1="61.57" x2="92.2" y2="61.57" />
         <line class="cls-7" x1="101.83" y1="32.55" x2="98.36" y2="32.55" />
         <line class="cls-7" x1="91.74" y1="86.09" x2="96.75" y2="86.09" />
         <line class="cls-7" x1="93.9" y1="83.32" x2="97.37" y2="83.32" />
         <line class="cls-7" x1="107.83" y1="76.88" x2="111.31" y2="76.88" />
         <line class="cls-7" x1="113.91" y1="89.13" x2="117.39" y2="89.13" />
         <path class="cls-14" d="M153.92,65.62h-.22a3.31,3.31,0,0,0-6.41-.89,4.94,4.94,0,0,0-4.94-4.94,4.71,4.71,0,0,0-.53,0,7.89,7.89,0,0,0-11.64-6.41,7.9,7.9,0,0,0-15.42-1.74l-.31,0a5.84,5.84,0,0,0-5.83,5.84,1.21,1.21,0,0,0,0,.19l-.28,0a5.85,5.85,0,0,0-5.75,4.88,3.31,3.31,0,0,0-3.09,2.33h-.12a2.44,2.44,0,0,0-.23,4.87h54.76a2.07,2.07,0,1,0,0-4.14Z" />
      </g>
   </g>
</svg>

