<?xml version="1.0" encoding="UTF-8"?>
<svg xmlns="http://www.w3.org/2000/svg" viewBox="0 0 181.2 114.76">
   <defs>
      <style type="text/css">.cls-1,.cls-11,.cls-15,.cls-5{fill:none;}.cls-1{stroke:#48e33d;stroke-miterlimit:10;}.cls-1,.cls-11,.cls-14,.cls-15,.cls-5{stroke-linecap:round;}.cls-2,.cls-3,.cls-4{fill:#48e33d;}.cls-2{opacity:0.25;}.cls-3,.cls-9{opacity:0.5;}.cls-5{stroke:#f37531;}.cls-11,.cls-14,.cls-15,.cls-5{stroke-linejoin:round;}.cls-6{fill:#faaa39;}.cls-14,.cls-7{fill:#fff;}.cls-8{fill:#f37531;}.cls-10,.cls-9{fill:#00b8f1;}.cls-11{stroke:#00b8f1;}.cls-12,.cls-13{fill:#16b1e0;}.cls-12{opacity:0.6;}.cls-14,.cls-15{stroke:#16b1e0;}</style>
   </defs>
   <title>emptyThreadsFilter</title>
   <g id="emptyThreadsFilter" data-name="Layer 2">
      <g id="Layer_1-2" data-name="Layer 1">
         <line class="cls-1" x1="0.5" y1="114.26" x2="180.7" y2="114.26" />
         <path class="cls-1" d="M77.41,16.89C81.13,18.58,85.8,20,82.22,34c-1.8,7-1.4,12.11.34,16" />
         <path class="cls-2" d="M98.32,105.05a4.32,4.32,0,0,0-3.89,2.48,4.29,4.29,0,0,0-7.78,0,4.3,4.3,0,0,0-7.79,0,4.33,4.33,0,1,0,0,3.69,4.3,4.3,0,0,0,7.79,0,4.29,4.29,0,0,0,7.78,0,4.32,4.32,0,1,0,3.89-6.17Z" />
         <circle class="cls-3" cx="129.89" cy="109.15" r="4.32" />
         <circle class="cls-4" cx="15.93" cy="109.17" r="4.32" />
         <circle class="cls-4" cx="114.19" cy="90.81" r="4.32" />
         <path class="cls-3" d="M101.1,58.08A4.32,4.32,0,0,0,96.49,58,4.3,4.3,0,0,0,90,53.61,4.32,4.32,0,1,0,88,56.68,4.3,4.3,0,0,0,94.43,61a4.31,4.31,0,1,0,6.67-3Z" />
         <path class="cls-1" d="M113.64,95.13c-1.83,6.21-5.66,11.47-11.19,13.77" />
         <path class="cls-1" d="M102.27,64.08c8.63,4.3,12.57,13.42,12.59,22.41" />
         <line class="cls-5" x1="152.38" y1="112.42" x2="154.16" y2="112.43" />
         <line class="cls-5" x1="154.46" y1="112.44" x2="156.24" y2="112.45" />
         <line class="cls-5" x1="157.11" y1="113.14" x2="156.41" y2="112.43" />
         <polyline class="cls-5" points="154.38 109.15 154.33 112.41 152.48 113.48" />
         <path class="cls-6" d="M147.37,104.75a9.57,9.57,0,0,0,6.07,4.12c2.95.53,6.56-.45,8-3.23l3.41,5.81s.93,1.44,1.81,1.63a2.39,2.39,0,0,0,2.45-3.73h0l-5.28-7.59c-2.72-3.91-5.51-7.94-5.77-8.33a6,6,0,0,0-3.71-2.52c-3.24-.71-6,1.11-7.35,4.23A10,10,0,0,0,147.37,104.75Zm17.2.68a.24.24,0,0,1,.34.06l3.56,5.13a.24.24,0,0,1-.06.34.27.27,0,0,1-.19,0,.23.23,0,0,1-.15-.1l-3.56-5.12A.25.25,0,0,1,164.57,105.43Zm-11.81-6.37a.25.25,0,0,1,.3-.17.25.25,0,0,1,.18.3c0,.16-1,3.83,2.56,5.06a5.11,5.11,0,0,0,5.45-.93l-1.52-2a.24.24,0,0,1,.05-.34.25.25,0,0,1,.35.05l1.64,2.18a.26.26,0,0,1,0,.31,5.5,5.5,0,0,1-5.22,1.47,7.49,7.49,0,0,1-.91-.26C151.69,103.33,152.75,99.11,152.76,99.06Z" />
         <circle class="cls-7" cx="151.73" cy="94.65" r="1.41" />
         <path class="cls-8" d="M151.76,94.11a.7.7,0,0,0-1.28-.16.71.71,0,0,0,.27,1,.67.67,0,0,0,.34.09.63.63,0,0,0,.19,0,.69.69,0,0,0,.48-.86Z" />
         <polyline class="cls-5" points="156.46 109.17 156.41 112.43 154.56 113.5" />
         <path class="cls-8" d="M148.46,92.68l-2.26-.24,1.17,1.69" />
         <path class="cls-9" d="M49.76,94.11a5.69,5.69,0,0,0-3.88-1.8l-2-.13.41,6.1c0,.16,0,.43-.2.46s-.27-.43-.27-.43l-.13-2-.28-4.21-.47-7s-5.61,1.54-6.17,6.57h0c0,.11,0,.22,0,.33v0c0,.11,0,.22,0,.33v.43c0,.12,0,.24,0,.37v0a8.63,8.63,0,0,0,.2,1.26v0c0,.14.07.27.1.41l0,.1c0,.12.07.23.1.34s0,.1,0,.15.06.2.1.31l.06.16c0,.1.07.2.11.31l.08.18.12.3.09.19c0,.1.09.2.14.3l.09.2.16.32a1.74,1.74,0,0,0,.1.19l.19.36.09.16.31.54s.27.35.19.44c-.23.25-.59-.2-.59-.2-1.7-2.82-2.42-5.37-2.17-7.61h0l-3.71-5.21s-1-1.29-1.86-1.4a2.28,2.28,0,0,0-2,3.76h0l5.55,6.64,0,.06c-1.56,2.57-.6,6,1.28,8.17a9.16,9.16,0,0,0,6.35,3,9.53,9.53,0,0,0,8-4.44C51.79,99.58,51.93,96.42,49.76,94.11Z" />
         <path class="cls-10" d="M51.47,97.54c-.18-.11,2,1.35,2,1.35l-2.08.55" />
         <circle class="cls-7" cx="47.99" cy="98.13" r="1.34" />
         <path class="cls-10" d="M48.65,98.77a.7.7,0,0,1-.66-.48h0a.72.72,0,0,1,0-.52.66.66,0,0,1,.41-.34.68.68,0,0,1,.4,1.31A.69.69,0,0,1,48.65,98.77Z" />
         <path class="cls-11" d="M40.82,82.86S36.19,84,35,88.16" />
         <path class="cls-11" d="M41.74,80c-.36-.18-4.65.42-7,4.39" />
         <polyline class="cls-11" points="37.29 105.03 37.99 108.5 36.92 109.75" />
         <line class="cls-11" x1="38.09" y1="109.78" x2="38.01" y2="108.56" />
         <line class="cls-11" x1="36.65" y1="108.43" x2="37.86" y2="108.14" />
         <polyline class="cls-11" points="34.9 102.51 35.6 105.98 34.52 107.23" />
         <line class="cls-11" x1="35.7" y1="107.26" x2="35.61" y2="106.04" />
         <line class="cls-11" x1="34.26" y1="105.92" x2="35.46" y2="105.62" />
         <path class="cls-1" d="M70.87,108.83a16,16,0,0,1-2.52-1.26c-9.12-5.54-14.47-11.72-20-5.75" />
         <path class="cls-12" d="M106.1,10.12a2.18,2.18,0,0,0-1.76-.14h0L96.4,12.63l-.25.09A12.64,12.64,0,0,1,94,18.84a.23.23,0,0,1-.19.1.27.27,0,0,1-.12,0,.24.24,0,0,1-.07-.31c2-3.24,2.61-6.06,1.73-8.38-1.07-2.84-4-4.12-4.95-4.45l-1,12.2a.23.23,0,0,1-.45,0l.25-2.87-1.43.47a5.45,5.45,0,0,0-3.14,2.58c-1.44,2.64-.56,5.51,1.81,7.47a9,9,0,0,0,8.44,2.15,8.67,8.67,0,0,0,5.13-4.22c1.21-2.43,1.28-5.82-.77-7.81l5.92-1.48s1.48-.44,1.87-1.16A2.16,2.16,0,0,0,106.1,10.12Zm-.83,1.58-5.43,1.55h-.09a.31.31,0,0,1-.3-.22.32.32,0,0,1,.22-.39l5.43-1.55a.31.31,0,0,1,.38.21A.32.32,0,0,1,105.27,11.7Z" />
         <path class="cls-13" d="M83.79,21.7c.14-.15-1.39,1.81-1.39,1.81l2.25.26" />
         <circle class="cls-7" cx="87.35" cy="19.92" r="1.27" />
         <path class="cls-13" d="M86.85,20.57a.77.77,0,0,1-.67-.4h0a.76.76,0,0,1,.3-1.05.79.79,0,0,1,1,.31.77.77,0,0,1-.31,1A.69.69,0,0,1,86.85,20.57Z" />
         <polyline class="cls-14" points="95.83 26.94 94.56 28.89 95.24 30.16" />
         <line class="cls-14" x1="94.23" y1="29.96" x2="94.54" y2="28.94" />
         <line class="cls-14" x1="95.72" y1="29.08" x2="94.75" y2="28.6" />
         <polyline class="cls-14" points="98.36 25.23 97.1 27.18 97.78 28.46" />
         <line class="cls-14" x1="96.77" y1="28.26" x2="97.07" y2="27.23" />
         <line class="cls-14" x1="98.26" y1="27.38" x2="97.28" y2="26.9" />
         <path class="cls-15" d="M93.55,3.29S97.76,5,98.31,9" />
         <path class="cls-15" d="M93,.51c.37-.13,4.33,1,6,5" />
      </g>
   </g>
</svg>

