<?xml version="1.0" encoding="UTF-8"?>
<svg xmlns="http://www.w3.org/2000/svg" viewBox="0 0 181 101.74">
   <defs>
      <style type="text/css">.cls-1,.cls-7{fill:#f37531;}.cls-1,.cls-5{opacity:0.25;}.cls-2,.cls-3{fill:none;stroke-linecap:round;stroke-linejoin:round;}.cls-2{stroke:#f37531;}.cls-3{stroke:#48e33d;}.cls-4,.cls-5,.cls-6{fill:#48e33d;}.cls-4{opacity:0.5;}.cls-8{fill:#19b0de;}</style>
   </defs>
   <title>emptyMentionsMeFilter</title>
   <g id="emptyMentionsMeFilter" data-name="Layer 2">
      <g id="Final">
         <path class="cls-1" d="M59,81.47a14.23,14.23,0,0,1-7.93-3.59c-3.08-2.79-5.34-5.72-5.34-10.41,0-1.34-2.14-3.38-.46-6.72.1-.22,1.76,2,1.85,1.79.57-1.38-.32-3.56,1.51-5.47.22-.22,1.11,1.4,1.32,1.18,2.2-2.31,4.58-3.28,4.69-2.33a17.47,17.47,0,0,0-3.74,10.6c.07,5.38,4.46,8,8.38,8.73" />
         <path class="cls-1" d="M119.56,89.08l-2.66-1.23c7.78-4.43,4.94-12.95,4.23-14.25-.54-1-3.41-3-3.41-3a53.7,53.7,0,0,0-1-5.55l-10-43.83v-.08c2.81,7,5.76,10.2,9.18,1.39,0,0,2.75-6.32,2.75-9.14.34-3.73-16-15.32-20.27-9.83l.35.86c-5.07-3.39-13.17-3-17,.89l1.42-1.75c-4.22-5.49-20.62,6.1-20.27,9.83,0,2.82,2.75,9.14,2.75,9.14,4.3,11.06,7.84,3.17,11.31-7.32l-2,6L65,64.47h0c-.57,2.44-.92,4.22-1.25,6.17a9.76,9.76,0,0,0-2.9,2c-2.81,3.56-1.31,7.5-1.14,9.83.25,3.57,5,5.4,3.92,5.69l-2.09,1.2a9.77,9.77,0,0,0-2.75,4c-1.1,2.44-.58,3.17,2.1,3.09h59.81c2.67.08,3.17,0,2.33-2.54A9.84,9.84,0,0,0,119.56,89.08Z" />
         <path class="cls-2" d="M63.71,70.65c.46-2.82.95-5,1.13-5.58L75.13,20.14" />
         <path class="cls-2" d="M117.88,70.87c-.48-2.92-1-5.22-1.17-5.8L106.06,19.7" />
         <line class="cls-3" x1="155.42" y1="96.65" x2="167.95" y2="83.06" />
         <line class="cls-3" x1="161.93" y1="89.58" x2="160.56" y2="81.31" />
         <path class="cls-4" d="M168.9,81.93a11.36,11.36,0,0,1,2.23-6.3,10.49,10.49,0,0,1,4-3.09,10.71,10.71,0,0,1,3.74-.84,9.35,9.35,0,0,1-.24,1.85,10,10,0,0,1-2,4.45,10.42,10.42,0,0,1-4,3.09A9.94,9.94,0,0,1,168.9,81.93Z" />
         <path class="cls-5" d="M163.87,73.44a5.44,5.44,0,0,1,.19.91,4.93,4.93,0,0,1-.19,2.42,5.23,5.23,0,0,1-3,3.13,4.34,4.34,0,0,1-.2-.91,5,5,0,0,1,.2-2.42,5.25,5.25,0,0,1,1.37-2.11A5.12,5.12,0,0,1,163.87,73.44Z" />
         <path class="cls-6" d="M177.5,84.87a5,5,0,0,0-.74-.8,5.83,5.83,0,0,0-2.46-1.42,6,6,0,0,0-3-.09,6.37,6.37,0,0,0-2.06.87,6.2,6.2,0,0,0,.74.8,5.83,5.83,0,0,0,2.46,1.42,6.07,6.07,0,0,0,3,.09A5.91,5.91,0,0,0,177.5,84.87Z" />
         <path class="cls-2" d="M59,81.47a14.23,14.23,0,0,1-7.93-3.59c-3.08-2.79-5.34-6-5.34-10.66,0-1.34-2.14-3.38-.46-6.72.1-.22,1.76,2.26,1.85,2,.57-1.38-.32-3.56,1.51-5.47.22-.22,1.11,1.4,1.32,1.18,2.2-2.31,4.58-3.28,4.69-2.33a17.47,17.47,0,0,0-3.74,10.6c.07,5.38,4.46,8,8.38,8.73" />
         <path class="cls-2" d="M101.23,6.88C96.64.59,84.54.57,80.71,6.49" />
         <ellipse class="cls-7" cx="83.7" cy="16.52" rx="1.93" ry="1.87" transform="matrix(0.99, -0.11, 0.11, 0.99, -1.32, 9.44)" />
         <circle class="cls-8" cx="90.32" cy="35.52" r="7.24" />
         <path class="cls-2" d="M84.54,27.12a3,3,0,0,0,5.75-1.18h0a3.35,3.35,0,0,0,3,2.69,3.44,3.44,0,0,0,2.75-1.77" />
         <ellipse class="cls-7" cx="90.05" cy="23.46" rx="4.01" ry="2.55" transform="translate(-0.37 1.46) rotate(-0.93)" />
         <ellipse class="cls-1" cx="97.18" cy="14.87" rx="4.77" ry="6.46" transform="translate(1.73 38.43) rotate(-22.56)" />
         <ellipse class="cls-7" cx="96.68" cy="16.52" rx="1.87" ry="1.93" transform="translate(69.48 110.76) rotate(-83.6)" />
         <path class="cls-2" d="M98.28,3.58c4.22-5.49,20.62,6.1,20.27,9.83,0,2.82-2.75,9.14-2.75,9.14C111.34,34,107.69,25.09,104.1,14" />
         <path class="cls-2" d="M83.06,3.58c-4.21-5.49-20.61,6.1-20.26,9.83,0,2.82,2.74,9.14,2.74,9.14C70,34,73.66,25.09,77.25,14" />
         <path class="cls-6" d="M76.7,8.94a10.4,10.4,0,0,1,.46-1.81A10.12,10.12,0,0,1,79.71,3,10.52,10.52,0,0,1,84.1.4,11,11,0,0,1,87.92,0a9.91,9.91,0,0,1-.47,1.81A10.16,10.16,0,0,1,84.91,6a10.48,10.48,0,0,1-4.39,2.56A10.17,10.17,0,0,1,76.7,8.94Z" />
         <path class="cls-4" d="M149.26,101.73a9.45,9.45,0,0,1-1.86-.12,10,10,0,0,1-4.57-1.71,10.4,10.4,0,0,1-3.34-3.82,10.65,10.65,0,0,1-1.09-3.68,11.35,11.35,0,0,1,6.44,1.82,10.56,10.56,0,0,1,3.34,3.83A10.16,10.16,0,0,1,149.26,101.73Z" />
         <path class="cls-4" d="M53.68,33.87a11.37,11.37,0,0,1,1.93,6.41,10.52,10.52,0,0,1-1.43,4.87A10.74,10.74,0,0,1,51.66,48a11.36,11.36,0,0,1-1.93-6.4,10.52,10.52,0,0,1,1.43-4.88A10.11,10.11,0,0,1,53.68,33.87Z" />
         <path class="cls-4" d="M47.52,94.36a9.49,9.49,0,0,1-1.86-.12,10,10,0,0,1-4.57-1.71,10.46,10.46,0,0,1-3.34-3.83A11.07,11.07,0,0,1,36.66,85a10.25,10.25,0,0,1,1.87.11,10.11,10.11,0,0,1,4.57,1.71,10.56,10.56,0,0,1,3.34,3.83A9.91,9.91,0,0,1,47.52,94.36Z" />
         <path class="cls-6" d="M151.8,85.81a4.72,4.72,0,0,1,.24.9,5,5,0,0,1-.1,2.42,5.13,5.13,0,0,1-1.29,2.18,5.49,5.49,0,0,1-1.56,1.08,4.72,4.72,0,0,1-.24-.9,5,5,0,0,1,.1-2.42,5.13,5.13,0,0,1,1.28-2.18A5,5,0,0,1,151.8,85.81Z" />
         <path class="cls-6" d="M24.26,77.54a5.92,5.92,0,0,1,.24.9,5.13,5.13,0,0,1-.1,2.43A5.24,5.24,0,0,1,23.11,83a5.18,5.18,0,0,1-1.57,1.08,5.47,5.47,0,0,1-.23-.9,5,5,0,0,1,.09-2.42,5.24,5.24,0,0,1,1.29-2.17A5.07,5.07,0,0,1,24.26,77.54Z" />
         <path class="cls-5" d="M132.42,58.87a5.37,5.37,0,0,0-1,.31A6,6,0,0,0,129,60.76a6.25,6.25,0,0,0-1.38,2.61,6.4,6.4,0,0,0-.12,2.23,5.37,5.37,0,0,0,1-.31,5.87,5.87,0,0,0,2.36-1.58,6.11,6.11,0,0,0,1.39-2.62A5.89,5.89,0,0,0,132.42,58.87Z" />
         <path class="cls-5" d="M40.51,30.87A5.09,5.09,0,0,0,40.66,32a5.9,5.9,0,0,0,1.17,2.59,6.19,6.19,0,0,0,2.36,1.78,6.34,6.34,0,0,0,2.18.48,5.89,5.89,0,0,0-.14-1.08,5.81,5.81,0,0,0-1.18-2.58,6,6,0,0,0-2.36-1.79A5.9,5.9,0,0,0,40.51,30.87Z" />
         <path class="cls-5" d="M25.65,64.79a5.41,5.41,0,0,0-.31,1,5.8,5.8,0,0,0,0,2.84,6.13,6.13,0,0,0,1.41,2.6,6.28,6.28,0,0,0,1.79,1.33,6,6,0,0,0,.32-1,6,6,0,0,0-3.22-6.78Z" />
         <path class="cls-2" d="M58.43,95.61a8.06,8.06,0,0,1,8.33-8,8.69,8.69,0,0,1,4.66,1.32" />
         <path class="cls-2" d="M123,95.61a8.06,8.06,0,0,0-8.33-8A8.69,8.69,0,0,0,110,88.92" />
         <line class="cls-2" x1="85.2" y1="11" x2="80.93" y2="11.7" />
         <line class="cls-2" x1="95.2" y1="11" x2="99.48" y2="11.7" />
         <path class="cls-2" d="M64.13,87.73C56.5,84,56.71,68,68.54,70.78" />
         <path class="cls-2" d="M117.11,87.73c7.64-3.77,7.43-19.74-4.4-17" />
         <line class="cls-3" x1="148.75" y1="96.65" x2="180.5" y2="96.65" />
         <line class="cls-3" x1="0.5" y1="96.65" x2="138.57" y2="96.65" />
         <path class="cls-2" d="M76.17,64.77V89.68a5.51,5.51,0,0,0,5.49,5.49h0a5.51,5.51,0,0,0,5.5-5.49v-33" />
         <path class="cls-2" d="M104.53,64.74v24.9a5.51,5.51,0,0,1-5.5,5.5h0a5.51,5.51,0,0,1-5.49-5.5v-33" />
      </g>
   </g>
</svg>

