<?xml version="1.0" encoding="UTF-8"?>
<svg xmlns="http://www.w3.org/2000/svg" viewBox="0 0 194.78 124.53">
   <defs>
      <style type="text/css">.cls-1,.cls-2{fill:#16b1e0;}.cls-2{opacity:0.6;}.cls-3{fill:#fff;}.cls-10,.cls-13,.cls-15,.cls-16,.cls-19,.cls-21,.cls-22,.cls-4,.cls-5,.cls-9{fill:none;}.cls-4{stroke:#16b1e0;}.cls-12,.cls-13,.cls-16,.cls-19,.cls-23,.cls-4,.cls-5,.cls-9{stroke-linecap:round;}.cls-4,.cls-5{stroke-linejoin:round;}.cls-12,.cls-22,.cls-5,.cls-9{stroke:#19b0de;}.cls-11,.cls-12,.cls-6,.cls-8{fill:#19b0de;}.cls-14,.cls-20,.cls-6{opacity:0.25;}.cls-7,.cls-8{opacity:0.75;}.cls-12,.cls-13,.cls-15,.cls-16,.cls-18,.cls-19,.cls-21,.cls-22,.cls-23,.cls-9{stroke-miterlimit:10;}.cls-13,.cls-15,.cls-23{stroke:#ffac38;}.cls-14,.cls-23,.cls-24{fill:#ffac38;}.cls-16,.cls-18{stroke:#48e33d;}.cls-17,.cls-18{fill:#48e33d;}.cls-19,.cls-21{stroke:#ff752b;}.cls-20{fill:#ff752b;}.cls-25{opacity:0.5;}</style>
   </defs>
   <title>emptyFavoritesFilter</title>
   <g id="emptyFavoritesFilter" data-name="Layer 2">
      <g id="final">
         <path class="cls-1" d="M38.75,29.36c-.15-.22,1.54,2.57,1.54,2.57h-3" />
         <path class="cls-2" d="M8.74,17c.51.93,2.46,1.51,2.46,1.51L19,20.45c-2.68,2.6-2.6,7.05-1,10.24a11.36,11.36,0,0,0,6.73,5.54c3.88,1.21,8.07-.22,11.07-2.83s4.27-6.33,2.38-9.8A7.14,7.14,0,0,0,34,20.22l-1.87-.61.32,3.76a.3.3,0,0,1-.59.05l-1.36-16c-1.18.44-5.09,2.12-6.5,5.84-1.16,3.05-.39,6.75,2.27,11a.29.29,0,0,1-.1.4.27.27,0,0,1-.15.05.3.3,0,0,1-.25-.14,16.47,16.47,0,0,1-2.85-8l-.34-.11L12.18,12.93h0a2.82,2.82,0,0,0-2.3.18A2.86,2.86,0,0,0,8.74,17Zm1.95-2.3a.4.4,0,0,1,.5-.28l7.13,2a.4.4,0,0,1,.28.5.41.41,0,0,1-.39.3l-.12,0-7.12-2A.4.4,0,0,1,10.69,14.69Z" />
         <circle class="cls-3" cx="34.48" cy="25.98" r="1.67" />
         <path class="cls-1" d="M35.64,25.73a.86.86,0,0,0-.65-.07.84.84,0,0,0-.51.41.84.84,0,0,0-.07.64.84.84,0,0,0,.41.51.81.81,0,0,0,.41.11.67.67,0,0,0,.24,0,.83.83,0,0,0,.5-.4h0A.85.85,0,0,0,35.64,25.73Z" />
         <polyline class="cls-4" points="23.36 35.19 25.02 37.74 24.12 39.41" />
         <line class="cls-4" x1="25.45" y1="39.15" x2="25.05" y2="37.81" />
         <line class="cls-4" x1="23.49" y1="38" x2="24.77" y2="37.37" />
         <polyline class="cls-4" points="20.03 32.95 21.69 35.51 20.79 37.18" />
         <line class="cls-4" x1="22.12" y1="36.92" x2="21.72" y2="35.58" />
         <line class="cls-4" x1="20.17" y1="35.77" x2="21.45" y2="35.14" />
         <path class="cls-4" d="M26.34,4.16s-5.52,2.22-6.24,7.51" />
         <path class="cls-4" d="M27,.51c-.48-.17-5.68,1.3-7.89,6.58" />
         <polyline class="cls-5" points="166.26 16.98 160.17 56.11 69.31 56.11 63.23 16.98" />
         <g id="inisde_box_-_base" data-name="inisde box - base">
            <polygon class="cls-6" points="173.3 88.3 174.19 87.98 171.96 84.59 168.78 79.75 163.43 71.62 162.97 73 161.91 74.69 161.61 75.07 164.19 76.21 166.15 78.24 166.94 78.65 167.6 79.86 168.1 81.45 168.84 84.15 168.88 86.94 168.43 87.96 169.09 88.3 173.3 88.3" />
            <polygon class="cls-6" points="55.17 88.3 61.55 88.28 61.11 86.81 60.93 85.14 61.25 81.82 62.09 80.38 63.24 78.52 66.04 76.36 68.25 75.35 67.13 73.8 66.54 72.53 66.24 71.48 55.17 88.3" />
            <path class="cls-6" d="M137.88,82.45l1.58-3.63-1.62-.67L136,77l-1.54-1.45-1.29-1.92-.82-2.89.07-2.36.25-1.5H97L97.26,68l0,2.88-1.09,3L94.9,75.48l-2.65,2-2.15.88,1.29,2.36L92,82.58l.28,2.84-.57,2.88H99.1l.28-1.12-.14-2,.29-2.34.82-2.28,1.18-2,2.6-1.77,4.19-1.89,3.33-.66,2.84-.23,3.57.12,3.31.53,2.78.88,2.53,1.36,1.38,1.23,1.88,3.66.56,3.07-.27,2.66.27.75h7.64l-.63-2.24Zm-12.76-12a1.45,1.45,0,0,1-.58.52,3.4,3.4,0,0,1-2.57.15,1.5,1.5,0,0,1-.85-.71,1.28,1.28,0,0,1,.06-1.2h0a2.74,2.74,0,0,1,3.87-.08h0A1.39,1.39,0,0,1,125.12,70.46Zm4,3.41a1.13,1.13,0,0,1-.42.39,2.54,2.54,0,0,1-1.92.1,1.09,1.09,0,0,1-.63-.52,1,1,0,0,1,0-.89h0a1.61,1.61,0,0,1,1.42-.63,1.65,1.65,0,0,1,1.45.56h0A1,1,0,0,1,129.15,73.87Z" />
         </g>
         <g id="sides_of_box" data-name="sides of box" class="cls-7">
            <polygon class="cls-8" points="160.17 61.85 160.17 60.81 160.17 58.47 160.17 56.43 160.66 56.75 170.25 69.23 182.39 85.04 184.42 87.68 184.08 88.3 174.4 88.3 167.9 78.42 163.43 71.62 163.57 69.39 163.43 68.01 162.67 65.28 161.63 63.27 160.17 61.85" />
            <polygon class="cls-8" points="69.33 62.02 69.31 58.63 69.31 56.91 68.86 56.7 64.97 61.76 57.97 70.88 45.19 87.51 45.19 88.28 51.65 88.28 54.41 88.28 55.52 87.78 63.81 75.18 66.24 71.48 66.04 68.85 66.64 66.23 67.68 63.89 69.33 62.02" />
            <polygon class="cls-8" points="156.75 56.11 158.94 56.11 160.17 56.43 160.17 58.79 160.17 60.81 159.92 61.6 157.8 60.27 153.14 58.87 148.56 58.53 144.73 58.71 140.47 59.59 137.92 60.6 135.07 62.57 133.42 64.44 132.73 66.66 131.26 66.89 117.57 66.89 97.04 66.88 94.64 62.14 91.27 59.97 86.3 58.62 83.95 58.37 80.36 58.32 77.83 58.67 74.29 59.5 71.42 60.67 69.33 62.02 69.31 58.63 69.31 56.91 69.7 56.01 70.73 56.01 156.75 56.11" />
         </g>
         <polygon class="cls-5" points="160.17 56.11 69.31 56.11 44.59 88.3 184.9 88.3 160.17 56.11" />
         <line class="cls-5" x1="66.24" y1="71.48" x2="55.17" y2="88.3" />
         <line class="cls-5" x1="174.4" y1="88.3" x2="163.43" y2="71.62" />
         <polyline class="cls-5" points="44.59 88.3 44.59 99.19 184.89 99.19 184.89 88.3" />
         <polyline class="cls-6" points="44.59 88.3 44.59 99.19 184.89 99.19 184.89 88.3" />
         <line class="cls-5" x1="97.04" y1="66.88" x2="132.66" y2="66.88" />
         <line class="cls-5" x1="160.17" y1="56.11" x2="160.17" y2="61.85" />
         <line class="cls-5" x1="69.31" y1="56.11" x2="69.31" y2="66.88" />
         <path class="cls-9" d="M84.78,72.78a28,28,0,0,1-3,.24c-8,.25-14.64-2.84-14.76-6.9s6.28-7.54,14.31-7.79S96,61.17,96.14,65.23a4.15,4.15,0,0,1-.51,2.07" />
         <path class="cls-10" d="M69.33,62a11.08,11.08,0,0,1,1.84-1.22c5.58-3,14.79-3.33,20.55-.63s5.91,7.34.32,10.38-14.79,3.33-20.55.64A10.71,10.71,0,0,1,69,69.6" />
         <path class="cls-11" d="M96.05,64.51a3,3,0,0,0-.11-.32,3,3,0,0,0-.13-.39c0-.12-.12-.24-.18-.36a3.3,3.3,0,0,0-.18-.32c-.08-.12-.17-.23-.26-.35s-.15-.21-.24-.32l-.31-.31c-.1-.1-.2-.21-.32-.32s-.24-.19-.36-.29l-.39-.3c-.15-.11-.32-.21-.48-.31l-.39-.24a14.57,14.57,0,0,0-2.06-1l-.52-.17-.63-.22-.64-.17L88.26,59l-.67-.14L87,58.72l-.66-.1-.69-.1L85,58.46l-.73-.07-.76,0-.65,0c-1,0-1.91,0-2.86.08l-.65.07-.76.08-.72.11-.65.11-.69.14-.65.14-.62.17-.66.18L74,59.6l-.63.22-.61.25-.51.21c-.37.16-.71.34-1,.52h0a10.6,10.6,0,0,0-.94.56l-.38.27c-.15.11-.31.22-.45.34s0,0-.06,0h0a5.21,5.21,0,0,0-2.26,4.09A4.87,4.87,0,0,0,69,69.6h0a6.65,6.65,0,0,0,.65.51l.17.12c.2.13.4.26.61.38l.22.13q.41.23.87.45t1.08.45l.51.18c.22.07.42.15.64.21s.42.12.64.18.39.11.59.15.44.1.67.14l.63.13.66.1.69.1.66.07L79,73l.78,0,.63,0a27.71,27.71,0,0,0,2.88-.09l.62-.06.79-.09h.11A21.24,21.24,0,0,0,92,70.55a8.47,8.47,0,0,0,3.58-3.25h0a4.66,4.66,0,0,0,.26-.61,1.21,1.21,0,0,0,0-.14,4.77,4.77,0,0,0,.13-.51l0-.17a3.39,3.39,0,0,0,0-.64A4.43,4.43,0,0,0,96.05,64.51ZM81.67,67.89c-2.42.08-4.41-.85-4.45-2.08s1.89-2.27,4.32-2.35S86,64.32,86,65.54,84.09,67.82,81.67,67.89Z" />
         <path class="cls-12" d="M97.26,68a11.47,11.47,0,0,0-1.12-3.07l-10.24.24a1.43,1.43,0,0,1,.09.41c0,1.23-1.9,2.28-4.32,2.35s-4.41-.85-4.45-2.08a1.17,1.17,0,0,1,.09-.48l-10.22.24c-.33,1.93-.78,4.36.55,5.38s2.57-.35,4.37.47c1,.44,1.13,1.6,1.54,2.61L76,73.92l2.33-.07A2,2,0,0,1,79.9,73c1.34,0,1.21,1.28,2.81,1.25,1.41,0,1.55-1.43,2.7-1.59s2,1.36,4.06.75,1.17-2.13,2.08-2.62,1.59-.26,2.36-.85.72-1.22,1.11-1.75A1.34,1.34,0,0,1,97.26,68" />
         <path class="cls-9" d="M90.17,78.44a14.84,14.84,0,0,0,2.08-1,10.91,10.91,0,0,0,4.2-3.92c1.23-2,1.47-6-.64-9.71" />
         <path class="cls-9" d="M67.27,64.7c-2,4-1.2,7.07-.3,8.81a9.87,9.87,0,0,0,1.24,1.86" />
         <ellipse class="cls-3" cx="75.02" cy="62.24" rx="0.95" ry="0.48" transform="translate(-1.88 2.34) rotate(-1.76)" />
         <ellipse class="cls-3" cx="79.73" cy="59.87" rx="0.45" ry="0.23" transform="translate(-1.8 2.48) rotate(-1.76)" />
         <ellipse class="cls-3" cx="77.68" cy="61.6" rx="0.45" ry="0.23" transform="translate(-1.86 2.42) rotate(-1.76)" />
         <ellipse class="cls-3" cx="80.59" cy="62.12" rx="0.45" ry="0.23" transform="translate(-1.87 2.51) rotate(-1.76)" />
         <ellipse class="cls-3" cx="90.74" cy="61.81" rx="0.45" ry="0.23" transform="translate(-1.86 2.82) rotate(-1.76)" />
         <ellipse class="cls-3" cx="91.04" cy="63.77" rx="0.45" ry="0.23" transform="translate(-1.92 2.83) rotate(-1.76)" />
         <ellipse class="cls-3" cx="87.68" cy="64.7" rx="0.45" ry="0.23" transform="translate(-1.95 2.73) rotate(-1.76)" />
         <ellipse class="cls-3" cx="86.39" cy="61.54" rx="0.95" ry="0.48" transform="translate(-1.85 2.69) rotate(-1.76)" />
         <ellipse class="cls-3" cx="91.54" cy="66.14" rx="0.95" ry="0.48" transform="translate(-1.99 2.85) rotate(-1.76)" />
         <path class="cls-9" d="M97.12,67.69a11.13,11.13,0,0,0-1.26-3.78" />
         <ellipse class="cls-9" cx="81.6" cy="65.68" rx="4.39" ry="2.22" transform="translate(-1.98 2.54) rotate(-1.76)" />
         <path class="cls-11" d="M77.66,66.07a.93.93,0,0,1,.26-1c.56-.58,1,.18,2,.05s.75-1.1,1.64-1.15c.73,0,.71.34,1.38.44s1-.27,1.69.06c.41.2.31.67.59.92s.49.26.24.69,1.72-.31,1.72-.31l-1.08-1.69-3.15-1.3-3.57.62-2.11.7v1.68Z" />
         <path class="cls-13" d="M133.42,65c1.52-4.08,7.23-6.21,14.15-6.42s13.05,2.19,14.71,5.89" />
         <path class="cls-14" d="M162.69,64.91l-.09-.27h-.37a2.81,2.81,0,0,0-.1-.31c0-.13-.08-.26-.13-.39a3.13,3.13,0,0,0-.19-.36c-.06-.1-.11-.21-.18-.32a2.7,2.7,0,0,0-.25-.34l-.25-.33-.3-.3L160.5,62c-.11-.1-.23-.19-.35-.28l-.4-.31c-.15-.11-.31-.2-.47-.3l-.39-.25a14.57,14.57,0,0,0-2.06-1l-.52-.17-.64-.22L155,59.3l-.59-.16-.66-.14-.64-.13-.65-.1-.7-.1-.66-.06-.72-.07-.77,0-.64,0c-1,0-1.92,0-2.87.08l-.64.07-.76.08-.72.11-.66.11-.68.14-.65.14-.63.17-.65.18-.58.19c-.21.08-.43.14-.63.22l-.62.25-.51.21a15.06,15.06,0,0,0-2,1.09l-.37.27a5.48,5.48,0,0,0-.46.34l-.06,0h0a5.81,5.81,0,0,0-2.15,3.14h-.22l-.27.42c-.35,2-.58,4.32.92,5.47a2.32,2.32,0,0,0,2.09.35,3.67,3.67,0,0,1,2.15.16,2.91,2.91,0,0,1,1.29,1.76,6.77,6.77,0,0,0,1.38,2l2.43.21a3.72,3.72,0,0,0,1.14-1c.5-.6,1.14-1.32,1.77-1.32,0,0,0,.2,0,.2a1.21,1.21,0,0,1,1,.3,2.23,2.23,0,0,0,1.84.75,1.87,1.87,0,0,0,1.61-.76,2.44,2.44,0,0,1,1.13-.82,2.07,2.07,0,0,1,1.19.34,3.63,3.63,0,0,0,2.93.39A1.9,1.9,0,0,0,157.36,72a1.63,1.63,0,0,1,.56-.9,3.28,3.28,0,0,1,1-.33,3.06,3.06,0,0,0,1.39-.55,1.87,1.87,0,0,0,.73-1.11,5.32,5.32,0,0,1,.46-.73c.18-.24.43-.6.67-.63a1.67,1.67,0,0,1,.86.14c.25.21.34,1.21.34,1.48h.4v0A14.19,14.19,0,0,0,162.69,64.91ZM152,66.4l-.29.45-.85.59-1.15.35-.65.19-1.64,0-1.55-.13-.89-.24-.36-.28-.74-.29-.45-.63,0-.68.26-.33.39-.3.67.15.61.09.8.13.38-.44.18-.5.74-.38.8-.06.38.43,1.09.15.85-.15h.27l.49.22.14.37.3.59.33.31Z" />
         <path class="cls-13" d="M150,74.05c.57-.43.88-1.11,1.66-1.21,1.23-.17,2,1.35,4.06.74s1.17-2.13,2.08-2.62,1.59-.26,2.36-.85.72-1.22,1.11-1.75,1.27-1.36,2.24.09" />
         <path class="cls-13" d="M133,66c-.68,2.24.18,4.52.9,5.07,1.24,1,2.57-.34,4.37.47s.94,3.66,3.22,4.2c2.46.58,2.79-2.66,4.67-2.6,1.09,0,1.21.85,2.06,1.14" />
         <path class="cls-13" d="M161.6,75.07a11.39,11.39,0,0,0,1-1.44c1.23-2,1.65-5.62-.64-9.7" />
         <path class="cls-13" d="M133.82,64.12c-2.28,4.5-1.56,7.77-.66,9.51a10.87,10.87,0,0,0,6.3,5.19" />
         <path class="cls-13" d="M152,66.42c-.52.92-2.17,1.63-4.14,1.69-2.42.07-4.41-.86-4.45-2.08" />
         <path class="cls-15" d="M143.48,66.4a1,1,0,0,1,.28-1.07c.61-.63,1.14.2,2.15.06s.81-1.21,1.79-1.26c.8,0,.78.37,1.52.48s1.1-.3,1.85.06c.45.22.34.74.64,1s.54.29.27.76" />
         <path class="cls-16" d="M100.18,81.83c-.13-4.06,6.28-7.55,14.31-7.79s14.64,2.84,14.76,6.89a4.19,4.19,0,0,1-.51,2.08" />
         <path class="cls-10" d="M102.44,77.72a12.49,12.49,0,0,1,1.84-1.22c5.59-3,14.79-3.32,20.55-.63s5.91,7.35.32,10.39-14.79,3.32-20.55.63a10.7,10.7,0,0,1-2.52-1.58" />
         <path class="cls-17" d="M129.16,80.21c0-.11-.07-.21-.11-.32s-.07-.26-.12-.38l-.19-.36c-.06-.11-.11-.22-.18-.33s-.17-.23-.25-.34-.16-.22-.25-.32-.2-.21-.3-.31-.21-.22-.33-.32-.24-.2-.36-.29-.25-.21-.39-.31l-.47-.3-.4-.25a14.56,14.56,0,0,0-2.06-1c-.17-.07-.34-.12-.52-.18s-.41-.15-.63-.21-.43-.12-.64-.18l-.59-.16-.67-.14c-.21,0-.41-.09-.63-.12l-.66-.1-.69-.11-.66-.06-.73-.07c-.25,0-.51,0-.76,0s-.43,0-.65,0a27.32,27.32,0,0,0-2.86.09l-.64.06-.77.09-.71.11-.66.1-.69.15-.65.14-.62.16-.66.19-.57.19-.63.21-.62.25c-.17.07-.35.14-.51.22-.37.16-.71.33-1,.51h0c-.33.18-.65.37-.94.56l-.37.27a5.48,5.48,0,0,0-.46.34l-.06,0h0a5.22,5.22,0,0,0-2.26,4.1,4.85,4.85,0,0,0,1.9,3.47h0c.2.17.42.34.65.5l.17.12.62.39.21.12c.28.16.56.31.87.45s.7.31,1.08.45c.17.07.34.12.52.18l.63.22.64.17.59.16.67.14.63.13.66.1.69.1c.22,0,6.82,0,7.08-.05h.11a21.62,21.62,0,0,0,7.25-2.22A8.47,8.47,0,0,0,128.73,83h0a5.41,5.41,0,0,0,.27-.61c0-.05,0-.1,0-.15a3.18,3.18,0,0,0,.13-.51l0-.17a3.39,3.39,0,0,0,0-.64A4.43,4.43,0,0,0,129.16,80.21ZM114.78,83.6c-2.42.07-4.41-.86-4.45-2.08s1.9-2.28,4.32-2.35,4.41.85,4.45,2.08S117.21,83.52,114.78,83.6Z" />
         <path class="cls-18" d="M130.37,83.67a1.33,1.33,0,0,0-2.24.24c-.39.53-.34,1.17-1.11,1.75s-1.46.37-2.36.85c-.56.31-.47,1-.8,1.67l-17.72.12a2.09,2.09,0,0,0-1-1.18c-1.8-.81-3.13.48-4.36-.46s-.89-3.46-.56-5.39L110.42,81a1.37,1.37,0,0,0-.09.49c0,1.22,2,2.15,4.45,2.08s4.36-1.13,4.32-2.35a1.22,1.22,0,0,0-.09-.42l10.24-.24a11.24,11.24,0,0,1,1.12,3.08" />
         <path class="cls-16" d="M130.05,88.17a10.94,10.94,0,0,0-1.12-8.66" />
         <path class="cls-16" d="M99.63,88.17a11.35,11.35,0,0,1,1-8.29" />
         <ellipse class="cls-3" cx="108.13" cy="77.94" rx="0.95" ry="0.48" transform="translate(-2.35 3.36) rotate(-1.76)" />
         <ellipse class="cls-3" cx="111.79" cy="84.45" rx="0.95" ry="0.48" transform="translate(-2.54 3.48) rotate(-1.76)" />
         <ellipse class="cls-3" cx="112.85" cy="75.57" rx="0.45" ry="0.23" transform="translate(-2.27 3.51) rotate(-1.76)" />
         <ellipse class="cls-3" cx="108.34" cy="84.87" rx="0.45" ry="0.23" transform="translate(-2.56 3.37) rotate(-1.76)" />
         <ellipse class="cls-3" cx="110.8" cy="77.3" rx="0.45" ry="0.23" transform="translate(-2.33 3.44) rotate(-1.76)" />
         <ellipse class="cls-3" cx="113.71" cy="77.83" rx="0.45" ry="0.23" transform="translate(-2.34 3.53) rotate(-1.76)" />
         <ellipse class="cls-3" cx="123.85" cy="77.52" rx="0.45" ry="0.23" transform="translate(-2.33 3.85) rotate(-1.76)" />
         <ellipse class="cls-3" cx="124.15" cy="79.48" rx="0.45" ry="0.23" transform="translate(-2.39 3.86) rotate(-1.76)" />
         <ellipse class="cls-3" cx="120.8" cy="80.41" rx="0.45" ry="0.23" transform="translate(-2.42 3.75) rotate(-1.76)" />
         <ellipse class="cls-3" cx="115.29" cy="86.12" rx="0.45" ry="0.23" transform="translate(-2.59 3.59) rotate(-1.76)" />
         <ellipse class="cls-3" cx="119.5" cy="77.24" rx="0.95" ry="0.48" transform="translate(-2.32 3.71) rotate(-1.76)" />
         <ellipse class="cls-3" cx="124.66" cy="81.84" rx="0.95" ry="0.48" transform="translate(-2.46 3.87) rotate(-1.76)" />
         <path class="cls-16" d="M130.23,83.39A11.13,11.13,0,0,0,129,79.61" />
         <ellipse class="cls-16" cx="114.72" cy="81.38" rx="4.39" ry="2.22" transform="translate(-2.45 3.57) rotate(-1.76)" />
         <path class="cls-17" d="M110.77,81.78a1,1,0,0,1,.26-1c.56-.57,1,.18,2,.06s.74-1.11,1.63-1.15c.73,0,.72.33,1.38.44s1-.28,1.69,0c.41.2.31.67.59.92s.49.26.25.69,1.71-.3,1.71-.3l-1.07-1.69L116,78.52l-3.57.62-2.1.69v1.69Z" />
         <path class="cls-19" d="M62.29,80.08c1.36-3.31,7.08-5.94,14-6.15s12.84,2,14.71,5.9" />
         <path class="cls-20" d="M91.61,80.29,91.32,80H91c0-.1-.07-.21-.1-.31s-.08-.26-.13-.38a3.13,3.13,0,0,0-.19-.36c-.06-.11-.11-.22-.18-.33a2.7,2.7,0,0,0-.25-.34,3.92,3.92,0,0,0-.25-.32c-.09-.11-.2-.21-.3-.31s-.21-.22-.33-.33l-.35-.28-.4-.31-.47-.3-.39-.25a13.53,13.53,0,0,0-2.06-1c-.17-.07-.35-.12-.52-.18s-.42-.15-.64-.21l-.63-.18-.6-.16-.66-.14c-.21,0-.42-.09-.64-.12l-.65-.1-.7-.11L79.85,74l-.72-.07-.77,0c-.21,0-.42,0-.64,0a27.43,27.43,0,0,0-2.87.09l-.64.06c-.25,0-.51,0-.76.09l-.72.11-.66.1-.68.15-.65.14-.63.16-.65.19-.58.19-.63.21-.62.25-.51.22a15,15,0,0,0-2,1.08l-.37.27a5.48,5.48,0,0,0-.46.34l-.06,0h0a5.8,5.8,0,0,0-2.15,3.15h-.22l-.27.42c-.35,2-.78,4.52.72,5.67a2.71,2.71,0,0,0,2.29.35,3.67,3.67,0,0,1,2.15.16,1.73,1.73,0,0,1,.88,1c.07.18,18.07.41,18.31,0a3.89,3.89,0,0,0,.34-.9c.1-.39.16-.6.36-.71a3.28,3.28,0,0,1,1-.33,3.06,3.06,0,0,0,1.39-.55A2.66,2.66,0,0,0,90,84.5a2.81,2.81,0,0,1,.27-.52c.18-.25.43-.61.67-.64a1,1,0,0,1,.67.14,2.57,2.57,0,0,1,.53,1.28l.18,0h.22v0A17.13,17.13,0,0,0,91.61,80.29ZM80.72,81.78l-.29.46-.85.59-1.15.34-.65.19-1.64,0-1.55-.12L73.7,83l-.36-.27-.74-.3-.45-.63,0-.68.26-.33.39-.3.67.16.61.09.8.12.39-.44.17-.49.74-.39.8,0,.38.42,1.09.15.85-.15h.27l.49.22.14.37.3.59.33.31Z" />
         <path class="cls-19" d="M85.6,88.17c.4-.66.26-1.44.86-1.76.9-.49,1.59-.27,2.36-.85s.72-1.22,1.11-1.75,1-1,1.76-.54c.52.35.6,1.51.6,1.51" />
         <path class="cls-19" d="M62.43,79.77A7.46,7.46,0,0,0,62,81.16c-.35,1.93-.78,4.37.55,5.39s2.57-.35,4.37.47A2.18,2.18,0,0,1,68,88.3" />
         <path class="cls-19" d="M91.72,88.3a10.71,10.71,0,0,0-1-9" />
         <path class="cls-19" d="M62.43,79.77a9.54,9.54,0,0,0-.88,8.51" />
         <path class="cls-19" d="M80.72,81.8c-.52.92-2.17,1.63-4.14,1.69-2.42.07-4.41-.86-4.45-2.08" />
         <path class="cls-21" d="M72.2,81.78a1,1,0,0,1,.28-1.06c.61-.64,1.14.19,2.15,0s.81-1.21,1.79-1.26c.8,0,.78.37,1.52.49s1.1-.31,1.85.06c.45.22.34.73.64,1s.54.28.27.75" />
         <path class="cls-9" d="M138.87,80.08c1.37-3.31,7.08-5.94,14-6.15S165.75,76,167.6,79.86" />
         <path class="cls-6" d="M168.19,80.29,167.9,80h-.36c0-.1-.07-.21-.11-.31s-.07-.26-.12-.38l-.19-.36c-.06-.11-.11-.22-.18-.33s-.17-.23-.25-.34-.16-.22-.25-.32-.2-.21-.3-.31-.21-.22-.33-.33l-.36-.28c-.13-.1-.25-.21-.39-.31l-.47-.3-.4-.25a13.53,13.53,0,0,0-2.06-1c-.17-.07-.34-.12-.52-.18s-.41-.15-.63-.21-.43-.12-.64-.18l-.59-.16-.67-.14-.63-.12-.66-.1-.69-.11-.66-.06-.73-.07c-.25,0-.51,0-.76,0s-.43,0-.65,0a27.32,27.32,0,0,0-2.86.09l-.64.06-.77.09-.72.11-.65.1-.69.15-.65.14-.62.16L146,75l-.58.19-.62.21-.62.25c-.17.07-.35.14-.51.22a13.89,13.89,0,0,0-2,1.08l-.38.27c-.15.11-.31.22-.45.34l-.06,0h0a5.88,5.88,0,0,0-2.16,3.15h-.21l-.27.42c-.35,2-.78,4.52.71,5.67a2.73,2.73,0,0,0,2.3.35,3.68,3.68,0,0,1,2.15.16,1.74,1.74,0,0,1,.87,1c.08.16,18.07.41,18.31,0a3,3,0,0,0,.34-.9c.1-.39.17-.6.37-.71a3.28,3.28,0,0,1,1-.33,3.11,3.11,0,0,0,1.39-.55,2.73,2.73,0,0,0,.92-1.31,2.3,2.3,0,0,1,.26-.52c.18-.25.44-.61.68-.64a1,1,0,0,1,.66.14,2.68,2.68,0,0,1,.54,1.28l.18,0h.21v0A16.7,16.7,0,0,0,168.19,80.29Zm-10.88,1.49-.3.46-.85.59-1.15.34-.64.19-1.65,0-1.55-.12-.89-.25-.36-.27-.74-.3-.45-.63,0-.68.27-.33.38-.3.67.16.61.09.81.12.38-.44L152,80l.74-.39.79,0,.39.42,1.08.15.85-.15h.28l.49.22.14.37.3.59.32.31Z" />
         <path class="cls-9" d="M162.19,88.17c.39-.66.26-1.44.85-1.76.91-.49,1.6-.27,2.37-.85s.71-1.22,1.1-1.75,1-1,1.77-.54c.52.35.6,1.51.6,1.51" />
         <path class="cls-9" d="M139,79.77a7.43,7.43,0,0,0-.42,1.39c-.35,1.93-.78,4.37.55,5.39s2.57-.35,4.37.47a2.22,2.22,0,0,1,1.08,1.28" />
         <path class="cls-9" d="M168.3,88.3a10.7,10.7,0,0,0-1-9" />
         <path class="cls-9" d="M139,79.77a9.5,9.5,0,0,0-.87,8.53" />
         <path class="cls-9" d="M157.31,81.8c-.53.92-2.17,1.63-4.14,1.69-2.42.07-4.42-.86-4.46-2.08" />
         <path class="cls-22" d="M148.78,81.78a1,1,0,0,1,.29-1.06c.61-.64,1.13.19,2.14,0s.82-1.21,1.8-1.26c.8,0,.78.37,1.51.49s1.1-.31,1.85.06c.45.22.34.73.65,1s.54.28.27.75" />
         <path class="cls-13" d="M122.88,113s-4.37-4.45-.49-11" />
         <path class="cls-13" d="M149.28,112.41a9.62,9.62,0,0,0,.39-10.33" />
         <path class="cls-23" d="M149.85,102.67a1.6,1.6,0,0,0-.1-.31c0-.13-.07-.25-.12-.37a3.84,3.84,0,0,0-.18-.35c-.06-.11-.11-.21-.18-.32s-.16-.22-.24-.33-.15-.21-.24-.31l-.29-.3c-.11-.1-.2-.21-.32-.31l-.34-.28-.39-.3L147,99.2l-.38-.24a13.72,13.72,0,0,0-2-.93l-.5-.17c-.2-.07-.4-.15-.61-.21l-.62-.17-.57-.15-.65-.14c-.2,0-.4-.09-.61-.12l-.63-.1-.68-.1-.64-.06c-.23,0-.46,0-.7-.06l-.75,0-.61,0c-.93,0-1.86,0-2.78.09l-.61.06-.75.08-.69.11-.64.1-.66.14-.63.14-.6.16c-.21.06-.43.11-.64.18s-.37.12-.56.18l-.6.21-.6.24c-.17.07-.34.13-.5.21-.35.16-.68.32-1,.49h0a9.93,9.93,0,0,0-.91.54l-.36.26-.45.33s0,0,0,0h0a5.07,5.07,0,0,0-2.19,4,4.68,4.68,0,0,0,1.84,3.36h0c.19.17.41.33.63.49l.17.11c.18.13.38.25.59.38l.21.12c.26.15.54.29.84.43s.68.3,1,.44l.5.17.62.21.62.17.57.15.64.14.62.12.63.1c.22,0,.44.07.67.09l.64.07.7.06.74,0,.63,0c.92,0,1.86,0,2.78-.08l.6-.07.76-.08H139a20.63,20.63,0,0,0,7-2.14,8.23,8.23,0,0,0,3.46-3.15h0a6.21,6.21,0,0,0,.26-.59s0-.09,0-.14a4.43,4.43,0,0,0,.13-.49l0-.16a4.36,4.36,0,0,0,0-.62A2.74,2.74,0,0,0,149.85,102.67Zm-13.91,3.27c-2.34.07-4.27-.83-4.31-2s1.84-2.2,4.18-2.28,4.28.83,4.31,2S138.29,105.87,135.94,105.94Z" />
         <path class="cls-24" d="M140,103.27a1.11,1.11,0,0,1,.09.4c0,1.18-1.83,2.2-4.18,2.27s-4.27-.83-4.31-2a1.1,1.1,0,0,1,.1-.47l-9.9.23c-.32,1.87-.75,4.23.54,5.21s2.48-.33,4.22.46.91,3.54,3.12,4.06c2.38.56,2.7-2.58,4.52-2.52,1.3,0,1.17,1.24,2.72,1.21,1.37,0,1.5-1.38,2.61-1.53s2,1.31,3.93.72,1.14-2.06,2-2.53,1.54-.26,2.29-.83.69-1.18,1.07-1.69a1.14,1.14,0,0,1,1.65-.36,1.81,1.81,0,0,1,.46,1.16,17,17,0,0,0-.84-4ZM151,107.05c0,.07,0,.14,0,.2S151,107.17,151,107.05Z" />
         <path class="cls-13" d="M140,103.27a1.11,1.11,0,0,1,.09.4c0,1.18-1.83,2.2-4.18,2.27s-4.27-.83-4.31-2a1.1,1.1,0,0,1,.1-.47l-9.9.23c-.32,1.87-.75,4.23.54,5.21s2.48-.33,4.22.46.91,3.54,3.12,4.06c2.38.56,2.7-2.58,4.52-2.52,1.3,0,1.17,1.24,2.72,1.21,1.37,0,1.5-1.38,2.61-1.53s2,1.31,3.93.72,1.14-2.06,2-2.53,1.54-.26,2.29-.83.69-1.18,1.07-1.69a1.14,1.14,0,0,1,1.65-.36,1.81,1.81,0,0,1,.46,1.16,17,17,0,0,0-.84-4ZM151,107.05c0,.07,0,.14,0,.2S151,107.17,151,107.05Z" />
         <path class="cls-13" d="M149.29,112.41a9.18,9.18,0,0,1-3.11,2.57c-5.41,3-14.32,3.22-19.9.61a10,10,0,0,1-2.43-1.53" />
         <path class="cls-13" d="M139.15,117.13a26.27,26.27,0,0,1-2.85.24c-6.13.19-11.41-1.63-13.42-4.34" />
         <ellipse class="cls-13" cx="135.88" cy="103.8" rx="4.25" ry="2.14" transform="translate(-3.13 4.23) rotate(-1.76)" />
         <path class="cls-24" d="M132,104.21a.88.88,0,0,1,.24-.94c.55-.56,1,.17,1.9,0s.71-1.07,1.58-1.11c.71,0,.69.33,1.34.43s1-.27,1.63,0c.4.19.3.65.57.89s.48.25.24.67,1.66-.3,1.66-.3l-1-1.64-3-1.25-3.46.6-2,.67V104Z" />
         <path class="cls-3" d="M133.31,106.73l.81-.32s0,0,0,0h-1a.12.12,0,0,1-.1,0l-.31-.5s-.07,0-.09,0l-.31.5a.12.12,0,0,1-.1,0h-1c-.05,0-.07,0,0,0l.81.32s0,0,0,0l-.32.51s0,0,.09,0l.8-.31a.15.15,0,0,1,.13,0l.8.31c.05,0,.11,0,.09,0l-.32-.51S133.27,106.74,133.31,106.73Z" />
         <path class="cls-3" d="M145.81,106.44l.81-.31s0,0,0,0h-1c-.05,0-.09,0-.1,0l-.31-.5s-.08,0-.09,0l-.31.5s-.05,0-.1,0h-1c-.05,0-.07,0,0,0l.82.31s0,0,0,.06l-.32.5s0,0,.09,0l.8-.31a.29.29,0,0,1,.13,0l.8.31s.1,0,.09,0l-.32-.5S145.77,106.45,145.81,106.44Z" />
         <path class="cls-3" d="M141.87,99.9l.82-.32s0,0,0,0h-1a.11.11,0,0,1-.09,0l-.31-.5s-.08,0-.09,0l-.31.5a.15.15,0,0,1-.1,0h-1c-.05,0-.07,0,0,0l.82.32s.05,0,0,0l-.31.51s0,.05.09,0l.8-.31a.24.24,0,0,1,.12,0l.81.31s.1,0,.09,0l-.32-.51S141.84,99.91,141.87,99.9Z" />
         <path class="cls-3" d="M129.34,101.22l.82-.32s0,0,0,0h-1a.15.15,0,0,1-.1,0l-.31-.5s-.07,0-.09,0l-.31.5a.11.11,0,0,1-.09,0h-1s-.07,0,0,0l.82.32s0,0,0,0l-.32.51s.05,0,.09,0l.81-.31a.13.13,0,0,1,.12,0l.8.31c.05,0,.11,0,.09,0l-.31-.51S129.31,101.23,129.34,101.22Z" />
         <path class="cls-3" d="M131.35,98.45l.41-.16s0,0,0,0h-.5l-.05,0L131,98s0,0,0,0l-.16.25s0,0,0,0h-.51s0,0,0,0l.41.16s0,0,0,0l-.16.25s0,0,.05,0l.4-.16H131l.41.16s.05,0,0,0l-.16-.25S131.33,98.46,131.35,98.45Z" />
         <path class="cls-3" d="M134.78,98.87l.61-.24s0,0,0,0h-.74a.08.08,0,0,1-.07,0l-.23-.36a0,0,0,0,0-.06,0l-.23.36a.08.08,0,0,1-.07,0h-.75s-.05,0,0,0l.6.24s0,0,0,0l-.24.37s0,0,.07,0l.59-.23h.09l.6.23s.07,0,.06,0l-.23-.37S134.76,98.88,134.78,98.87Z" />
         <path class="cls-3" d="M134,100.57l.41-.15s0,0,0,0h-.5l-.05,0-.16-.25h0l-.16.25s0,0,0,0h-.51s0,0,0,0l.41.15s0,0,0,0l-.16.26s0,0,.05,0l.4-.15a.06.06,0,0,1,.06,0l.41.15s0,0,0,0l-.16-.26S134,100.58,134,100.57Z" />
         <path class="cls-3" d="M129.76,107.33l.41-.16s0,0,0,0h-.5l-.05,0-.16-.25h0l-.15.25-.05,0h-.51s0,0,0,0l.41.16s0,0,0,0l-.15.26s0,0,0,0l.4-.15a.06.06,0,0,1,.06,0l.41.15s0,0,0,0l-.16-.26S129.74,107.33,129.76,107.33Z" />
         <path class="cls-3" d="M125.31,102l.41-.16s0,0,0,0h-.5l0,0-.16-.25h0l-.16.25s0,0,0,0h-.51s0,0,0,0l.4.16s0,0,0,0l-.16.26s0,0,.05,0l.4-.15a.06.06,0,0,1,.06,0l.4.15s.06,0,0,0l-.16-.26S125.29,102,125.31,102Z" />
         <path class="cls-3" d="M142.86,104.47l.54-.21s0,0,0,0h-.67l-.06,0-.21-.33s-.05,0-.05,0l-.21.33-.07,0h-.66s0,0,0,0l.55.21s0,0,0,0l-.21.33s0,0,.06,0l.53-.21h.08l.54.21s.07,0,.06,0l-.21-.33S142.84,104.48,142.86,104.47Z" />
         <path class="cls-3" d="M135.85,109.12l.54-.21s0,0,0,0h-.67l-.06,0-.21-.34h-.06l-.21.34s0,0-.06,0h-.67s-.05,0,0,0l.54.21s0,0,0,0l-.21.33s0,0,.06,0l.53-.2a.11.11,0,0,1,.08,0l.54.2s.07,0,.06,0l-.21-.33S135.83,109.13,135.85,109.12Z" />
         <path class="cls-3" d="M145.57,102l.41-.16s0,0,0,0h-.5l-.05,0-.16-.25h0l-.16.25s0,0,0,0h-.51s0,0,0,0l.4.16s0,0,0,0l-.16.26s0,0,.05,0l.4-.15a.06.06,0,0,1,.06,0l.4.15s.06,0,.05,0l-.16-.26S145.55,102,145.57,102Z" />
         <path class="cls-3" d="M145.57,99.94l.54-.2s0,0,0,0h-.66a.06.06,0,0,1-.06,0l-.21-.32s0,0,0,0l-.21.32a.06.06,0,0,1-.06,0h-.66s0,0,0,0l.53.2s0,0,0,0l-.21.33s0,0,.06,0l.52-.2h.08l.53.2s.07,0,.06,0l-.21-.33S145.55,100,145.57,99.94Z" />
         <line class="cls-5" x1="44.59" y1="88.3" x2="184.9" y2="88.3" />
         <g id="crumb" class="cls-25">
            <path class="cls-24" d="M121.18,69.22a2.74,2.74,0,0,1,3.87-.08" />
            <path class="cls-24" d="M121.18,69.22a1.28,1.28,0,0,0-.06,1.2,1.5,1.5,0,0,0,.85.71,3.4,3.4,0,0,0,2.57-.15,1.45,1.45,0,0,0,.58-.52,1.39,1.39,0,0,0-.07-1.32" />
         </g>
         <g id="crumb-2" data-name="crumb" class="cls-25">
            <path class="cls-24" d="M126.23,73a1.61,1.61,0,0,1,1.42-.63,1.65,1.65,0,0,1,1.45.56" />
            <path class="cls-24" d="M126.22,73a1,1,0,0,0,0,.89,1.09,1.09,0,0,0,.63.52,2.54,2.54,0,0,0,1.92-.1,1.13,1.13,0,0,0,.42-.39,1,1,0,0,0-.05-1" />
         </g>
         <g id="crumb-3" data-name="crumb">
            <path class="cls-13" d="M121.18,69.22a2.74,2.74,0,0,1,3.87-.08" />
            <path class="cls-13" d="M121.18,69.22a1.28,1.28,0,0,0-.06,1.2,1.5,1.5,0,0,0,.85.71,3.4,3.4,0,0,0,2.57-.15,1.45,1.45,0,0,0,.58-.52,1.39,1.39,0,0,0-.07-1.32" />
         </g>
         <g id="crumb-4" data-name="crumb">
            <path class="cls-13" d="M126.23,73a1.61,1.61,0,0,1,1.42-.63,1.65,1.65,0,0,1,1.45.56" />
            <path class="cls-13" d="M126.22,73a1,1,0,0,0,0,.89,1.09,1.09,0,0,0,.63.52,2.54,2.54,0,0,0,1.92-.1,1.13,1.13,0,0,0,.42-.39,1,1,0,0,0-.05-1" />
         </g>
         <line class="cls-5" x1="0.5" y1="72.24" x2="56.56" y2="72.24" />
         <line class="cls-5" x1="172.5" y1="72.24" x2="194.28" y2="72.24" />
         <polyline class="cls-5" points="167.75 7.21 61.66 7.21 58.92 16.98 170.49 16.98 167.75 7.21" />
         <polyline class="cls-6" points="167.75 7.21 61.66 7.21 58.92 16.98 170.49 16.98 167.75 7.21" />
         <g class="cls-25">
            <path class="cls-24" d="M120.39,37.86l6.81-2.62c.33-.13.16-.37-.26-.37h-8.39a1,1,0,0,1-.8-.32l-2.61-4.17a.55.55,0,0,0-.72,0l-2.6,4.17a1,1,0,0,1-.81.32h-8.39c-.41,0-.59.24-.26.37l6.81,2.62c.28.1.4.29.29.45l-2.64,4.23c-.13.22.37.39.73.25l6.72-2.58a1.49,1.49,0,0,1,1,0L122,42.79c.36.14.87,0,.73-.25l-2.64-4.23C120,38.15,120.11,38,120.39,37.86Z" />
         </g>
         <path class="cls-24" d="M88.78,116.74l.9-.35s0,0,0,0H88.53a.12.12,0,0,1-.1,0l-.35-.55s-.08,0-.09,0l-.35.55a.16.16,0,0,1-.11,0H86.42c-.06,0-.08,0,0,0l.91.35s0,0,0,.06l-.35.56s0,0,.09,0l.89-.35h.14l.89.35c.05,0,.12,0,.1,0l-.35-.56S88.74,116.75,88.78,116.74Z" />
         <path class="cls-24" d="M155.66,104l.9-.35s0,0,0,0h-1.12a.16.16,0,0,1-.11,0l-.34-.55a.07.07,0,0,0-.1,0l-.34.55a.16.16,0,0,1-.11,0H153.3c-.06,0-.08,0,0,0l.91.35s.05,0,0,.06l-.35.56s.05,0,.1,0l.89-.35H155l.89.35s.12,0,.1,0l-.35-.56S155.62,104.05,155.66,104Z" />
         <path class="cls-24" d="M168.37,113.88l.9-.34s0-.05,0-.05h-1.12a.13.13,0,0,1-.11,0l-.34-.55a.09.09,0,0,0-.1,0l-.34.55a.13.13,0,0,1-.11,0H166c-.06,0-.08,0,0,.05l.91.34s.05,0,0,.06l-.35.57s.05,0,.1,0l.89-.34a.17.17,0,0,1,.14,0l.89.34s.12,0,.1,0l-.35-.57S168.33,113.9,168.37,113.88Z" />
         <path class="cls-24" d="M110.28,123.87l.91-.35s0,0,0,0H110a.14.14,0,0,1-.11,0l-.35-.56s-.08,0-.09,0l-.35.56a.13.13,0,0,1-.1,0h-1.12s-.08,0,0,0l.9.35s0,0,0,.06l-.35.56s0,.05.1,0l.89-.34a.15.15,0,0,1,.13,0l.9.34s.11,0,.09,0l-.35-.56S110.24,123.88,110.28,123.87Z" />
         <path class="cls-24" d="M92.87,119.07l.45-.18s0,0,0,0h-.55a.08.08,0,0,1-.06,0l-.17-.28h0l-.17.28,0,0h-.56s0,0,0,0l.45.18s0,0,0,0l-.17.28s0,0,0,0l.44-.17a.09.09,0,0,1,.07,0l.45.17s0,0,0,0l-.18-.28S92.85,119.07,92.87,119.07Z" />
         <path class="cls-24" d="M110.06,110.73l.46-.18s0,0,0,0h-.56l0,0-.17-.28a0,0,0,0,0,0,0l-.18.28s0,0,0,0h-.56s0,0,0,0l.45.18s0,0,0,0l-.18.28s0,0,0,0l.45-.18h.07l.44.18s.06,0,0,0l-.17-.28S110.05,110.74,110.06,110.73Z" />
         <path class="cls-24" d="M158.92,115.47l.45-.17s0,0,0,0h-.55a.06.06,0,0,1-.06,0l-.17-.27a0,0,0,0,0,0,0l-.17.27a.05.05,0,0,1,0,0h-.56s0,0,0,0l.45.17s0,0,0,0l-.17.28s0,0,0,0l.44-.17h.07l.45.17s.05,0,.05,0l-.18-.28S158.9,115.48,158.92,115.47Z" />
         <path class="cls-24" d="M93.36,115.34l.59-.23s0,0,0,0H93.2a.09.09,0,0,1-.07,0l-.23-.36a0,0,0,0,0-.06,0l-.23.36a.11.11,0,0,1-.07,0h-.73s0,0,0,0l.59.23s0,0,0,0l-.23.36s0,0,.06,0l.59-.22a.11.11,0,0,1,.08,0l.59.22s.07,0,.06,0l-.23-.36S93.33,115.35,93.36,115.34Z" />
         <path class="cls-24" d="M115.7,112.32l.6-.23s0,0,0,0h-.72a.09.09,0,0,1-.07,0l-.23-.36a0,0,0,0,0-.06,0L115,112a.11.11,0,0,1-.07,0h-.73s0,0,0,0l.59.23s0,0,0,0l-.23.36s0,0,.06,0l.58-.22h.09l.59.22s.07,0,.06,0l-.23-.36S115.68,112.33,115.7,112.32Z" />
         <path class="cls-24" d="M163.92,110.35l.59-.23s0,0,0,0h-.73l-.07,0-.22-.37a.09.09,0,0,0-.07,0l-.22.37-.07,0h-.73s0,0,0,0l.59.23s0,0,0,0l-.22.37s0,0,.06,0l.58-.22a.14.14,0,0,1,.09,0l.58.22s.08,0,.07,0l-.23-.37S163.9,110.36,163.92,110.35Z" />
      </g>
   </g>
</svg>

