<svg xmlns="http://www.w3.org/2000/svg" viewBox="0 0 240 260"><defs><style>.cls-1{opacity:0.3;}.cls-2{fill:#24c3ef;}.cls-3{fill:#009fd0;}.cls-4{opacity:0.65;}.cls-5{opacity:0.25;}.cls-6{opacity:0.7;}.cls-7{opacity:0.75;}.cls-8{fill:#16b1e0;}.cls-11,.cls-14,.cls-15,.cls-8,.cls-9{fill-rule:evenodd;}.cls-9{fill:#fff;}.cls-10{opacity:0.5;}.cls-11{fill:#ffac38;}.cls-12{fill:#e858e8;}.cls-13{fill:#00cc96;}.cls-14,.cls-16{fill:#73e3ff;}.cls-15{fill:#1dc4f2;}</style></defs><g id="final"><g class="cls-1"><polygon class="cls-2" points="120.09 152.74 120.09 199.46 66.53 176.1 120.09 152.74"/></g><path class="cls-3" d="M120.09,246.67a.79.79,0,0,1-.2,0L66.33,223.27a.51.51,0,0,1-.3-.46V199.59a.5.5,0,0,1,1,0v22.89l52.56,22.92V199.78L66.33,176.56a.5.5,0,1,1,.4-.92L120.29,199a.49.49,0,0,1,.3.46v46.71a.51.51,0,0,1-.22.42A.54.54,0,0,1,120.09,246.67Z"/><path class="cls-3" d="M120.09,246.67a.53.53,0,0,1-.27-.08.52.52,0,0,1-.23-.42V199.46a.51.51,0,0,1,.3-.46l54-23.56.4.92-53.73,23.42V245.4l52.57-22.92V199.31h1v23.5a.51.51,0,0,1-.3.46l-53.57,23.36A.65.65,0,0,1,120.09,246.67Z"/><g class="cls-4"><polygon class="cls-2" points="120.09 152.74 120.09 199.46 173.66 176.1 120.09 152.74"/></g><path class="cls-3" d="M93.31,211.63a.48.48,0,0,1-.2,0L39.55,188.24a.5.5,0,0,1,0-.92l26.78-11.68a.47.47,0,0,1,.4,0L120.29,199a.5.5,0,0,1,0,.91L93.51,211.59A.45.45,0,0,1,93.31,211.63ZM41,187.78l52.31,22.81,25.53-11.13L66.53,176.64Z"/><polygon class="cls-3" points="70.5 245.64 66.93 247.2 74.08 250.32 77.65 248.76 70.5 245.64"/><path class="cls-3" d="M173.66,176.6a.45.45,0,0,1-.2,0L119.89,153.2a.5.5,0,0,1,0-.92l26.79-11.67a.47.47,0,0,1,.4,0L200.64,164a.5.5,0,0,1,0,.92l-26.78,11.68A.48.48,0,0,1,173.66,176.6Zm-52.32-23.86,52.32,22.81,25.53-11.13-52.31-22.81Z"/><path class="cls-3" d="M66.53,176.6a.45.45,0,0,1-.2,0L39.55,164.88a.5.5,0,0,1,0-.92l53.56-23.35a.47.47,0,0,1,.4,0l26.78,11.67a.5.5,0,0,1,0,.92L66.73,176.56A.45.45,0,0,1,66.53,176.6ZM41,164.42l25.53,11.13,52.31-22.81L93.31,141.61Z"/><g class="cls-5"><polygon class="cls-3" points="74.07 248.98 77.64 250.53 70.51 253.64 66.94 252.09 74.07 248.98"/></g><path class="cls-3" d="M146.88,211.63a.45.45,0,0,1-.2,0l-26.79-11.68a.5.5,0,0,1,0-.91l53.57-23.36a.47.47,0,0,1,.4,0l26.78,11.68a.5.5,0,0,1,0,.92l-53.56,23.35A.51.51,0,0,1,146.88,211.63Zm-25.54-12.17,25.54,11.13,52.31-22.81-25.53-11.14Z"/><polygon class="cls-3" points="177.44 248.09 181.04 249.66 173.84 252.8 170.24 251.23 177.44 248.09"/><g class="cls-5"><polygon class="cls-3" points="185.65 233.56 189.25 235.13 182.05 238.28 178.45 236.71 185.65 233.56"/></g><polygon class="cls-3" points="61.08 129.97 64.06 128.43 68.72 133.05 65.75 134.59 61.08 129.97"/><g class="cls-6"><polygon class="cls-3" points="165.3 134.65 163.13 131.88 167.24 126.69 169.41 129.46 165.3 134.65"/></g><g class="cls-6"><polygon class="cls-3" points="69.39 161.8 70.8 158.57 77.32 159.72 75.92 162.95 69.39 161.8"/></g><g class="cls-7"><polygon class="cls-3" points="47.06 227.78 48.98 225.59 55.2 226.84 53.28 229.04 47.06 227.78"/></g><g class="cls-5"><polygon class="cls-3" points="183.85 253.27 185.77 251.07 191.99 252.33 190.07 254.53 183.85 253.27"/></g><polygon class="cls-3" points="138.44 164.6 137.16 161.86 141.19 156.92 142.47 159.66 138.44 164.6"/><g class="cls-1"><polygon class="cls-2" points="116.9 135.48 113.88 136.7 109.53 131.85 112.56 130.63 116.9 135.48"/></g><g class="cls-1"><polygon class="cls-2" points="166.63 153.02 167.69 156.1 162.63 160.19 161.57 157.11 166.63 153.02"/></g><g class="cls-6"><polygon class="cls-3" points="93.24 170.37 96.43 168.87 101.72 173.73 98.53 175.24 93.24 170.37"/></g><path class="cls-3" d="M120.59,200.22,65.28,176.1,120.59,152ZM67.78,176.1l51.81,22.59V153.51Z"/><path class="cls-3" d="M120.09,199.75a.5.5,0,0,1-.5-.5c0-1.36,0-2.69,0-4a.5.5,0,0,1,.49-.51.53.53,0,0,1,.51.5c0,1.3,0,2.64,0,4a.5.5,0,0,1-.5.5Zm-.11-8a.51.51,0,0,1-.5-.49c0-1.36-.09-2.69-.16-4a.51.51,0,0,1,.48-.53.5.5,0,0,1,.52.48c.07,1.3.12,2.63.16,4a.5.5,0,0,1-.49.52Zm-.4-8a.5.5,0,0,1-.5-.46c-.09-1.36-.21-2.68-.34-4a.5.5,0,0,1,.45-.55.51.51,0,0,1,.55.45c.13,1.29.24,2.63.34,4a.5.5,0,0,1-.46.53Zm-.81-8a.5.5,0,0,1-.49-.43c-.19-1.35-.39-2.67-.62-3.93a.5.5,0,0,1,.4-.58.49.49,0,0,1,.58.41c.23,1.26.44,2.6.63,4a.51.51,0,0,1-.43.57ZM117.34,168a.49.49,0,0,1-.48-.38c-.31-1.33-.65-2.61-1-3.83a.51.51,0,0,1,.33-.63.5.5,0,0,1,.62.34c.38,1.24.73,2.55,1,3.89a.5.5,0,0,1-.37.6ZM115,160.33a.51.51,0,0,1-.47-.32c-.48-1.25-1-2.47-1.58-3.62a.5.5,0,1,1,.89-.44c.58,1.18,1.13,2.42,1.62,3.7a.49.49,0,0,1-.28.64A.39.39,0,0,1,115,160.33Zm-3.55-7.14a.5.5,0,0,1-.42-.24,38.65,38.65,0,0,0-2.26-3.22.49.49,0,0,1,.08-.7.5.5,0,0,1,.7.08,38.56,38.56,0,0,1,2.33,3.31.51.51,0,0,1-.16.69A.53.53,0,0,1,111.47,153.19Zm-4.92-6.27a.48.48,0,0,1-.35-.16c-.9-.92-1.87-1.82-2.89-2.69a.5.5,0,0,1,.65-.76,38.9,38.9,0,0,1,3,2.76.51.51,0,0,1-.36.85Zm-6.07-5.18a.52.52,0,0,1-.29-.09c-1-.74-2.14-1.47-3.3-2.18a.49.49,0,0,1-.17-.68.5.5,0,0,1,.69-.17c1.18.72,2.31,1.46,3.36,2.22a.49.49,0,0,1,.12.69A.49.49,0,0,1,100.48,141.74Zm-6.8-4.17a.53.53,0,0,1-.24-.06c-1.12-.59-2.31-1.19-3.55-1.78a.49.49,0,0,1-.24-.66.5.5,0,0,1,.67-.24c1.25.59,2.46,1.2,3.59,1.8a.5.5,0,0,1-.23.94Zm-7.22-3.43a.51.51,0,0,1-.2,0c-1.18-.51-2.41-1-3.68-1.52a.49.49,0,0,1-.28-.64.5.5,0,0,1,.65-.29c1.28.51,2.51,1,3.71,1.53a.5.5,0,0,1,.26.66A.49.49,0,0,1,86.46,134.14Zm-7.41-3a.48.48,0,0,1-.2,0c-1.25-.54-2.48-1.11-3.65-1.71a.51.51,0,0,1-.21-.68.49.49,0,0,1,.67-.21c1.15.59,2.36,1.15,3.59,1.68a.5.5,0,0,1-.2,1ZM72,127.48a.5.5,0,0,1-.26-.08c-1.17-.72-2.29-1.48-3.34-2.27a.5.5,0,1,1,.59-.8c1,.77,2.13,1.52,3.27,2.22a.5.5,0,0,1-.26.93Zm-6.39-4.8a.5.5,0,0,1-.34-.13,38.53,38.53,0,0,1-2.84-2.88.48.48,0,0,1,0-.7.5.5,0,0,1,.71,0,36.53,36.53,0,0,0,2.77,2.8.5.5,0,0,1,0,.71A.49.49,0,0,1,65.56,122.68Zm103.55-.45h0a29,29,0,0,1-4-.45.5.5,0,0,1-.4-.58.49.49,0,0,1,.58-.4,28.4,28.4,0,0,0,3.9.44.49.49,0,0,1,.48.51A.51.51,0,0,1,169.11,122.23Zm4-.19a.5.5,0,0,1-.49-.43.49.49,0,0,1,.42-.56,18.5,18.5,0,0,0,3.78-.93.5.5,0,0,1,.34.94,19,19,0,0,1-4,1Zm-11.84-1.21a.4.4,0,0,1-.15,0c-1.25-.38-2.53-.84-3.8-1.37a.5.5,0,0,1-.27-.66.51.51,0,0,1,.65-.27c1.24.52,2.49,1,3.72,1.35a.5.5,0,0,1,.33.62A.51.51,0,0,1,161.26,120.83Zm19.28-1.54a.52.52,0,0,1-.42-.22.5.5,0,0,1,.14-.69,17.88,17.88,0,0,0,2-1.59l1-.94a.5.5,0,0,1,.7,0,.5.5,0,0,1,0,.71l-1,1a17.08,17.08,0,0,1-2.12,1.69A.6.6,0,0,1,180.54,119.29Zm-26.66-1.52a.46.46,0,0,1-.23-.06c-1.17-.61-2.35-1.28-3.51-2A.51.51,0,0,1,150,115a.49.49,0,0,1,.69-.16c1.14.7,2.3,1.36,3.45,2a.49.49,0,0,1,.21.67A.5.5,0,0,1,153.88,117.77Zm-93.61-1.06a.5.5,0,0,1-.41-.22A33.27,33.27,0,0,1,57.74,113a.5.5,0,0,1,.2-.68.5.5,0,0,1,.68.21,32.41,32.41,0,0,0,2.06,3.35.5.5,0,0,1-.12.7A.52.52,0,0,1,60.27,116.71Zm126-3a.45.45,0,0,1-.31-.11.49.49,0,0,1-.08-.7,29.65,29.65,0,0,0,2.24-3.22.5.5,0,0,1,.68-.18.51.51,0,0,1,.18.69,30.42,30.42,0,0,1-2.32,3.34A.5.5,0,0,1,186.25,113.73Zm-39.18-.16a.52.52,0,0,1-.29-.09c-1.07-.78-2.15-1.6-3.2-2.46a.5.5,0,0,1-.07-.7.5.5,0,0,1,.71-.07c1,.84,2.09,1.65,3.14,2.41a.5.5,0,0,1,.12.7A.49.49,0,0,1,147.07,113.57Zm-90.55-3.9a.49.49,0,0,1-.46-.33,32.83,32.83,0,0,1-1.2-3.88.5.5,0,0,1,1-.23A30.77,30.77,0,0,0,57,109a.49.49,0,0,1-.29.64A.39.39,0,0,1,56.52,109.67Zm84.37-1.17a.48.48,0,0,1-.34-.13c-1-.91-1.94-1.86-2.87-2.83a.48.48,0,0,1,0-.7.5.5,0,0,1,.71,0c.91,1,1.87,1.89,2.83,2.79a.49.49,0,0,1,0,.7A.46.46,0,0,1,140.89,108.5Zm49.39-1.64a.57.57,0,0,1-.18,0,.51.51,0,0,1-.28-.65,21.92,21.92,0,0,0,1.08-3.75.5.5,0,0,1,.58-.4.51.51,0,0,1,.4.59,22.12,22.12,0,0,1-1.13,3.92A.51.51,0,0,1,190.28,106.86Zm-54.93-4.13a.49.49,0,0,1-.38-.18c-.86-1-1.71-2.07-2.52-3.14a.5.5,0,0,1,.1-.7.51.51,0,0,1,.7.1c.79,1,1.63,2.09,2.48,3.1a.49.49,0,0,1,0,.7A.52.52,0,0,1,135.35,102.73Zm-80.66-.83a.51.51,0,0,1-.5-.45c-.1-1-.15-2-.15-3,0-.34,0-.67,0-1a.5.5,0,0,1,1,0c0,.32,0,.64,0,1a29,29,0,0,0,.15,2.95.5.5,0,0,1-.45.55Zm137.08-2.85h0a.5.5,0,0,1-.5-.51v-.1a23.43,23.43,0,0,0-.31-3.79.5.5,0,0,1,1-.16,24.29,24.29,0,0,1,.33,4v.12A.49.49,0,0,1,191.77,99.05Zm-61.24-2.7a.5.5,0,0,1-.42-.22c-.75-1.11-1.47-2.26-2.14-3.41a.5.5,0,0,1,.86-.51c.67,1.13,1.38,2.27,2.11,3.37a.49.49,0,0,1-.13.69A.5.5,0,0,1,130.53,96.35ZM55,93.93h-.08a.51.51,0,0,1-.41-.58,31.46,31.46,0,0,1,.93-3.95.5.5,0,0,1,1,.29,28,28,0,0,0-.9,3.83A.51.51,0,0,1,55,93.93Zm135.56-2.74a.51.51,0,0,1-.48-.35,33.68,33.68,0,0,0-1.41-3.68.5.5,0,1,1,.91-.41A33,33,0,0,1,191,90.54a.5.5,0,0,1-.33.62A.4.4,0,0,1,190.51,91.19Zm-64.13-1.67a.5.5,0,0,1-.42-.24c-.71-1.12-1.46-2.23-2.23-3.27a.51.51,0,0,1,.1-.7.5.5,0,0,1,.7.1c.79,1.07,1.56,2.19,2.28,3.34a.51.51,0,0,1-.16.69A.53.53,0,0,1,126.38,89.52ZM57.29,86.31a.54.54,0,0,1-.21,0,.49.49,0,0,1-.24-.66A31.52,31.52,0,0,1,58.78,82a.5.5,0,0,1,.69-.15.51.51,0,0,1,.16.69A29.47,29.47,0,0,0,57.75,86,.52.52,0,0,1,57.29,86.31Zm130-2.42a.5.5,0,0,1-.43-.25c-.63-1.1-1.33-2.24-2.09-3.37a.5.5,0,0,1,.14-.69.49.49,0,0,1,.69.13c.77,1.16,1.49,2.31,2.13,3.43a.52.52,0,0,1-.19.69A.54.54,0,0,1,187.26,83.89Zm-65.63-.8a.48.48,0,0,1-.38-.17c-.87-1-1.79-2-2.72-2.86a.5.5,0,1,1,.69-.72c1,.92,1.9,1.91,2.78,2.93a.5.5,0,0,1,0,.7A.54.54,0,0,1,121.63,83.09ZM61.57,79.58a.51.51,0,0,1-.39-.83c.58-.68,1.2-1.34,1.83-2,.33-.32.66-.64,1-1a.5.5,0,0,1,.71,0,.49.49,0,0,1,0,.7c-.33.3-.65.61-1,.92-.61.61-1.2,1.25-1.76,1.91A.49.49,0,0,1,61.57,79.58Zm54.31-2a.51.51,0,0,1-.31-.11c-1-.83-2.09-1.62-3.18-2.36a.5.5,0,0,1,.56-.82c1.11.74,2.2,1.55,3.25,2.4a.51.51,0,0,1,.07.71A.5.5,0,0,1,115.88,77.54Zm66.94-.3a.51.51,0,0,1-.4-.2c-.77-1-1.61-2.05-2.49-3.1a.51.51,0,0,1,.06-.71.52.52,0,0,1,.71.06c.89,1.06,1.74,2.12,2.52,3.14a.51.51,0,0,1-.1.71A.54.54,0,0,1,182.82,77.24Zm-115.35-3a.49.49,0,0,1-.41-.21.51.51,0,0,1,.12-.7,33.76,33.76,0,0,1,3.46-2.13.49.49,0,0,1,.67.21.49.49,0,0,1-.2.67,33.45,33.45,0,0,0-3.35,2.07A.52.52,0,0,1,67.47,74.21Zm41.79-1.13A.44.44,0,0,1,109,73c-1.15-.63-2.35-1.22-3.55-1.74a.5.5,0,0,1,.4-.92c1.23.54,2.45,1.14,3.63,1.79a.5.5,0,0,1,.2.68A.51.51,0,0,1,109.26,73.08Zm68.42-2a.5.5,0,0,1-.37-.17c-.91-1-1.83-2-2.73-2.9a.5.5,0,0,1,.72-.7c.91.94,1.83,1.92,2.75,2.93a.51.51,0,0,1-.37.84ZM74.5,70.42a.51.51,0,0,1-.47-.31.5.5,0,0,1,.28-.65,35.32,35.32,0,0,1,3.84-1.29.5.5,0,1,1,.27,1,36.5,36.5,0,0,0-3.74,1.26A.57.57,0,0,1,74.5,70.42Zm27.44-.54-.16,0c-1.24-.42-2.52-.77-3.8-1.07a.5.5,0,0,1-.38-.6.5.5,0,0,1,.6-.37c1.31.3,2.62.66,3.9,1.09a.5.5,0,0,1-.16,1Zm-19.75-1.6a.49.49,0,0,1-.49-.41.5.5,0,0,1,.41-.58,38.32,38.32,0,0,1,4-.46.5.5,0,0,1,.07,1,36.63,36.63,0,0,0-3.93.45Zm12-.18h-.06c-1.31-.17-2.63-.28-3.94-.32a.5.5,0,1,1,0-1c1.34,0,2.7.16,4,.33a.5.5,0,0,1-.07,1Zm78-2.76a.47.47,0,0,1-.35-.15c-1-1-1.95-1.92-2.86-2.8a.5.5,0,0,1,0-.71.49.49,0,0,1,.7,0l2.86,2.81a.5.5,0,0,1,0,.71A.49.49,0,0,1,172.13,65.34Zm-5.71-5.62a.47.47,0,0,1-.35-.15c-.42-.42-.81-.81-1.17-1.19-.56-.59-1.09-1.17-1.6-1.75a.49.49,0,0,1,0-.7.5.5,0,0,1,.7,0c.5.57,1,1.14,1.57,1.72l1.16,1.17a.5.5,0,0,1,0,.71A.47.47,0,0,1,166.42,59.72ZM59,59.66a.5.5,0,1,1,0-1,19.67,19.67,0,0,0,3.87-.42.5.5,0,0,1,.59.39.49.49,0,0,1-.38.59,20.94,20.94,0,0,1-4.07.44Zm-4-.36h-.1A20.59,20.59,0,0,1,51,58.11a.5.5,0,0,1,.39-.93,18.77,18.77,0,0,0,3.72,1.13.51.51,0,0,1,.4.59A.5.5,0,0,1,55,59.3Zm-7.33-3.07a.47.47,0,0,1-.28-.09,19.85,19.85,0,0,1-3.12-2.66.5.5,0,0,1,.73-.69,18.4,18.4,0,0,0,3,2.53.51.51,0,0,1,.12.7A.48.48,0,0,1,47.71,56.23Zm96.9-.67c-.88,0-1.74,0-2.59,0a.5.5,0,0,1-.48-.52.54.54,0,0,1,.51-.48c1.29,0,2.61,0,4,0a.53.53,0,0,1,.51.5.5.5,0,0,1-.49.5Zm5.42-.13a.5.5,0,0,1-.49-.48.49.49,0,0,1,.47-.52c1.29-.07,2.61-.15,4-.25a.5.5,0,0,1,.54.46.5.5,0,0,1-.47.54c-1.37.1-2.71.18-4,.24Zm-12-.12h0c-1.37-.12-2.71-.27-4-.46a.51.51,0,0,1-.43-.57.49.49,0,0,1,.57-.42c1.27.19,2.6.34,3.94.45a.5.5,0,0,1,0,1Zm20-.47a.51.51,0,0,1-.5-.45.51.51,0,0,1,.46-.55l.81-.07,2-.22,0,0c-.82-1.1-1.59-2.23-2.27-3.34a.5.5,0,0,1,.17-.69.49.49,0,0,1,.68.17c.67,1.08,1.42,2.18,2.22,3.26a.5.5,0,0,1,0,.55l.33,0a.5.5,0,0,1,.13,1c-1,.13-2.08.25-3.17.36l-.82.08Zm-27.86-.7H130c-1.3-.29-2.61-.63-3.9-1a.5.5,0,1,1,.28-1c1.26.37,2.55.7,3.84,1a.49.49,0,0,1,.38.59A.5.5,0,0,1,130.15,54.14Zm35.79-.35a.5.5,0,0,1-.09-1c1.34-.24,2.64-.52,3.88-.82a.5.5,0,0,1,.24,1c-1.26.3-2.59.58-3.94.82ZM122.49,51.9a.57.57,0,0,1-.18,0c-1.21-.45-2.47-.95-3.74-1.49a.5.5,0,0,1,.4-.92c1.25.53,2.49,1,3.69,1.47a.49.49,0,0,1,.29.64A.49.49,0,0,1,122.49,51.9Zm51.21,0a.5.5,0,0,1-.16-1c1.3-.42,2.55-.88,3.71-1.38a.52.52,0,0,1,.66.27.51.51,0,0,1-.27.65c-1.19.51-2.46,1-3.79,1.41ZM42.27,50.45a.51.51,0,0,1-.43-.24,17,17,0,0,1-1.66-3.77.5.5,0,1,1,1-.28A16.11,16.11,0,0,0,42.7,49.7a.5.5,0,0,1-.17.68A.48.48,0,0,1,42.27,50.45Zm72.87-1.69a.54.54,0,0,1-.22,0c-1.15-.56-2.36-1.17-3.58-1.81a.5.5,0,0,1,.46-.89c1.22.64,2.41,1.25,3.55,1.8a.5.5,0,0,1,.24.67A.52.52,0,0,1,115.14,48.76Zm65.89,0a.5.5,0,0,1-.44-.25.52.52,0,0,1,.19-.69A25.2,25.2,0,0,0,184,45.62a.5.5,0,0,1,.7.08.49.49,0,0,1-.08.7,26.54,26.54,0,0,1-3.38,2.27A.42.42,0,0,1,181,48.74Zm-24-1.86a.5.5,0,0,1-.45-.29,32.84,32.84,0,0,1-1.5-3.77.5.5,0,1,1,.95-.31,31.59,31.59,0,0,0,1.45,3.66.49.49,0,0,1-.23.66A.44.44,0,0,1,157,46.88Zm-48.95-1.83a.53.53,0,0,1-.24-.06c-1.13-.63-2.29-1.3-3.48-2a.5.5,0,0,1,.5-.86c1.19.69,2.34,1.35,3.47,2a.51.51,0,0,1,.19.68A.49.49,0,0,1,108.05,45.05Zm79.18-1.29a.52.52,0,0,1-.33-.12.51.51,0,0,1-.05-.71A17.23,17.23,0,0,0,189,39.74a.5.5,0,0,1,.88.46,17.6,17.6,0,0,1-2.31,3.38A.49.49,0,0,1,187.23,43.76ZM40,42.87a.5.5,0,0,1-.5-.48c0-.18,0-.36,0-.54a15.33,15.33,0,0,1,.42-3.56.5.5,0,1,1,1,.22,14.51,14.51,0,0,0-.39,3.34c0,.17,0,.33,0,.5a.5.5,0,0,1-.48.52ZM101.14,41a.48.48,0,0,1-.26-.07c-1.11-.66-2.25-1.36-3.42-2.07A.5.5,0,1,1,98,38q1.76,1.08,3.42,2.07a.51.51,0,0,1,.17.69A.49.49,0,0,1,101.14,41Zm53.43-1.74a.5.5,0,0,1-.5-.42,24.38,24.38,0,0,1-.35-4.06.5.5,0,0,1,.5-.5h0a.5.5,0,0,1,.5.5,23.63,23.63,0,0,0,.34,3.9.5.5,0,0,1-.41.57ZM94.31,36.87a.48.48,0,0,1-.26-.07l-3.42-2.07a.49.49,0,0,1-.17-.69.5.5,0,0,1,.68-.17l3.43,2.07a.51.51,0,0,1,.17.69A.5.5,0,0,1,94.31,36.87Zm96.6-.12-.12,0a.51.51,0,0,1-.37-.61,16.77,16.77,0,0,0,.52-3.84.49.49,0,0,1,.51-.49.5.5,0,0,1,.49.51,18.15,18.15,0,0,1-.55,4.07A.49.49,0,0,1,190.91,36.75ZM41.79,35.16a.59.59,0,0,1-.23,0,.5.5,0,0,1-.21-.68A19.62,19.62,0,0,1,43.62,31l.77.64a18.76,18.76,0,0,0-2.16,3.23A.5.5,0,0,1,41.79,35.16Zm45.64-2.38a.47.47,0,0,1-.25-.07c-1.15-.66-2.32-1.31-3.48-1.94a.5.5,0,0,1,.48-.88c1.17.63,2.34,1.28,3.5,1.95a.52.52,0,0,1,.19.69A.51.51,0,0,1,87.43,32.78Zm67.13-1.45h-.09a.51.51,0,0,1-.41-.58,21.1,21.1,0,0,1,1.1-3.94.51.51,0,0,1,.65-.28.5.5,0,0,1,.28.64,20.47,20.47,0,0,0-1,3.76A.51.51,0,0,1,154.56,31.33ZM80.39,29a.54.54,0,0,1-.22,0c-1.24-.61-2.45-1.18-3.61-1.68a.5.5,0,1,1,.4-.92c1.17.51,2.4,1.09,3.65,1.7a.5.5,0,0,1-.22.95Zm-33.63,0a.49.49,0,0,1-.37-.16.5.5,0,0,1,0-.71,24,24,0,0,1,3.25-2.47.49.49,0,0,1,.69.16.51.51,0,0,1-.16.69,22.06,22.06,0,0,0-3.11,2.37A.5.5,0,0,1,46.76,28.94Zm144.38-.13a.49.49,0,0,1-.49-.42,22.7,22.7,0,0,0-1-3.78.5.5,0,1,1,.95-.33,23.59,23.59,0,0,1,1,3.94.49.49,0,0,1-.41.58Zm-118.09-3a.47.47,0,0,1-.17,0c-1.29-.47-2.56-.87-3.77-1.2a.5.5,0,0,1-.36-.61.51.51,0,0,1,.62-.35c1.23.33,2.53.75,3.85,1.22a.5.5,0,0,1,.3.64A.49.49,0,0,1,73.05,25.81ZM53.51,24.74a.51.51,0,0,1-.47-.32.49.49,0,0,1,.29-.64,20.18,20.18,0,0,1,4-1.06.5.5,0,0,1,.58.41.51.51,0,0,1-.41.58,19.63,19.63,0,0,0-3.76,1A.57.57,0,0,1,53.51,24.74Zm103.92-.82a.47.47,0,0,1-.27-.08.5.5,0,0,1-.15-.69,18.16,18.16,0,0,1,2.34-2.92l.26-.25a.5.5,0,1,1,.7.71l-.25.25a18.11,18.11,0,0,0-2.21,2.75A.48.48,0,0,1,157.43,23.92Zm-92.1-.16h-.08a28.31,28.31,0,0,0-3.91-.34.5.5,0,0,1-.49-.51.49.49,0,0,1,.5-.49,28.93,28.93,0,0,1,4.06.35.5.5,0,0,1-.08,1Zm122.89-2.31a.51.51,0,0,1-.4-.2,15.64,15.64,0,0,0-2.71-2.75.5.5,0,1,1,.61-.78,16,16,0,0,1,2.9,2.92.5.5,0,0,1-.1.7A.48.48,0,0,1,188.22,21.45ZM163,18.28a.5.5,0,0,1-.41-.22.5.5,0,0,1,.12-.69,20.72,20.72,0,0,1,3.57-2,.5.5,0,1,1,.4.91,20,20,0,0,0-3.39,1.92A.52.52,0,0,1,163,18.28Zm19-1.77a.44.44,0,0,1-.22-.05,18,18,0,0,0-3.66-1.27.51.51,0,0,1-.38-.6.5.5,0,0,1,.6-.38,19.29,19.29,0,0,1,3.87,1.35.5.5,0,0,1,.24.67A.49.49,0,0,1,182,16.51ZM170.31,15.1a.5.5,0,0,1-.49-.4.51.51,0,0,1,.39-.59,19,19,0,0,1,3.84-.39h.24a.5.5,0,0,1,0,1h-.23a17.84,17.84,0,0,0-3.64.37Z"/><g id="recordings"><path class="cls-8" d="M147.48,187.51a21.8,21.8,0,0,0-.46-7.6,22,22,0,0,0-42.9,10.19,23.87,23.87,0,0,0,.84,2.72l15.13,6.64Z"/><path class="cls-9" d="M119.59,176.67a1.2,1.2,0,0,0-.65.19.89.89,0,0,0-.47.78v14.73a.89.89,0,0,0,.47.78,1.24,1.24,0,0,0,1.21.06l14.41-7.36a.94.94,0,0,0,.58-.84.92.92,0,0,0-.57-.84l-14.43-7.37a1.2,1.2,0,0,0-.55-.13m0,18.75a3.23,3.23,0,0,1-1.75-.5,3,3,0,0,1-1.45-2.55V177.64a3,3,0,0,1,1.45-2.56,3.32,3.32,0,0,1,3.23-.15l14.44,7.37a3,3,0,0,1,0,5.41l-14.42,7.36a3.32,3.32,0,0,1-1.49.35"/></g><path class="cls-3" d="M120.09,200a.5.5,0,0,1-.2-1l50.7-22.11a.5.5,0,1,1,.4.92l-50.7,22.1A.46.46,0,0,1,120.09,200Z"/><rect class="cls-3" x="94.09" y="160.51" width="1" height="55.65" transform="translate(-115.85 199.76) rotate(-66.44)"/><g class="cls-10"><path class="cls-11" d="M50.22,123.51a.55.55,0,0,0-.2.61l.45,1.39-1.11-.84a.66.66,0,0,0-.35-.11.63.63,0,0,0-.35.11l-1.12.84.45-1.39a.55.55,0,0,0-.2-.61l-1.15-.85h1.41a.58.58,0,0,0,.54-.4L49,121l.41,1.29a.59.59,0,0,0,.55.4h1.4ZM52.11,122h-2l-.64-2a.45.45,0,0,0-.43-.31h0a.44.44,0,0,0-.43.31l-.64,2h-2a.47.47,0,0,0-.45.31.45.45,0,0,0,.16.5L47.28,124l-.64,2a.43.43,0,0,0,.18.51.45.45,0,0,0,.27.08.5.5,0,0,0,.29-.09L49,125.29l1.62,1.21a.5.5,0,0,0,.57,0,.45.45,0,0,0,.18-.51l-.64-2,1.66-1.23a.46.46,0,0,0,.16-.5A.49.49,0,0,0,52.11,122Z"/></g><g class="cls-10"><path class="cls-11" d="M141,86.22a.54.54,0,0,0-.2.6l.45,1.4-1.12-.84a.6.6,0,0,0-.34-.11.61.61,0,0,0-.35.11l-1.12.84.45-1.4a.54.54,0,0,0-.2-.6l-1.15-.86h1.4a.58.58,0,0,0,.55-.39l.42-1.29.41,1.29a.58.58,0,0,0,.55.39h1.4Zm1.89-1.55h-2l-.64-2a.45.45,0,0,0-.43-.31h0a.47.47,0,0,0-.44.31l-.64,2h-2a.47.47,0,0,0-.44.31.41.41,0,0,0,.16.49l1.66,1.24-.65,2a.45.45,0,0,0,.19.52.5.5,0,0,0,.27.08.52.52,0,0,0,.29-.09L139.82,88l1.62,1.21a.48.48,0,0,0,.56,0,.45.45,0,0,0,.19-.52l-.65-2,1.66-1.24a.43.43,0,0,0,.16-.49A.47.47,0,0,0,142.92,84.67Z"/></g><path class="cls-11" d="M203.2,60.47a1.31,1.31,0,0,0-.45,1.42l1,3.27-2.55-2a1.33,1.33,0,0,0-1.58,0l-2.55,2,1-3.27a1.31,1.31,0,0,0-.45-1.42l-2.62-2h3.19a1.32,1.32,0,0,0,1.24-.94l.95-3,.95,3a1.32,1.32,0,0,0,1.24.94h3.19Zm4.3-3.64h-4.62l-1.45-4.64a1,1,0,0,0-1-.72h0a1,1,0,0,0-1,.72L198,56.83h-4.62a1.07,1.07,0,0,0-1,.72,1,1,0,0,0,.36,1.16l3.78,2.91L195,66.31a1.1,1.1,0,0,0,1,1.41,1.1,1.1,0,0,0,.66-.23l3.7-2.85,3.7,2.85a1.09,1.09,0,0,0,1.7-1.18l-1.47-4.69,3.78-2.91a1,1,0,0,0,.36-1.16A1.06,1.06,0,0,0,207.5,56.83Z"/><g id="whiteboards"><circle class="cls-12" cx="187.58" cy="112.78" r="15.92"/><path class="cls-9" d="M193.94,108.43l-1.15,1.15-2-2,1.15-1.15a1.45,1.45,0,0,1,2,0,1.39,1.39,0,0,1,.41,1A1.41,1.41,0,0,1,193.94,108.43Zm-10.37,10.36-2.56.56.55-2.56,8.26-8.26,2,2Zm11.33-13.33a2.79,2.79,0,0,0-3.93,0L180.47,116a.65.65,0,0,0-.19.33l-.82,3.79a.7.7,0,0,0,.18.63.72.72,0,0,0,.48.2l.14,0,3.79-.82a.72.72,0,0,0,.34-.19l10.51-10.51a2.78,2.78,0,0,0,0-3.92Z"/></g><g id="whiteboards-2" data-name="whiteboards"><circle class="cls-13" cx="112.33" cy="42.04" r="15.92"/><path class="cls-9" d="M108.25,50.25a.83.83,0,0,1-1.65,0V35.61a.82.82,0,0,1,.83-.81h11.34a1.06,1.06,0,0,1,1,.59,1,1,0,0,1-.13,1.1l-2.8,3.19,2.78,3.16a1,1,0,0,1,.15,1.12,1.05,1.05,0,0,1-1,.6H108.25Zm0-13.83v6.51h9.22l-2.27-2.58a1,1,0,0,1,0-1.33l2.28-2.6Z"/></g><path class="cls-14" d="M54.35,73.67H38.3A10.72,10.72,0,0,0,27.61,84.41v.33A10.71,10.71,0,0,0,38.3,95.47h.27l4,4,4-4h7.79A10.71,10.71,0,0,0,65,84.74v-.33A10.72,10.72,0,0,0,54.35,73.67Z"/><path class="cls-9" d="M43.23,84.57A1.27,1.27,0,1,1,42,83.3,1.27,1.27,0,0,1,43.23,84.57Z"/><path class="cls-9" d="M47.8,84.57a1.27,1.27,0,1,1-1.27-1.27A1.27,1.27,0,0,1,47.8,84.57Z"/><path class="cls-9" d="M52,84.57a1.27,1.27,0,1,1-1.27-1.27A1.27,1.27,0,0,1,52,84.57Z"/><path class="cls-15" d="M77,89.14h-16A10.71,10.71,0,0,0,50.22,99.88v.33A10.71,10.71,0,0,0,60.91,111h.27l4,4,4-4H77a10.72,10.72,0,0,0,10.69-10.74v-.33A10.72,10.72,0,0,0,77,89.14Z"/><path class="cls-9" d="M65.84,100.05a1.27,1.27,0,1,1-1.27-1.28A1.27,1.27,0,0,1,65.84,100.05Z"/><path class="cls-9" d="M70.4,100.05a1.27,1.27,0,1,1-1.27-1.28A1.27,1.27,0,0,1,70.4,100.05Z"/><path class="cls-9" d="M74.56,100.05a1.27,1.27,0,1,1-1.27-1.28A1.27,1.27,0,0,1,74.56,100.05Z"/><path class="cls-11" d="M66,8.42H63.43l-.8-2.55a.56.56,0,0,0-.54-.4h0a.57.57,0,0,0-.54.4l-.8,2.55H58.21a.57.57,0,0,0-.35,1l2.07,1.6-.8,2.57a.59.59,0,0,0,.23.67.6.6,0,0,0,.34.11.57.57,0,0,0,.36-.13l2-1.56,2,1.56a.6.6,0,0,0,.94-.65l-.81-2.57,2.08-1.6a.6.6,0,0,0,.2-.64A.58.58,0,0,0,66,8.42Z"/><circle class="cls-16" cx="63.81" cy="58.58" r="3.29"/><circle class="cls-16" cx="161.57" cy="53.4" r="3.29"/><circle class="cls-16" cx="132.5" cy="98.8" r="3.29"/><circle class="cls-16" cx="108.25" cy="148.26" r="3.29"/><path class="cls-3" d="M66.54,214.18h-64a.5.5,0,0,1-.5-.5.5.5,0,0,1,.5-.5h64a.5.5,0,0,1,.5.5A.5.5,0,0,1,66.54,214.18Z"/><path class="cls-3" d="M237.71,214.18h-64a.5.5,0,0,1-.5-.5.5.5,0,0,1,.5-.5h64a.5.5,0,0,1,.5.5A.5.5,0,0,1,237.71,214.18Z"/></g></svg>