<?xml version="1.0" encoding="UTF-8"?>
<svg xmlns="http://www.w3.org/2000/svg" viewBox="0 0 181 72.77">
   <defs>
      <style type="text/css">.cls-1,.cls-2,.cls-3{fill:#f37531;}.cls-1,.cls-6,.cls-9{opacity:0.25;}.cls-3{opacity:0.3;}.cls-4,.cls-7{fill:none;stroke-linecap:round;stroke-linejoin:round;}.cls-4{stroke:#48e33d;}.cls-11,.cls-5,.cls-6{fill:#19b0de;}.cls-5,.cls-8{opacity:0.5;}.cls-7{stroke:#f37531;}.cls-10,.cls-8,.cls-9{fill:#48e33d;}</style>
   </defs>
   <title>emptyMentionsAllFilter</title>
   <g id="emptyMentionsAllFilter" data-name="Layer 2">
      <g id="Final">
         <path class="cls-1" d="M146.07,47a10.23,10.23,0,0,0-7.37-1.54A12.77,12.77,0,0,0,133,47.88v-.77c.15-1.12.23-3.11-4.59-5.88-.79-.45-4.23-2.6-5.12-2.37l-4.19-1c-2.32-.21-2.48.77-2.68.55a16.64,16.64,0,0,1-1.55-1.76,20.94,20.94,0,0,0-29.61,0c-3.74-.75-7.63-3.24-7.69-8.35-.08-5.89,4.33-10.92,4.33-10.92-1-1-3,1.74-4.72,2.25-1.26.37-.76-2.42-2.3-.22-.22.32-.43,4.16-.8,4.32-.73.32-1.32-4.29-2.41-.48-.26.91.66,4.5.66,5.47a14.85,14.85,0,0,0,5.15,11,13,13,0,0,0,3.75,2.41l1.21-1.95a20.91,20.91,0,0,0-.79,21.38l-1.68,2.93s-1.62,4.16,4.65,4.07h10c6.21.06,33.31.16,33.31.16a5,5,0,0,0,2.38-.54l.08.54h22.87l-.46-1.55c-.42-1.38,5.8,2.28,8.12-3.66,1.07-2.74,3.12-8,2.56-9.78-.27-.85-4.42-4.36-5.91-5.34a31.25,31.25,0,0,0-5.73-2.59C149.7,45,146.05,46.27,146.07,47ZM98,68.48h0l.1,0Z" />
         <ellipse class="cls-2" cx="142.54" cy="63.29" rx="3.35" ry="2.13" transform="translate(-6.65 17.83) rotate(-6.99)" />
         <ellipse class="cls-3" cx="146.7" cy="56.09" rx="3.46" ry="4.68" transform="translate(-8.94 77.16) rotate(-28.63)" />
         <line class="cls-4" x1="19.76" y1="68.51" x2="84.58" y2="68.51" />
         <line class="cls-4" x1="127.88" y1="68.67" x2="180.5" y2="68.67" />
         <circle class="cls-5" cx="60.2" cy="62.07" r="6.04" />
         <circle class="cls-6" cx="58.52" cy="16.14" r="6.04" />
         <path class="cls-7" d="M116.38,38.41c-.9-1-1.55-1.76-1.55-1.76A21,21,0,0,0,81.61,61.51l-1.68,2.93s-1.62,4.16,4.65,4.07h13" />
         <path class="cls-7" d="M106.29,68.42a8.06,8.06,0,0,0-8.33-8,8.69,8.69,0,0,0-4.66,1.32" />
         <path class="cls-7" d="M96.15,60.55c7.64-3.78,7.43-19.75-4.4-17" />
         <path class="cls-7" d="M117.48,57.27s4.34-.75,6.91,2.71" />
         <path class="cls-4" d="M.5,6.4a70.13,70.13,0,0,1,35.42,61" />
         <path class="cls-4" d="M51,24A69.78,69.78,0,0,0,36,67.36" />
         <path class="cls-7" d="M98,68.48c-19.94,0,29.87.19,29.87.19a5.1,5.1,0,0,0,5.25-4.82h0c.08-2.73-2-4.87-5.44-4.23L122.9,61" />
         <path class="cls-8" d="M18.21,72.76a10.15,10.15,0,0,1-1.86-.11,10.25,10.25,0,0,1-4.56-1.71,10.41,10.41,0,0,1-3.33-3.82,10.67,10.67,0,0,1-1.08-3.66,10.15,10.15,0,0,1,1.86.11,10,10,0,0,1,4.56,1.7,10.5,10.5,0,0,1,3.33,3.82A10.12,10.12,0,0,1,18.21,72.76Z" />
         <path class="cls-8" d="M122.69,9.9a10.21,10.21,0,0,1,.91,1.63,10,10,0,0,1,1,4.76,10.54,10.54,0,0,1-1.42,4.86A11.08,11.08,0,0,1,120.68,24a10.68,10.68,0,0,1-.91-1.63,10.07,10.07,0,0,1-1-4.76,10.31,10.31,0,0,1,1.42-4.87A10.18,10.18,0,0,1,122.69,9.9Z" />
         <path class="cls-9" d="M109.56,6.91A5.69,5.69,0,0,0,109.7,8a5.93,5.93,0,0,0,1.18,2.58,6,6,0,0,0,2.35,1.78,6.34,6.34,0,0,0,2.17.48,5.69,5.69,0,0,0-.14-1.08,5.87,5.87,0,0,0-1.17-2.58,6.14,6.14,0,0,0-2.35-1.78A5.9,5.9,0,0,0,109.56,6.91Z" />
         <path class="cls-10" d="M156.56,4.05a5.2,5.2,0,0,1,.29-.88,5.1,5.1,0,0,1,1.42-2A5.15,5.15,0,0,1,162.43.07a5,5,0,0,1-.3.87,4.88,4.88,0,0,1-1.41,2A5.22,5.22,0,0,1,158.46,4,4.91,4.91,0,0,1,156.56,4.05Z" />
         <path class="cls-7" d="M146.09,46.68c3.36-4.75,17.5,4.46,17.33,7.6.09,2.37-2,7.76-2,7.76-3.38,9.8-7.07,2.51-10.11-6.79-.92-2.83-1.13-5.06-3.52-7s-4.28-3.37-9.08-2.79a12,12,0,0,0-8,4.83" />
         <path class="cls-7" d="M133,47.76c1.86-5.51-13.9-11.54-16.34-9.56-2,1.32-5.1,6.19-5.1,6.19-5.94,8.49,2,6.86,11.44,4.19" />
         <circle class="cls-11" cx="154.21" cy="62.1" r="6.04" />
         <path class="cls-7" d="M81.19,42.27a13.85,13.85,0,0,1-4.21-3c-2.89-3-5-6.31-4.64-11,.09-1.34-1.91-3.52,0-6.74.12-.2,1.62,2.38,1.72,2.17.66-1.34-.09-3.58,1.87-5.36.23-.21,1,1.46,1.23,1.26,2.35-2.16,4.79-3,4.84-2a17.51,17.51,0,0,0-4.43,10.33c-.26,4.91,3.24,7.74,6.8,9" />
         <ellipse class="cls-2" cx="136.51" cy="57.59" rx="1.87" ry="1.81" transform="translate(-5.57 15.58) rotate(-6.4)" />
         <ellipse class="cls-2" cx="147" cy="56.93" rx="1.81" ry="1.87" transform="translate(74.03 196.66) rotate(-83.6)" />
         <line class="cls-7" x1="137.86" y1="53.38" x2="134.26" y2="53.8" />
         <line class="cls-7" x1="145.57" y1="53.13" x2="149.17" y2="53.55" />
      </g>
   </g>
</svg>

