<?xml version="1.0" encoding="UTF-8"?>
<svg xmlns="http://www.w3.org/2000/svg" viewBox="0 0 204.89 112.48">
   <defs>
      <style type="text/css">.cls-1,.cls-3{fill:#48e33d;}.cls-1,.cls-3,.cls-8{opacity:0.25;}.cls-10,.cls-2,.cls-4,.cls-9{fill:none;stroke-linecap:round;stroke-linejoin:round;}.cls-2{stroke:#48e33d;}.cls-3{fill-rule:evenodd;}.cls-4{stroke:#faaa39;}.cls-5{fill:#faaa39;}.cls-6,.cls-7,.cls-8{fill:#19b0de;}.cls-6{opacity:0.5;}.cls-7{opacity:0.75;}.cls-9{stroke:#19b0de;}.cls-10{stroke:#16b1e0;}</style>
   </defs>
   <title>emptyFlagsFilter</title>
   <g id="emptyFlagsFilter" data-name="Layer 2">
      <g id="for_review" data-name="for review">
         <ellipse class="cls-1" cx="148.16" cy="61.5" rx="3.18" ry="3.44" />
         <line class="cls-2" x1="148.17" y1="61.79" x2="148.17" y2="68.1" />
         <ellipse class="cls-1" cx="14.52" cy="61.5" rx="3.18" ry="3.44" />
         <line class="cls-2" x1="14.53" y1="61.79" x2="14.53" y2="68.1" />
         <line class="cls-2" x1="137.15" y1="61.54" x2="137.15" y2="67.85" />
         <polygon class="cls-3" points="137.06 51.39 132.12 65.09 142 65.09 137.06 51.39" />
         <line class="cls-2" x1="46.15" y1="61.54" x2="46.15" y2="67.85" />
         <polygon class="cls-3" points="46.06 51.39 41.12 65.09 51.01 65.09 46.06 51.39" />
         <ellipse class="cls-1" cx="165.91" cy="61.5" rx="3.18" ry="3.44" />
         <line class="cls-2" x1="178.7" y1="61.79" x2="178.7" y2="68.1" />
         <polygon class="cls-3" points="178.61 51.64 173.66 65.34 183.55 65.34 178.61 51.64" />
         <line class="cls-2" x1="165.91" y1="61.79" x2="165.91" y2="68.1" />
         <line class="cls-4" x1="100.18" y1="11.1" x2="100.18" y2="0.88" />
         <path class="cls-5" d="M107.75,4.4h0l-.62-.62a.28.28,0,0,1,0-.4L110,.49a.29.29,0,0,0-.2-.49h-9.71a.29.29,0,0,0-.29.29v6.6a.29.29,0,0,0,.29.28h9.71a.29.29,0,0,0,.2-.49Z" />
         <path id="cloud" class="cls-6" d="M61.28,10H61.1a2.73,2.73,0,0,0-5.33-.62h-.1a2,2,0,0,0-.19,4h5.8a1.71,1.71,0,1,0,0-3.42Z" />
         <path id="cloud-2" data-name="cloud" class="cls-7" d="M146.58,27h-.26a4,4,0,0,0-7.86-.91h-.15A3,3,0,0,0,138,32h8.54a2.52,2.52,0,1,0,0-5Z" />
         <path class="cls-8" d="M138.31,26.07h.15l.09-.22h0a1.72,1.72,0,0,0-3.33-.46,2.57,2.57,0,0,0-2.56-2.57l-.28,0a4.09,4.09,0,0,0-6-3.33,4.1,4.1,0,0,0-8-.9h-.16a3,3,0,0,0-2.9,2.18,8.39,8.39,0,0,1,2.23,5.08,8.23,8.23,0,0,1,4-1A8.33,8.33,0,0,1,128,28h7.55A3,3,0,0,1,138.31,26.07Z" />
         <path class="cls-8" d="M55.85,13.38h-.37a2,2,0,0,1-1.83-2,2,2,0,0,1,.93-1.69,3.74,3.74,0,0,0-6.16,1.6h-.15A2.77,2.77,0,0,0,48,16.79h8a2.34,2.34,0,0,0,2.34-2.34A2.31,2.31,0,0,0,58,13.38Z" />
         <line class="cls-9" x1="0.5" y1="68.1" x2="204.39" y2="68.1" />
         <path class="cls-9" d="M43.69,55.28A44.37,44.37,0,0,0,38.43,52c-.71,0-20.5,15.86-20.5,15.86" />
         <path class="cls-9" d="M66.15,45.43c-7.94,8.28-14.22,14.79-14.56,14.79a6.81,6.81,0,0,1-1.76-.91" />
         <path class="cls-9" d="M108.36,17.3c-4.87-3.81-8-6.2-8.11-6.2-.79,0-10,9.15-18.83,18.31" />
         <path class="cls-9" d="M162.13,59.76c-5.37-4.27-12.33-9.79-19.64-15.58" />
         <path class="cls-9" d="M172.26,67.85c-.43-.36-1.7-1.38-3.62-2.91" />
         <path id="cloud-3" data-name="cloud" class="cls-7" d="M89.75,38.25a4.89,4.89,0,0,0-.54,0,8.19,8.19,0,0,0-16-1.86l-.31,0a6,6,0,0,0-.56,12.07h0a4.7,4.7,0,0,0,1.06,0H89.22a4.71,4.71,0,0,0,.53,0,5.13,5.13,0,1,0,0-10.25Z" />
         <path class="cls-6" d="M142.6,38.77l-.24,0a3.5,3.5,0,0,0-6.78-.95,5.23,5.23,0,0,0-5.23-5.23c-.19,0-.37,0-.55,0a8.36,8.36,0,0,0-8.34-7.79,8.23,8.23,0,0,0-4,1A8.36,8.36,0,0,0,101.16,24h-.33a6.17,6.17,0,0,0-6.17,6.17c0,.07,0,.13,0,.2h-.29a6.16,6.16,0,0,0-6,4.82,8.2,8.2,0,0,1,.84,3.09,4.89,4.89,0,0,1,.54,0,5.12,5.12,0,0,1,5.12,4.9H142.6a2.2,2.2,0,0,0,0-4.39Z" />
         <path class="cls-8" d="M94.27,16.43a3.63,3.63,0,0,0-6.43,1H87.7a2.57,2.57,0,0,0-1.52.48A4.23,4.23,0,0,1,87,20.35v.14h.2a4.17,4.17,0,0,1,2.16.6Z" />
         <path id="cloud-4" data-name="cloud" class="cls-7" d="M70.89,29.12h-.21a3.09,3.09,0,0,0-6-.7h-.12A2.29,2.29,0,0,0,64.31,33h6.58a1.94,1.94,0,0,0,0-3.88Z" />
         <path class="cls-6" d="M87.15,20.48H87v-.14A4.25,4.25,0,0,0,82.7,16.1h-.22a5.76,5.76,0,0,0-11.25,1.27,5.75,5.75,0,0,0-8.49,4.67l-.38,0a3.6,3.6,0,0,0-3.6,3.6,2.42,2.42,0,0,0-4.68.65h-.16a1.51,1.51,0,1,0,0,3h8.82a2.3,2.3,0,0,1,1.78-.87h.12a3.09,3.09,0,0,1,6,.7h.21a1.9,1.9,0,0,1,.79.17h9.81l7.82-8.21A4.17,4.17,0,0,0,87.15,20.48Z" />
         <path id="cloud-5" data-name="cloud" class="cls-6" d="M161.71,16.57h-.2a2.94,2.94,0,0,0-5.75-.67h-.12a2.17,2.17,0,0,0-.2,4.34h6.27a1.84,1.84,0,1,0,0-3.68Z" />
         <path class="cls-8" d="M155,16a1.21,1.21,0,0,0-1-.62h-.13a2,2,0,0,0-3.86-.45h-.08a1.46,1.46,0,0,0-.13,2.91h3.77A2.16,2.16,0,0,1,155,16Z" />
         <line class="cls-10" x1="125.01" y1="111.98" x2="150.28" y2="111.98" />
         <line class="cls-10" x1="113.14" y1="111.98" x2="120.72" y2="111.98" />
         <line class="cls-10" x1="138.5" y1="96.9" x2="177.66" y2="96.9" />
         <line class="cls-10" x1="182.71" y1="96.9" x2="189.02" y2="96.9" />
         <line class="cls-10" x1="14.52" y1="84.63" x2="56.72" y2="84.63" />
         <line class="cls-10" x1="57.19" y1="76.43" x2="73.5" y2="76.43" />
         <line class="cls-10" x1="51.61" y1="76.43" x2="54.13" y2="76.43" />
         <line class="cls-10" x1="83.46" y1="96.9" x2="99.77" y2="96.9" />
         <line class="cls-10" x1="77.88" y1="96.9" x2="80.4" y2="96.9" />
         <line class="cls-10" x1="115.68" y1="76.43" x2="99.36" y2="76.43" />
         <line class="cls-10" x1="121.26" y1="76.43" x2="118.73" y2="76.43" />
      </g>
   </g>
</svg>

