<?xml version="1.0" standalone="no"?>
<!DOCTYPE svg PUBLIC "-//W3C//DTD SVG 1.1//EN" "http://www.w3.org/Graphics/SVG/1.1/DTD/svg11.dtd" >
<svg xmlns="http://www.w3.org/2000/svg" id="endpoint_24">
<path unicode="&#xe962;" transform="scale(1,-1)" id="endpoint_24" data-tags="endpoint_24" d="M490.667 832h42.667c11.776 0 21.333 9.557 21.333 21.333s-9.557 21.333-21.333 21.333h-42.667c-11.776 0-21.333-9.557-21.333-21.333s9.557-21.333 21.333-21.333zM106.688 789.333h810.624c58.922 0 106.688-48.042 106.688-106.787v-554.426c0-58.977-48.016-106.787-106.688-106.787h-810.624c-58.922 0-106.688 48.042-106.688 106.787v554.426c0 58.977 48.016 106.787 106.688 106.787zM42.667 128.12c0-35.284 28.766-64.12 64.021-64.12h810.624c35.201 0 64.021 28.801 64.021 64.12v554.426c0 35.284-28.766 64.12-64.021 64.12h-810.624c-35.201 0-64.021-28.801-64.021-64.12v-554.426zM42.667 234.667h938.667v-42.667h-938.667v42.667z" />
</svg>
