<?xml version="1.0" standalone="no"?>
<!DOCTYPE svg PUBLIC "-//W3C//DTD SVG 1.1//EN" "http://www.w3.org/Graphics/SVG/1.1/DTD/svg11.dtd" >
<svg xmlns="http://www.w3.org/2000/svg" id="eraser_16">
<path unicode="&#xe967;" transform="scale(1,-1)" id="eraser_16" data-tags="eraser_16" d="M928.129 530.703l-354.048-355.456-334.528 334.528 352.64 354.048c42.56 42.752 112.064 42.944 154.88 0.448l180.608-179.2c20.736-20.544 32.192-47.872 32.32-77.056 0.064-29.184-11.264-56.64-31.872-77.312v0zM431.745 32.335c-42.496-42.816-112-42.944-154.88-0.448l-180.608 179.2c-20.736 20.544-32.192 47.872-32.256 77.056-0.128 29.184 11.2 56.64 31.808 77.312l98.56 98.944 334.528-334.528-97.152-97.536zM972.737 730.511l-180.608 179.2c-67.84 67.328-177.792 67.008-245.312-0.704l-496.384-498.368c-32.704-32.832-50.56-76.416-50.432-122.688s18.304-89.728 51.2-122.304l180.608-179.2c33.728-33.536 78.016-50.304 122.24-50.304 44.608 0 89.152 17.024 123.072 51.008l496.384 498.368c32.704 32.832 50.624 76.416 50.496 122.688-0.192 46.272-18.368 89.728-51.264 122.304v0z" />
</svg>
