<?xml version="1.0" standalone="no"?>
<!DOCTYPE svg PUBLIC "-//W3C//DTD SVG 1.1//EN" "http://www.w3.org/Graphics/SVG/1.1/DTD/svg11.dtd" >
<svg xmlns="http://www.w3.org/2000/svg" id="error_8">
<path unicode="&#xe968;" transform="scale(1,-1)" id="error_8" data-tags="error_8" d="M891.648 264.704l-206.976-200.704-355.84 4.352-200.832 206.976 4.352 355.84 207.104 200.832h345.216l211.328-211.456-4.352-355.84zM982.144 721.664l-196.48 196.608c-26.752 26.368-63.616 41.728-100.992 41.728h-345.216c-37.376 0-74.368-15.36-101.12-41.984l-196.608-196.48c-26.496-26.624-41.728-63.488-41.728-100.992v-345.216c0-37.504 15.232-74.368 41.856-101.12l196.48-196.608c26.752-26.368 63.744-41.6 101.12-41.6h345.216c37.376 0 74.24 15.232 101.12 41.856l196.608 196.48c26.368 26.752 41.6 63.616 41.6 100.992v345.216c0 37.376-15.232 74.24-41.856 101.12zM512.026 538.445l-146.688 146.688c-25.088 25.088-65.536 25.088-90.624 0-24.96-24.96-24.96-65.408 0-90.496l146.816-146.688-146.816-146.816c-24.96-24.96-24.96-65.408 0-90.496 12.544-12.416 28.928-18.688 45.312-18.688s32.768 6.272 45.312 18.688l146.688 146.816 146.688-146.816c12.544-12.416 28.928-18.688 45.312-18.688s32.768 6.272 45.312 18.688c24.96 25.088 24.96 65.536 0 90.496l-146.816 146.816 146.816 146.688c24.96 25.088 24.96 65.536 0 90.496-25.088 25.088-65.536 25.088-90.624 0l-146.688-146.688z" />
</svg>
