<?xml version="1.0" standalone="no"?>
<!DOCTYPE svg PUBLIC "-//W3C//DTD SVG 1.1//EN" "http://www.w3.org/Graphics/SVG/1.1/DTD/svg11.dtd" >
<svg xmlns="http://www.w3.org/2000/svg" id="error_20">
<path unicode="&#xea50;" transform="scale(1,-1)" id="error_20" data-tags="error_20" d="M972.8 260.598c0-15.872-6.4-31.334-17.664-42.547l-213.248-213.248c-11.162-11.213-26.624-17.613-42.496-17.613h-374.784c-15.872 0-31.334 6.4-42.547 17.664l-213.248 213.248c-11.213 11.162-17.613 26.624-17.613 42.496v374.784c0 15.872 6.4 31.386 17.664 42.547l213.248 213.248c11.162 11.213 26.624 17.613 42.496 17.613h374.784c15.872 0 31.334-6.4 42.547-17.664l213.248-213.248c11.213-11.11 17.613-26.624 17.613-42.496v-374.784zM991.334 714.127l-213.146 213.146c-20.685 20.838-49.459 32.717-78.797 32.717h-374.784c-29.338 0-58.112-11.878-78.746-32.666l-213.146-213.146c-20.838-20.685-32.717-49.408-32.717-78.797v-374.784c0-29.338 11.878-58.112 32.666-78.746l213.146-213.146c20.685-20.787 49.459-32.717 78.797-32.717h374.784c29.338 0 58.112 11.93 78.746 32.666l213.146 213.146c20.838 20.685 32.717 49.459 32.717 78.797v374.784c0 29.389-11.878 58.112-32.666 78.746zM709.299 645.299c-9.984 9.984-26.214 9.984-36.198 0l-161.126-161.075-161.075 161.075c-9.984 9.984-26.214 9.984-36.198 0s-9.984-26.214 0-36.198l161.075-161.126-161.075-161.075c-9.984-9.984-9.984-26.214 0-36.198 5.018-5.018 11.571-7.526 18.074-7.526 6.554 0 13.107 2.509 18.125 7.526l161.075 161.075 161.126-161.075c5.018-5.018 11.571-7.526 18.074-7.526 6.554 0 13.107 2.509 18.125 7.526 9.984 9.984 9.984 26.214 0 36.198l-161.075 161.075 161.075 161.126c9.984 9.984 9.984 26.214 0 36.198z" />
</svg>
