<svg width="32" height="32" viewBox="0 0 32 32" fill="none" xmlns="http://www.w3.org/2000/svg">
<path fill-rule="evenodd" clip-rule="evenodd" d="M27.2663 20.2577C27.2663 25.0857 22.2532 28.9997 16.0691 28.9997C9.88502 28.9997 4.87183 25.0857 4.87183 20.2577C4.87183 15.4296 9.88502 11.5156 16.0691 11.5156C22.2532 11.5156 27.2663 15.4296 27.2663 20.2577Z" fill="#2D2B52"/>
<path fill-rule="evenodd" clip-rule="evenodd" d="M11.4581 20.7265C11.4581 22.8367 9.79289 24.5474 7.73882 24.5474C5.6847 24.5474 4.01953 22.8367 4.01953 20.7265C4.01953 18.6163 5.6847 16.9057 7.73882 16.9057C9.79289 16.9057 11.4581 18.6163 11.4581 20.7265Z" fill="#46B8FF"/>
<path fill-rule="evenodd" clip-rule="evenodd" d="M27.9808 20.7262C27.9808 22.8363 26.3156 24.547 24.2615 24.547C22.2075 24.547 20.5422 22.8363 20.5422 20.7262C20.5422 18.6159 22.2075 16.9053 24.2615 16.9053C26.3156 16.9053 27.9808 18.6159 27.9808 20.7262Z" fill="#46B8FF"/>
<path fill-rule="evenodd" clip-rule="evenodd" d="M4.01953 20.7268C4.01953 17.8326 8.21176 6.94672 16.0004 6.94672C23.7891 6.94672 15.6426 20.7268 15.6426 20.7268H4.01953Z" fill="#46B8FF"/>
<path fill-rule="evenodd" clip-rule="evenodd" d="M7.73828 24.5478H24.3996V21.1455H7.73828V24.5478Z" fill="#46B8FF"/>
<path fill-rule="evenodd" clip-rule="evenodd" d="M27.9808 20.7264C27.9808 17.8322 23.7886 6.94629 15.9999 6.94629C8.21124 6.94629 16.3577 20.7264 16.3577 20.7264H27.9808Z" fill="#46B8FF"/>
<path fill-rule="evenodd" clip-rule="evenodd" d="M24.5666 15.7467C24.5666 20.6071 20.7312 24.5472 16 24.5472C11.2689 24.5472 7.43359 20.6071 7.43359 15.7467C7.43359 10.8863 11.2689 6.94629 16 6.94629C20.7312 6.94629 24.5666 10.8863 24.5666 15.7467Z" fill="#46B8FF"/>
<path fill-rule="evenodd" clip-rule="evenodd" d="M24.5666 17.36C24.5666 22.2204 20.7312 26.1605 16 26.1605C11.2689 26.1605 7.43359 22.2204 7.43359 17.36C7.43359 12.4997 11.2689 8.55957 16 8.55957C20.7312 8.55957 24.5666 12.4997 24.5666 17.36Z" fill="#46B8FF"/>
<path fill-rule="evenodd" clip-rule="evenodd" d="M4.0191 20.7265C4.0191 20.7265 2.99201 26.1607 16 26.1607C29.008 26.1607 14.7838 19.2249 14.7838 19.2249L4.0191 20.7265Z" fill="#46B8FF"/>
<path fill-rule="evenodd" clip-rule="evenodd" d="M7.43359 17.36C7.43359 22.2204 11.2689 26.1605 16 26.1605C20.7312 26.1605 24.5666 22.2204 24.5666 17.36C24.5666 12.4997 20.7312 8.55957 16 8.55957C11.2689 8.55957 7.43359 12.4997 7.43359 17.36Z" fill="#46B8FF"/>
<path fill-rule="evenodd" clip-rule="evenodd" d="M27.981 20.7262C27.981 20.7262 29.0081 26.1604 16.0001 26.1604C2.9921 26.1604 17.2163 19.2246 17.2163 19.2246" fill="#46B8FF"/>
<path fill-rule="evenodd" clip-rule="evenodd" d="M12.0797 22.1847C9.24657 22.1847 6.94165 19.8168 6.94165 16.9063C6.94165 13.9958 9.24657 11.6279 12.0797 11.6279H19.9206C22.7537 11.6279 25.0586 13.9958 25.0586 16.9063C25.0586 19.8168 22.7537 22.1847 19.9206 22.1847H12.0797Z" fill="#722BE2"/>
<path fill-rule="evenodd" clip-rule="evenodd" d="M12.0794 20.626C10.0827 20.626 8.4585 18.9575 8.4585 16.9063C8.4585 14.8551 10.0827 13.1865 12.0794 13.1865H19.9202C21.9168 13.1865 23.5411 14.8551 23.5411 16.9063C23.5411 18.9575 21.9168 20.626 19.9202 20.626H12.0794Z" fill="#2D2B52"/>
<path fill-rule="evenodd" clip-rule="evenodd" d="M14.1358 16.9056C14.1358 18.0858 13.2044 19.0426 12.0555 19.0426C10.9067 19.0426 9.97534 18.0858 9.97534 16.9056C9.97534 15.7254 10.9067 14.7686 12.0555 14.7686C13.2044 14.7686 14.1358 15.7254 14.1358 16.9056Z" fill="white"/>
<path fill-rule="evenodd" clip-rule="evenodd" d="M13.7397 16.9058C13.7397 17.8612 12.9856 18.6359 12.0557 18.6359C11.5398 18.6359 11.0786 18.3974 10.7676 18.0218C10.5203 17.721 10.3716 17.3313 10.3716 16.9058C10.3716 15.9505 11.1256 15.1758 12.0557 15.1758C12.2984 15.1758 12.529 15.2288 12.7368 15.3224C13.327 15.5919 13.7397 16.1998 13.7397 16.9058Z" fill="#2D2B52"/>
<path fill-rule="evenodd" clip-rule="evenodd" d="M13.1328 16.4382C13.1328 17.3936 12.3788 18.1683 11.4488 18.1683C11.206 18.1683 10.9754 18.1153 10.7675 18.0217C10.5203 17.721 10.3716 17.3313 10.3716 16.9058C10.3716 15.9504 11.1256 15.1758 12.0556 15.1758C12.2983 15.1758 12.529 15.2287 12.7368 15.3223C12.9841 15.623 13.1328 16.0127 13.1328 16.4382Z" fill="#2D2B52"/>
<path fill-rule="evenodd" clip-rule="evenodd" d="M21.6289 16.9056C21.6289 17.861 20.875 18.6355 19.945 18.6355C19.0151 18.6355 18.2612 17.861 18.2612 16.9056C18.2612 15.9503 19.0151 15.1758 19.945 15.1758C20.875 15.1758 21.6289 15.9503 21.6289 16.9056Z" fill="#2D2B52"/>
<path fill-rule="evenodd" clip-rule="evenodd" d="M22.0239 16.9056C22.0239 18.0858 21.0925 19.0426 19.9437 19.0426C18.7948 19.0426 17.8635 18.0858 17.8635 16.9056C17.8635 15.7254 18.7948 14.7686 19.9437 14.7686C21.0925 14.7686 22.0239 15.7254 22.0239 16.9056Z" fill="white"/>
<path fill-rule="evenodd" clip-rule="evenodd" d="M11.6369 16.2674C11.6369 16.5256 11.4331 16.735 11.1817 16.735C10.9303 16.735 10.7266 16.5256 10.7266 16.2674C10.7266 16.0092 10.9303 15.7998 11.1817 15.7998C11.4331 15.7998 11.6369 16.0092 11.6369 16.2674Z" fill="white"/>
<path fill-rule="evenodd" clip-rule="evenodd" d="M12.2438 15.7995C12.2438 15.8856 12.1759 15.9553 12.0921 15.9553C12.0083 15.9553 11.9404 15.8856 11.9404 15.7995C11.9404 15.7133 12.0083 15.6436 12.0921 15.6436C12.1759 15.6436 12.2438 15.7133 12.2438 15.7995Z" fill="white"/>
<path fill-rule="evenodd" clip-rule="evenodd" d="M21.6288 16.9058C21.6288 17.8612 20.8748 18.6359 19.9448 18.6359C19.4289 18.6359 18.9677 18.3974 18.6567 18.0218C18.4094 17.721 18.2607 17.3313 18.2607 16.9058C18.2607 15.9505 19.0148 15.1758 19.9448 15.1758C20.1875 15.1758 20.4181 15.2288 20.626 15.3224C21.2161 15.5919 21.6288 16.1998 21.6288 16.9058Z" fill="#2D2B52"/>
<path fill-rule="evenodd" clip-rule="evenodd" d="M21.0219 16.4382C21.0219 17.3936 20.268 18.1683 19.3379 18.1683C19.0952 18.1683 18.8646 18.1153 18.6567 18.0217C18.4094 17.721 18.2607 17.3313 18.2607 16.9058C18.2607 15.9504 19.0148 15.1758 19.9448 15.1758C20.1875 15.1758 20.4181 15.2287 20.626 15.3223C20.8732 15.623 21.0219 16.0127 21.0219 16.4382Z" fill="#2D2B52"/>
<path fill-rule="evenodd" clip-rule="evenodd" d="M19.5262 16.2674C19.5262 16.5256 19.3224 16.735 19.0711 16.735C18.8197 16.735 18.616 16.5256 18.616 16.2674C18.616 16.0092 18.8197 15.7998 19.0711 15.7998C19.3224 15.7998 19.5262 16.0092 19.5262 16.2674Z" fill="white"/>
<path fill-rule="evenodd" clip-rule="evenodd" d="M20.133 15.7995C20.133 15.8856 20.065 15.9553 19.9812 15.9553C19.8975 15.9553 19.8296 15.8856 19.8296 15.7995C19.8296 15.7133 19.8975 15.6436 19.9812 15.6436C20.065 15.6436 20.133 15.7133 20.133 15.7995Z" fill="white"/>
<path fill-rule="evenodd" clip-rule="evenodd" d="M26.7512 1.82483C26.3785 2.33899 25.6595 2.4537 25.1453 2.08103C24.6311 1.7083 24.5164 0.989325 24.8891 0.475096C25.2618 -0.0391332 25.9808 -0.153843 26.4951 0.218888C27.0092 0.591559 27.1239 1.3106 26.7512 1.82483Z" fill="#2D2B52"/>
<path fill-rule="evenodd" clip-rule="evenodd" d="M19.9832 4.93593C19.8683 6.64417 21.1607 8.12193 22.8699 8.23684C24.5791 8.3517 26.0579 7.06009 26.1728 5.35196C26.2878 3.64378 24.9953 2.16596 23.2861 2.05104C23.2153 2.04629 23.1449 2.04395 23.0749 2.04395C21.4568 2.04395 20.0933 3.29861 19.9832 4.93593Z" fill="url(#paint0_linear)"/>
<path d="M29.5 26.5C29.5 28.7091 27.7091 30.5 25.5 30.5C23.2909 30.5 21.5 28.7091 21.5 26.5C21.5 24.2909 23.2909 22.5 25.5 22.5C27.7091 22.5 29.5 24.2909 29.5 26.5Z" fill="#00CF64" stroke="white"/>
<defs>
<linearGradient id="paint0_linear" x1="19.9761" y1="8.24394" x2="26.1799" y2="8.24394" gradientUnits="userSpaceOnUse">
<stop stop-color="#21A5FF"/>
<stop offset="1" stop-color="#66C8FF"/>
</linearGradient>
</defs>
</svg>
