<svg width="32" height="32" viewBox="0 0 32 32" fill="none" xmlns="http://www.w3.org/2000/svg">
<path fill-rule="evenodd" clip-rule="evenodd" d="M27.2663 20.2584C27.2663 25.0862 22.2532 29 16.0691 29C9.88502 29 4.87183 25.0862 4.87183 20.2584C4.87183 15.4305 9.88502 11.5166 16.0691 11.5166C22.2532 11.5166 27.2663 15.4305 27.2663 20.2584" fill="#545454"/>
<path fill-rule="evenodd" clip-rule="evenodd" d="M11.4581 20.7272C11.4581 22.8373 9.79289 24.5478 7.73882 24.5478C5.6847 24.5478 4.01953 22.8373 4.01953 20.7272C4.01953 18.617 5.6847 16.9064 7.73882 16.9064C9.79289 16.9064 11.4581 18.617 11.4581 20.7272" fill="#B9B9B9"/>
<path fill-rule="evenodd" clip-rule="evenodd" d="M27.981 20.727C27.981 22.8371 26.3158 24.5477 24.2618 24.5477C22.2077 24.5477 20.5425 22.8371 20.5425 20.727C20.5425 18.6169 22.2077 16.9063 24.2618 16.9063C26.3158 16.9063 27.981 18.6169 27.981 20.727" fill="#46B8FF"/>
<path fill-rule="evenodd" clip-rule="evenodd" d="M4.01953 20.7258C4.01953 17.8316 8.21176 6.94617 16.0004 6.94617C23.7891 6.94617 15.6426 20.7258 15.6426 20.7258H4.01953Z" fill="#B9B9B9"/>
<path fill-rule="evenodd" clip-rule="evenodd" d="M7.73877 24.5458H24.4001V21.1436H7.73877V24.5458Z" fill="#46B8FF"/>
<path fill-rule="evenodd" clip-rule="evenodd" d="M27.9813 20.7259C27.9813 17.8318 23.7891 6.94632 16.0004 6.94632C8.21172 6.94632 16.3582 20.7259 16.3582 20.7259H27.9813Z" fill="#B9B9B9"/>
<path fill-rule="evenodd" clip-rule="evenodd" d="M24.5666 15.7464C24.5666 20.6066 20.7312 24.5466 16 24.5466C11.2689 24.5466 7.43359 20.6066 7.43359 15.7464C7.43359 10.8862 11.2689 6.94632 16 6.94632C20.7312 6.94632 24.5666 10.8862 24.5666 15.7464" fill="#B9B9B9"/>
<path fill-rule="evenodd" clip-rule="evenodd" d="M24.5666 17.3597C24.5666 22.2199 20.7312 26.1599 16 26.1599C11.2689 26.1599 7.43359 22.2199 7.43359 17.3597C7.43359 12.4996 11.2689 8.5596 16 8.5596C20.7312 8.5596 24.5666 12.4996 24.5666 17.3597" fill="#46B8FF"/>
<path fill-rule="evenodd" clip-rule="evenodd" d="M4.0191 20.7262C4.0191 20.7262 2.99201 26.1603 16 26.1603C29.008 26.1603 14.7838 19.2247 14.7838 19.2247L4.0191 20.7262Z" fill="#B9B9B9"/>
<path fill-rule="evenodd" clip-rule="evenodd" d="M7.43359 17.3597C7.43359 22.2199 11.2689 26.1599 16 26.1599C20.7312 26.1599 24.5666 22.2199 24.5666 17.3597C24.5666 12.4996 20.7312 8.5596 16 8.5596C11.2689 8.5596 7.43359 12.4996 7.43359 17.3597Z" fill="#B9B9B9"/>
<path fill-rule="evenodd" clip-rule="evenodd" d="M27.9812 20.7261C27.9812 20.7261 29.0084 26.1602 16.0003 26.1602C2.99235 26.1602 17.2166 19.2246 17.2166 19.2246" fill="#B9B9B9"/>
<path fill-rule="evenodd" clip-rule="evenodd" d="M12.0795 22.1833C9.24633 22.1833 6.94141 19.8155 6.94141 16.9051C6.94141 13.9948 9.24633 11.627 12.0795 11.627H19.9203C22.7535 11.627 25.0584 13.9948 25.0584 16.9051C25.0584 19.8155 22.7535 22.1833 19.9203 22.1833H12.0795Z" fill="#787878"/>
<path fill-rule="evenodd" clip-rule="evenodd" d="M12.0798 20.6248C10.0832 20.6248 8.45898 18.9563 8.45898 16.9052C8.45898 14.8541 10.0832 13.1856 12.0798 13.1856H19.9207C21.9173 13.1856 23.5416 14.8541 23.5416 16.9052C23.5416 18.9563 21.9173 20.6248 19.9207 20.6248H12.0798Z" fill="#545454"/>
<path fill-rule="evenodd" clip-rule="evenodd" d="M14.1363 16.9045C14.1363 18.0848 13.2049 19.0415 12.056 19.0415C10.9072 19.0415 9.97583 18.0848 9.97583 16.9045C9.97583 15.7244 10.9072 14.7676 12.056 14.7676C13.2049 14.7676 14.1363 15.7244 14.1363 16.9045" fill="white"/>
<path fill-rule="evenodd" clip-rule="evenodd" d="M13.7401 16.9058C13.7401 17.8612 12.9861 18.6358 12.0561 18.6358C11.5403 18.6358 11.0791 18.3973 10.7681 18.0217C10.5208 17.721 10.3721 17.3313 10.3721 16.9058C10.3721 15.9505 11.1261 15.1758 12.0561 15.1758C12.2989 15.1758 12.5295 15.2288 12.7373 15.3224C13.3275 15.592 13.7401 16.1998 13.7401 16.9058" fill="#545454"/>
<path fill-rule="evenodd" clip-rule="evenodd" d="M13.1333 16.4382C13.1333 17.3936 12.3792 18.1682 11.4493 18.1682C11.2065 18.1682 10.9759 18.1152 10.768 18.0217C10.5208 17.7209 10.3721 17.3312 10.3721 16.9058C10.3721 15.9504 11.1261 15.1758 12.0561 15.1758C12.2988 15.1758 12.5294 15.2287 12.7373 15.3223C12.9846 15.6231 13.1333 16.0127 13.1333 16.4382Z" fill="#545454"/>
<path fill-rule="evenodd" clip-rule="evenodd" d="M21.6294 16.9056C21.6294 17.8609 20.8755 18.6354 19.9455 18.6354C19.0156 18.6354 18.2617 17.8609 18.2617 16.9056C18.2617 15.9503 19.0156 15.1758 19.9455 15.1758C20.8755 15.1758 21.6294 15.9503 21.6294 16.9056" fill="#2D2B52"/>
<path fill-rule="evenodd" clip-rule="evenodd" d="M22.0244 16.9045C22.0244 18.0848 21.093 19.0415 19.9441 19.0415C18.7953 19.0415 17.864 18.0848 17.864 16.9045C17.864 15.7244 18.7953 14.7676 19.9441 14.7676C21.093 14.7676 22.0244 15.7244 22.0244 16.9045" fill="white"/>
<path fill-rule="evenodd" clip-rule="evenodd" d="M11.6376 16.2683C11.6376 16.5266 11.4338 16.7359 11.1825 16.7359C10.9311 16.7359 10.7273 16.5266 10.7273 16.2683C10.7273 16.0102 10.9311 15.8008 11.1825 15.8008C11.4338 15.8008 11.6376 16.0102 11.6376 16.2683Z" fill="white"/>
<path fill-rule="evenodd" clip-rule="evenodd" d="M12.2432 15.7982C12.2432 15.8841 12.1754 15.9537 12.0918 15.9537C12.0082 15.9537 11.9404 15.8841 11.9404 15.7982C11.9404 15.7122 12.0082 15.6426 12.0918 15.6426C12.1754 15.6426 12.2432 15.7122 12.2432 15.7982" fill="white"/>
<path fill-rule="evenodd" clip-rule="evenodd" d="M21.6291 16.9058C21.6291 17.8612 20.875 18.6358 19.945 18.6358C19.4292 18.6358 18.968 18.3973 18.6569 18.0217C18.4096 17.721 18.261 17.3313 18.261 16.9058C18.261 15.9505 19.015 15.1758 19.945 15.1758C20.1878 15.1758 20.4184 15.2288 20.6262 15.3224C21.2164 15.592 21.6291 16.1998 21.6291 16.9058" fill="#545454"/>
<path fill-rule="evenodd" clip-rule="evenodd" d="M21.0222 16.4382C21.0222 17.3936 20.2682 18.1682 19.3381 18.1682C19.0954 18.1682 18.8648 18.1152 18.6569 18.0217C18.4097 17.7209 18.261 17.3312 18.261 16.9058C18.261 15.9504 19.015 15.1758 19.945 15.1758C20.1878 15.1758 20.4184 15.2287 20.6262 15.3223C20.8735 15.6231 21.0222 16.0127 21.0222 16.4382" fill="#545454"/>
<path fill-rule="evenodd" clip-rule="evenodd" d="M19.5262 16.2683C19.5262 16.5266 19.3224 16.7359 19.0711 16.7359C18.8197 16.7359 18.616 16.5266 18.616 16.2683C18.616 16.0102 18.8197 15.8008 19.0711 15.8008C19.3224 15.8008 19.5262 16.0102 19.5262 16.2683" fill="white"/>
<path fill-rule="evenodd" clip-rule="evenodd" d="M20.1329 15.7982C20.1329 15.8841 20.065 15.9537 19.9814 15.9537C19.8978 15.9537 19.8301 15.8841 19.8301 15.7982C19.8301 15.7122 19.8978 15.6426 19.9814 15.6426C20.065 15.6426 20.1329 15.7122 20.1329 15.7982" fill="white"/>
<path fill-rule="evenodd" clip-rule="evenodd" d="M26.7515 1.82483C26.3787 2.33899 25.6598 2.4537 25.1455 2.08103C24.6313 1.7083 24.5167 0.989325 24.8893 0.475096C25.2621 -0.0391332 25.9811 -0.153843 26.4953 0.218888C27.0095 0.591559 27.1242 1.3106 26.7515 1.82483" fill="#494949"/>
<path fill-rule="evenodd" clip-rule="evenodd" d="M19.9834 4.93495C19.8685 6.64319 21.161 8.12095 22.8701 8.23587V8.23587C24.5794 8.35072 26.0582 7.05911 26.173 5.35099V5.35099C26.288 3.6428 24.9955 2.16498 23.2863 2.05007V2.05007C23.2155 2.04532 23.1451 2.04297 23.0752 2.04297V2.04297C21.457 2.04297 20.0936 3.29764 19.9834 4.93495" fill="#B9B9B9"/>
<path d="M29.5 26.5C29.5 28.7091 27.7091 30.5 25.5 30.5C23.2909 30.5 21.5 28.7091 21.5 26.5C21.5 24.2909 23.2909 22.5 25.5 22.5C27.7091 22.5 29.5 24.2909 29.5 26.5Z" fill="#B4B6B8" stroke="#3B3B3B"/>
</svg>
