<svg id="exception_12" width="12" height="12" viewBox="0 0 12 12" fill="none" xmlns="http://www.w3.org/2000/svg">
<g id="exception_12">
<path fill-rule="evenodd" clip-rule="evenodd" d="M9.17069 9.8778L10.1464 10.8536C10.3417 11.0488 10.6583 11.0488 10.8536 10.8536C11.0488 10.6583 11.0488 10.3417 10.8536 10.1464L9.87715 9.17004C10.3516 8.58733 10.6994 7.88938 10.876 7.11175C10.937 6.84175 10.769 6.57475 10.499 6.51275C10.23 6.45175 9.962 6.62075 9.901 6.88975C9.7676 7.47691 9.51202 8.00742 9.16432 8.45722L3.54544 2.83833C4.22526 2.31096 5.07859 2.00005 6 2.00005C7.442 2.00005 8.739 2.76405 9.454 4.00005H7.5C7.225 4.00005 7 4.22605 7 4.50005C7 4.77505 7.225 5.00005 7.5 5.00005H10.5C10.569 5.00005 10.634 4.98605 10.694 4.96105C10.813 4.91005 10.91 4.81405 10.96 4.69505C10.986 4.63505 11 4.56905 11 4.50005V1.50005C11 1.22605 10.775 1.00005 10.5 1.00005C10.225 1.00005 10 1.22605 10 1.50005V3.01305C9.066 1.75805 7.606 1.00005 6 1.00005C4.80346 1.00005 3.6986 1.4196 2.83342 2.12631L1.85355 1.14645C1.65829 0.951184 1.34171 0.951184 1.14645 1.14645C0.951184 1.34171 0.951184 1.65829 1.14645 1.85355L2.12604 2.83315C1.53314 3.55801 1.13891 4.45614 1.03 5.45005C1 5.72505 1.198 5.97105 1.473 6.00105C1.491 6.00305 1.509 6.00405 1.527 6.00405C1.779 6.00405 1.996 5.81505 2.024 5.55905C2.10743 4.79991 2.39889 4.11062 2.83807 3.54518L8.45784 9.16494C7.77643 9.69358 6.92145 10.0007 6 10.0007C4.557 10.0007 3.261 9.23675 2.546 8.00075H4.5C4.775 8.00075 5 7.77575 5 7.50075C5 7.22575 4.775 7.00075 4.5 7.00075H1.5C1.225 7.00075 1 7.22575 1 7.50075V10.5007C1 10.7757 1.225 11.0007 1.5 11.0007C1.775 11.0007 2 10.7757 2 10.5007V8.98775C2.933 10.2427 4.394 11.0007 6 11.0007C7.19659 11.0007 8.30354 10.5865 9.17069 9.8778Z"/>
</g>
</svg>
