<?xml version="1.0" standalone="no"?>
<!DOCTYPE svg PUBLIC "-//W3C//DTD SVG 1.1//EN" "http://www.w3.org/Graphics/SVG/1.1/DTD/svg11.dtd" >
<svg xmlns="http://www.w3.org/2000/svg" id="favorite_24">
<path unicode="&#xe96e;" transform="scale(1,-1)" id="favorite_24" data-tags="favorite_24" d="M511.987 214.827c11.051 0 22.101-3.541 31.275-10.667l227.072-174.635-89.472 286.251c-6.357 20.437 0.725 42.88 17.664 55.936 0.171 0.128 0.384 0.299 0.597 0.427l224.725 161.195h-277.803c-21.845 0-41.941 15.531-48.939 37.76l-85.12 283.989-85.077-283.776c-6.955-22.443-27.051-37.973-48.939-37.973h-277.803l224.725-161.195c17.536-13.483 24.619-35.925 18.261-56.363l-89.472-286.251 227.115 174.677c9.131 7.083 20.181 10.624 31.189 10.624v0zM774.771 15.232v0zM244.723-21.291c-7.552 0-15.147 2.304-21.675 6.869-13.696 9.515-19.499 26.539-14.549 42.411l93.909 300.544c1.067 3.413-0.085 7.168-2.901 9.344l-241.792 173.397c-13.184 10.069-18.091 25.728-13.184 40.277 5.035 14.848 18.773 24.448 35.029 24.448h298.411c2.731 0 6.784 3.328 8.149 7.765l92.629 308.949c4.651 14.848 18.56 22.955 33.323 24.619 15.232-0.043 28.587-9.856 33.109-24.363l92.715-309.376c1.323-4.267 5.419-7.595 8.149-7.595h298.411c16.213 0 29.952-9.6 34.987-24.405 4.949-14.549 0.043-30.208-12.544-39.893l-242.56-173.995c-2.688-2.176-3.797-5.845-2.731-9.173l93.909-300.544c4.949-15.872-0.853-32.896-14.549-42.411-13.568-9.557-31.616-9.131-44.8 1.024l-238.933 183.765c-3.072 2.432-7.424 2.389-10.411 0.043l-238.976-183.808c-6.827-5.248-14.933-7.893-23.125-7.893v0z" />
</svg>
