<?xml version="1.0" standalone="no"?>
<!DOCTYPE svg PUBLIC "-//W3C//DTD SVG 1.1//EN" "http://www.w3.org/Graphics/SVG/1.1/DTD/svg11.dtd" >
<svg xmlns="http://www.w3.org/2000/svg" id="feedback-active_14">
<path unicode="&#xe9e8;" transform="scale(1,-1)" id="feedback-active_14" data-tags="feedback-active_14" d="M978.871 860.482c-28.965 22.967-66.267 31.451-101.742 23.406l-708.827-144.823c-116.224-26.697-168.229-124.562-168.302-209.774 0-81.774 48.494-174.592 155.063-205.678l82.066-241.518c13.312-43.593 52.882-72.997 98.523-72.997 33.061 0 64.293 16.018 83.602 42.862 19.602 27.136 24.722 60.928 13.897 93.477l-44.178 123.758 487.205-110.665c9.143-2.048 18.286-3.145 27.502-3.145 27.136 0 53.467 9.070 75.191 26.405 28.672 22.821 45.129 56.832 45.129 93.33v492.032c0 36.498-16.457 70.51-45.129 93.33v0z" />
</svg>
