<?xml version="1.0" standalone="no"?>
<!DOCTYPE svg PUBLIC "-//W3C//DTD SVG 1.1//EN" "http://www.w3.org/Graphics/SVG/1.1/DTD/svg11.dtd" >
<svg xmlns="http://www.w3.org/2000/svg" id="feedback_14">
<path unicode="&#xe9e5;" transform="scale(1,-1)" id="feedback_14" data-tags="feedback_14" d="M950.857 275.12c0-14.043-6.437-27.282-17.554-36.133-11.557-9.070-26.551-12.434-40.887-9.143l-672.987 152.869v292.133l673.207 137.582c14.336 3.218 29.184-0.073 40.667-9.143 11.118-8.85 17.554-22.089 17.554-36.133v-492.032zM364.032 121.52c3.072-9.216 1.536-18.944-4.096-26.843-13.531-18.725-45.861-14.043-53.175 9.874l-67.511 198.656 65.317-14.848 59.465-166.839zM73.143 529.291c0 42.935 20.48 95.963 73.143 123.904v-247.881c-52.882 28.087-73.143 81.115-73.143 123.977v0zM978.871 860.482c-28.965 22.967-66.267 31.451-101.742 23.406l-708.827-144.823c-116.224-26.697-168.229-124.562-168.302-209.774 0-81.774 48.494-174.592 155.063-205.678l82.066-241.518c13.312-43.593 52.882-72.997 98.523-72.997 33.061 0 64.293 16.018 83.602 42.862 19.602 27.136 24.722 60.928 13.897 93.477l-44.178 123.758 487.205-110.665c9.143-2.048 18.286-3.145 27.502-3.145 27.136 0 53.467 9.070 75.191 26.405 28.672 22.821 45.129 56.832 45.129 93.33v492.032c0 36.498-16.457 70.51-45.129 93.33v0z" />
</svg>
