<?xml version="1.0" standalone="no"?>
<!DOCTYPE svg PUBLIC "-//W3C//DTD SVG 1.1//EN" "http://www.w3.org/Graphics/SVG/1.1/DTD/svg11.dtd" >
<svg xmlns="http://www.w3.org/2000/svg" id="feedback_12">
<path unicode="&#xe9e4;" transform="scale(1,-1)" id="feedback_12" data-tags="feedback_12" d="M938.667 235.503c0-14.080-6.059-26.88-16.64-35.243-5.461-4.352-17.237-10.837-32.512-7.253l-633.515 151.211v307.883l633.685 136.107c15.019 3.499 26.965-2.987 32.427-7.339 10.496-8.277 16.555-21.077 16.555-35.157v-510.208zM340.395 137.796c3.328-9.984-0.597-17.664-3.243-21.419-5.291-7.253-35.584-13.824-42.24 7.68l-42.923 133.376 52.821-12.629 35.584-107.008zM85.333 498.927c0 47.36 24.576 105.301 85.333 130.133v-260.181c-60.928 25.173-85.333 82.944-85.333 130.048v0zM974.933 847.94c-30.123 23.637-68.267 32-104.277 23.467l-699.819-150.357c-102.144-24.661-170.837-113.92-170.837-222.037 0-102.144 61.525-186.795 154.453-216.747l59.051-183.637c14.080-46.251 55.979-77.397 104.448-77.397 34.987 0 67.925 16.896 88.491 45.397 20.395 28.331 25.941 65.024 14.933 98.219l-18.773 56.661 466.944-111.531c9.643-2.304 19.371-3.413 29.013-3.413 27.307 0 54.016 9.216 76.288 26.624 31.232 24.661 49.152 61.867 49.152 102.315v510.208c0 40.363-17.92 77.653-49.067 102.229v0z" />
</svg>
