<?xml version="1.0" standalone="no"?>
<!DOCTYPE svg PUBLIC "-//W3C//DTD SVG 1.1//EN" "http://www.w3.org/Graphics/SVG/1.1/DTD/svg11.dtd" >
<svg xmlns="http://www.w3.org/2000/svg" id="files_32">
<path unicode="&#xe975;" transform="scale(1,-1)" id="files_32" data-tags="files_32" d="M992 576h-960v224c0 35.296 28.704 64 64 64h216.224c17.12 0 33.184-6.656 45.28-18.752l53.568-53.568c15.264-15.264 35.584-23.68 57.152-23.68h459.776c35.296 0 64-28.704 64-64v-128zM992 96c0-35.296-28.704-64-64-64h-832c-35.296 0-64 28.704-64 64v448h960v-448zM928 800h-459.776c-12.96 0-25.376 5.152-34.528 14.304l-53.568 53.568c-18.016 18.016-42.432 28.128-67.904 28.128h-216.224c-53.024 0-96-42.976-96-96v-704c0-53.024 42.976-96 96-96h832c53.024 0 96 42.976 96 96v608c0 53.024-42.976 96-96 96v0z" />
</svg>
