<?xml version="1.0" standalone="no"?>
<!DOCTYPE svg PUBLIC "-//W3C//DTD SVG 1.1//EN" "http://www.w3.org/Graphics/SVG/1.1/DTD/svg11.dtd" >
<svg xmlns="http://www.w3.org/2000/svg" id="files_24">
<path unicode="&#xe974;" transform="scale(1,-1)" id="files_24" data-tags="files_24" d="M917.369 64h-810.738c-35.274 0-63.979 28.715-63.979 64v405.291h938.695v-405.291c0-35.285-28.705-64-63.979-64zM106.631 832h227.849c16.848 0 33.312-6.827 45.254-18.773l35.316-35.328c20.132-20.139 46.918-31.232 75.41-31.232h426.908c35.274 0 63.979-28.715 63.979-64.043v-106.667h-938.695v192.043c0 35.285 28.705 64 63.979 64zM917.369 789.333h-426.908c-16.848 0-33.354 6.827-45.254 18.731l-35.316 35.328c-20.175 20.181-46.96 31.275-75.41 31.275h-227.849c-58.775 0-106.631-47.872-106.631-106.667v-640c0-58.795 47.856-106.667 106.631-106.667h810.738c58.775 0 106.631 47.872 106.631 106.667v554.624c0 58.837-47.856 106.709-106.631 106.709z" />
</svg>
