<svg width="12" height="12" viewBox="0 0 12 12" fill="none" xmlns="http://www.w3.org/2000/svg">
    <title>filter-adr_12</title>
    <path fill-rule="evenodd" clip-rule="evenodd" d="M4.49408 11.158C4.33208 11.07 4.23108 10.901 4.23108 10.717V7.527L0.0940762 1.792C-0.0149238 1.64 -0.0309238 1.439 0.0550762 1.272C0.141076 1.105 0.312076 1 0.500076 1H11.5001C11.6881 1 11.8601 1.105 11.9461 1.272C12.0311 1.439 12.0151 1.64 11.9061 1.792L7.77008 7.527V9.041C7.77008 9.209 7.68508 9.366 7.54508 9.459L5.00608 11.135C4.92308 11.189 4.82708 11.217 4.73108 11.217C4.64908 11.217 4.56808 11.197 4.49408 11.158ZM1.47708 2L5.13608 7.073C5.19808 7.158 5.23108 7.261 5.23108 7.366V9.788L6.76908 8.772V7.366C6.76908 7.261 6.80308 7.158 6.86408 7.073L10.5231 2H1.47708Z"/>
</svg>
