<?xml version="1.0" standalone="no"?>
<!DOCTYPE svg PUBLIC "-//W3C//DTD SVG 1.1//EN" "http://www.w3.org/Graphics/SVG/1.1/DTD/svg11.dtd" >
<svg xmlns="http://www.w3.org/2000/svg" id="flag_16">
<path unicode="&#xe97b;" transform="scale(1,-1)" id="flag_16" data-tags="flag_16" d="M191.992 384v448h622.382l-145.197-195.584c-12.99-16.704-12.99-40.128-0.448-56.192l145.645-196.224h-622.382zM886.556 393.984l-158.763 214.016 158.443 213.376c10.879 14.080 12.734 32.768 4.927 48.704-7.807 16-23.741 25.92-41.531 25.92h-689.637c-17.662 0-31.996-14.336-31.996-32v-832c0-17.664 14.334-32 31.996-32s31.996 14.336 31.996 32v288h657.642c17.854 0 33.724 9.92 41.595 25.92 7.807 16 5.887 34.624-4.671 48.064v0z" />
</svg>
