<?xml version="1.0" standalone="no"?>
<!DOCTYPE svg PUBLIC "-//W3C//DTD SVG 1.1//EN" "http://www.w3.org/Graphics/SVG/1.1/DTD/svg11.dtd">

<!--
	DO NOT MANUALLY ADD ANY ICONS TO EITHER THIS FILE OR ATLANTIC ICON SET
-->

<svg xmlns="http://www.w3.org/2000/svg" id="fontello">
  <path d="M8.8,8.70012054 C8.8,9.19750355 8.44208271,9.6 8.00017142,9.6 C7.55791729,9.6 7.2,9.19750355 7.2,8.70012054 L7.2,3.30007232 C7.2,2.80249645 7.55791729,2.4 8.00017142,2.4 C8.44208271,2.4 8.8,2.80249645 8.8,3.30007232 L8.8,8.70012054 Z M8.56790229,13.3767893 C8.27203771,13.6744036 7.73567602,13.6744036 7.43209771,13.3767893 C7.28776516,13.2242728 7.2,13.0139588 7.2,12.8051975 C7.2,12.5960911 7.28776516,12.3864672 7.43209771,12.2334331 C7.58362974,12.0888529 7.79190058,12 8.00017142,12 C8.20775659,12 8.41568459,12.0888529 8.56790229,12.2334331 C8.71154918,12.3864672 8.8,12.5960911 8.8,12.8051975 C8.8,13.0229303 8.71154918,13.2242728 8.56790229,13.3767893 L8.56790229,13.3767893 Z M8,0 C3.582,0 0,3.5818 0,8 C0,12.4182 3.582,16 8,16 C12.418,16 16,12.4182 16,8 C16,3.5818 12.418,0 8,0 L8,0 Z" fill="#4f5051" horiz-adv-x="1000" id="unmute_normal"/>
  <path d="M8.8,8.70012054 C8.8,9.19750355 8.44208271,9.6 8.00017142,9.6 C7.55791729,9.6 7.2,9.19750355 7.2,8.70012054 L7.2,3.30007232 C7.2,2.80249645 7.55791729,2.4 8.00017142,2.4 C8.44208271,2.4 8.8,2.80249645 8.8,3.30007232 L8.8,8.70012054 Z M8.56790229,13.3767893 C8.27203771,13.6744036 7.73567602,13.6744036 7.43209771,13.3767893 C7.28776516,13.2242728 7.2,13.0139588 7.2,12.8051975 C7.2,12.5960911 7.28776516,12.3864672 7.43209771,12.2334331 C7.58362974,12.0888529 7.79190058,12 8.00017142,12 C8.20775659,12 8.41568459,12.0888529 8.56790229,12.2334331 C8.71154918,12.3864672 8.8,12.5960911 8.8,12.8051975 C8.8,13.0229303 8.71154918,13.2242728 8.56790229,13.3767893 L8.56790229,13.3767893 Z M8,0 C3.582,0 0,3.5818 0,8 C0,12.4182 3.582,16 8,16 C12.418,16 16,12.4182 16,8 C16,3.5818 12.418,0 8,0 L8,0 Z" fill="#343537" horiz-adv-x="1000" id="unmute_hover"/>
  <path d="M8.8,8.70012054 C8.8,9.19750355 8.44208271,9.6 8.00017142,9.6 C7.55791729,9.6 7.2,9.19750355 7.2,8.70012054 L7.2,3.30007232 C7.2,2.80249645 7.55791729,2.4 8.00017142,2.4 C8.44208271,2.4 8.8,2.80249645 8.8,3.30007232 L8.8,8.70012054 Z M8.56790229,13.3767893 C8.27203771,13.6744036 7.73567602,13.6744036 7.43209771,13.3767893 C7.28776516,13.2242728 7.2,13.0139588 7.2,12.8051975 C7.2,12.5960911 7.28776516,12.3864672 7.43209771,12.2334331 C7.58362974,12.0888529 7.79190058,12 8.00017142,12 C8.20775659,12 8.41568459,12.0888529 8.56790229,12.2334331 C8.71154918,12.3864672 8.8,12.5960911 8.8,12.8051975 C8.8,13.0229303 8.71154918,13.2242728 8.56790229,13.3767893 L8.56790229,13.3767893 Z M8,0 C3.582,0 0,3.5818 0,8 C0,12.4182 3.582,16 8,16 C12.418,16 16,12.4182 16,8 C16,3.5818 12.418,0 8,0 L8,0 Z" fill="#04c9ef" horiz-adv-x="1000" id="unmute_pressed"/>
  <g id="team-rooms-preview-icon" style="fill:none;fill-rule:evenodd;stroke:none;stroke-width:1">
    <g fill="#979797">
      <path d="M185.390992,92 C185.09795,92 184.84009,91.786262 184.791607,91.4851251 L182.313838,76.1236805 C182.221592,75.5698655 181.698578,74.8083698 181.216754,74.5292989 L157.816739,60.8427122 C157.059035,60.4009581 156.218524,59.4049564 155.9036,58.5755318 L152.954732,51.9254247 L153.363618,51.6346718 C157.068474,48.9988584 159.433403,40.1218091 159.433403,35.1681932 L159.433403,24.9464117 C159.433403,16.8299928 152.889087,10.2261811 144.845238,10.2261811 C136.801818,10.2261811 130.257932,16.8299928 130.257932,24.9464117 L130.257932,35.1681932 C130.257932,40.1213764 132.620287,48.9984257 136.322139,51.6351045 L136.730596,51.9254247 L133.77186,58.6062513 C133.471524,59.4049564 132.630584,60.4013908 131.871593,60.8435775 L127.913597,63.1605146 C127.622271,63.3301205 127.250713,63.2314722 127.082525,62.9381233 C126.913479,62.645207 127.01259,62.2700839 127.302628,62.1000454 L131.261911,59.7822429 C131.785353,59.4776446 132.432362,58.7096589 132.648604,58.1381045 L135.220336,52.327806 C131.381616,49.1264954 129.042001,40.329057 129.042001,35.1681932 L129.042001,24.9464117 C129.042001,16.1537327 136.131212,9 144.845238,9 C153.560123,9 160.649334,16.1537327 160.649334,24.9464117 L160.649334,35.1681932 C160.649334,40.3299224 158.308002,49.1273608 154.465421,52.327806 L157.027285,58.1060871 C157.256827,58.7092263 157.904694,59.4772119 158.425991,59.7813776 L181.82429,73.467099 C182.618035,73.9270251 183.361151,75.0065317 183.513893,75.9237879 L185.992092,91.2882611 C186.045724,91.6222808 185.820901,91.9376958 185.489244,91.9917793 C185.456207,91.997404 185.4236,92 185.390992,92" id="Fill-1"/>
      <path d="M0.609457356,92 C0.576825431,92 0.544193506,91.997404 0.511132213,91.9917793 C0.179231187,91.9376958 -0.0457573491,91.6222808 0.00791358019,91.2882611 L2.48708115,75.9268166 C2.63907722,75.0078297 3.38231225,73.9278904 4.17964757,73.4662337 L27.5909069,59.7818102 C28.1151646,59.4767793 28.7643681,58.7087936 28.9807693,58.1376718 L31.5518215,52.327806 C27.7102711,49.1256301 25.3689305,40.3281917 25.3689305,35.1681932 L25.3689305,24.9464117 C25.3689305,16.1537327 32.4633686,9 41.1846799,9 C49.9055619,9 57,16.1537327 57,24.9464117 L57,35.1681932 C57,40.3299224 54.6578006,49.1273608 50.8132446,52.327806 L53.377427,58.1060871 C53.6062798,58.7092263 54.2537659,59.4767793 54.7771648,59.7813776 L56.4869059,60.7808406 C56.7775877,60.9508792 56.8767715,61.3260023 56.7076008,61.6193512 C56.5388594,61.9122674 56.1653097,62.0113484 55.8763454,61.8417426 L54.167463,60.8427122 C53.4074827,60.4005255 52.5659225,59.4040911 52.2529136,58.5742338 L49.3014419,51.9254247 L49.7101997,51.6346718 C53.4173581,48.9992911 55.7831727,40.1218091 55.7831727,35.1681932 L55.7831727,24.9464117 C55.7831727,16.8299928 49.2340312,10.2261811 41.1846799,10.2261811 C33.1348993,10.2261811 26.5857578,16.8299928 26.5857578,24.9464117 L26.5857578,35.1681932 C26.5857578,40.1205111 28.9498549,48.9975604 32.6544371,51.6351045 L33.0627655,51.9254247 L30.1048533,58.6062513 C29.803008,59.4049564 28.9610184,60.4009581 28.2006087,60.8435775 L4.78806123,74.5280009 C4.30373476,74.8088024 3.78033586,75.5698655 3.68845123,76.1262765 L1.20928366,91.4851251 C1.16076514,91.7858293 0.902715314,92 0.609457356,92" id="Fill-3"/>
      <path d="M41.6130668,101 C41.5802416,101 41.5474164,100.997408 41.5141593,100.991793 C41.1802926,100.937803 40.9539717,100.62336 41.0079604,100.289481 L44.0550875,81.5451599 C44.2369217,80.4627517 45.1206101,79.1877042 46.0682213,78.6404531 L74.8546097,61.9430327 C75.5201834,61.558618 76.345564,60.5885108 76.6224184,59.8667613 L79.8267608,52.6911639 C75.0830902,48.8677492 72.1888594,38.0972263 72.1888594,31.792393 L72.1888594,19.320511 C72.1888594,8.66704015 80.851252,0 91.4982724,0 C102.14702,0 110.810277,8.66704015 110.810277,19.320511 L110.810277,31.792393 C110.810277,38.098954 107.91475,48.8703408 103.16892,52.6915958 L106.364192,59.8356626 C106.652708,60.587215 107.478521,61.5573222 108.144527,61.9430327 L136.932643,78.6408851 C137.878958,79.1877042 138.762214,80.4627517 138.943185,81.5425683 L141.99204,100.289481 C142.046028,100.622928 141.819707,100.937803 141.485841,100.991793 C141.152406,101.04492 140.837543,100.819887 140.783123,100.486007 L137.735132,81.7421184 C137.614197,81.0220967 136.95251,80.0666749 136.31933,79.7004011 L107.530782,63.0021169 C106.619883,62.4747344 105.610509,61.2895277 105.233451,60.304303 L101.646868,52.2868805 L102.058047,51.9966258 C106.653572,48.7545844 109.586243,37.8648497 109.586243,31.792393 L109.586243,19.320511 C109.586243,9.3421415 101.471945,1.22451205 91.4982724,1.22451205 C81.5258959,1.22451205 73.4128931,9.3421415 73.4128931,19.320511 L73.4128931,31.792393 C73.4128931,37.863122 76.3438363,48.7519928 80.9367702,51.9966258 L81.3479488,52.2873125 L77.7527276,60.3354017 C77.3873316,61.2916873 76.3779572,62.4768941 75.4679223,63.0029807 L46.6815339,79.6999692 C46.0470577,80.0671069 45.3840754,81.0220967 45.2631405,81.74471 L42.2164454,100.486007 C42.1676396,100.786196 41.9080615,101 41.6130668,101" id="Fill-5"/>
    </g>
  </g>
  <g fill="none" fill-rule="evenodd" id="deskphone-outline-normal" stroke="none" stroke-width="1">
    <g fill="#43a942" id="header-deskphone-outline" transform="translate(0.257812, 0.546875)">
      <path d="M20.4961,0.968 C9.7411,0.968 0.9921,9.50360976 0.9921,19.9962927 C0.9921,30.4889756 9.7411,39.0245854 20.4961,39.0245854 C31.2511,39.0245854 40.0001,30.4889756 40.0001,19.9962927 C40.0001,9.50360976 31.2511,0.968 20.4961,0.968 M20.4961,39.9923902 C9.1941,39.9923902 0.0001,31.0226341 0.0001,19.9962927 C0.0001,8.96995122 9.1941,0.000195121951 20.4961,0.000195121951 C31.7981,0.000195121951 40.9921,8.96995122 40.9921,19.9962927 C40.9921,31.0226341 31.7981,39.9923902 20.4961,39.9923902" id="Fill-1"/>
      <path d="M15.992,20.488 L23,20.488 L23,13.6509268 L15.992,13.6509268 L15.992,20.488 Z M15,21.4558049 L23.992,21.4558049 L23.992,12.683122 L15,12.683122 L15,21.4558049 Z M14.496,11.6997073 C14.218,11.6997073 13.992,11.9201951 13.992,12.1914146 L13.992,27.8011707 C13.992,28.0723902 14.218,28.292878 14.496,28.292878 L31.496,28.292878 C31.774,28.292878 32,28.0723902 32,27.8011707 L32,12.1914146 C32,11.9201951 31.774,11.6997073 31.496,11.6997073 L14.496,11.6997073 Z M31.496,29.2606829 L14.496,29.2606829 C13.671,29.2606829 13,28.6060488 13,27.8011707 L13,12.1914146 C13,11.3865366 13.671,10.7319024 14.496,10.7319024 L31.496,10.7319024 C32.321,10.7319024 32.992,11.3865366 32.992,12.1914146 L32.992,27.8011707 C32.992,28.6060488 32.321,29.2606829 31.496,29.2606829 L31.496,29.2606829 Z" id="Fill-4"/>
      <path d="M11,11.7473171 C9.856,11.9726829 8.992,12.9609756 8.992,14.142439 L8.992,25.8497561 C8.992,27.0312195 9.856,28.0195122 11,28.244878 L11,11.7473171 Z M11.992,29.2604878 L11.496,29.2604878 C9.568,29.2604878 8,27.7307317 8,25.8497561 L8,14.142439 C8,12.2614634 9.568,10.7317073 11.496,10.7317073 L11.992,10.7317073 L11.992,29.2604878 Z" id="Fill-6"/>
      <path d="M29.4961,16.0937561 L26.4961,16.0937561 C25.9431,16.0937561 25.4961,15.6576585 25.4961,15.1181463 C25.4961,14.5786341 25.9431,14.1425366 26.4961,14.1425366 L29.4961,14.1425366 C30.0491,14.1425366 30.4961,14.5786341 30.4961,15.1181463 C30.4961,15.6576585 30.0491,16.0937561 29.4961,16.0937561 M29.4961,19.0205854 L26.4961,19.0205854 C25.9431,19.0205854 25.4961,18.5844878 25.4961,18.0449756 C25.4961,17.5054634 25.9431,17.0693659 26.4961,17.0693659 L29.4961,17.0693659 C30.0491,17.0693659 30.4961,17.5054634 30.4961,18.0449756 C30.4961,18.5844878 30.0491,19.0205854 29.4961,19.0205854 M29.4961,21.9474146 L26.4961,21.9474146 C25.9431,21.9474146 25.4961,21.5113171 25.4961,20.9718049 C25.4961,20.4322927 25.9431,19.9961951 26.4961,19.9961951 L29.4961,19.9961951 C30.0491,19.9961951 30.4961,20.4322927 30.4961,20.9718049 C30.4961,21.5113171 30.0491,21.9474146 29.4961,21.9474146 M23.2061,25.5659512 C23.0161,25.741561 22.7561,25.8498537 22.4961,25.8498537 C22.2361,25.8498537 21.9751,25.741561 21.7861,25.5659512 C21.6051,25.381561 21.4961,25.1279024 21.4961,24.8742439 C21.4961,24.6205854 21.6051,24.3669268 21.7861,24.1805854 C22.1561,23.8205854 22.8361,23.8205854 23.2061,24.1903415 C23.3861,24.3669268 23.4961,24.6205854 23.4961,24.8742439 C23.4961,25.1279024 23.3861,25.381561 23.2061,25.5659512 M20.2061,25.5659512 C20.0161,25.741561 19.7561,25.8498537 19.4961,25.8498537 C19.2361,25.8498537 18.9751,25.741561 18.7861,25.5659512 C18.6051,25.381561 18.4961,25.1279024 18.4961,24.8742439 C18.4961,24.6205854 18.6051,24.3669268 18.7861,24.1805854 C19.1661,23.8205854 19.8361,23.8205854 20.2061,24.1805854 C20.3861,24.3669268 20.4961,24.6205854 20.4961,24.8742439 C20.4961,25.1279024 20.3861,25.381561 20.2061,25.5659512 M17.2061,25.5659512 C17.0161,25.741561 16.7561,25.8498537 16.4961,25.8498537 C16.2361,25.8498537 15.9751,25.741561 15.7861,25.5659512 C15.6051,25.381561 15.4961,25.1279024 15.4961,24.8742439 C15.4961,24.6205854 15.6051,24.3669268 15.7861,24.1805854 C16.1661,23.8205854 16.8361,23.8205854 17.2061,24.1805854 C17.3861,24.3669268 17.4961,24.6205854 17.4961,24.8742439 C17.4961,25.1279024 17.3861,25.381561 17.2061,25.5659512" id="Fill-7"/>
    </g>
  </g>
  <g fill="none" fill-rule="evenodd" id="deskphone-outline-selected" stroke="none" stroke-width="1">
    <g fill="#43a942" id="header-deskphone-solid" transform="translate(0.257812, 0.960938)">
      <path d="M19.9961951,0.968 C9.5035122,0.968 0.967902439,9.50360976 0.967902439,19.9962927 C0.967902439,30.4889756 9.5035122,39.0245854 19.9961951,39.0245854 C30.488878,39.0245854 39.0244878,30.4889756 39.0244878,19.9962927 C39.0244878,9.50360976 30.488878,0.968 19.9961951,0.968 M19.9961951,39.9923902 C8.96985366,39.9923902 9.75609756e-05,31.0226341 9.75609756e-05,19.9962927 C9.75609756e-05,8.96995122 8.96985366,0.000195121951 19.9961951,0.000195121951 C31.0225366,0.000195121951 39.9922927,8.96995122 39.9922927,19.9962927 C39.9922927,31.0226341 31.0225366,39.9923902 19.9961951,39.9923902" id="Fill-1"/>
      <path d="M28.4194146,15.1181463 L25.4925854,15.1181463 C24.9530732,15.1181463 24.5169756,14.6810732 24.5169756,14.1425366 C24.5169756,13.604 24.9530732,13.1669268 25.4925854,13.1669268 L28.4194146,13.1669268 C28.9589268,13.1669268 29.3950244,13.604 29.3950244,14.1425366 C29.3950244,14.6810732 28.9589268,15.1181463 28.4194146,15.1181463 L28.4194146,15.1181463 Z M28.4194146,18.0449756 L25.4925854,18.0449756 C24.9530732,18.0449756 24.5169756,17.6079024 24.5169756,17.0693659 C24.5169756,16.5308293 24.9530732,16.0937561 25.4925854,16.0937561 L28.4194146,16.0937561 C28.9589268,16.0937561 29.3950244,16.5308293 29.3950244,17.0693659 C29.3950244,17.6079024 28.9589268,18.0449756 28.4194146,18.0449756 L28.4194146,18.0449756 Z M28.4194146,20.9718049 L25.4925854,20.9718049 C24.9530732,20.9718049 24.5169756,20.5347317 24.5169756,19.9961951 C24.5169756,19.4576585 24.9530732,19.0205854 25.4925854,19.0205854 L28.4194146,19.0205854 C28.9589268,19.0205854 29.3950244,19.4576585 29.3950244,19.9961951 C29.3950244,20.5347317 28.9589268,20.9718049 28.4194146,20.9718049 L28.4194146,20.9718049 Z M14.760878,20.9718049 L22.5657561,20.9718049 L22.5657561,13.1669268 L14.760878,13.1669268 L14.760878,20.9718049 Z M22.2828293,24.5913171 C22.0974634,24.7669268 21.8438049,24.8742439 21.5901463,24.8742439 C21.3364878,24.8742439 21.0818537,24.7669268 20.8974634,24.5913171 C20.720878,24.4069268 20.6145366,24.1522927 20.6145366,23.8986341 C20.6145366,23.644 20.720878,23.3903415 20.8974634,23.2059512 C21.258439,22.8449756 21.9218537,22.8449756 22.2828293,23.2157073 C22.458439,23.3903415 22.5657561,23.644 22.5657561,23.8986341 C22.5657561,24.1522927 22.458439,24.4069268 22.2828293,24.5913171 L22.2828293,24.5913171 Z M19.356,24.5913171 C19.1706341,24.7669268 18.9169756,24.8742439 18.6633171,24.8742439 C18.4096585,24.8742439 18.1550244,24.7669268 17.9706341,24.5913171 C17.7940488,24.4069268 17.6877073,24.1522927 17.6877073,23.8986341 C17.6877073,23.644 17.7940488,23.3903415 17.9706341,23.2059512 C18.3413659,22.8449756 18.9950244,22.8449756 19.356,23.2059512 C19.5316098,23.3903415 19.6389268,23.644 19.6389268,23.8986341 C19.6389268,24.1522927 19.5316098,24.4069268 19.356,24.5913171 L19.356,24.5913171 Z M16.4291707,24.5913171 C16.2438049,24.7669268 15.9901463,24.8742439 15.7364878,24.8742439 C15.4828293,24.8742439 15.2281951,24.7669268 15.0438049,24.5913171 C14.8672195,24.4069268 14.760878,24.1522927 14.760878,23.8986341 C14.760878,23.644 14.8672195,23.3903415 15.0438049,23.2059512 C15.4145366,22.8449756 16.0681951,22.8449756 16.4291707,23.2059512 C16.6047805,23.3903415 16.7120976,23.644 16.7120976,23.8986341 C16.7120976,24.1522927 16.6047805,24.4069268 16.4291707,24.5913171 L16.4291707,24.5913171 Z M30.3706341,11.2157073 L13.7852683,11.2157073 C13.2467317,11.2157073 12.8096585,11.6527805 12.8096585,12.1913171 L12.8096585,27.8010732 C12.8096585,28.3396098 13.2467317,28.7766829 13.7852683,28.7766829 L30.3706341,28.7766829 C30.9091707,28.7766829 31.3462439,28.3396098 31.3462439,27.8010732 L31.3462439,12.1913171 C31.3462439,11.6527805 30.9091707,11.2157073 30.3706341,11.2157073 L30.3706341,11.2157073 Z" id="Fill-4"/>
      <path d="M7.93160976,14.1425366 L7.93160976,25.8498537 C7.93160976,27.4586341 9.24868293,28.7766829 10.858439,28.7766829 L10.858439,11.2157073 C9.24868293,11.2157073 7.93160976,12.5337561 7.93160976,14.1425366" id="Fill-6"/>
    </g>
  </g>
  <g fill="none" fill-rule="evenodd" id="deskphone-outline-white" stroke="none" stroke-width="1">
    <g fill="#ffffff" id="header-deskphone-outline" transform="translate(0.257812, 0.546875)">
      <path d="M20.4961,0.968 C9.7411,0.968 0.9921,9.50360976 0.9921,19.9962927 C0.9921,30.4889756 9.7411,39.0245854 20.4961,39.0245854 C31.2511,39.0245854 40.0001,30.4889756 40.0001,19.9962927 C40.0001,9.50360976 31.2511,0.968 20.4961,0.968 M20.4961,39.9923902 C9.1941,39.9923902 0.0001,31.0226341 0.0001,19.9962927 C0.0001,8.96995122 9.1941,0.000195121951 20.4961,0.000195121951 C31.7981,0.000195121951 40.9921,8.96995122 40.9921,19.9962927 C40.9921,31.0226341 31.7981,39.9923902 20.4961,39.9923902" id="Fill-1"/>
      <path d="M15.992,20.488 L23,20.488 L23,13.6509268 L15.992,13.6509268 L15.992,20.488 Z M15,21.4558049 L23.992,21.4558049 L23.992,12.683122 L15,12.683122 L15,21.4558049 Z M14.496,11.6997073 C14.218,11.6997073 13.992,11.9201951 13.992,12.1914146 L13.992,27.8011707 C13.992,28.0723902 14.218,28.292878 14.496,28.292878 L31.496,28.292878 C31.774,28.292878 32,28.0723902 32,27.8011707 L32,12.1914146 C32,11.9201951 31.774,11.6997073 31.496,11.6997073 L14.496,11.6997073 Z M31.496,29.2606829 L14.496,29.2606829 C13.671,29.2606829 13,28.6060488 13,27.8011707 L13,12.1914146 C13,11.3865366 13.671,10.7319024 14.496,10.7319024 L31.496,10.7319024 C32.321,10.7319024 32.992,11.3865366 32.992,12.1914146 L32.992,27.8011707 C32.992,28.6060488 32.321,29.2606829 31.496,29.2606829 L31.496,29.2606829 Z" id="Fill-4"/>
      <path d="M11,11.7473171 C9.856,11.9726829 8.992,12.9609756 8.992,14.142439 L8.992,25.8497561 C8.992,27.0312195 9.856,28.0195122 11,28.244878 L11,11.7473171 Z M11.992,29.2604878 L11.496,29.2604878 C9.568,29.2604878 8,27.7307317 8,25.8497561 L8,14.142439 C8,12.2614634 9.568,10.7317073 11.496,10.7317073 L11.992,10.7317073 L11.992,29.2604878 Z" id="Fill-6"/>
      <path d="M29.4961,16.0937561 L26.4961,16.0937561 C25.9431,16.0937561 25.4961,15.6576585 25.4961,15.1181463 C25.4961,14.5786341 25.9431,14.1425366 26.4961,14.1425366 L29.4961,14.1425366 C30.0491,14.1425366 30.4961,14.5786341 30.4961,15.1181463 C30.4961,15.6576585 30.0491,16.0937561 29.4961,16.0937561 M29.4961,19.0205854 L26.4961,19.0205854 C25.9431,19.0205854 25.4961,18.5844878 25.4961,18.0449756 C25.4961,17.5054634 25.9431,17.0693659 26.4961,17.0693659 L29.4961,17.0693659 C30.0491,17.0693659 30.4961,17.5054634 30.4961,18.0449756 C30.4961,18.5844878 30.0491,19.0205854 29.4961,19.0205854 M29.4961,21.9474146 L26.4961,21.9474146 C25.9431,21.9474146 25.4961,21.5113171 25.4961,20.9718049 C25.4961,20.4322927 25.9431,19.9961951 26.4961,19.9961951 L29.4961,19.9961951 C30.0491,19.9961951 30.4961,20.4322927 30.4961,20.9718049 C30.4961,21.5113171 30.0491,21.9474146 29.4961,21.9474146 M23.2061,25.5659512 C23.0161,25.741561 22.7561,25.8498537 22.4961,25.8498537 C22.2361,25.8498537 21.9751,25.741561 21.7861,25.5659512 C21.6051,25.381561 21.4961,25.1279024 21.4961,24.8742439 C21.4961,24.6205854 21.6051,24.3669268 21.7861,24.1805854 C22.1561,23.8205854 22.8361,23.8205854 23.2061,24.1903415 C23.3861,24.3669268 23.4961,24.6205854 23.4961,24.8742439 C23.4961,25.1279024 23.3861,25.381561 23.2061,25.5659512 M20.2061,25.5659512 C20.0161,25.741561 19.7561,25.8498537 19.4961,25.8498537 C19.2361,25.8498537 18.9751,25.741561 18.7861,25.5659512 C18.6051,25.381561 18.4961,25.1279024 18.4961,24.8742439 C18.4961,24.6205854 18.6051,24.3669268 18.7861,24.1805854 C19.1661,23.8205854 19.8361,23.8205854 20.2061,24.1805854 C20.3861,24.3669268 20.4961,24.6205854 20.4961,24.8742439 C20.4961,25.1279024 20.3861,25.381561 20.2061,25.5659512 M17.2061,25.5659512 C17.0161,25.741561 16.7561,25.8498537 16.4961,25.8498537 C16.2361,25.8498537 15.9751,25.741561 15.7861,25.5659512 C15.6051,25.381561 15.4961,25.1279024 15.4961,24.8742439 C15.4961,24.6205854 15.6051,24.3669268 15.7861,24.1805854 C16.1661,23.8205854 16.8361,23.8205854 17.2061,24.1805854 C17.3861,24.3669268 17.4961,24.6205854 17.4961,24.8742439 C17.4961,25.1279024 17.3861,25.381561 17.2061,25.5659512" id="Fill-7"/>
    </g>
  </g>
  <g fill="none" fill-rule="evenodd" id="deskphone-white" stroke="none" stroke-width="1">
    <g fill="#ffffff" id="header-deskphone-solid" transform="translate(0.257812, 0.960938)">
      <path d="M19.9961951,0.968 C9.5035122,0.968 0.967902439,9.50360976 0.967902439,19.9962927 C0.967902439,30.4889756 9.5035122,39.0245854 19.9961951,39.0245854 C30.488878,39.0245854 39.0244878,30.4889756 39.0244878,19.9962927 C39.0244878,9.50360976 30.488878,0.968 19.9961951,0.968 M19.9961951,39.9923902 C8.96985366,39.9923902 9.75609756e-05,31.0226341 9.75609756e-05,19.9962927 C9.75609756e-05,8.96995122 8.96985366,0.000195121951 19.9961951,0.000195121951 C31.0225366,0.000195121951 39.9922927,8.96995122 39.9922927,19.9962927 C39.9922927,31.0226341 31.0225366,39.9923902 19.9961951,39.9923902" id="Fill-1"/>
      <path d="M28.4194146,15.1181463 L25.4925854,15.1181463 C24.9530732,15.1181463 24.5169756,14.6810732 24.5169756,14.1425366 C24.5169756,13.604 24.9530732,13.1669268 25.4925854,13.1669268 L28.4194146,13.1669268 C28.9589268,13.1669268 29.3950244,13.604 29.3950244,14.1425366 C29.3950244,14.6810732 28.9589268,15.1181463 28.4194146,15.1181463 L28.4194146,15.1181463 Z M28.4194146,18.0449756 L25.4925854,18.0449756 C24.9530732,18.0449756 24.5169756,17.6079024 24.5169756,17.0693659 C24.5169756,16.5308293 24.9530732,16.0937561 25.4925854,16.0937561 L28.4194146,16.0937561 C28.9589268,16.0937561 29.3950244,16.5308293 29.3950244,17.0693659 C29.3950244,17.6079024 28.9589268,18.0449756 28.4194146,18.0449756 L28.4194146,18.0449756 Z M28.4194146,20.9718049 L25.4925854,20.9718049 C24.9530732,20.9718049 24.5169756,20.5347317 24.5169756,19.9961951 C24.5169756,19.4576585 24.9530732,19.0205854 25.4925854,19.0205854 L28.4194146,19.0205854 C28.9589268,19.0205854 29.3950244,19.4576585 29.3950244,19.9961951 C29.3950244,20.5347317 28.9589268,20.9718049 28.4194146,20.9718049 L28.4194146,20.9718049 Z M14.760878,20.9718049 L22.5657561,20.9718049 L22.5657561,13.1669268 L14.760878,13.1669268 L14.760878,20.9718049 Z M22.2828293,24.5913171 C22.0974634,24.7669268 21.8438049,24.8742439 21.5901463,24.8742439 C21.3364878,24.8742439 21.0818537,24.7669268 20.8974634,24.5913171 C20.720878,24.4069268 20.6145366,24.1522927 20.6145366,23.8986341 C20.6145366,23.644 20.720878,23.3903415 20.8974634,23.2059512 C21.258439,22.8449756 21.9218537,22.8449756 22.2828293,23.2157073 C22.458439,23.3903415 22.5657561,23.644 22.5657561,23.8986341 C22.5657561,24.1522927 22.458439,24.4069268 22.2828293,24.5913171 L22.2828293,24.5913171 Z M19.356,24.5913171 C19.1706341,24.7669268 18.9169756,24.8742439 18.6633171,24.8742439 C18.4096585,24.8742439 18.1550244,24.7669268 17.9706341,24.5913171 C17.7940488,24.4069268 17.6877073,24.1522927 17.6877073,23.8986341 C17.6877073,23.644 17.7940488,23.3903415 17.9706341,23.2059512 C18.3413659,22.8449756 18.9950244,22.8449756 19.356,23.2059512 C19.5316098,23.3903415 19.6389268,23.644 19.6389268,23.8986341 C19.6389268,24.1522927 19.5316098,24.4069268 19.356,24.5913171 L19.356,24.5913171 Z M16.4291707,24.5913171 C16.2438049,24.7669268 15.9901463,24.8742439 15.7364878,24.8742439 C15.4828293,24.8742439 15.2281951,24.7669268 15.0438049,24.5913171 C14.8672195,24.4069268 14.760878,24.1522927 14.760878,23.8986341 C14.760878,23.644 14.8672195,23.3903415 15.0438049,23.2059512 C15.4145366,22.8449756 16.0681951,22.8449756 16.4291707,23.2059512 C16.6047805,23.3903415 16.7120976,23.644 16.7120976,23.8986341 C16.7120976,24.1522927 16.6047805,24.4069268 16.4291707,24.5913171 L16.4291707,24.5913171 Z M30.3706341,11.2157073 L13.7852683,11.2157073 C13.2467317,11.2157073 12.8096585,11.6527805 12.8096585,12.1913171 L12.8096585,27.8010732 C12.8096585,28.3396098 13.2467317,28.7766829 13.7852683,28.7766829 L30.3706341,28.7766829 C30.9091707,28.7766829 31.3462439,28.3396098 31.3462439,27.8010732 L31.3462439,12.1913171 C31.3462439,11.6527805 30.9091707,11.2157073 30.3706341,11.2157073 L30.3706341,11.2157073 Z" id="Fill-4"/>
      <path d="M7.93160976,14.1425366 L7.93160976,25.8498537 C7.93160976,27.4586341 9.24868293,28.7766829 10.858439,28.7766829 L10.858439,11.2157073 C9.24868293,11.2157073 7.93160976,12.5337561 7.93160976,14.1425366" id="Fill-6"/>
    </g>
  </g>
</svg>