<svg width="12" height="12" viewBox="0 0 12 12" fill="none" xmlns="http://www.w3.org/2000/svg">
<path fill-rule="evenodd" clip-rule="evenodd" d="M10.5 1H8.5C8.225 1 8 1.225 8 1.5C8 1.775 8.225 2 8.5 2H10.5C10.776 2 11 2.224 11 2.5V3.5V3.641V4.5C11 4.775 11.225 5 11.5 5C11.775 5 12 4.775 12 4.5V2.5C12 1.672 11.328 1 10.5 1ZM3.5 1H1.5C0.672 1 0 1.672 0 2.5V4.5C0 4.775 0.225 5 0.5 5C0.775 5 1 4.775 1 4.5V2.5C1 2.224 1.224 2 1.5 2H3.5C3.775 2 4 1.775 4 1.5C4 1.225 3.775 1 3.5 1ZM11.5 7C11.225 7 11 7.225 11 7.5V9.5C11 9.776 10.776 10 10.5 10H8.5C8.225 10 8 10.225 8 10.5C8 10.775 8.225 11 8.5 11H10.5C11.328 11 12 10.328 12 9.5V7.5C12 7.225 11.775 7 11.5 7ZM3.5 10H1.5C1.224 10 1 9.776 1 9.5V7.5C1 7.225 0.775 7 0.5 7C0.225 7 0 7.225 0 7.5V9.5C0 10.328 0.672 11 1.5 11H3.5C3.775 11 4 10.775 4 10.5C4 10.225 3.775 10 3.5 10Z"/>
</svg>
