<svg width="16" height="16" viewBox="0 0 16 16" fill="none" xmlns="http://www.w3.org/2000/svg">
<path id="generic-device_16" fill-rule="evenodd" clip-rule="evenodd" d="M13.7778 0H2.22222C1 0 0 1 0 2.22222V12.7778C0 14 1 15 2.22222 15H13.7778C15 15 16 14 16 12.7778V2.22222C16 1 15 0 13.7778 0ZM13.5 1H2.5C1.673 1 1 1.673 1 2.5V10H15V2.5C15 1.673 14.327 1 13.5 1ZM2.5 14H13.5C14.327 14 15 13.327 15 12.5V11H1V12.5C1 13.327 1.673 14 2.5 14ZM7.5 2C7.22386 2 7 2.22386 7 2.5C7 2.77614 7.22386 3 7.5 3H8.5C8.77614 3 9 2.77614 9 2.5C9 2.22386 8.77614 2 8.5 2H7.5Z" fill="white"/>
</svg>
