<?xml version="1.0" encoding="utf-8"?>
<!-- Generator: Adobe Illustrator 16.0.3, SVG Export Plug-In . SVG Version: 6.00 Build 0)  -->
<!DOCTYPE svg PUBLIC "-//W3C//DTD SVG 1.1//EN" "http://www.w3.org/Graphics/SVG/1.1/DTD/svg11.dtd">
<svg version="1.1" id="Layer_1" xmlns="http://www.w3.org/2000/svg" xmlns:xlink="http://www.w3.org/1999/xlink" x="0px" y="0px"
	 width="31.502px" height="27.413px" viewBox="0 0 31.502 27.413" enable-background="new 0 0 31.502 27.413" xml:space="preserve">
<g id="google_drive_logo">
	<polygon id="Shape" fill="#4285F4" points="5.019,18.506 5.019,27.414 26.502,27.414 31.52,18.506 	"/>
	
		<linearGradient id="Shape_6_" gradientUnits="userSpaceOnUse" x1="-500.9697" y1="-82.7041" x2="-500.9137" y2="-82.6689" gradientTransform="matrix(137.9461 0 0 119.0454 69114.3984 9868.4619)">
		<stop  offset="0" style="stop-color:#1A237E;stop-opacity:0.2"/>
		<stop  offset="1" style="stop-color:#1A237E;stop-opacity:0.02"/>
	</linearGradient>
	<polygon id="Shape_1_" fill="url(#Shape_6_)" points="10.181,18.506 15.344,27.414 5.019,27.414 	"/>
	<polygon id="Shape_4_" fill="#1A237E" fill-opacity="0.05" points="10.281,18.676 10.181,18.506 5.019,27.414 5.216,27.414 	"/>
	<polygon id="Shape_3_" fill="#1A237E" fill-opacity="0.2" points="31.229,18.676 26.402,27.246 5.119,27.246 5.019,27.414 
		26.502,27.414 31.52,18.506 	"/>
	<polygon id="Shape_2_" fill="#FFFFFF" fill-opacity="0.2" points="10.081,18.676 31.229,18.676 31.229,18.676 31.52,18.506 
		10.181,18.506 10.181,18.506 	"/>
	<polygon id="Shape_5_" fill="#0F9D58" points="10.618,0 0,18.506 5.02,27.414 17.127,6.512 	"/>
	<polygon fill="#263238" fill-opacity="0.1" points="10.618,0 10.712,0.505 15.562,8.876 5.021,27.07 0.197,18.506 0,18.506 
		5.02,27.414 15.761,8.876 	"/>
	<polygon fill="#FFFFFF" fill-opacity="0.2" points="0.197,18.506 10.716,0.172 10.618,0 10.618,0 0,18.506 	"/>
	<polygon id="Shape_7_" fill="#FFCD40" points="20.904,0 10.618,0 21.34,18.506 31.52,18.506 	"/>
	<polygon id="Shape_8_" fill="#FFFFFF" fill-opacity="0.2" points="20.904,0 10.618,0 10.914,0.172 20.803,0.172 31.324,18.506 
		31.52,18.506 	"/>
	<polygon id="Shape_9_" fill="#BF360C" fill-opacity="0.1" points="21.438,18.334 10.914,0.172 10.914,0.172 10.618,0 21.34,18.506 
			"/>
</g>
</svg>
