<svg width="13" height="12" viewBox="0 0 13 12" xmlns="http://www.w3.org/2000/svg">
<path id="grid-layout_12" d="M4.22936 3.66599C4.22936 3.85099 4.07792 3.99999 3.8909 3.99999H2.53503C2.34801 3.99999 2.19657 3.85099 2.19657 3.66599V2.33399C2.19657 2.14899 2.34801 1.99999 2.53503 1.99999H3.8909C4.07792 1.99999 4.22936 2.14899 4.22936 2.33399V3.66599ZM3.8909 1H2.53503C1.78798 1 1.18018 1.598 1.18018 2.334V3.666C1.18018 4.402 1.78798 5 2.53503 5H3.8909C4.63795 5 5.24576 4.402 5.24576 3.666V2.334C5.24576 1.598 4.63795 1 3.8909 1ZM10.3284 3.66599C10.3284 3.85099 10.176 3.99999 9.98995 3.99999H8.63408C8.44706 3.99999 8.29562 3.85099 8.29562 3.66599V2.33399C8.29562 2.14899 8.44706 1.99999 8.63408 1.99999H9.98995C10.176 1.99999 10.3284 2.14899 10.3284 2.33399V3.66599ZM9.98995 1H8.63408C7.88703 1 7.27922 1.598 7.27922 2.334V3.666C7.27922 4.402 7.88703 5 8.63408 5H9.98995C10.737 5 11.3448 4.402 11.3448 3.666V2.334C11.3448 1.598 10.737 1 9.98995 1ZM4.22936 9.6699C4.22936 9.8549 4.07792 10.0039 3.8909 10.0039H2.53503C2.34801 10.0039 2.19657 9.8549 2.19657 9.6699V8.3369C2.19657 8.1529 2.34801 8.0039 2.53503 8.0039H3.8909C4.07792 8.0039 4.22936 8.1529 4.22936 8.3369V9.6699ZM3.8909 7.0039H2.53503C1.78798 7.0039 1.18018 7.6019 1.18018 8.3369V9.6699C1.18018 10.4059 1.78798 11.0039 2.53503 11.0039H3.8909C4.63795 11.0039 5.24576 10.4059 5.24576 9.6699V8.3369C5.24576 7.6019 4.63795 7.0039 3.8909 7.0039ZM10.3284 9.6699C10.3284 9.8549 10.176 10.0039 9.98995 10.0039H8.63408C8.44706 10.0039 8.29562 9.8549 8.29562 9.6699V8.3369C8.29562 8.1529 8.44706 8.0039 8.63408 8.0039H9.98995C10.176 8.0039 10.3284 8.1529 10.3284 8.3369V9.6699ZM9.98995 7.0039H8.63408C7.88703 7.0039 7.27922 7.6019 7.27922 8.3369V9.6699C7.27922 10.4059 7.88703 11.0039 8.63408 11.0039H9.98995C10.737 11.0039 11.3448 10.4059 11.3448 9.6699V8.3369C11.3448 7.6019 10.737 7.0039 9.98995 7.0039Z" />
</svg>
