<?xml version="1.0" standalone="no"?>
<!DOCTYPE svg PUBLIC "-//W3C//DTD SVG 1.1//EN" "http://www.w3.org/Graphics/SVG/1.1/DTD/svg11.dtd" >
<svg xmlns="http://www.w3.org/2000/svg" id="handset_24">
<path unicode="&#xe984;" transform="scale(1,-1)" id="handset_24" data-tags="handset_24" d="M143.317 874.667c-18.091 0-34.773-8.192-45.909-22.443-10.88-14.037-14.677-31.829-10.325-48.939 38.613-151.936 148.267-326.656 300.885-479.275 152.661-152.619 327.339-262.315 479.317-300.928 16.896-4.224 34.859-0.555 48.896 10.325 14.251 11.136 22.485 27.861 22.485 45.909v103.381c0 33.621-19.968 63.915-50.901 77.269l-90.752 38.997c-29.867 12.885-63.872 11.861-92.971-2.688l-51.712-25.856c-25.941-12.843-57.216-9.472-79.787 8.747-88.576 71.040-172.544 154.496-230.528 228.992-17.621 22.699-20.779 53.76-8.064 79.189l26.325 52.651c14.592 29.184 15.573 63.061 2.688 93.013l-39.040 90.837c-13.312 30.848-43.605 50.816-77.227 50.816h-103.381zM881.365-21.333c-8.192 0-16.427 0.981-24.576 3.072-159.232 40.448-341.077 154.24-498.987 312.107-157.867 157.867-271.616 339.755-312.064 498.944-7.637 29.909-1.067 61.141 18.005 85.632 19.243 24.704 48.256 38.912 79.573 38.912h103.381c50.645 0 96.384-30.080 116.395-76.629l39.040-90.88c17.877-41.472 16.555-88.491-3.712-128.896l-26.325-52.693c-5.504-10.965-4.096-23.936 3.584-33.92 56.021-71.936 137.515-152.832 223.573-221.909 9.643-7.723 22.955-9.259 34.005-3.84l51.669 25.899c40.448 20.139 87.424 21.547 128.939 3.755v-0.043l90.795-39.040c46.592-20.053 76.672-65.749 76.672-116.437v-103.381c0-31.317-14.208-60.331-38.912-79.573-17.835-13.824-39.211-21.077-61.056-21.077v0z" />
</svg>
