<?xml version="1.0" standalone="no"?>
<!DOCTYPE svg PUBLIC "-//W3C//DTD SVG 1.1//EN" "http://www.w3.org/Graphics/SVG/1.1/DTD/svg11.dtd" >
<svg xmlns="http://www.w3.org/2000/svg" id="handset-active_24">
<path unicode="&#xe980;" transform="scale(1,-1)" id="handset-active_24" data-tags="handset-active_24" d="M881.399-21.333c-8.149 0-16.427 0.981-24.576 3.072-159.232 40.491-341.077 154.24-498.987 312.107-157.867 157.867-271.616 339.755-312.064 498.944-7.637 29.909-1.024 61.141 18.005 85.632 19.243 24.704 48.256 38.912 79.573 38.912h103.381c50.645 0 96.384-30.080 116.437-76.629l39.040-90.88c17.835-41.472 16.512-88.491-3.712-128.896l-26.368-52.693c-5.461-10.965-4.096-23.936 3.584-33.92 56.021-71.936 137.515-152.832 223.573-221.909 9.643-7.723 22.955-9.259 34.048-3.84l51.627 25.899c40.448 20.139 87.424 21.547 128.939 3.755v-0.043l90.795-39.040c46.592-20.053 76.672-65.749 76.672-116.437v-103.381c0-31.317-14.208-60.331-38.912-79.573-17.835-13.824-39.211-21.077-61.056-21.077z" />
</svg>
