<svg width="18" height="18" viewBox="0 0 18 18" fill="none" xmlns="http://www.w3.org/2000/svg"><title>handset_18</title>
<path id="handset_18" d="M2.00519 1C1.69219 1 1.40219 1.142 1.20919 1.39C1.02119 1.632 0.956188 1.94 1.03119 2.235C1.75919 5.103 3.83019 8.401 6.71519 11.285C9.59919 14.169 12.8972 16.241 15.7642 16.969C16.0592 17.043 16.3682 16.979 16.6102 16.79C16.8582 16.598 17.0002 16.308 17.0002 15.995V14.033C17.0002 13.433 16.6442 12.893 16.0932 12.656L14.3702 11.915C13.8282 11.681 13.2142 11.699 12.6862 11.963L11.7052 12.454C11.1822 12.714 10.5482 12.645 10.0892 12.278C8.40319 10.924 6.80319 9.335 5.70019 7.917C5.34319 7.458 5.27919 6.829 5.53719 6.313L6.03619 5.314C6.30019 4.786 6.31819 4.172 6.08519 3.63L5.34419 1.907C5.10719 1.356 4.56619 1 3.96719 1H2.00519ZM16.0092 18C15.8452 18 15.6812 17.979 15.5182 17.938C12.4812 17.167 9.01519 15 6.00819 11.992C3.00019 8.985 0.833188 5.518 0.0611877 2.481C-0.0898123 1.885 0.0411877 1.263 0.420188 0.775C0.803188 0.283 1.38119 0 2.00519 0H3.96719C4.96619 0 5.86819 0.593 6.26319 1.512L7.00419 3.235C7.35319 4.049 7.32719 4.969 6.93119 5.761L6.43119 6.761C6.34319 6.936 6.36619 7.144 6.48919 7.303C7.53119 8.642 9.11119 10.21 10.7152 11.498C10.8702 11.623 11.0832 11.646 11.2582 11.56L12.2392 11.069C13.0312 10.673 13.9522 10.647 14.7652 10.996L16.4882 11.737C17.4062 12.132 18.0002 13.033 18.0002 14.033V15.995C18.0002 16.619 17.7172 17.196 17.2242 17.58C16.8702 17.855 16.4442 18 16.0092 18Z"/>
</svg>
