<?xml version="1.0" standalone="no"?>
<!DOCTYPE svg PUBLIC "-//W3C//DTD SVG 1.1//EN" "http://www.w3.org/Graphics/SVG/1.1/DTD/svg11.dtd" >
<svg xmlns="http://www.w3.org/2000/svg" id="handset_20">
<path unicode="&#xe983;" transform="scale(1,-1)" id="handset_20" data-tags="handset_20" d="M111.523 908.803c-18.739 0-36.044-8.448-47.513-23.244-11.622-15.001-15.565-34.2-10.854-52.682 42.137-164.19 160.869-353.006 325.782-517.964 164.862-164.856 353.686-283.634 517.934-325.718 18.432-4.659 37.632-0.819 52.684 10.854 14.745 11.468 23.245 28.824 23.245 47.511v112.225c0 35.531-21.094 67.581-53.759 81.66l-98.559 42.391c-31.846 13.619-67.942 12.697-98.969-2.918l-56.166-28.056c-28.723-14.438-63.539-10.854-88.319 9.011-96.767 77.564-188.516 168.593-251.645 249.844-19.712 25.343-23.245 60.157-9.011 88.623l28.62 57.188c15.462 30.974 16.537 66.966 2.816 98.862l-42.393 98.657c-14.029 32.664-46.080 53.757-81.663 53.757h-112.229zM912.436-64c-9.421 0-18.893 1.178-28.262 3.584-172.901 44.388-370.274 167.979-541.434 339.132-171.262 171.255-294.858 368.622-339.145 541.464-8.704 33.944-1.434 69.168 19.968 96.763 21.197 27.339 53.299 43.057 87.961 43.057h112.229c56.063 0 106.546-33.227 128.664-84.732l42.393-98.657c19.712-45.771 18.227-97.48-4.045-141.971l-28.569-57.239c-5.581-11.059-4.198-24.216 3.584-34.302 59.955-76.95 150.885-167.211 243.3-241.242 9.216-7.526 22.323-8.652 33.382-3.174l56.166 28.056c44.492 22.322 96.255 23.807 142.027 4.096l98.61-42.391c51.507-22.117 84.735-72.598 84.735-128.659v-112.225c0-34.661-15.667-66.71-43.059-87.957-19.917-15.513-43.929-23.602-68.505-23.602v0z" />
</svg>
