<svg width="14" height="14" viewBox="0 0 14 14" fill="none" xmlns="http://www.w3.org/2000/svg">
<path id="help_circle_14" fill-rule="evenodd" clip-rule="evenodd" d="M6.997 1C3.69 1 0.999 3.69 0.999 6.998C0.999 10.305 3.69 12.996 6.997 12.996C10.304 12.996 12.995 10.305 12.995 6.998C12.995 3.69 10.304 1 6.997 1ZM6.997 13.995C3.139 13.995 0 10.856 0 6.998C0 3.14 3.139 0 6.997 0C10.855 0 13.994 3.14 13.994 6.998C13.994 10.856 10.855 13.995 6.997 13.995ZM6.9872 9.3457C6.7152 9.3457 6.4922 9.1277 6.4872 8.8547C6.4872 8.7937 6.4872 8.2407 6.8242 7.7547C7.1172 7.3327 7.4452 7.0497 7.7362 6.7997C8.2032 6.3977 8.4862 6.1537 8.4892 5.5067C8.4912 5.1277 8.3372 4.7617 8.0542 4.4777C7.7632 4.1857 7.3822 4.0247 6.9792 4.0247C6.1692 4.0247 5.4842 4.7187 5.4832 5.5397C5.4832 5.8157 5.2592 6.0387 4.9842 6.0387H4.9832C4.7072 6.0387 4.4842 5.8157 4.4842 5.5387C4.4862 4.1767 5.6282 3.0257 6.9792 3.0257C7.6502 3.0257 8.2822 3.2907 8.7622 3.7727C9.2342 4.2467 9.4922 4.8647 9.4892 5.5117C9.4832 6.6147 8.9012 7.1157 8.3882 7.5567L8.38355 7.56071L8.38355 7.56072C8.12799 7.78147 7.86387 8.00961 7.6452 8.3247C7.4912 8.5457 7.4872 8.8337 7.4872 8.8367C7.4912 9.1127 7.2722 9.3407 6.9962 9.3457H6.9872ZM6.8711 11.0036C6.9111 11.0136 6.9521 11.0186 6.9921 11.0186C7.2161 11.0186 7.4191 10.8676 7.4751 10.6406C7.5431 10.3726 7.3791 10.1016 7.1111 10.0346C6.8441 9.9656 6.5721 10.1296 6.5061 10.3976C6.4381 10.6646 6.6011 10.9356 6.8691 11.0026L6.8711 11.0036Z"/>
</svg>
