<?xml version="1.0" standalone="no"?>
<!DOCTYPE svg PUBLIC "-//W3C//DTD SVG 1.1//EN" "http://www.w3.org/Graphics/SVG/1.1/DTD/svg11.dtd" >
<svg xmlns="http://www.w3.org/2000/svg" id="help_16">
<path unicode="&#xe98a;" transform="scale(1,-1)" id="help_16" data-tags="help_16" d="M544 896c-265.088 0-480-214.912-480-480s214.912-480 480-480c265.088 0 480 214.912 480 480s-214.912 480-480 480zM544 0c-229.376 0-416 186.624-416 416s186.624 416 416 416c229.376 0 416-186.624 416-416s-186.624-416-416-416zM520.934 182.406c-5.76-5.76-9.6-14.080-9.6-22.4 0-4.48 1.28-8.32 2.56-12.16 1.92-3.84 3.84-7.68 7.040-10.24 5.76-6.4 14.080-9.6 22.4-9.6s16.64 3.2 23.040 9.6c2.56 2.56 5.12 6.4 7.040 10.24 1.28 3.84 1.92 8.32 1.92 12.16 0 8.32-3.2 16.64-8.96 22.4-12.16 12.16-33.92 12.16-45.44 0zM576.877 700.685c-48.128 9.6-96.96-2.304-134.208-32.832s-58.688-75.712-58.688-123.84c0-17.728 14.336-32 32-32 17.728 0 32 14.272 32 32 0 28.864 12.864 56 35.264 74.304 22.72 18.624 51.264 25.472 81.024 19.648 35.52-7.168 65.664-36.736 73.344-72.064 6.656-30.528-0.896-61.312-19.264-82.752l-60.224-61.056c-29.76-30.080-46.144-70.016-46.144-112.384v-21.696c0-17.728 14.336-32 32-32 17.728 0 32 14.272 32 32v21.696c0 25.408 9.856 49.408 27.712 67.456l61.76 62.656c32.96 38.464 45.632 89.408 34.688 139.648-13.056 60.352-62.656 109.056-123.264 121.216z" />
</svg>
