<svg width="14" height="12" viewBox="0 0 14 12" fill="none" xmlns="http://www.w3.org/2000/svg">
<rect x="-0.5" y="0.5" width="13" height="11" rx="1.5" transform="matrix(-1 0 0 1 13 0)" stroke="black"/>
<rect width="1" height="10" transform="matrix(-1 0 0 1 10 1)" fill="black"/>
<path fill-rule="evenodd" clip-rule="evenodd" d="M6.146 8.35325C5.951 8.15825 5.951 7.84125 6.146 7.64625L7.292 6.49925H2.5C2.223 6.49925 2 6.27625 2 5.99925C2 5.72325 2.223 5.49925 2.5 5.49925H7.292L6.146 4.35325C5.951 4.15825 5.951 3.84125 6.146 3.64625C6.341 3.45125 6.658 3.45125 6.853 3.64625L8.853 5.64625C8.947 5.74025 9 5.86725 9 5.99925C9 6.13225 8.947 6.25925 8.853 6.35325L6.853 8.35325C6.658 8.54825 6.341 8.54825 6.146 8.35325Z" fill="#121212"/>
</svg>

