<?xml version="1.0" encoding="UTF-8"?>
<svg width="222px" height="126px" viewBox="0 0 222 126" version="1.1" xmlns="http://www.w3.org/2000/svg" xmlns:xlink="http://www.w3.org/1999/xlink">
    <title>svg/highlights</title>
    <g id="Final" stroke="none" stroke-width="1" fill="none" fill-rule="evenodd">
        <g id="No-Highlights" transform="translate(-77.000000, -58.000000)">
            <g id="Group-4" transform="translate(77.000000, 58.080556)">
                <g id="Group-3" transform="translate(1.000000, 10.000000)">
                    <path d="M87.3919343,63.2507587 C87.0129201,63.2507587 86.6382375,63.2718578 86.2686084,63.3098362 C85.6715708,54.7154665 78.345407,47.9194441 69.3717949,47.9194441 C61.7481952,47.9194441 55.3020662,52.8207667 53.1680358,59.565448 C52.9507344,59.5541951 52.7363206,59.533096 52.5154095,59.533096 C45.6036346,59.533096 40,64.9921384 40,71.7262701 C40,78.0820245 44.9936022,83.2963171 51.3660941,83.8624765 L51.3660941,83.8645864 L51.4122977,83.8645864 C51.7761514,83.8962351 52.1436146,83.9194441 52.5154095,83.9194441 C52.8886482,83.9194441 53.2553896,83.8962351 53.6199651,83.8645864 L86.3018173,83.8645864 C86.6598954,83.9004549 87.0237491,83.9194441 87.3919343,83.9194441 C93.2504108,83.9194441 98,79.2924099 98,73.5851014 C98,67.8777929 93.2504108,63.2507587 87.3919343,63.2507587" id="Fill-1" fill="#BCECF8" transform="translate(69.000000, 65.919444) scale(-1, 1) translate(-69.000000, -65.919444) "></path>
                    <g id="Group-2" transform="translate(0.000000, 50.983840)" stroke-linecap="round" stroke-linejoin="round">
                        <path d="M16.5077304,53.5653405 L30.8406171,46.8147429 C31.9345762,46.2995028 33.2028999,46.3067968 34.2908608,46.8345847 L47,53 L47,53" id="Path-20" stroke="#71DAF2"></path>
                        <path d="M179,52.9356037 L193.366334,43.9765838 C194.697208,43.1466349 196.390333,43.1710878 197.696684,44.0391247 L212.033145,53.5653405 L212.033145,53.5653405" id="Path-20" stroke="#71DAF2"></path>
                        <path d="M39,53 L54.9876809,39.1323116 C55.6162689,38.5870754 56.5167776,38.4880051 57.248866,38.8835451 L64.2375636,42.6594684 C67.4539721,44.3972617 71.4392341,43.733581 73.918869,41.0472042 L110.502921,1.41292179 C111.231354,0.623754835 112.453023,0.55077135 113.270231,1.24760049 L136.679113,21.208243 C138.561102,22.813006 141.079529,23.4570537 143.500866,22.9527979 L152.236659,21.1335242 C153.519585,20.8663481 154.85202,21.2445275 155.803302,22.14583 L188.368421,53 L188.368421,53" id="Path-17" stroke="#00B3E6" fill="#FFFFFF"></path>
                        <line x1="220" y1="53.5911935" x2="1.51904422e-06" y2="53.5653405" id="Line-4" stroke="#00B3E6"></line>
                    </g>
                    <path d="M182.049888,77.033853 C181.801568,77.033853 181.556087,77.0477726 181.313916,77.0728278 C180.922753,71.4029311 176.122853,66.9194441 170.24359,66.9194441 C165.248818,66.9194441 161.025492,70.1529556 159.627334,74.6025717 C159.484964,74.5951479 159.344486,74.5812284 159.199751,74.5812284 C154.671347,74.5812284 151,78.1826799 151,82.6253362 C151,86.8183686 154.27167,90.2583534 158.446751,90.6318613 L158.446751,90.6332533 L158.477023,90.6332533 C158.71541,90.6541326 158.956161,90.6694441 159.199751,90.6694441 C159.444287,90.6694441 159.684566,90.6541326 159.923425,90.6332533 L181.335673,90.6332533 C181.570276,90.6569165 181.808663,90.6694441 182.049888,90.6694441 C185.8882,90.6694441 189,87.6168868 189,83.8516486 C189,80.0864103 185.8882,77.033853 182.049888,77.033853" id="Fill-1" fill="#71DAF2"></path>
                    <g id="Group" transform="translate(120.447368, 23.223404) rotate(3.000000) translate(-120.447368, -23.223404) translate(91.947368, 2.000000)" stroke-linejoin="round">
                        <polygon id="Path" stroke="#FFA900" stroke-width="0.5" fill="#FFA900" stroke-linecap="square" transform="translate(42.127660, 28.384658) rotate(28.000000) translate(-42.127660, -28.384658) " points="45.3820213 25.0267584 52.6595745 26.0644102 47.393617 31.1017756 48.636383 38.2144447 42.1276596 34.8555121 35.6189362 38.2144447 36.8617021 31.1017756 31.5957447 26.0644102 38.8732979 25.0267584 42.1276596 18.5548703"></polygon>
                        <path d="M-3.96392139e-13,1.00167878 L5.40677712,4.38091448 M8.86121553,6.53993849 L29.7701532,19.6080245" id="Shape" stroke="#FFD492" stroke-linecap="round"></path>
                        <path d="M2.10638298,15.7463596 L18.8175535,26.1908412 M21.9893165,28.1731931 L28.3041178,32.1199439" id="Shape" stroke="#FFD492" stroke-linecap="round"></path>
                        <line x1="16.8454124" y1="17.5859126" x2="19.8785859" y2="19.481646" id="Path" stroke="#FFD492" stroke-linecap="round"></line>
                        <line x1="8.92922884" y1="1.25488272e-13" x2="11.5021656" y2="1.6080855" id="Path" stroke="#FFD492" stroke-linecap="round"></line>
                        <path d="M18.9574468,0.299551122 L22.8546126,2.73527977 M25.5945608,4.44774736 L38.6230461,12.5905507 M42.0036324,14.7034171 L45.1551816,16.6731354" id="Shape" stroke="#FFD492" stroke-linecap="round"></path>
                    </g>
                    <line x1="90" y1="53.9194441" x2="91.0782895" y2="53.9194441" id="Line-7" stroke="#00B3E6" stroke-linecap="round"></line>
                    <line x1="82" y1="27.9194441" x2="83.0782895" y2="27.9194441" id="Line-7-Copy-2" stroke="#00B3E6" stroke-linecap="round"></line>
                    <line x1="179" y1="38.9194441" x2="180.078289" y2="38.9194441" id="Line-7" stroke="#00B3E6" stroke-linecap="round"></line>
                    <line x1="156" y1="53.9194441" x2="157.078289" y2="53.9194441" id="Line-7-Copy-3" stroke="#00B3E6" stroke-linecap="round"></line>
                    <line x1="188" y1="53.9194441" x2="189.078289" y2="53.9194441" id="Line-7-Copy-3" stroke="#00B3E6" stroke-linecap="round"></line>
                    <line x1="147" y1="2.91944411" x2="148.078289" y2="2.91944411" id="Line-7-Copy-5" stroke="#00B3E6" stroke-linecap="round"></line>
                    <line x1="39" y1="37.9194441" x2="40.0782895" y2="37.9194441" id="Line-7-Copy" stroke="#00B3E6" stroke-linecap="round"></line>
                    <line x1="65" y1="14.9194441" x2="66.0782895" y2="14.9194441" id="Line-7-Copy-2" stroke="#00B3E6" stroke-linecap="round"></line>
                    <line x1="63" y1="34.9194441" x2="64.0782895" y2="34.9194441" id="Line-7" stroke="#00B3E6" stroke-linecap="round"></line>
                </g>
            </g>
        </g>
    </g>
</svg>