<svg width="14" height="11" viewBox="0 0 14 11" xmlns="http://www.w3.org/2000/svg">
<path id="hunt-group_12" fill-rule="evenodd" clip-rule="evenodd" d="M4.0002 7.0953V8.9043L5.8092 8.0003L4.0002 7.0953ZM3.8482 10.0023C3.6992 10.0023 3.5472 9.9613 3.4112 9.8793C3.1532 9.7243 3.0002 9.4533 3.0002 9.1533V6.8463C3.0002 6.5473 3.1532 6.2753 3.4112 6.1213C3.6672 5.9663 3.9772 5.9573 4.2442 6.0993L6.5402 7.2473C6.8282 7.4013 7.0002 7.6873 7.0002 8.0003C7.0002 8.3123 6.8282 8.5983 6.5522 8.7473L4.2322 9.9063C4.1132 9.9693 3.9812 10.0023 3.8482 10.0023ZM7.0088 0C4.5378 0 2.2228 0.534 0.655801 1.466C0.297801 1.679 0.062801 2.039 0.010801 2.455C-0.038199 2.854 0.085801 3.245 0.352801 3.538L1.2948 4.68L1.3298 4.722L1.3678 4.76C1.6538 5.036 2.0568 5.195 2.4758 5.195C2.6678 5.195 2.8568 5.163 3.0358 5.099L3.9018 4.847L3.9528 4.832L4.0028 4.812C4.4788 4.615 4.8648 4.196 5.0458 3.687L5.2458 3.186L5.2578 3.155L5.2678 3.125C5.2678 3.126 5.2678 3.127 5.2688 3.127C5.2738 3.127 5.2918 3.113 5.3178 3.11C5.8638 3.051 6.4458 3.005 6.9958 3C7.5548 3.005 8.1348 3.051 8.6838 3.11C8.7098 3.113 8.7358 3.133 8.7438 3.157L8.7538 3.187L8.7658 3.216L8.9448 3.66C9.1388 4.209 9.5318 4.624 10.0578 4.832L10.1038 4.851L10.1518 4.864L10.9188 5.083C11.1158 5.153 11.3178 5.188 11.5188 5.188C11.9548 5.188 12.3638 5.021 12.6708 4.716L12.7058 4.681L12.7378 4.642L13.6168 3.571C13.9058 3.252 14.0388 2.858 13.9888 2.457C13.9378 2.039 13.7008 1.679 13.3428 1.466C11.7778 0.534 9.4688 0 7.0088 0ZM9.0002 7.0953V8.9043L10.8092 8.0003L9.0002 7.0953ZM8.8482 10.0023C8.6992 10.0023 8.5472 9.9613 8.4112 9.8793C8.1532 9.7243 8.0002 9.4533 8.0002 9.1533V6.8463C8.0002 6.5473 8.1532 6.2753 8.4112 6.1213C8.6672 5.9663 8.9772 5.9573 9.2442 6.0993L11.5402 7.2473C11.8282 7.4013 12.0002 7.6873 12.0002 8.0003C12.0002 8.3123 11.8282 8.5983 11.5522 8.7473L9.2322 9.9063C9.1132 9.9693 8.9812 10.0023 8.8482 10.0023ZM7.0088 1C9.2938 1 11.4168 1.483 12.8318 2.325C12.9568 2.399 12.9888 2.517 12.9968 2.579C13.0108 2.69 12.9738 2.799 12.8628 2.914L11.9658 4.007C11.8488 4.124 11.6928 4.188 11.5188 4.188C11.4268 4.188 11.3288 4.17 11.2308 4.132L10.4258 3.902C10.1718 3.802 9.9778 3.596 9.8808 3.31L9.6938 2.843C9.5628 2.447 9.2088 2.162 8.7908 2.116C8.2138 2.054 7.5978 2.005 7.0118 2H6.9878C6.4028 2.005 5.7858 2.054 5.2078 2.116C4.7908 2.162 4.4378 2.447 4.3178 2.814L4.1088 3.338C4.0228 3.596 3.8278 3.802 3.6218 3.887L2.7218 4.148C2.6418 4.181 2.5568 4.195 2.4758 4.195C2.3168 4.195 2.1648 4.139 2.0668 4.043L1.1048 2.878C1.0268 2.799 0.988801 2.69 1.0028 2.579C1.0108 2.517 1.0428 2.399 1.1678 2.325C2.5828 1.483 4.7058 1 7.0088 1Z"/>
</svg>
