<svg width="14" height="14" viewBox="0 0 14 14" fill="none" xmlns="http://www.w3.org/2000/svg">
<path d="M0.000171565 5.46855C-0.00370768 5.1387 0.0582336 4.81139 0.182372 4.50577C0.306509 4.20014 0.490351 3.92234 0.723141 3.68862C0.95593 3.4549 1.23299 3.26995 1.53812 3.1446C1.84325 3.01924 2.17031 2.95599 2.50017 2.95855C2.75568 2.97084 3.00515 3.04039 3.23017 3.16206C3.45518 3.28372 3.64998 3.45439 3.80017 3.66145L6.00017 1.45185C6.13529 1.30913 6.29809 1.19545 6.47862 1.11776C6.65916 1.04007 6.85363 1 7.05017 1C7.24671 1 7.44119 1.04007 7.62172 1.11776C7.80225 1.19545 7.96505 1.30913 8.10017 1.45185L10.1002 3.46025L10.3002 3.66105C10.4206 3.44858 10.5949 3.27167 10.8057 3.14824C11.0164 3.02481 11.256 2.95924 11.5002 2.95815C11.83 2.95559 12.1571 3.01884 12.4622 3.1442C12.7674 3.26955 13.0444 3.4545 13.2772 3.68822C13.51 3.92194 13.6938 4.19974 13.818 4.50537C13.9421 4.81099 14.0041 5.1383 14.0002 5.46815V10.1882C14.0016 10.5568 13.9302 10.9221 13.7902 11.2632C13.6501 11.6042 13.4441 11.9142 13.184 12.1754C12.9239 12.4367 12.6147 12.644 12.2743 12.7855C11.9338 12.9269 11.5688 12.9998 11.2002 13H2.80017C2.06099 12.9827 1.35705 12.6805 0.835319 12.1566C0.313586 11.6327 0.0143826 10.9275 0.000171565 10.1883V5.46855Z" fill="white"/>
<path fill-rule="evenodd" clip-rule="evenodd" d="M11.5 3.99842C11.3674 3.99842 11.2402 4.0511 11.1464 4.14486C11.0527 4.23863 11 4.36581 11 4.49842C11 4.63103 11.0527 4.7582 11.1464 4.85197C11.2402 4.94574 11.3674 4.99842 11.5 4.99842C11.6325 4.99881 11.7594 5.05162 11.8531 5.1453C11.9468 5.23898 11.9996 5.36593 12 5.49842V10.1584C11.9997 10.3811 11.9111 10.5946 11.7536 10.752C11.5962 10.9095 11.3827 10.9981 11.16 10.9984H2.84C2.61732 10.9981 2.40384 10.9095 2.24638 10.752C2.08892 10.5946 2.00032 10.3811 2 10.1584V5.49842C2.00055 5.36598 2.05341 5.23912 2.14706 5.14547C2.24071 5.05183 2.36756 4.99897 2.5 4.99842C2.63261 4.99842 2.75979 4.94574 2.85355 4.85197C2.94732 4.7582 3 4.63103 3 4.49842C3 4.36581 2.94732 4.23863 2.85355 4.14486C2.75979 4.0511 2.63261 3.99842 2.5 3.99842C2.10274 3.99913 1.72193 4.15712 1.44083 4.43784C1.15974 4.71855 1.00124 5.09916 1 5.49642V10.1604C1.00079 10.648 1.19497 11.1154 1.53992 11.4599C1.88487 11.8045 2.35242 11.9982 2.84 11.9985H11.16C11.6479 11.9983 12.1158 11.8043 12.4608 11.4593C12.8058 11.1143 12.9997 10.6464 13 10.1585V5.49852C12.9994 5.10088 12.8411 4.71971 12.56 4.43852C12.2788 4.15734 11.8976 3.99908 11.5 3.99842ZM5.3555 4.85192L6.4985 3.70692V7.49792C6.4985 7.63053 6.55118 7.7577 6.64495 7.85147C6.73871 7.94524 6.86589 7.99792 6.9985 7.99792C7.13111 7.99792 7.25829 7.94524 7.35205 7.85147C7.44582 7.7577 7.4985 7.63053 7.4985 7.49792V3.70592L8.6455 4.85192C8.7398 4.943 8.8661 4.99339 8.9972 4.99225C9.1283 4.99111 9.25371 4.93853 9.34641 4.84583C9.43911 4.75312 9.4917 4.62772 9.49284 4.49662C9.49398 4.36552 9.44358 4.23922 9.3525 4.14492L7.3525 2.14492C7.25707 2.05438 7.13054 2.00391 6.999 2.00391C6.86746 2.00391 6.74093 2.05438 6.6455 2.14492L4.6475 4.14492C4.55375 4.2388 4.50113 4.36609 4.50122 4.49877C4.50132 4.63145 4.55411 4.75866 4.648 4.85242C4.74189 4.94617 4.86917 4.99879 5.00185 4.9987C5.13454 4.9986 5.26175 4.9458 5.3555 4.85192Z" fill="#0F0F0F"/>
</svg>
