<svg width="14" height="14" viewBox="0 0 14 14" fill="none" xmlns="http://www.w3.org/2000/svg">
<path d="M4 0H10C11.0355 0 12 1.0335 12 2V12C12 12.9665 11.0355 14 10 14H4C2.96447 14 2 12.9665 2 12V2C2 1.0335 2.96447 0 4 0Z" fill="#1C1C1C"/>
<path fill-rule="evenodd" clip-rule="evenodd" d="M4.5 1H9.5C10.3284 1 11 1.67157 11 2.5V11.5C11 12.3284 10.3284 13 9.5 13H4.5C3.67157 13 3 12.3284 3 11.5V2.5C3 1.67157 3.67157 1 4.5 1ZM4.5 2C4.22386 2 4 2.22386 4 2.5V10H10V2.5C10 2.22386 9.77614 2 9.5 2H4.5ZM10 11H4V11.5C4 11.7761 4.22386 12 4.5 12H9.5C9.77614 12 10 11.7761 10 11.5V11Z" fill="#F7F7F7"/>
</svg>
