<svg width="14" height="14" viewBox="0 0 14 14" fill="none" xmlns="http://www.w3.org/2000/svg">
<rect y="3" width="14" height="11" rx="2" fill="white"/>
<rect x="5" y="1" width="4" height="3" rx="1.5" fill="white"/>
<path fill-rule="evenodd" clip-rule="evenodd" d="M11.5 12H2.5C2.224 12 2 11.775 2 11.5V11H12V11.5C12 11.775 11.775 12 11.5 12ZM2.5 5H11.5C11.775 5 12 5.224 12 5.5V10H2V5.5C2 5.224 2.224 5 2.5 5ZM11.5 4H2.5C1.673 4 1 4.673 1 5.5V11.5C1 12.327 1.673 13 2.5 13H11.5C12.327 13 13 12.327 13 11.5V5.5C13 4.673 12.327 4 11.5 4ZM6.5 3H7.5C7.775 3 8 2.775 8 2.5C8 2.225 7.775 2 7.5 2H6.5C6.225 2 6 2.225 6 2.5C6 2.775 6.225 3 6.5 3Z" fill="#121212"/>
</svg>
