<svg width="14" height="14" viewBox="0 0 14 14" fill="none" xmlns="http://www.w3.org/2000/svg">
<rect x="0.75" y="1.87988" width="12.5" height="10.24" rx="3" fill="white"/>
<path d="M10.3751 2.875H3.62506C3.12796 2.87558 2.65139 3.07332 2.29988 3.42482C1.94838 3.77632 1.75065 4.2529 1.75006 4.75V9.25018C1.75064 9.74728 1.94838 10.2239 2.29988 10.5754C2.65138 10.9269 3.12796 11.1246 3.62506 11.1252H10.3751C10.8722 11.1246 11.3487 10.9269 11.7002 10.5754C12.0517 10.2239 12.2495 9.74728 12.2501 9.25018V4.75C12.2495 4.2529 12.0517 3.77632 11.7002 3.42482C11.3487 3.07332 10.8722 2.87558 10.3751 2.875ZM3.62506 3.625H10.3751C10.6733 3.62533 10.9593 3.74396 11.1702 3.95487C11.3811 4.16577 11.4997 4.45173 11.5001 4.75V8.12518H2.50006V4.75C2.50039 4.45173 2.61902 4.16577 2.82993 3.95486C3.04083 3.74396 3.32679 3.62533 3.62506 3.625ZM10.3751 10.3752H3.62506C3.32679 10.3749 3.04083 10.2562 2.82993 10.0453C2.61902 9.83441 2.50039 9.54845 2.50006 9.25018V8.87518H11.5001V9.25018C11.4997 9.54845 11.3811 9.83441 11.1702 10.0453C10.9593 10.2562 10.6733 10.3749 10.3751 10.3752Z" fill="black" fill-opacity="0.95"/>
<path d="M6.62506 5.125H7.37506C7.47452 5.125 7.5699 5.08549 7.64023 5.01516C7.71055 4.94484 7.75006 4.84946 7.75006 4.75C7.75006 4.65054 7.71055 4.55516 7.64023 4.48483C7.5699 4.41451 7.47452 4.375 7.37506 4.375H6.62506C6.5256 4.375 6.43022 4.41451 6.3599 4.48483C6.28957 4.55516 6.25006 4.65054 6.25006 4.75C6.25006 4.84946 6.28957 4.94484 6.3599 5.01516C6.43022 5.08549 6.5256 5.125 6.62506 5.125Z" fill="black" fill-opacity="0.95"/>
</svg>
