<svg width="12" height="12" viewBox="0 0 12 12" fill="none" xmlns="http://www.w3.org/2000/svg">
<g>
<path d="M6 0.75C4.96165 0.75 3.94662 1.05791 3.08326 1.63478C2.2199 2.21166 1.54699 3.0316 1.14963 3.99091C0.752275 4.95022 0.648307 6.00582 0.85088 7.02422C1.05345 8.04262 1.55347 8.97809 2.28769 9.71231C3.02192 10.4465 3.95738 10.9466 4.97578 11.1491C5.99418 11.3517 7.04978 11.2477 8.00909 10.8504C8.9684 10.453 9.78834 9.7801 10.3652 8.91674C10.9421 8.05339 11.25 7.03835 11.25 6C11.2484 4.60809 10.6948 3.27364 9.71059 2.28941C8.72636 1.30518 7.39191 0.75156 6 0.75ZM6 10.5C5.10999 10.5 4.23996 10.2361 3.49994 9.74161C2.75992 9.24715 2.18314 8.54434 1.84254 7.72208C1.50195 6.89981 1.41284 5.99501 1.58647 5.12209C1.7601 4.24918 2.18869 3.44736 2.81802 2.81802C3.44736 2.18868 4.24918 1.7601 5.1221 1.58647C5.99501 1.41283 6.89981 1.50195 7.72208 1.84254C8.54434 2.18314 9.24715 2.75991 9.74162 3.49993C10.2361 4.23996 10.5 5.10998 10.5 6C10.4987 7.19307 10.0242 8.33691 9.18054 9.18054C8.33691 10.0242 7.19308 10.4987 6 10.5Z" fill-opacity="0.95"/>
<path d="M5.90625 5.06236C6.16513 5.06236 6.375 4.85249 6.375 4.59361C6.375 4.33473 6.16513 4.12486 5.90625 4.12486C5.64736 4.12486 5.4375 4.33473 5.4375 4.59361C5.4375 4.85249 5.64736 5.06236 5.90625 5.06236Z" fill-opacity="0.95"/>
<path d="M6.75 7.5H6.375V6C6.37503 5.95075 6.36535 5.90197 6.34651 5.85646C6.32768 5.81095 6.30006 5.7696 6.26523 5.73477C6.2304 5.69994 6.18905 5.67232 6.14354 5.65349C6.09803 5.63465 6.04926 5.62497 6 5.625H5.625C5.52555 5.625 5.43016 5.66451 5.35984 5.73484C5.28951 5.80516 5.25 5.90054 5.25 6C5.25 6.09946 5.28951 6.19484 5.35984 6.26517C5.43016 6.33549 5.52555 6.375 5.625 6.375V7.5H5.25C5.15055 7.5 5.05516 7.53951 4.98484 7.60984C4.91451 7.68016 4.875 7.77554 4.875 7.875C4.875 7.97446 4.91451 8.06984 4.98484 8.14017C5.05516 8.21049 5.15055 8.25 5.25 8.25H6.75C6.84946 8.25 6.94484 8.21049 7.01517 8.14017C7.08549 8.06984 7.125 7.97446 7.125 7.875C7.125 7.77554 7.08549 7.68016 7.01517 7.60984C6.94484 7.53951 6.84946 7.5 6.75 7.5Z" fill-opacity="0.95"/>
</g>
</svg>
