<svg width="14" height="14" viewBox="0 0 14 14" fill="none" xmlns="http://www.w3.org/2000/svg">
<rect x="2.25" y="0.75" width="9.5" height="12.5" rx="3" fill="black"/>
<path d="M7.37503 10.375H6.62503C6.52557 10.375 6.43019 10.4145 6.35987 10.4848C6.28954 10.5552 6.25003 10.6505 6.25003 10.75C6.25003 10.8495 6.28954 10.9448 6.35987 11.0152C6.43019 11.0855 6.52557 11.125 6.62503 11.125H7.37503C7.47449 11.125 7.56987 11.0855 7.6402 11.0152C7.71052 10.9448 7.75003 10.8495 7.75003 10.75C7.75003 10.6505 7.71052 10.5552 7.6402 10.4848C7.56987 10.4145 7.47449 10.375 7.37503 10.375Z" fill="white" fill-opacity="0.95"/>
<path d="M8.87503 1.75H5.12503C4.62793 1.75058 4.15135 1.94832 3.79985 2.29982C3.44835 2.65132 3.25061 3.1279 3.25003 3.625V10.375C3.25061 10.8721 3.44835 11.3487 3.79985 11.7002C4.15135 12.0517 4.62793 12.2494 5.12503 12.25H8.87503C9.37213 12.2494 9.84871 12.0517 10.2002 11.7002C10.5517 11.3487 10.7494 10.8721 10.75 10.375V3.625C10.7494 3.1279 10.5517 2.65132 10.2002 2.29982C9.84871 1.94832 9.37213 1.75058 8.87503 1.75ZM5.12503 2.5H8.87503C9.1733 2.50033 9.45926 2.61896 9.67017 2.82986C9.88107 3.04077 9.99971 3.32673 10 3.625V9.25H4.00003V3.625C4.00036 3.32673 4.11899 3.04077 4.32989 2.82986C4.5408 2.61896 4.82676 2.50033 5.12503 2.5ZM8.87503 11.5H5.12503C4.82676 11.4997 4.5408 11.381 4.32989 11.1701C4.11899 10.9592 4.00036 10.6733 4.00003 10.375V10H10V10.375C9.99971 10.6733 9.88107 10.9592 9.67017 11.1701C9.45926 11.381 9.1733 11.4997 8.87503 11.5Z" fill="white" fill-opacity="0.95"/>
</svg>
