<svg width="14" height="14" viewBox="0 0 14 14" fill="none" xmlns="http://www.w3.org/2000/svg">
<rect x="0.75" y="1.87988" width="12.5" height="10.24" rx="3" fill="white"/>
<path d="M10.375 2.875H3.625C3.1279 2.87559 2.65133 3.07332 2.29982 3.42482C1.94832 3.77633 1.75059 4.2529 1.75 4.75V9.16896C1.75056 9.68757 1.95682 10.1848 2.32354 10.5515C2.69025 10.9182 3.18747 11.1245 3.70607 11.125H10.2938C10.8125 11.1244 11.3097 10.9182 11.6764 10.5515C12.0431 10.1848 12.2494 9.68758 12.25 9.16896V4.75C12.2494 4.2529 12.0517 3.77633 11.7002 3.42482C11.3487 3.07332 10.8721 2.87559 10.375 2.875ZM11.5 9.16908C11.4996 9.48882 11.3724 9.79534 11.1463 10.0214C10.9201 10.2475 10.6136 10.3746 10.2938 10.375H3.70607C3.3863 10.3747 3.0797 10.2476 2.85358 10.0214C2.62746 9.79533 2.5003 9.48874 2.5 9.16896V4.75C2.50033 4.45173 2.61896 4.16577 2.82987 3.95487C3.04077 3.74396 3.32673 3.62533 3.625 3.625H10.375C10.6733 3.62533 10.9592 3.74396 11.1701 3.95487C11.381 4.16577 11.4997 4.45173 11.5 4.75V9.16908Z" fill="black" fill-opacity="0.95"/>
<path d="M7.26527 5.23476C7.19495 5.16445 7.09958 5.12495 7.00013 5.12495C6.90069 5.12495 6.80531 5.16445 6.73499 5.23476L5.23499 6.73476C5.16643 6.80544 5.12842 6.90025 5.12917 6.99872C5.12993 7.09719 5.16938 7.1914 5.23901 7.26103C5.30864 7.33065 5.40286 7.3701 5.50133 7.37084C5.59979 7.37159 5.6946 7.33358 5.76528 7.26501L6.625 6.40518V8.50026C6.625 8.59972 6.66451 8.6951 6.73483 8.76543C6.80516 8.83575 6.90054 8.87526 7 8.87526C7.09946 8.87526 7.19484 8.83575 7.26517 8.76543C7.33549 8.6951 7.375 8.59972 7.375 8.50026V6.40518L8.23484 7.26501C8.30551 7.33358 8.40032 7.37159 8.49879 7.37084C8.59725 7.3701 8.69147 7.33065 8.7611 7.26103C8.83073 7.1914 8.87018 7.09719 8.87094 6.99872C8.87169 6.90025 8.83368 6.80544 8.76513 6.73476L7.26527 5.23476Z" fill="black" fill-opacity="0.95"/>
</svg>
