<svg width="20" height="20" viewBox="0 0 20 20" fill="none" xmlns="http://www.w3.org/2000/svg">
<path fill-rule="evenodd" clip-rule="evenodd" d="M2.5 19C1.67157 19 1 18.3284 1 17.5L1 15.5C1 15.2239 0.776142 15 0.5 15C0.223857 15 -4.01886e-07 15.2239 -3.7865e-07 15.5L-2.10361e-07 17.5C-9.41818e-08 18.8807 1.11929 20 2.5 20L4.5 20C4.77614 20 5 19.7761 5 19.5C5 19.2239 4.77614 19 4.5 19L2.5 19Z" fill="black" fill-opacity="0.95"/>
<path fill-rule="evenodd" clip-rule="evenodd" d="M1 2.5C1 1.67157 1.67157 1 2.5 1L4.5 1C4.77614 1 5 0.776142 5 0.5C5 0.223858 4.77614 5.27491e-08 4.5 4.96993e-08L2.5 2.76107e-08C1.11929 1.23617e-08 -4.27116e-08 1.11929 -9.5399e-08 2.5L-1.71718e-07 4.5C-1.82256e-07 4.77614 0.223857 5 0.5 5C0.776142 5 1 4.77614 1 4.5L1 2.5Z" fill="black" fill-opacity="0.95"/>
<path fill-rule="evenodd" clip-rule="evenodd" d="M17.5 19C18.3284 19 19 18.3284 19 17.5L19 15.5C19 15.2239 19.2239 15 19.5 15C19.7761 15 20 15.2239 20 15.5L20 17.5C20 18.8807 18.8807 20 17.5 20L15.5 20C15.2239 20 15 19.7761 15 19.5C15 19.2239 15.2239 19 15.5 19L17.5 19Z" fill="black" fill-opacity="0.95"/>
<path fill-rule="evenodd" clip-rule="evenodd" d="M19 2.5C19 1.67157 18.3284 1 17.5 1L15.5 1C15.2239 1 15 0.776142 15 0.5C15 0.223858 15.2239 5.27491e-08 15.5 4.96993e-08L17.5 2.76107e-08C18.8807 1.23617e-08 20 1.11929 20 2.5L20 4.5C20 4.77614 19.7761 5 19.5 5C19.2239 5 19 4.77614 19 4.5L19 2.5Z" fill="black" fill-opacity="0.95"/>
<path d="M10.0117 16.9998H10.0083C8.91602 17.03 7.85582 16.6285 7.05758 15.8823C6.25935 15.1361 5.78743 14.1053 5.74415 13.0134C5.74074 12.8879 5.72465 5.97389 5.72465 5.97389C5.71076 5.61242 5.83995 5.26005 6.0842 4.99323C6.32845 4.72641 6.66805 4.56664 7.02933 4.5486C7.14865 4.54645 7.26753 4.56359 7.38138 4.59938C7.43477 4.29698 7.59009 4.02198 7.82152 3.82014C8.05294 3.6183 8.3465 3.50179 8.65335 3.49H8.65823C8.84552 3.49004 9.03029 3.53314 9.19827 3.61598C9.31074 3.43136 9.46796 3.27811 9.65539 3.17039C9.84282 3.06268 10.0544 3.004 10.2705 2.99977C10.4362 2.99901 10.6003 3.03166 10.7531 3.09575C10.9059 3.15985 11.0442 3.25408 11.1597 3.37282C11.2671 3.48035 11.3565 3.6045 11.4243 3.74049C11.5766 3.68315 11.7369 3.65035 11.8994 3.64332C12.0642 3.64413 12.2271 3.67751 12.3788 3.74153C12.5306 3.80556 12.6682 3.89896 12.7837 4.01637C13.0589 4.29721 13.2117 4.67547 13.209 5.06862V7.84987C13.4286 7.85852 13.6417 7.92744 13.8247 8.04908C13.9629 8.13707 14.0769 8.25821 14.1563 8.40148C14.2357 8.54475 14.278 8.7056 14.2793 8.8694V12.9265C14.2787 13.4691 14.1664 14.0056 13.9495 14.5029C13.7326 15.0002 13.4158 15.4476 13.0186 15.8172C12.2055 16.5831 11.1288 17.0066 10.0117 16.9998ZM6.74367 12.9768C6.7887 13.8044 7.1533 14.5821 7.7606 15.146C8.3679 15.7099 9.17044 16.016 9.99904 15.9998H10.002C10.8664 16.0079 11.7006 15.6825 12.3311 15.0911C12.6291 14.8146 12.8671 14.4797 13.0302 14.1074C13.1933 13.735 13.2781 13.3331 13.2793 12.9265V8.8694C13.215 8.84431 13.1439 8.84206 13.0781 8.86305C12.8208 8.9376 12.595 9.0945 12.4353 9.30971C12.2757 9.52491 12.191 9.78653 12.1943 10.0545L12.1914 11.406C12.1912 11.5167 12.1542 11.6242 12.0862 11.7116C12.0182 11.799 11.9232 11.8614 11.8159 11.8889C11.4353 11.9908 11.0976 12.2124 10.8526 12.5209C10.6075 12.8294 10.4682 13.2085 10.4551 13.6023C10.4551 13.7349 10.4024 13.8621 10.3086 13.9559C10.2149 14.0496 10.0877 14.1023 9.95508 14.1023C9.82247 14.1023 9.69529 14.0496 9.60152 13.9559C9.50775 13.8621 9.45508 13.7349 9.45508 13.6023C9.45755 13.0524 9.62424 12.5157 9.93378 12.0611C10.2433 11.6066 10.6816 11.2548 11.1924 11.051L11.1943 10.0545C11.1864 9.68246 11.2759 9.31485 11.4539 8.98809C11.6318 8.66133 11.8922 8.38678 12.209 8.19166V5.06862C12.2121 4.94131 12.1651 4.81785 12.0781 4.72487C12.0316 4.67519 11.9674 4.64589 11.8994 4.64332H11.8984C11.7314 4.64382 11.5898 4.83864 11.5898 5.06862V8.14235C11.5898 8.27488 11.5372 8.40199 11.4436 8.49575C11.3499 8.58951 11.2229 8.64224 11.0903 8.64235C10.9578 8.64229 10.8303 8.58966 10.7365 8.49601C10.6428 8.40236 10.59 8.27535 10.5898 8.14285L10.585 4.42556C10.5882 4.29809 10.5412 4.17445 10.4541 4.08133C10.4076 4.03165 10.3434 4.00234 10.2754 3.99978H10.2744C10.1074 4.00028 9.9658 4.1951 9.9658 4.42508V8.60867C9.96569 8.7412 9.91296 8.86826 9.8192 8.96193C9.72544 9.05559 9.59832 9.1082 9.4658 9.10817C9.33319 9.10817 9.20601 9.0555 9.11224 8.96173C9.01847 8.86796 8.9658 8.74078 8.9658 8.60817V4.86207C8.958 4.75327 8.9126 4.65057 8.83738 4.57157C8.79082 4.52171 8.72636 4.49238 8.65818 4.49003H8.6572C8.4902 4.49053 8.3491 4.68534 8.3491 4.91532L8.34373 8.59354C8.34353 8.72605 8.29077 8.85306 8.19703 8.94671C8.10329 9.04035 7.97623 9.09298 7.84373 9.09304H7.84323C7.7107 9.09293 7.58364 9.0402 7.48997 8.94644C7.39631 8.85269 7.34371 8.72557 7.34373 8.59304V5.9739C7.34688 5.84659 7.29989 5.72314 7.21287 5.63015C7.16637 5.58048 7.10215 5.55118 7.03416 5.54861H7.03316C6.86616 5.54911 6.72457 5.74392 6.72457 5.9739C6.72463 5.9739 6.74074 12.8635 6.74367 12.9768Z" fill="black" fill-opacity="0.95"/>
</svg>
