<?xml version="1.0" encoding="UTF-8"?>
<svg width="12px" height="12px" viewBox="0 0 12 12" version="1.1" xmlns="http://www.w3.org/2000/svg" xmlns:xlink="http://www.w3.org/1999/xlink">
    <!-- Generator: sketchtool 52.2 (67145) - http://www.bohemiancoding.com/sketch -->
    <title>857C2A80-F1E6-48A6-94A0-0E1D524DD784</title>
    <desc>Created with sketchtool.</desc>
    <g id="icn_webexball_12" stroke="none" stroke-width="1" fill="none" fill-rule="evenodd" fill-opacity="0.8">
        <g id="Win" transform="translate(-150.000000, -109.000000)" fill="#292929">
            <g id="webex-meetings_16" transform="translate(150.000000, 109.000000)">
                <path d="M9.71205,9.71205 C8.7213,10.70355 7.4028,11.2503 6.0003,11.2503 C4.9428,11.2503 3.93405,10.93755 3.07605,10.3593 L3.0783,10.3593 C2.91255,10.24755 2.75355,10.12455 2.6013,9.9948 C2.5788,9.97605 2.55705,9.9558 2.5353,9.9363 C2.43855,9.8508 2.3478,9.75855 2.2578,9.6663 C2.0043,9.37155 2.0088,8.9298 2.2878,8.65155 C2.42955,8.5098 2.6178,8.4318 2.81805,8.4318 C3.0183,8.4318 3.20655,8.50905 3.3483,8.6508 C4.0278,9.33105 4.99455,9.7218 6.0003,9.7218 C7.0053,9.7218 7.97205,9.33105 8.65155,8.65155 C9.35955,7.9428 9.7503,7.00155 9.7503,6.0003 C9.7503,5.3058 9.55155,4.64655 9.20055,4.06755 C9.20055,4.06605 9.2013,4.06455 9.20205,4.0638 C9.1983,4.05855 9.1938,4.05405 9.1908,4.0488 C9.08205,3.87105 8.9538,3.7053 8.8143,3.54555 C8.7813,3.50805 8.75355,3.4668 8.7198,3.4308 C8.69505,3.40455 8.67705,3.3738 8.65155,3.3483 C8.5098,3.20655 8.4318,3.0183 8.4318,2.81805 C8.4318,2.6178 8.5098,2.42955 8.6523,2.2878 C8.7933,2.14605 8.98155,2.06805 9.1818,2.06805 C9.3828,2.06805 9.57105,2.14605 9.71205,2.2878 C10.70355,3.2793 11.2503,4.5978 11.2503,6.0003 C11.2503,7.40205 10.70355,8.72055 9.71205,9.71205 M3.7503,7.8753 C3.7458,7.8753 3.7188,7.87455 3.68355,7.8738 C3.2643,7.3593 3.0003,6.7143 3.0003,6.0003 C3.0003,4.3458 4.3458,3.0003 6.0003,3.0003 C6.7113,3.0003 7.36005,3.2553 7.87455,3.6708 C7.87455,3.70755 7.8753,3.74055 7.8753,3.7503 C7.8753,6.0243 6.0243,7.8753 3.7503,7.8753 M8.56005,4.4493 C8.56905,4.4643 8.5758,4.48155 8.58555,4.49655 C8.68605,4.67205 8.76705,4.85955 8.8323,5.0538 C8.8578,5.1363 8.8893,5.21655 8.90955,5.3013 C8.91705,5.33505 8.93205,5.36655 8.93955,5.39955 C8.97855,5.5938 9.0003,5.7948 9.0003,6.0003 C9.0003,6.2058 8.97855,6.40605 8.93955,6.6003 C8.93205,6.6348 8.9163,6.66705 8.90805,6.7023 C8.8698,6.86055 8.82705,7.0173 8.7648,7.1643 C8.7558,7.1853 8.74155,7.20405 8.7318,7.22505 C8.6613,7.3818 8.58255,7.5348 8.4873,7.6758 C8.48505,7.6788 8.4828,7.68105 8.48055,7.6833 C8.35605,7.86705 8.2068,8.03055 8.0448,8.18205 C7.4853,8.7033 6.74505,8.9718 6.0003,8.9718 C5.63655,8.9718 5.27505,8.90505 4.93455,8.7798 C4.80255,8.7288 4.6743,8.66505 4.5498,8.59605 C4.52805,8.5848 4.5048,8.5758 4.48305,8.5638 C6.5943,8.24355 8.25255,6.56355 8.56005,4.4493 M1.75755,8.1213 C1.61805,8.26005 1.51455,8.42055 1.4418,8.5908 C1.00455,7.8258 0.7503,6.94305 0.7503,6.0003 C0.7503,3.1053 3.1053,0.7503 6.0003,0.7503 C6.9408,0.7503 7.8153,1.01205 8.5788,1.4478 C8.4138,1.5213 8.25705,1.6218 8.1213,1.75755 C7.8633,2.01555 7.72605,2.3448 7.6953,2.68155 C7.1853,2.4153 6.61605,2.2503 6.0003,2.2503 C3.9288,2.2503 2.2503,3.9288 2.2503,6.0003 C2.2503,6.6153 2.40855,7.18755 2.67555,7.6953 C2.3403,7.72755 2.01405,7.8648 1.75755,8.1213 M10.24305,1.75755 C10.23405,1.74855 10.22355,1.7433 10.21455,1.7343 L10.21755,1.7343 C9.1338,0.66255 7.6443,0.0003 6.0003,0.0003 C2.68605,0.0003 0.0003,2.68605 0.0003,6.0003 C0.0003,7.60605 0.64005,9.05655 1.6683,10.13355 C1.69755,10.16805 1.72155,10.20555 1.7538,10.23855 C1.7553,10.2393 1.75605,10.2408 1.75755,10.2423 C1.7973,10.2828 1.84155,10.3173 1.8828,10.3563 C1.88355,10.35705 1.8843,10.35855 1.8858,10.3593 C3.00405,11.4153 4.45605,12.0003 6.0003,12.0003 C7.6023,12.0003 9.1098,11.3763 10.24305,10.2423 C11.3763,9.10905 12.0003,7.6023 12.0003,6.0003 C12.0003,4.39755 11.3763,2.8908 10.24305,1.75755" id="fill"></path>
            </g>
        </g>
    </g>
</svg>