<svg width="20" height="20" viewBox="0 0 20 20" fill="none" xmlns="http://www.w3.org/2000/svg">
<g>
<path d="M12.331 15.0911C11.7005 15.6825 10.8663 16.0079 10.0019 15.9998H9.99897C9.17037 16.016 8.36783 15.7099 7.76053 15.146C7.15323 14.5821 6.78863 13.8044 6.7436 12.9768C6.74067 12.8635 6.72263 8.84388 6.72263 8.84388L5.7233 7.84459C5.7233 7.84459 5.74067 12.888 5.74408 13.0134C5.78736 14.1053 6.25928 15.1361 7.05751 15.8823C7.85575 16.6285 8.91595 17.03 10.0082 16.9998H10.0117C11.1287 17.0066 12.2054 16.5831 13.0185 15.8172C13.1341 15.7065 13.2432 15.5894 13.3454 15.4664L12.6338 14.7548C12.541 14.874 12.4398 14.9864 12.331 15.0911Z" fill-opacity="0.95"/>
<path d="M10.455 13.6023C10.451 13.3151 10.5209 13.0316 10.6581 12.7792L9.93965 12.0608C9.61852 12.5101 9.44878 13.05 9.45503 13.6023C9.45503 13.7349 9.5077 13.8621 9.60147 13.9559C9.69524 14.0496 9.82242 14.1023 9.95503 14.1023C10.0876 14.1023 10.2148 14.0496 10.3086 13.9559C10.4023 13.8621 10.455 13.7349 10.455 13.6023Z" fill-opacity="0.95"/>
<path d="M16.8535 16.1463L14.2277 13.5205C14.2602 13.3241 14.2774 13.1256 14.2792 12.9265V8.8694C14.2779 8.70561 14.2356 8.54475 14.1562 8.40148C14.0768 8.25821 13.9628 8.13707 13.8247 8.04909C13.6416 7.92745 13.4286 7.85853 13.2089 7.84987V5.06862C13.2117 4.67547 13.0588 4.29721 12.7836 4.01637C12.6681 3.89896 12.5305 3.80556 12.3788 3.74153C12.227 3.67751 12.0641 3.64413 11.8994 3.64332C11.7368 3.65035 11.5765 3.68315 11.4243 3.74049C11.3564 3.6045 11.267 3.48035 11.1596 3.37282C11.0441 3.25408 10.9058 3.15985 10.753 3.09575C10.6002 3.03166 10.4361 2.99901 10.2705 2.99977C10.0543 3.004 9.84274 3.06268 9.65531 3.17039C9.46788 3.27811 9.31066 3.43136 9.19819 3.61598C9.03021 3.53314 8.84544 3.49004 8.65815 3.49H8.65328C8.34642 3.50179 8.05285 3.61829 7.82142 3.82014C7.58999 4.02198 7.43466 4.29699 7.38128 4.5994C7.26743 4.56362 7.14855 4.54647 7.02923 4.54862C6.80275 4.55383 6.58164 4.61866 6.3882 4.73657C6.19477 4.85448 6.03584 5.02131 5.92744 5.22023L3.85346 3.14625C3.7597 3.0525 3.63254 2.99982 3.49995 2.99982C3.36735 2.99982 3.24019 3.0525 3.14643 3.14625C3.05267 3.24001 3 3.36717 3 3.49977C3 3.63236 3.05267 3.75953 3.14643 3.85328L16.1464 16.8533C16.2402 16.947 16.3674 16.9997 16.4999 16.9997C16.6325 16.9997 16.7597 16.947 16.8535 16.8533C16.9472 16.7595 16.9999 16.6324 16.9999 16.4998C16.9999 16.3672 16.9472 16.24 16.8535 16.1463ZM13.0781 8.86305C13.1439 8.84206 13.2149 8.8443 13.2792 8.8694V12.572L12.18 11.4728C12.1854 11.4508 12.1891 11.4285 12.1914 11.406L12.1943 10.0545C12.191 9.78653 12.2756 9.52491 12.4352 9.3097C12.5949 9.0945 12.8207 8.9376 13.0781 8.86305ZM9.96578 8.60866V4.42506C9.96578 4.19506 10.1074 4.00026 10.2744 3.99977H10.2754C10.3434 4.00233 10.4076 4.03164 10.4541 4.08131C10.5412 4.17444 10.5882 4.29808 10.5849 4.42555L10.5898 8.14283C10.59 8.27534 10.6427 8.40235 10.7365 8.496C10.8302 8.58964 10.9573 8.64227 11.0898 8.64233C11.2223 8.64222 11.3499 8.58949 11.4435 8.49573C11.5372 8.40198 11.5898 8.27486 11.5898 8.14233V5.06862C11.5898 4.83862 11.7314 4.64381 11.8984 4.64332H11.8994C11.9674 4.64589 12.0316 4.67519 12.0781 4.72487C12.1651 4.81785 12.2121 4.94131 12.2089 5.06862V8.19166C11.8921 8.38678 11.6318 8.66133 11.4538 8.98809C11.2758 9.31485 11.1864 9.68246 11.1943 10.0545L11.1934 10.4862L9.7295 9.02229C9.80074 8.97905 9.8598 8.91839 9.90113 8.84603C9.94247 8.77367 9.96471 8.69199 9.96578 8.60866ZM8.65717 4.49H8.65815C8.72633 4.49235 8.79079 4.52168 8.83735 4.57155C8.91257 4.65055 8.95797 4.75325 8.96577 4.86205V8.25855L8.3451 7.6379L8.34907 4.91531C8.34907 4.68532 8.49018 4.49049 8.65717 4.49ZM6.72453 6.01732L6.72456 5.9739C6.72456 5.7439 6.86616 5.5491 7.03315 5.54861H7.03415C7.10213 5.55118 7.16636 5.58048 7.21286 5.63015C7.29988 5.72314 7.34687 5.84659 7.34372 5.9739V6.6365L6.72453 6.01732Z" fill-opacity="0.95"/>
</g>
</svg>
