<?xml version="1.0" standalone="no"?>
<!DOCTYPE svg PUBLIC "-//W3C//DTD SVG 1.1//EN" "http://www.w3.org/Graphics/SVG/1.1/DTD/svg11.dtd" >
<svg xmlns="http://www.w3.org/2000/svg" id="icon-browser_28">
<path unicode="&#xec25;" transform="scale(1,1)" id="icon-browser_28" data-tags="icon-browser_28" d="M27 6c0-1.1045695-.8954305-2-2-2L3 4c-1.1045695 0-2 .8954305-2 2l0 16c0 1.1045695.8954305 2 2 2l22 0c1.1045695 0 2-.8954305 2-2l0-16zm1 0l0 16c0 1.6568542-1.3431458 3-3 3L3 25c-1.65685425 0-3-1.3431458-3-3L0 6c0-1.65685425 1.34314575-3 3-3l22 0c1.6568542 0 3 1.34314575 3 3zM4 8c.55228475 0 1-.44771525 1-1 0-.55228475-.44771525-1-1-1-.55228475 0-1 .44771525-1 1 0 .55228475.44771525 1 1 1zm4 0c.55228475 0 1-.44771525 1-1 0-.55228475-.44771525-1-1-1-.55228475 0-1 .44771525-1 1 0 .55228475.44771525 1 1 1zm4 0c.5522847 0 1-.44771525 1-1 0-.55228475-.4477153-1-1-1-.5522847 0-1 .44771525-1 1 0 .55228475.4477153 1 1 1z" />
</svg>
