<?xml version="1.0" encoding="UTF-8"?>
<svg width="112px" height="88px" viewBox="0 0 112 88" version="1.1" xmlns="http://www.w3.org/2000/svg" xmlns:xlink="http://www.w3.org/1999/xlink">
    <!-- Generator: sketchtool 49 (51002) - http://www.bohemiancoding.com/sketch -->
    <title>1D34B2D1-DC0D-413B-AF6A-EB1B0E2B721A</title>
    <desc>Created with sketchtool.</desc>
    <defs></defs>
    <g id="illustration" stroke="none" stroke-width="1" fill="none" fill-rule="evenodd">
        <g id="Scheduling-11.0" transform="translate(-824.000000, -303.000000)">
            <g id="App" transform="translate(208.000000, 120.000000)">
                <g id="content" transform="translate(320.000000, 0.000000)">
                    <g id="main" transform="translate(128.000000, 183.000000)">
                        <g id="illustration" transform="translate(168.000000, 0.000000)">
                            <rect id="bounds" x="0" y="0" width="112" height="88"></rect>
                            <g id="illu">
                                <path d="M38.6069,14 L20.9999,14 L20.9999,32.019 C22.0799,32.036 23.1659,31.696 24.0739,30.993 L36.2239,21.604 C36.4429,21.436 36.7559,21.476 36.9249,21.694 C37.0939,21.913 37.0539,22.227 36.8349,22.396 L24.6859,31.784 C23.6169,32.609 22.3469,33.021 21.0779,33.021 C21.0519,33.021 21.0259,33.016 20.9999,33.015 L20.9999,46 L38.6069,46 C40.4779,46 41.9999,44.479 41.9999,42.607 L41.9999,17.393 C41.9999,15.521 40.4779,14 38.6069,14" id="fill" fill="#FF8C1A"></path>
                                <path d="M4.3931,14 L21.0001,14 C21.0001,13.659 21.0331,13.327 21.0801,13 L4.3931,13 C1.9711,13 0.0001,14.971 0.0001,17.393 L0.0001,42.607 C0.0001,45.029 1.9711,47 4.3931,47 L13.0001,47 C13.2761,47 13.5001,46.776 13.5001,46.5 C13.5001,46.224 13.2761,46 13.0001,46 L4.3931,46 C2.5221,46 1.0001,44.479 1.0001,42.607 L1.0001,18.453 L17.3661,31.701 C18.4301,32.562 19.7131,32.998 21.0001,33.015 L21.0001,32.019 C19.9351,32.001 18.8751,31.637 17.9951,30.924 L1.0211,17.184 C1.1321,15.411 2.5941,14 4.3931,14" id="fill" fill="#AFAFAF"></path>
                                <path d="M106,64.5 C106,74.165 98.165,82 88.5,82 C78.835,82 71,74.165 71,64.5 C71,54.835 78.835,47 88.5,47 C98.165,47 106,54.835 106,64.5" id="fill" fill="#F2F2F2"></path>
                                <path d="M94.5,74 C94.372,74 94.244,73.951 94.146,73.854 L88.732,68.439 C88.26,67.967 88,67.34 88,66.672 L88,55.5 C88,55.224 88.224,55 88.5,55 C88.776,55 89,55.224 89,55.5 L89,66.672 C89,67.066 89.16,67.453 89.439,67.732 L94.854,73.146 C95.049,73.342 95.049,73.658 94.854,73.854 C94.756,73.951 94.628,74 94.5,74" id="fill" fill="#AFAFAF"></path>
                                <path d="M103.75,46.6201 C103.54,46.4391 103.225,46.4651 103.045,46.6761 C102.866,46.8861 102.891,47.2011 103.101,47.3801 C108.121,51.6661 111,57.9061 111,64.5001 C111,76.9061 100.907,87.0001 88.5,87.0001 C77.99,87.0001 69.144,79.7561 66.683,70.0001 L65.656,70.0001 C68.14,80.3121 77.436,88.0001 88.5,88.0001 C101.458,88.0001 112,77.4581 112,64.5001 C112,57.6131 108.993,51.0961 103.75,46.6201" id="fill" fill="#AFAFAF"></path>
                                <path d="M88.5,41 C90.756,41 92.935,41.324 95,41.918 L95,32.187 L95,14 C95,10.134 91.866,7 88,7 L77,7 L77,0.5 C77,0.225 76.775,0 76.5,0 C76.225,0 76,0.225 76,0.5 L76,7 L40,7 L40,0.5 C40,0.225 39.775,0 39.5,0 C39.225,0 39,0.225 39,0.5 L39,7 L28,7 C24.475,7 21.566,9.609 21.08,13 L38.607,13 C41.029,13 43,14.971 43,17.393 L43,42.607 C43,45.029 41.029,47 38.607,47 L21,47 L21,53 L68.008,53 C72.035,45.84 79.7,41 88.5,41" id="fill" fill="#FF8C1A"></path>
                                <path d="M68.0078,53 L20.9998,53 L20.9998,63 C20.9998,66.866 24.1338,70 27.9998,70 L65.6538,70 C65.2308,68.235 64.9998,66.395 64.9998,64.5 C64.9998,60.321 66.0958,56.4 68.0078,53" id="fill" fill="#FF8C1A"></path>
                                <path d="M68.0078,53 L20.9998,53 L20.9998,63 C20.9998,66.866 24.1338,70 27.9998,70 L65.6538,70 C65.2308,68.235 64.9998,66.395 64.9998,64.5 C64.9998,60.321 66.0958,56.4 68.0078,53" id="fill" fill="#000000" opacity="0.1"></path>
                            </g>
                        </g>
                    </g>
                </g>
            </g>
        </g>
    </g>
</svg>