<svg width="200" height="88" viewBox="0 0 200 88" fill="none" xmlns="http://www.w3.org/2000/svg">
<path opacity="0.7" fill-rule="evenodd" clip-rule="evenodd" d="M159 33V82.591C159 85.022 157.022 87 154.591 87H45.41C42.979 87 41 85.022 41 82.591V16.41C41 13.979 42.979 12 45.41 12H83.5C83.776 12 84 11.776 84 11.5C84 11.224 83.776 11 83.5 11H45.41C42.427 11 40 13.427 40 16.41V82.591C40 85.573 42.427 88 45.41 88H154.591C157.573 88 160 85.573 160 82.591V33H159Z" fill="#00A0D1"/>
<path opacity="0.1" fill-rule="evenodd" clip-rule="evenodd" d="M45 80C43.9 80 43 79.1 43 78V21C43 19.9 43.9 19 45 19H155C156.1 19 157 19.9 157 21V78C157 79.1 156.1 80 155 80H45Z" fill="#07C1F5"/>
<rect x="89" width="82" height="33" rx="4" fill="#00A0D1"/>
<path fill-rule="evenodd" clip-rule="evenodd" d="M112.256 18.091L109.5 16.5L112.256 14.909C112.471 14.785 112.545 14.507 112.421 14.291L112.373 14.209C112.249 13.993 111.971 13.919 111.756 14.043L109 15.634V12.452C109 12.203 108.797 12 108.548 12H108.452C108.203 12 108 12.203 108 12.452V15.634L105.244 14.043C105.029 13.919 104.751 13.993 104.627 14.209L104.579 14.291C104.455 14.507 104.529 14.785 104.744 14.909L107.5 16.5L104.744 18.091C104.529 18.215 104.455 18.493 104.579 18.709L104.627 18.791C104.751 19.007 105.029 19.081 105.244 18.957L108 17.366V20.548C108 20.797 108.203 21 108.452 21H108.548C108.797 21 109 20.797 109 20.548V17.366L111.756 18.957C111.971 19.081 112.249 19.007 112.373 18.791L112.421 18.709C112.545 18.493 112.471 18.215 112.256 18.091ZM127.256 18.091L124.5 16.5L127.256 14.909C127.471 14.785 127.545 14.507 127.421 14.291L127.373 14.209C127.249 13.993 126.971 13.919 126.756 14.043L124 15.634V12.452C124 12.203 123.797 12 123.548 12H123.452C123.203 12 123 12.203 123 12.452V15.634L120.244 14.043C120.029 13.919 119.751 13.993 119.627 14.209L119.579 14.291C119.455 14.507 119.529 14.785 119.744 14.909L122.5 16.5L119.744 18.091C119.529 18.215 119.455 18.493 119.579 18.709L119.627 18.791C119.751 19.007 120.029 19.081 120.244 18.957L123 17.366V20.548C123 20.797 123.203 21 123.452 21H123.548C123.797 21 124 20.797 124 20.548V17.366L126.756 18.957C126.971 19.081 127.249 19.007 127.373 18.791L127.421 18.709C127.545 18.493 127.471 18.215 127.256 18.091ZM141.256 18.091L138.5 16.5L141.256 14.909C141.471 14.785 141.545 14.507 141.421 14.291L141.373 14.209C141.249 13.993 140.971 13.919 140.756 14.043L138 15.634V12.452C138 12.203 137.797 12 137.548 12H137.452C137.203 12 137 12.203 137 12.452V15.634L134.244 14.043C134.029 13.919 133.751 13.993 133.627 14.209L133.579 14.291C133.455 14.507 133.529 14.785 133.744 14.909L136.5 16.5L133.744 18.091C133.529 18.215 133.455 18.493 133.579 18.709L133.627 18.791C133.751 19.007 134.029 19.081 134.244 18.957L137 17.366V20.548C137 20.797 137.203 21 137.452 21H137.548C137.797 21 138 20.797 138 20.548V17.366L140.756 18.957C140.971 19.081 141.249 19.007 141.373 18.791L141.421 18.709C141.545 18.493 141.471 18.215 141.256 18.091ZM155.256 18.091L152.5 16.5L155.256 14.909C155.471 14.785 155.545 14.507 155.421 14.291L155.373 14.209C155.249 13.993 154.971 13.919 154.756 14.043L152 15.634V12.452C152 12.203 151.797 12 151.548 12H151.452C151.203 12 151 12.203 151 12.452V15.634L148.244 14.043C148.029 13.919 147.751 13.993 147.627 14.209L147.579 14.291C147.455 14.507 147.529 14.785 147.744 14.909L150.5 16.5L147.744 18.091C147.529 18.215 147.455 18.493 147.579 18.709L147.627 18.791C147.751 19.007 148.029 19.081 148.244 18.957L151 17.366V20.548C151 20.797 151.203 21 151.452 21H151.548C151.797 21 152 20.797 152 20.548V17.366L154.756 18.957C154.971 19.081 155.249 19.007 155.373 18.791L155.421 18.709C155.545 18.493 155.471 18.215 155.256 18.091Z" fill="white"/>
</svg>
