<?xml version="1.0" standalone="no"?>
<!DOCTYPE svg PUBLIC "-//W3C//DTD SVG 1.1//EN" "http://www.w3.org/Graphics/SVG/1.1/DTD/svg11.dtd" >
<svg xmlns="http://www.w3.org/2000/svg" id="image-file_32">
<path unicode="&#xea58;" transform="scale(1,-1)" id="image-file_32" data-tags="image-file_32" d="M800-32h-576c-35.296 0-64 28.704-64 64v174.624l212.736 212.672c38.208 38.24 100.32 38.176 138.336 0.224l352.928-367.072v-20.448c0-35.296-28.704-64-64-64zM224 928h379.232l260.768-260.768v-568.608l-330.080 343.296c-50.656 50.624-133.088 50.752-183.808 0l-190.112-190.048v612.128c0 35.296 28.704 64 64 64zM886.624 689.888l-260.736 260.736c-6.016 6.016-14.144 9.376-22.656 9.376h-379.232c-53.024 0-96-42.976-96-96v-832c0-53.024 42.976-96 96-96h576c53.024 0 96 42.976 96 96v635.232c0 8.512-3.36 16.64-9.376 22.656zM720.282 544.016c26.464 0 48-21.536 48-48s-21.536-48-48-48c-26.464 0-48 21.536-48 48s21.536 48 48 48zM720.282 416.016c44.128 0 80 35.904 80 80s-35.872 80-80 80c-44.128 0-80-35.904-80-80s35.872-80 80-80z" />
</svg>
