<?xml version="1.0" standalone="no"?>
<!DOCTYPE svg PUBLIC "-//W3C//DTD SVG 1.1//EN" "http://www.w3.org/Graphics/SVG/1.1/DTD/svg11.dtd" >
<svg xmlns="http://www.w3.org/2000/svg" id="image-file_24">
<path unicode="&#xea57;" transform="scale(1,-1)" id="image-file_24" data-tags="image-file_24" d="M789.333-21.333h-554.667c-35.285 0-64 28.715-64 64v177.365l199.040 198.955c38.144 38.101 100.181 38.101 137.941 0.341l345.685-360.235v-16.427c0-35.285-28.715-64-64-64zM234.667 917.333h355.541c1.792 0 3.755-0.811 5.035-2.091l256-256c1.408-1.408 2.091-2.987 2.091-4.992v-533.547l-315.221 328.448c-54.741 54.784-143.829 54.784-198.571 0l-168.875-168.789v572.971c0 35.285 28.715 64 64 64zM881.408 689.408l-256 256c-9.259 9.259-22.059 14.592-35.2 14.592h-355.541c-58.837 0-106.667-47.829-106.667-106.667v-810.667c0-58.837 47.829-106.667 106.667-106.667h554.667c58.837 0 106.667 47.829 106.667 106.667v611.584c0 13.312-5.163 25.728-14.592 35.157zM725.333 533.333c23.509 0 42.667-19.157 42.667-42.667s-19.157-42.667-42.667-42.667c-23.509 0-42.667 19.157-42.667 42.667s19.157 42.667 42.667 42.667zM725.333 405.333c47.061 0 85.333 38.272 85.333 85.333s-38.272 85.333-85.333 85.333c-47.061 0-85.333-38.272-85.333-85.333s38.272-85.333 85.333-85.333z" />
</svg>
