<svg xmlns="http://www.w3.org/2000/svg" viewBox="0 0 235.47 166.82">
	<defs>
		<style type="text/css">
			.cls-1,.cls-2,.cls-5{fill:none;}.cls-1{stroke:#00b8f1;}.cls-1,.cls-2{stroke-linecap:round;stroke-linejoin:round;}.cls-2,.cls-5{stroke:#f37531;}.cls-3{fill:#faaa39;}.cls-4{fill:#fff;}.cls-5{stroke-miterlimit:10;}.cls-6{fill:#f37531;}.cls-11,.cls-7,.cls-8{fill:#00b8f1;}.cls-12,.cls-7,.cls-9{opacity:0.5;}.cls-10,.cls-9{fill:#48e33d;}.cls-10,.cls-11{opacity:0.25;}.cls-12{fill:#ffac38;}
		</style>
	</defs>
	<title>
		Artboard 1 copy 18
	</title>
	<g id="img_empty_files" data-name="files +links">
		<line class="cls-1" x1="192.5" y1="139.81" x2="232.43" y2="139.81" />
		<line class="cls-1" x1="3.04" y1="139.81" x2="148.41" y2="139.81" />
		<line class="cls-2" x1="117.85" y1="18.93" x2="116.41" y2="18.94" />
		<line class="cls-2" x1="116.17" y1="18.95" x2="114.73" y2="18.96" />
		<line class="cls-2" x1="114.04" y1="19.51" x2="114.6" y2="18.95" />
		<polyline class="cls-2" points="116.24 16.3 116.28 18.93 117.77 19.79" />
		<path class="cls-3" d="M123.53,14.78c2-1.87,2.63-4.46,1.21-6.73a4.8,4.8,0,0,0-2.92-2.12l-7.88-2.12-7.19-1.94h0a1.9,1.9,0,0,0-1.55.21,1.93,1.93,0,0,0-.62,2.66c.39.61,1.73.93,1.73.93l5.34,1c-1.72,1.87-1.48,4.88-.28,7a7.73,7.73,0,0,0,4.78,3.48A8.05,8.05,0,0,0,123.53,14.78ZM110.71,4.42l-4.85-1.31a.14.14,0,0,1-.11-.09.2.2,0,0,1,0-.15.2.2,0,0,1,.25-.14L110.82,4a.19.19,0,0,1,.14.24A.21.21,0,0,1,110.71,4.42Zm3.22,6.43a4.73,4.73,0,0,1-.44-.62,4.41,4.41,0,0,1-.3-4.35.19.19,0,0,1,.23-.09l2.1.66a.19.19,0,0,1,.13.24.2.2,0,0,1-.25.14l-1.94-.61a4.08,4.08,0,0,0,.78,4.38,3.33,3.33,0,0,0,4.53.58.19.19,0,0,1,.27.05.2.2,0,0,1-.05.28S116.05,13.48,113.93,10.85Z" />
		<circle class="cls-4" cx="122.62" cy="11.09" r="1.13" />
		<circle class="cls-5" cx="122.83" cy="11.56" r="0.16" />
		<polyline class="cls-2" points="114.56 16.32 114.6 18.95 116.09 19.81" />
		<path class="cls-6" d="M124.91,13.43c-.06-.15.58,1.74.58,1.74L124,14.54" />
		<polyline class="cls-1" points="148.41 139.81 30.42 139.81 30.42 19.81 190.42 19.81 190.42 105.32" />
		<rect class="cls-1" x="30.42" y="19.81" width="40" height="40" />
		<rect class="cls-1" x="70.42" y="19.81" width="40" height="40" />
		<rect class="cls-1" x="110.42" y="19.81" width="40" height="40" />
		<rect class="cls-1" x="150.42" y="19.81" width="40" height="40" />
		<polyline class="cls-1" points="68.41 99.81 30.42 99.81 30.42 59.81 70.42 59.81 70.42 65.32" />
		<polyline class="cls-1" points="110.42 65.13 110.42 59.81 150.42 59.81 150.42 99.81 112.41 99.81" />
		<rect class="cls-1" x="150.42" y="59.81" width="40" height="40" />
		<polyline class="cls-1" points="70.42 109.35 70.42 139.81 30.42 139.81 30.42 99.81 68.41 99.81" />
		<polyline class="cls-1" points="110.42 109.5 110.42 139.81 70.42 139.81 70.42 109.84" />
		<polyline class="cls-1" points="112.41 99.81 150.42 99.81 150.42 105.13" />
		<polyline class="cls-1" points="148.41 139.81 110.42 139.81 110.42 109.5" />
		<rect class="cls-7" x="44.42" y="27.81" width="12" height="4" />
		<rect class="cls-7" x="84.42" y="27.81" width="12" height="4" />
		<rect class="cls-7" x="124.42" y="27.81" width="12" height="4" />
		<rect class="cls-7" x="164.42" y="27.81" width="12" height="4" />
		<rect class="cls-7" x="164.42" y="67.81" width="12" height="4" />
		<rect class="cls-7" x="124.42" y="67.81" width="12" height="4" />
		<rect class="cls-7" x="44.42" y="67.81" width="12" height="4" />
		<rect class="cls-7" x="44.42" y="107.81" width="12" height="4" />
		<rect class="cls-7" x="84.42" y="109.76" width="12" height="2.05" />
		<rect class="cls-7" x="124.42" y="107.81" width="12" height="4" />
		<polygon class="cls-8" points="112.42 65.31 110.42 59.81 110.42 65.31 112.42 65.31" />
		<polygon class="cls-8" points="68.42 65.31 70.42 59.81 70.42 65.31 68.42 65.31" />
		<polygon class="cls-7" points="62.43 158.51 73.04 143.25 86.06 149.31 76.2 165.02 62.43 158.51" />
		<path class="cls-9" d="M37.31,142.4a43.57,43.57,0,0,1,19.11,7.18l-7.2,11.16s-12.09-6.6-20.09-7.63Z" />
		<path class="cls-10" d="M56.42,149.58l-3.58,5.55a177.07,177.07,0,0,1,16.51-6.58l-6.26-7.72a69.51,69.51,0,0,0-14.33,4.59A40.33,40.33,0,0,1,56.42,149.58Z" />
		<polyline class="cls-8" points="190.47 105.3 192.47 105.3 190.47 99.8 190.47 105.3" />
		<polyline class="cls-8" points="150.47 105.3 150.47 99.8 148.47 105.3 150.47 105.3" />
		<path class="cls-1" d="M68.42,65.31v44h44v-44Z" />
		<path class="cls-8" d="M183.46,105.31c-3.13-6.67-7-14.12-7-14.12l-10.73,4c.88,2.05,3,6.64,4.61,10.07Z" />
		<polygon class="cls-7" points="190.04 105.31 197.51 95.27 187.56 87.72 176.47 102.28 180.57 105.31 190.04 105.31" />
		<polyline class="cls-7" points="70.42 65.31 110.42 65.31 110.42 59.81 70.42 59.81 70.42 65.31" />
		<rect class="cls-7" x="84.42" y="73.31" width="12" height="4" />
		<rect class="cls-7" x="150.47" y="99.8" width="40" height="5.51" />
		<path class="cls-1" d="M148.47,105.31v44h44v-44Z" />
		<rect class="cls-7" x="164.45" y="113.36" width="12" height="4" />
		<path class="cls-1" d="M68.42,65.31v44h44v-44Z" />
		<path class="cls-1" d="M148.47,105.31v44h44v-44Z" />
		<path class="cls-1" d="M68.42,65.31v44h44v-44Z" />
		<path class="cls-1" d="M148.47,105.31v44h44v-44Z" />
		<path class="cls-11" d="M68.42,65.31v44h44v-44Z" />
		<path class="cls-11" d="M148.47,105.31v44h44v-44Z" />
		<path class="cls-10" d="M214.69,106.48a91.37,91.37,0,0,1-15.49,8.87l6,9.65s10.85-5.46,15.73-9.26Z" />
		<path class="cls-9" d="M195.57,102.81s7.09-10.45,9.85-13.46l9.17,6.25s-7.2,9.35-9.17,13.39Z" />
		<polygon class="cls-7" points="214.22 84.25 204.02 76.69 215.1 62.13 225.06 69.69 214.22 84.25" />
		<path class="cls-8" d="M106.15,134.58a63.86,63.86,0,0,0,18.8-8.9l7.18,10.15s-12.31,7.72-19.56,9.31Z" />
		<path class="cls-8" d="M20.07,99.84a64.15,64.15,0,0,0,18.81-8.91l7.17,10.16s-12.31,7.72-19.56,9.3Z" />
		<path class="cls-3" d="M153.75,105.35H177.2a11.72,11.72,0,0,0-9.68-11.54,8.91,8.91,0,0,0-5-4.87c-.19-.07-.91-.29-1.08-.36a5.9,5.9,0,0,1,4.31-11l.54.23A1.51,1.51,0,1,0,167.4,75l-.52-.23a8.93,8.93,0,1,0-6.52,16.62c.19.07.91.29,1.08.36A5.88,5.88,0,0,1,164,93.67a10.75,10.75,0,0,0-5.9,2.61A11.67,11.67,0,0,0,153.75,105.35Z" />
		<path class="cls-8" d="M99.66,65.12l.24-.84a63.79,63.79,0,0,1-18.71-9.11l-3.61,10Z" />
		<polygon class="cls-7" points="101.22 65.12 108.73 57.81 100.1 48.77 86.84 61.39 90.49 65.12 101.22 65.12" />
		<path class="cls-10" d="M57.48,41.86a92,92,0,0,1,15.63,8.62l5.16-10.09S68,34,62.18,31.75Z" />
		<circle class="cls-3" cx="156.34" cy="113.08" r="2" />
		<circle class="cls-3" cx="159.94" cy="113.2" r="0.87" />
		<circle class="cls-3" cx="158.99" cy="110.69" r="0.88" />
		<circle class="cls-3" cx="156.61" cy="109.5" r="0.88" />
		<circle class="cls-12" cx="141.21" cy="129.92" r="2" />
		<circle class="cls-12" cx="142.16" cy="126.44" r="0.87" />
		<circle class="cls-12" cx="139.5" cy="126.79" r="0.87" />
		<circle class="cls-12" cx="137.79" cy="128.83" r="0.88" />
	</g>
</svg>
