<svg width="200" height="72" viewBox="0 0 200 72" fill="none" xmlns="http://www.w3.org/2000/svg">
<circle opacity="0.25" cx="141" cy="48" r="24" fill="#FC9D03"/>
<path fill-rule="evenodd" clip-rule="evenodd" d="M151.691 53.314L142.927 38.4668C142.523 37.7834 141.802 37.375 141 37.375C140.197 37.375 139.477 37.7827 139.072 38.4668L130.309 53.3133C129.896 54.0118 129.897 54.8444 130.314 55.5415C130.719 56.2201 131.438 56.625 132.237 56.625H149.763C150.562 56.625 151.281 56.2201 151.686 55.5415C151.895 55.1929 151.999 54.8107 151.999 54.4277C152 54.0455 151.898 53.6626 151.691 53.314ZM141.062 42.875C141.477 42.875 141.812 43.2108 141.812 43.625V49C141.812 49.4142 141.477 49.75 141.062 49.75C140.648 49.75 140.312 49.4142 140.312 49V43.625C140.312 43.2108 140.648 42.875 141.062 42.875ZM141.062 52.625C141.477 52.625 141.812 52.2892 141.812 51.875C141.812 51.4608 141.477 51.125 141.062 51.125C140.648 51.125 140.312 51.4608 140.312 51.875C140.312 52.2892 140.648 52.625 141.062 52.625Z" fill="#D97F00"/>
<path fill-rule="evenodd" clip-rule="evenodd" d="M98.9263 4.04736C98.9263 3.77122 99.1501 3.54736 99.4263 3.54736H102.974C103.25 3.54736 103.474 3.77122 103.474 4.04736C103.474 4.32351 103.25 4.54736 102.974 4.54736H99.4263C99.1501 4.54736 98.9263 4.32351 98.9263 4.04736Z" fill="#D97F00"/>
<path opacity="0.1" d="M62.2734 8.33691C61.1689 8.33691 60.2734 9.23234 60.2734 10.3369V45.7474C60.2734 46.852 61.1689 47.7474 62.2734 47.7474H76.3304C74.9127 46.65 74 44.9316 74 43.0001V41.0001C73.4477 41.0001 73 40.5523 73 40.0001C73 39.4478 73.4477 39.0001 74 39.0001V33.0001C74 29.6864 76.6863 27.0001 80 27.0001C83.3137 27.0001 86 29.6864 86 33.0001V39.0001C86.5523 39.0001 87 39.4478 87 40.0001C87 40.5523 86.5523 41.0001 86 41.0001V43.0001C86 44.9316 85.0873 46.65 83.6696 47.7474H117.001C117.13 35.2488 126.813 25.0393 139.094 24.0746V10.3369C139.094 9.23234 138.199 8.33691 137.094 8.33691H62.2734Z" fill="#FFC14F"/>
<path d="M135.368 1H64C61.2386 1 59 3.23858 59 6.00001V48.5684C59 51.3298 61.2386 53.5684 64 53.5684H75V54.5684H64C60.6863 54.5684 58 51.8821 58 48.5684V6.00001C58 2.6863 60.6863 0 64 0H135.368C138.682 0 141.368 2.68629 141.368 6V24.0028C141.246 24.0009 141.123 24 141 24C140.789 24 140.578 24.0027 140.368 24.0081V6C140.368 3.23858 138.13 1 135.368 1Z" fill="#D97F00"/>
<path d="M117.649 53.5684H85V54.5684H117.91C117.816 54.2379 117.729 53.9045 117.649 53.5684Z" fill="#D97F00"/>
<path fill-rule="evenodd" clip-rule="evenodd" d="M86 38.5C86.8284 38.5 87.5 39.1716 87.5 40C87.5 40.8284 86.8284 41.5 86 41.5V43C86 46.3137 83.3137 49 80 49C76.6863 49 74 46.3137 74 43V41.5C73.1716 41.5 72.5 40.8284 72.5 40C72.5 39.1716 73.1716 38.5 74 38.5V33C74 29.6863 76.6863 27 80 27C83.3137 27 86 29.6863 86 33V38.5ZM75 38.5H85V33C85 30.2386 82.7614 28 80 28C77.2386 28 75 30.2386 75 33V38.5ZM75 41.5V43C75 45.7614 77.2386 48 80 48C82.7614 48 85 45.7614 85 43V41.5H75ZM86.5 40C86.5 39.7239 86.2761 39.5 86 39.5H74C73.7239 39.5 73.5 39.7239 73.5 40C73.5 40.2761 73.7239 40.5 74 40.5H86C86.2761 40.5 86.5 40.2761 86.5 40Z" fill="#D97F00"/>
<path d="M71 42.5C71.2761 42.5 71.5 42.7239 71.5 43C71.5 45.2543 72.3955 47.4163 73.9896 49.0104C75.5837 50.6045 77.7457 51.5 80 51.5C82.2543 51.5 84.4163 50.6045 86.0104 49.0104C87.6045 47.4163 88.5 45.2543 88.5 43C88.5 42.7239 88.7239 42.5 89 42.5C89.2761 42.5 89.5 42.7239 89.5 43C89.5 45.5196 88.4991 47.9359 86.7175 49.7175C85.0541 51.3809 82.8373 52.3638 80.4999 52.4869L80.5 52.499V57.0912H86.453C86.7291 57.0912 86.953 57.315 86.953 57.5912C86.953 57.8673 86.7291 58.0912 86.453 58.0912H80.025C80.0167 58.0916 80.0084 58.0918 80 58.0918C79.9916 58.0918 79.9833 58.0916 79.975 58.0912L73.4946 58.0912C73.2185 58.0912 72.9946 57.8673 72.9946 57.5912C72.9946 57.315 73.2185 57.0912 73.4946 57.0912H79.5V52.499L79.5001 52.4869C77.1627 52.3638 74.9459 51.3809 73.2825 49.7175C71.5009 47.9359 70.5 45.5196 70.5 43C70.5 42.7239 70.7239 42.5 71 42.5Z" fill="#D97F00"/>
</svg>
