<svg width="180" height="96" viewBox="0 0 180 96" fill="none" xmlns="http://www.w3.org/2000/svg">
<path fill-rule="evenodd" clip-rule="evenodd" d="M15.6639 28.8119C16.3147 28.3225 17.107 28.0579 17.9213 28.0579H162.079C162.893 28.0579 163.685 28.3225 164.336 28.8119L170 33.0712H10L15.6639 28.8119Z" fill="#F0F0F0"/>
<path fill-rule="evenodd" clip-rule="evenodd" d="M63.7305 59.4124C63.8123 59.1512 64.0542 58.9734 64.3279 58.9734H117.339C117.612 58.9734 117.854 59.1512 117.936 59.4124L120 66.0061H61.6667L63.7305 59.4124Z" fill="#F1F1F1"/>
<path fill-rule="evenodd" clip-rule="evenodd" d="M89.9417 63.1405H90.1906V62.5892H89.9417V63.1405ZM92.2037 62.7476C92.1947 62.746 92.1137 62.7176 91.9937 62.7176C91.8318 62.7176 91.7208 62.781 91.7208 62.8662C91.7208 62.9481 91.8288 63.0133 91.9937 63.0133C92.1107 63.0133 92.1947 62.9865 92.2037 62.9832V63.1302C92.1737 63.1369 92.0867 63.1502 91.9757 63.1502C91.6968 63.1502 91.4509 63.0417 91.4509 62.8662C91.4509 62.7009 91.6728 62.5806 91.9757 62.5806C92.0927 62.5806 92.1797 62.5956 92.2037 62.6006V62.7476ZM89.5986 62.7476C89.5896 62.746 89.5086 62.7176 89.3887 62.7176C89.2267 62.7176 89.1158 62.781 89.1158 62.8662C89.1158 62.9481 89.2237 63.0133 89.3887 63.0133C89.5056 63.0133 89.5896 62.9865 89.5986 62.9832V63.1302C89.5686 63.1369 89.4847 63.1502 89.3737 63.1502C89.0918 63.1502 88.8458 63.0417 88.8458 62.8662C88.8458 62.7009 89.0678 62.5806 89.3737 62.5806C89.4907 62.5806 89.5776 62.5956 89.5986 62.6006V62.7476ZM92.9888 62.7199C92.8418 62.7199 92.7309 62.7867 92.7309 62.8652C92.7309 62.9454 92.8418 63.0106 92.9888 63.0106C93.1388 63.0106 93.2467 62.9454 93.2467 62.8652C93.2467 62.7867 93.1388 62.7199 92.9888 62.7199ZM93.5137 62.8653C93.5137 63.0223 93.2947 63.1509 92.9888 63.1509C92.6859 63.1509 92.467 63.0223 92.467 62.8653C92.467 62.7082 92.6859 62.5813 92.9888 62.5813C93.2947 62.5813 93.5137 62.7082 93.5137 62.8653ZM91.1393 62.7151C91.1363 62.7151 91.0313 62.6984 90.9443 62.6984C90.8424 62.6984 90.7884 62.7167 90.7884 62.7435C90.7884 62.7769 90.8633 62.7886 90.9053 62.7953L90.9713 62.8086C91.1363 62.837 91.2082 62.8988 91.2082 62.9657C91.2082 63.1043 90.9923 63.1511 90.8004 63.1511C90.6654 63.1511 90.5424 63.1361 90.5274 63.1344V63.0091C90.5514 63.0124 90.6564 63.0291 90.7644 63.0291C90.8903 63.0291 90.9473 63.0091 90.9473 62.9774C90.9473 62.9506 90.8963 62.9339 90.8334 62.9239C90.8214 62.9206 90.7974 62.9172 90.7824 62.9139C90.6414 62.8888 90.5244 62.8437 90.5244 62.7518C90.5244 62.6499 90.6654 62.5798 90.8963 62.5798C91.0163 62.5798 91.1303 62.5965 91.1393 62.5981V62.7151ZM88.5822 61.998C88.5822 61.9596 88.5223 61.9295 88.4563 61.9295C88.3873 61.9295 88.3333 61.9596 88.3333 61.998V62.1417C88.3333 62.1801 88.3873 62.2119 88.4563 62.2119C88.5223 62.2119 88.5822 62.1801 88.5822 62.1417V61.998ZM89.2618 61.8079C89.2618 61.7712 89.2048 61.7394 89.1359 61.7394C89.0699 61.7394 89.0129 61.7712 89.0129 61.8079V62.142C89.0129 62.1805 89.0699 62.2122 89.1359 62.2122C89.2048 62.2122 89.2618 62.1805 89.2618 62.142V61.8079ZM89.9426 61.5485C89.9426 61.5101 89.8857 61.48 89.8167 61.48C89.7507 61.48 89.6937 61.5101 89.6937 61.5485V62.2802C89.6937 62.317 89.7507 62.3487 89.8167 62.3487C89.8857 62.3487 89.9426 62.317 89.9426 62.2802V61.5485ZM90.6222 61.8079C90.6222 61.7712 90.5652 61.7394 90.4993 61.7394C90.4303 61.7394 90.3733 61.7712 90.3733 61.8079V62.142C90.3733 62.1805 90.4303 62.2122 90.4993 62.2122C90.5652 62.2122 90.6222 62.1805 90.6222 62.142V61.8079ZM91.303 61.998C91.303 61.9596 91.246 61.9295 91.177 61.9295C91.1111 61.9295 91.0541 61.9596 91.0541 61.998V62.1417C91.0541 62.1801 91.1111 62.2119 91.177 62.2119C91.246 62.2119 91.303 62.1801 91.303 62.1417V61.998ZM91.9826 61.8079C91.9826 61.7712 91.9256 61.7394 91.8567 61.7394C91.7907 61.7394 91.7337 61.7712 91.7337 61.8079V62.142C91.7337 62.1805 91.7907 62.2122 91.8567 62.2122C91.9256 62.2122 91.9826 62.1805 91.9826 62.142V61.8079ZM92.6637 61.5485C92.6637 61.5101 92.6097 61.48 92.5408 61.48C92.4718 61.48 92.4148 61.5101 92.4148 61.5485V62.2802C92.4148 62.317 92.4718 62.3487 92.5408 62.3487C92.6097 62.3487 92.6637 62.317 92.6637 62.2802V61.5485ZM93.346 61.8079C93.346 61.7712 93.289 61.7394 93.2201 61.7394C93.1511 61.7394 93.0971 61.7712 93.0971 61.8079V62.142C93.0971 62.1805 93.1511 62.2122 93.2201 62.2122C93.289 62.2122 93.346 62.1805 93.346 62.142V61.8079ZM94.0256 61.998C94.0256 61.9596 93.9686 61.9295 93.9026 61.9295C93.8337 61.9295 93.7767 61.9596 93.7767 61.998V62.1417C93.7767 62.1801 93.8337 62.2119 93.9026 62.2119C93.9686 62.2119 94.0256 62.1801 94.0256 62.1417V61.998Z" fill="#AEAEAE"/>
<rect x="61.6667" y="65.6577" width="58.3333" height="3.34222" rx="0.625978" fill="url(#paint0_linear)"/>
<rect x="61.6667" y="65.6577" width="58.3333" height="3.34222" rx="0.625978" fill="black" fill-opacity="0.04"/>
<g filter="url(#filter0_i)">
<path fill-rule="evenodd" clip-rule="evenodd" d="M11.6667 52.2889C10.745 52.2889 10 51.5419 10 50.6178V33.9067C10 32.9826 10.745 32.2356 11.6667 32.2356H168.333C169.255 32.2356 170 32.9826 170 33.9067V50.6178C170 51.5419 169.255 52.2889 168.333 52.2889H11.6667Z" fill="url(#paint1_linear)"/>
</g>
<path fill-rule="evenodd" clip-rule="evenodd" d="M14.9417 48.9257H15.1907V47.8231H14.9417V48.9257ZM17.2037 48.1398C17.1947 48.1364 17.1137 48.0796 16.9937 48.0796C16.8318 48.0796 16.7208 48.2066 16.7208 48.377C16.7208 48.5407 16.8288 48.671 16.9937 48.671C17.1107 48.671 17.1947 48.6176 17.2037 48.6109V48.9049C17.1737 48.9183 17.0867 48.945 16.9757 48.945C16.6968 48.945 16.4509 48.7278 16.4509 48.377C16.4509 48.0462 16.6728 47.8057 16.9757 47.8057C17.0927 47.8057 17.1797 47.8357 17.2037 47.8458V48.1398ZM14.5986 48.1398C14.5896 48.1364 14.5087 48.0796 14.3887 48.0796C14.2267 48.0796 14.1158 48.2066 14.1158 48.377C14.1158 48.5407 14.2237 48.671 14.3887 48.671C14.5057 48.671 14.5896 48.6176 14.5986 48.6109V48.9049C14.5686 48.9183 14.4847 48.945 14.3737 48.945C14.0918 48.945 13.8459 48.7278 13.8459 48.377C13.8459 48.0462 14.0678 47.8057 14.3737 47.8057C14.4907 47.8057 14.5776 47.8357 14.5986 47.8458V48.1398ZM17.9888 48.0844C17.8419 48.0844 17.7309 48.218 17.7309 48.3751C17.7309 48.5354 17.8419 48.6657 17.9888 48.6657C18.1388 48.6657 18.2467 48.5354 18.2467 48.3751C18.2467 48.218 18.1388 48.0844 17.9888 48.0844ZM18.5137 48.375C18.5137 48.6891 18.2948 48.9464 17.9889 48.9464C17.6859 48.9464 17.467 48.6891 17.467 48.375C17.467 48.061 17.6859 47.807 17.9889 47.807C18.2948 47.807 18.5137 48.061 18.5137 48.375ZM16.1393 48.0747C16.1363 48.0747 16.0313 48.0413 15.9443 48.0413C15.8424 48.0413 15.7884 48.078 15.7884 48.1315C15.7884 48.1983 15.8634 48.2217 15.9053 48.2351L15.9713 48.2618C16.1363 48.3186 16.2083 48.4422 16.2083 48.5759C16.2083 48.8532 15.9923 48.9467 15.8004 48.9467C15.6654 48.9467 15.5425 48.9167 15.5275 48.9133V48.6627C15.5515 48.6694 15.6564 48.7028 15.7644 48.7028C15.8904 48.7028 15.9473 48.6627 15.9473 48.5992C15.9473 48.5458 15.8964 48.5124 15.8334 48.4923C15.8214 48.4856 15.7974 48.479 15.7824 48.4723C15.6414 48.4222 15.5245 48.3319 15.5245 48.1482C15.5245 47.9444 15.6654 47.804 15.8964 47.804C16.0163 47.804 16.1303 47.8374 16.1393 47.8408V48.0747ZM13.5823 46.6406C13.5823 46.5638 13.5223 46.5036 13.4563 46.5036C13.3873 46.5036 13.3333 46.5638 13.3333 46.6406V46.928C13.3333 47.0048 13.3873 47.0683 13.4563 47.0683C13.5223 47.0683 13.5823 47.0048 13.5823 46.928V46.6406ZM14.2618 46.2604C14.2618 46.1869 14.2048 46.1234 14.1359 46.1234C14.0699 46.1234 14.0129 46.1869 14.0129 46.2604V46.9286C14.0129 47.0055 14.0699 47.0689 14.1359 47.0689C14.2048 47.0689 14.2618 47.0055 14.2618 46.9286V46.2604ZM14.9427 45.7415C14.9427 45.6646 14.8857 45.6045 14.8167 45.6045C14.7507 45.6045 14.6937 45.6646 14.6937 45.7415V47.2049C14.6937 47.2784 14.7507 47.3419 14.8167 47.3419C14.8857 47.3419 14.9427 47.2784 14.9427 47.2049V45.7415ZM15.6222 46.2604C15.6222 46.1869 15.5653 46.1234 15.4993 46.1234C15.4303 46.1234 15.3733 46.1869 15.3733 46.2604V46.9286C15.3733 47.0055 15.4303 47.0689 15.4993 47.0689C15.5653 47.0689 15.6222 47.0055 15.6222 46.9286V46.2604ZM16.303 46.6406C16.303 46.5638 16.246 46.5036 16.177 46.5036C16.1111 46.5036 16.0541 46.5638 16.0541 46.6406V46.928C16.0541 47.0048 16.1111 47.0683 16.177 47.0683C16.246 47.0683 16.303 47.0048 16.303 46.928V46.6406ZM16.9826 46.2604C16.9826 46.1869 16.9257 46.1234 16.8567 46.1234C16.7907 46.1234 16.7337 46.1869 16.7337 46.2604V46.9286C16.7337 47.0055 16.7907 47.0689 16.8567 47.0689C16.9257 47.0689 16.9826 47.0055 16.9826 46.9286V46.2604ZM17.6637 45.7415C17.6637 45.6646 17.6098 45.6045 17.5408 45.6045C17.4718 45.6045 17.4148 45.6646 17.4148 45.7415V47.2049C17.4148 47.2784 17.4718 47.3419 17.5408 47.3419C17.6098 47.3419 17.6637 47.2784 17.6637 47.2049V45.7415ZM18.346 46.2604C18.346 46.1869 18.2891 46.1234 18.2201 46.1234C18.1511 46.1234 18.0971 46.1869 18.0971 46.2604V46.9286C18.0971 47.0055 18.1511 47.0689 18.2201 47.0689C18.2891 47.0689 18.346 47.0055 18.346 46.9286V46.2604ZM19.0256 46.6406C19.0256 46.5638 18.9686 46.5036 18.9026 46.5036C18.8337 46.5036 18.7767 46.5638 18.7767 46.6406V46.928C18.7767 47.0048 18.8337 47.0683 18.9026 47.0683C18.9686 47.0683 19.0256 47.0048 19.0256 46.928V46.6406Z" fill="white"/>
<g filter="url(#filter1_i)">
<path fill-rule="evenodd" clip-rule="evenodd" d="M101.667 47.2757H78.3333C75.5717 47.2757 73.3333 45.0314 73.3333 42.2624C73.3333 39.4933 75.5717 37.249 78.3333 37.249H101.667C104.428 37.249 106.667 39.4933 106.667 42.2624C106.667 45.0314 104.428 47.2757 101.667 47.2757Z" fill="url(#paint2_linear)"/>
</g>
<path fill-rule="evenodd" clip-rule="evenodd" d="M78.3333 44.3511C77.185 44.3511 76.25 43.4136 76.25 42.2622C76.25 41.1108 77.185 40.1733 78.3333 40.1733C79.4817 40.1733 80.4167 41.1108 80.4167 42.2622C80.4167 43.4136 79.4817 44.3511 78.3333 44.3511Z" fill="#666666"/>
<path fill-rule="evenodd" clip-rule="evenodd" d="M78.3333 39.7556C76.955 39.7556 75.8333 40.8803 75.8333 42.2623C75.8333 43.6443 76.955 44.7689 78.3333 44.7689C79.7117 44.7689 80.8333 43.6443 80.8333 42.2623C80.8333 40.8803 79.7117 39.7556 78.3333 39.7556ZM78.3334 40.5912C79.255 40.5912 80 41.3381 80 42.2623C80 43.1864 79.255 43.9334 78.3334 43.9334C77.4117 43.9334 76.6667 43.1864 76.6667 42.2623C76.6667 41.3381 77.4117 40.5912 78.3334 40.5912Z" fill="black"/>
<path fill-rule="evenodd" clip-rule="evenodd" d="M85 44.3511C83.8517 44.3511 82.9167 43.4136 82.9167 42.2622C82.9167 41.1108 83.8517 40.1733 85 40.1733C86.1483 40.1733 87.0833 41.1108 87.0833 42.2622C87.0833 43.4136 86.1483 44.3511 85 44.3511Z" fill="#666666"/>
<path fill-rule="evenodd" clip-rule="evenodd" d="M85 39.7556C83.6217 39.7556 82.5 40.8803 82.5 42.2623C82.5 43.6443 83.6217 44.7689 85 44.7689C86.3783 44.7689 87.5 43.6443 87.5 42.2623C87.5 40.8803 86.3783 39.7556 85 39.7556ZM85 40.5912C85.9217 40.5912 86.6667 41.3381 86.6667 42.2623C86.6667 43.1864 85.9217 43.9334 85 43.9334C84.0783 43.9334 83.3333 43.1864 83.3333 42.2623C83.3333 41.3381 84.0783 40.5912 85 40.5912Z" fill="black"/>
<path fill-rule="evenodd" clip-rule="evenodd" d="M91.6667 44.3511C90.5183 44.3511 89.5833 43.4136 89.5833 42.2622C89.5833 41.1108 90.5183 40.1733 91.6667 40.1733C92.815 40.1733 93.75 41.1108 93.75 42.2622C93.75 43.4136 92.815 44.3511 91.6667 44.3511Z" fill="#666666"/>
<path fill-rule="evenodd" clip-rule="evenodd" d="M91.6667 39.7556C90.2883 39.7556 89.1667 40.8803 89.1667 42.2623C89.1667 43.6443 90.2883 44.7689 91.6667 44.7689C93.045 44.7689 94.1667 43.6443 94.1667 42.2623C94.1667 40.8803 93.045 39.7556 91.6667 39.7556ZM91.6666 40.5912C92.5883 40.5912 93.3333 41.3381 93.3333 42.2623C93.3333 43.1864 92.5883 43.9334 91.6666 43.9334C90.745 43.9334 90 43.1864 90 42.2623C90 41.3381 90.745 40.5912 91.6666 40.5912Z" fill="black"/>
<path fill-rule="evenodd" clip-rule="evenodd" d="M101.667 44.7689C100.288 44.7689 99.1667 43.6443 99.1667 42.2623C99.1667 40.8803 100.288 39.7556 101.667 39.7556C103.045 39.7556 104.167 40.8803 104.167 42.2623C104.167 43.6443 103.045 44.7689 101.667 44.7689Z" fill="#666666"/>
<path fill-rule="evenodd" clip-rule="evenodd" d="M101.667 38.9199C99.8283 38.9199 98.3333 40.4189 98.3333 42.2621C98.3333 44.1054 99.8283 45.6044 101.667 45.6044C103.505 45.6044 105 44.1054 105 42.2621C105 40.4189 103.505 38.9199 101.667 38.9199ZM101.667 40.591C102.588 40.591 103.333 41.338 103.333 42.2621C103.333 43.1863 102.588 43.9333 101.667 43.9333C100.745 43.9333 100 43.1863 100 42.2621C100 41.338 100.745 40.591 101.667 40.591Z" fill="url(#paint3_linear)"/>
<defs>
<filter id="filter0_i" x="10" y="32.2356" width="160" height="20.0533" filterUnits="userSpaceOnUse" color-interpolation-filters="sRGB">
<feFlood flood-opacity="0" result="BackgroundImageFix"/>
<feBlend mode="normal" in="SourceGraphic" in2="BackgroundImageFix" result="shape"/>
<feColorMatrix in="SourceAlpha" type="matrix" values="0 0 0 0 0 0 0 0 0 0 0 0 0 0 0 0 0 0 127 0" result="hardAlpha"/>
<feOffset dy="1"/>
<feComposite in2="hardAlpha" operator="arithmetic" k2="-1" k3="1"/>
<feColorMatrix type="matrix" values="0 0 0 0 1 0 0 0 0 1 0 0 0 0 1 0 0 0 0.500906 0"/>
<feBlend mode="normal" in2="shape" result="effect1_innerShadow"/>
</filter>
<filter id="filter1_i" x="73.3333" y="36.249" width="33.3333" height="11.0267" filterUnits="userSpaceOnUse" color-interpolation-filters="sRGB">
<feFlood flood-opacity="0" result="BackgroundImageFix"/>
<feBlend mode="normal" in="SourceGraphic" in2="BackgroundImageFix" result="shape"/>
<feColorMatrix in="SourceAlpha" type="matrix" values="0 0 0 0 0 0 0 0 0 0 0 0 0 0 0 0 0 0 127 0" result="hardAlpha"/>
<feOffset dy="-1"/>
<feGaussianBlur stdDeviation="2"/>
<feComposite in2="hardAlpha" operator="arithmetic" k2="-1" k3="1"/>
<feColorMatrix type="matrix" values="0 0 0 0 0 0 0 0 0 0 0 0 0 0 0 0 0 0 0.5 0"/>
<feBlend mode="normal" in2="shape" result="effect1_innerShadow"/>
</filter>
<linearGradient id="paint0_linear" x1="61.6667" y1="70.671" x2="120" y2="70.671" gradientUnits="userSpaceOnUse">
<stop stop-color="#EFEFEF"/>
<stop offset="0.0109096" stop-color="#F7F7F7"/>
<stop offset="0.0304408" stop-color="#ECEBEB"/>
<stop offset="0.977518" stop-color="#ECEBEB"/>
<stop offset="0.990534" stop-color="#F7F7F7"/>
<stop offset="1" stop-color="#EFEFEF"/>
</linearGradient>
<linearGradient id="paint1_linear" x1="10" y1="32.2356" x2="10" y2="52.2889" gradientUnits="userSpaceOnUse">
<stop stop-color="#DFDFDF"/>
<stop offset="1" stop-color="#7E7E7E"/>
</linearGradient>
<linearGradient id="paint2_linear" x1="73.3333" y1="47.2757" x2="106.667" y2="47.2757" gradientUnits="userSpaceOnUse">
<stop stop-color="#2B2B2B"/>
<stop offset="0.563674" stop-color="#4F4F4F"/>
<stop offset="0.675635" stop-color="#535353"/>
<stop offset="0.761335" stop-color="#4A4A4A"/>
<stop offset="1" stop-color="#1C1C1C"/>
</linearGradient>
<linearGradient id="paint3_linear" x1="98.3333" y1="38.9199" x2="98.3333" y2="45.6044" gradientUnits="userSpaceOnUse">
<stop stop-color="#2B2B2B"/>
<stop offset="0.491849" stop-color="#434343"/>
<stop offset="1" stop-color="#1C1C1C"/>
</linearGradient>
</defs>
</svg>
