<svg width="180" height="96" viewBox="0 0 180 96" fill="none" xmlns="http://www.w3.org/2000/svg">
<mask id="path-1-inside-1" fill="white">
<path fill-rule="evenodd" clip-rule="evenodd" d="M98.3195 3.33333C97.9534 3.33333 97.6539 3.632 97.6539 4V12C97.6539 12.368 97.9534 12.6667 98.3195 12.6667H108.97C109.336 12.6667 109.635 12.368 109.635 12V4C109.635 3.632 109.336 3.33333 108.97 3.33333H98.3195ZM108.97 14H98.3195C97.2186 14 96.3226 13.1027 96.3226 12V4C96.3226 2.89733 97.2186 2 98.3195 2H108.97C110.07 2 110.966 2.89733 110.966 4V12C110.966 13.1027 110.07 14 108.97 14Z"/>
</mask>
<path fill-rule="evenodd" clip-rule="evenodd" d="M98.3195 3.33333C97.9534 3.33333 97.6539 3.632 97.6539 4V12C97.6539 12.368 97.9534 12.6667 98.3195 12.6667H108.97C109.336 12.6667 109.635 12.368 109.635 12V4C109.635 3.632 109.336 3.33333 108.97 3.33333H98.3195ZM108.97 14H98.3195C97.2186 14 96.3226 13.1027 96.3226 12V4C96.3226 2.89733 97.2186 2 98.3195 2H108.97C110.07 2 110.966 2.89733 110.966 4V12C110.966 13.1027 110.07 14 108.97 14Z" fill="url(#paint0_linear)"/>
<path d="M98.3195 2.83333C97.6772 2.83333 97.1539 3.35594 97.1539 4H98.1539C98.1539 3.90806 98.2296 3.83333 98.3195 3.83333V2.83333ZM97.1539 4V12H98.1539V4H97.1539ZM97.1539 12C97.1539 12.6441 97.6772 13.1667 98.3195 13.1667V12.1667C98.2296 12.1667 98.1539 12.0919 98.1539 12H97.1539ZM98.3195 13.1667H108.97V12.1667H98.3195V13.1667ZM108.97 13.1667C109.612 13.1667 110.135 12.6441 110.135 12H109.135C109.135 12.0919 109.059 12.1667 108.97 12.1667V13.1667ZM110.135 12V4H109.135V12H110.135ZM110.135 4C110.135 3.35594 109.612 2.83333 108.97 2.83333V3.83333C109.059 3.83333 109.135 3.90806 109.135 4H110.135ZM108.97 2.83333H98.3195V3.83333H108.97V2.83333ZM108.97 13.5H98.3195V14.5H108.97V13.5ZM98.3195 13.5C97.4954 13.5 96.8226 12.8273 96.8226 12H95.8226C95.8226 13.3781 96.9417 14.5 98.3195 14.5V13.5ZM96.8226 12V4H95.8226V12H96.8226ZM96.8226 4C96.8226 3.17274 97.4954 2.5 98.3195 2.5V1.5C96.9417 1.5 95.8226 2.62193 95.8226 4H96.8226ZM98.3195 2.5H108.97V1.5H98.3195V2.5ZM108.97 2.5C109.794 2.5 110.466 3.17274 110.466 4H111.466C111.466 2.62193 110.347 1.5 108.97 1.5V2.5ZM110.466 4V12H111.466V4H110.466ZM110.466 12C110.466 12.8273 109.794 13.5 108.97 13.5V14.5C110.347 14.5 111.466 13.3781 111.466 12H110.466Z" fill="#EAEAEA" mask="url(#path-1-inside-1)"/>
<path fill-rule="evenodd" clip-rule="evenodd" d="M77.8515 8.33325C77.7024 8.33325 77.5653 8.23192 77.528 8.08125L76.2607 2.99992H74.783L73.5157 8.08125C73.4717 8.25859 73.2907 8.36392 73.111 8.32392C72.9339 8.27859 72.8261 8.09725 72.87 7.91859L74.2638 2.33325H76.7799L78.1737 7.91859C78.2176 8.09725 78.1098 8.27859 77.9327 8.32392C77.9048 8.33059 77.8782 8.33325 77.8515 8.33325Z" fill="#E9E9E9"/>
<mask id="path-4-inside-2" fill="white">
<path fill-rule="evenodd" clip-rule="evenodd" d="M70.1969 3.33333C69.8308 3.33333 69.5312 3.632 69.5312 4V12C69.5312 12.368 69.8308 12.6667 70.1969 12.6667H80.8469C81.213 12.6667 81.5125 12.368 81.5125 12V4C81.5125 3.632 81.213 3.33333 80.8469 3.33333H70.1969ZM80.8469 14H70.1969C69.0959 14 68.2 13.1027 68.2 12V4C68.2 2.89733 69.0959 2 70.1969 2H80.8469C81.9478 2 82.8437 2.89733 82.8437 4V12C82.8437 13.1027 81.9478 14 80.8469 14Z"/>
</mask>
<path fill-rule="evenodd" clip-rule="evenodd" d="M70.1969 3.33333C69.8308 3.33333 69.5312 3.632 69.5312 4V12C69.5312 12.368 69.8308 12.6667 70.1969 12.6667H80.8469C81.213 12.6667 81.5125 12.368 81.5125 12V4C81.5125 3.632 81.213 3.33333 80.8469 3.33333H70.1969ZM80.8469 14H70.1969C69.0959 14 68.2 13.1027 68.2 12V4C68.2 2.89733 69.0959 2 70.1969 2H80.8469C81.9478 2 82.8437 2.89733 82.8437 4V12C82.8437 13.1027 81.9478 14 80.8469 14Z" fill="url(#paint1_linear)"/>
<path d="M70.1969 2.83333C69.5545 2.83333 69.0312 3.35594 69.0312 4H70.0312C70.0312 3.90806 70.107 3.83333 70.1969 3.83333V2.83333ZM69.0312 4V12H70.0312V4H69.0312ZM69.0312 12C69.0312 12.6441 69.5545 13.1667 70.1969 13.1667V12.1667C70.107 12.1667 70.0312 12.0919 70.0312 12H69.0312ZM70.1969 13.1667H80.8469V12.1667H70.1969V13.1667ZM80.8469 13.1667C81.4892 13.1667 82.0125 12.6441 82.0125 12H81.0125C81.0125 12.0919 80.9367 12.1667 80.8469 12.1667V13.1667ZM82.0125 12V4H81.0125V12H82.0125ZM82.0125 4C82.0125 3.35594 81.4892 2.83333 80.8469 2.83333V3.83333C80.9367 3.83333 81.0125 3.90806 81.0125 4H82.0125ZM80.8469 2.83333H70.1969V3.83333H80.8469V2.83333ZM80.8469 13.5H70.1969V14.5H80.8469V13.5ZM70.1969 13.5C69.3728 13.5 68.7 12.8273 68.7 12H67.7C67.7 13.3781 68.819 14.5 70.1969 14.5V13.5ZM68.7 12V4H67.7V12H68.7ZM68.7 4C68.7 3.17274 69.3728 2.5 70.1969 2.5V1.5C68.819 1.5 67.7 2.62193 67.7 4H68.7ZM70.1969 2.5H80.8469V1.5H70.1969V2.5ZM80.8469 2.5C81.6709 2.5 82.3437 3.17274 82.3437 4H83.3437C83.3437 2.62193 82.2247 1.5 80.8469 1.5V2.5ZM82.3437 4V12H83.3437V4H82.3437ZM82.3437 12C82.3437 12.8273 81.6709 13.5 80.8469 13.5V14.5C82.2247 14.5 83.3437 13.3781 83.3437 12H82.3437Z" fill="#EAEAEA" mask="url(#path-4-inside-2)"/>
<path fill-rule="evenodd" clip-rule="evenodd" d="M105.974 8.33325C105.825 8.33325 105.688 8.23192 105.651 8.08125L104.383 2.99992H102.906L101.638 8.08125C101.594 8.25859 101.413 8.36392 101.234 8.32392C101.057 8.27859 100.949 8.09725 100.993 7.91859L102.386 2.33325H104.903L106.296 7.91859C106.34 8.09725 106.232 8.27859 106.055 8.32392C106.027 8.33059 106.001 8.33325 105.974 8.33325Z" fill="#E9E9E9"/>
<path fill-rule="evenodd" clip-rule="evenodd" d="M21.6062 57.3333V88C21.6062 89.472 22.799 90.6667 24.2687 90.6667V92H20.275L18.9437 90.6667V56L21.6062 57.3333Z" fill="url(#paint2_linear)"/>
<path fill-rule="evenodd" clip-rule="evenodd" d="M157.394 57.3333V88C157.394 89.472 156.201 90.6667 154.731 90.6667V92H158.725L160.056 90.6667V56L157.394 57.3333Z" fill="url(#paint3_linear)"/>
<path fill-rule="evenodd" clip-rule="evenodd" d="M158.725 51.4062V87.9996C158.725 89.4729 157.532 90.6662 156.062 90.6662H22.9375C21.4678 90.6662 20.275 89.4729 20.275 87.9996V51.4062C18.6908 52.3303 17.6125 54.0316 17.6125 55.9996V87.9996C17.6125 90.9449 19.9968 93.3329 22.9375 93.3329H156.062C159.003 93.3329 161.387 90.9449 161.387 87.9996V55.9996C161.387 54.0316 160.309 52.3303 158.725 51.4062Z" fill="url(#paint4_linear)"/>
<path fill-rule="evenodd" clip-rule="evenodd" d="M22.9375 96V94.6667L25.6 92H29.5938V93.3333L26.9313 96H22.9375Z" fill="url(#paint5_radial)"/>
<path fill-rule="evenodd" clip-rule="evenodd" d="M27.3213 94.276C27.0724 94.5253 26.7329 94.6667 26.3801 94.6667H22.9375V96H26.3801C26.7329 96 27.0724 95.8587 27.3213 95.6093L29.5938 93.3333V92L27.3213 94.276Z" fill="#D3D3D3"/>
<path fill-rule="evenodd" clip-rule="evenodd" d="M156.062 96V94.6667L153.4 92H149.406V93.3333L152.069 96H156.062Z" fill="url(#paint6_radial)"/>
<path fill-rule="evenodd" clip-rule="evenodd" d="M151.679 94.276C151.928 94.5253 152.267 94.6667 152.62 94.6667H156.062V96H152.62C152.267 96 151.928 95.8587 151.679 95.6093L149.406 93.3333V92L151.679 94.276Z" fill="#D3D3D3"/>
<path fill-rule="evenodd" clip-rule="evenodd" d="M110.301 12C110.301 12.736 109.706 13.3333 108.97 13.3333H98.3195C97.5833 13.3333 96.9883 12.736 96.9883 12V4C96.9883 3.264 97.5833 2.66667 98.3195 2.66667H108.97C109.706 2.66667 110.301 3.264 110.301 4V12ZM82.1781 12C82.1781 12.736 81.583 13.3333 80.8469 13.3333H70.1969C69.4607 13.3333 68.8656 12.736 68.8656 12V4C68.8656 3.264 69.4607 2.66667 70.1969 2.66667H80.8469C81.583 2.66667 82.1781 3.264 82.1781 4V12ZM158.725 0H20.275C18.8053 0 17.6125 1.19467 17.6125 2.66667V54.6667C17.6125 56.1387 18.8053 57.3333 20.275 57.3333H158.725C160.195 57.3333 161.387 56.1387 161.387 54.6667V2.66667C161.387 1.19467 160.195 0 158.725 0Z" fill="#E0E0E0"/>
<path fill-rule="evenodd" clip-rule="evenodd" d="M19.6094 53.3334H87.5031C87.8705 53.3334 88.1687 53.0347 88.1687 52.6667V15.3334C88.1687 14.9654 87.8705 14.6667 87.5031 14.6667H19.6094C19.2419 14.6667 18.9437 14.9654 18.9437 15.3334V52.6667C18.9437 53.0347 19.2419 53.3334 19.6094 53.3334ZM91.4968 53.3334H159.391C159.758 53.3334 160.056 53.0347 160.056 52.6667V15.3334C160.056 14.9654 159.758 14.6667 159.391 14.6667H91.4968C91.1294 14.6667 90.8312 14.9654 90.8312 15.3334V52.6667C90.8312 53.0347 91.1294 53.3334 91.4968 53.3334Z" fill="#222222"/>
<path fill-rule="evenodd" clip-rule="evenodd" d="M19.6094 53.3334H87.5031C87.8705 53.3334 88.1687 53.0347 88.1687 52.6667V15.3334C88.1687 14.9654 87.8705 14.6667 87.5031 14.6667H19.6094C19.2419 14.6667 18.9437 14.9654 18.9437 15.3334V52.6667C18.9437 53.0347 19.2419 53.3334 19.6094 53.3334ZM91.4968 53.3334H159.391C159.758 53.3334 160.056 53.0347 160.056 52.6667V15.3334C160.056 14.9654 159.758 14.6667 159.391 14.6667H91.4968C91.1294 14.6667 90.8312 14.9654 90.8312 15.3334V52.6667C90.8312 53.0347 91.1294 53.3334 91.4968 53.3334Z" fill="url(#paint7_linear)"/>
<path fill-rule="evenodd" clip-rule="evenodd" d="M78.1844 7.99992C78.1844 6.52792 76.9916 5.33325 75.5219 5.33325C74.0522 5.33325 72.8594 6.52792 72.8594 7.99992C72.8594 9.47192 74.0522 10.6666 75.5219 10.6666C76.9916 10.6666 78.1844 9.47192 78.1844 7.99992Z" fill="#232323"/>
<path fill-rule="evenodd" clip-rule="evenodd" d="M76.8531 8.00008C76.8531 7.26408 76.258 6.66675 75.5219 6.66675C74.7857 6.66675 74.1906 7.26408 74.1906 8.00008C74.1906 8.73608 74.7857 9.33341 75.5219 9.33341C76.258 9.33341 76.8531 8.73608 76.8531 8.00008Z" fill="#373B47"/>
<path fill-rule="evenodd" clip-rule="evenodd" d="M106.307 7.99992C106.307 6.52792 105.114 5.33325 103.645 5.33325C102.175 5.33325 100.982 6.52792 100.982 7.99992C100.982 9.47192 102.175 10.6666 103.645 10.6666C105.114 10.6666 106.307 9.47192 106.307 7.99992Z" fill="#232323"/>
<path fill-rule="evenodd" clip-rule="evenodd" d="M104.976 8.00008C104.976 7.26408 104.381 6.66675 103.645 6.66675C102.908 6.66675 102.313 7.26408 102.313 8.00008C102.313 8.73608 102.908 9.33341 103.645 9.33341C104.381 9.33341 104.976 8.73608 104.976 8.00008Z" fill="#373B47"/>
<path fill-rule="evenodd" clip-rule="evenodd" d="M88.9515 55.992H89.062V55.552H88.9515V55.992Z" fill="#908E8E"/>
<path fill-rule="evenodd" clip-rule="evenodd" d="M89.955 55.6785C89.951 55.6772 89.9151 55.6545 89.8632 55.6545C89.7899 55.6545 89.7407 55.7052 89.7407 55.7732C89.7407 55.8385 89.7873 55.8905 89.8632 55.8905C89.9137 55.8905 89.951 55.8692 89.955 55.8665V55.9838C89.9404 55.9892 89.9044 55.9998 89.8552 55.9998C89.7287 55.9998 89.6195 55.9145 89.6195 55.7732C89.6195 55.6412 89.718 55.5452 89.8552 55.5452C89.9071 55.5452 89.9444 55.5572 89.955 55.5612V55.6785Z" fill="#908E8E"/>
<path fill-rule="evenodd" clip-rule="evenodd" d="M88.7992 55.6785C88.7939 55.6772 88.7593 55.6545 88.706 55.6545C88.6328 55.6545 88.5849 55.7052 88.5849 55.7732C88.5849 55.8385 88.6315 55.8905 88.706 55.8905C88.758 55.8905 88.7939 55.8692 88.7992 55.8665V55.9838C88.7846 55.9892 88.7473 55.9998 88.698 55.9998C88.5742 55.9998 88.4637 55.9145 88.4637 55.7732C88.4637 55.6412 88.5623 55.5452 88.698 55.5452C88.75 55.5452 88.7886 55.5572 88.7992 55.5612V55.6785Z" fill="#908E8E"/>
<path fill-rule="evenodd" clip-rule="evenodd" d="M90.3034 55.6563C90.2382 55.6563 90.1889 55.7097 90.1889 55.7723C90.1889 55.8363 90.2382 55.8883 90.3034 55.8883C90.37 55.8883 90.4179 55.8363 90.4179 55.7723C90.4179 55.7097 90.37 55.6563 90.3034 55.6563ZM90.5364 55.7723C90.5364 55.8977 90.4392 56.0003 90.3034 56.0003C90.1676 56.0003 90.0718 55.8977 90.0718 55.7723C90.0718 55.647 90.1676 55.5457 90.3034 55.5457C90.4392 55.5457 90.5364 55.647 90.5364 55.7723Z" fill="#908E8E"/>
<path fill-rule="evenodd" clip-rule="evenodd" d="M89.4817 55.6524C89.4804 55.6524 89.4352 55.6391 89.3965 55.6391C89.35 55.6391 89.3273 55.6538 89.3273 55.6751C89.3273 55.7031 89.3593 55.7111 89.3779 55.7164L89.4072 55.7271C89.4804 55.7498 89.5124 55.7991 89.5124 55.8524C89.5124 55.9631 89.4165 56.0004 89.3313 56.0004C89.2727 56.0004 89.2168 55.9898 89.2115 55.9884V55.8871C89.2222 55.8898 89.2687 55.9031 89.3167 55.9031C89.3713 55.9031 89.3979 55.8871 89.3979 55.8618C89.3979 55.8404 89.3752 55.8271 89.3473 55.8191C89.3406 55.8164 89.3313 55.8138 89.3233 55.8111C89.2621 55.7911 89.2102 55.7551 89.2102 55.6818C89.2102 55.6004 89.2714 55.5444 89.3752 55.5444C89.4285 55.5444 89.4791 55.5578 89.4817 55.5591V55.6524Z" fill="#908E8E"/>
<path fill-rule="evenodd" clip-rule="evenodd" d="M88.3469 55.0801C88.3469 55.0507 88.3216 55.0254 88.2923 55.0254C88.2617 55.0254 88.2364 55.0507 88.2364 55.0801V55.1961C88.2364 55.2254 88.2617 55.2507 88.2923 55.2507C88.3216 55.2507 88.3469 55.2254 88.3469 55.1961V55.0801Z" fill="#908E8E"/>
<path fill-rule="evenodd" clip-rule="evenodd" d="M88.6485 54.9284C88.6485 54.8991 88.6232 54.8738 88.5939 54.8738C88.5647 54.8738 88.5394 54.8991 88.5394 54.9284V55.1964C88.5394 55.2258 88.5647 55.2511 88.5939 55.2511C88.6232 55.2511 88.6485 55.2258 88.6485 55.1964V54.9284Z" fill="#908E8E"/>
<path fill-rule="evenodd" clip-rule="evenodd" d="M88.9514 54.7214C88.9514 54.6907 88.9248 54.6667 88.8955 54.6667C88.8662 54.6667 88.8409 54.6907 88.8409 54.7214V55.3054C88.8409 55.3361 88.8662 55.3601 88.8955 55.3601C88.9248 55.3601 88.9514 55.3361 88.9514 55.3054V54.7214Z" fill="#908E8E"/>
<path fill-rule="evenodd" clip-rule="evenodd" d="M89.253 54.9284C89.253 54.8991 89.2277 54.8738 89.1985 54.8738C89.1678 54.8738 89.1425 54.8991 89.1425 54.9284V55.1964C89.1425 55.2258 89.1678 55.2511 89.1985 55.2511C89.2277 55.2511 89.253 55.2258 89.253 55.1964V54.9284Z" fill="#908E8E"/>
<path fill-rule="evenodd" clip-rule="evenodd" d="M89.5559 55.0801C89.5559 55.0507 89.5293 55.0254 89.5 55.0254C89.4707 55.0254 89.4441 55.0507 89.4441 55.0801V55.1961C89.4441 55.2254 89.4707 55.2507 89.5 55.2507C89.5293 55.2507 89.5559 55.2254 89.5559 55.1961V55.0801Z" fill="#908E8E"/>
<path fill-rule="evenodd" clip-rule="evenodd" d="M89.8576 54.9284C89.8576 54.8991 89.8323 54.8738 89.8017 54.8738C89.7724 54.8738 89.7471 54.8991 89.7471 54.9284V55.1964C89.7471 55.2258 89.7724 55.2511 89.8017 55.2511C89.8323 55.2511 89.8576 55.2258 89.8576 55.1964V54.9284Z" fill="#908E8E"/>
<path fill-rule="evenodd" clip-rule="evenodd" d="M90.1591 54.7214C90.1591 54.6907 90.1338 54.6667 90.1045 54.6667C90.0752 54.6667 90.0499 54.6907 90.0499 54.7214V55.3054C90.0499 55.3361 90.0752 55.3601 90.1045 55.3601C90.1338 55.3601 90.1591 55.3361 90.1591 55.3054V54.7214Z" fill="#908E8E"/>
<path fill-rule="evenodd" clip-rule="evenodd" d="M90.4621 54.9284C90.4621 54.8991 90.4368 54.8738 90.4062 54.8738C90.3769 54.8738 90.3516 54.8991 90.3516 54.9284V55.1964C90.3516 55.2258 90.3769 55.2511 90.4062 55.2511C90.4368 55.2511 90.4621 55.2258 90.4621 55.1964V54.9284Z" fill="#908E8E"/>
<path fill-rule="evenodd" clip-rule="evenodd" d="M90.7636 55.0801C90.7636 55.0507 90.7383 55.0254 90.709 55.0254C90.6784 55.0254 90.6531 55.0507 90.6531 55.0801V55.1961C90.6531 55.2254 90.6784 55.2507 90.709 55.2507C90.7383 55.2507 90.7636 55.2254 90.7636 55.1961V55.0801Z" fill="#908E8E"/>
<defs>
<linearGradient id="paint0_linear" x1="96.3226" y1="2" x2="96.3226" y2="14" gradientUnits="userSpaceOnUse">
<stop stop-color="#EFEFEF"/>
<stop offset="0.506076" stop-color="white"/>
<stop offset="1" stop-color="#EFEFEF"/>
</linearGradient>
<linearGradient id="paint1_linear" x1="68.2" y1="2" x2="68.2" y2="14" gradientUnits="userSpaceOnUse">
<stop stop-color="#EFEFEF"/>
<stop offset="0.506076" stop-color="white"/>
<stop offset="1" stop-color="#EFEFEF"/>
</linearGradient>
<linearGradient id="paint2_linear" x1="18.9455" y1="56" x2="18.9455" y2="91.9756" gradientUnits="userSpaceOnUse">
<stop stop-color="#B1B1B1"/>
<stop offset="0.278382" stop-color="#C9C9C9"/>
<stop offset="0.514141" stop-color="#D6D6D6"/>
<stop offset="0.743587" stop-color="#C9C9C9"/>
<stop offset="0.953577" stop-color="#ECECEC"/>
<stop offset="0.999932" stop-color="#B1B1B1"/>
</linearGradient>
<linearGradient id="paint3_linear" x1="154.733" y1="56" x2="154.733" y2="91.9756" gradientUnits="userSpaceOnUse">
<stop stop-color="#B1B1B1"/>
<stop offset="0.278382" stop-color="#C9C9C9"/>
<stop offset="0.514141" stop-color="#D6D6D6"/>
<stop offset="0.743587" stop-color="#C9C9C9"/>
<stop offset="0.953577" stop-color="#ECECEC"/>
<stop offset="0.999932" stop-color="#B1B1B1"/>
</linearGradient>
<linearGradient id="paint4_linear" x1="17.632" y1="51.4062" x2="17.632" y2="93.3216" gradientUnits="userSpaceOnUse">
<stop stop-color="#CFCFCF"/>
<stop offset="0.470308" stop-color="#F1F1F1"/>
<stop offset="0.999932" stop-color="#D9D9D9"/>
</linearGradient>
<radialGradient id="paint5_radial" cx="0" cy="0" r="1" gradientUnits="userSpaceOnUse" gradientTransform="translate(27.116 100.221) rotate(24.0092) scale(4.91541 3.819)">
<stop stop-color="#9C9C9C"/>
<stop offset="0.528236" stop-color="#E8E8E8"/>
<stop offset="1" stop-color="#E8E8E8"/>
</radialGradient>
<radialGradient id="paint6_radial" cx="0" cy="0" r="1" gradientUnits="userSpaceOnUse" gradientTransform="translate(153.585 100.221) rotate(24.0092) scale(4.91541 3.819)">
<stop stop-color="#9C9C9C"/>
<stop offset="0.528236" stop-color="#E8E8E8"/>
<stop offset="1" stop-color="#E8E8E8"/>
</radialGradient>
<linearGradient id="paint7_linear" x1="-70.1899" y1="-9.72738" x2="-66.3833" y2="68.3966" gradientUnits="userSpaceOnUse">
<stop stop-color="white" stop-opacity="0.24"/>
<stop offset="1" stop-opacity="0.5"/>
</linearGradient>
</defs>
</svg>
