<svg width="180" height="96" viewBox="0 0 180 96" fill="none" xmlns="http://www.w3.org/2000/svg">
<path fill-rule="evenodd" clip-rule="evenodd" d="M56.2187 54.6666V87.9999C56.2187 89.4719 57.4115 90.6666 58.8812 90.6666V91.9999H54.8875L53.5562 90.6666V53.3333L56.2187 54.6666Z" fill="url(#paint0_linear)"/>
<path fill-rule="evenodd" clip-rule="evenodd" d="M125.444 54.6666V87.9999C125.444 89.4719 124.251 90.6666 122.781 90.6666V91.9999H126.775L128.106 90.6666V53.3333L125.444 54.6666Z" fill="url(#paint1_linear)"/>
<path fill-rule="evenodd" clip-rule="evenodd" d="M126.68 87.9997C126.68 89.473 125.444 90.6663 123.922 90.6663H57.7402C56.218 90.6663 54.9826 89.473 54.9826 87.9997V46.073C53.3418 46.997 52.225 48.6983 52.225 50.6663V87.9997C52.225 90.945 54.6944 93.333 57.7402 93.333H123.922C126.968 93.333 129.437 90.945 129.437 87.9997V50.6663C129.437 48.6983 128.321 46.997 126.68 46.073V87.9997Z" fill="url(#paint2_linear)"/>
<path fill-rule="evenodd" clip-rule="evenodd" d="M126.68 0H54.9826C53.4604 0 52.225 1.16688 52.225 2.60465V53.3953C52.225 54.8331 53.4604 56 54.9826 56H126.68C128.202 56 129.437 54.8331 129.437 53.3953V2.60465C129.437 1.16688 128.202 0 126.68 0Z" fill="#E0E0E0"/>
<rect x="88.1687" y="2.66675" width="6.65625" height="2.66667" rx="1.33333" fill="url(#paint3_linear)"/>
<rect x="88.5847" y="3.11108" width="2.91211" height="1.77778" rx="0.888889" fill="#232323"/>
<ellipse cx="89.4168" cy="4.00011" rx="0.416016" ry="0.444444" fill="#494E5C"/>
<rect x="92.3289" y="3.11108" width="1.66406" height="1.77778" rx="0.832031" fill="#232323"/>
<ellipse cx="93.111" cy="4.00011" rx="0.416016" ry="0.444444" fill="#494E5C"/>
<path fill-rule="evenodd" clip-rule="evenodd" d="M89.4535 53.3166H89.6523V52.4369H89.4535V53.3166ZM91.2602 52.6896C91.253 52.6869 91.1883 52.6416 91.0925 52.6416C90.9631 52.6416 90.8745 52.7429 90.8745 52.8789C90.8745 53.0095 90.9607 53.1135 91.0925 53.1135C91.1859 53.1135 91.253 53.0708 91.2602 53.0655V53.3001C91.2362 53.3108 91.1667 53.3321 91.0781 53.3321C90.8553 53.3321 90.6589 53.1588 90.6589 52.8789C90.6589 52.615 90.8362 52.423 91.0781 52.423C91.1715 52.423 91.241 52.447 91.2602 52.455V52.6896ZM89.1794 52.6896C89.1722 52.6869 89.1075 52.6416 89.0117 52.6416C88.8824 52.6416 88.7937 52.7429 88.7937 52.8789C88.7937 53.0095 88.88 53.1135 89.0117 53.1135C89.1051 53.1135 89.1722 53.0708 89.1794 53.0655V53.3001C89.1555 53.3108 89.0884 53.3321 88.9997 53.3321C88.7746 53.3321 88.5781 53.1588 88.5781 52.8789C88.5781 52.615 88.7554 52.423 88.9997 52.423C89.0932 52.423 89.1626 52.447 89.1794 52.455V52.6896ZM91.8873 52.6454C91.7699 52.6454 91.6813 52.752 91.6813 52.8773C91.6813 53.0052 91.7699 53.1092 91.8873 53.1092C92.0071 53.1092 92.0933 53.0052 92.0933 52.8773C92.0933 52.752 92.0071 52.6454 91.8873 52.6454ZM92.3065 52.8773C92.3065 53.1279 92.1317 53.3331 91.8873 53.3331C91.6454 53.3331 91.4705 53.1279 91.4705 52.8773C91.4705 52.6267 91.6454 52.4241 91.8873 52.4241C92.1317 52.4241 92.3065 52.6267 92.3065 52.8773ZM90.41 52.6376C90.4076 52.6376 90.3238 52.611 90.2543 52.611C90.1728 52.611 90.1297 52.6403 90.1297 52.6829C90.1297 52.7363 90.1896 52.7549 90.2231 52.7656L90.2758 52.7869C90.4076 52.8322 90.4651 52.9309 90.4651 53.0375C90.4651 53.2588 90.2926 53.3334 90.1393 53.3334C90.0315 53.3334 89.9333 53.3094 89.9213 53.3068V53.1068C89.9405 53.1121 90.0243 53.1388 90.1105 53.1388C90.2112 53.1388 90.2567 53.1068 90.2567 53.0562C90.2567 53.0135 90.216 52.9869 90.1656 52.9709C90.1561 52.9655 90.1369 52.9602 90.1249 52.9549C90.0123 52.9149 89.9189 52.8429 89.9189 52.6963C89.9189 52.5337 90.0315 52.4217 90.216 52.4217C90.3118 52.4217 90.4028 52.4483 90.41 52.451V52.6376ZM88.3676 51.4934C88.3676 51.4321 88.3197 51.3841 88.2669 51.3841C88.2119 51.3841 88.1687 51.4321 88.1687 51.4934V51.7227C88.1687 51.784 88.2119 51.8347 88.2669 51.8347C88.3197 51.8347 88.3676 51.784 88.3676 51.7227V51.4934ZM88.9104 51.1901C88.9104 51.1314 88.8649 51.0808 88.8098 51.0808C88.7571 51.0808 88.7116 51.1314 88.7116 51.1901V51.7232C88.7116 51.7845 88.7571 51.8352 88.8098 51.8352C88.8649 51.8352 88.9104 51.7845 88.9104 51.7232V51.1901ZM89.4542 50.776C89.4542 50.7147 89.4087 50.6667 89.3536 50.6667C89.3009 50.6667 89.2553 50.7147 89.2553 50.776V51.9437C89.2553 52.0023 89.3009 52.053 89.3536 52.053C89.4087 52.053 89.4542 52.0023 89.4542 51.9437V50.776ZM89.997 51.1901C89.997 51.1314 89.9515 51.0808 89.8988 51.0808C89.8437 51.0808 89.7982 51.1314 89.7982 51.1901V51.7232C89.7982 51.7845 89.8437 51.8352 89.8988 51.8352C89.9515 51.8352 89.997 51.7845 89.997 51.7232V51.1901ZM90.5408 51.4934C90.5408 51.4321 90.4953 51.3841 90.4402 51.3841C90.3875 51.3841 90.342 51.4321 90.342 51.4934V51.7227C90.342 51.784 90.3875 51.8347 90.4402 51.8347C90.4953 51.8347 90.5408 51.784 90.5408 51.7227V51.4934ZM91.0836 51.1901C91.0836 51.1314 91.0381 51.0808 90.983 51.0808C90.9303 51.0808 90.8848 51.1314 90.8848 51.1901V51.7232C90.8848 51.7845 90.9303 51.8352 90.983 51.8352C91.0381 51.8352 91.0836 51.7845 91.0836 51.7232V51.1901ZM91.6276 50.776C91.6276 50.7147 91.5845 50.6667 91.5294 50.6667C91.4743 50.6667 91.4288 50.7147 91.4288 50.776V51.9437C91.4288 52.0023 91.4743 52.053 91.5294 52.053C91.5845 52.053 91.6276 52.0023 91.6276 51.9437V50.776ZM92.1726 51.1901C92.1726 51.1314 92.1271 51.0808 92.072 51.0808C92.0169 51.0808 91.9738 51.1314 91.9738 51.1901V51.7232C91.9738 51.7845 92.0169 51.8352 92.072 51.8352C92.1271 51.8352 92.1726 51.7845 92.1726 51.7232V51.1901ZM92.7155 51.4934C92.7155 51.4321 92.6699 51.3841 92.6172 51.3841C92.5621 51.3841 92.5166 51.4321 92.5166 51.4934V51.7227C92.5166 51.784 92.5621 51.8347 92.6172 51.8347C92.6699 51.8347 92.7155 51.784 92.7155 51.7227V51.4934Z" fill="#908E8E"/>
<path fill-rule="evenodd" clip-rule="evenodd" d="M127.389 48H54.2731C53.8774 48 53.5562 47.68 53.5562 47.2857V8.71429C53.5562 8.32 53.8774 8 54.2731 8H127.389C127.785 8 128.106 8.32 128.106 8.71429V47.2857C128.106 47.68 127.785 48 127.389 48Z" fill="#222222"/>
<path fill-rule="evenodd" clip-rule="evenodd" d="M127.389 48H54.2731C53.8774 48 53.5562 47.68 53.5562 47.2857V8.71429C53.5562 8.32 53.8774 8 54.2731 8H127.389C127.785 8 128.106 8.32 128.106 8.71429V47.2857C128.106 47.68 127.785 48 127.389 48Z" fill="url(#paint4_linear)"/>
<path fill-rule="evenodd" clip-rule="evenodd" d="M57.55 96V94.6667L60.2125 92H64.2062V93.3333L61.5437 96H57.55Z" fill="url(#paint5_radial)"/>
<path fill-rule="evenodd" clip-rule="evenodd" d="M61.9338 94.276C61.6848 94.5253 61.3454 94.6667 60.9926 94.6667H57.55V96H60.9926C61.3454 96 61.6848 95.8587 61.9338 95.6093L64.2062 93.3333V92L61.9338 94.276Z" fill="#D3D3D3"/>
<path fill-rule="evenodd" clip-rule="evenodd" d="M121.45 96V94.6667L118.787 92H114.794V93.3333L117.456 96H121.45Z" fill="url(#paint6_radial)"/>
<path fill-rule="evenodd" clip-rule="evenodd" d="M117.066 94.276C117.315 94.5253 117.655 94.6667 118.007 94.6667H121.45V96H118.007C117.655 96 117.315 95.8587 117.066 95.6093L114.794 93.3333V92L117.066 94.276Z" fill="#D3D3D3"/>
<defs>
<linearGradient id="paint0_linear" x1="53.558" y1="53.3333" x2="53.558" y2="91.9737" gradientUnits="userSpaceOnUse">
<stop stop-color="#B1B1B1"/>
<stop offset="0.278382" stop-color="#C9C9C9"/>
<stop offset="0.514141" stop-color="#D6D6D6"/>
<stop offset="0.743587" stop-color="#C9C9C9"/>
<stop offset="0.953577" stop-color="#ECECEC"/>
<stop offset="0.999932" stop-color="#B1B1B1"/>
</linearGradient>
<linearGradient id="paint1_linear" x1="122.783" y1="53.3333" x2="122.783" y2="91.9737" gradientUnits="userSpaceOnUse">
<stop stop-color="#B1B1B1"/>
<stop offset="0.278382" stop-color="#C9C9C9"/>
<stop offset="0.514141" stop-color="#D6D6D6"/>
<stop offset="0.743587" stop-color="#C9C9C9"/>
<stop offset="0.953577" stop-color="#ECECEC"/>
<stop offset="0.999932" stop-color="#B1B1B1"/>
</linearGradient>
<linearGradient id="paint2_linear" x1="52.2354" y1="46.073" x2="52.2354" y2="93.3202" gradientUnits="userSpaceOnUse">
<stop stop-color="#CFCFCF"/>
<stop offset="0.470308" stop-color="#F1F1F1"/>
<stop offset="0.999932" stop-color="#D9D9D9"/>
</linearGradient>
<linearGradient id="paint3_linear" x1="88.4114" y1="2.76326" x2="88.4114" y2="5.23545" gradientUnits="userSpaceOnUse">
<stop stop-color="#333333"/>
<stop offset="1" stop-color="#3E3E3E"/>
</linearGradient>
<linearGradient id="paint4_linear" x1="16.2812" y1="28" x2="49.6104" y2="90.1172" gradientUnits="userSpaceOnUse">
<stop stop-color="white" stop-opacity="0.24"/>
<stop offset="1" stop-opacity="0.5"/>
</linearGradient>
<radialGradient id="paint5_radial" cx="0" cy="0" r="1" gradientUnits="userSpaceOnUse" gradientTransform="translate(61.7285 100.221) rotate(24.0092) scale(4.91541 3.819)">
<stop stop-color="#9C9C9C"/>
<stop offset="0.528236" stop-color="#E8E8E8"/>
<stop offset="1" stop-color="#E8E8E8"/>
</radialGradient>
<radialGradient id="paint6_radial" cx="0" cy="0" r="1" gradientUnits="userSpaceOnUse" gradientTransform="translate(118.972 100.221) rotate(24.0092) scale(4.91541 3.819)">
<stop stop-color="#9C9C9C"/>
<stop offset="0.528236" stop-color="#E8E8E8"/>
<stop offset="1" stop-color="#E8E8E8"/>
</radialGradient>
</defs>
</svg>
