<svg width="180" height="96" viewBox="0 0 180 96" fill="none" xmlns="http://www.w3.org/2000/svg">
<path fill-rule="evenodd" clip-rule="evenodd" d="M92.2172 8.33325C92.0681 8.33325 91.931 8.23192 91.8937 8.08125L90.6263 2.99992H89.1486L87.8813 8.08125C87.8374 8.25859 87.6563 8.36392 87.4766 8.32392C87.2995 8.27859 87.1917 8.09725 87.2356 7.91859L88.6295 2.33325H91.1455L92.5393 7.91859C92.5833 8.09725 92.4754 8.27859 92.2984 8.32392C92.2704 8.33059 92.2438 8.33325 92.2172 8.33325Z" fill="#E9E9E9"/>
<mask id="path-2-inside-1" fill="white">
<path fill-rule="evenodd" clip-rule="evenodd" d="M84.5625 3.33333C84.1964 3.33333 83.8969 3.632 83.8969 4V12C83.8969 12.368 84.1964 12.6667 84.5625 12.6667H95.2125C95.5786 12.6667 95.8781 12.368 95.8781 12V4C95.8781 3.632 95.5786 3.33333 95.2125 3.33333H84.5625ZM95.2125 14H84.5625C83.4615 14 82.5656 13.1027 82.5656 12V4C82.5656 2.89733 83.4615 2 84.5625 2H95.2125C96.3134 2 97.2094 2.89733 97.2094 4V12C97.2094 13.1027 96.3134 14 95.2125 14Z"/>
</mask>
<path fill-rule="evenodd" clip-rule="evenodd" d="M84.5625 3.33333C84.1964 3.33333 83.8969 3.632 83.8969 4V12C83.8969 12.368 84.1964 12.6667 84.5625 12.6667H95.2125C95.5786 12.6667 95.8781 12.368 95.8781 12V4C95.8781 3.632 95.5786 3.33333 95.2125 3.33333H84.5625ZM95.2125 14H84.5625C83.4615 14 82.5656 13.1027 82.5656 12V4C82.5656 2.89733 83.4615 2 84.5625 2H95.2125C96.3134 2 97.2094 2.89733 97.2094 4V12C97.2094 13.1027 96.3134 14 95.2125 14Z" fill="url(#paint0_linear)"/>
<path d="M84.5625 2.83333C83.9202 2.83333 83.3969 3.35594 83.3969 4H84.3969C84.3969 3.90806 84.4726 3.83333 84.5625 3.83333V2.83333ZM83.3969 4V12H84.3969V4H83.3969ZM83.3969 12C83.3969 12.6441 83.9202 13.1667 84.5625 13.1667V12.1667C84.4726 12.1667 84.3969 12.0919 84.3969 12H83.3969ZM84.5625 13.1667H95.2125V12.1667H84.5625V13.1667ZM95.2125 13.1667C95.8548 13.1667 96.3781 12.6441 96.3781 12H95.3781C95.3781 12.0919 95.3024 12.1667 95.2125 12.1667V13.1667ZM96.3781 12V4H95.3781V12H96.3781ZM96.3781 4C96.3781 3.35594 95.8548 2.83333 95.2125 2.83333V3.83333C95.3024 3.83333 95.3781 3.90806 95.3781 4H96.3781ZM95.2125 2.83333H84.5625V3.83333H95.2125V2.83333ZM95.2125 13.5H84.5625V14.5H95.2125V13.5ZM84.5625 13.5C83.7384 13.5 83.0656 12.8273 83.0656 12H82.0656C82.0656 13.3781 83.1847 14.5 84.5625 14.5V13.5ZM83.0656 12V4H82.0656V12H83.0656ZM83.0656 4C83.0656 3.17274 83.7384 2.5 84.5625 2.5V1.5C83.1847 1.5 82.0656 2.62193 82.0656 4H83.0656ZM84.5625 2.5H95.2125V1.5H84.5625V2.5ZM95.2125 2.5C96.0366 2.5 96.7094 3.17274 96.7094 4H97.7094C97.7094 2.62193 96.5903 1.5 95.2125 1.5V2.5ZM96.7094 4V12H97.7094V4H96.7094ZM96.7094 12C96.7094 12.8273 96.0366 13.5 95.2125 13.5V14.5C96.5903 14.5 97.7094 13.3781 97.7094 12H96.7094Z" fill="#EAEAEA" mask="url(#path-2-inside-1)"/>
<path fill-rule="evenodd" clip-rule="evenodd" d="M21.9937 57.3333V88C21.9937 89.472 23.1865 90.6667 24.6562 90.6667V92H20.6625L19.3312 90.6667V56L21.9937 57.3333Z" fill="url(#paint1_linear)"/>
<path fill-rule="evenodd" clip-rule="evenodd" d="M157.781 57.3333V88C157.781 89.472 156.588 90.6667 155.119 90.6667V92H159.112L160.444 90.6667V56L157.781 57.3333Z" fill="url(#paint2_linear)"/>
<path fill-rule="evenodd" clip-rule="evenodd" d="M159.113 51.4062V87.9996C159.113 89.4729 157.92 90.6662 156.45 90.6662H23.325C21.8553 90.6662 20.6625 89.4729 20.6625 87.9996V51.4062C19.0783 52.3303 18 54.0316 18 55.9996V87.9996C18 90.9449 20.3843 93.3329 23.325 93.3329H156.45C159.391 93.3329 161.775 90.9449 161.775 87.9996V55.9996C161.775 54.0316 160.697 52.3303 159.113 51.4062Z" fill="url(#paint3_linear)"/>
<path fill-rule="evenodd" clip-rule="evenodd" d="M23.325 96V94.6667L25.9875 92H29.9813V93.3333L27.3188 96H23.325Z" fill="url(#paint4_radial)"/>
<path fill-rule="evenodd" clip-rule="evenodd" d="M27.7088 94.276C27.4599 94.5253 27.1204 94.6667 26.7676 94.6667H23.325V96H26.7676C27.1204 96 27.4599 95.8587 27.7088 95.6093L29.9813 93.3333V92L27.7088 94.276Z" fill="#D3D3D3"/>
<path fill-rule="evenodd" clip-rule="evenodd" d="M156.45 96V94.6667L153.788 92H149.794V93.3333L152.456 96H156.45Z" fill="url(#paint5_radial)"/>
<path fill-rule="evenodd" clip-rule="evenodd" d="M152.066 94.276C152.315 94.5253 152.655 94.6667 153.007 94.6667H156.45V96H153.007C152.655 96 152.315 95.8587 152.066 95.6093L149.794 93.3333V92L152.066 94.276Z" fill="#D3D3D3"/>
<path fill-rule="evenodd" clip-rule="evenodd" d="M96.5437 12C96.5437 12.736 95.9487 13.3333 95.2125 13.3333H84.5625C83.8263 13.3333 83.2312 12.736 83.2312 12V4C83.2312 3.264 83.8263 2.66667 84.5625 2.66667H95.2125C95.9487 2.66667 96.5437 3.264 96.5437 4V12ZM159.113 0H20.6625C19.1928 0 18 1.19467 18 2.66667V54.6667C18 56.1387 19.1928 57.3333 20.6625 57.3333H159.113C160.582 57.3333 161.775 56.1387 161.775 54.6667V2.66667C161.775 1.19467 160.582 0 159.113 0Z" fill="#E0E0E0"/>
<path fill-rule="evenodd" clip-rule="evenodd" d="M19.9969 53.3334H87.8906C88.258 53.3334 88.5562 53.0347 88.5562 52.6667V15.3334C88.5562 14.9654 88.258 14.6667 87.8906 14.6667H19.9969C19.6294 14.6667 19.3312 14.9654 19.3312 15.3334V52.6667C19.3312 53.0347 19.6294 53.3334 19.9969 53.3334ZM91.8844 53.3334H159.778C160.146 53.3334 160.444 53.0347 160.444 52.6667V15.3334C160.444 14.9654 160.146 14.6667 159.778 14.6667H91.8844C91.5169 14.6667 91.2187 14.9654 91.2187 15.3334V52.6667C91.2187 53.0347 91.5169 53.3334 91.8844 53.3334Z" fill="#222222"/>
<path fill-rule="evenodd" clip-rule="evenodd" d="M19.9969 53.3334H87.8906C88.258 53.3334 88.5562 53.0347 88.5562 52.6667V15.3334C88.5562 14.9654 88.258 14.6667 87.8906 14.6667H19.9969C19.6294 14.6667 19.3312 14.9654 19.3312 15.3334V52.6667C19.3312 53.0347 19.6294 53.3334 19.9969 53.3334ZM91.8844 53.3334H159.778C160.146 53.3334 160.444 53.0347 160.444 52.6667V15.3334C160.444 14.9654 160.146 14.6667 159.778 14.6667H91.8844C91.5169 14.6667 91.2187 14.9654 91.2187 15.3334V52.6667C91.2187 53.0347 91.5169 53.3334 91.8844 53.3334Z" fill="url(#paint6_linear)"/>
<path fill-rule="evenodd" clip-rule="evenodd" d="M92.55 7.99992C92.55 6.52792 91.3572 5.33325 89.8875 5.33325C88.4178 5.33325 87.225 6.52792 87.225 7.99992C87.225 9.47192 88.4178 10.6666 89.8875 10.6666C91.3572 10.6666 92.55 9.47192 92.55 7.99992Z" fill="#232323"/>
<path fill-rule="evenodd" clip-rule="evenodd" d="M91.2187 8.00008C91.2187 7.26408 90.6237 6.66675 89.8875 6.66675C89.1513 6.66675 88.5562 7.26408 88.5562 8.00008C88.5562 8.73608 89.1513 9.33341 89.8875 9.33341C90.6237 9.33341 91.2187 8.73608 91.2187 8.00008Z" fill="#373B47"/>
<path fill-rule="evenodd" clip-rule="evenodd" d="M89.339 55.992H89.4495V55.552H89.339V55.992Z" fill="#908E8E"/>
<path fill-rule="evenodd" clip-rule="evenodd" d="M90.3425 55.6785C90.3385 55.6772 90.3026 55.6545 90.2507 55.6545C90.1774 55.6545 90.1282 55.7052 90.1282 55.7732C90.1282 55.8385 90.1748 55.8905 90.2507 55.8905C90.3013 55.8905 90.3385 55.8692 90.3425 55.8665V55.9838C90.3279 55.9892 90.2919 55.9998 90.2427 55.9998C90.1162 55.9998 90.007 55.9145 90.007 55.7732C90.007 55.6412 90.1056 55.5452 90.2427 55.5452C90.2946 55.5452 90.3319 55.5572 90.3425 55.5612V55.6785Z" fill="#908E8E"/>
<path fill-rule="evenodd" clip-rule="evenodd" d="M89.1867 55.6785C89.1814 55.6772 89.1468 55.6545 89.0935 55.6545C89.0203 55.6545 88.9724 55.7052 88.9724 55.7732C88.9724 55.8385 89.019 55.8905 89.0935 55.8905C89.1455 55.8905 89.1814 55.8692 89.1867 55.8665V55.9838C89.1721 55.9892 89.1348 55.9998 89.0856 55.9998C88.9618 55.9998 88.8513 55.9145 88.8513 55.7732C88.8513 55.6412 88.9498 55.5452 89.0856 55.5452C89.1375 55.5452 89.1761 55.5572 89.1867 55.5612V55.6785Z" fill="#908E8E"/>
<path fill-rule="evenodd" clip-rule="evenodd" d="M90.6909 55.6563C90.6257 55.6563 90.5764 55.7097 90.5764 55.7723C90.5764 55.8363 90.6257 55.8883 90.6909 55.8883C90.7575 55.8883 90.8054 55.8363 90.8054 55.7723C90.8054 55.7097 90.7575 55.6563 90.6909 55.6563ZM90.9239 55.7723C90.9239 55.8977 90.8267 56.0003 90.6909 56.0003C90.5551 56.0003 90.4593 55.8977 90.4593 55.7723C90.4593 55.647 90.5551 55.5457 90.6909 55.5457C90.8267 55.5457 90.9239 55.647 90.9239 55.7723Z" fill="#908E8E"/>
<path fill-rule="evenodd" clip-rule="evenodd" d="M89.8693 55.6524C89.8679 55.6524 89.8227 55.6391 89.7841 55.6391C89.7375 55.6391 89.7148 55.6538 89.7148 55.6751C89.7148 55.7031 89.7468 55.7111 89.7654 55.7164L89.7947 55.7271C89.8679 55.7498 89.8999 55.7991 89.8999 55.8524C89.8999 55.9631 89.804 56.0004 89.7188 56.0004C89.6603 56.0004 89.6043 55.9898 89.599 55.9884V55.8871C89.6097 55.8898 89.6563 55.9031 89.7042 55.9031C89.7588 55.9031 89.7854 55.8871 89.7854 55.8618C89.7854 55.8404 89.7628 55.8271 89.7348 55.8191C89.7281 55.8164 89.7188 55.8138 89.7108 55.8111C89.6496 55.7911 89.5977 55.7551 89.5977 55.6818C89.5977 55.6004 89.6589 55.5444 89.7628 55.5444C89.816 55.5444 89.8666 55.5578 89.8693 55.5591V55.6524Z" fill="#908E8E"/>
<path fill-rule="evenodd" clip-rule="evenodd" d="M88.7344 55.0801C88.7344 55.0507 88.7091 55.0254 88.6798 55.0254C88.6492 55.0254 88.6239 55.0507 88.6239 55.0801V55.1961C88.6239 55.2254 88.6492 55.2507 88.6798 55.2507C88.7091 55.2507 88.7344 55.2254 88.7344 55.1961V55.0801Z" fill="#908E8E"/>
<path fill-rule="evenodd" clip-rule="evenodd" d="M89.036 54.9284C89.036 54.8991 89.0107 54.8738 88.9815 54.8738C88.9522 54.8738 88.9269 54.8991 88.9269 54.9284V55.1964C88.9269 55.2258 88.9522 55.2511 88.9815 55.2511C89.0107 55.2511 89.036 55.2258 89.036 55.1964V54.9284Z" fill="#908E8E"/>
<path fill-rule="evenodd" clip-rule="evenodd" d="M89.3389 54.7214C89.3389 54.6907 89.3123 54.6667 89.283 54.6667C89.2537 54.6667 89.2284 54.6907 89.2284 54.7214V55.3054C89.2284 55.3361 89.2537 55.3601 89.283 55.3601C89.3123 55.3601 89.3389 55.3361 89.3389 55.3054V54.7214Z" fill="#908E8E"/>
<path fill-rule="evenodd" clip-rule="evenodd" d="M89.6406 54.9284C89.6406 54.8991 89.6153 54.8738 89.586 54.8738C89.5554 54.8738 89.5301 54.8991 89.5301 54.9284V55.1964C89.5301 55.2258 89.5554 55.2511 89.586 55.2511C89.6153 55.2511 89.6406 55.2258 89.6406 55.1964V54.9284Z" fill="#908E8E"/>
<path fill-rule="evenodd" clip-rule="evenodd" d="M89.9434 55.0801C89.9434 55.0507 89.9168 55.0254 89.8875 55.0254C89.8582 55.0254 89.8316 55.0507 89.8316 55.0801V55.1961C89.8316 55.2254 89.8582 55.2507 89.8875 55.2507C89.9168 55.2507 89.9434 55.2254 89.9434 55.1961V55.0801Z" fill="#908E8E"/>
<path fill-rule="evenodd" clip-rule="evenodd" d="M90.2451 54.9284C90.2451 54.8991 90.2198 54.8738 90.1892 54.8738C90.1599 54.8738 90.1346 54.8991 90.1346 54.9284V55.1964C90.1346 55.2258 90.1599 55.2511 90.1892 55.2511C90.2198 55.2511 90.2451 55.2258 90.2451 55.1964V54.9284Z" fill="#908E8E"/>
<path fill-rule="evenodd" clip-rule="evenodd" d="M90.5466 54.7214C90.5466 54.6907 90.5213 54.6667 90.492 54.6667C90.4627 54.6667 90.4374 54.6907 90.4374 54.7214V55.3054C90.4374 55.3361 90.4627 55.3601 90.492 55.3601C90.5213 55.3601 90.5466 55.3361 90.5466 55.3054V54.7214Z" fill="#908E8E"/>
<path fill-rule="evenodd" clip-rule="evenodd" d="M90.8496 54.9284C90.8496 54.8991 90.8243 54.8738 90.7937 54.8738C90.7644 54.8738 90.7391 54.8991 90.7391 54.9284V55.1964C90.7391 55.2258 90.7644 55.2511 90.7937 55.2511C90.8243 55.2511 90.8496 55.2258 90.8496 55.1964V54.9284Z" fill="#908E8E"/>
<path fill-rule="evenodd" clip-rule="evenodd" d="M91.1511 55.0801C91.1511 55.0507 91.1258 55.0254 91.0965 55.0254C91.0659 55.0254 91.0406 55.0507 91.0406 55.0801V55.1961C91.0406 55.2254 91.0659 55.2507 91.0965 55.2507C91.1258 55.2507 91.1511 55.2254 91.1511 55.1961V55.0801Z" fill="#908E8E"/>
<defs>
<linearGradient id="paint0_linear" x1="82.5656" y1="2" x2="82.5656" y2="14" gradientUnits="userSpaceOnUse">
<stop stop-color="#EFEFEF"/>
<stop offset="0.506076" stop-color="white"/>
<stop offset="1" stop-color="#EFEFEF"/>
</linearGradient>
<linearGradient id="paint1_linear" x1="19.333" y1="56" x2="19.333" y2="91.9756" gradientUnits="userSpaceOnUse">
<stop stop-color="#B1B1B1"/>
<stop offset="0.278382" stop-color="#C9C9C9"/>
<stop offset="0.514141" stop-color="#D6D6D6"/>
<stop offset="0.743587" stop-color="#C9C9C9"/>
<stop offset="0.953577" stop-color="#ECECEC"/>
<stop offset="0.999932" stop-color="#B1B1B1"/>
</linearGradient>
<linearGradient id="paint2_linear" x1="155.121" y1="56" x2="155.121" y2="91.9756" gradientUnits="userSpaceOnUse">
<stop stop-color="#B1B1B1"/>
<stop offset="0.278382" stop-color="#C9C9C9"/>
<stop offset="0.514141" stop-color="#D6D6D6"/>
<stop offset="0.743587" stop-color="#C9C9C9"/>
<stop offset="0.953577" stop-color="#ECECEC"/>
<stop offset="0.999932" stop-color="#B1B1B1"/>
</linearGradient>
<linearGradient id="paint3_linear" x1="18.0195" y1="51.4062" x2="18.0195" y2="93.3216" gradientUnits="userSpaceOnUse">
<stop stop-color="#CFCFCF"/>
<stop offset="0.470308" stop-color="#F1F1F1"/>
<stop offset="0.999932" stop-color="#D9D9D9"/>
</linearGradient>
<radialGradient id="paint4_radial" cx="0" cy="0" r="1" gradientUnits="userSpaceOnUse" gradientTransform="translate(27.5035 100.221) rotate(24.0092) scale(4.91541 3.819)">
<stop stop-color="#9C9C9C"/>
<stop offset="0.528236" stop-color="#E8E8E8"/>
<stop offset="1" stop-color="#E8E8E8"/>
</radialGradient>
<radialGradient id="paint5_radial" cx="0" cy="0" r="1" gradientUnits="userSpaceOnUse" gradientTransform="translate(153.972 100.221) rotate(24.0092) scale(4.91541 3.819)">
<stop stop-color="#9C9C9C"/>
<stop offset="0.528236" stop-color="#E8E8E8"/>
<stop offset="1" stop-color="#E8E8E8"/>
</radialGradient>
<linearGradient id="paint6_linear" x1="-69.8024" y1="-9.72738" x2="-65.9958" y2="68.3966" gradientUnits="userSpaceOnUse">
<stop stop-color="white" stop-opacity="0.24"/>
<stop offset="1" stop-opacity="0.5"/>
</linearGradient>
</defs>
</svg>
