<svg width="200" height="72" viewBox="0 0 200 72" fill="none" xmlns="http://www.w3.org/2000/svg">
<circle opacity="0.35" cx="141" cy="48" r="24" fill="#52DCFF"/>
<path fill-rule="evenodd" clip-rule="evenodd" d="M150.48 54.3585C152.059 52.3265 153 49.7731 153 47C153 40.3726 147.627 35 141 35C134.373 35 129 40.3726 129 47C129 53.6274 134.373 59 141 59C144.314 59 147.314 57.6569 149.485 55.4853L153.997 59.9974C154.279 60.2792 154.745 60.2702 155.038 59.9773C155.331 59.6844 155.34 59.2185 155.058 58.9367L150.48 54.3585Z" fill="#00A0D1"/>
<path fill-rule="evenodd" clip-rule="evenodd" d="M140.368 49.29C140.368 49.6348 140.648 49.9147 140.992 49.9147C141.336 49.9147 141.616 49.6348 141.616 49.29C141.616 48.9339 141.765 48.5928 142.026 48.3529L142.451 47.9606C142.544 47.8769 142.642 47.7944 142.743 47.7107L142.745 47.7095C143.327 47.2236 144.125 46.5576 144.125 45.1507C144.125 43.4627 142.759 42.0509 141.081 42.0021C140.265 41.9747 139.44 42.2908 138.836 42.8842C138.239 43.4702 137.899 44.2623 137.875 45.1157C137.866 45.4605 138.137 45.7479 138.481 45.7566C138.822 45.7716 139.112 45.4943 139.122 45.1494C139.136 44.6222 139.346 44.1349 139.71 43.7763C140.069 43.424 140.542 43.2466 141.046 43.2516C142.038 43.279 142.878 44.1486 142.878 45.1507C142.878 45.974 142.466 46.3164 141.945 46.7499C141.828 46.8474 141.713 46.9436 141.607 47.041L141.182 47.4334C140.665 47.9094 140.368 48.5866 140.368 49.29ZM140.992 52.0005C141.336 52.0005 141.616 51.7206 141.616 51.3758C141.616 51.0309 141.336 50.7511 140.992 50.7511C140.648 50.7511 140.368 51.0309 140.368 51.3758C140.368 51.7206 140.648 52.0005 140.992 52.0005Z" fill="#BDEEFA"/>
<path opacity="0.1" d="M62.2734 8.33691C61.1689 8.33691 60.2734 9.23234 60.2734 10.3369V45.7474C60.2734 46.852 61.1689 47.7474 62.2734 47.7474H117.001C117.13 35.2487 126.813 25.0392 139.094 24.0746V10.3369C139.094 9.23234 138.199 8.33691 137.094 8.33691H62.2734Z" fill="#07C1F5"/>
<path fill-rule="evenodd" clip-rule="evenodd" d="M98.9263 4.04736C98.9263 3.77122 99.1501 3.54736 99.4263 3.54736H102.974C103.25 3.54736 103.474 3.77122 103.474 4.04736C103.474 4.32351 103.25 4.54736 102.974 4.54736H99.4263C99.1501 4.54736 98.9263 4.32351 98.9263 4.04736Z" fill="#00A0D1"/>
<path d="M64 1H135.368C138.13 1 140.368 3.23858 140.368 6V24.0081C140.578 24.0027 140.789 24 141 24C141.123 24 141.246 24.0009 141.368 24.0028V6C141.368 2.68629 138.682 0 135.368 0H64C60.6863 0 58 2.6863 58 6.00001V48.5684C58 51.8821 60.6863 54.5684 64 54.5684H117.91C117.816 54.2379 117.729 53.9045 117.649 53.5684H64C61.2386 53.5684 59 51.3298 59 48.5684V6.00001C59 3.23858 61.2386 1 64 1Z" fill="#00A0D1"/>
</svg>
