<svg xmlns="http://www.w3.org/2000/svg" viewBox="0 0 235.97 166.82">
	<defs>
		<style type="text/css">
			.cls-1,.cls-6{fill:#48e33d;}.cls-1{opacity:0.25;}.cls-2,.cls-3,.cls-8{fill:#faaa39;}.cls-2,.cls-5{opacity:0.5;}.cls-4,.cls-7,.cls-9{fill:none;}.cls-4,.cls-9{stroke:#00b8f1;}.cls-4,.cls-5,.cls-7,.cls-8,.cls-9{stroke-linecap:round;}.cls-4,.cls-8{stroke-miterlimit:10;}.cls-5{fill:#fff;stroke:#faaa39;}.cls-5,.cls-7,.cls-9{stroke-linejoin:round;}.cls-7{stroke:#f37531;}.cls-8{stroke:#fff;stroke-width:0.5px;}
		</style>
	</defs>
	<title>whiteboards_links</title>
	<g id="img_no_whiteboards" data-name="whiteboards +links">
		<polygon class="cls-1" points="173.53 108.13 190.54 108.13 185.28 139.96 173.53 139.96 161.78 139.96 156.52 108.13 173.53 108.13" />
		<circle class="cls-2" cx="103.03" cy="157.13" r="2" />
		<circle class="cls-2" cx="105.36" cy="154.39" r="0.87" />
		<circle class="cls-2" cx="102.81" cy="153.58" r="0.87" />
		<circle class="cls-2" cx="100.4" cy="154.7" r="0.87" />
		<circle class="cls-2" cx="116.71" cy="151.2" r="2" />
		<circle class="cls-2" cx="120.19" cy="150.27" r="0.88" />
		<circle class="cls-2" cx="118.55" cy="148.15" r="0.88" />
		<circle class="cls-2" cx="115.93" cy="147.7" r="0.88" />
		<circle class="cls-3" cx="182.15" cy="122.35" r="2.19" />
		<circle class="cls-3" cx="186.09" cy="122.15" r="0.96" />
		<circle class="cls-3" cx="184.82" cy="119.5" r="0.96" />
		<circle class="cls-3" cx="182.12" cy="118.42" r="0.96" />
		<circle class="cls-2" cx="114.97" cy="89.86" r="2.19" />
		<circle class="cls-2" cx="118.65" cy="88.44" r="0.96" />
		<circle class="cls-2" cx="116.61" cy="86.32" r="0.96" />
		<circle class="cls-2" cx="113.71" cy="86.14" r="0.96" />
		<circle class="cls-3" cx="42.86" cy="118.3" r="2.9" />
		<circle class="cls-3" cx="47.65" cy="116.21" r="1.27" />
		<circle class="cls-3" cx="44.84" cy="113.53" r="1.27" />
		<circle class="cls-3" cx="40.99" cy="113.45" r="1.27" />
		<circle class="cls-3" cx="141.45" cy="24.55" r="2.66" />
		<circle class="cls-3" cx="146.04" cy="23.17" r="1.16" />
		<circle class="cls-3" cx="143.77" cy="20.41" r="1.16" />
		<circle class="cls-3" cx="140.27" cy="19.92" r="1.16" />
		<circle class="cls-3" cx="123.66" cy="9.9" r="2.66" />
		<circle class="cls-3" cx="124.89" cy="5.26" r="1.16" />
		<circle class="cls-3" cx="121.36" cy="5.75" r="1.16" />
		<circle class="cls-3" cx="119.1" cy="8.48" r="1.16" />
		<circle class="cls-3" cx="83.3" cy="56.19" r="3.07" />
		<circle class="cls-3" cx="85.39" cy="51.07" r="1.34" />
		<circle class="cls-3" cx="81.28" cy="51.11" r="1.34" />
		<circle class="cls-3" cx="78.3" cy="53.89" r="1.34" />
		<circle class="cls-3" cx="53.73" cy="159.4" r="3.07" />
		<circle class="cls-3" cx="56.14" cy="164.37" r="1.34" />
		<circle class="cls-3" cx="58.86" cy="161.29" r="1.34" />
		<circle class="cls-3" cx="58.78" cy="157.21" r="1.34" />
		<line class="cls-4" x1="1.59" y1="139.89" x2="64.14" y2="139.89" />
		<line class="cls-5" x1="112.21" y1="45.26" x2="115.52" y2="55.92" />
		<line class="cls-5" x1="110.14" y1="44.85" x2="113.44" y2="55.52" />
		<line class="cls-5" x1="108.66" y1="46.36" x2="111.96" y2="57.02" />
		<line class="cls-5" x1="122.35" y1="35.94" x2="125.66" y2="46.61" />
		<line class="cls-5" x1="120.28" y1="35.54" x2="123.58" y2="46.2" />
		<line class="cls-5" x1="118.8" y1="37.05" x2="122.1" y2="47.71" />
		<line class="cls-5" x1="62.02" y1="74.54" x2="65.33" y2="85.2" />
		<line class="cls-5" x1="59.95" y1="74.13" x2="63.26" y2="84.79" />
		<line class="cls-5" x1="58.47" y1="75.64" x2="61.77" y2="86.3" />
		<line class="cls-5" x1="79.88" y1="78.36" x2="83.19" y2="89.02" />
		<line class="cls-5" x1="77.81" y1="77.95" x2="81.11" y2="88.62" />
		<line class="cls-5" x1="76.33" y1="79.46" x2="79.63" y2="90.12" />
		<line class="cls-5" x1="69.3" y1="106.47" x2="79.97" y2="109.76" />
		<line class="cls-5" x1="67.79" y1="107.95" x2="78.46" y2="111.24" />
		<line class="cls-5" x1="68.2" y1="110.03" x2="78.87" y2="113.31" />
		<line class="cls-5" x1="57.35" y1="77.88" x2="68.43" y2="79.2" />
		<line class="cls-5" x1="56.14" y1="79.61" x2="67.22" y2="80.93" />
		<line class="cls-5" x1="56.91" y1="81.58" x2="67.99" y2="82.9" />
		<path class="cls-6" d="M174,75.43V73.06l3.52-3.52a.5.5,0,0,0,0-.71.48.48,0,0,0-.7,0L174,71.65V68l2-2a.5.5,0,0,0-.71-.71L174,66.53V64.09a.5.5,0,0,0-1,0v2.44l-1.34-1.34a.5.5,0,0,0-.7,0,.5.5,0,0,0,0,.71l2,2v3.7l-2.81-2.81a.5.5,0,0,0-.71.71L173,73.06v2.37a.5.5,0,0,0,1,0Z" />
		<path class="cls-6" d="M164,83.42a.51.51,0,0,0-.61.35l-1,3.85-1.85-3.2.75-2.8a.5.5,0,0,0-1-.26l-.49,1.83-1.22-2.12a.51.51,0,0,0-.69-.18.49.49,0,0,0-.18.68L159,83.69l-1.82-.49a.5.5,0,1,0-.26,1l2.79.74,1.85,3.21-3.84-1a.51.51,0,0,0-.62.35.5.5,0,0,0,.36.61l4.81,1.29,1.18,2a.5.5,0,0,0,.43.25.45.45,0,0,0,.25-.07.49.49,0,0,0,.19-.68l-1.19-2L164.38,84A.48.48,0,0,0,164,83.42Z" />
		<path class="cls-6" d="M188.73,82.11a8.37,8.37,0,0,0-8.94,14.14l-.07.07L174,106.18V78a8.37,8.37,0,1,0-1,0v28l-7.44-12.89a8.37,8.37,0,1,0-11.86-2.8,8.27,8.27,0,0,0,5.08,3.9,8.17,8.17,0,0,0,2.18.29,8.27,8.27,0,0,0,3.73-.9l8.14,14.11a.52.52,0,0,0,.44.25h0a.54.54,0,0,0,.21,0,.48.48,0,0,0,.24-.06l.08,0a.52.52,0,0,0,.44-.25l6.3-10.92,0-.08a8.21,8.21,0,0,0,3.91,1,8.12,8.12,0,0,0,2.18-.29,8.3,8.3,0,0,0,5.09-3.9A8.38,8.38,0,0,0,188.73,82.11ZM159.07,93.28a7.38,7.38,0,0,1,1.9-14.5,7.44,7.44,0,0,1,1.92.25,7.38,7.38,0,0,1-3.82,14.25Zm7.09-23.6a7.38,7.38,0,1,1,7.37,7.37A7.39,7.39,0,0,1,166.16,69.68Zm24.77,23.37a7.38,7.38,0,0,1-13.51-1.78A7.38,7.38,0,0,1,188.23,83a7.36,7.36,0,0,1,2.7,10.07Z" />
		<path class="cls-6" d="M188.39,86.41l-1.83.49,1.23-2.12a.5.5,0,0,0-.19-.68.49.49,0,0,0-.68.18L185.7,86.4l-.49-1.83a.51.51,0,0,0-.62-.35.5.5,0,0,0-.35.61l.75,2.79-1.85,3.21-1-3.85a.5.5,0,0,0-1,.26l1.29,4.81-1.18,2a.49.49,0,0,0,.18.68.47.47,0,0,0,.25.07.52.52,0,0,0,.44-.25l1.18-2,4.81-1.29a.5.5,0,1,0-.26-1l-3.84,1,1.85-3.2,2.79-.75a.49.49,0,0,0,.35-.61A.5.5,0,0,0,188.39,86.41Z" />
		<path class="cls-6" d="M74.41,130.86a7.21,7.21,0,1,0-4.5,13.7,7.31,7.31,0,0,0,2.26.36A7.23,7.23,0,0,0,79,140,7.22,7.22,0,0,0,74.41,130.86Zm3.65,8.79a6.21,6.21,0,0,1-11.8-3.88,6.26,6.26,0,0,1,5.89-4.28,6.24,6.24,0,0,1,5.91,8.16Z" />
		<path class="cls-6" d="M73.18,134.39a.5.5,0,0,0-.67-.22.49.49,0,0,0-.22.67l1.45,2.87-2.8-.92-1.1-2.17a.5.5,0,1,0-.89.45l.65,1.28-1.82-.59a.49.49,0,0,0-.63.31.52.52,0,0,0,.32.64l1.81.59L68,138a.5.5,0,0,0-.22.67.51.51,0,0,0,.45.27.44.44,0,0,0,.22,0l2.18-1.1,2.79.92-2.86,1.45a.49.49,0,0,0-.22.67.48.48,0,0,0,.44.28A.49.49,0,0,0,71,141l3.76-1.9,1.88.62.16,0a.5.5,0,0,0,.16-1l-1.89-.62Z" />
		<path class="cls-6" d="M103.36,132a.5.5,0,0,0-.62-.34l-3,.86L94,129.34a.5.5,0,0,0-.68.19.51.51,0,0,0,.2.68l4.84,2.7-5,1.44L90,132.48a.5.5,0,0,0-.49.88L92,134.73l-3.41,1a.5.5,0,0,0,.13,1,.34.34,0,0,0,.14,0l3.41-1-1.37,2.46a.49.49,0,0,0,.19.68.44.44,0,0,0,.24.07.51.51,0,0,0,.44-.26l1.86-3.34,5-1.44-2.7,4.85a.51.51,0,0,0,.2.68.53.53,0,0,0,.24.06.49.49,0,0,0,.44-.26l3.18-5.71,3-.86A.5.5,0,0,0,103.36,132Z" />
		<line class="cls-7" x1="141.1" y1="100.15" x2="144.88" y2="101.44" />
		<line class="cls-7" x1="140.5" y1="104.09" x2="144.48" y2="103.77" />
		<line class="cls-7" x1="164.4" y1="100.16" x2="160.62" y2="101.44" />
		<line class="cls-7" x1="165" y1="104.09" x2="161.02" y2="103.78" />
		<path class="cls-3" d="M165.63,122.06l-7-29.67a1.9,1.9,0,0,0-3.64.25l-.82,4.68a1,1,0,0,1-.88.77.93.93,0,0,1-.92-.71l-1.13-4.65a1.89,1.89,0,0,0-3.64,0L139.35,121" />
		<circle class="cls-3" cx="152.32" cy="125.61" r="13.77" />
		<rect class="cls-3" x="141.5" y="134.72" width="22.58" height="4.63" rx="2.25" />
		<path class="cls-8" d="M152.71,134.79a9.55,9.55,0,0,0,6.19,2.65A9.66,9.66,0,0,0,169,128.26c0-.2,0-.61,0-.62a1.63,1.63,0,0,0-3.26-.17s0,.42,0,.64a6.38,6.38,0,0,1-12.74.16,5.08,5.08,0,0,1,0-.78" />
		<line class="cls-9" x1="80.15" y1="139.94" x2="234.38" y2="139.94" />
	</g>
</svg>
