<svg width="220" height="96" viewBox="0 0 220 96" fill="none" xmlns="http://www.w3.org/2000/svg">
<g clip-path="url(#clip0)">
<path fill-rule="evenodd" clip-rule="evenodd" d="M68.8964 93.2481H61.8925C60.8355 93.2481 59.9794 92.1155 59.9794 90.7199V71.7588H73.3712L70.7798 91.1597C70.6193 92.3682 69.8243 93.2481 68.8964 93.2481Z" fill="url(#paint0_linear)"/>
<path fill-rule="evenodd" clip-rule="evenodd" d="M151.63 93.2481C150.702 93.2481 149.907 92.3682 149.746 91.1597L147.155 71.7588H160.547V90.7199C160.547 92.1155 159.691 93.2481 158.634 93.2481H151.63Z" fill="url(#paint1_linear)"/>
<path fill-rule="evenodd" clip-rule="evenodd" d="M151.441 93.2481H158.593C159.673 93.2481 160.547 92.1155 160.547 90.7199V71.7588H146.871L149.517 91.1597C149.681 92.3682 150.493 93.2481 151.441 93.2481Z" fill="url(#paint2_linear)"/>
<path fill-rule="evenodd" clip-rule="evenodd" d="M56.5031 74.6128H163.742V89.3636C163.742 90.993 162.541 92.3138 161.061 92.3138H59.1841C57.7034 92.3138 56.5031 90.9931 56.5031 89.3636V74.6128Z" fill="#C5C5C5"/>
<path fill-rule="evenodd" clip-rule="evenodd" d="M56.5031 74.6128H163.742V89.3636C163.742 90.993 162.541 92.3138 161.061 92.3138H59.1841C57.7034 92.3138 56.5031 90.9931 56.5031 89.3636V74.6128Z" fill="black"/>
<path fill-rule="evenodd" clip-rule="evenodd" d="M56.4161 73.832H163.829V89.7911C163.829 91.1488 162.827 92.2495 161.591 92.2495H58.6538C57.418 92.2495 56.4161 91.1488 56.4161 89.7911C56.4161 89.7911 56.4161 73.832 56.4161 73.832Z" fill="url(#paint3_linear)"/>
<path fill-rule="evenodd" clip-rule="evenodd" d="M56.4161 73.832H163.829V89.7911C163.829 91.1488 162.827 92.2495 161.591 92.2495H58.6538C57.418 92.2495 56.4161 91.1488 56.4161 89.7911C56.4161 89.7911 56.4161 73.832 56.4161 73.832Z" fill="url(#paint4_linear)"/>
<path fill-rule="evenodd" clip-rule="evenodd" d="M56.6844 74.1272V89.7913C56.6844 90.9861 57.5662 91.9547 58.6537 91.9547H161.591C162.679 91.9547 163.56 90.986 163.56 89.7913V74.1272H56.6844Z" fill="url(#paint5_linear)"/>
<path d="M161.591 92.2241H58.6538C57.4189 92.2241 56.4148 91.1325 56.4148 89.7904V73.8567H163.83V89.7904C163.83 91.1325 162.826 92.2241 161.591 92.2241ZM56.9544 74.3963V89.7904C56.9544 90.8346 57.7169 91.6844 58.6538 91.6844H161.591C162.528 91.6844 163.291 90.8346 163.291 89.7904V74.3963H56.9544Z" fill="url(#paint6_linear)"/>
<path opacity="0.48" d="M161.61 92.2925H58.6345C57.3996 92.2925 56.395 91.1992 56.395 89.8553V73.9172H163.85V89.8553C163.85 91.1991 162.845 92.2925 161.61 92.2925ZM56.8451 74.3672V89.8553C56.8451 90.9514 57.648 91.8425 58.6346 91.8425H161.61C162.597 91.8425 163.4 90.9514 163.4 89.8553V74.3672H56.8451Z" fill="#999999"/>
<path opacity="0.12" d="M161.59 92.2972H58.6552C57.4207 92.2972 56.4161 91.2021 56.4161 89.8556V73.9131H163.829V89.8556C163.829 91.2021 162.824 92.2972 161.59 92.2972ZM56.7765 74.2734V89.8556C56.7765 91.0035 57.6193 91.9368 58.6552 91.9368H161.59C162.625 91.9368 163.468 91.0035 163.468 89.8556V74.2734H56.7765Z" fill="#151B1E"/>
<path fill-rule="evenodd" clip-rule="evenodd" d="M163.819 73.8962H56.4055V6.54702C56.4055 4.89471 57.7061 3.55371 59.3085 3.55371H160.915C162.518 3.55371 163.818 4.89462 163.818 6.54702L163.819 73.8962Z" fill="#1A1A1A"/>
<path fill-rule="evenodd" clip-rule="evenodd" d="M163.819 73.7758H56.4055V6.54189C56.4055 4.89237 57.7061 3.55371 59.3085 3.55371H160.915C162.518 3.55371 163.818 4.89237 163.818 6.54189L163.819 73.7758Z" fill="black"/>
<path d="M159.933 73.0972C159.173 73.0972 158.554 72.4775 158.554 71.7164C158.554 70.9544 159.173 70.3347 159.933 70.3347C160.694 70.3347 161.313 70.9544 161.313 71.7164C161.313 72.4776 160.694 73.0972 159.933 73.0972ZM159.933 70.6055C159.322 70.6055 158.825 71.1039 158.825 71.7165C158.825 72.3291 159.322 72.8265 159.933 72.8265C160.545 72.8265 161.042 72.3291 161.042 71.7165C161.042 71.1039 160.545 70.6055 159.933 70.6055Z" fill="#474747"/>
<path d="M154.959 73.0973H149.983C149.223 73.0973 148.604 72.4776 148.604 71.7165C148.604 70.9553 149.223 70.3357 149.983 70.3357H154.959C155.719 70.3357 156.338 70.9553 156.338 71.7165C156.338 72.4776 155.719 73.0973 154.959 73.0973ZM149.983 70.6065C149.371 70.6065 148.875 71.1039 148.875 71.7166C148.875 72.3292 149.372 72.8266 149.983 72.8266H154.959C155.57 72.8266 156.067 72.3292 156.067 71.7166C156.067 71.1039 155.57 70.6065 154.959 70.6065H149.983Z" fill="#474747"/>
<path d="M110.125 7.75828C110.899 7.75828 111.527 7.13082 111.527 6.3568C111.527 5.58279 110.899 4.95532 110.125 4.95532C109.351 4.95532 108.724 5.58279 108.724 6.3568C108.724 7.13082 109.351 7.75828 110.125 7.75828Z" fill="#232323"/>
<path d="M110.125 7.29094C110.641 7.29094 111.059 6.87265 111.059 6.35665C111.059 5.84066 110.641 5.42236 110.125 5.42236C109.609 5.42236 109.191 5.84066 109.191 6.35665C109.191 6.87265 109.609 7.29094 110.125 7.29094Z" fill="#555B6C"/>
<path fill-rule="evenodd" clip-rule="evenodd" d="M108.947 83.8871V82.9625H109.184V83.8871H108.947ZM111.1 83.2281C111.092 83.2253 111.014 83.1776 110.9 83.1776C110.746 83.1776 110.64 83.284 110.64 83.427C110.64 83.5643 110.743 83.6736 110.9 83.6736C111.012 83.6736 111.091 83.6287 111.1 83.6231V83.8697C111.071 83.8809 110.989 83.9033 110.883 83.9033C110.618 83.9033 110.383 83.7213 110.383 83.427C110.383 83.1497 110.595 82.9479 110.883 82.9479C110.994 82.9479 111.077 82.9731 111.1 82.9815V83.2281ZM108.62 83.2281C108.612 83.2253 108.534 83.1776 108.42 83.1776C108.266 83.1776 108.16 83.284 108.16 83.427C108.16 83.5643 108.263 83.6736 108.42 83.6736C108.532 83.6736 108.611 83.6287 108.62 83.6231V83.8697C108.591 83.8809 108.512 83.9033 108.406 83.9033C108.138 83.9033 107.904 83.7213 107.904 83.427C107.904 83.1497 108.115 82.9479 108.406 82.9479C108.517 82.9479 108.6 82.9731 108.62 82.9815V83.2281ZM112.347 83.4253C112.347 83.6887 112.139 83.9045 111.848 83.9045C111.559 83.9045 111.351 83.6888 111.351 83.4253C111.351 83.162 111.559 82.9491 111.848 82.9491C112.139 82.949 112.347 83.1619 112.347 83.4253ZM111.848 83.1815C111.708 83.1815 111.602 83.2937 111.602 83.4253C111.602 83.5599 111.708 83.6691 111.848 83.6691C111.99 83.6691 112.093 83.5598 112.093 83.4253C112.093 83.2937 111.99 83.1815 111.848 83.1815ZM110.087 83.1733C110.084 83.1733 109.984 83.1453 109.901 83.1453C109.804 83.1453 109.753 83.1762 109.753 83.221C109.753 83.2771 109.824 83.2967 109.864 83.3079L109.927 83.3303C110.084 83.3779 110.152 83.4816 110.152 83.5936C110.152 83.8262 109.947 83.9047 109.764 83.9047C109.636 83.9047 109.519 83.8795 109.504 83.8767V83.6665C109.527 83.6721 109.627 83.7002 109.73 83.7002C109.85 83.7002 109.904 83.6665 109.904 83.6133C109.904 83.5685 109.855 83.5404 109.796 83.5236C109.784 83.518 109.761 83.5124 109.747 83.5068C109.613 83.4648 109.502 83.3891 109.502 83.235C109.502 83.0641 109.636 82.9464 109.856 82.9464C109.97 82.9464 110.078 82.9743 110.087 82.9772L110.087 83.1733ZM107.652 81.9708V82.2117C107.652 82.2761 107.595 82.3294 107.533 82.3294C107.467 82.3294 107.415 82.2761 107.415 82.2117V81.9708C107.415 81.9063 107.467 81.8558 107.533 81.8558C107.595 81.8559 107.652 81.9062 107.652 81.9708ZM108.299 81.6519V82.2123C108.299 82.2768 108.245 82.33 108.18 82.33C108.117 82.33 108.062 82.2768 108.062 82.2123V81.6519C108.062 81.5902 108.117 81.537 108.18 81.537C108.245 81.537 108.299 81.5901 108.299 81.6519ZM108.948 81.2167V82.4441C108.948 82.5057 108.893 82.559 108.828 82.559C108.765 82.559 108.711 82.5057 108.711 82.4441V81.2167C108.711 81.1523 108.765 81.1018 108.828 81.1018C108.893 81.1018 108.948 81.1523 108.948 81.2167ZM109.595 81.6519V82.2123C109.595 82.2768 109.54 82.33 109.477 82.33C109.412 82.33 109.358 82.2768 109.358 82.2123V81.6519C109.358 81.5902 109.412 81.537 109.477 81.537C109.54 81.537 109.595 81.5901 109.595 81.6519ZM110.243 81.9708V82.2117C110.243 82.2761 110.188 82.3294 110.123 82.3294C110.06 82.3294 110.006 82.2761 110.006 82.2117V81.9708C110.006 81.9063 110.06 81.8558 110.123 81.8558C110.188 81.8559 110.243 81.9062 110.243 81.9708ZM110.89 81.6519V82.2123C110.89 82.2768 110.835 82.33 110.77 82.33C110.707 82.33 110.653 82.2768 110.653 82.2123V81.6519C110.653 81.5902 110.707 81.537 110.77 81.537C110.835 81.537 110.89 81.5901 110.89 81.6519ZM111.538 81.2167V82.4441C111.538 82.5057 111.487 82.559 111.421 82.559C111.355 82.559 111.301 82.5057 111.301 82.4441V81.2167C111.301 81.1523 111.355 81.1018 111.421 81.1018C111.487 81.1018 111.538 81.1523 111.538 81.2167ZM112.188 81.6519V82.2123C112.188 82.2768 112.133 82.33 112.068 82.33C112.002 82.33 111.951 82.2768 111.951 82.2123V81.6519C111.951 81.5902 112.002 81.537 112.068 81.537C112.133 81.537 112.188 81.5901 112.188 81.6519ZM112.835 81.9708V82.2117C112.835 82.2761 112.78 82.3294 112.717 82.3294C112.652 82.3294 112.598 82.2761 112.598 82.2117V81.9708C112.598 81.9063 112.652 81.8558 112.717 81.8558C112.78 81.8559 112.835 81.9062 112.835 81.9708Z" fill="white"/>
<path fill-rule="evenodd" clip-rule="evenodd" d="M160.107 67.0329H60.1432C59.7187 67.0329 59.3742 66.6728 59.3742 66.2291V9.96321C59.3742 9.51942 59.7187 9.15942 60.1432 9.15942H160.107C160.531 9.15942 160.876 9.51951 160.876 9.96321V66.2291C160.876 66.6728 160.531 67.0329 160.107 67.0329Z" fill="#222222"/>
<path fill-rule="evenodd" clip-rule="evenodd" d="M160.107 67.0329H60.1431C59.7187 67.0329 59.3741 66.6728 59.3741 66.2291V9.96321C59.3741 9.51942 59.7187 9.15942 60.1431 9.15942H160.107C160.531 9.15942 160.876 9.51951 160.876 9.96321V66.2291C160.876 66.6728 160.531 67.0329 160.107 67.0329Z" fill="url(#paint7_linear)"/>
</g>
<defs>
<linearGradient id="paint0_linear" x1="66.6751" y1="82.504" x2="66.6751" y2="93.0858" gradientUnits="userSpaceOnUse">
<stop stop-color="#CACACA"/>
<stop offset="1" stop-color="#989898"/>
</linearGradient>
<linearGradient id="paint1_linear" x1="153.851" y1="82.504" x2="153.851" y2="93.0858" gradientUnits="userSpaceOnUse">
<stop stop-color="#CACACA"/>
<stop offset="1" stop-color="#989898"/>
</linearGradient>
<linearGradient id="paint2_linear" x1="153.709" y1="82.504" x2="153.709" y2="93.0858" gradientUnits="userSpaceOnUse">
<stop stop-color="#CACACA"/>
<stop offset="1" stop-color="#989898"/>
</linearGradient>
<linearGradient id="paint3_linear" x1="56.4141" y1="83.0403" x2="163.831" y2="83.0403" gradientUnits="userSpaceOnUse">
<stop stop-color="#E4E4E4"/>
<stop offset="1" stop-color="#A8A8A8"/>
</linearGradient>
<linearGradient id="paint4_linear" x1="110.123" y1="88.7932" x2="110.123" y2="92.2402" gradientUnits="userSpaceOnUse">
<stop stop-opacity="0"/>
<stop offset="1" stop-opacity="0.08"/>
</linearGradient>
<linearGradient id="paint5_linear" x1="110.117" y1="78.9547" x2="110.117" y2="91.9469" gradientUnits="userSpaceOnUse">
<stop stop-opacity="0"/>
<stop offset="1" stop-opacity="0.08"/>
</linearGradient>
<linearGradient id="paint6_linear" x1="110.117" y1="77.2945" x2="110.117" y2="88.7743" gradientUnits="userSpaceOnUse">
<stop stop-color="#E9E9E8"/>
<stop offset="1" stop-color="#E0E2E5"/>
</linearGradient>
<linearGradient id="paint7_linear" x1="59.1742" y1="29.1326" x2="144.395" y2="76.8787" gradientUnits="userSpaceOnUse">
<stop stop-color="white" stop-opacity="0.24"/>
<stop offset="1" stop-opacity="0.5"/>
</linearGradient>
<clipPath id="clip0">
<rect width="220" height="96" fill="white"/>
</clipPath>
</defs>
</svg>
