<svg width="180" height="96" viewBox="0 0 180 96" fill="none" xmlns="http://www.w3.org/2000/svg">
<rect x="50.8889" y="5.29883" width="119.111" height="69.3333" fill="url(#paint0_linear)"/>
<path opacity="0.2" fill-rule="evenodd" clip-rule="evenodd" d="M166.444 8.85438L170 5.29883V74.6322L166.444 71.0766V8.85438Z" fill="url(#paint1_linear)"/>
<path opacity="0.6" fill-rule="evenodd" clip-rule="evenodd" d="M54.4445 8.85438L50.8889 5.29883V74.6322L54.4445 71.0766V8.85438Z" fill="url(#paint2_linear)"/>
<rect x="51.1524" y="5.56234" width="118.584" height="68.8063" stroke="black" stroke-opacity="0.24" stroke-width="0.527027"/>
<rect x="51.1524" y="5.56234" width="118.584" height="68.8063" stroke="url(#paint3_linear)" stroke-width="0.527027"/>
<rect x="54.4445" y="8.85449" width="112" height="62.2222" fill="#222222"/>
<rect x="54.4445" y="8.85449" width="112" height="62.2222" fill="url(#paint4_linear)"/>
<rect x="54.4445" y="8.85449" width="112" height="62.2222" stroke="white" stroke-opacity="0.24" stroke-width="0.557143"/>
<rect x="50.8889" y="5.29883" width="119.111" height="69.3333" fill="url(#paint5_linear)"/>
<g filter="url(#filter0_f)">
<ellipse cx="49.5556" cy="89.8207" rx="39.5556" ry="0.162297" fill="#B9BABF"/>
</g>
<g filter="url(#filter1_i)">
<rect x="17.3759" y="44.4099" width="64.0983" height="44.2747" rx="2.48315" fill="url(#paint6_linear)"/>
</g>
<g filter="url(#filter2_i)">
<rect x="17.7023" y="44.7344" width="63.4455" height="43.6255" rx="2.19101" fill="black"/>
</g>
<rect x="17.9731" y="45.0052" width="62.9039" height="43.0838" rx="1.92018" stroke="black" stroke-width="0.541667"/>
<g filter="url(#filter3_i)">
<path fill-rule="evenodd" clip-rule="evenodd" d="M30.9257 85.8931L18.0493 85.8931C18.44 87.0626 19.544 87.9056 20.8449 87.9056L49.425 87.9056H78.0051C79.306 87.9056 80.41 87.0626 80.8007 85.8931H30.9257Z" fill="url(#paint7_linear)"/>
</g>
<ellipse cx="49.425" cy="46.1628" rx="0.261093" ry="0.259675" fill="#070B0C"/>
<ellipse cx="49.4251" cy="46.2275" rx="0.0652732" ry="0.0649188" fill="#232428"/>
<g opacity="0.6">
<rect x="17.3759" y="44.4099" width="63.4455" height="43.6255" rx="2.19101" fill="#222222"/>
<rect x="17.3759" y="44.4099" width="63.4455" height="43.6255" rx="2.19101" fill="url(#paint8_linear)"/>
</g>
<rect x="19.2688" y="47.396" width="60.2472" height="37.5231" rx="0.0730337" fill="#222222"/>
<rect x="19.2688" y="47.396" width="60.2472" height="37.5231" rx="0.0730337" fill="url(#paint9_linear)"/>
<mask id="mask0" mask-type="alpha" maskUnits="userSpaceOnUse" x="19" y="47" width="61" height="38">
<rect x="19.2688" y="47.396" width="60.2472" height="37.5231" rx="0.0730337" fill="white"/>
<rect x="19.2688" y="47.396" width="60.2472" height="37.5231" rx="0.0730337" stroke="white"/>
</mask>
<g mask="url(#mask0)">
</g>
<path fill-rule="evenodd" clip-rule="evenodd" d="M72.3085 90.0803C86.4963 90.1128 88.85 88.6196 88.85 88.6196H49.425V90.0803C49.425 90.0803 58.1208 90.0478 72.3085 90.0803ZM26.5415 90.0803C12.3537 90.1128 10 88.6196 10 88.6196H49.425V90.0803C49.425 90.0803 40.7293 90.0479 26.5415 90.0803Z" fill="url(#paint10_linear)"/>
<mask id="path-18-inside-1" fill="white">
<ellipse cx="61.729" cy="89.3662" rx="0.489549" ry="0.0973783"/>
</mask>
<ellipse cx="61.729" cy="89.3662" rx="0.489549" ry="0.0973783" fill="#E4E5E9"/>
<path d="M61.6769 89.3662C61.6769 89.1748 61.7768 89.0502 61.8311 88.9974C61.8847 88.9453 61.9345 88.921 61.9496 88.9139C61.9828 88.8983 61.9962 88.8985 61.9695 88.9038C61.9251 88.9126 61.8398 88.9219 61.7291 88.9219V90.0052C61.8886 90.0052 62.0481 89.9927 62.1809 89.9663C62.2428 89.954 62.328 89.9331 62.4106 89.8942C62.4506 89.8755 62.5196 89.8389 62.5862 89.7742C62.6536 89.7087 62.7603 89.571 62.7603 89.3662H61.6769ZM61.7291 88.9219C61.6183 88.9219 61.533 88.9126 61.4886 88.9038C61.4619 88.8985 61.4753 88.8983 61.5085 88.9139C61.5236 88.921 61.5734 88.9453 61.627 88.9974C61.6813 89.0502 61.7812 89.1748 61.7812 89.3662H60.6978C60.6978 89.571 60.8045 89.7087 60.8719 89.7742C60.9385 89.8389 61.0075 89.8755 61.0475 89.8942C61.1301 89.9331 61.2153 89.954 61.2772 89.9663C61.41 89.9927 61.5695 90.0052 61.7291 90.0052V88.9219ZM61.7812 89.3662C61.7812 89.5575 61.6813 89.6821 61.627 89.735C61.5734 89.787 61.5236 89.8113 61.5085 89.8184C61.4753 89.834 61.4619 89.8339 61.4886 89.8286C61.533 89.8197 61.6183 89.8105 61.7291 89.8105V88.7271C61.5695 88.7271 61.41 88.7396 61.2772 88.7661C61.2153 88.7784 61.1301 88.7992 61.0475 88.8381C61.0075 88.8569 60.9385 88.8934 60.8719 88.9582C60.8045 89.0236 60.6978 89.1614 60.6978 89.3662H61.7812ZM61.7291 89.8105C61.8398 89.8105 61.9251 89.8197 61.9695 89.8286C61.9962 89.8339 61.9828 89.834 61.9496 89.8184C61.9345 89.8113 61.8847 89.787 61.8311 89.735C61.7768 89.6821 61.6769 89.5575 61.6769 89.3662H62.7603C62.7603 89.1614 62.6536 89.0236 62.5862 88.9582C62.5196 88.8934 62.4506 88.8569 62.4106 88.8381C62.328 88.7992 62.2428 88.7784 62.1809 88.7661C62.0481 88.7396 61.8886 88.7271 61.7291 88.7271V89.8105Z" fill="#D7D8DB" mask="url(#path-18-inside-1)"/>
<ellipse cx="61.729" cy="89.3819" rx="0.0979098" ry="0.0481481" fill="#C5C7CD"/>
<mask id="path-21-inside-2" fill="white">
<ellipse cx="37.1863" cy="89.3662" rx="0.489549" ry="0.0973783"/>
</mask>
<ellipse cx="37.1863" cy="89.3662" rx="0.489549" ry="0.0973783" fill="#E4E5E9"/>
<path d="M37.1341 89.3662C37.1341 89.1748 37.234 89.0502 37.2883 88.9974C37.3419 88.9453 37.3917 88.921 37.4068 88.9139C37.44 88.8983 37.4534 88.8985 37.4268 88.9038C37.3824 88.9126 37.2971 88.9219 37.1863 88.9219V90.0052C37.3459 90.0052 37.5053 89.9927 37.6381 89.9663C37.7 89.954 37.7852 89.9331 37.8679 89.8942C37.9078 89.8755 37.9768 89.8389 38.0434 89.7742C38.1108 89.7087 38.2175 89.571 38.2175 89.3662H37.1341ZM37.1863 88.9219C37.0755 88.9219 36.9902 88.9126 36.9458 88.9038C36.9191 88.8985 36.9326 88.8983 36.9657 88.9139C36.9809 88.921 37.0307 88.9453 37.0842 88.9974C37.1385 89.0502 37.2384 89.1748 37.2384 89.3662H36.155C36.155 89.571 36.2617 89.7087 36.3291 89.7742C36.3957 89.8389 36.4647 89.8755 36.5047 89.8942C36.5874 89.9331 36.6725 89.954 36.7344 89.9663C36.8672 89.9927 37.0267 90.0052 37.1863 90.0052V88.9219ZM37.2384 89.3662C37.2384 89.5575 37.1385 89.6821 37.0842 89.735C37.0307 89.787 36.9809 89.8113 36.9657 89.8184C36.9326 89.834 36.9191 89.8339 36.9458 89.8286C36.9902 89.8197 37.0755 89.8105 37.1863 89.8105V88.7271C37.0267 88.7271 36.8672 88.7396 36.7344 88.7661C36.6725 88.7784 36.5874 88.7992 36.5047 88.8381C36.4647 88.8569 36.3957 88.8934 36.3291 88.9582C36.2617 89.0236 36.155 89.1614 36.155 89.3662H37.2384ZM37.1863 89.8105C37.2971 89.8105 37.3824 89.8197 37.4268 89.8286C37.4534 89.8339 37.44 89.834 37.4068 89.8184C37.3917 89.8113 37.3419 89.787 37.2883 89.735C37.234 89.6821 37.1341 89.5575 37.1341 89.3662H38.2175C38.2175 89.1614 38.1108 89.0236 38.0434 88.9582C37.9768 88.8934 37.9078 88.8569 37.8679 88.8381C37.7852 88.7992 37.7 88.7784 37.6381 88.7661C37.5053 88.7396 37.3459 88.7271 37.1863 88.7271V89.8105Z" fill="#D7D8DB" mask="url(#path-21-inside-2)"/>
<ellipse cx="37.1862" cy="89.3819" rx="0.0979098" ry="0.0481481" fill="#C5C7CD"/>
<path fill-rule="evenodd" clip-rule="evenodd" d="M10 87.2644C10 87.2241 10.0327 87.1914 10.073 87.1914H42.9886L43.1844 87.2563H55.7565L56.0176 87.1914H88.777C88.8173 87.1914 88.85 87.2241 88.85 87.2644V88.6196H10V87.2644Z" fill="url(#paint11_linear)"/>
<g filter="url(#filter4_di)">
<path fill-rule="evenodd" clip-rule="evenodd" d="M54.9708 88.1652H44.0059C43.4506 88.1652 42.9965 87.7346 42.963 87.1914L43.2241 87.2563H55.7526L56.0137 87.1914C55.9802 87.7348 55.5264 88.1652 54.9708 88.1652Z" fill="url(#paint12_linear)"/>
</g>
<path d="M106.259 46.9656V36.6609H110.04V35.6921H101.415V36.6609H105.196V46.9656H106.259ZM116.587 46.9656L120.798 35.6921H119.673L116.102 45.5671H116.001L112.431 35.6921H111.306L115.524 46.9656H116.587Z" fill="white" fill-opacity="0.24"/>
<defs>
<filter id="filter0_f" x="9.04725" y="88.7057" width="81.0166" height="2.23009" filterUnits="userSpaceOnUse" color-interpolation-filters="sRGB">
<feFlood flood-opacity="0" result="BackgroundImageFix"/>
<feBlend mode="normal" in="SourceGraphic" in2="BackgroundImageFix" result="shape"/>
<feGaussianBlur stdDeviation="0.476374" result="effect1_foregroundBlur"/>
</filter>
<filter id="filter1_i" x="17.3759" y="44.4099" width="64.0983" height="44.2747" filterUnits="userSpaceOnUse" color-interpolation-filters="sRGB">
<feFlood flood-opacity="0" result="BackgroundImageFix"/>
<feBlend mode="normal" in="SourceGraphic" in2="BackgroundImageFix" result="shape"/>
<feColorMatrix in="SourceAlpha" type="matrix" values="0 0 0 0 0 0 0 0 0 0 0 0 0 0 0 0 0 0 127 0" result="hardAlpha"/>
<feOffset/>
<feGaussianBlur stdDeviation="0.5"/>
<feComposite in2="hardAlpha" operator="arithmetic" k2="-1" k3="1"/>
<feColorMatrix type="matrix" values="0 0 0 0 0.257004 0 0 0 0 0.261685 0 0 0 0 0.271046 0 0 0 1 0"/>
<feBlend mode="normal" in2="shape" result="effect1_innerShadow"/>
</filter>
<filter id="filter2_i" x="17.7023" y="44.7344" width="63.4455" height="43.6255" filterUnits="userSpaceOnUse" color-interpolation-filters="sRGB">
<feFlood flood-opacity="0" result="BackgroundImageFix"/>
<feBlend mode="normal" in="SourceGraphic" in2="BackgroundImageFix" result="shape"/>
<feColorMatrix in="SourceAlpha" type="matrix" values="0 0 0 0 0 0 0 0 0 0 0 0 0 0 0 0 0 0 127 0" result="hardAlpha"/>
<feOffset/>
<feGaussianBlur stdDeviation="0.5"/>
<feComposite in2="hardAlpha" operator="arithmetic" k2="-1" k3="1"/>
<feColorMatrix type="matrix" values="0 0 0 0 0.708679 0 0 0 0 0.708679 0 0 0 0 0.708679 0 0 0 1 0"/>
<feBlend mode="normal" in2="shape" result="effect1_innerShadow"/>
</filter>
<filter id="filter3_i" x="18.0493" y="85.8931" width="62.7515" height="2.0125" filterUnits="userSpaceOnUse" color-interpolation-filters="sRGB">
<feFlood flood-opacity="0" result="BackgroundImageFix"/>
<feBlend mode="normal" in="SourceGraphic" in2="BackgroundImageFix" result="shape"/>
<feColorMatrix in="SourceAlpha" type="matrix" values="0 0 0 0 0 0 0 0 0 0 0 0 0 0 0 0 0 0 127 0" result="hardAlpha"/>
<feOffset/>
<feGaussianBlur stdDeviation="0.5"/>
<feComposite in2="hardAlpha" operator="arithmetic" k2="-1" k3="1"/>
<feColorMatrix type="matrix" values="0 0 0 0 1 0 0 0 0 1 0 0 0 0 1 0 0 0 0.03 0"/>
<feBlend mode="normal" in2="shape" result="effect1_innerShadow"/>
</filter>
<filter id="filter4_di" x="41.963" y="86.1914" width="15.0507" height="2.97378" filterUnits="userSpaceOnUse" color-interpolation-filters="sRGB">
<feFlood flood-opacity="0" result="BackgroundImageFix"/>
<feColorMatrix in="SourceAlpha" type="matrix" values="0 0 0 0 0 0 0 0 0 0 0 0 0 0 0 0 0 0 127 0"/>
<feOffset/>
<feGaussianBlur stdDeviation="0.5"/>
<feColorMatrix type="matrix" values="0 0 0 0 1 0 0 0 0 1 0 0 0 0 1 0 0 0 0.242584 0"/>
<feBlend mode="normal" in2="BackgroundImageFix" result="effect1_dropShadow"/>
<feBlend mode="normal" in="SourceGraphic" in2="effect1_dropShadow" result="shape"/>
<feColorMatrix in="SourceAlpha" type="matrix" values="0 0 0 0 0 0 0 0 0 0 0 0 0 0 0 0 0 0 127 0" result="hardAlpha"/>
<feOffset/>
<feGaussianBlur stdDeviation="0.5"/>
<feComposite in2="hardAlpha" operator="arithmetic" k2="-1" k3="1"/>
<feColorMatrix type="matrix" values="0 0 0 0 0 0 0 0 0 0 0 0 0 0 0 0 0 0 0.434471 0"/>
<feBlend mode="normal" in2="shape" result="effect2_innerShadow"/>
</filter>
<linearGradient id="paint0_linear" x1="50.8889" y1="38.1941" x2="163.914" y2="38.1941" gradientUnits="userSpaceOnUse">
<stop stop-color="#9A9EA1"/>
<stop offset="1" stop-color="#D3D3D3"/>
</linearGradient>
<linearGradient id="paint1_linear" x1="166.444" y1="5.29883" x2="166.444" y2="74.6322" gradientUnits="userSpaceOnUse">
<stop stop-color="#666666"/>
<stop offset="0.29389" stop-color="#A0A0A2"/>
<stop offset="1" stop-color="#696969"/>
</linearGradient>
<linearGradient id="paint2_linear" x1="52.6667" y1="5.29883" x2="52.6667" y2="74.6322" gradientUnits="userSpaceOnUse">
<stop stop-color="#AAABAD"/>
<stop offset="0.157115" stop-color="#DCDCDC"/>
<stop offset="1" stop-color="#AAABAD"/>
</linearGradient>
<linearGradient id="paint3_linear" x1="-8.66664" y1="39.9655" x2="51.6222" y2="143.539" gradientUnits="userSpaceOnUse">
<stop stop-color="white" stop-opacity="0.4"/>
<stop offset="0.542051" stop-color="white" stop-opacity="0.01"/>
<stop offset="1" stop-color="white" stop-opacity="0.4"/>
</linearGradient>
<linearGradient id="paint4_linear" x1="-1.55554" y1="39.9656" x2="51.2746" y2="135.06" gradientUnits="userSpaceOnUse">
<stop stop-color="white" stop-opacity="0.16"/>
<stop offset="1" stop-opacity="0.5"/>
</linearGradient>
<linearGradient id="paint5_linear" x1="-8.66664" y1="39.9655" x2="51.6222" y2="143.539" gradientUnits="userSpaceOnUse">
<stop stop-color="white" stop-opacity="0.08"/>
<stop offset="1" stop-color="white" stop-opacity="0.01"/>
</linearGradient>
<linearGradient id="paint6_linear" x1="18.5459" y1="44.4099" x2="18.5459" y2="87.0682" gradientUnits="userSpaceOnUse">
<stop stop-color="#4B4D4C"/>
<stop offset="1" stop-color="#636466"/>
</linearGradient>
<linearGradient id="paint7_linear" x1="29.1124" y1="86.6027" x2="29.1124" y2="87.9056" gradientUnits="userSpaceOnUse">
<stop stop-color="#1D1D1D"/>
<stop offset="1" stop-color="#0D0D0D"/>
</linearGradient>
<linearGradient id="paint8_linear" x1="-14.3469" y1="66.2226" x2="26.3878" y2="125.464" gradientUnits="userSpaceOnUse">
<stop stop-color="white" stop-opacity="0.24"/>
<stop offset="1" stop-opacity="0.5"/>
</linearGradient>
<linearGradient id="paint9_linear" x1="-10.8548" y1="66.1575" x2="22.8221" y2="120.229" gradientUnits="userSpaceOnUse">
<stop stop-color="white" stop-opacity="0.24"/>
<stop offset="1" stop-opacity="0.5"/>
</linearGradient>
<linearGradient id="paint10_linear" x1="88.85" y1="90.0808" x2="88.85" y2="88.6196" gradientUnits="userSpaceOnUse">
<stop stop-color="#F6F6F6"/>
<stop offset="0.146616" stop-color="#F8F8F9"/>
<stop offset="0.444686" stop-color="#E7E7E8"/>
<stop offset="0.825674" stop-color="#C6C7CD"/>
<stop offset="1" stop-color="#B8B9BD"/>
</linearGradient>
<linearGradient id="paint11_linear" x1="10" y1="88.6196" x2="88.85" y2="88.6196" gradientUnits="userSpaceOnUse">
<stop stop-color="#27282C"/>
<stop offset="0.00827815" stop-color="#ABACB0"/>
<stop offset="0.0252192" stop-color="#3E3F43"/>
<stop offset="0.132007" stop-color="#88898D"/>
<stop offset="0.505746" stop-color="#A2A3A7"/>
<stop offset="0.876216" stop-color="#88898D"/>
<stop offset="0.974884" stop-color="#3E3F43"/>
<stop offset="0.991722" stop-color="#ABACB0"/>
<stop offset="1" stop-color="#27282C"/>
</linearGradient>
<linearGradient id="paint12_linear" x1="42.963" y1="88.1652" x2="56.0137" y2="88.1652" gradientUnits="userSpaceOnUse">
<stop stop-color="#4E5457"/>
<stop offset="0.15112" stop-color="#83888B"/>
<stop offset="0.505746" stop-color="#9D9FA4"/>
<stop offset="0.849955" stop-color="#83888B"/>
<stop offset="1" stop-color="#4E5457"/>
</linearGradient>
</defs>
</svg>
