<?xml version="1.0" encoding="UTF-8"?>
<svg width="160px" height="96px" viewBox="0 0 160 96" version="1.1" xmlns="http://www.w3.org/2000/svg" xmlns:xlink="http://www.w3.org/1999/xlink">
    <!-- Generator: sketchtool 53.2 (72643) - https://sketchapp.com -->
    <title>img_pairing_96</title>
    <desc>Created with sketchtool.</desc>
    <g id="img_pairing_96" stroke="none" stroke-width="1" fill="none" fill-rule="evenodd">
        <g id="img_pairing_96" transform="translate(-640.000000, -294.000000)">
            <g id="content" transform="translate(120.000000, 116.000000)">
                <g id="illustration" transform="translate(520.000000, 178.000000)">
                    <rect id="bounds" x="0" y="0" width="160" height="96"></rect>
                    <g id="illu" transform="translate(3.000000, 0.000000)">
                        <rect id="fill" fill-opacity="0.24" fill="#C2C2C2" x="30" y="12" width="119" height="59" rx="3"></rect>
                        <circle id="Oval" fill="#FFFFFF" cx="89" cy="42" r="22"></circle>
                        <path d="M83.2105263,47.3333333 C83.2105263,47.7013333 83.5111579,48 83.8815789,48 C84.252,48 84.5526316,47.7013333 84.5526316,47.3333333 C84.5526316,46.9653333 84.252,46.6666667 83.8815789,46.6666667 C83.5111579,46.6666667 83.2105263,46.9653333 83.2105263,47.3333333" id="fill" fill="#07C1E4"></path>
                        <path d="M97.3026316,48 C96.9322105,48 96.6315789,47.7013333 96.6315789,47.3333333 C96.6315789,40.3493333 90.9115263,34.6666667 83.8815789,34.6666667 C83.5111579,34.6666667 83.2105263,34.368 83.2105263,34 C83.2105263,33.632 83.5111579,33.3333333 83.8815789,33.3333333 C91.6523684,33.3333333 97.9736842,39.6133333 97.9736842,47.3333333 C97.9736842,47.7013333 97.6730526,48 97.3026316,48" id="fill" fill="#07C1E4"></path>
                        <path d="M90.5921053,48 C90.2216842,48 89.9210526,47.7013333 89.9210526,47.3333333 C89.9210526,44.0253333 87.2113421,41.3333333 83.8815789,41.3333333 C83.5111579,41.3333333 83.2105263,41.0346667 83.2105263,40.6666667 C83.2105263,40.2986667 83.5111579,40 83.8815789,40 C87.9508421,40 91.2631579,43.2893333 91.2631579,47.3333333 C91.2631579,47.7013333 90.9625263,48 90.5921053,48" id="fill" fill="#07C1E4"></path>
                        <path d="M27,41 L26,41 L26,6 C26,2.6862915 28.6862915,5.32907052e-16 32,0 L147,0 C150.313708,-6.66133815e-16 153,2.6862915 153,6 L153,77 C153,80.3137085 150.313708,83 147,83 L100,83 C99.737825,82.9836 99.53,82.76607 99.53,82.5 C99.53,82.23393 99.737825,82.0164 100,82.0008852 L147,82 C149.761424,82 152,79.7614237 152,77 L152,6 C152,3.23857625 149.761424,1 147,1 L32,1 C29.2385763,1 27,3.23857625 27,6 L27,41 Z" id="Path" fill="#AFAFAF"></path>
                        <path d="M2.44541485,96 C1.09554585,96 0,94.656 0,93 L96,93 C96,94.656 94.9044541,96 93.5545852,96 L2.44541485,96 Z" id="Path" fill="#07C1E4"></path>
                        <path d="M67.0054458,41 C67.0018215,41.1662287 67,41.3329016 67,41.5 C67,53.7593085 76.8044947,63.7286546 89,63.9945542 L89,93 L7,93 L7,44.6175753 C7,42.6194679 8.64648014,41 10.6779154,41 L26,41 L26,78 C26,81.0375661 28.4624339,83.5 31.5,83.5 L44,83.5 C44.2761424,83.5 44.5,83.2761424 44.5,83 C44.5,82.7238576 44.2761424,82.5 44,82.5 L31.5,82.5 C29.0147186,82.5 27,80.4852814 27,78 L27,41 L67.0054458,41 Z" id="fill" fill="#07C1E4"></path>
                        <path d="M2.44541485,96 C1.09554585,96 0,94.656 0,93 L96,93 C96,94.656 94.9044541,96 93.5545852,96 L2.44541485,96 Z" id="Path" fill="#000000" opacity="0.1"></path>
                    </g>
                </g>
            </g>
        </g>
    </g>
</svg>