<svg width="200" height="72" viewBox="0 0 200 72" fill="none" xmlns="http://www.w3.org/2000/svg">
<circle opacity="0.25" cx="141" cy="48" r="24" fill="#FC9D03"/>
<path fill-rule="evenodd" clip-rule="evenodd" d="M151.691 53.314L142.927 38.4668C142.523 37.7834 141.802 37.375 141 37.375C140.197 37.375 139.477 37.7827 139.072 38.4668L130.309 53.3133C129.896 54.0118 129.897 54.8444 130.314 55.5415C130.719 56.2201 131.438 56.625 132.237 56.625H149.763C150.562 56.625 151.281 56.2201 151.686 55.5415C151.895 55.1929 151.999 54.8107 151.999 54.4277C152 54.0455 151.898 53.6626 151.691 53.314ZM141.062 42.875C141.477 42.875 141.812 43.2108 141.812 43.625V49C141.812 49.4142 141.477 49.75 141.062 49.75C140.648 49.75 140.312 49.4142 140.312 49V43.625C140.312 43.2108 140.648 42.875 141.062 42.875ZM141.062 52.625C141.477 52.625 141.812 52.2892 141.812 51.875C141.812 51.4608 141.477 51.125 141.062 51.125C140.648 51.125 140.312 51.4608 140.312 51.875C140.312 52.2892 140.648 52.625 141.062 52.625Z" fill="#D97F00"/>
<path fill-rule="evenodd" clip-rule="evenodd" d="M98.9263 4.04736C98.9263 3.77122 99.1501 3.54736 99.4263 3.54736H102.974C103.25 3.54736 103.474 3.77122 103.474 4.04736C103.474 4.32351 103.25 4.54736 102.974 4.54736H99.4263C99.1501 4.54736 98.9263 4.32351 98.9263 4.04736Z" fill="#D97F00"/>
<path d="M135.368 1H64C61.2386 1 59 3.23858 59 6.00001V48.5684C59 51.3298 61.2386 53.5684 64 53.5684H77V54.5684H64C60.6863 54.5684 58 51.8821 58 48.5684V6.00001C58 2.6863 60.6863 0 64 0H135.368C138.682 0 141.368 2.68629 141.368 6V24.0028C141.246 24.0009 141.123 24 141 24C140.789 24 140.578 24.0027 140.368 24.0081V6C140.368 3.23858 138.13 1 135.368 1Z" fill="#D97F00"/>
<path d="M117.649 53.5684H89V54.5684H117.91C117.816 54.2379 117.729 53.9045 117.649 53.5684Z" fill="#D97F00"/>
<path fill-rule="evenodd" clip-rule="evenodd" d="M81.8899 32.2893V42.4025L86.921 37.3459L81.8899 32.2893ZM81.8899 43.8203L87.8755 37.8044C88.1278 37.5508 88.1278 37.141 87.8755 36.8874L82.0007 30.9829C81.5917 30.5718 80.8899 30.8615 80.8899 31.4413V43.0989L75.8544 38.0379C75.6597 37.8422 75.3431 37.8414 75.1473 38.0361C74.9516 38.2309 74.9508 38.5475 75.1456 38.7432L80.3381 43.9621L75.1456 49.181C74.9508 49.3768 74.9516 49.6933 75.1473 49.8881C75.3431 50.0829 75.6597 50.0821 75.8544 49.8863L80.8899 44.8253V56.4829C80.8899 57.0628 81.5917 57.3524 82.0007 56.9414L87.8755 51.0368C88.1278 50.7832 88.1278 50.3734 87.8755 50.1199L81.8899 44.104V43.8203ZM81.8899 45.5218L86.921 50.5783L81.8899 55.6349V45.5218Z" fill="#D97F00"/>
<path opacity="0.1" d="M62.2637 8.33984C61.1591 8.33984 60.2637 9.23527 60.2637 10.3398V45.5229C60.2637 46.6275 61.1591 47.5229 62.2637 47.5229H117.005C117.244 35.2481 126.699 25.2314 138.736 24.1052V10.3398C138.736 9.23527 137.841 8.33984 136.736 8.33984H62.2637Z" fill="#FFC14F"/>
</svg>
