<svg width="180" height="96" viewBox="0 0 180 96" fill="none" xmlns="http://www.w3.org/2000/svg">
<path fill-rule="evenodd" clip-rule="evenodd" d="M19.0579 56.2286V87.7715C19.0579 89.2855 20.2848 90.5143 21.7964 90.5143V91.8857H17.6886L16.3193 90.5143V54.8572L19.0579 56.2286Z" fill="url(#paint0_linear)"/>
<path fill-rule="evenodd" clip-rule="evenodd" d="M159.866 56.2286V87.7715C159.866 89.2855 158.639 90.5143 157.128 90.5143V91.8857H161.235L162.605 90.5143V54.8572L159.866 56.2286Z" fill="url(#paint1_linear)"/>
<path fill-rule="evenodd" clip-rule="evenodd" d="M161.289 87.3713C161.289 88.8706 160.052 90.085 158.528 90.085H20.4722C18.9481 90.085 17.7111 88.8706 17.7111 87.3713V50.1321C16.0683 51.0724 14.95 52.8038 14.95 54.8065V87.3713C14.95 90.3686 17.4226 92.7987 20.4722 92.7987H158.528C161.577 92.7987 164.05 90.3686 164.05 87.3713V54.8065C164.05 52.8038 162.932 51.0724 161.289 50.1321V87.3713Z" fill="url(#paint2_linear)"/>
<path fill-rule="evenodd" clip-rule="evenodd" d="M20.4272 96V94.6286L23.1657 91.8857H27.2736V93.2572L24.535 96H20.4272Z" fill="url(#paint3_radial)"/>
<path fill-rule="evenodd" clip-rule="evenodd" d="M24.9362 94.2268C24.6802 94.4832 24.331 94.6286 23.9681 94.6286H20.4272V96H23.9681C24.331 96 24.6802 95.8547 24.9362 95.5982L27.2736 93.2572V91.8857L24.9362 94.2268Z" fill="#D3D3D3"/>
<path fill-rule="evenodd" clip-rule="evenodd" d="M157.356 96V94.6286L154.617 91.8857H150.509V93.2572L153.248 96H157.356Z" fill="url(#paint4_radial)"/>
<path fill-rule="evenodd" clip-rule="evenodd" d="M152.847 94.2268C153.103 94.4832 153.452 94.6286 153.815 94.6286H157.356V96H153.815C153.452 96 153.103 95.8547 152.847 95.5982L150.509 93.2572V91.8857L152.847 94.2268Z" fill="#D3D3D3"/>
<path fill-rule="evenodd" clip-rule="evenodd" d="M17.7111 0C16.187 0 14.95 1.2288 14.95 2.74286V53.4857C14.95 54.9998 16.187 56.2286 17.7111 56.2286H161.289C162.813 56.2286 164.05 54.9998 164.05 53.4857V2.74286C164.05 1.2288 162.813 0 161.289 0H17.7111Z" fill="#E0E0E0"/>
<path fill-rule="evenodd" clip-rule="evenodd" d="M88.2555 54.885H88.3719V54.3698H88.2555V54.885ZM89.3134 54.5178C89.3092 54.5163 89.2714 54.4897 89.2153 54.4897C89.1395 54.4897 89.0876 54.549 89.0876 54.6287C89.0876 54.7051 89.1381 54.766 89.2153 54.766C89.27 54.766 89.3092 54.741 89.3134 54.7379V54.8753C89.2994 54.8815 89.2587 54.894 89.2068 54.894C89.0764 54.894 88.9613 54.7926 88.9613 54.6287C88.9613 54.4741 89.0652 54.3617 89.2068 54.3617C89.2615 54.3617 89.3022 54.3758 89.3134 54.3804V54.5178ZM88.095 54.5178C88.0908 54.5163 88.0529 54.4897 87.9968 54.4897C87.921 54.4897 87.8691 54.549 87.8691 54.6287C87.8691 54.7051 87.9196 54.766 87.9968 54.766C88.0515 54.766 88.0908 54.741 88.095 54.7379V54.8753C88.081 54.8815 88.0417 54.894 87.9898 54.894C87.8579 54.894 87.7429 54.7926 87.7429 54.6287C87.7429 54.4741 87.8467 54.3617 87.9898 54.3617C88.0445 54.3617 88.0852 54.3758 88.095 54.3804V54.5178ZM89.6807 54.4919C89.612 54.4919 89.5601 54.5543 89.5601 54.6277C89.5601 54.7026 89.612 54.7635 89.6807 54.7635C89.7508 54.7635 89.8013 54.7026 89.8013 54.6277C89.8013 54.5543 89.7508 54.4919 89.6807 54.4919ZM89.9262 54.6277C89.9262 54.7745 89.8238 54.8947 89.6807 54.8947C89.539 54.8947 89.4366 54.7745 89.4366 54.6277C89.4366 54.481 89.539 54.3623 89.6807 54.3623C89.8238 54.3623 89.9262 54.481 89.9262 54.6277ZM88.8156 54.4874C88.8142 54.4874 88.7651 54.4718 88.7244 54.4718C88.6767 54.4718 88.6515 54.4889 88.6515 54.5139C88.6515 54.5451 88.6865 54.5561 88.7062 54.5623L88.737 54.5748C88.8142 54.6013 88.8479 54.6591 88.8479 54.7215C88.8479 54.8511 88.7469 54.8948 88.6571 54.8948C88.594 54.8948 88.5364 54.8808 88.5294 54.8792V54.7621C88.5406 54.7652 88.5897 54.7809 88.6402 54.7809C88.6992 54.7809 88.7258 54.7621 88.7258 54.7325C88.7258 54.7075 88.702 54.6919 88.6725 54.6825C88.6669 54.6794 88.6557 54.6763 88.6487 54.6731C88.5827 54.6497 88.528 54.6076 88.528 54.5217C88.528 54.4265 88.594 54.3609 88.702 54.3609C88.7581 54.3609 88.8114 54.3765 88.8156 54.3781V54.4874ZM87.6196 53.8173C87.6196 53.7814 87.5915 53.7533 87.5607 53.7533C87.5284 53.7533 87.5031 53.7814 87.5031 53.8173V53.9516C87.5031 53.9875 87.5284 54.0172 87.5607 54.0172C87.5915 54.0172 87.6196 53.9875 87.6196 53.9516V53.8173ZM87.9374 53.6397C87.9374 53.6054 87.9108 53.5757 87.8785 53.5757C87.8477 53.5757 87.821 53.6054 87.821 53.6397V53.9519C87.821 53.9878 87.8477 54.0175 87.8785 54.0175C87.9108 54.0175 87.9374 53.9878 87.9374 53.9519V53.6397ZM88.2559 53.3973C88.2559 53.3614 88.2292 53.3333 88.197 53.3333C88.1661 53.3333 88.1394 53.3614 88.1394 53.3973V54.081C88.1394 54.1154 88.1661 54.145 88.197 54.145C88.2292 54.145 88.2559 54.1154 88.2559 54.081V53.3973ZM88.5738 53.6397C88.5738 53.6054 88.5471 53.5757 88.5162 53.5757C88.484 53.5757 88.4573 53.6054 88.4573 53.6397V53.9519C88.4573 53.9878 88.484 54.0175 88.5162 54.0175C88.5471 54.0175 88.5738 53.9878 88.5738 53.9519V53.6397ZM88.8922 53.8173C88.8922 53.7814 88.8655 53.7533 88.8333 53.7533C88.8024 53.7533 88.7758 53.7814 88.7758 53.8173V53.9516C88.7758 53.9875 88.8024 54.0172 88.8333 54.0172C88.8655 54.0172 88.8922 53.9875 88.8922 53.9516V53.8173ZM89.2101 53.6397C89.2101 53.6054 89.1834 53.5757 89.1511 53.5757C89.1203 53.5757 89.0936 53.6054 89.0936 53.6397V53.9519C89.0936 53.9878 89.1203 54.0175 89.1511 54.0175C89.1834 54.0175 89.2101 53.9878 89.2101 53.9519V53.6397ZM89.5286 53.3973C89.5286 53.3614 89.5034 53.3333 89.4711 53.3333C89.4389 53.3333 89.4122 53.3614 89.4122 53.3973V54.081C89.4122 54.1154 89.4389 54.145 89.4711 54.145C89.5034 54.145 89.5286 54.1154 89.5286 54.081V53.3973ZM89.8478 53.6397C89.8478 53.6054 89.8211 53.5757 89.7889 53.5757C89.7566 53.5757 89.7313 53.6054 89.7313 53.6397V53.9519C89.7313 53.9878 89.7566 54.0175 89.7889 54.0175C89.8211 54.0175 89.8478 53.9878 89.8478 53.9519V53.6397ZM90.1656 53.8173C90.1656 53.7814 90.139 53.7533 90.1081 53.7533C90.0759 53.7533 90.0492 53.7814 90.0492 53.8173V53.9516C90.0492 53.9875 90.0759 54.0172 90.1081 54.0172C90.139 54.0172 90.1656 53.9875 90.1656 53.9516V53.8173Z" fill="#908E8E"/>
<path fill-rule="evenodd" clip-rule="evenodd" d="M17.0039 52.1142H86.8375C87.2154 52.1142 87.5222 51.807 87.5222 51.4285V13.0285C87.5222 12.65 87.2154 12.3428 86.8375 12.3428H17.0039C16.626 12.3428 16.3193 12.65 16.3193 13.0285V51.4285C16.3193 51.807 16.626 52.1142 17.0039 52.1142ZM90.9454 52.1142H160.779C161.157 52.1142 161.464 51.807 161.464 51.4285V13.0285C161.464 12.65 161.157 12.3428 160.779 12.3428H90.9454C90.5675 12.3428 90.2607 12.65 90.2607 13.0285V51.4285C90.2607 51.807 90.5675 52.1142 90.9454 52.1142Z" fill="#222222"/>
<path fill-rule="evenodd" clip-rule="evenodd" d="M17.0039 52.1142H86.8375C87.2154 52.1142 87.5222 51.807 87.5222 51.4285V13.0285C87.5222 12.65 87.2154 12.3428 86.8375 12.3428H17.0039C16.626 12.3428 16.3193 12.65 16.3193 13.0285V51.4285C16.3193 51.807 16.626 52.1142 17.0039 52.1142ZM90.9454 52.1142H160.779C161.157 52.1142 161.464 51.807 161.464 51.4285V13.0285C161.464 12.65 161.157 12.3428 160.779 12.3428H90.9454C90.5675 12.3428 90.2607 12.65 90.2607 13.0285V51.4285C90.2607 51.807 90.5675 52.1142 90.9454 52.1142Z" fill="url(#paint5_linear)"/>
<rect x="84.175" y="4" width="10.65" height="4" rx="2" fill="url(#paint6_linear)"/>
<rect x="84.8406" y="4.66675" width="4.65938" height="2.66667" rx="1.33333" fill="#232323"/>
<ellipse cx="86.1719" cy="5.99992" rx="0.665625" ry="0.666667" fill="#494E5C"/>
<rect x="90.8313" y="4.66675" width="2.6625" height="2.66667" rx="1.33125" fill="#232323"/>
<ellipse cx="92.8281" cy="5.99992" rx="0.665625" ry="0.666667" fill="#494E5C"/>
<defs>
<linearGradient id="paint0_linear" x1="16.3212" y1="54.8572" x2="16.3212" y2="91.8607" gradientUnits="userSpaceOnUse">
<stop stop-color="#B1B1B1"/>
<stop offset="0.278382" stop-color="#C9C9C9"/>
<stop offset="0.514141" stop-color="#D6D6D6"/>
<stop offset="0.743587" stop-color="#C9C9C9"/>
<stop offset="0.953577" stop-color="#ECECEC"/>
<stop offset="0.999932" stop-color="#B1B1B1"/>
</linearGradient>
<linearGradient id="paint1_linear" x1="157.129" y1="54.8572" x2="157.129" y2="91.8607" gradientUnits="userSpaceOnUse">
<stop stop-color="#B1B1B1"/>
<stop offset="0.278382" stop-color="#C9C9C9"/>
<stop offset="0.514141" stop-color="#D6D6D6"/>
<stop offset="0.743587" stop-color="#C9C9C9"/>
<stop offset="0.953577" stop-color="#ECECEC"/>
<stop offset="0.999932" stop-color="#B1B1B1"/>
</linearGradient>
<linearGradient id="paint2_linear" x1="14.9702" y1="50.1321" x2="14.9702" y2="92.7872" gradientUnits="userSpaceOnUse">
<stop stop-color="#CFCFCF"/>
<stop offset="0.470308" stop-color="#F1F1F1"/>
<stop offset="0.999932" stop-color="#D9D9D9"/>
</linearGradient>
<radialGradient id="paint3_radial" cx="0" cy="0" r="1" gradientUnits="userSpaceOnUse" gradientTransform="translate(24.725 100.341) rotate(24.0092) scale(5.05586 3.92811)">
<stop stop-color="#9C9C9C"/>
<stop offset="0.528236" stop-color="#E8E8E8"/>
<stop offset="1" stop-color="#E8E8E8"/>
</radialGradient>
<radialGradient id="paint4_radial" cx="0" cy="0" r="1" gradientUnits="userSpaceOnUse" gradientTransform="translate(154.807 100.341) rotate(24.0092) scale(5.05586 3.92811)">
<stop stop-color="#9C9C9C"/>
<stop offset="0.528236" stop-color="#E8E8E8"/>
<stop offset="1" stop-color="#E8E8E8"/>
</radialGradient>
<linearGradient id="paint5_linear" x1="-75.361" y1="-12.7483" x2="-71.4456" y2="67.6078" gradientUnits="userSpaceOnUse">
<stop stop-color="white" stop-opacity="0.24"/>
<stop offset="1" stop-opacity="0.5"/>
</linearGradient>
<linearGradient id="paint6_linear" x1="84.5634" y1="4.14477" x2="84.5634" y2="7.85305" gradientUnits="userSpaceOnUse">
<stop stop-color="#333333"/>
<stop offset="1" stop-color="#3E3E3E"/>
</linearGradient>
</defs>
</svg>
