<svg width="180" height="96" viewBox="0 0 180 96" fill="none" xmlns="http://www.w3.org/2000/svg">
<path fill-rule="evenodd" clip-rule="evenodd" d="M12.963 77.2224C12.963 76.6701 13.4108 76.2224 13.963 76.2224H166.037C166.589 76.2224 167.037 76.6701 167.037 77.2224V81.1042C167.037 81.6734 166.593 82.1292 166.024 82.1052C158.701 81.7958 113.48 79.9261 90.0001 79.9261C66.5204 79.9261 21.2994 81.7958 13.976 82.1052C13.4073 82.1292 12.963 81.6734 12.963 81.1042V77.2224Z" fill="black"/>
<path fill-rule="evenodd" clip-rule="evenodd" d="M10 18.0146C10 15.784 11.8011 13.9839 14.0315 14.0131C27.0288 14.1834 68.2446 14.7001 90 14.7001C111.755 14.7001 152.971 14.1834 165.968 14.0131C168.199 13.9839 170 15.784 170 18.0146V76.4577C170 78.7315 168.134 80.5497 165.862 80.4604C152.753 79.945 111.731 78.4037 90 78.4037C68.2689 78.4037 27.2473 79.945 14.1383 80.4604C11.8663 80.5497 10 78.7315 10 76.4577V18.0146Z" fill="#E0E0E0"/>
<g filter="url(#filter0_iiii)">
<path fill-rule="evenodd" clip-rule="evenodd" d="M10 18.0146C10 15.784 11.8011 13.9839 14.0315 14.0131C27.0288 14.1834 68.2446 14.7001 90 14.7001C111.755 14.7001 152.971 14.1834 165.968 14.0131C168.199 13.9839 170 15.784 170 18.0146V76.4577C170 78.7315 168.134 80.5497 165.862 80.4604C152.753 79.945 111.731 78.4037 90 78.4037C68.2689 78.4037 27.2473 79.945 14.1383 80.4604C11.8663 80.5497 10 78.7315 10 76.4577V18.0146Z" fill="url(#paint0_linear)"/>
</g>
<mask id="mask0" mask-type="alpha" maskUnits="userSpaceOnUse" x="10" y="14" width="160" height="67">
<path fill-rule="evenodd" clip-rule="evenodd" d="M10 18.0146C10 15.784 11.8011 13.9839 14.0315 14.0131C27.0288 14.1834 68.2446 14.7001 90 14.7001C111.755 14.7001 152.971 14.1834 165.968 14.0131C168.199 13.9839 170 15.784 170 18.0146V76.4577C170 78.7315 168.134 80.5497 165.862 80.4604C152.753 79.945 111.731 78.4037 90 78.4037C68.2689 78.4037 27.2473 79.945 14.1383 80.4604C11.8663 80.5497 10 78.7315 10 76.4577V18.0146Z" fill="white"/>
</mask>
<g mask="url(#mask0)">
<rect x="10" y="49.5557" width="53.3333" height="32.5926" fill="url(#paint1_linear)"/>
<g filter="url(#filter1_ii)">
<rect x="63.3333" y="49.5557" width="53.3333" height="32.5926" fill="url(#paint2_linear)"/>
</g>
<rect x="116.667" y="49.5557" width="53.3333" height="32.5926" fill="url(#paint3_linear)"/>
<g filter="url(#filter2_d)">
<path fill-rule="evenodd" clip-rule="evenodd" d="M10 29.1111C10 26.902 11.7909 25.1111 14 25.1111H166C168.209 25.1111 170 26.902 170 29.1111V53.4886C170 55.7699 168.113 57.5907 165.834 57.4906C155.737 57.0473 129.805 55.9568 116.379 55.8361C107.636 55.7574 98.743 55.8386 90 55.8386C81.162 55.8386 72.4744 55.7583 63.6364 55.8386C50.2807 55.9601 24.2785 57.0494 14.165 57.4915C11.8862 57.5912 10 55.7705 10 53.4896V29.1111Z" fill="black"/>
</g>
<path fill-rule="evenodd" clip-rule="evenodd" d="M11.4814 25.1111H62.5926V53.0285C62.5926 53.5695 62.1623 54.0124 61.6215 54.0281L12.5104 55.4516C11.947 55.468 11.4814 55.0157 11.4814 54.452V25.1111ZM64.4074 25.1111H115.519V53C115.519 53.5523 115.071 54 114.519 54H65.4074C64.8551 54 64.4074 53.5523 64.4074 53V25.1111ZM168.111 25.1111H117V53.0286C117 53.5696 117.43 54.0125 117.971 54.0282L167.082 55.4517C167.646 55.468 168.111 55.0157 168.111 54.4521V25.1111Z" fill="#222222"/>
<path fill-rule="evenodd" clip-rule="evenodd" d="M11.4814 25.1111H62.5926V53.0285C62.5926 53.5695 62.1623 54.0124 61.6215 54.0281L12.5104 55.4516C11.947 55.468 11.4814 55.0157 11.4814 54.452V25.1111ZM64.4074 25.1111H115.519V53C115.519 53.5523 115.071 54 114.519 54H65.4074C64.8551 54 64.4074 53.5523 64.4074 53V25.1111ZM168.111 25.1111H117V53.0286C117 53.5696 117.43 54.0125 117.971 54.0282L167.082 55.4517C167.646 55.468 168.111 55.0157 168.111 54.4521V25.1111Z" fill="url(#paint4_linear)"/>
</g>
<path fill-rule="evenodd" clip-rule="evenodd" d="M11.4814 18.5238C11.4814 16.8487 12.8235 15.4975 14.4984 15.5226C26.0739 15.6956 68.091 16.3001 90 16.3001C111.909 16.3001 153.926 15.6956 165.502 15.5226C167.176 15.4975 168.518 16.8487 168.518 18.5238V22.1619C168.518 22.1619 115.61 22.6551 90 22.6551C64.3897 22.6551 11.4814 22.1619 11.4814 22.1619V18.5238Z" fill="#EEEEEE"/>
<rect x="86.7871" y="23.3796" width="3.46296" height="1.24074" rx="0.62037" fill="black" stroke="#BABABA" stroke-width="0.5"/>
<defs>
<filter id="filter0_iiii" x="10" y="14.0127" width="160" height="66.4508" filterUnits="userSpaceOnUse" color-interpolation-filters="sRGB">
<feFlood flood-opacity="0" result="BackgroundImageFix"/>
<feBlend mode="normal" in="SourceGraphic" in2="BackgroundImageFix" result="shape"/>
<feColorMatrix in="SourceAlpha" type="matrix" values="0 0 0 0 0 0 0 0 0 0 0 0 0 0 0 0 0 0 127 0" result="hardAlpha"/>
<feOffset dy="-0.25"/>
<feComposite in2="hardAlpha" operator="arithmetic" k2="-1" k3="1"/>
<feColorMatrix type="matrix" values="0 0 0 0 0 0 0 0 0 0 0 0 0 0 0 0 0 0 0.04 0"/>
<feBlend mode="normal" in2="shape" result="effect1_innerShadow"/>
<feColorMatrix in="SourceAlpha" type="matrix" values="0 0 0 0 0 0 0 0 0 0 0 0 0 0 0 0 0 0 127 0" result="hardAlpha"/>
<feOffset dx="-0.25"/>
<feComposite in2="hardAlpha" operator="arithmetic" k2="-1" k3="1"/>
<feColorMatrix type="matrix" values="0 0 0 0 0 0 0 0 0 0 0 0 0 0 0 0 0 0 0.04 0"/>
<feBlend mode="normal" in2="effect1_innerShadow" result="effect2_innerShadow"/>
<feColorMatrix in="SourceAlpha" type="matrix" values="0 0 0 0 0 0 0 0 0 0 0 0 0 0 0 0 0 0 127 0" result="hardAlpha"/>
<feOffset dx="0.25"/>
<feComposite in2="hardAlpha" operator="arithmetic" k2="-1" k3="1"/>
<feColorMatrix type="matrix" values="0 0 0 0 0 0 0 0 0 0 0 0 0 0 0 0 0 0 0.04 0"/>
<feBlend mode="normal" in2="effect2_innerShadow" result="effect3_innerShadow"/>
<feColorMatrix in="SourceAlpha" type="matrix" values="0 0 0 0 0 0 0 0 0 0 0 0 0 0 0 0 0 0 127 0" result="hardAlpha"/>
<feOffset dy="0.25"/>
<feComposite in2="hardAlpha" operator="arithmetic" k2="-1" k3="1"/>
<feColorMatrix type="matrix" values="0 0 0 0 1 0 0 0 0 1 0 0 0 0 1 0 0 0 0.24 0"/>
<feBlend mode="normal" in2="effect3_innerShadow" result="effect4_innerShadow"/>
</filter>
<filter id="filter1_ii" x="63.3333" y="49.5557" width="53.3333" height="32.5926" filterUnits="userSpaceOnUse" color-interpolation-filters="sRGB">
<feFlood flood-opacity="0" result="BackgroundImageFix"/>
<feBlend mode="normal" in="SourceGraphic" in2="BackgroundImageFix" result="shape"/>
<feColorMatrix in="SourceAlpha" type="matrix" values="0 0 0 0 0 0 0 0 0 0 0 0 0 0 0 0 0 0 127 0" result="hardAlpha"/>
<feOffset dx="-0.5"/>
<feComposite in2="hardAlpha" operator="arithmetic" k2="-1" k3="1"/>
<feColorMatrix type="matrix" values="0 0 0 0 1 0 0 0 0 1 0 0 0 0 1 0 0 0 0.08 0"/>
<feBlend mode="normal" in2="shape" result="effect1_innerShadow"/>
<feColorMatrix in="SourceAlpha" type="matrix" values="0 0 0 0 0 0 0 0 0 0 0 0 0 0 0 0 0 0 127 0" result="hardAlpha"/>
<feOffset dx="0.5"/>
<feComposite in2="hardAlpha" operator="arithmetic" k2="-1" k3="1"/>
<feColorMatrix type="matrix" values="0 0 0 0 1 0 0 0 0 1 0 0 0 0 1 0 0 0 0.08 0"/>
<feBlend mode="normal" in2="effect1_innerShadow" result="effect2_innerShadow"/>
</filter>
<filter id="filter2_d" x="10" y="24.8611" width="160" height="32.6343" filterUnits="userSpaceOnUse" color-interpolation-filters="sRGB">
<feFlood flood-opacity="0" result="BackgroundImageFix"/>
<feColorMatrix in="SourceAlpha" type="matrix" values="0 0 0 0 0 0 0 0 0 0 0 0 0 0 0 0 0 0 127 0"/>
<feOffset dy="-0.25"/>
<feColorMatrix type="matrix" values="0 0 0 0 0 0 0 0 0 0 0 0 0 0 0 0 0 0 0.08 0"/>
<feBlend mode="normal" in2="BackgroundImageFix" result="effect1_dropShadow"/>
<feBlend mode="normal" in="SourceGraphic" in2="effect1_dropShadow" result="shape"/>
</filter>
<linearGradient id="paint0_linear" x1="77.4447" y1="67.8231" x2="77.4447" y2="78.26" gradientUnits="userSpaceOnUse">
<stop stop-opacity="0.01"/>
<stop offset="1" stop-opacity="0.04"/>
</linearGradient>
<linearGradient id="paint1_linear" x1="60.1065" y1="49.5557" x2="8.03391" y2="59.8665" gradientUnits="userSpaceOnUse">
<stop stop-opacity="0.01"/>
<stop offset="1" stop-opacity="0.01"/>
</linearGradient>
<linearGradient id="paint2_linear" x1="116.667" y1="49.5557" x2="63.3333" y2="49.5557" gradientUnits="userSpaceOnUse">
<stop stop-opacity="0.02"/>
<stop offset="0.490709" stop-opacity="0.01"/>
<stop offset="1" stop-opacity="0.02"/>
</linearGradient>
<linearGradient id="paint3_linear" x1="114.665" y1="82.1483" x2="167.502" y2="88.6381" gradientUnits="userSpaceOnUse">
<stop stop-opacity="0.01"/>
<stop offset="1" stop-opacity="0.01"/>
</linearGradient>
<linearGradient id="paint4_linear" x1="-87.4536" y1="5.96947" x2="-85.3395" y2="67.3446" gradientUnits="userSpaceOnUse">
<stop stop-color="white" stop-opacity="0.24"/>
<stop offset="1" stop-opacity="0.5"/>
</linearGradient>
</defs>
</svg>
