<svg width="180" height="96" viewBox="0 0 180 96" fill="none" xmlns="http://www.w3.org/2000/svg">
<path fill-rule="evenodd" clip-rule="evenodd" d="M53.4103 96.0002H43.6629C42.1919 96.0002 41.0004 94.8055 41.0004 93.3335V73.3335H59.6379L56.0316 93.7975C55.8079 95.0722 54.7017 96.0002 53.4103 96.0002Z" fill="url(#paint0_linear)"/>
<path fill-rule="evenodd" clip-rule="evenodd" d="M127.102 96.0002H136.85C138.321 96.0002 139.512 94.8055 139.512 93.3335V73.3335H120.875L124.481 93.7975C124.705 95.0722 125.811 96.0002 127.102 96.0002Z" fill="url(#paint1_linear)"/>
<path fill-rule="evenodd" clip-rule="evenodd" d="M139.512 66.6667H41V6.66667C41 5.19467 42.1928 4 43.6625 4H136.85C138.32 4 139.512 5.19467 139.512 6.66667V66.6667Z" fill="#1A1A1A"/>
<path fill-rule="evenodd" clip-rule="evenodd" d="M136.85 87.9998H43.6625C42.1928 87.9998 41 86.8052 41 85.3332V66.6665H139.512V85.3332C139.512 86.8052 138.32 87.9998 136.85 87.9998Z" fill="#E0E0E0"/>
<path fill-rule="evenodd" clip-rule="evenodd" d="M90.2097 82.6499H90.4085V81.7701H90.2097V82.6499ZM92.0164 82.0229C92.0092 82.0202 91.9446 81.9749 91.8487 81.9749C91.7194 81.9749 91.6307 82.0762 91.6307 82.2121C91.6307 82.3428 91.717 82.4467 91.8487 82.4467C91.9422 82.4467 92.0092 82.4041 92.0164 82.3987V82.6333C91.9925 82.644 91.923 82.6653 91.8344 82.6653C91.6116 82.6653 91.4151 82.4921 91.4151 82.2121C91.4151 81.9482 91.5924 81.7563 91.8344 81.7563C91.9278 81.7563 91.9973 81.7803 92.0164 81.7883V82.0229ZM89.9357 82.0229C89.9285 82.0202 89.8638 81.9749 89.768 81.9749C89.6386 81.9749 89.55 82.0762 89.55 82.2121C89.55 82.3428 89.6362 82.4467 89.768 82.4467C89.8614 82.4467 89.9285 82.4041 89.9357 82.3987V82.6333C89.9117 82.644 89.8446 82.6653 89.756 82.6653C89.5308 82.6653 89.3344 82.4921 89.3344 82.2121C89.3344 81.9482 89.5117 81.7563 89.756 81.7563C89.8494 81.7563 89.9189 81.7803 89.9357 81.7883V82.0229ZM92.6436 81.9786C92.5262 81.9786 92.4376 82.0852 92.4376 82.2105C92.4376 82.3385 92.5262 82.4425 92.6436 82.4425C92.7633 82.4425 92.8496 82.3385 92.8496 82.2105C92.8496 82.0852 92.7633 81.9786 92.6436 81.9786ZM93.0628 82.2105C93.0628 82.4611 92.8879 82.6664 92.6436 82.6664C92.4016 82.6664 92.2267 82.4611 92.2267 82.2105C92.2267 81.9599 92.4016 81.7573 92.6436 81.7573C92.8879 81.7573 93.0628 81.9599 93.0628 82.2105ZM91.1662 81.9709C91.1639 81.9709 91.08 81.9442 91.0105 81.9442C90.9291 81.9442 90.886 81.9735 90.886 82.0162C90.886 82.0695 90.9459 82.0882 90.9794 82.0988L91.0321 82.1202C91.1639 82.1655 91.2213 82.2641 91.2213 82.3708C91.2213 82.592 91.0489 82.6667 90.8956 82.6667C90.7878 82.6667 90.6895 82.6427 90.6776 82.64V82.4401C90.6967 82.4454 90.7806 82.4721 90.8668 82.4721C90.9674 82.4721 91.0129 82.4401 91.0129 82.3894C91.0129 82.3468 90.9722 82.3201 90.9219 82.3041C90.9123 82.2988 90.8932 82.2934 90.8812 82.2881C90.7686 82.2481 90.6752 82.1761 90.6752 82.0295C90.6752 81.8669 90.7878 81.7549 90.9722 81.7549C91.068 81.7549 91.1591 81.7816 91.1662 81.7843V81.9709ZM89.1238 80.8267C89.1238 80.7654 89.0759 80.7174 89.0232 80.7174C88.9681 80.7174 88.925 80.7654 88.925 80.8267V81.0559C88.925 81.1173 88.9681 81.1679 89.0232 81.1679C89.0759 81.1679 89.1238 81.1173 89.1238 81.0559V80.8267ZM89.6666 80.5233C89.6666 80.4647 89.6211 80.414 89.566 80.414C89.5133 80.414 89.4678 80.4647 89.4678 80.5233V81.0565C89.4678 81.1178 89.5133 81.1684 89.566 81.1684C89.6211 81.1684 89.6666 81.1178 89.6666 81.0565V80.5233ZM90.2104 80.1093C90.2104 80.048 90.1649 80 90.1098 80C90.0571 80 90.0116 80.048 90.0116 80.1093V81.277C90.0116 81.3356 90.0571 81.3863 90.1098 81.3863C90.1649 81.3863 90.2104 81.3356 90.2104 81.277V80.1093ZM90.7533 80.5233C90.7533 80.4647 90.7077 80.414 90.655 80.414C90.5999 80.414 90.5544 80.4647 90.5544 80.5233V81.0565C90.5544 81.1178 90.5999 81.1684 90.655 81.1684C90.7077 81.1684 90.7533 81.1178 90.7533 81.0565V80.5233ZM91.297 80.8267C91.297 80.7654 91.2515 80.7174 91.1964 80.7174C91.1437 80.7174 91.0982 80.7654 91.0982 80.8267V81.0559C91.0982 81.1173 91.1437 81.1679 91.1964 81.1679C91.2515 81.1679 91.297 81.1173 91.297 81.0559V80.8267ZM91.8399 80.5233C91.8399 80.4647 91.7944 80.414 91.7393 80.414C91.6866 80.414 91.641 80.4647 91.641 80.5233V81.0565C91.641 81.1178 91.6866 81.1684 91.7393 81.1684C91.7944 81.1684 91.8399 81.1178 91.8399 81.0565V80.5233ZM92.3839 80.1093C92.3839 80.048 92.3408 80 92.2857 80C92.2306 80 92.1851 80.048 92.1851 80.1093V81.277C92.1851 81.3356 92.2306 81.3863 92.2857 81.3863C92.3408 81.3863 92.3839 81.3356 92.3839 81.277V80.1093ZM92.9289 80.5233C92.9289 80.4647 92.8834 80.414 92.8283 80.414C92.7732 80.414 92.73 80.4647 92.73 80.5233V81.0565C92.73 81.1178 92.7732 81.1684 92.8283 81.1684C92.8834 81.1684 92.9289 81.1178 92.9289 81.0565V80.5233ZM93.4717 80.8267C93.4717 80.7654 93.4262 80.7174 93.3735 80.7174C93.3184 80.7174 93.2729 80.7654 93.2729 80.8267V81.0559C93.2729 81.1173 93.3184 81.1679 93.3735 81.1679C93.4262 81.1679 93.4717 81.1173 93.4717 81.0559V80.8267Z" fill="#908E8E"/>
<path fill-rule="evenodd" clip-rule="evenodd" d="M134.188 81.3333C134.188 82.0707 133.591 82.6667 132.856 82.6667C132.121 82.6667 131.525 82.0707 131.525 81.3333C131.525 80.596 132.121 80 132.856 80C133.591 80 134.188 80.596 134.188 81.3333Z" fill="white" fill-opacity="0.6"/>
<path fill-rule="evenodd" clip-rule="evenodd" d="M94.25 4C94.25 1.79067 92.4621 0 90.2563 0C88.0504 0 86.2625 1.79067 86.2625 4C86.2625 6.20933 88.0504 8 90.2563 8C92.4621 8 94.25 6.20933 94.25 4Z" fill="url(#paint2_linear)"/>
<path fill-rule="evenodd" clip-rule="evenodd" d="M92.9187 4.00016C92.9187 2.52816 91.7259 1.3335 90.2562 1.3335C88.7865 1.3335 87.5938 2.52816 87.5938 4.00016C87.5938 5.47216 88.7865 6.66683 90.2562 6.66683C91.7259 6.66683 92.9187 5.47216 92.9187 4.00016Z" fill="#232323"/>
<path fill-rule="evenodd" clip-rule="evenodd" d="M133.522 60H46.9906C46.6232 60 46.325 59.7013 46.325 59.3333V12.6667C46.325 12.2987 46.6232 12 46.9906 12H133.522C133.889 12 134.188 12.2987 134.188 12.6667V59.3333C134.188 59.7013 133.889 60 133.522 60Z" fill="#222222"/>
<path fill-rule="evenodd" clip-rule="evenodd" d="M133.522 60H46.9906C46.6232 60 46.325 59.7013 46.325 59.3333V12.6667C46.325 12.2987 46.6232 12 46.9906 12H133.522C133.889 12 134.188 12.2987 134.188 12.6667V59.3333C134.188 59.7013 133.889 60 133.522 60Z" fill="url(#paint3_linear)"/>
<path fill-rule="evenodd" clip-rule="evenodd" d="M91.5875 3.99984C91.5875 3.2625 90.9911 2.6665 90.2562 2.6665C89.5214 2.6665 88.925 3.2625 88.925 3.99984C88.925 4.73717 89.5214 5.33317 90.2562 5.33317C90.9911 5.33317 91.5875 4.73717 91.5875 3.99984Z" fill="#494E5C"/>
<defs>
<linearGradient id="paint0_linear" x1="45.7305" y1="84.6668" x2="45.7305" y2="95.8282" gradientUnits="userSpaceOnUse">
<stop stop-color="#CFCFCF"/>
<stop offset="1" stop-color="#E6E6E6"/>
</linearGradient>
<linearGradient id="paint1_linear" x1="125.605" y1="84.6668" x2="125.605" y2="95.8282" gradientUnits="userSpaceOnUse">
<stop stop-color="#CFCFCF"/>
<stop offset="1" stop-color="#E6E6E6"/>
</linearGradient>
<linearGradient id="paint2_linear" x1="86.5538" y1="0.289536" x2="86.5538" y2="7.70611" gradientUnits="userSpaceOnUse">
<stop stop-color="#424242"/>
<stop offset="1" stop-color="#656565"/>
</linearGradient>
<linearGradient id="paint3_linear" x1="2.39376" y1="36" x2="42.7846" y2="109.934" gradientUnits="userSpaceOnUse">
<stop stop-color="white" stop-opacity="0.24"/>
<stop offset="1" stop-opacity="0.5"/>
</linearGradient>
</defs>
</svg>
