<svg width="180" height="96" viewBox="0 0 180 96" fill="none" xmlns="http://www.w3.org/2000/svg">
<rect x="10.625" y="35.2915" width="158.75" height="25.4167" rx="4.375" fill="url(#paint0_linear)"/>
<rect x="10.625" y="35.2915" width="158.75" height="25.4167" rx="4.375" fill="url(#paint1_linear)"/>
<rect x="10.625" y="35.2915" width="158.75" height="25.4167" rx="4.375" fill="url(#paint2_linear)"/>
<rect x="10.625" y="35.2915" width="158.75" height="25.4167" rx="4.375" stroke="#151B1E" stroke-opacity="0.48" stroke-width="1.25"/>
<rect x="10.625" y="35.2915" width="158.75" height="25.4167" rx="4.375" stroke="#151B1E" stroke-opacity="0.12" stroke-width="1.25"/>
<rect x="10.625" y="35.2915" width="158.75" height="25.4167" rx="4.375" stroke="url(#paint3_linear)" stroke-width="1.25"/>
<circle cx="90" cy="47.9998" r="6.73611" fill="url(#paint4_linear)"/>
<circle cx="90" cy="47.9998" r="6.73611" stroke="#21242D" stroke-opacity="0.659052" stroke-width="0.75"/>
<circle cx="90" cy="47.9998" r="6.73611" stroke="url(#paint5_linear)" stroke-width="0.75"/>
<circle cx="90" cy="47.9997" r="3.16667" fill="url(#paint6_linear)"/>
<circle cx="90" cy="47.9997" r="3.16667" stroke="url(#paint7_linear)"/>
<circle cx="90" cy="47.9997" r="3.16667" stroke="#16181C" stroke-opacity="0.64"/>
<path fill-rule="evenodd" clip-rule="evenodd" d="M92.6565 48.2348C92.6632 48.1574 92.6667 48.0791 92.6667 47.9999C92.6667 47.433 92.4898 46.9073 92.1881 46.4753L90.1129 47.1989L88.1999 46.3701L87.3477 47.7216C87.3464 47.7337 87.3453 47.7457 87.3442 47.7578C87.4327 47.8622 88.0902 48.5369 90.3006 48.5369C91.4904 48.5369 92.2217 48.3864 92.6565 48.2348Z" fill="#2A2A35" fill-opacity="0.48"/>
<path opacity="0.96" fill-rule="evenodd" clip-rule="evenodd" d="M92.6445 47.6542L92.1468 47.7448C92.0512 47.1578 91.7778 46.6828 91.7778 46.6828L92.1535 46.4268C92.4119 46.78 92.5856 47.1991 92.6445 47.6542Z" fill="white"/>
<path opacity="0.96" fill-rule="evenodd" clip-rule="evenodd" d="M87.3409 47.7978C87.3585 47.5628 87.4066 47.3362 87.4812 47.1221L87.7943 47.196C87.7943 47.196 87.5544 48.1047 87.6141 48.2863C87.6141 48.2863 87.3974 48.3413 87.389 48.2863C87.3558 48.1072 87.3424 47.943 87.3409 47.7978Z" fill="white"/>
<path opacity="0.96" fill-rule="evenodd" clip-rule="evenodd" d="M90.2084 42.6702C90.0927 42.6721 90 42.7665 90 42.8821V43.5504C90 43.6674 90.0949 43.7623 90.212 43.7623C90.329 43.7623 90.4239 43.6674 90.4239 43.5504V42.8821C90.4239 42.7636 90.3268 42.6682 90.2084 42.6702Z" fill="white"/>
<defs>
<linearGradient id="paint0_linear" x1="10" y1="63.4017" x2="170" y2="63.4017" gradientUnits="userSpaceOnUse">
<stop stop-color="#C1C5C7"/>
<stop offset="1" stop-color="#9CA1A7"/>
</linearGradient>
<linearGradient id="paint1_linear" x1="75.026" y1="56.3419" x2="75.026" y2="61.3332" gradientUnits="userSpaceOnUse">
<stop stop-opacity="0.01"/>
<stop offset="1" stop-opacity="0.08"/>
</linearGradient>
<linearGradient id="paint2_linear" x1="31.6979" y1="41.8991" x2="31.6979" y2="61.3332" gradientUnits="userSpaceOnUse">
<stop stop-opacity="0.01"/>
<stop offset="1" stop-opacity="0.08"/>
</linearGradient>
<linearGradient id="paint3_linear" x1="10" y1="34.6665" x2="10" y2="61.3332" gradientUnits="userSpaceOnUse">
<stop stop-color="#E9E9E8"/>
<stop offset="1" stop-color="#E0E2E5"/>
</linearGradient>
<linearGradient id="paint4_linear" x1="88.0888" y1="52.0934" x2="96.276" y2="52.0934" gradientUnits="userSpaceOnUse">
<stop stop-color="#4F5A6A"/>
<stop offset="1" stop-color="#555858"/>
</linearGradient>
<linearGradient id="paint5_linear" x1="82.8889" y1="40.8887" x2="82.8889" y2="55.1109" gradientUnits="userSpaceOnUse">
<stop stop-color="#D9D9DD"/>
<stop offset="1" stop-color="#C7C9CE"/>
</linearGradient>
<linearGradient id="paint6_linear" x1="87.3333" y1="45.333" x2="87.3333" y2="50.6663" gradientUnits="userSpaceOnUse">
<stop stop-color="#767687"/>
<stop offset="1" stop-color="#626772"/>
</linearGradient>
<linearGradient id="paint7_linear" x1="87.3333" y1="45.333" x2="87.3333" y2="50.6663" gradientUnits="userSpaceOnUse">
<stop stop-color="#353A43"/>
<stop offset="1" stop-color="#353A43"/>
</linearGradient>
</defs>
</svg>
