<svg width="180" height="96" viewBox="0 0 180 96" fill="none" xmlns="http://www.w3.org/2000/svg">
<g clip-path="url(#clip0)">
<path fill-rule="evenodd" clip-rule="evenodd" d="M113.906 94.6667H112.575V95.4167C112.575 95.5547 112.724 95.6667 112.908 95.6667H113.573C113.757 95.6667 113.906 95.5547 113.906 95.4167V94.6667Z" fill="#222222"/>
<path fill-rule="evenodd" clip-rule="evenodd" d="M67.3125 94.6667H65.9813V95.4167C65.9813 95.5547 66.1304 95.6667 66.3141 95.6667H66.9797C67.1634 95.6667 67.3125 95.5547 67.3125 95.4167V94.6667Z" fill="#222222"/>
<path fill-rule="evenodd" clip-rule="evenodd" d="M109.912 85.3333H108.581V86.0833C108.581 86.2213 108.73 86.3333 108.914 86.3333H109.58C109.763 86.3333 109.912 86.2213 109.912 86.0833V85.3333Z" fill="#222222"/>
<path fill-rule="evenodd" clip-rule="evenodd" d="M71.3063 85.3333H69.975V86.0833C69.975 86.2213 70.1241 86.3333 70.3078 86.3333H70.9734C71.1572 86.3333 71.3063 86.2213 71.3063 86.0833V85.3333Z" fill="#222222"/>
<path fill-rule="evenodd" clip-rule="evenodd" d="M65.9813 94.6666H67.3125V93.3333H65.9813V94.6666Z" fill="#D5D5D5"/>
<g filter="url(#filter0_d)">
<path fill-rule="evenodd" clip-rule="evenodd" d="M89.7759 87.9106L109.912 83.8565V83.5603L87.1262 87.3602L68.6437 83.2L85.8797 87.9205L66.2494 92.6801L63.9611 93.0396H66.2494L88.0294 88.6104V88.6602L112.747 92.8227V92.4758L89.7759 87.9106Z" fill="black" fill-opacity="0.01"/>
</g>
<path fill-rule="evenodd" clip-rule="evenodd" d="M88.6125 86.6667L69.975 84V85.3333L88.6125 89.3333V86.6667Z" fill="#D4D4D4"/>
<path fill-rule="evenodd" clip-rule="evenodd" d="M112.575 94.6666H113.906V93.3333H112.575V94.6666Z" fill="#D6D6D6"/>
<g filter="url(#filter1_i)">
<path fill-rule="evenodd" clip-rule="evenodd" d="M109.912 84L91.275 86.6667V89.3333L109.912 85.3333V84Z" fill="#FDFDFD"/>
</g>
<rect x="88.6125" y="48" width="3.99375" height="40" fill="url(#paint0_linear)"/>
<path fill-rule="evenodd" clip-rule="evenodd" d="M89.9438 86.6667L67.3125 93.3815V94.7148L89.9438 89.3815V86.6667Z" fill="url(#paint1_linear)"/>
<path fill-rule="evenodd" clip-rule="evenodd" d="M89.9438 86.6667L112.575 93.3815V94.7148L89.9438 89.3815V86.6667Z" fill="url(#paint2_linear)"/>
<path fill-rule="evenodd" clip-rule="evenodd" d="M65.9813 93.3334L88.6125 86.6667H89.9438L67.3125 93.3334H65.9813Z" fill="url(#paint3_linear)"/>
<path fill-rule="evenodd" clip-rule="evenodd" d="M113.906 93.3334L91.275 86.6667H89.9438L112.575 93.3334H113.906Z" fill="url(#paint4_linear)"/>
<path fill-rule="evenodd" clip-rule="evenodd" d="M124.556 48H55.3312C54.5964 48 54 47.404 54 46.6667V1.33333C54 0.596 54.5964 0 55.3312 0H124.556C125.291 0 125.887 0.596 125.887 1.33333V46.6667C125.887 47.404 125.291 48 124.556 48Z" fill="#E0E0E0"/>
<path fill-rule="evenodd" clip-rule="evenodd" d="M89.2548 46.6582H89.3543V46.2183H89.2548V46.6582ZM90.1582 46.3447C90.1546 46.3433 90.1223 46.3207 90.0744 46.3207C90.0097 46.3207 89.9654 46.3713 89.9654 46.4393C89.9654 46.5046 90.0085 46.5566 90.0744 46.5566C90.1211 46.5566 90.1546 46.5353 90.1582 46.5326V46.6499C90.1462 46.6553 90.1115 46.6659 90.0672 46.6659C89.9558 46.6659 89.8576 46.5793 89.8576 46.4393C89.8576 46.3074 89.9462 46.2114 90.0672 46.2114C90.1139 46.2114 90.1486 46.2234 90.1582 46.2274V46.3447ZM89.1178 46.3447C89.1142 46.3433 89.0819 46.3207 89.034 46.3207C88.9693 46.3207 88.925 46.3713 88.925 46.4393C88.925 46.5046 88.9681 46.5566 89.034 46.5566C89.0807 46.5566 89.1142 46.5353 89.1178 46.5326V46.6499C89.1058 46.6553 89.0723 46.6659 89.028 46.6659C88.9154 46.6659 88.8172 46.5793 88.8172 46.4393C88.8172 46.3074 88.9058 46.2114 89.028 46.2114C89.0747 46.2114 89.1094 46.2234 89.1178 46.2274V46.3447ZM90.4718 46.3226C90.4131 46.3226 90.3688 46.3759 90.3688 46.4385C90.3688 46.5025 90.4131 46.5545 90.4718 46.5545C90.5317 46.5545 90.5748 46.5025 90.5748 46.4385C90.5748 46.3759 90.5317 46.3226 90.4718 46.3226ZM90.6814 46.4385C90.6814 46.5638 90.594 46.6665 90.4718 46.6665C90.3508 46.6665 90.2634 46.5638 90.2634 46.4385C90.2634 46.3132 90.3508 46.2119 90.4718 46.2119C90.594 46.2119 90.6814 46.3132 90.6814 46.4385ZM89.7331 46.3187C89.7319 46.3187 89.69 46.3054 89.6553 46.3054C89.6145 46.3054 89.593 46.32 89.593 46.3413C89.593 46.368 89.6229 46.3773 89.6397 46.3827L89.666 46.3933C89.7319 46.416 89.7607 46.4653 89.7607 46.5186C89.7607 46.6293 89.6744 46.6666 89.5978 46.6666C89.5439 46.6666 89.4948 46.6546 89.4888 46.6533V46.5533C89.4984 46.556 89.5403 46.5693 89.5834 46.5693C89.6337 46.5693 89.6565 46.5533 89.6565 46.528C89.6565 46.5066 89.6361 46.4933 89.6109 46.4853C89.6062 46.4826 89.5966 46.48 89.5906 46.4773C89.5343 46.4573 89.4876 46.4213 89.4876 46.348C89.4876 46.2667 89.5439 46.2107 89.6361 46.2107C89.684 46.2107 89.7295 46.2241 89.7331 46.2254V46.3187ZM88.7119 45.7466C88.7119 45.7159 88.6879 45.6919 88.6616 45.6919C88.634 45.6919 88.6125 45.7159 88.6125 45.7466V45.8612C88.6125 45.8919 88.634 45.9172 88.6616 45.9172C88.6879 45.9172 88.7119 45.8919 88.7119 45.8612V45.7466ZM88.9833 45.5949C88.9833 45.5656 88.9606 45.5403 88.933 45.5403C88.9067 45.5403 88.8839 45.5656 88.8839 45.5949V45.8615C88.8839 45.8922 88.9067 45.9175 88.933 45.9175C88.9606 45.9175 88.9833 45.8922 88.9833 45.8615V45.5949ZM89.2552 45.3879C89.2552 45.3572 89.2325 45.3333 89.2049 45.3333C89.1786 45.3333 89.1558 45.3572 89.1558 45.3879V45.9717C89.1558 46.0011 89.1786 46.0264 89.2049 46.0264C89.2325 46.0264 89.2552 46.0011 89.2552 45.9717V45.3879ZM89.5266 45.5949C89.5266 45.5656 89.5039 45.5403 89.4775 45.5403C89.45 45.5403 89.4272 45.5656 89.4272 45.5949V45.8615C89.4272 45.8922 89.45 45.9175 89.4775 45.9175C89.5039 45.9175 89.5266 45.8922 89.5266 45.8615V45.5949ZM89.7985 45.7466C89.7985 45.7159 89.7758 45.6919 89.7482 45.6919C89.7219 45.6919 89.6991 45.7159 89.6991 45.7466V45.8612C89.6991 45.8919 89.7219 45.9172 89.7482 45.9172C89.7758 45.9172 89.7985 45.8919 89.7985 45.8612V45.7466ZM90.0699 45.5949C90.0699 45.5656 90.0472 45.5403 90.0196 45.5403C89.9933 45.5403 89.9705 45.5656 89.9705 45.5949V45.8615C89.9705 45.8922 89.9933 45.9175 90.0196 45.9175C90.0472 45.9175 90.0699 45.8922 90.0699 45.8615V45.5949ZM90.3419 45.3879C90.3419 45.3572 90.3204 45.3333 90.2928 45.3333C90.2653 45.3333 90.2425 45.3572 90.2425 45.3879V45.9717C90.2425 46.0011 90.2653 46.0264 90.2928 46.0264C90.3204 46.0264 90.3419 46.0011 90.3419 45.9717V45.3879ZM90.6144 45.5949C90.6144 45.5656 90.5917 45.5403 90.5641 45.5403C90.5366 45.5403 90.515 45.5656 90.515 45.5949V45.8615C90.515 45.8922 90.5366 45.9175 90.5641 45.9175C90.5917 45.9175 90.6144 45.8922 90.6144 45.8615V45.5949ZM90.8858 45.7466C90.8858 45.7159 90.8631 45.6919 90.8367 45.6919C90.8092 45.6919 90.7864 45.7159 90.7864 45.7466V45.8612C90.7864 45.8919 90.8092 45.9172 90.8367 45.9172C90.8631 45.9172 90.8858 45.8919 90.8858 45.8612V45.7466Z" fill="#908E8E"/>
<path fill-rule="evenodd" clip-rule="evenodd" d="M123.891 44.0001H55.9969C55.6295 44.0001 55.3313 43.7014 55.3313 43.3334V7.33341C55.3313 6.96541 55.6295 6.66675 55.9969 6.66675H123.891C124.258 6.66675 124.556 6.96541 124.556 7.33341V43.3334C124.556 43.7014 124.258 44.0001 123.891 44.0001Z" fill="#222222"/>
<path fill-rule="evenodd" clip-rule="evenodd" d="M123.891 44.0001H55.9969C55.6295 44.0001 55.3313 43.7014 55.3313 43.3334V7.33341C55.3313 6.96541 55.6295 6.66675 55.9969 6.66675H123.891C124.258 6.66675 124.556 6.96541 124.556 7.33341V43.3334C124.556 43.7014 124.258 44.0001 123.891 44.0001Z" fill="url(#paint5_linear)"/>
<path fill-rule="evenodd" clip-rule="evenodd" d="M91.275 4.00008C91.275 3.26275 90.6786 2.66675 89.9437 2.66675C89.2089 2.66675 88.6125 3.26275 88.6125 4.00008C88.6125 4.73741 89.2089 5.33341 89.9437 5.33341C90.6786 5.33341 91.275 4.73741 91.275 4.00008Z" fill="#232323"/>
<path fill-rule="evenodd" clip-rule="evenodd" d="M90.6094 3.99992C90.6094 3.63192 90.3112 3.33325 89.9438 3.33325C89.5763 3.33325 89.2781 3.63192 89.2781 3.99992C89.2781 4.36792 89.5763 4.66659 89.9438 4.66659C90.3112 4.66659 90.6094 4.36792 90.6094 3.99992Z" fill="#555B6C"/>
</g>
<defs>
<filter id="filter0_d" x="62.9611" y="83.2" width="50.7858" height="13.8397" filterUnits="userSpaceOnUse" color-interpolation-filters="sRGB">
<feFlood flood-opacity="0" result="BackgroundImageFix"/>
<feColorMatrix in="SourceAlpha" type="matrix" values="0 0 0 0 0 0 0 0 0 0 0 0 0 0 0 0 0 0 127 0"/>
<feOffset dy="3"/>
<feGaussianBlur stdDeviation="0.5"/>
<feColorMatrix type="matrix" values="0 0 0 0 0 0 0 0 0 0 0 0 0 0 0 0 0 0 0.4 0"/>
<feBlend mode="normal" in2="BackgroundImageFix" result="effect1_dropShadow"/>
<feBlend mode="normal" in="SourceGraphic" in2="effect1_dropShadow" result="shape"/>
</filter>
<filter id="filter1_i" x="91.275" y="84" width="18.6375" height="5.33333" filterUnits="userSpaceOnUse" color-interpolation-filters="sRGB">
<feFlood flood-opacity="0" result="BackgroundImageFix"/>
<feBlend mode="normal" in="SourceGraphic" in2="BackgroundImageFix" result="shape"/>
<feColorMatrix in="SourceAlpha" type="matrix" values="0 0 0 0 0 0 0 0 0 0 0 0 0 0 0 0 0 0 127 0" result="hardAlpha"/>
<feOffset/>
<feGaussianBlur stdDeviation="0.5"/>
<feComposite in2="hardAlpha" operator="arithmetic" k2="-1" k3="1"/>
<feColorMatrix type="matrix" values="0 0 0 0 0 0 0 0 0 0 0 0 0 0 0 0 0 0 0.08 0"/>
<feBlend mode="normal" in2="shape" result="effect1_innerShadow"/>
</filter>
<linearGradient id="paint0_linear" x1="88.7265" y1="87.4292" x2="92.6062" y2="87.4292" gradientUnits="userSpaceOnUse">
<stop stop-color="#C6C6C6"/>
<stop offset="0.259574" stop-color="#EAEAEA"/>
<stop offset="0.288679" stop-color="white"/>
<stop offset="0.332889" stop-color="#E9E9E9"/>
<stop offset="0.596324" stop-color="#B9B9B9"/>
<stop offset="0.823451" stop-color="white"/>
<stop offset="1" stop-color="white"/>
</linearGradient>
<linearGradient id="paint1_linear" x1="80.6426" y1="84.0583" x2="74.7367" y2="97.7989" gradientUnits="userSpaceOnUse">
<stop stop-color="#DCDBDB"/>
<stop offset="0.165395" stop-color="#F4F4F4"/>
<stop offset="1" stop-color="white"/>
</linearGradient>
<linearGradient id="paint2_linear" x1="99.6529" y1="84.3114" x2="105.442" y2="97.7806" gradientUnits="userSpaceOnUse">
<stop stop-color="#C2C1C1"/>
<stop offset="0.165395" stop-color="#D6D6D6"/>
<stop offset="1" stop-color="#DFDFDF"/>
</linearGradient>
<linearGradient id="paint3_linear" x1="80.0308" y1="84.4843" x2="75.9303" y2="96.6789" gradientUnits="userSpaceOnUse">
<stop stop-color="#C2C2C2"/>
<stop offset="0.165395" stop-color="#E6E6E6"/>
<stop offset="1" stop-color="#EFEFEF"/>
</linearGradient>
<linearGradient id="paint4_linear" x1="123.819" y1="91.1509" x2="121.364" y2="80.4857" gradientUnits="userSpaceOnUse">
<stop stop-color="#EFEFEF"/>
<stop offset="0.881842" stop-color="#E6E6E6"/>
<stop offset="1" stop-color="#C2C2C2"/>
</linearGradient>
<linearGradient id="paint5_linear" x1="20.7188" y1="25.3334" x2="51.9138" y2="83.1765" gradientUnits="userSpaceOnUse">
<stop stop-color="white" stop-opacity="0.24"/>
<stop offset="1" stop-opacity="0.5"/>
</linearGradient>
<clipPath id="clip0">
<rect width="180" height="96" fill="white"/>
</clipPath>
</defs>
</svg>
