<svg width="220" height="96" viewBox="0 0 220 96" fill="none" xmlns="http://www.w3.org/2000/svg">
<path d="M48.8231 72.9898H170.177C172.412 72.9898 173.823 72.8344 173.823 73.8807V81.4243C173.823 82.4147 173.328 83.3413 172.407 83.7045C171.245 84.1624 169.387 84.6768 166.902 84.6768H52.0977C49.613 84.6768 47.7549 84.1624 46.5931 83.7045C45.6716 83.3413 45.1768 82.4162 45.1768 81.4258V74.5081C45.1768 72.9898 46.8477 72.9898 48.8231 72.9898Z" fill="url(#paint0_linear)"/>
<mask id="mask0" mask-type="alpha" maskUnits="userSpaceOnUse" x="45" y="72" width="129" height="13">
<path d="M48.8231 72.9898H170.177C172.412 72.9898 173.823 72.8344 173.823 73.8807V81.4243C173.823 82.4147 173.328 83.3413 172.407 83.7045C171.245 84.1624 169.387 84.6768 166.902 84.6768H52.0977C49.613 84.6768 47.7549 84.1624 46.5931 83.7045C45.6716 83.3413 45.1768 82.4162 45.1768 81.4258V74.5081C45.1768 72.9898 46.8477 72.9898 48.8231 72.9898Z" fill="url(#paint1_linear)"/>
</mask>
<g mask="url(#mask0)">
<circle cx="45.7555" cy="77.4002" r="0.4" fill="black" fill-opacity="0.25"/>
<circle cx="47.1555" cy="77.4002" r="0.4" fill="black" fill-opacity="0.25"/>
<circle cx="48.5555" cy="77.4002" r="0.4" fill="black" fill-opacity="0.25"/>
<circle cx="49.9555" cy="77.4002" r="0.4" fill="black" fill-opacity="0.25"/>
<circle cx="51.3555" cy="77.4002" r="0.4" fill="black" fill-opacity="0.25"/>
<circle cx="52.7555" cy="77.4002" r="0.4" fill="black" fill-opacity="0.25"/>
<circle cx="54.1555" cy="77.4002" r="0.4" fill="black" fill-opacity="0.25"/>
<circle cx="55.5555" cy="77.4002" r="0.4" fill="black" fill-opacity="0.25"/>
<circle cx="56.9555" cy="77.4002" r="0.4" fill="black" fill-opacity="0.25"/>
<circle cx="58.3555" cy="77.4002" r="0.4" fill="black" fill-opacity="0.25"/>
<circle cx="59.7555" cy="77.4002" r="0.4" fill="black" fill-opacity="0.25"/>
<circle cx="61.1555" cy="77.4002" r="0.4" fill="black" fill-opacity="0.25"/>
<circle cx="62.5555" cy="77.4002" r="0.4" fill="black" fill-opacity="0.25"/>
<circle cx="63.9555" cy="77.4002" r="0.4" fill="black" fill-opacity="0.25"/>
<circle cx="65.3555" cy="77.4002" r="0.4" fill="black" fill-opacity="0.25"/>
<circle cx="66.7555" cy="77.4002" r="0.4" fill="black" fill-opacity="0.25"/>
<circle cx="68.1555" cy="77.4002" r="0.4" fill="black" fill-opacity="0.25"/>
<circle cx="69.5555" cy="77.4002" r="0.4" fill="black" fill-opacity="0.25"/>
<circle cx="70.9555" cy="77.4002" r="0.4" fill="black" fill-opacity="0.25"/>
<circle cx="72.3555" cy="77.4002" r="0.4" fill="black" fill-opacity="0.25"/>
<circle cx="73.7555" cy="77.4002" r="0.4" fill="black" fill-opacity="0.25"/>
<circle cx="75.1555" cy="77.4002" r="0.4" fill="black" fill-opacity="0.25"/>
<circle cx="76.5555" cy="77.4002" r="0.4" fill="black" fill-opacity="0.25"/>
<circle cx="77.9555" cy="77.4002" r="0.4" fill="black" fill-opacity="0.25"/>
<circle cx="79.3555" cy="77.4002" r="0.4" fill="black" fill-opacity="0.25"/>
<circle cx="80.7555" cy="77.4002" r="0.4" fill="black" fill-opacity="0.25"/>
<circle cx="82.1555" cy="77.4002" r="0.4" fill="black" fill-opacity="0.25"/>
<circle cx="83.5555" cy="77.4002" r="0.4" fill="black" fill-opacity="0.25"/>
<circle cx="84.9555" cy="77.4002" r="0.4" fill="black" fill-opacity="0.25"/>
<circle cx="86.3555" cy="77.4002" r="0.4" fill="black" fill-opacity="0.25"/>
<circle cx="87.7555" cy="77.4002" r="0.4" fill="black" fill-opacity="0.25"/>
<circle cx="89.1555" cy="77.4002" r="0.4" fill="black" fill-opacity="0.25"/>
<circle cx="90.5555" cy="77.4002" r="0.4" fill="black" fill-opacity="0.25"/>
<circle cx="91.9555" cy="77.4002" r="0.4" fill="black" fill-opacity="0.25"/>
<circle cx="93.3555" cy="77.4002" r="0.4" fill="black" fill-opacity="0.25"/>
<circle cx="94.7555" cy="77.4002" r="0.4" fill="black" fill-opacity="0.25"/>
<circle cx="96.1555" cy="77.4002" r="0.4" fill="black" fill-opacity="0.25"/>
<circle cx="97.5555" cy="77.4002" r="0.4" fill="black" fill-opacity="0.25"/>
<circle cx="98.9555" cy="77.4002" r="0.4" fill="black" fill-opacity="0.25"/>
<circle cx="100.356" cy="77.4002" r="0.4" fill="black" fill-opacity="0.25"/>
<circle cx="101.756" cy="77.4002" r="0.4" fill="black" fill-opacity="0.25"/>
<circle cx="103.156" cy="77.4002" r="0.4" fill="black" fill-opacity="0.25"/>
<circle cx="104.556" cy="77.4002" r="0.4" fill="black" fill-opacity="0.25"/>
<circle cx="105.956" cy="77.4002" r="0.4" fill="black" fill-opacity="0.25"/>
<circle cx="107.356" cy="77.4002" r="0.4" fill="black" fill-opacity="0.25"/>
<circle cx="108.756" cy="77.4002" r="0.4" fill="black" fill-opacity="0.25"/>
<circle cx="110.156" cy="77.4002" r="0.4" fill="black" fill-opacity="0.25"/>
<circle cx="111.556" cy="77.4002" r="0.4" fill="black" fill-opacity="0.25"/>
<circle cx="112.956" cy="77.4002" r="0.4" fill="black" fill-opacity="0.25"/>
<circle cx="114.356" cy="77.4002" r="0.4" fill="black" fill-opacity="0.25"/>
<circle cx="115.756" cy="77.4002" r="0.4" fill="black" fill-opacity="0.25"/>
<circle cx="117.156" cy="77.4002" r="0.4" fill="black" fill-opacity="0.25"/>
<circle cx="118.556" cy="77.4002" r="0.4" fill="black" fill-opacity="0.25"/>
<circle cx="119.956" cy="77.4002" r="0.4" fill="black" fill-opacity="0.25"/>
<circle cx="121.356" cy="77.4002" r="0.4" fill="black" fill-opacity="0.25"/>
<circle cx="122.756" cy="77.4002" r="0.4" fill="black" fill-opacity="0.25"/>
<circle cx="124.156" cy="77.4002" r="0.4" fill="black" fill-opacity="0.25"/>
<circle cx="125.556" cy="77.4002" r="0.4" fill="black" fill-opacity="0.25"/>
<circle cx="126.956" cy="77.4002" r="0.4" fill="black" fill-opacity="0.25"/>
<circle cx="128.356" cy="77.4002" r="0.4" fill="black" fill-opacity="0.25"/>
<circle cx="129.756" cy="77.4002" r="0.4" fill="black" fill-opacity="0.25"/>
<circle cx="131.156" cy="77.4002" r="0.4" fill="black" fill-opacity="0.25"/>
<circle cx="132.556" cy="77.4002" r="0.4" fill="black" fill-opacity="0.25"/>
<circle cx="133.956" cy="77.4002" r="0.4" fill="black" fill-opacity="0.25"/>
<circle cx="135.356" cy="77.4002" r="0.4" fill="black" fill-opacity="0.25"/>
<circle cx="136.756" cy="77.4002" r="0.4" fill="black" fill-opacity="0.25"/>
<circle cx="138.156" cy="77.4002" r="0.4" fill="black" fill-opacity="0.25"/>
<circle cx="139.556" cy="77.4002" r="0.4" fill="black" fill-opacity="0.25"/>
<circle cx="140.956" cy="77.4002" r="0.4" fill="black" fill-opacity="0.25"/>
<circle cx="142.356" cy="77.4002" r="0.4" fill="black" fill-opacity="0.25"/>
<circle cx="143.756" cy="77.4002" r="0.4" fill="black" fill-opacity="0.25"/>
<circle cx="145.156" cy="77.4002" r="0.4" fill="black" fill-opacity="0.25"/>
<circle cx="146.556" cy="77.4002" r="0.4" fill="black" fill-opacity="0.25"/>
<circle cx="147.956" cy="77.4002" r="0.4" fill="black" fill-opacity="0.25"/>
<circle cx="149.356" cy="77.4002" r="0.4" fill="black" fill-opacity="0.25"/>
<circle cx="150.756" cy="77.4002" r="0.4" fill="black" fill-opacity="0.25"/>
<circle cx="152.156" cy="77.4002" r="0.4" fill="black" fill-opacity="0.25"/>
<circle cx="153.556" cy="77.4002" r="0.4" fill="black" fill-opacity="0.25"/>
<circle cx="154.956" cy="77.4002" r="0.4" fill="black" fill-opacity="0.25"/>
<circle cx="156.356" cy="77.4002" r="0.4" fill="black" fill-opacity="0.25"/>
<circle cx="157.756" cy="77.4002" r="0.4" fill="black" fill-opacity="0.25"/>
<circle cx="159.156" cy="77.4002" r="0.4" fill="black" fill-opacity="0.25"/>
<circle cx="160.556" cy="77.4002" r="0.4" fill="black" fill-opacity="0.25"/>
<circle cx="161.956" cy="77.4002" r="0.4" fill="black" fill-opacity="0.25"/>
<circle cx="163.356" cy="77.4002" r="0.4" fill="black" fill-opacity="0.25"/>
<circle cx="164.756" cy="77.4002" r="0.4" fill="black" fill-opacity="0.25"/>
<circle cx="166.156" cy="77.4002" r="0.4" fill="black" fill-opacity="0.25"/>
<circle cx="167.556" cy="77.4002" r="0.4" fill="black" fill-opacity="0.25"/>
<circle cx="168.956" cy="77.4002" r="0.4" fill="black" fill-opacity="0.25"/>
<circle cx="170.356" cy="77.4002" r="0.4" fill="black" fill-opacity="0.25"/>
<circle cx="171.756" cy="77.4002" r="0.4" fill="black" fill-opacity="0.25"/>
<circle cx="173.156" cy="77.4002" r="0.4" fill="black" fill-opacity="0.25"/>
<circle cx="45.7555" cy="78.5003" r="0.4" fill="black" fill-opacity="0.25"/>
<circle cx="47.1555" cy="78.5003" r="0.4" fill="black" fill-opacity="0.25"/>
<circle cx="48.5555" cy="78.5003" r="0.4" fill="black" fill-opacity="0.25"/>
<circle cx="49.9555" cy="78.5003" r="0.4" fill="black" fill-opacity="0.25"/>
<circle cx="51.3555" cy="78.5003" r="0.4" fill="black" fill-opacity="0.25"/>
<circle cx="52.7555" cy="78.5003" r="0.4" fill="black" fill-opacity="0.25"/>
<circle cx="54.1555" cy="78.5003" r="0.4" fill="black" fill-opacity="0.25"/>
<circle cx="55.5555" cy="78.5003" r="0.4" fill="black" fill-opacity="0.25"/>
<circle cx="56.9555" cy="78.5003" r="0.4" fill="black" fill-opacity="0.25"/>
<circle cx="58.3555" cy="78.5003" r="0.4" fill="black" fill-opacity="0.25"/>
<circle cx="59.7555" cy="78.5003" r="0.4" fill="black" fill-opacity="0.25"/>
<circle cx="61.1555" cy="78.5003" r="0.4" fill="black" fill-opacity="0.25"/>
<circle cx="62.5555" cy="78.5003" r="0.4" fill="black" fill-opacity="0.25"/>
<circle cx="63.9555" cy="78.5003" r="0.4" fill="black" fill-opacity="0.25"/>
<circle cx="65.3555" cy="78.5003" r="0.4" fill="black" fill-opacity="0.25"/>
<circle cx="66.7555" cy="78.5003" r="0.4" fill="black" fill-opacity="0.25"/>
<circle cx="68.1555" cy="78.5003" r="0.4" fill="black" fill-opacity="0.25"/>
<circle cx="69.5555" cy="78.5003" r="0.4" fill="black" fill-opacity="0.25"/>
<circle cx="70.9555" cy="78.5003" r="0.4" fill="black" fill-opacity="0.25"/>
<circle cx="72.3555" cy="78.5003" r="0.4" fill="black" fill-opacity="0.25"/>
<circle cx="73.7555" cy="78.5003" r="0.4" fill="black" fill-opacity="0.25"/>
<circle cx="75.1555" cy="78.5003" r="0.4" fill="black" fill-opacity="0.25"/>
<circle cx="76.5555" cy="78.5003" r="0.4" fill="black" fill-opacity="0.25"/>
<circle cx="77.9555" cy="78.5003" r="0.4" fill="black" fill-opacity="0.25"/>
<circle cx="79.3555" cy="78.5003" r="0.4" fill="black" fill-opacity="0.25"/>
<circle cx="80.7555" cy="78.5003" r="0.4" fill="black" fill-opacity="0.25"/>
<circle cx="82.1555" cy="78.5003" r="0.4" fill="black" fill-opacity="0.25"/>
<circle cx="83.5555" cy="78.5003" r="0.4" fill="black" fill-opacity="0.25"/>
<circle cx="84.9555" cy="78.5003" r="0.4" fill="black" fill-opacity="0.25"/>
<circle cx="86.3555" cy="78.5003" r="0.4" fill="black" fill-opacity="0.25"/>
<circle cx="87.7555" cy="78.5003" r="0.4" fill="black" fill-opacity="0.25"/>
<circle cx="89.1555" cy="78.5003" r="0.4" fill="black" fill-opacity="0.25"/>
<circle cx="90.5555" cy="78.5003" r="0.4" fill="black" fill-opacity="0.25"/>
<circle cx="91.9555" cy="78.5003" r="0.4" fill="black" fill-opacity="0.25"/>
<circle cx="93.3555" cy="78.5003" r="0.4" fill="black" fill-opacity="0.25"/>
<circle cx="94.7555" cy="78.5003" r="0.4" fill="black" fill-opacity="0.25"/>
<circle cx="96.1555" cy="78.5003" r="0.4" fill="black" fill-opacity="0.25"/>
<circle cx="97.5555" cy="78.5003" r="0.4" fill="black" fill-opacity="0.25"/>
<circle cx="98.9555" cy="78.5003" r="0.4" fill="black" fill-opacity="0.25"/>
<circle cx="100.356" cy="78.5003" r="0.4" fill="black" fill-opacity="0.25"/>
<circle cx="101.756" cy="78.5003" r="0.4" fill="black" fill-opacity="0.25"/>
<circle cx="103.156" cy="78.5003" r="0.4" fill="black" fill-opacity="0.25"/>
<circle cx="104.556" cy="78.5003" r="0.4" fill="black" fill-opacity="0.25"/>
<circle cx="105.956" cy="78.5003" r="0.4" fill="black" fill-opacity="0.25"/>
<circle cx="107.356" cy="78.5003" r="0.4" fill="black" fill-opacity="0.25"/>
<circle cx="108.756" cy="78.5003" r="0.4" fill="black" fill-opacity="0.25"/>
<circle cx="110.156" cy="78.5003" r="0.4" fill="black" fill-opacity="0.25"/>
<circle cx="111.556" cy="78.5003" r="0.4" fill="black" fill-opacity="0.25"/>
<circle cx="112.956" cy="78.5003" r="0.4" fill="black" fill-opacity="0.25"/>
<circle cx="114.356" cy="78.5003" r="0.4" fill="black" fill-opacity="0.25"/>
<circle cx="115.756" cy="78.5003" r="0.4" fill="black" fill-opacity="0.25"/>
<circle cx="117.156" cy="78.5003" r="0.4" fill="black" fill-opacity="0.25"/>
<circle cx="118.556" cy="78.5003" r="0.4" fill="black" fill-opacity="0.25"/>
<circle cx="119.956" cy="78.5003" r="0.4" fill="black" fill-opacity="0.25"/>
<circle cx="121.356" cy="78.5003" r="0.4" fill="black" fill-opacity="0.25"/>
<circle cx="122.756" cy="78.5003" r="0.4" fill="black" fill-opacity="0.25"/>
<circle cx="124.156" cy="78.5003" r="0.4" fill="black" fill-opacity="0.25"/>
<circle cx="125.556" cy="78.5003" r="0.4" fill="black" fill-opacity="0.25"/>
<circle cx="126.956" cy="78.5003" r="0.4" fill="black" fill-opacity="0.25"/>
<circle cx="128.356" cy="78.5003" r="0.4" fill="black" fill-opacity="0.25"/>
<circle cx="129.756" cy="78.5003" r="0.4" fill="black" fill-opacity="0.25"/>
<circle cx="131.156" cy="78.5003" r="0.4" fill="black" fill-opacity="0.25"/>
<circle cx="132.556" cy="78.5003" r="0.4" fill="black" fill-opacity="0.25"/>
<circle cx="133.956" cy="78.5003" r="0.4" fill="black" fill-opacity="0.25"/>
<circle cx="135.356" cy="78.5003" r="0.4" fill="black" fill-opacity="0.25"/>
<circle cx="136.756" cy="78.5003" r="0.4" fill="black" fill-opacity="0.25"/>
<circle cx="138.156" cy="78.5003" r="0.4" fill="black" fill-opacity="0.25"/>
<circle cx="139.556" cy="78.5003" r="0.4" fill="black" fill-opacity="0.25"/>
<circle cx="140.956" cy="78.5003" r="0.4" fill="black" fill-opacity="0.25"/>
<circle cx="142.356" cy="78.5003" r="0.4" fill="black" fill-opacity="0.25"/>
<circle cx="143.756" cy="78.5003" r="0.4" fill="black" fill-opacity="0.25"/>
<circle cx="145.156" cy="78.5003" r="0.4" fill="black" fill-opacity="0.25"/>
<circle cx="146.556" cy="78.5003" r="0.4" fill="black" fill-opacity="0.25"/>
<circle cx="147.956" cy="78.5003" r="0.4" fill="black" fill-opacity="0.25"/>
<circle cx="149.356" cy="78.5003" r="0.4" fill="black" fill-opacity="0.25"/>
<circle cx="150.756" cy="78.5003" r="0.4" fill="black" fill-opacity="0.25"/>
<circle cx="152.156" cy="78.5003" r="0.4" fill="black" fill-opacity="0.25"/>
<circle cx="153.556" cy="78.5003" r="0.4" fill="black" fill-opacity="0.25"/>
<circle cx="154.956" cy="78.5003" r="0.4" fill="black" fill-opacity="0.25"/>
<circle cx="156.356" cy="78.5003" r="0.4" fill="black" fill-opacity="0.25"/>
<circle cx="157.756" cy="78.5003" r="0.4" fill="black" fill-opacity="0.25"/>
<circle cx="159.156" cy="78.5003" r="0.4" fill="black" fill-opacity="0.25"/>
<circle cx="160.556" cy="78.5003" r="0.4" fill="black" fill-opacity="0.25"/>
<circle cx="161.956" cy="78.5003" r="0.4" fill="black" fill-opacity="0.25"/>
<circle cx="163.356" cy="78.5003" r="0.4" fill="black" fill-opacity="0.25"/>
<circle cx="164.756" cy="78.5003" r="0.4" fill="black" fill-opacity="0.25"/>
<circle cx="166.156" cy="78.5003" r="0.4" fill="black" fill-opacity="0.25"/>
<circle cx="167.556" cy="78.5003" r="0.4" fill="black" fill-opacity="0.25"/>
<circle cx="168.956" cy="78.5003" r="0.4" fill="black" fill-opacity="0.25"/>
<circle cx="170.356" cy="78.5003" r="0.4" fill="black" fill-opacity="0.25"/>
<circle cx="171.756" cy="78.5003" r="0.4" fill="black" fill-opacity="0.25"/>
<circle cx="173.156" cy="78.5003" r="0.4" fill="black" fill-opacity="0.25"/>
<circle cx="45.7555" cy="79.6002" r="0.4" fill="black" fill-opacity="0.25"/>
<circle cx="47.1555" cy="79.6002" r="0.4" fill="black" fill-opacity="0.25"/>
<circle cx="48.5555" cy="79.6002" r="0.4" fill="black" fill-opacity="0.25"/>
<circle cx="49.9555" cy="79.6002" r="0.4" fill="black" fill-opacity="0.25"/>
<circle cx="51.3555" cy="79.6002" r="0.4" fill="black" fill-opacity="0.25"/>
<circle cx="52.7555" cy="79.6002" r="0.4" fill="black" fill-opacity="0.25"/>
<circle cx="54.1555" cy="79.6002" r="0.4" fill="black" fill-opacity="0.25"/>
<circle cx="55.5555" cy="79.6002" r="0.4" fill="black" fill-opacity="0.25"/>
<circle cx="56.9555" cy="79.6002" r="0.4" fill="black" fill-opacity="0.25"/>
<circle cx="58.3555" cy="79.6002" r="0.4" fill="black" fill-opacity="0.25"/>
<circle cx="59.7555" cy="79.6002" r="0.4" fill="black" fill-opacity="0.25"/>
<circle cx="61.1555" cy="79.6002" r="0.4" fill="black" fill-opacity="0.25"/>
<circle cx="62.5555" cy="79.6002" r="0.4" fill="black" fill-opacity="0.25"/>
<circle cx="63.9555" cy="79.6002" r="0.4" fill="black" fill-opacity="0.25"/>
<circle cx="65.3555" cy="79.6002" r="0.4" fill="black" fill-opacity="0.25"/>
<circle cx="66.7555" cy="79.6002" r="0.4" fill="black" fill-opacity="0.25"/>
<circle cx="68.1555" cy="79.6002" r="0.4" fill="black" fill-opacity="0.25"/>
<circle cx="69.5555" cy="79.6002" r="0.4" fill="black" fill-opacity="0.25"/>
<circle cx="70.9555" cy="79.6002" r="0.4" fill="black" fill-opacity="0.25"/>
<circle cx="72.3555" cy="79.6002" r="0.4" fill="black" fill-opacity="0.25"/>
<circle cx="73.7555" cy="79.6002" r="0.4" fill="black" fill-opacity="0.25"/>
<circle cx="75.1555" cy="79.6002" r="0.4" fill="black" fill-opacity="0.25"/>
<circle cx="76.5555" cy="79.6002" r="0.4" fill="black" fill-opacity="0.25"/>
<circle cx="77.9555" cy="79.6002" r="0.4" fill="black" fill-opacity="0.25"/>
<circle cx="79.3555" cy="79.6002" r="0.4" fill="black" fill-opacity="0.25"/>
<circle cx="80.7555" cy="79.6002" r="0.4" fill="black" fill-opacity="0.25"/>
<circle cx="82.1555" cy="79.6002" r="0.4" fill="black" fill-opacity="0.25"/>
<circle cx="83.5555" cy="79.6002" r="0.4" fill="black" fill-opacity="0.25"/>
<circle cx="84.9555" cy="79.6002" r="0.4" fill="black" fill-opacity="0.25"/>
<circle cx="86.3555" cy="79.6002" r="0.4" fill="black" fill-opacity="0.25"/>
<circle cx="87.7555" cy="79.6002" r="0.4" fill="black" fill-opacity="0.25"/>
<circle cx="89.1555" cy="79.6002" r="0.4" fill="black" fill-opacity="0.25"/>
<circle cx="90.5555" cy="79.6002" r="0.4" fill="black" fill-opacity="0.25"/>
<circle cx="91.9555" cy="79.6002" r="0.4" fill="black" fill-opacity="0.25"/>
<circle cx="93.3555" cy="79.6002" r="0.4" fill="black" fill-opacity="0.25"/>
<circle cx="94.7555" cy="79.6002" r="0.4" fill="black" fill-opacity="0.25"/>
<circle cx="96.1555" cy="79.6002" r="0.4" fill="black" fill-opacity="0.25"/>
<circle cx="97.5555" cy="79.6002" r="0.4" fill="black" fill-opacity="0.25"/>
<circle cx="98.9555" cy="79.6002" r="0.4" fill="black" fill-opacity="0.25"/>
<circle cx="100.356" cy="79.6002" r="0.4" fill="black" fill-opacity="0.25"/>
<circle cx="101.756" cy="79.6002" r="0.4" fill="black" fill-opacity="0.25"/>
<circle cx="103.156" cy="79.6002" r="0.4" fill="black" fill-opacity="0.25"/>
<circle cx="104.556" cy="79.6002" r="0.4" fill="black" fill-opacity="0.25"/>
<circle cx="105.956" cy="79.6002" r="0.4" fill="black" fill-opacity="0.25"/>
<circle cx="107.356" cy="79.6002" r="0.4" fill="black" fill-opacity="0.25"/>
<circle cx="108.756" cy="79.6002" r="0.4" fill="black" fill-opacity="0.25"/>
<circle cx="110.156" cy="79.6002" r="0.4" fill="black" fill-opacity="0.25"/>
<circle cx="111.556" cy="79.6002" r="0.4" fill="black" fill-opacity="0.25"/>
<circle cx="112.956" cy="79.6002" r="0.4" fill="black" fill-opacity="0.25"/>
<circle cx="114.356" cy="79.6002" r="0.4" fill="black" fill-opacity="0.25"/>
<circle cx="115.756" cy="79.6002" r="0.4" fill="black" fill-opacity="0.25"/>
<circle cx="117.156" cy="79.6002" r="0.4" fill="black" fill-opacity="0.25"/>
<circle cx="118.556" cy="79.6002" r="0.4" fill="black" fill-opacity="0.25"/>
<circle cx="119.956" cy="79.6002" r="0.4" fill="black" fill-opacity="0.25"/>
<circle cx="121.356" cy="79.6002" r="0.4" fill="black" fill-opacity="0.25"/>
<circle cx="122.756" cy="79.6002" r="0.4" fill="black" fill-opacity="0.25"/>
<circle cx="124.156" cy="79.6002" r="0.4" fill="black" fill-opacity="0.25"/>
<circle cx="125.556" cy="79.6002" r="0.4" fill="black" fill-opacity="0.25"/>
<circle cx="126.956" cy="79.6002" r="0.4" fill="black" fill-opacity="0.25"/>
<circle cx="128.356" cy="79.6002" r="0.4" fill="black" fill-opacity="0.25"/>
<circle cx="129.756" cy="79.6002" r="0.4" fill="black" fill-opacity="0.25"/>
<circle cx="131.156" cy="79.6002" r="0.4" fill="black" fill-opacity="0.25"/>
<circle cx="132.556" cy="79.6002" r="0.4" fill="black" fill-opacity="0.25"/>
<circle cx="133.956" cy="79.6002" r="0.4" fill="black" fill-opacity="0.25"/>
<circle cx="135.356" cy="79.6002" r="0.4" fill="black" fill-opacity="0.25"/>
<circle cx="136.756" cy="79.6002" r="0.4" fill="black" fill-opacity="0.25"/>
<circle cx="138.156" cy="79.6002" r="0.4" fill="black" fill-opacity="0.25"/>
<circle cx="139.556" cy="79.6002" r="0.4" fill="black" fill-opacity="0.25"/>
<circle cx="140.956" cy="79.6002" r="0.4" fill="black" fill-opacity="0.25"/>
<circle cx="142.356" cy="79.6002" r="0.4" fill="black" fill-opacity="0.25"/>
<circle cx="143.756" cy="79.6002" r="0.4" fill="black" fill-opacity="0.25"/>
<circle cx="145.156" cy="79.6002" r="0.4" fill="black" fill-opacity="0.25"/>
<circle cx="146.556" cy="79.6002" r="0.4" fill="black" fill-opacity="0.25"/>
<circle cx="147.956" cy="79.6002" r="0.4" fill="black" fill-opacity="0.25"/>
<circle cx="149.356" cy="79.6002" r="0.4" fill="black" fill-opacity="0.25"/>
<circle cx="150.756" cy="79.6002" r="0.4" fill="black" fill-opacity="0.25"/>
<circle cx="152.156" cy="79.6002" r="0.4" fill="black" fill-opacity="0.25"/>
<circle cx="153.556" cy="79.6002" r="0.4" fill="black" fill-opacity="0.25"/>
<circle cx="154.956" cy="79.6002" r="0.4" fill="black" fill-opacity="0.25"/>
<circle cx="156.356" cy="79.6002" r="0.4" fill="black" fill-opacity="0.25"/>
<circle cx="157.756" cy="79.6002" r="0.4" fill="black" fill-opacity="0.25"/>
<circle cx="159.156" cy="79.6002" r="0.4" fill="black" fill-opacity="0.25"/>
<circle cx="160.556" cy="79.6002" r="0.4" fill="black" fill-opacity="0.25"/>
<circle cx="161.956" cy="79.6002" r="0.4" fill="black" fill-opacity="0.25"/>
<circle cx="163.356" cy="79.6002" r="0.4" fill="black" fill-opacity="0.25"/>
<circle cx="164.756" cy="79.6002" r="0.4" fill="black" fill-opacity="0.25"/>
<circle cx="166.156" cy="79.6002" r="0.4" fill="black" fill-opacity="0.25"/>
<circle cx="167.556" cy="79.6002" r="0.4" fill="black" fill-opacity="0.25"/>
<circle cx="168.956" cy="79.6002" r="0.4" fill="black" fill-opacity="0.25"/>
<circle cx="170.356" cy="79.6002" r="0.4" fill="black" fill-opacity="0.25"/>
<circle cx="171.756" cy="79.6002" r="0.4" fill="black" fill-opacity="0.25"/>
<circle cx="173.156" cy="79.6002" r="0.4" fill="black" fill-opacity="0.25"/>
<circle cx="45.7555" cy="80.7003" r="0.4" fill="black" fill-opacity="0.25"/>
<circle cx="47.1555" cy="80.7003" r="0.4" fill="black" fill-opacity="0.25"/>
<circle cx="48.5555" cy="80.7003" r="0.4" fill="black" fill-opacity="0.25"/>
<circle cx="49.9555" cy="80.7003" r="0.4" fill="black" fill-opacity="0.25"/>
<circle cx="51.3555" cy="80.7003" r="0.4" fill="black" fill-opacity="0.25"/>
<circle cx="52.7555" cy="80.7003" r="0.4" fill="black" fill-opacity="0.25"/>
<circle cx="54.1555" cy="80.7003" r="0.4" fill="black" fill-opacity="0.25"/>
<circle cx="55.5555" cy="80.7003" r="0.4" fill="black" fill-opacity="0.25"/>
<circle cx="56.9555" cy="80.7003" r="0.4" fill="black" fill-opacity="0.25"/>
<circle cx="58.3555" cy="80.7003" r="0.4" fill="black" fill-opacity="0.25"/>
<circle cx="59.7555" cy="80.7003" r="0.4" fill="black" fill-opacity="0.25"/>
<circle cx="61.1555" cy="80.7003" r="0.4" fill="black" fill-opacity="0.25"/>
<circle cx="62.5555" cy="80.7003" r="0.4" fill="black" fill-opacity="0.25"/>
<circle cx="63.9555" cy="80.7003" r="0.4" fill="black" fill-opacity="0.25"/>
<circle cx="65.3555" cy="80.7003" r="0.4" fill="black" fill-opacity="0.25"/>
<circle cx="66.7555" cy="80.7003" r="0.4" fill="black" fill-opacity="0.25"/>
<circle cx="68.1555" cy="80.7003" r="0.4" fill="black" fill-opacity="0.25"/>
<circle cx="69.5555" cy="80.7003" r="0.4" fill="black" fill-opacity="0.25"/>
<circle cx="70.9555" cy="80.7003" r="0.4" fill="black" fill-opacity="0.25"/>
<circle cx="72.3555" cy="80.7003" r="0.4" fill="black" fill-opacity="0.25"/>
<circle cx="73.7555" cy="80.7003" r="0.4" fill="black" fill-opacity="0.25"/>
<circle cx="75.1555" cy="80.7003" r="0.4" fill="black" fill-opacity="0.25"/>
<circle cx="76.5555" cy="80.7003" r="0.4" fill="black" fill-opacity="0.25"/>
<circle cx="77.9555" cy="80.7003" r="0.4" fill="black" fill-opacity="0.25"/>
<circle cx="79.3555" cy="80.7003" r="0.4" fill="black" fill-opacity="0.25"/>
<circle cx="80.7555" cy="80.7003" r="0.4" fill="black" fill-opacity="0.25"/>
<circle cx="82.1555" cy="80.7003" r="0.4" fill="black" fill-opacity="0.25"/>
<circle cx="83.5555" cy="80.7003" r="0.4" fill="black" fill-opacity="0.25"/>
<circle cx="84.9555" cy="80.7003" r="0.4" fill="black" fill-opacity="0.25"/>
<circle cx="86.3555" cy="80.7003" r="0.4" fill="black" fill-opacity="0.25"/>
<circle cx="87.7555" cy="80.7003" r="0.4" fill="black" fill-opacity="0.25"/>
<circle cx="89.1555" cy="80.7003" r="0.4" fill="black" fill-opacity="0.25"/>
<circle cx="90.5555" cy="80.7003" r="0.4" fill="black" fill-opacity="0.25"/>
<circle cx="91.9555" cy="80.7003" r="0.4" fill="black" fill-opacity="0.25"/>
<circle cx="93.3555" cy="80.7003" r="0.4" fill="black" fill-opacity="0.25"/>
<circle cx="94.7555" cy="80.7003" r="0.4" fill="black" fill-opacity="0.25"/>
<circle cx="96.1555" cy="80.7003" r="0.4" fill="black" fill-opacity="0.25"/>
<circle cx="97.5555" cy="80.7003" r="0.4" fill="black" fill-opacity="0.25"/>
<circle cx="98.9555" cy="80.7003" r="0.4" fill="black" fill-opacity="0.25"/>
<circle cx="100.356" cy="80.7003" r="0.4" fill="black" fill-opacity="0.25"/>
<circle cx="101.756" cy="80.7003" r="0.4" fill="black" fill-opacity="0.25"/>
<circle cx="103.156" cy="80.7003" r="0.4" fill="black" fill-opacity="0.25"/>
<circle cx="104.556" cy="80.7003" r="0.4" fill="black" fill-opacity="0.25"/>
<circle cx="105.956" cy="80.7003" r="0.4" fill="black" fill-opacity="0.25"/>
<circle cx="107.356" cy="80.7003" r="0.4" fill="black" fill-opacity="0.25"/>
<circle cx="108.756" cy="80.7003" r="0.4" fill="black" fill-opacity="0.25"/>
<circle cx="110.156" cy="80.7003" r="0.4" fill="black" fill-opacity="0.25"/>
<circle cx="111.556" cy="80.7003" r="0.4" fill="black" fill-opacity="0.25"/>
<circle cx="112.956" cy="80.7003" r="0.4" fill="black" fill-opacity="0.25"/>
<circle cx="114.356" cy="80.7003" r="0.4" fill="black" fill-opacity="0.25"/>
<circle cx="115.756" cy="80.7003" r="0.4" fill="black" fill-opacity="0.25"/>
<circle cx="117.156" cy="80.7003" r="0.4" fill="black" fill-opacity="0.25"/>
<circle cx="118.556" cy="80.7003" r="0.4" fill="black" fill-opacity="0.25"/>
<circle cx="119.956" cy="80.7003" r="0.4" fill="black" fill-opacity="0.25"/>
<circle cx="121.356" cy="80.7003" r="0.4" fill="black" fill-opacity="0.25"/>
<circle cx="122.756" cy="80.7003" r="0.4" fill="black" fill-opacity="0.25"/>
<circle cx="124.156" cy="80.7003" r="0.4" fill="black" fill-opacity="0.25"/>
<circle cx="125.556" cy="80.7003" r="0.4" fill="black" fill-opacity="0.25"/>
<circle cx="126.956" cy="80.7003" r="0.4" fill="black" fill-opacity="0.25"/>
<circle cx="128.356" cy="80.7003" r="0.4" fill="black" fill-opacity="0.25"/>
<circle cx="129.756" cy="80.7003" r="0.4" fill="black" fill-opacity="0.25"/>
<circle cx="131.156" cy="80.7003" r="0.4" fill="black" fill-opacity="0.25"/>
<circle cx="132.556" cy="80.7003" r="0.4" fill="black" fill-opacity="0.25"/>
<circle cx="133.956" cy="80.7003" r="0.4" fill="black" fill-opacity="0.25"/>
<circle cx="135.356" cy="80.7003" r="0.4" fill="black" fill-opacity="0.25"/>
<circle cx="136.756" cy="80.7003" r="0.4" fill="black" fill-opacity="0.25"/>
<circle cx="138.156" cy="80.7003" r="0.4" fill="black" fill-opacity="0.25"/>
<circle cx="139.556" cy="80.7003" r="0.4" fill="black" fill-opacity="0.25"/>
<circle cx="140.956" cy="80.7003" r="0.4" fill="black" fill-opacity="0.25"/>
<circle cx="142.356" cy="80.7003" r="0.4" fill="black" fill-opacity="0.25"/>
<circle cx="143.756" cy="80.7003" r="0.4" fill="black" fill-opacity="0.25"/>
<circle cx="145.156" cy="80.7003" r="0.4" fill="black" fill-opacity="0.25"/>
<circle cx="146.556" cy="80.7003" r="0.4" fill="black" fill-opacity="0.25"/>
<circle cx="147.956" cy="80.7003" r="0.4" fill="black" fill-opacity="0.25"/>
<circle cx="149.356" cy="80.7003" r="0.4" fill="black" fill-opacity="0.25"/>
<circle cx="150.756" cy="80.7003" r="0.4" fill="black" fill-opacity="0.25"/>
<circle cx="152.156" cy="80.7003" r="0.4" fill="black" fill-opacity="0.25"/>
<circle cx="153.556" cy="80.7003" r="0.4" fill="black" fill-opacity="0.25"/>
<circle cx="154.956" cy="80.7003" r="0.4" fill="black" fill-opacity="0.25"/>
<circle cx="156.356" cy="80.7003" r="0.4" fill="black" fill-opacity="0.25"/>
<circle cx="157.756" cy="80.7003" r="0.4" fill="black" fill-opacity="0.25"/>
<circle cx="159.156" cy="80.7003" r="0.4" fill="black" fill-opacity="0.25"/>
<circle cx="160.556" cy="80.7003" r="0.4" fill="black" fill-opacity="0.25"/>
<circle cx="161.956" cy="80.7003" r="0.4" fill="black" fill-opacity="0.25"/>
<circle cx="163.356" cy="80.7003" r="0.4" fill="black" fill-opacity="0.25"/>
<circle cx="164.756" cy="80.7003" r="0.4" fill="black" fill-opacity="0.25"/>
<circle cx="166.156" cy="80.7003" r="0.4" fill="black" fill-opacity="0.25"/>
<circle cx="167.556" cy="80.7003" r="0.4" fill="black" fill-opacity="0.25"/>
<circle cx="168.956" cy="80.7003" r="0.4" fill="black" fill-opacity="0.25"/>
<circle cx="170.356" cy="80.7003" r="0.4" fill="black" fill-opacity="0.25"/>
<circle cx="171.756" cy="80.7003" r="0.4" fill="black" fill-opacity="0.25"/>
<circle cx="173.156" cy="80.7003" r="0.4" fill="black" fill-opacity="0.25"/>
<circle cx="45.7555" cy="81.8001" r="0.4" fill="black" fill-opacity="0.25"/>
<circle cx="47.1555" cy="81.8001" r="0.4" fill="black" fill-opacity="0.25"/>
<circle cx="48.5555" cy="81.8001" r="0.4" fill="black" fill-opacity="0.25"/>
<circle cx="49.9555" cy="81.8001" r="0.4" fill="black" fill-opacity="0.25"/>
<circle cx="51.3555" cy="81.8001" r="0.4" fill="black" fill-opacity="0.25"/>
<circle cx="52.7555" cy="81.8001" r="0.4" fill="black" fill-opacity="0.25"/>
<circle cx="54.1555" cy="81.8001" r="0.4" fill="black" fill-opacity="0.25"/>
<circle cx="55.5555" cy="81.8001" r="0.4" fill="black" fill-opacity="0.25"/>
<circle cx="56.9555" cy="81.8001" r="0.4" fill="black" fill-opacity="0.25"/>
<circle cx="58.3555" cy="81.8001" r="0.4" fill="black" fill-opacity="0.25"/>
<circle cx="59.7555" cy="81.8001" r="0.4" fill="black" fill-opacity="0.25"/>
<circle cx="61.1555" cy="81.8001" r="0.4" fill="black" fill-opacity="0.25"/>
<circle cx="62.5555" cy="81.8001" r="0.4" fill="black" fill-opacity="0.25"/>
<circle cx="63.9555" cy="81.8001" r="0.4" fill="black" fill-opacity="0.25"/>
<circle cx="65.3555" cy="81.8001" r="0.4" fill="black" fill-opacity="0.25"/>
<circle cx="66.7555" cy="81.8001" r="0.4" fill="black" fill-opacity="0.25"/>
<circle cx="68.1555" cy="81.8001" r="0.4" fill="black" fill-opacity="0.25"/>
<circle cx="69.5555" cy="81.8001" r="0.4" fill="black" fill-opacity="0.25"/>
<circle cx="70.9555" cy="81.8001" r="0.4" fill="black" fill-opacity="0.25"/>
<circle cx="72.3555" cy="81.8001" r="0.4" fill="black" fill-opacity="0.25"/>
<circle cx="73.7555" cy="81.8001" r="0.4" fill="black" fill-opacity="0.25"/>
<circle cx="75.1555" cy="81.8001" r="0.4" fill="black" fill-opacity="0.25"/>
<circle cx="76.5555" cy="81.8001" r="0.4" fill="black" fill-opacity="0.25"/>
<circle cx="77.9555" cy="81.8001" r="0.4" fill="black" fill-opacity="0.25"/>
<circle cx="79.3555" cy="81.8001" r="0.4" fill="black" fill-opacity="0.25"/>
<circle cx="80.7555" cy="81.8001" r="0.4" fill="black" fill-opacity="0.25"/>
<circle cx="82.1555" cy="81.8001" r="0.4" fill="black" fill-opacity="0.25"/>
<circle cx="83.5555" cy="81.8001" r="0.4" fill="black" fill-opacity="0.25"/>
<circle cx="84.9555" cy="81.8001" r="0.4" fill="black" fill-opacity="0.25"/>
<circle cx="86.3555" cy="81.8001" r="0.4" fill="black" fill-opacity="0.25"/>
<circle cx="87.7555" cy="81.8001" r="0.4" fill="black" fill-opacity="0.25"/>
<circle cx="89.1555" cy="81.8001" r="0.4" fill="black" fill-opacity="0.25"/>
<circle cx="90.5555" cy="81.8001" r="0.4" fill="black" fill-opacity="0.25"/>
<circle cx="91.9555" cy="81.8001" r="0.4" fill="black" fill-opacity="0.25"/>
<circle cx="93.3555" cy="81.8001" r="0.4" fill="black" fill-opacity="0.25"/>
<circle cx="94.7555" cy="81.8001" r="0.4" fill="black" fill-opacity="0.25"/>
<circle cx="96.1555" cy="81.8001" r="0.4" fill="black" fill-opacity="0.25"/>
<circle cx="97.5555" cy="81.8001" r="0.4" fill="black" fill-opacity="0.25"/>
<circle cx="98.9555" cy="81.8001" r="0.4" fill="black" fill-opacity="0.25"/>
<circle cx="100.356" cy="81.8001" r="0.4" fill="black" fill-opacity="0.25"/>
<circle cx="101.756" cy="81.8001" r="0.4" fill="black" fill-opacity="0.25"/>
<circle cx="103.156" cy="81.8001" r="0.4" fill="black" fill-opacity="0.25"/>
<circle cx="104.556" cy="81.8001" r="0.4" fill="black" fill-opacity="0.25"/>
<circle cx="105.956" cy="81.8001" r="0.4" fill="black" fill-opacity="0.25"/>
<circle cx="107.356" cy="81.8001" r="0.4" fill="black" fill-opacity="0.25"/>
<circle cx="108.756" cy="81.8001" r="0.4" fill="black" fill-opacity="0.25"/>
<circle cx="110.156" cy="81.8001" r="0.4" fill="black" fill-opacity="0.25"/>
<circle cx="111.556" cy="81.8001" r="0.4" fill="black" fill-opacity="0.25"/>
<circle cx="112.956" cy="81.8001" r="0.4" fill="black" fill-opacity="0.25"/>
<circle cx="114.356" cy="81.8001" r="0.4" fill="black" fill-opacity="0.25"/>
<circle cx="115.756" cy="81.8001" r="0.4" fill="black" fill-opacity="0.25"/>
<circle cx="117.156" cy="81.8001" r="0.4" fill="black" fill-opacity="0.25"/>
<circle cx="118.556" cy="81.8001" r="0.4" fill="black" fill-opacity="0.25"/>
<circle cx="119.956" cy="81.8001" r="0.4" fill="black" fill-opacity="0.25"/>
<circle cx="121.356" cy="81.8001" r="0.4" fill="black" fill-opacity="0.25"/>
<circle cx="122.756" cy="81.8001" r="0.4" fill="black" fill-opacity="0.25"/>
<circle cx="124.156" cy="81.8001" r="0.4" fill="black" fill-opacity="0.25"/>
<circle cx="125.556" cy="81.8001" r="0.4" fill="black" fill-opacity="0.25"/>
<circle cx="126.956" cy="81.8001" r="0.4" fill="black" fill-opacity="0.25"/>
<circle cx="128.356" cy="81.8001" r="0.4" fill="black" fill-opacity="0.25"/>
<circle cx="129.756" cy="81.8001" r="0.4" fill="black" fill-opacity="0.25"/>
<circle cx="131.156" cy="81.8001" r="0.4" fill="black" fill-opacity="0.25"/>
<circle cx="132.556" cy="81.8001" r="0.4" fill="black" fill-opacity="0.25"/>
<circle cx="133.956" cy="81.8001" r="0.4" fill="black" fill-opacity="0.25"/>
<circle cx="135.356" cy="81.8001" r="0.4" fill="black" fill-opacity="0.25"/>
<circle cx="136.756" cy="81.8001" r="0.4" fill="black" fill-opacity="0.25"/>
<circle cx="138.156" cy="81.8001" r="0.4" fill="black" fill-opacity="0.25"/>
<circle cx="139.556" cy="81.8001" r="0.4" fill="black" fill-opacity="0.25"/>
<circle cx="140.956" cy="81.8001" r="0.4" fill="black" fill-opacity="0.25"/>
<circle cx="142.356" cy="81.8001" r="0.4" fill="black" fill-opacity="0.25"/>
<circle cx="143.756" cy="81.8001" r="0.4" fill="black" fill-opacity="0.25"/>
<circle cx="145.156" cy="81.8001" r="0.4" fill="black" fill-opacity="0.25"/>
<circle cx="146.556" cy="81.8001" r="0.4" fill="black" fill-opacity="0.25"/>
<circle cx="147.956" cy="81.8001" r="0.4" fill="black" fill-opacity="0.25"/>
<circle cx="149.356" cy="81.8001" r="0.4" fill="black" fill-opacity="0.25"/>
<circle cx="150.756" cy="81.8001" r="0.4" fill="black" fill-opacity="0.25"/>
<circle cx="152.156" cy="81.8001" r="0.4" fill="black" fill-opacity="0.25"/>
<circle cx="153.556" cy="81.8001" r="0.4" fill="black" fill-opacity="0.25"/>
<circle cx="154.956" cy="81.8001" r="0.4" fill="black" fill-opacity="0.25"/>
<circle cx="156.356" cy="81.8001" r="0.4" fill="black" fill-opacity="0.25"/>
<circle cx="157.756" cy="81.8001" r="0.4" fill="black" fill-opacity="0.25"/>
<circle cx="159.156" cy="81.8001" r="0.4" fill="black" fill-opacity="0.25"/>
<circle cx="160.556" cy="81.8001" r="0.4" fill="black" fill-opacity="0.25"/>
<circle cx="161.956" cy="81.8001" r="0.4" fill="black" fill-opacity="0.25"/>
<circle cx="163.356" cy="81.8001" r="0.4" fill="black" fill-opacity="0.25"/>
<circle cx="164.756" cy="81.8001" r="0.4" fill="black" fill-opacity="0.25"/>
<circle cx="166.156" cy="81.8001" r="0.4" fill="black" fill-opacity="0.25"/>
<circle cx="167.556" cy="81.8001" r="0.4" fill="black" fill-opacity="0.25"/>
<circle cx="168.956" cy="81.8001" r="0.4" fill="black" fill-opacity="0.25"/>
<circle cx="170.356" cy="81.8001" r="0.4" fill="black" fill-opacity="0.25"/>
<circle cx="171.756" cy="81.8001" r="0.4" fill="black" fill-opacity="0.25"/>
<circle cx="173.156" cy="81.8001" r="0.4" fill="black" fill-opacity="0.25"/>
</g>
<path fill-rule="evenodd" clip-rule="evenodd" d="M109.456 76.2763C87.2547 76.2931 46.9995 76.3233 45.5945 76.3233C44.3415 76.3233 43.6294 75.8398 42.6724 74.4853C42.2172 73.8411 41.0887 71.959 41.0887 71.959H95.0887H123.823H177.823C177.823 71.959 176.695 73.8411 176.239 74.4853C175.282 75.8398 174.57 76.3233 173.317 76.3233C171.912 76.3233 131.657 76.2931 109.456 76.2763Z" fill="url(#paint2_linear)"/>
<path d="M46.5626 11.5C44.1254 11.5 42.1311 13.4404 42.0643 15.8768L40.6128 68.8585C40.5434 71.3911 42.5775 73.4817 45.1111 73.4817H173.889C176.422 73.4817 178.457 71.3911 178.387 68.8585L176.936 15.8768C176.869 13.4404 174.875 11.5 172.437 11.5H46.5626Z" fill="#111111" stroke="#DBD9D9"/>
<rect x="46.8477" y="74" width="38.4268" height="5.0122" fill="#B4B2B2"/>
<g filter="url(#filter0_i)">
<path d="M46.3082 77.5569C46.1573 76.928 46.6339 76.3235 47.2806 76.3235H84.9826C85.5821 76.3235 86.0469 76.8474 85.9755 77.4426L85.8145 78.7841C85.7542 79.2867 85.3278 79.6649 84.8216 79.6649H47.6026C47.1402 79.6649 46.7381 79.3479 46.6302 78.8983L46.3082 77.5569Z" fill="url(#paint3_linear)"/>
</g>
<circle cx="66" cy="41" r="11" fill="#323232"/>
<circle cx="66" cy="41" r="11.25" stroke="white" stroke-opacity="0.2" stroke-width="0.5"/>
<path fill-rule="evenodd" clip-rule="evenodd" d="M64.2605 43.4715H64.6103V41.987H64.2605V43.4715ZM67.4394 42.4136C67.4267 42.4091 67.3129 42.3326 67.1443 42.3326C66.9167 42.3326 66.7608 42.5036 66.7608 42.733C66.7608 42.9534 66.9125 43.1289 67.1443 43.1289C67.3087 43.1289 67.4267 43.0569 67.4394 43.0479V43.4438C67.3972 43.4618 67.275 43.4978 67.119 43.4978C66.727 43.4978 66.3814 43.2054 66.3814 42.733C66.3814 42.2876 66.6933 41.9637 67.119 41.9637C67.2834 41.9637 67.4056 42.0042 67.4394 42.0177V42.4136ZM63.7783 42.4136C63.7656 42.4091 63.6518 42.3326 63.4832 42.3326C63.2556 42.3326 63.0997 42.5036 63.0997 42.733C63.0997 42.9534 63.2514 43.1289 63.4832 43.1289C63.6476 43.1289 63.7656 43.0569 63.7783 43.0479V43.4438C63.7361 43.4618 63.6181 43.4978 63.4622 43.4978C63.066 43.4978 62.7203 43.2054 62.7203 42.733C62.7203 42.2876 63.0322 41.9637 63.4622 41.9637C63.6266 41.9637 63.7488 42.0042 63.7783 42.0177V42.4136ZM68.5428 42.3387C68.3363 42.3387 68.1804 42.5187 68.1804 42.7301C68.1804 42.9461 68.3363 43.1215 68.5428 43.1215C68.7536 43.1215 68.9053 42.9461 68.9053 42.7301C68.9053 42.5187 68.7536 42.3387 68.5428 42.3387ZM69.2805 42.7302C69.2805 43.1531 68.9728 43.4995 68.5429 43.4995C68.1172 43.4995 67.8095 43.1531 67.8095 42.7302C67.8095 42.3074 68.1172 41.9655 68.5429 41.9655C68.9728 41.9655 69.2805 42.3074 69.2805 42.7302ZM65.9435 42.3257C65.9393 42.3257 65.7918 42.2807 65.6696 42.2807C65.5263 42.2807 65.4504 42.3302 65.4504 42.4021C65.4504 42.4921 65.5558 42.5236 65.6148 42.5416L65.7075 42.5776C65.9393 42.6541 66.0405 42.8205 66.0405 43.0005C66.0405 43.3738 65.737 43.4998 65.4672 43.4998C65.2776 43.4998 65.1048 43.4593 65.0837 43.4548V43.1174C65.1174 43.1264 65.2649 43.1714 65.4167 43.1714C65.5937 43.1714 65.6738 43.1174 65.6738 43.0319C65.6738 42.96 65.6021 42.915 65.5136 42.888C65.4967 42.879 65.463 42.87 65.442 42.861C65.2439 42.7935 65.0795 42.6721 65.0795 42.4246C65.0795 42.1502 65.2776 41.9613 65.6021 41.9613C65.7707 41.9613 65.9309 42.0063 65.9435 42.0108V42.3257ZM62.3498 40.3948C62.3498 40.2914 62.2655 40.2104 62.1728 40.2104C62.0759 40.2104 62 40.2914 62 40.3948V40.7817C62 40.8852 62.0759 40.9707 62.1728 40.9707C62.2655 40.9707 62.3498 40.8852 62.3498 40.7817V40.3948ZM63.3049 39.8829C63.3049 39.7839 63.2248 39.6985 63.1279 39.6985C63.0352 39.6985 62.9551 39.7839 62.9551 39.8829V40.7826C62.9551 40.8861 63.0352 40.9716 63.1279 40.9716C63.2248 40.9716 63.3049 40.8861 63.3049 40.7826V39.8829ZM64.2617 39.1844C64.2617 39.081 64.1817 39 64.0847 39C63.992 39 63.9119 39.081 63.9119 39.1844V41.1549C63.9119 41.2538 63.992 41.3393 64.0847 41.3393C64.1817 41.3393 64.2617 41.2538 64.2617 41.1549V39.1844ZM65.2168 39.8829C65.2168 39.7839 65.1368 39.6985 65.044 39.6985C64.9471 39.6985 64.867 39.7839 64.867 39.8829V40.7826C64.867 40.8861 64.9471 40.9716 65.044 40.9716C65.1368 40.9716 65.2168 40.8861 65.2168 40.7826V39.8829ZM66.1736 40.3948C66.1736 40.2914 66.0935 40.2104 65.9966 40.2104C65.9039 40.2104 65.8238 40.2914 65.8238 40.3948V40.7817C65.8238 40.8852 65.9039 40.9707 65.9966 40.9707C66.0935 40.9707 66.1736 40.8852 66.1736 40.7817V40.3948ZM67.1287 39.8829C67.1287 39.7839 67.0486 39.6985 66.9517 39.6985C66.859 39.6985 66.7789 39.7839 66.7789 39.8829V40.7826C66.7789 40.8861 66.859 40.9716 66.9517 40.9716C67.0486 40.9716 67.1287 40.8861 67.1287 40.7826V39.8829ZM68.086 39.1844C68.086 39.081 68.0101 39 67.9132 39C67.8162 39 67.7361 39.081 67.7361 39.1844V41.1549C67.7361 41.2538 67.8162 41.3393 67.9132 41.3393C68.0101 41.3393 68.086 41.2538 68.086 41.1549V39.1844ZM69.0448 39.8829C69.0448 39.7839 68.9648 39.6985 68.8678 39.6985C68.7709 39.6985 68.695 39.7839 68.695 39.8829V40.7826C68.695 40.8861 68.7709 40.9716 68.8678 40.9716C68.9648 40.9716 69.0448 40.8861 69.0448 40.7826V39.8829ZM70 40.3948C70 40.2914 69.9199 40.2104 69.8272 40.2104C69.7302 40.2104 69.6501 40.2914 69.6501 40.3948V40.7817C69.6501 40.8852 69.7302 40.9707 69.8272 40.9707C69.9199 40.9707 70 40.8852 70 40.7817V40.3948Z" fill="white" fill-opacity="0.2"/>
<path fill-rule="evenodd" clip-rule="evenodd" d="M171.484 60.4513H92.6256C92.2567 60.4513 91.9573 60.1791 91.9573 59.8438V20.9613C91.9573 20.6259 92.2567 20.3538 92.6256 20.3538H170.649C171.018 20.3538 171.317 20.6259 171.317 20.9613L172.152 59.8438C172.152 60.1791 171.853 60.4513 171.484 60.4513Z" fill="#222222"/>
<path fill-rule="evenodd" clip-rule="evenodd" d="M171.484 60.4513H92.6256C92.2567 60.4513 91.9573 60.1791 91.9573 59.8438V20.9613C91.9573 20.6259 92.2567 20.3538 92.6256 20.3538H170.649C171.018 20.3538 171.317 20.6259 171.317 20.9613L172.152 59.8438C172.152 60.1791 171.853 60.4513 171.484 60.4513Z" fill="url(#paint4_linear)"/>
<rect x="154.024" y="64.0427" width="12.8659" height="4.5122" rx="2.2561" stroke="#7D7D7D" stroke-width="0.5"/>
<defs>
<filter id="filter0_i" x="46.2802" y="76.3235" width="39.7026" height="3.34146" filterUnits="userSpaceOnUse" color-interpolation-filters="sRGB">
<feFlood flood-opacity="0" result="BackgroundImageFix"/>
<feBlend mode="normal" in="SourceGraphic" in2="BackgroundImageFix" result="shape"/>
<feColorMatrix in="SourceAlpha" type="matrix" values="0 0 0 0 0 0 0 0 0 0 0 0 0 0 0 0 0 0 127 0" result="hardAlpha"/>
<feOffset dy="1"/>
<feComposite in2="hardAlpha" operator="arithmetic" k2="-1" k3="1"/>
<feColorMatrix type="matrix" values="0 0 0 0 0.858824 0 0 0 0 0.85098 0 0 0 0 0.85098 0 0 0 1 0"/>
<feBlend mode="normal" in2="shape" result="effect1_innerShadow"/>
</filter>
<linearGradient id="paint0_linear" x1="109.5" y1="85.9298" x2="109.5" y2="72.9816" gradientUnits="userSpaceOnUse">
<stop offset="0.0885417" stop-color="#CCCCCC"/>
<stop offset="0.223958" stop-color="#EEEEEE"/>
<stop offset="0.265625" stop-color="#CCCCCC"/>
<stop offset="1" stop-color="#555555"/>
</linearGradient>
<linearGradient id="paint1_linear" x1="109.5" y1="85.9298" x2="109.5" y2="72.9816" gradientUnits="userSpaceOnUse">
<stop offset="0.0885417" stop-color="#C5C5C5"/>
<stop offset="0.223958" stop-color="#DCDCDC"/>
<stop offset="0.265625" stop-color="#BEBEBE"/>
<stop offset="1" stop-color="#5A5A5A"/>
</linearGradient>
<linearGradient id="paint2_linear" x1="109.412" y1="80.0825" x2="109.412" y2="72.1465" gradientUnits="userSpaceOnUse">
<stop stop-color="#C1C0C0"/>
<stop offset="1" stop-color="#858585"/>
</linearGradient>
<linearGradient id="paint3_linear" x1="66.061" y1="76.3235" x2="66.061" y2="79.6649" gradientUnits="userSpaceOnUse">
<stop stop-color="#888888"/>
<stop offset="1" stop-color="#B8B8B8"/>
</linearGradient>
<linearGradient id="paint4_linear" x1="51.8597" y1="40.4025" x2="83.9378" y2="104.559" gradientUnits="userSpaceOnUse">
<stop stop-color="white" stop-opacity="0.24"/>
<stop offset="1" stop-color="#222222" stop-opacity="0.5"/>
</linearGradient>
</defs>
</svg>
