<svg width="180" height="96" viewBox="0 0 180 96" fill="none" xmlns="http://www.w3.org/2000/svg">
<path fill-rule="evenodd" clip-rule="evenodd" d="M56.9937 57.3333V88C56.9937 89.472 58.1865 90.6667 59.6562 90.6667V92H55.6625L54.3312 90.6667V56L56.9937 57.3333Z" fill="url(#paint0_linear)"/>
<path fill-rule="evenodd" clip-rule="evenodd" d="M123.556 57.3333V88C123.556 89.472 122.363 90.6667 120.894 90.6667V92H124.887L126.219 90.6667V56L123.556 57.3333Z" fill="url(#paint1_linear)"/>
<path fill-rule="evenodd" clip-rule="evenodd" d="M92.6047 8.33325C92.4556 8.33325 92.3198 8.23192 92.2812 8.08125L91.0138 2.99992H89.5362L88.2688 8.08125C88.2235 8.25859 88.0438 8.36392 87.8641 8.32392C87.687 8.27859 87.5779 8.09725 87.6218 7.91859L89.017 2.33325H91.533L92.9282 7.91859C92.9721 8.09725 92.8629 8.27859 92.6859 8.32392C92.6579 8.33059 92.6313 8.33325 92.6047 8.33325Z" fill="#E9E9E9"/>
<mask id="path-4-inside-1" fill="white">
<path fill-rule="evenodd" clip-rule="evenodd" d="M84.95 3.33333C84.5826 3.33333 84.2844 3.632 84.2844 4V12C84.2844 12.368 84.5826 12.6667 84.95 12.6667H95.6C95.9674 12.6667 96.2656 12.368 96.2656 12V4C96.2656 3.632 95.9674 3.33333 95.6 3.33333H84.95ZM95.6 14H84.95C83.8491 14 82.9531 13.1027 82.9531 12V4C82.9531 2.89733 83.8491 2 84.95 2H95.6C96.7009 2 97.5969 2.89733 97.5969 4V12C97.5969 13.1027 96.7009 14 95.6 14Z"/>
</mask>
<path fill-rule="evenodd" clip-rule="evenodd" d="M84.95 3.33333C84.5826 3.33333 84.2844 3.632 84.2844 4V12C84.2844 12.368 84.5826 12.6667 84.95 12.6667H95.6C95.9674 12.6667 96.2656 12.368 96.2656 12V4C96.2656 3.632 95.9674 3.33333 95.6 3.33333H84.95ZM95.6 14H84.95C83.8491 14 82.9531 13.1027 82.9531 12V4C82.9531 2.89733 83.8491 2 84.95 2H95.6C96.7009 2 97.5969 2.89733 97.5969 4V12C97.5969 13.1027 96.7009 14 95.6 14Z" fill="url(#paint2_linear)"/>
<path d="M84.95 2.83333C84.3057 2.83333 83.7844 3.3566 83.7844 4H84.7844C84.7844 3.90741 84.8595 3.83333 84.95 3.83333V2.83333ZM83.7844 4V12H84.7844V4H83.7844ZM83.7844 12C83.7844 12.6434 84.3057 13.1667 84.95 13.1667V12.1667C84.8595 12.1667 84.7844 12.0926 84.7844 12H83.7844ZM84.95 13.1667H95.6V12.1667H84.95V13.1667ZM95.6 13.1667C96.2443 13.1667 96.7656 12.6434 96.7656 12H95.7656C95.7656 12.0926 95.6905 12.1667 95.6 12.1667V13.1667ZM96.7656 12V4H95.7656V12H96.7656ZM96.7656 4C96.7656 3.3566 96.2443 2.83333 95.6 2.83333V3.83333C95.6905 3.83333 95.7656 3.9074 95.7656 4H96.7656ZM95.6 2.83333H84.95V3.83333H95.6V2.83333ZM95.6 13.5H84.95V14.5H95.6V13.5ZM84.95 13.5C84.1259 13.5 83.4531 12.8273 83.4531 12H82.4531C82.4531 13.3781 83.5722 14.5 84.95 14.5V13.5ZM83.4531 12V4H82.4531V12H83.4531ZM83.4531 4C83.4531 3.17274 84.1259 2.5 84.95 2.5V1.5C83.5722 1.5 82.4531 2.62193 82.4531 4H83.4531ZM84.95 2.5H95.6V1.5H84.95V2.5ZM95.6 2.5C96.4241 2.5 97.0969 3.17274 97.0969 4H98.0969C98.0969 2.62193 96.9778 1.5 95.6 1.5V2.5ZM97.0969 4V12H98.0969V4H97.0969ZM97.0969 12C97.0969 12.8273 96.4241 13.5 95.6 13.5V14.5C96.9778 14.5 98.0969 13.3781 98.0969 12H97.0969Z" fill="#EAEAEA" mask="url(#path-4-inside-1)"/>
<path fill-rule="evenodd" clip-rule="evenodd" d="M124.887 51.4062V87.9996C124.887 89.4729 123.695 90.6662 122.225 90.6662H58.325C56.8553 90.6662 55.6625 89.4729 55.6625 87.9996V51.4062C54.0783 52.3303 53 54.0316 53 55.9996V87.9996C53 90.9449 55.3843 93.3329 58.325 93.3329H122.225C125.166 93.3329 127.55 90.9449 127.55 87.9996V55.9996C127.55 54.0316 126.472 52.3303 124.887 51.4062Z" fill="url(#paint3_linear)"/>
<path fill-rule="evenodd" clip-rule="evenodd" d="M96.9313 12C96.9313 12.736 96.3349 13.3333 95.6 13.3333H84.95C84.2151 13.3333 83.6187 12.736 83.6187 12V4C83.6187 3.264 84.2151 2.66667 84.95 2.66667H95.6C96.3349 2.66667 96.9313 3.264 96.9313 4V12ZM124.887 0H55.6625C54.1928 0 53 1.19467 53 2.66667V54.6667C53 56.1387 54.1928 57.3333 55.6625 57.3333H124.887C126.357 57.3333 127.55 56.1387 127.55 54.6667V2.66667C127.55 1.19467 126.357 0 124.887 0Z" fill="#E0E0E0"/>
<path fill-rule="evenodd" clip-rule="evenodd" d="M88.8972 55.9831H89.096V55.1034H88.8972V55.9831ZM90.7039 55.3561C90.6967 55.3534 90.6321 55.3081 90.5362 55.3081C90.4069 55.3081 90.3182 55.4094 90.3182 55.5454C90.3182 55.676 90.4045 55.78 90.5362 55.78C90.6297 55.78 90.6967 55.7373 90.7039 55.732V55.9666C90.68 55.9773 90.6105 55.9986 90.5219 55.9986C90.2991 55.9986 90.1026 55.8253 90.1026 55.5454C90.1026 55.2815 90.2799 55.0895 90.5219 55.0895C90.6153 55.0895 90.6848 55.1135 90.7039 55.1215V55.3561ZM88.6232 55.3561C88.616 55.3534 88.5513 55.3081 88.4555 55.3081C88.3261 55.3081 88.2375 55.4094 88.2375 55.5454C88.2375 55.676 88.3237 55.78 88.4555 55.78C88.5489 55.78 88.616 55.7373 88.6232 55.732V55.9666C88.5992 55.9773 88.5321 55.9986 88.4435 55.9986C88.2183 55.9986 88.0219 55.8253 88.0219 55.5454C88.0219 55.2815 88.1992 55.0895 88.4435 55.0895C88.5369 55.0895 88.6064 55.1135 88.6232 55.1215V55.3561ZM91.3311 55.3119C91.2137 55.3119 91.1251 55.4185 91.1251 55.5438C91.1251 55.6718 91.2137 55.7757 91.3311 55.7757C91.4508 55.7757 91.5371 55.6718 91.5371 55.5438C91.5371 55.4185 91.4508 55.3119 91.3311 55.3119ZM91.7503 55.5438C91.7503 55.7944 91.5754 55.9997 91.3311 55.9997C91.0891 55.9997 90.9142 55.7944 90.9142 55.5438C90.9142 55.2932 91.0891 55.0906 91.3311 55.0906C91.5754 55.0906 91.7503 55.2932 91.7503 55.5438ZM89.8537 55.3041C89.8514 55.3041 89.7675 55.2775 89.698 55.2775C89.6166 55.2775 89.5735 55.3068 89.5735 55.3494C89.5735 55.4028 89.6334 55.4214 89.6669 55.4321L89.7196 55.4534C89.8514 55.4987 89.9088 55.5974 89.9088 55.704C89.9088 55.9253 89.7364 55.9999 89.5831 55.9999C89.4753 55.9999 89.377 55.9759 89.3651 55.9733V55.7733C89.3842 55.7787 89.4681 55.8053 89.5543 55.8053C89.6549 55.8053 89.7004 55.7733 89.7004 55.7227C89.7004 55.68 89.6597 55.6534 89.6094 55.6374C89.5998 55.632 89.5807 55.6267 89.5687 55.6214C89.4561 55.5814 89.3627 55.5094 89.3627 55.3628C89.3627 55.2002 89.4753 55.0882 89.6597 55.0882C89.7555 55.0882 89.8466 55.1149 89.8537 55.1175V55.3041ZM87.8113 54.1599C87.8113 54.0986 87.7634 54.0506 87.7107 54.0506C87.6556 54.0506 87.6125 54.0986 87.6125 54.1599V54.3892C87.6125 54.4505 87.6556 54.5012 87.7107 54.5012C87.7634 54.5012 87.8113 54.4505 87.8113 54.3892V54.1599ZM88.3541 53.8566C88.3541 53.7979 88.3086 53.7473 88.2535 53.7473C88.2008 53.7473 88.1553 53.7979 88.1553 53.8566V54.3897C88.1553 54.451 88.2008 54.5017 88.2535 54.5017C88.3086 54.5017 88.3541 54.451 88.3541 54.3897V53.8566ZM88.8979 53.4426C88.8979 53.3812 88.8524 53.3333 88.7973 53.3333C88.7446 53.3333 88.6991 53.3812 88.6991 53.4426V54.6102C88.6991 54.6689 88.7446 54.7195 88.7973 54.7195C88.8524 54.7195 88.8979 54.6689 88.8979 54.6102V53.4426ZM89.4408 53.8566C89.4408 53.7979 89.3952 53.7473 89.3425 53.7473C89.2874 53.7473 89.2419 53.7979 89.2419 53.8566V54.3897C89.2419 54.451 89.2874 54.5017 89.3425 54.5017C89.3952 54.5017 89.4408 54.451 89.4408 54.3897V53.8566ZM89.9845 54.1599C89.9845 54.0986 89.939 54.0506 89.8839 54.0506C89.8312 54.0506 89.7857 54.0986 89.7857 54.1599V54.3892C89.7857 54.4505 89.8312 54.5012 89.8839 54.5012C89.939 54.5012 89.9845 54.4505 89.9845 54.3892V54.1599ZM90.5274 53.8566C90.5274 53.7979 90.4819 53.7473 90.4268 53.7473C90.3741 53.7473 90.3285 53.7979 90.3285 53.8566V54.3897C90.3285 54.451 90.3741 54.5017 90.4268 54.5017C90.4819 54.5017 90.5274 54.451 90.5274 54.3897V53.8566ZM91.0714 53.4426C91.0714 53.3812 91.0283 53.3333 90.9732 53.3333C90.9181 53.3333 90.8726 53.3812 90.8726 53.4426V54.6102C90.8726 54.6689 90.9181 54.7195 90.9732 54.7195C91.0283 54.7195 91.0714 54.6689 91.0714 54.6102V53.4426ZM91.6164 53.8566C91.6164 53.7979 91.5709 53.7473 91.5158 53.7473C91.4607 53.7473 91.4175 53.7979 91.4175 53.8566V54.3897C91.4175 54.451 91.4607 54.5017 91.5158 54.5017C91.5709 54.5017 91.6164 54.451 91.6164 54.3897V53.8566ZM92.1592 54.1599C92.1592 54.0986 92.1137 54.0506 92.061 54.0506C92.0059 54.0506 91.9604 54.0986 91.9604 54.1599V54.3892C91.9604 54.4505 92.0059 54.5012 92.061 54.5012C92.1137 54.5012 92.1592 54.4505 92.1592 54.3892V54.1599Z" fill="#908E8E"/>
<path fill-rule="evenodd" clip-rule="evenodd" d="M124.222 52.0001H56.3281C55.9607 52.0001 55.6625 51.7014 55.6625 51.3334V15.3334C55.6625 14.9654 55.9607 14.6667 56.3281 14.6667H124.222C124.589 14.6667 124.888 14.9654 124.888 15.3334V51.3334C124.888 51.7014 124.589 52.0001 124.222 52.0001Z" fill="#222222"/>
<path fill-rule="evenodd" clip-rule="evenodd" d="M124.222 52.0001H56.3281C55.9607 52.0001 55.6625 51.7014 55.6625 51.3334V15.3334C55.6625 14.9654 55.9607 14.6667 56.3281 14.6667H124.222C124.589 14.6667 124.888 14.9654 124.888 15.3334V51.3334C124.888 51.7014 124.589 52.0001 124.222 52.0001Z" fill="url(#paint4_linear)"/>
<path fill-rule="evenodd" clip-rule="evenodd" d="M92.9375 7.99992C92.9375 6.52792 91.7447 5.33325 90.275 5.33325C88.8053 5.33325 87.6125 6.52792 87.6125 7.99992C87.6125 9.47192 88.8053 10.6666 90.275 10.6666C91.7447 10.6666 92.9375 9.47192 92.9375 7.99992Z" fill="#232323"/>
<path fill-rule="evenodd" clip-rule="evenodd" d="M91.6063 8.00008C91.6063 7.26408 91.0099 6.66675 90.275 6.66675C89.5402 6.66675 88.9438 7.26408 88.9438 8.00008C88.9438 8.73608 89.5402 9.33341 90.275 9.33341C91.0099 9.33341 91.6063 8.73608 91.6063 8.00008Z" fill="#373B47"/>
<path fill-rule="evenodd" clip-rule="evenodd" d="M58.325 96V94.6667L60.9875 92H64.9813V93.3333L62.3188 96H58.325Z" fill="url(#paint5_radial)"/>
<path fill-rule="evenodd" clip-rule="evenodd" d="M62.7088 94.276C62.4599 94.5253 62.1204 94.6667 61.7676 94.6667H58.325V96H61.7676C62.1204 96 62.4599 95.8587 62.7088 95.6093L64.9813 93.3333V92L62.7088 94.276Z" fill="#D3D3D3"/>
<path fill-rule="evenodd" clip-rule="evenodd" d="M122.225 96V94.6667L119.563 92H115.569V93.3333L118.231 96H122.225Z" fill="url(#paint6_radial)"/>
<path fill-rule="evenodd" clip-rule="evenodd" d="M117.841 94.276C118.09 94.5253 118.43 94.6667 118.782 94.6667H122.225V96H118.782C118.43 96 118.09 95.8587 117.841 95.6093L115.569 93.3333V92L117.841 94.276Z" fill="#D3D3D3"/>
<defs>
<linearGradient id="paint0_linear" x1="54.333" y1="56" x2="54.333" y2="91.9756" gradientUnits="userSpaceOnUse">
<stop stop-color="#B1B1B1"/>
<stop offset="0.278382" stop-color="#C9C9C9"/>
<stop offset="0.514141" stop-color="#D6D6D6"/>
<stop offset="0.743587" stop-color="#C9C9C9"/>
<stop offset="0.953577" stop-color="#ECECEC"/>
<stop offset="0.999932" stop-color="#B1B1B1"/>
</linearGradient>
<linearGradient id="paint1_linear" x1="120.896" y1="56" x2="120.896" y2="91.9756" gradientUnits="userSpaceOnUse">
<stop stop-color="#B1B1B1"/>
<stop offset="0.278382" stop-color="#C9C9C9"/>
<stop offset="0.514141" stop-color="#D6D6D6"/>
<stop offset="0.743587" stop-color="#C9C9C9"/>
<stop offset="0.953577" stop-color="#ECECEC"/>
<stop offset="0.999932" stop-color="#B1B1B1"/>
</linearGradient>
<linearGradient id="paint2_linear" x1="82.9531" y1="2" x2="82.9531" y2="14" gradientUnits="userSpaceOnUse">
<stop stop-color="#EFEFEF"/>
<stop offset="0.506076" stop-color="white"/>
<stop offset="1" stop-color="#EFEFEF"/>
</linearGradient>
<linearGradient id="paint3_linear" x1="53.0101" y1="51.4062" x2="53.0101" y2="93.3216" gradientUnits="userSpaceOnUse">
<stop stop-color="#CFCFCF"/>
<stop offset="0.470308" stop-color="#F1F1F1"/>
<stop offset="0.999932" stop-color="#D9D9D9"/>
</linearGradient>
<linearGradient id="paint4_linear" x1="21.05" y1="33.3334" x2="52.245" y2="91.1765" gradientUnits="userSpaceOnUse">
<stop stop-color="white" stop-opacity="0.24"/>
<stop offset="1" stop-opacity="0.5"/>
</linearGradient>
<radialGradient id="paint5_radial" cx="0" cy="0" r="1" gradientUnits="userSpaceOnUse" gradientTransform="translate(62.5035 100.221) rotate(24.0092) scale(4.91541 3.819)">
<stop stop-color="#9C9C9C"/>
<stop offset="0.528236" stop-color="#E8E8E8"/>
<stop offset="1" stop-color="#E8E8E8"/>
</radialGradient>
<radialGradient id="paint6_radial" cx="0" cy="0" r="1" gradientUnits="userSpaceOnUse" gradientTransform="translate(119.747 100.221) rotate(24.0092) scale(4.91541 3.819)">
<stop stop-color="#9C9C9C"/>
<stop offset="0.528236" stop-color="#E8E8E8"/>
<stop offset="1" stop-color="#E8E8E8"/>
</radialGradient>
</defs>
</svg>
