<svg width="220" height="96" viewBox="0 0 220 96" fill="none" xmlns="http://www.w3.org/2000/svg">
<g clip-path="url(#clip0)">
<path d="M130.64 93.8399H89.0149C88.9647 93.8399 88.96 93.8399 88.96 93.6799V54.3199C88.96 54.2399 89.04 54.1599 89.12 54.1599H130.48C130.56 54.1599 130.64 54.2399 130.64 54.3199V93.5999C130.64 93.7792 130.64 93.8399 130.64 93.8399Z" fill="url(#paint0_linear)"/>
<path d="M153.04 43.1202H152.72V40.1602H153.04C153.12 40.1602 153.12 40.2402 153.12 40.2402V42.9602C153.12 43.0402 153.12 43.1202 153.04 43.1202Z" fill="#BBBDBF"/>
<path d="M153.04 46.5599H152.72V43.5999H153.04C153.12 43.5999 153.12 43.6799 153.12 43.6799V46.3999C153.12 46.4799 153.12 46.5599 153.04 46.5599Z" fill="#BBBDBF"/>
<path d="M153.04 49.4399H152.72V48.3999H153.04C153.12 48.3999 153.12 48.4799 153.12 48.4799V49.2799C153.12 49.3599 153.12 49.4399 153.04 49.4399Z" fill="#BBBDBF"/>
<path d="M108.72 0H108.08L108 0.08V0.24H108.8V0.08C108.72 0.08 108.72 0 108.72 0Z" fill="#BBBDBF"/>
<path d="M149.92 54.0799L69.6 54.1599C68.16 54.1599 66.96 52.9599 66.96 51.5199L66.88 3.1199C66.88 1.6799 68.08 0.479902 69.52 0.479902L149.84 0.399902C151.28 0.399902 152.48 1.5999 152.48 3.0399L152.56 51.4399C152.56 52.8799 151.36 54.0799 149.92 54.0799Z" fill="#231F20"/>
<path d="M69.6004 54.3805C68.0496 54.3805 66.7399 53.0703 66.7399 51.5203L66.6598 3.12033C66.6598 1.56953 67.9696 0.259767 69.52 0.259767L149.84 0.179688C151.39 0.179688 152.7 1.48945 152.7 3.03985L152.781 51.4398C152.781 52.9898 151.471 54.3 149.92 54.3L69.6004 54.3805ZM149.84 0.620327L69.5204 0.700407C68.2087 0.700407 67.1004 1.80865 67.1004 3.11993L67.1805 51.5203C67.1805 52.832 68.2888 53.9398 69.6 53.9398L149.92 53.8594C151.232 53.8594 152.34 52.7515 152.34 51.4398L152.259 3.04025C152.259 1.72849 151.152 0.620327 149.84 0.620327Z" fill="#D0D2D3"/>
<path d="M149.44 49.3938H70.2399C69.8243 49.3938 69.4859 49.0555 69.4859 48.6399V5.91994C69.4859 5.50434 69.8243 5.16602 70.2399 5.16602H149.44C149.855 5.16602 150.194 5.50434 150.194 5.91994V48.6399C150.194 49.0555 149.855 49.3938 149.44 49.3938ZM70.2399 5.23402C69.8617 5.23402 69.5539 5.54186 69.5539 5.91994V48.6399C69.5539 49.018 69.8618 49.3266 70.2399 49.3266H149.44C149.818 49.3266 150.127 49.018 150.127 48.6399V5.91994C150.127 5.54178 149.818 5.23402 149.44 5.23402H70.2399Z" fill="#231F20"/>
<path d="M130.614 94.4001L128.24 95.7601C128.157 95.798 128.08 95.8401 128 95.8401H91.6C91.5226 95.8401 91.4536 95.8117 91.36 95.7601L89.0055 94.4001V93.8401H130.56L130.614 94.4001Z" fill="url(#paint1_linear)"/>
<path d="M130.534 93.8401H89.0055V94.4001H130.534V93.8401Z" fill="url(#paint2_linear)"/>
<path d="M127.92 95.8401H91.84V96.0001H127.92V95.8401Z" fill="url(#paint3_linear)"/>
<path d="M109.84 3.92018C110.459 3.92018 110.96 3.41873 110.96 2.80018C110.96 2.18162 110.459 1.68018 109.84 1.68018C109.221 1.68018 108.72 2.18162 108.72 2.80018C108.72 3.41873 109.221 3.92018 109.84 3.92018Z" fill="#232323"/>
<path d="M109.84 3.52008C110.238 3.52008 110.56 3.19772 110.56 2.80008C110.56 2.40243 110.238 2.08008 109.84 2.08008C109.442 2.08008 109.12 2.40243 109.12 2.80008C109.12 3.19772 109.442 3.52008 109.84 3.52008Z" fill="#555C6D"/>
<path fill-rule="evenodd" clip-rule="evenodd" d="M149.6 49.36H69.84C69.68 49.36 69.52 49.2 69.52 49.04V5.51995C69.52 5.35995 69.68 5.19995 69.84 5.19995H149.84C150 5.19995 150.16 5.35995 150.16 5.51995V48.72C150.24 49.12 149.92 49.36 149.6 49.36Z" fill="#212222"/>
<path fill-rule="evenodd" clip-rule="evenodd" d="M149.6 49.36H69.84C69.68 49.36 69.52 49.2 69.52 49.04V5.51995C69.52 5.35995 69.68 5.19995 69.84 5.19995H149.84C150 5.19995 150.16 5.35995 150.16 5.51995V48.72C150.24 49.12 149.92 49.36 149.6 49.36Z" fill="url(#paint4_linear)"/>
<g opacity="0.56">
<g opacity="0.56">
<g opacity="0.56">
<g opacity="0.56">
<path opacity="0.56" d="M88.479 94.2605H129.999L130.034 95.8605H88.5135L88.479 94.2605Z" fill="url(#paint5_linear)"/>
</g>
</g>
</g>
</g>
<path fill-rule="evenodd" clip-rule="evenodd" d="M108.448 90.0742V88.9821H108.728V90.0742H108.448ZM110.992 89.2959C110.981 89.2926 110.89 89.2363 110.756 89.2363C110.573 89.2363 110.449 89.362 110.449 89.5307C110.449 89.693 110.57 89.8219 110.756 89.8219C110.887 89.8219 110.981 89.769 110.992 89.7624V90.0536C110.958 90.0668 110.86 90.0933 110.735 90.0933C110.422 90.0933 110.145 89.8783 110.145 89.5307C110.145 89.2031 110.395 88.9649 110.735 88.9649C110.867 88.9649 110.965 88.9947 110.992 89.0047V89.2959ZM108.063 89.2959C108.052 89.2926 107.961 89.2363 107.827 89.2363C107.645 89.2363 107.52 89.362 107.52 89.5307C107.52 89.693 107.641 89.8219 107.827 89.8219C107.958 89.8219 108.052 89.769 108.063 89.7624V90.0536C108.029 90.0668 107.935 90.0933 107.81 90.0933C107.493 90.0933 107.216 89.8783 107.216 89.5307C107.216 89.2031 107.466 88.9649 107.81 88.9649C107.941 88.9649 108.039 88.9947 108.063 89.0047V89.2959ZM112.464 89.5289C112.464 89.84 112.218 90.0948 111.874 90.0948C111.534 90.0948 111.288 89.84 111.288 89.5289C111.288 89.2179 111.534 88.9664 111.874 88.9664C112.218 88.9662 112.464 89.2177 112.464 89.5289ZM111.874 89.2409C111.709 89.2409 111.584 89.3733 111.584 89.5288C111.584 89.6877 111.709 89.8167 111.874 89.8167C112.043 89.8167 112.164 89.6876 112.164 89.5288C112.164 89.3733 112.043 89.2409 111.874 89.2409ZM109.795 89.2313C109.791 89.2313 109.674 89.1982 109.576 89.1982C109.461 89.1982 109.4 89.2346 109.4 89.2875C109.4 89.3538 109.485 89.3769 109.532 89.3902L109.606 89.4167C109.792 89.473 109.872 89.5953 109.872 89.7277C109.872 90.0024 109.63 90.0951 109.414 90.0951C109.262 90.0951 109.124 90.0653 109.107 90.062V89.8138C109.134 89.8204 109.252 89.8536 109.373 89.8536C109.515 89.8536 109.579 89.8138 109.579 89.7509C109.579 89.6979 109.522 89.6648 109.451 89.645C109.438 89.6383 109.411 89.6317 109.394 89.6252C109.235 89.5755 109.104 89.4861 109.104 89.3042C109.104 89.1024 109.262 88.9633 109.522 88.9633C109.657 88.9633 109.785 88.9964 109.795 88.9997L109.795 89.2313ZM106.92 87.8109V88.0955C106.92 88.1716 106.852 88.2345 106.778 88.2345C106.701 88.2345 106.64 88.1716 106.64 88.0955V87.8109C106.64 87.7348 106.701 87.6752 106.778 87.6752C106.852 87.6753 106.92 87.7348 106.92 87.8109ZM107.684 87.4344V88.0962C107.684 88.1724 107.62 88.2352 107.542 88.2352C107.468 88.2352 107.404 88.1724 107.404 88.0962V87.4344C107.404 87.3616 107.468 87.2986 107.542 87.2986C107.62 87.2987 107.684 87.3615 107.684 87.4344ZM108.449 86.9204V88.37C108.449 88.4428 108.385 88.5057 108.308 88.5057C108.234 88.5057 108.17 88.4428 108.17 88.37V86.9204C108.17 86.8443 108.234 86.7847 108.308 86.7847C108.385 86.7847 108.449 86.8443 108.449 86.9204ZM109.213 87.4344V88.0962C109.213 88.1724 109.149 88.2352 109.075 88.2352C108.998 88.2352 108.934 88.1724 108.934 88.0962V87.4344C108.934 87.3616 108.998 87.2986 109.075 87.2986C109.149 87.2987 109.213 87.3615 109.213 87.4344ZM109.979 87.8109V88.0955C109.979 88.1716 109.915 88.2345 109.837 88.2345C109.763 88.2345 109.699 88.1716 109.699 88.0955V87.8109C109.699 87.7348 109.763 87.6752 109.837 87.6752C109.915 87.6753 109.979 87.7348 109.979 87.8109ZM110.743 87.4344V88.0962C110.743 88.1724 110.679 88.2352 110.601 88.2352C110.527 88.2352 110.463 88.1724 110.463 88.0962V87.4344C110.463 87.3616 110.527 87.2986 110.601 87.2986C110.679 87.2987 110.743 87.3615 110.743 87.4344ZM111.509 86.9204V88.37C111.509 88.4428 111.448 88.5057 111.37 88.5057C111.293 88.5057 111.229 88.4428 111.229 88.37V86.9204C111.229 86.8443 111.293 86.7847 111.37 86.7847C111.448 86.7847 111.509 86.8443 111.509 86.9204ZM112.276 87.4344V88.0962C112.276 88.1724 112.212 88.2352 112.134 88.2352C112.057 88.2352 111.996 88.1724 111.996 88.0962V87.4344C111.996 87.3616 112.057 87.2986 112.134 87.2986C112.212 87.2987 112.276 87.3615 112.276 87.4344ZM113.04 87.8109V88.0955C113.04 88.1716 112.976 88.2345 112.902 88.2345C112.824 88.2345 112.76 88.1716 112.76 88.0955V87.8109C112.76 87.7348 112.824 87.6752 112.902 87.6752C112.976 87.6753 113.04 87.7348 113.04 87.8109Z" fill="white"/>
</g>
<defs>
<linearGradient id="paint0_linear" x1="88.96" y1="73.9999" x2="130.64" y2="73.9999" gradientUnits="userSpaceOnUse">
<stop stop-color="#808180"/>
<stop offset="0.0358" stop-color="#8B8C8B"/>
<stop offset="0.1249" stop-color="#A1A2A0"/>
<stop offset="0.2231" stop-color="#B0B1AF"/>
<stop offset="0.3365" stop-color="#B9BAB8"/>
<stop offset="0.5" stop-color="#BCBDBB"/>
<stop offset="0.7492" stop-color="#BABBB9"/>
<stop offset="0.8389" stop-color="#B3B4B2"/>
<stop offset="0.9029" stop-color="#A8A9A7"/>
<stop offset="0.9543" stop-color="#979896"/>
<stop offset="0.9981" stop-color="#818281"/>
<stop offset="1" stop-color="#808180"/>
</linearGradient>
<linearGradient id="paint1_linear" x1="89.0608" y1="94.8401" x2="130.669" y2="94.8401" gradientUnits="userSpaceOnUse">
<stop stop-color="#626363"/>
<stop offset="0.0386" stop-color="#6E6F6F"/>
<stop offset="0.1272" stop-color="#848584"/>
<stop offset="0.2248" stop-color="#939493"/>
<stop offset="0.3375" stop-color="#9C9D9C"/>
<stop offset="0.5" stop-color="#9FA09F"/>
<stop offset="0.7845" stop-color="#9D9E9D"/>
<stop offset="0.887" stop-color="#969796"/>
<stop offset="0.9598" stop-color="#8B8C8B"/>
<stop offset="1" stop-color="#808180"/>
</linearGradient>
<linearGradient id="paint2_linear" x1="89.0055" y1="94.1201" x2="130.534" y2="94.1201" gradientUnits="userSpaceOnUse">
<stop stop-color="#929493"/>
<stop offset="0.0441" stop-color="#A0A2A0"/>
<stop offset="0.1316" stop-color="#B6B7B4"/>
<stop offset="0.228" stop-color="#C5C5C3"/>
<stop offset="0.3394" stop-color="#CECECB"/>
<stop offset="0.5" stop-color="#D1D1CE"/>
<stop offset="0.7467" stop-color="#CFCFCC"/>
<stop offset="0.8356" stop-color="#C8C9C6"/>
<stop offset="0.899" stop-color="#BDBDBB"/>
<stop offset="0.9498" stop-color="#ACADAB"/>
<stop offset="0.9933" stop-color="#969897"/>
<stop offset="1" stop-color="#929493"/>
</linearGradient>
<linearGradient id="paint3_linear" x1="91.84" y1="95.9201" x2="127.92" y2="95.9201" gradientUnits="userSpaceOnUse">
<stop stop-color="#585959"/>
<stop offset="0.1731" stop-color="#5D5F5F"/>
<stop offset="0.5" stop-color="#606262"/>
<stop offset="0.8648" stop-color="#5E6060"/>
<stop offset="0.996" stop-color="#585959"/>
<stop offset="1" stop-color="#585959"/>
</linearGradient>
<linearGradient id="paint4_linear" x1="69.6592" y1="20.208" x2="136.818" y2="57.8419" gradientUnits="userSpaceOnUse">
<stop stop-color="white" stop-opacity="0.24"/>
<stop offset="1" stop-opacity="0.5"/>
</linearGradient>
<linearGradient id="paint5_linear" x1="109.256" y1="95.8605" x2="109.256" y2="94.2401" gradientUnits="userSpaceOnUse">
<stop stop-color="#454747"/>
<stop offset="0.196" stop-color="#4A4C4B" stop-opacity="0.804"/>
<stop offset="0.4149" stop-color="#575959" stop-opacity="0.5851"/>
<stop offset="0.6448" stop-color="#6D6F6E" stop-opacity="0.3552"/>
<stop offset="0.8809" stop-color="#8C8E8D" stop-opacity="0.1191"/>
<stop offset="1" stop-color="#9FA09F" stop-opacity="0"/>
</linearGradient>
<clipPath id="clip0">
<rect width="96" height="96" fill="white" transform="translate(62)"/>
</clipPath>
</defs>
</svg>
