<svg width="180" height="96" viewBox="0 0 180 96" fill="none" xmlns="http://www.w3.org/2000/svg">
<mask id="path-1-inside-1" fill="white">
<path fill-rule="evenodd" clip-rule="evenodd" d="M28.76 19C25.5788 19 23 21.5788 23 24.76V71.24C23 74.4212 25.5788 77 28.76 77H151.24C154.421 77 157 74.4212 157 71.24V24.76C157 21.5788 154.421 19 151.24 19H28.76ZM80.5619 44.1333C73.0877 44.1333 67.0286 50.1924 67.0286 57.6667C67.0286 65.1409 73.0876 71.2 80.5619 71.2H99.4381C106.912 71.2 112.971 65.1409 112.971 57.6667C112.971 50.1924 106.912 44.1333 99.4381 44.1333H80.5619Z"/>
</mask>
<path fill-rule="evenodd" clip-rule="evenodd" d="M28.76 19C25.5788 19 23 21.5788 23 24.76V71.24C23 74.4212 25.5788 77 28.76 77H151.24C154.421 77 157 74.4212 157 71.24V24.76C157 21.5788 154.421 19 151.24 19H28.76ZM80.5619 44.1333C73.0877 44.1333 67.0286 50.1924 67.0286 57.6667C67.0286 65.1409 73.0876 71.2 80.5619 71.2H99.4381C106.912 71.2 112.971 65.1409 112.971 57.6667C112.971 50.1924 106.912 44.1333 99.4381 44.1333H80.5619Z" fill="url(#paint0_linear)"/>
<path d="M23.5 24.76C23.5 21.855 25.855 19.5 28.76 19.5V18.5C25.3027 18.5 22.5 21.3027 22.5 24.76H23.5ZM23.5 71.24V24.76H22.5V71.24H23.5ZM28.76 76.5C25.855 76.5 23.5 74.145 23.5 71.24H22.5C22.5 74.6973 25.3027 77.5 28.76 77.5V76.5ZM151.24 76.5H28.76V77.5H151.24V76.5ZM156.5 71.24C156.5 74.145 154.145 76.5 151.24 76.5V77.5C154.697 77.5 157.5 74.6973 157.5 71.24H156.5ZM156.5 24.76V71.24H157.5V24.76H156.5ZM151.24 19.5C154.145 19.5 156.5 21.855 156.5 24.76H157.5C157.5 21.3027 154.697 18.5 151.24 18.5V19.5ZM28.76 19.5H151.24V18.5H28.76V19.5ZM67.5286 57.6667C67.5286 50.4686 73.3638 44.6333 80.5619 44.6333V43.6333C72.8115 43.6333 66.5286 49.9163 66.5286 57.6667H67.5286ZM80.5619 70.7C73.3638 70.7 67.5286 64.8648 67.5286 57.6667H66.5286C66.5286 65.4171 72.8115 71.7 80.5619 71.7V70.7ZM99.4381 70.7H80.5619V71.7H99.4381V70.7ZM112.471 57.6667C112.471 64.8648 106.636 70.7 99.4381 70.7V71.7C107.188 71.7 113.471 65.4171 113.471 57.6667H112.471ZM99.4381 44.6333C106.636 44.6333 112.471 50.4686 112.471 57.6667H113.471C113.471 49.9163 107.188 43.6333 99.4381 43.6333V44.6333ZM80.5619 44.6333H99.4381V43.6333H80.5619V44.6333Z" fill="black" fill-opacity="0.4" mask="url(#path-1-inside-1)"/>
<path fill-rule="evenodd" clip-rule="evenodd" d="M80.4286 42.2H99.5714V59.6H80.4286V42.2Z" fill="#323232"/>
<path d="M80.4286 41.95H80.1786V42.2V59.6V59.85H80.4286H99.5714H99.8214V59.6V42.2V41.95H99.5714H80.4286Z" stroke="white" stroke-opacity="0.8" stroke-width="0.5"/>
<g filter="url(#filter0_i)">
<rect x="66.0743" y="43.16" width="47.8514" height="29.0133" rx="14.4" stroke="url(#paint1_linear)" stroke-width="1.92"/>
<rect x="66.0743" y="43.16" width="47.8514" height="29.0133" rx="14.4" stroke="white" stroke-opacity="0.8" stroke-width="1.92"/>
</g>
<g filter="url(#filter1_d)">
<ellipse cx="90" cy="59.6" rx="11.4857" ry="11.6" fill="#323232"/>
<path d="M90 71.45C96.4838 71.45 101.736 66.1422 101.736 59.6C101.736 53.0578 96.4838 47.75 90 47.75C83.5162 47.75 78.2643 53.0578 78.2643 59.6C78.2643 66.1422 83.5162 71.45 90 71.45Z" stroke="white" stroke-opacity="0.6" stroke-width="0.5"/>
</g>
<ellipse cx="90" cy="59.6" rx="7.65714" ry="7.73333" fill="#00222C"/>
<path d="M97.4071 59.6C97.4071 63.7353 94.0885 67.0834 90 67.0834C85.9115 67.0834 82.5928 63.7353 82.5928 59.6C82.5928 55.4648 85.9115 52.1167 90 52.1167C94.0885 52.1167 97.4071 55.4648 97.4071 59.6Z" stroke="white" stroke-opacity="0.16" stroke-width="0.5"/>
<ellipse cx="90" cy="59.6001" rx="3.82857" ry="3.86667" fill="black"/>
<path d="M90 63.7167C92.2549 63.7167 94.0786 61.8713 94.0786 59.6001C94.0786 57.3288 92.2549 55.4834 90 55.4834C87.7452 55.4834 85.9214 57.3288 85.9214 59.6001C85.9214 61.8713 87.7452 63.7167 90 63.7167Z" stroke="white" stroke-opacity="0.230525" stroke-width="0.5"/>
<ellipse cx="147.429" cy="67.3332" rx="3.82857" ry="3.86667" fill="black" fill-opacity="0.08"/>
<ellipse cx="147.429" cy="67.3332" rx="1.91429" ry="1.93333" fill="black" fill-opacity="0.08"/>
<path d="M147.429 69.5166C148.626 69.5166 149.593 68.5367 149.593 67.3332C149.593 66.1298 148.626 65.1499 147.429 65.1499C146.231 65.1499 145.264 66.1298 145.264 67.3332C145.264 68.5367 146.231 69.5166 147.429 69.5166Z" stroke="white" stroke-opacity="0.4" stroke-width="0.5"/>
<path fill-rule="evenodd" clip-rule="evenodd" d="M87.4504 34.418H88.0434V31.8668H87.4504V34.418ZM92.8385 32.5997C92.8171 32.592 92.6242 32.4605 92.3384 32.4605C91.9526 32.4605 91.6883 32.7543 91.6883 33.1486C91.6883 33.5274 91.9455 33.8289 92.3384 33.8289C92.617 33.8289 92.8171 33.7052 92.8385 33.6898V34.3701C92.7671 34.401 92.5599 34.4629 92.2955 34.4629C91.6311 34.4629 91.0453 33.9604 91.0453 33.1486C91.0453 32.3832 91.574 31.8266 92.2955 31.8266C92.5742 31.8266 92.7813 31.8962 92.8385 31.9194V32.5997ZM86.6331 32.5997C86.6117 32.592 86.4188 32.4605 86.133 32.4605C85.7472 32.4605 85.4829 32.7543 85.4829 33.1486C85.4829 33.5274 85.7401 33.8289 86.133 33.8289C86.4117 33.8289 86.6117 33.7052 86.6331 33.6898V34.3701C86.5617 34.401 86.3616 34.4629 86.0973 34.4629C85.4258 34.4629 84.8399 33.9604 84.8399 33.1486C84.8399 32.3832 85.3686 31.8266 86.0973 31.8266C86.3759 31.8266 86.5831 31.8962 86.6331 31.9194V32.5997ZM94.7088 32.4714C94.3588 32.4714 94.0944 32.7806 94.0944 33.144C94.0944 33.515 94.3588 33.8166 94.7088 33.8166C95.066 33.8166 95.3232 33.515 95.3232 33.144C95.3232 32.7806 95.066 32.4714 94.7088 32.4714ZM95.959 33.144C95.959 33.8707 95.4375 34.466 94.7088 34.466C93.9873 34.466 93.4657 33.8707 93.4657 33.144C93.4657 32.4172 93.9873 31.8297 94.7088 31.8297C95.4375 31.8297 95.959 32.4172 95.959 33.144ZM90.303 32.4489C90.2959 32.4489 90.0459 32.3716 89.8387 32.3716C89.5958 32.3716 89.4672 32.4567 89.4672 32.5804C89.4672 32.735 89.6458 32.7891 89.7458 32.82L89.903 32.8819C90.2959 33.0133 90.4674 33.2993 90.4674 33.6086C90.4674 34.2503 89.953 34.4667 89.4958 34.4667C89.1743 34.4667 88.8814 34.3972 88.8457 34.3894V33.8096C88.9028 33.8251 89.1528 33.9024 89.41 33.9024C89.7101 33.9024 89.8458 33.8096 89.8458 33.6627C89.8458 33.539 89.7244 33.4617 89.5744 33.4153C89.5458 33.3999 89.4886 33.3844 89.4529 33.3689C89.1171 33.253 88.8385 33.0442 88.8385 32.619C88.8385 32.1474 89.1743 31.8227 89.7244 31.8227C90.0101 31.8227 90.2816 31.9 90.303 31.9078V32.4489ZM84.212 29.1308C84.212 28.953 84.0691 28.8138 83.9119 28.8138C83.7476 28.8138 83.619 28.953 83.619 29.1308V29.7957C83.619 29.9735 83.7476 30.1204 83.9119 30.1204C84.0691 30.1204 84.212 29.9735 84.212 29.7957V29.1308ZM85.8308 28.251C85.8308 28.0809 85.6951 27.934 85.5308 27.934C85.3736 27.934 85.2379 28.0809 85.2379 28.251V29.7972C85.2379 29.975 85.3736 30.1219 85.5308 30.1219C85.6951 30.1219 85.8308 29.975 85.8308 29.7972V28.251ZM87.4525 27.0504C87.4525 26.8726 87.3168 26.7334 87.1525 26.7334C86.9953 26.7334 86.8596 26.8726 86.8596 27.0504V30.4366C86.8596 30.6066 86.9953 30.7535 87.1525 30.7535C87.3168 30.7535 87.4525 30.6066 87.4525 30.4366V27.0504ZM89.0714 28.251C89.0714 28.0809 88.9357 27.934 88.7785 27.934C88.6142 27.934 88.4784 28.0809 88.4784 28.251V29.7972C88.4784 29.975 88.6142 30.1219 88.7785 30.1219C88.9357 30.1219 89.0714 29.975 89.0714 29.7972V28.251ZM90.6931 29.1308C90.6931 28.953 90.5574 28.8138 90.3931 28.8138C90.2359 28.8138 90.1002 28.953 90.1002 29.1308V29.7957C90.1002 29.9735 90.2359 30.1204 90.3931 30.1204C90.5574 30.1204 90.6931 29.9735 90.6931 29.7957V29.1308ZM92.312 28.251C92.312 28.0809 92.1762 27.934 92.0119 27.934C91.8548 27.934 91.719 28.0809 91.719 28.251V29.7972C91.719 29.975 91.8548 30.1219 92.0119 30.1219C92.1762 30.1219 92.312 29.975 92.312 29.7972V28.251ZM93.9344 27.0504C93.9344 26.8726 93.8058 26.7334 93.6415 26.7334C93.4772 26.7334 93.3414 26.8726 93.3414 27.0504V30.4366C93.3414 30.6066 93.4772 30.7535 93.6415 30.7535C93.8058 30.7535 93.9344 30.6066 93.9344 30.4366V27.0504ZM95.5597 28.251C95.5597 28.0809 95.4239 27.934 95.2596 27.934C95.0953 27.934 94.9667 28.0809 94.9667 28.251V29.7972C94.9667 29.975 95.0953 30.1219 95.2596 30.1219C95.4239 30.1219 95.5597 29.975 95.5597 29.7972V28.251ZM97.1785 29.1308C97.1785 28.953 97.0428 28.8138 96.8856 28.8138C96.7213 28.8138 96.5856 28.953 96.5856 29.1308V29.7957C96.5856 29.9735 96.7213 30.1204 96.8856 30.1204C97.0428 30.1204 97.1785 29.9735 97.1785 29.7957V29.1308Z" fill="#908E8E"/>
<defs>
<filter id="filter0_i" x="65.1143" y="42.2" width="49.7714" height="30.9333" filterUnits="userSpaceOnUse" color-interpolation-filters="sRGB">
<feFlood flood-opacity="0" result="BackgroundImageFix"/>
<feBlend mode="normal" in="SourceGraphic" in2="BackgroundImageFix" result="shape"/>
<feColorMatrix in="SourceAlpha" type="matrix" values="0 0 0 0 0 0 0 0 0 0 0 0 0 0 0 0 0 0 127 0" result="hardAlpha"/>
<feOffset dy="-4"/>
<feComposite in2="hardAlpha" operator="arithmetic" k2="-1" k3="1"/>
<feColorMatrix type="matrix" values="0 0 0 0 0 0 0 0 0 0 0 0 0 0 0 0 0 0 0.5 0"/>
<feBlend mode="normal" in2="shape" result="effect1_innerShadow"/>
</filter>
<filter id="filter1_d" x="78.0143" y="45.5" width="23.9714" height="26.2" filterUnits="userSpaceOnUse" color-interpolation-filters="sRGB">
<feFlood flood-opacity="0" result="BackgroundImageFix"/>
<feColorMatrix in="SourceAlpha" type="matrix" values="0 0 0 0 0 0 0 0 0 0 0 0 0 0 0 0 0 0 127 0"/>
<feOffset dy="-2"/>
<feColorMatrix type="matrix" values="0 0 0 0 1 0 0 0 0 1 0 0 0 0 1 0 0 0 0.8 0"/>
<feBlend mode="normal" in2="BackgroundImageFix" result="effect1_dropShadow"/>
<feBlend mode="normal" in="SourceGraphic" in2="effect1_dropShadow" result="shape"/>
</filter>
<linearGradient id="paint0_linear" x1="157" y1="77" x2="157" y2="19" gradientUnits="userSpaceOnUse">
<stop stop-color="#B9B9B9"/>
<stop offset="1" stop-color="#F2F2F2"/>
</linearGradient>
<linearGradient id="paint1_linear" x1="65.1143" y1="42.2" x2="65.1143" y2="73.1333" gradientUnits="userSpaceOnUse">
<stop stop-color="#F4F4F4"/>
<stop offset="1" stop-color="#EBEBEB"/>
</linearGradient>
</defs>
</svg>
