<svg width="220" height="96" viewBox="0 0 220 96" fill="none" xmlns="http://www.w3.org/2000/svg">
<rect x="46.25" y="8.25" width="127.5" height="80.5" rx="2.95" fill="#222222"/>
<rect x="46.25" y="8.25" width="127.5" height="80.5" rx="2.95" stroke="#DDDDDD" stroke-opacity="0.12" stroke-width="0.5"/>
<rect x="46.25" y="8.25" width="127.5" height="80.5" rx="2.95" stroke="black" stroke-width="0.5"/>
<rect x="46.25" y="8.25" width="127.5" height="80.5" rx="2.95" stroke="#979797" stroke-width="0.5"/>
<rect x="49.3684" y="14.75" width="121.263" height="67.5" rx="0.4" fill="#222222"/>
<rect x="49.3684" y="14.75" width="121.263" height="67.5" rx="0.4" fill="url(#paint0_linear)"/>
<rect x="46" y="8" width="128" height="81" rx="3.2" fill="url(#paint1_linear)" fill-opacity="0.8"/>
<path fill-rule="evenodd" clip-rule="evenodd" d="M158.335 85.0355C158.668 84.8683 159.036 84.7812 159.41 84.7812H169.411C169.852 84.7812 170.211 85.1394 170.211 85.5813V85.6687C170.211 86.1106 169.852 86.4688 169.411 86.4688H159.41C159.036 86.4688 158.668 86.3817 158.335 86.2145L157.515 85.8038C157.368 85.7301 157.368 85.5199 157.515 85.4462L158.335 85.0355Z" fill="white" fill-opacity="0.24"/>
<g filter="url(#filter0_i)">
<rect x="107.474" y="10.3623" width="4.63158" height="2.7" rx="0.8" fill="#535353"/>
<rect x="107.474" y="10.3623" width="4.63158" height="2.7" rx="0.8" fill="url(#paint2_angular)"/>
<rect x="107.474" y="10.3623" width="4.63158" height="2.7" rx="0.8" fill="url(#paint3_radial)"/>
<rect x="107.474" y="10.3623" width="4.63158" height="2.7" rx="0.8" fill="url(#paint4_radial)"/>
<rect x="107.474" y="10.3623" width="4.63158" height="2.7" rx="0.8" fill="white" fill-opacity="0.12"/>
</g>
<g filter="url(#filter1_i)">
<ellipse cx="109.789" cy="11.5859" rx="1.05263" ry="1.05469" fill="#242424"/>
<ellipse cx="109.789" cy="11.5859" rx="1.05263" ry="1.05469" fill="url(#paint5_radial)"/>
</g>
<path d="M110.592 11.5859C110.592 12.0308 110.232 12.3906 109.789 12.3906C109.347 12.3906 108.987 12.0308 108.987 11.5859C108.987 11.1411 109.347 10.7812 109.789 10.7812C110.232 10.7812 110.592 11.1411 110.592 11.5859Z" stroke="black" stroke-opacity="0.4" stroke-width="0.5"/>
<ellipse cx="109.789" cy="11.5859" rx="1.05263" ry="1.05469" fill="white" fill-opacity="0.08"/>
<g opacity="0.8">
<ellipse cx="110" cy="85.5406" rx="1.17895" ry="1.18125" fill="white" fill-opacity="0.24"/>
<path d="M111.079 85.5406C111.079 86.138 110.596 86.6219 110 86.6219C109.404 86.6219 108.921 86.138 108.921 85.5406C108.921 84.9433 109.404 84.4594 110 84.4594C110.596 84.4594 111.079 84.9433 111.079 85.5406Z" stroke="white" stroke-opacity="0.8" stroke-width="0.2"/>
</g>
<path fill-rule="evenodd" clip-rule="evenodd" d="M110 85.0029C109.938 85.0029 109.888 85.0572 109.888 85.1241C109.888 85.1909 109.938 85.2452 110 85.2452C110.062 85.2452 110.113 85.1909 110.113 85.1241C110.113 85.0572 110.062 85.0029 110 85.0029ZM109.588 85.0031C109.526 85.0031 109.475 85.0573 109.475 85.1242C109.475 85.1911 109.526 85.2453 109.588 85.2453C109.65 85.2453 109.7 85.1911 109.7 85.1242C109.7 85.0573 109.65 85.0031 109.588 85.0031ZM110.3 85.1241C110.3 85.0572 110.35 85.0029 110.412 85.0029C110.474 85.0029 110.525 85.0572 110.525 85.1241C110.525 85.1909 110.474 85.2452 110.412 85.2452C110.35 85.2452 110.3 85.1909 110.3 85.1241ZM109.588 85.4077C109.526 85.4077 109.475 85.462 109.475 85.5288C109.475 85.5957 109.526 85.65 109.588 85.65C109.65 85.65 109.7 85.5957 109.7 85.5288C109.7 85.462 109.65 85.4077 109.588 85.4077ZM109.888 85.5289C109.888 85.462 109.938 85.4077 110 85.4077C110.062 85.4077 110.113 85.462 110.113 85.5289C110.113 85.5957 110.062 85.65 110 85.65C109.938 85.65 109.888 85.5957 109.888 85.5289ZM110.412 85.4077C110.35 85.4077 110.3 85.462 110.3 85.5289C110.3 85.5957 110.35 85.65 110.412 85.65C110.474 85.65 110.525 85.5957 110.525 85.5289C110.525 85.462 110.474 85.4077 110.412 85.4077ZM109.475 85.9336C109.475 85.8667 109.526 85.8124 109.588 85.8124C109.65 85.8124 109.7 85.8667 109.7 85.9336C109.7 86.0004 109.65 86.0547 109.588 86.0547C109.526 86.0547 109.475 86.0004 109.475 85.9336ZM110 85.8125C109.938 85.8125 109.888 85.8668 109.888 85.9336C109.888 86.0005 109.938 86.0548 110 86.0548C110.062 86.0548 110.113 86.0005 110.113 85.9336C110.113 85.8668 110.062 85.8125 110 85.8125ZM110.3 85.9336C110.3 85.8668 110.35 85.8125 110.412 85.8125C110.474 85.8125 110.525 85.8668 110.525 85.9336C110.525 86.0005 110.474 86.0548 110.412 86.0548C110.35 86.0548 110.3 86.0005 110.3 85.9336Z" fill="white"/>
<defs>
<filter id="filter0_i" x="107.474" y="10.3623" width="4.63158" height="2.7" filterUnits="userSpaceOnUse" color-interpolation-filters="sRGB">
<feFlood flood-opacity="0" result="BackgroundImageFix"/>
<feBlend mode="normal" in="SourceGraphic" in2="BackgroundImageFix" result="shape"/>
<feColorMatrix in="SourceAlpha" type="matrix" values="0 0 0 0 0 0 0 0 0 0 0 0 0 0 0 0 0 0 127 0" result="hardAlpha"/>
<feOffset/>
<feGaussianBlur stdDeviation="0.5"/>
<feComposite in2="hardAlpha" operator="arithmetic" k2="-1" k3="1"/>
<feColorMatrix type="matrix" values="0 0 0 0 0 0 0 0 0 0 0 0 0 0 0 0 0 0 0.5 0"/>
<feBlend mode="normal" in2="shape" result="effect1_innerShadow"/>
</filter>
<filter id="filter1_i" x="108.737" y="10.5312" width="2.10526" height="2.10938" filterUnits="userSpaceOnUse" color-interpolation-filters="sRGB">
<feFlood flood-opacity="0" result="BackgroundImageFix"/>
<feBlend mode="normal" in="SourceGraphic" in2="BackgroundImageFix" result="shape"/>
<feColorMatrix in="SourceAlpha" type="matrix" values="0 0 0 0 0 0 0 0 0 0 0 0 0 0 0 0 0 0 127 0" result="hardAlpha"/>
<feOffset/>
<feGaussianBlur stdDeviation="0.5"/>
<feComposite in2="hardAlpha" operator="arithmetic" k2="-1" k3="1"/>
<feColorMatrix type="matrix" values="0 0 0 0 1 0 0 0 0 1 0 0 0 0 1 0 0 0 0.128114 0"/>
<feBlend mode="normal" in2="shape" result="effect1_innerShadow"/>
</filter>
<linearGradient id="paint0_linear" x1="-11.2632" y1="48.5" x2="46.1072" y2="151.565" gradientUnits="userSpaceOnUse">
<stop stop-color="white" stop-opacity="0.06"/>
<stop offset="1" stop-opacity="0.5"/>
</linearGradient>
<linearGradient id="paint1_linear" x1="-18" y1="48.5" x2="55.2018" y2="164.177" gradientUnits="userSpaceOnUse">
<stop stop-color="white" stop-opacity="0.2"/>
<stop offset="1" stop-opacity="0.5"/>
</linearGradient>
<radialGradient id="paint2_angular" cx="0" cy="0" r="1" gradientUnits="userSpaceOnUse" gradientTransform="translate(109.789 11.7123) scale(2.31579 1.35)">
<stop offset="0.0933668" stop-color="white" stop-opacity="0.24281"/>
<stop offset="0.430152" stop-color="#FDFDFD" stop-opacity="0.380774"/>
<stop offset="0.492251" stop-color="#181818" stop-opacity="0.280318"/>
<stop offset="0.640658" stop-opacity="0.133633"/>
<stop offset="1" stop-color="#080808" stop-opacity="0.175215"/>
</radialGradient>
<radialGradient id="paint3_radial" cx="0" cy="0" r="1" gradientUnits="userSpaceOnUse" gradientTransform="translate(109.789 11.4071) rotate(90) scale(1.65516 3.00904)">
<stop stop-color="white" stop-opacity="0.24448"/>
<stop offset="1" stop-opacity="0.0713032"/>
</radialGradient>
<radialGradient id="paint4_radial" cx="0" cy="0" r="1" gradientUnits="userSpaceOnUse" gradientTransform="translate(109.789 13.0623) rotate(90) scale(1.12627 4.18846)">
<stop stop-opacity="0.747424"/>
<stop offset="1" stop-opacity="0.0713032"/>
</radialGradient>
<radialGradient id="paint5_radial" cx="0" cy="0" r="1" gradientUnits="userSpaceOnUse" gradientTransform="translate(109.789 11.3164) rotate(180) scale(0.913034 0.544203)">
<stop offset="0.0383174" stop-color="white" stop-opacity="0.248896"/>
<stop offset="1" stop-color="white" stop-opacity="0.01"/>
</radialGradient>
</defs>
</svg>
