<svg width="200" height="72" viewBox="0 0 200 72" fill="none" xmlns="http://www.w3.org/2000/svg">
<circle opacity="0.25" cx="141" cy="48" r="24" fill="#FC9D03"/>
<path fill-rule="evenodd" clip-rule="evenodd" d="M151.691 53.314L142.927 38.4668C142.523 37.7834 141.802 37.375 141 37.375C140.197 37.375 139.477 37.7827 139.072 38.4668L130.309 53.3133C129.896 54.0118 129.897 54.8444 130.314 55.5415C130.719 56.2201 131.438 56.625 132.237 56.625H149.763C150.562 56.625 151.281 56.2201 151.686 55.5415C151.895 55.1929 151.999 54.8107 151.999 54.4277C152 54.0455 151.898 53.6626 151.691 53.314ZM141.062 42.875C141.477 42.875 141.812 43.2108 141.812 43.625V49C141.812 49.4142 141.477 49.75 141.062 49.75C140.648 49.75 140.312 49.4142 140.312 49V43.625C140.312 43.2108 140.648 42.875 141.062 42.875ZM141.062 52.625C141.477 52.625 141.812 52.2892 141.812 51.875C141.812 51.4608 141.477 51.125 141.062 51.125C140.648 51.125 140.312 51.4608 140.312 51.875C140.312 52.2892 140.648 52.625 141.062 52.625Z" fill="#D97F00"/>
<path fill-rule="evenodd" clip-rule="evenodd" d="M98.9263 4.04736C98.9263 3.77122 99.1501 3.54736 99.4263 3.54736H102.974C103.25 3.54736 103.474 3.77122 103.474 4.04736C103.474 4.32351 103.25 4.54736 102.974 4.54736H99.4263C99.1501 4.54736 98.9263 4.32351 98.9263 4.04736Z" fill="#D97F00"/>
<path d="M135.368 1H64C61.2386 1 59 3.23858 59 6.00001V48.5684C59 51.3298 61.2386 53.5684 64 53.5684H76V54.5684H64C60.6863 54.5684 58 51.8821 58 48.5684V6.00001C58 2.6863 60.6863 0 64 0H135.368C138.682 0 141.368 2.68629 141.368 6V24.0028C141.246 24.0009 141.123 24 141 24C140.789 24 140.578 24.0027 140.368 24.0081V6C140.368 3.23858 138.13 1 135.368 1Z" fill="#D97F00"/>
<path d="M117.649 53.5684H92V54.5684H117.91C117.816 54.2379 117.729 53.9045 117.649 53.5684Z" fill="#D97F00"/>
<path opacity="0.1" d="M62.2637 8.33984C61.1591 8.33984 60.2637 9.23527 60.2637 10.3398V45.5229C60.2637 46.6275 61.1591 47.5229 62.2637 47.5229H117.005C117.244 35.2481 126.699 25.2314 138.736 24.1052V10.3398C138.736 9.23527 137.841 8.33984 136.736 8.33984H62.2637Z" fill="#FFC14F"/>
<path fill-rule="evenodd" clip-rule="evenodd" d="M77.6392 49.7622C77.4437 49.567 77.4437 49.2504 77.6392 49.0551C81.0158 45.6831 86.4905 45.6831 89.8671 49.0551C90.0627 49.2504 90.0627 49.567 89.8671 49.7622C89.6716 49.9575 89.3546 49.9575 89.1591 49.7622C86.1735 46.7807 81.3329 46.7807 78.3473 49.7622C78.1517 49.9575 77.8347 49.9575 77.6392 49.7622Z" fill="#D97F00"/>
<path fill-rule="evenodd" clip-rule="evenodd" d="M73.6792 45.8077C73.4837 45.6124 73.4837 45.2958 73.6792 45.1005C79.2429 39.5444 88.2634 39.5444 93.8271 45.1005C94.0226 45.2958 94.0226 45.6124 93.8271 45.8077C93.6316 46.0029 93.3146 46.0029 93.119 45.8077C87.9464 40.642 79.5599 40.642 74.3873 45.8077C74.1918 46.0029 73.8748 46.0029 73.6792 45.8077Z" fill="#D97F00"/>
<path fill-rule="evenodd" clip-rule="evenodd" d="M69.7195 41.8531C69.5241 41.6577 69.5241 41.3409 69.7195 41.1455C77.465 33.4 90.0228 33.4 97.7683 41.1455C97.9637 41.3409 97.9637 41.6577 97.7683 41.8531C97.5729 42.0485 97.2561 42.0485 97.0607 41.8531C89.706 34.4984 77.7818 34.4984 70.4271 41.8531C70.2317 42.0485 69.9149 42.0485 69.7195 41.8531Z" fill="#D97F00"/>
<path d="M86.3646 54.2762C86.3646 55.6802 85.2249 56.8183 83.819 56.8183C82.4131 56.8183 81.2734 55.6802 81.2734 54.2762C81.2734 52.8723 82.4131 51.7341 83.819 51.7341C85.2249 51.7341 86.3646 52.8723 86.3646 54.2762Z" fill="#F7F7F7"/>
<path fill-rule="evenodd" clip-rule="evenodd" d="M83.819 55.8183C84.6718 55.8183 85.3632 55.1279 85.3632 54.2762C85.3632 53.4246 84.6718 52.7341 83.819 52.7341C82.9662 52.7341 82.2748 53.4246 82.2748 54.2762C82.2748 55.1279 82.9662 55.8183 83.819 55.8183ZM83.819 56.8183C85.2249 56.8183 86.3646 55.6802 86.3646 54.2762C86.3646 52.8723 85.2249 51.7341 83.819 51.7341C82.4131 51.7341 81.2734 52.8723 81.2734 54.2762C81.2734 55.6802 82.4131 56.8183 83.819 56.8183Z" fill="#D97F00"/>
</svg>
