<svg width="180" height="96" viewBox="0 0 180 96" fill="none" xmlns="http://www.w3.org/2000/svg">
<path fill-rule="evenodd" clip-rule="evenodd" d="M85.5063 8H93.4938V6H85.5063V8Z" fill="url(#paint0_linear)"/>
<path fill-rule="evenodd" clip-rule="evenodd" d="M93.4938 6.00016C93.4938 6.36816 91.7059 6.66683 89.5 6.66683C87.2941 6.66683 85.5063 6.36816 85.5063 6.00016C85.5063 5.63216 87.2941 5.3335 89.5 5.3335C91.7059 5.3335 93.4938 5.63216 93.4938 6.00016Z" fill="url(#paint1_linear)"/>
<path fill-rule="evenodd" clip-rule="evenodd" d="M92.1625 2.66667C92.1625 1.19467 90.9697 0 89.5 0C88.0303 0 86.8375 1.19467 86.8375 2.66667V4H92.1625V2.66667Z" fill="url(#paint2_linear)"/>
<path fill-rule="evenodd" clip-rule="evenodd" d="M65.4706 94.5124L66.7557 88.5267C66.8216 88.2195 67.0932 88 67.4075 88H110.348C110.621 88 110.866 88.1663 110.967 88.4198L113.396 94.5124H65.4706Z" fill="url(#paint3_radial)"/>
<path fill-rule="evenodd" clip-rule="evenodd" d="M65.5375 95.3332C65.5375 95.7014 65.836 95.9998 66.2042 95.9998H112.796C113.164 95.9998 113.463 95.7014 113.463 95.3332V94.6665H65.5375V95.3332Z" fill="#2F2F2F"/>
<path fill-rule="evenodd" clip-rule="evenodd" d="M84.175 90.6665H94.825V58.6665H84.175V90.6665Z" fill="url(#paint4_linear)"/>
<path fill-rule="evenodd" clip-rule="evenodd" d="M125.444 58.6667H53.5562C52.0865 58.6667 50.8937 57.472 50.8937 56V10.6667C50.8937 9.19467 52.0865 8 53.5562 8H125.444C126.913 8 128.106 9.19467 128.106 10.6667V56C128.106 57.472 126.913 58.6667 125.444 58.6667Z" fill="#E0E0E0"/>
<path fill-rule="evenodd" clip-rule="evenodd" d="M124.778 50.6665H54.2219C53.8544 50.6665 53.5562 50.3678 53.5562 49.9998V11.3332C53.5562 10.9652 53.8544 10.6665 54.2219 10.6665H124.778C125.146 10.6665 125.444 10.9652 125.444 11.3332V49.9998C125.444 50.3678 125.146 50.6665 124.778 50.6665Z" fill="#222222"/>
<path fill-rule="evenodd" clip-rule="evenodd" d="M124.778 50.6665H54.2219C53.8544 50.6665 53.5562 50.3678 53.5562 49.9998V11.3332C53.5562 10.9652 53.8544 10.6665 54.2219 10.6665H124.778C125.146 10.6665 125.444 10.9652 125.444 11.3332V49.9998C125.444 50.3678 125.146 50.6665 124.778 50.6665Z" fill="#222222"/>
<path fill-rule="evenodd" clip-rule="evenodd" d="M124.778 50.6665H54.2219C53.8544 50.6665 53.5562 50.3678 53.5562 49.9998V11.3332C53.5562 10.9652 53.8544 10.6665 54.2219 10.6665H124.778C125.146 10.6665 125.444 10.9652 125.444 11.3332V49.9998C125.444 50.3678 125.146 50.6665 124.778 50.6665Z" fill="url(#paint5_linear)"/>
<path fill-rule="evenodd" clip-rule="evenodd" d="M88.4378 55.8989H88.6366V55.0192H88.4378V55.8989ZM90.2445 55.2719C90.2373 55.2692 90.1726 55.2239 90.0768 55.2239C89.9475 55.2239 89.8588 55.3252 89.8588 55.4612C89.8588 55.5918 89.9451 55.6958 90.0768 55.6958C90.1702 55.6958 90.2373 55.6531 90.2445 55.6478V55.8824C90.2206 55.893 90.1511 55.9144 90.0624 55.9144C89.8397 55.9144 89.6432 55.7411 89.6432 55.4612C89.6432 55.1972 89.8205 55.0053 90.0624 55.0053C90.1559 55.0053 90.2253 55.0293 90.2445 55.0373V55.2719ZM88.1638 55.2719C88.1566 55.2692 88.0919 55.2239 87.9961 55.2239C87.8667 55.2239 87.7781 55.3252 87.7781 55.4612C87.7781 55.5918 87.8643 55.6958 87.9961 55.6958C88.0895 55.6958 88.1566 55.6531 88.1638 55.6478V55.8824C88.1398 55.893 88.0727 55.9144 87.9841 55.9144C87.7589 55.9144 87.5625 55.7411 87.5625 55.4612C87.5625 55.1972 87.7397 55.0053 87.9841 55.0053C88.0775 55.0053 88.147 55.0293 88.1638 55.0373V55.2719ZM90.8717 55.2276C90.7543 55.2276 90.6656 55.3343 90.6656 55.4596C90.6656 55.5875 90.7543 55.6915 90.8717 55.6915C90.9914 55.6915 91.0777 55.5875 91.0777 55.4596C91.0777 55.3343 90.9914 55.2276 90.8717 55.2276ZM91.2909 55.4596C91.2909 55.7102 91.116 55.9154 90.8717 55.9154C90.6297 55.9154 90.4548 55.7102 90.4548 55.4596C90.4548 55.209 90.6297 55.0064 90.8717 55.0064C91.116 55.0064 91.2909 55.209 91.2909 55.4596ZM89.3943 55.2199C89.3919 55.2199 89.3081 55.1932 89.2386 55.1932C89.1572 55.1932 89.1141 55.2226 89.1141 55.2652C89.1141 55.3185 89.1739 55.3372 89.2075 55.3479L89.2602 55.3692C89.3919 55.4145 89.4494 55.5131 89.4494 55.6198C89.4494 55.841 89.277 55.9157 89.1236 55.9157C89.0158 55.9157 88.9176 55.8917 88.9056 55.889V55.6891C88.9248 55.6944 89.0087 55.7211 89.0949 55.7211C89.1955 55.7211 89.241 55.6891 89.241 55.6384C89.241 55.5958 89.2003 55.5691 89.15 55.5531C89.1404 55.5478 89.1212 55.5425 89.1093 55.5371C88.9967 55.4971 88.9033 55.4252 88.9033 55.2785C88.9033 55.1159 89.0158 55.004 89.2003 55.004C89.2961 55.004 89.3871 55.0306 89.3943 55.0333V55.2199ZM87.3519 54.0757C87.3519 54.0144 87.304 53.9664 87.2513 53.9664C87.1962 53.9664 87.1531 54.0144 87.1531 54.0757V54.305C87.1531 54.3663 87.1962 54.4169 87.2513 54.4169C87.304 54.4169 87.3519 54.3663 87.3519 54.305V54.0757ZM87.8947 53.7723C87.8947 53.7137 87.8492 53.663 87.7941 53.663C87.7414 53.663 87.6959 53.7137 87.6959 53.7723V54.3055C87.6959 54.3668 87.7414 54.4175 87.7941 54.4175C87.8492 54.4175 87.8947 54.3668 87.8947 54.3055V53.7723ZM88.4385 53.3583C88.4385 53.297 88.393 53.249 88.3379 53.249C88.2852 53.249 88.2397 53.297 88.2397 53.3583V54.526C88.2397 54.5846 88.2852 54.6353 88.3379 54.6353C88.393 54.6353 88.4385 54.5846 88.4385 54.526V53.3583ZM88.9813 53.7723C88.9813 53.7137 88.9358 53.663 88.8831 53.663C88.828 53.663 88.7825 53.7137 88.7825 53.7723V54.3055C88.7825 54.3668 88.828 54.4175 88.8831 54.4175C88.9358 54.4175 88.9813 54.3668 88.9813 54.3055V53.7723ZM89.5251 54.0757C89.5251 54.0144 89.4796 53.9664 89.4245 53.9664C89.3718 53.9664 89.3263 54.0144 89.3263 54.0757V54.305C89.3263 54.3663 89.3718 54.4169 89.4245 54.4169C89.4796 54.4169 89.5251 54.3663 89.5251 54.305V54.0757ZM90.068 53.7723C90.068 53.7137 90.0224 53.663 89.9673 53.663C89.9146 53.663 89.8691 53.7137 89.8691 53.7723V54.3055C89.8691 54.3668 89.9146 54.4175 89.9673 54.4175C90.0224 54.4175 90.068 54.3668 90.068 54.3055V53.7723ZM90.612 53.3583C90.612 53.297 90.5689 53.249 90.5138 53.249C90.4587 53.249 90.4132 53.297 90.4132 53.3583V54.526C90.4132 54.5846 90.4587 54.6353 90.5138 54.6353C90.5689 54.6353 90.612 54.5846 90.612 54.526V53.3583ZM91.157 53.7723C91.157 53.7137 91.1115 53.663 91.0564 53.663C91.0013 53.663 90.9581 53.7137 90.9581 53.7723V54.3055C90.9581 54.3668 91.0013 54.4175 91.0564 54.4175C91.1115 54.4175 91.157 54.3668 91.157 54.3055V53.7723ZM91.6998 54.0757C91.6998 54.0144 91.6543 53.9664 91.6016 53.9664C91.5465 53.9664 91.501 54.0144 91.501 54.0757V54.305C91.501 54.3663 91.5465 54.4169 91.6016 54.4169C91.6543 54.4169 91.6998 54.3663 91.6998 54.305V54.0757Z" fill="#908E8E"/>
<path fill-rule="evenodd" clip-rule="evenodd" d="M92.1625 4.00016C92.1625 2.52816 90.9697 1.3335 89.5 1.3335C88.0303 1.3335 86.8375 2.52816 86.8375 4.00016C86.8375 5.47216 88.0303 6.66683 89.5 6.66683C90.9697 6.66683 92.1625 5.47216 92.1625 4.00016Z" fill="#232323"/>
<path fill-rule="evenodd" clip-rule="evenodd" d="M90.8312 3.99984C90.8312 3.26384 90.2348 2.6665 89.5 2.6665C88.7651 2.6665 88.1687 3.26384 88.1687 3.99984C88.1687 4.73584 88.7651 5.33317 89.5 5.33317C90.2348 5.33317 90.8312 4.73584 90.8312 3.99984Z" fill="#373B47"/>
<defs>
<linearGradient id="paint0_linear" x1="85.5063" y1="9" x2="93.4938" y2="9" gradientUnits="userSpaceOnUse">
<stop stop-color="#DFDFDF"/>
<stop offset="1" stop-color="#6F6F6F"/>
</linearGradient>
<linearGradient id="paint1_linear" x1="87.5031" y1="5.55355" x2="87.6073" y2="6.49927" gradientUnits="userSpaceOnUse">
<stop stop-color="#F6F6F6"/>
<stop offset="1" stop-color="#969696"/>
</linearGradient>
<linearGradient id="paint2_linear" x1="86.8375" y1="2.10947" x2="92.1625" y2="2.10947" gradientUnits="userSpaceOnUse">
<stop stop-color="#B4B4B4"/>
<stop offset="0.264038" stop-color="#F5F5F5"/>
<stop offset="0.664246" stop-color="#CCCCCC"/>
<stop offset="1" stop-color="#808080"/>
</linearGradient>
<radialGradient id="paint3_radial" cx="0" cy="0" r="1" gradientUnits="userSpaceOnUse" gradientTransform="translate(95.5556 101.384) rotate(5.75146) scale(32.4925 6.77232)">
<stop stop-color="#9C9C9C"/>
<stop offset="0.528236" stop-color="#E8E8E8"/>
<stop offset="1" stop-color="#E8E8E8"/>
</radialGradient>
<linearGradient id="paint4_linear" x1="84.1753" y1="58.6665" x2="84.1753" y2="90.6643" gradientUnits="userSpaceOnUse">
<stop stop-color="#CFCFCF"/>
<stop offset="0.278382" stop-color="#D9D9D9"/>
<stop offset="0.514141" stop-color="#DFDFDF"/>
<stop offset="0.753319" stop-color="#D6D6D6"/>
<stop offset="0.999932" stop-color="#C0C0C0"/>
</linearGradient>
<linearGradient id="paint5_linear" x1="17.6125" y1="30.6665" x2="51.6028" y2="91.7534" gradientUnits="userSpaceOnUse">
<stop stop-color="white" stop-opacity="0.24"/>
<stop offset="1" stop-opacity="0.5"/>
</linearGradient>
</defs>
</svg>
