<?xml version="1.0" encoding="UTF-8"?>
<svg width="104px" height="104px" viewBox="0 0 104 104" version="1.1" xmlns="http://www.w3.org/2000/svg" xmlns:xlink="http://www.w3.org/1999/xlink">
    <!-- Generator: Sketch 52.2 (67145) - http://www.bohemiancoding.com/sketch -->
    <title>img_handset_104@1x</title>
    <desc>Created with Sketch.</desc>
    <g id="img_handset_104" stroke="none" stroke-width="1" fill="none" fill-rule="evenodd">
        <g id="Announcment-1.0" transform="translate(-669.000000, -257.000000)">
            <g id="Dialog" transform="translate(174.000000, 128.000000)">
                <g id="dialog" transform="translate(246.000000, 63.000000)">
                    <g id="form" transform="translate(69.000000, 66.000000)">
                        <g id="img_handset_104" transform="translate(180.000000, 0.000000)">
                            <path d="M52,104 C23.327,104 0,80.673 0,52 C0,23.327 23.327,0 52,0 C52.276,0 52.5,0.224 52.5,0.5 C52.5,0.776 52.276,1 52,1 C23.879,1 1,23.879 1,52 C1,80.121 23.879,103 52,103 C80.121,103 103,80.121 103,52 C103,51.724 103.224,51.5 103.5,51.5 C103.776,51.5 104,51.724 104,52 C104,80.673 80.673,104 52,104" id="Fill-1" fill="#9F9F9F"></path>
                            <path d="M97,52 C97,76.853 76.853,97 52,97 C27.147,97 7,76.853 7,52 C7,27.147 27.147,7 52,7 C76.853,7 97,27.147 97,52" id="Fill-3" fill="#2ED557"></path>
                            <path d="M39.1992,36.8887 C38.4792,36.8887 37.8132,37.2147 37.3712,37.7837 C36.9362,38.3417 36.7862,39.0547 36.9592,39.7377 C38.3112,45.0627 42.1482,51.1777 47.4852,56.5147 C52.8212,61.8507 58.9362,65.6867 64.2622,67.0407 C64.9492,67.2147 65.6592,67.0627 66.2172,66.6287 C66.7852,66.1867 67.1112,65.5207 67.1112,64.8007 L67.1112,61.2107 C67.1112,59.9257 66.3472,58.7657 65.1672,58.2577 L62.0132,56.9027 C60.8942,56.4227 59.6272,56.4577 58.5352,57.0027 L56.7392,57.9017 C55.9492,58.2987 54.9862,58.1917 54.2882,57.6317 C51.2292,55.1757 48.3292,52.2957 46.3322,49.7297 C45.7822,49.0207 45.6862,48.0877 46.0832,47.2937 L46.9972,45.4647 C47.5432,44.3757 47.5802,43.1077 47.0972,41.9877 L45.7422,38.8327 C45.2342,37.6527 44.0742,36.8887 42.7892,36.8887 L39.1992,36.8887 Z M64.8252,67.9997 C64.5652,67.9997 64.3032,67.9677 64.0442,67.9027 C58.5662,66.5107 52.3022,62.5887 46.8562,57.1437 C41.4102,51.6967 37.4882,45.4327 36.0972,39.9557 C35.8562,39.0047 36.0652,38.0137 36.6702,37.2377 C37.2822,36.4507 38.2032,35.9997 39.1992,35.9997 L42.7892,35.9997 C44.4302,35.9997 45.9102,36.9747 46.5582,38.4827 L47.9142,41.6367 C48.5002,42.9977 48.4562,44.5387 47.7932,45.8637 L46.8792,47.6917 C46.6362,48.1757 46.6952,48.7477 47.0342,49.1837 C48.9902,51.6987 51.8372,54.5257 54.8452,56.9397 C55.2712,57.2827 55.8602,57.3477 56.3422,57.1057 L58.1372,56.2067 C59.4642,55.5437 61.0042,55.4997 62.3642,56.0857 L65.5172,57.4417 C67.0252,58.0897 68.0002,59.5697 68.0002,61.2107 L68.0002,64.8007 C68.0002,65.7967 67.5502,66.7177 66.7622,67.3297 C66.1982,67.7697 65.5192,67.9997 64.8252,67.9997 Z" id="Fill-5" fill="#FFFFFF"></path>
                        </g>
                    </g>
                </g>
            </g>
        </g>
    </g>
</svg>