<svg width="180" height="96" viewBox="0 0 180 96" fill="none" xmlns="http://www.w3.org/2000/svg">
<rect x="29.5" y="9.5" width="121" height="76" rx="2.7" fill="#222222"/>
<rect x="29.5" y="9.5" width="121" height="76" rx="2.7" stroke="#DDDDDD" stroke-opacity="0.12"/>
<rect x="29.5" y="9.5" width="121" height="76" rx="2.7" stroke="black"/>
<rect x="29.5" y="9.5" width="121" height="76" rx="2.7" stroke="#979797"/>
<rect x="32.2105" y="15.4165" width="115.579" height="64.1667" rx="0.4" fill="#222222"/>
<rect x="32.2105" y="15.4165" width="115.579" height="64.1667" rx="0.4" fill="url(#paint0_linear)"/>
<rect x="29" y="9" width="122" height="77" rx="3.2" fill="url(#paint1_linear)"/>
<path fill-rule="evenodd" clip-rule="evenodd" d="M136.046 82.2428C136.379 82.0764 136.746 81.9897 137.119 81.9897H146.588C147.03 81.9897 147.388 82.35 147.388 82.7918C147.388 83.2337 147.03 83.5939 146.588 83.5939H137.119C136.746 83.5939 136.379 83.5073 136.046 83.3408L135.305 82.9707C135.158 82.8971 135.158 82.6866 135.305 82.6129L136.046 82.2428Z" fill="white" fill-opacity="0.24"/>
<g filter="url(#filter0_i)">
<rect x="87.5921" y="11.2456" width="4.41447" height="2.56667" rx="0.8" fill="#535353"/>
<rect x="87.5921" y="11.2456" width="4.41447" height="2.56667" rx="0.8" fill="url(#paint2_angular)"/>
<rect x="87.5921" y="11.2456" width="4.41447" height="2.56667" rx="0.8" fill="url(#paint3_radial)"/>
<rect x="87.5921" y="11.2456" width="4.41447" height="2.56667" rx="0.8" fill="url(#paint4_radial)"/>
<rect x="87.5921" y="11.2456" width="4.41447" height="2.56667" rx="0.8" fill="white" fill-opacity="0.12"/>
</g>
<g filter="url(#filter1_i)">
<ellipse cx="89.7993" cy="12.4089" rx="1.00329" ry="1.0026" fill="#242424"/>
<ellipse cx="89.7993" cy="12.4089" rx="1.00329" ry="1.0026" fill="url(#paint5_radial)"/>
</g>
<path d="M90.5526 12.4089C90.5526 12.8243 90.2155 13.1615 89.7993 13.1615C89.3831 13.1615 89.0461 12.8243 89.0461 12.4089C89.0461 11.9934 89.3831 11.6562 89.7993 11.6562C90.2155 11.6562 90.5526 11.9934 90.5526 12.4089Z" stroke="black" stroke-opacity="0.4" stroke-width="0.5"/>
<ellipse cx="89.7993" cy="12.4089" rx="1.00329" ry="1.0026" fill="white" fill-opacity="0.08"/>
<ellipse cx="90" cy="82.7113" rx="1.12368" ry="1.12292" fill="white" fill-opacity="0.24"/>
<path d="M90.8737 82.7113C90.8737 83.1932 90.4827 83.5842 90 83.5842C89.5173 83.5842 89.1263 83.1932 89.1263 82.7113C89.1263 82.2294 89.5173 81.8384 90 81.8384C90.4827 81.8384 90.8737 82.2294 90.8737 82.7113Z" stroke="white" stroke-opacity="0.8" stroke-width="0.5"/>
<path fill-rule="evenodd" clip-rule="evenodd" d="M89.6255 82.3105C89.5664 82.3105 89.5184 82.3621 89.5184 82.4257C89.5184 82.4893 89.5664 82.5409 89.6255 82.5409C89.6846 82.5409 89.7326 82.4893 89.7326 82.4257C89.7326 82.3621 89.6846 82.3105 89.6255 82.3105ZM90.0186 82.3105C89.9595 82.3105 89.9116 82.3621 89.9116 82.4257C89.9116 82.4893 89.9595 82.5409 90.0186 82.5409C90.0777 82.5409 90.1257 82.4893 90.1257 82.4257C90.1257 82.3621 90.0777 82.3105 90.0186 82.3105ZM90.3043 82.4257C90.3043 82.3621 90.3523 82.3105 90.4114 82.3105C90.4705 82.3105 90.5184 82.3621 90.5184 82.4257C90.5184 82.4893 90.4705 82.5409 90.4114 82.5409C90.3523 82.5409 90.3043 82.4893 90.3043 82.4257ZM89.6255 82.6952C89.5664 82.6952 89.5184 82.7468 89.5184 82.8103C89.5184 82.8739 89.5664 82.9255 89.6255 82.9255C89.6846 82.9255 89.7326 82.8739 89.7326 82.8103C89.7326 82.7468 89.6846 82.6952 89.6255 82.6952ZM89.9116 82.8103C89.9116 82.7468 89.9595 82.6952 90.0186 82.6952C90.0777 82.6952 90.1257 82.7468 90.1257 82.8103C90.1257 82.8739 90.0777 82.9255 90.0186 82.9255C89.9595 82.9255 89.9116 82.8739 89.9116 82.8103ZM90.4114 82.6952C90.3523 82.6952 90.3043 82.7468 90.3043 82.8103C90.3043 82.8739 90.3523 82.9255 90.4114 82.9255C90.4705 82.9255 90.5184 82.8739 90.5184 82.8103C90.5184 82.7468 90.4705 82.6952 90.4114 82.6952ZM89.5184 83.1954C89.5184 83.1318 89.5664 83.0802 89.6255 83.0802C89.6846 83.0802 89.7326 83.1318 89.7326 83.1954C89.7326 83.259 89.6846 83.3105 89.6255 83.3105C89.5664 83.3105 89.5184 83.259 89.5184 83.1954ZM90.0186 83.0802C89.9595 83.0802 89.9116 83.1318 89.9116 83.1954C89.9116 83.259 89.9595 83.3105 90.0186 83.3105C90.0777 83.3105 90.1257 83.259 90.1257 83.1954C90.1257 83.1318 90.0777 83.0802 90.0186 83.0802ZM90.3043 83.1954C90.3043 83.1318 90.3523 83.0802 90.4114 83.0802C90.4705 83.0802 90.5184 83.1318 90.5184 83.1954C90.5184 83.259 90.4705 83.3105 90.4114 83.3105C90.3523 83.3105 90.3043 83.259 90.3043 83.1954Z" fill="white"/>
<defs>
<filter id="filter0_i" x="87.5921" y="11.2456" width="4.41447" height="2.56667" filterUnits="userSpaceOnUse" color-interpolation-filters="sRGB">
<feFlood flood-opacity="0" result="BackgroundImageFix"/>
<feBlend mode="normal" in="SourceGraphic" in2="BackgroundImageFix" result="shape"/>
<feColorMatrix in="SourceAlpha" type="matrix" values="0 0 0 0 0 0 0 0 0 0 0 0 0 0 0 0 0 0 127 0" result="hardAlpha"/>
<feOffset/>
<feGaussianBlur stdDeviation="0.5"/>
<feComposite in2="hardAlpha" operator="arithmetic" k2="-1" k3="1"/>
<feColorMatrix type="matrix" values="0 0 0 0 0 0 0 0 0 0 0 0 0 0 0 0 0 0 0.5 0"/>
<feBlend mode="normal" in2="shape" result="effect1_innerShadow"/>
</filter>
<filter id="filter1_i" x="88.7961" y="11.4062" width="2.00658" height="2.00521" filterUnits="userSpaceOnUse" color-interpolation-filters="sRGB">
<feFlood flood-opacity="0" result="BackgroundImageFix"/>
<feBlend mode="normal" in="SourceGraphic" in2="BackgroundImageFix" result="shape"/>
<feColorMatrix in="SourceAlpha" type="matrix" values="0 0 0 0 0 0 0 0 0 0 0 0 0 0 0 0 0 0 127 0" result="hardAlpha"/>
<feOffset/>
<feGaussianBlur stdDeviation="0.5"/>
<feComposite in2="hardAlpha" operator="arithmetic" k2="-1" k3="1"/>
<feColorMatrix type="matrix" values="0 0 0 0 1 0 0 0 0 1 0 0 0 0 1 0 0 0 0.128114 0"/>
<feBlend mode="normal" in2="shape" result="effect1_innerShadow"/>
</filter>
<linearGradient id="paint0_linear" x1="-25.5789" y1="47.4998" x2="28.8825" y2="145.597" gradientUnits="userSpaceOnUse">
<stop stop-color="white" stop-opacity="0.06"/>
<stop offset="1" stop-opacity="0.5"/>
</linearGradient>
<linearGradient id="paint1_linear" x1="-32" y1="47.5" x2="37.5083" y2="157.63" gradientUnits="userSpaceOnUse">
<stop stop-color="white" stop-opacity="0.2"/>
<stop offset="1" stop-opacity="0.5"/>
</linearGradient>
<radialGradient id="paint2_angular" cx="0" cy="0" r="1" gradientUnits="userSpaceOnUse" gradientTransform="translate(89.7993 12.5289) scale(2.20724 1.28333)">
<stop offset="0.0933668" stop-color="white" stop-opacity="0.24281"/>
<stop offset="0.430152" stop-color="#FDFDFD" stop-opacity="0.380774"/>
<stop offset="0.492251" stop-color="#181818" stop-opacity="0.280318"/>
<stop offset="0.640658" stop-opacity="0.133633"/>
<stop offset="1" stop-color="#080808" stop-opacity="0.175215"/>
</radialGradient>
<radialGradient id="paint3_radial" cx="0" cy="0" r="1" gradientUnits="userSpaceOnUse" gradientTransform="translate(89.7993 12.2388) rotate(90) scale(1.57342 2.868)">
<stop stop-color="white" stop-opacity="0.24448"/>
<stop offset="1" stop-opacity="0.0713032"/>
</radialGradient>
<radialGradient id="paint4_radial" cx="0" cy="0" r="1" gradientUnits="userSpaceOnUse" gradientTransform="translate(89.7993 13.8123) rotate(90) scale(1.07065 3.99213)">
<stop stop-opacity="0.747424"/>
<stop offset="1" stop-opacity="0.0713032"/>
</radialGradient>
<radialGradient id="paint5_radial" cx="0" cy="0" r="1" gradientUnits="userSpaceOnUse" gradientTransform="translate(89.7993 12.1526) rotate(180) scale(0.870236 0.517329)">
<stop offset="0.0383174" stop-color="white" stop-opacity="0.248896"/>
<stop offset="1" stop-color="white" stop-opacity="0.01"/>
</radialGradient>
</defs>
</svg>
