<svg width="180" height="96" viewBox="0 0 180 96" fill="none" xmlns="http://www.w3.org/2000/svg">
<g filter="url(#filter0_ii)">
<path fill-rule="evenodd" clip-rule="evenodd" d="M131.2 95.9998H48.6625C47.1928 95.9998 46 94.8571 46 93.4491V66.6665H133.863V93.4491C133.863 94.8571 132.67 95.9998 131.2 95.9998Z" fill="#E0E0E0"/>
</g>
<path fill-rule="evenodd" clip-rule="evenodd" d="M88.5535 93.3166H88.7523V92.4369H88.5535V93.3166ZM90.3602 92.6896C90.353 92.6869 90.2883 92.6416 90.1925 92.6416C90.0631 92.6416 89.9745 92.7429 89.9745 92.8789C89.9745 93.0095 90.0607 93.1135 90.1925 93.1135C90.2859 93.1135 90.353 93.0708 90.3602 93.0655V93.3001C90.3362 93.3108 90.2667 93.3321 90.1781 93.3321C89.9553 93.3321 89.7589 93.1588 89.7589 92.8789C89.7589 92.615 89.9362 92.423 90.1781 92.423C90.2715 92.423 90.341 92.447 90.3602 92.455V92.6896ZM88.2794 92.6896C88.2722 92.6869 88.2075 92.6416 88.1117 92.6416C87.9824 92.6416 87.8937 92.7429 87.8937 92.8789C87.8937 93.0095 87.98 93.1135 88.1117 93.1135C88.2052 93.1135 88.2722 93.0708 88.2794 93.0655V93.3001C88.2555 93.3108 88.1884 93.3321 88.0997 93.3321C87.8746 93.3321 87.6781 93.1588 87.6781 92.8789C87.6781 92.615 87.8554 92.423 88.0997 92.423C88.1932 92.423 88.2626 92.447 88.2794 92.455V92.6896ZM90.9873 92.6454C90.8699 92.6454 90.7813 92.752 90.7813 92.8773C90.7813 93.0052 90.8699 93.1092 90.9873 93.1092C91.1071 93.1092 91.1933 93.0052 91.1933 92.8773C91.1933 92.752 91.1071 92.6454 90.9873 92.6454ZM91.4065 92.8773C91.4065 93.1279 91.2317 93.3331 90.9873 93.3331C90.7454 93.3331 90.5705 93.1279 90.5705 92.8773C90.5705 92.6267 90.7454 92.4241 90.9873 92.4241C91.2317 92.4241 91.4065 92.6267 91.4065 92.8773ZM89.51 92.6376C89.5076 92.6376 89.4238 92.611 89.3543 92.611C89.2728 92.611 89.2297 92.6403 89.2297 92.6829C89.2297 92.7363 89.2896 92.7549 89.3231 92.7656L89.3758 92.7869C89.5076 92.8322 89.5651 92.9309 89.5651 93.0375C89.5651 93.2588 89.3926 93.3334 89.2393 93.3334C89.1315 93.3334 89.0333 93.3094 89.0213 93.3068V93.1068C89.0405 93.1121 89.1243 93.1388 89.2106 93.1388C89.3112 93.1388 89.3567 93.1068 89.3567 93.0562C89.3567 93.0135 89.316 92.9869 89.2657 92.9709C89.2561 92.9655 89.2369 92.9602 89.2249 92.9549C89.1123 92.9149 89.0189 92.8429 89.0189 92.6963C89.0189 92.5337 89.1315 92.4217 89.316 92.4217C89.4118 92.4217 89.5028 92.4483 89.51 92.451V92.6376ZM87.4676 91.4934C87.4676 91.4321 87.4197 91.3841 87.367 91.3841C87.3119 91.3841 87.2687 91.4321 87.2687 91.4934V91.7227C87.2687 91.784 87.3119 91.8347 87.367 91.8347C87.4197 91.8347 87.4676 91.784 87.4676 91.7227V91.4934ZM88.0104 91.1901C88.0104 91.1314 87.9649 91.0808 87.9098 91.0808C87.8571 91.0808 87.8116 91.1314 87.8116 91.1901V91.7232C87.8116 91.7845 87.8571 91.8352 87.9098 91.8352C87.9649 91.8352 88.0104 91.7845 88.0104 91.7232V91.1901ZM88.5542 90.776C88.5542 90.7147 88.5087 90.6667 88.4536 90.6667C88.4009 90.6667 88.3554 90.7147 88.3554 90.776V91.9437C88.3554 92.0023 88.4009 92.053 88.4536 92.053C88.5087 92.053 88.5542 92.0023 88.5542 91.9437V90.776ZM89.097 91.1901C89.097 91.1314 89.0515 91.0808 88.9988 91.0808C88.9437 91.0808 88.8982 91.1314 88.8982 91.1901V91.7232C88.8982 91.7845 88.9437 91.8352 88.9988 91.8352C89.0515 91.8352 89.097 91.7845 89.097 91.7232V91.1901ZM89.6408 91.4934C89.6408 91.4321 89.5953 91.3841 89.5402 91.3841C89.4875 91.3841 89.442 91.4321 89.442 91.4934V91.7227C89.442 91.784 89.4875 91.8347 89.5402 91.8347C89.5953 91.8347 89.6408 91.784 89.6408 91.7227V91.4934ZM90.1836 91.1901C90.1836 91.1314 90.1381 91.0808 90.083 91.0808C90.0303 91.0808 89.9848 91.1314 89.9848 91.1901V91.7232C89.9848 91.7845 90.0303 91.8352 90.083 91.8352C90.1381 91.8352 90.1836 91.7845 90.1836 91.7232V91.1901ZM90.7276 90.776C90.7276 90.7147 90.6845 90.6667 90.6294 90.6667C90.5743 90.6667 90.5288 90.7147 90.5288 90.776V91.9437C90.5288 92.0023 90.5743 92.053 90.6294 92.053C90.6845 92.053 90.7276 92.0023 90.7276 91.9437V90.776ZM91.2726 91.1901C91.2726 91.1314 91.2271 91.0808 91.172 91.0808C91.1169 91.0808 91.0738 91.1314 91.0738 91.1901V91.7232C91.0738 91.7845 91.1169 91.8352 91.172 91.8352C91.2271 91.8352 91.2726 91.7845 91.2726 91.7232V91.1901ZM91.8155 91.4934C91.8155 91.4321 91.7699 91.3841 91.7172 91.3841C91.6621 91.3841 91.6166 91.4321 91.6166 91.4934V91.7227C91.6166 91.784 91.6621 91.8347 91.7172 91.8347C91.7699 91.8347 91.8155 91.784 91.8155 91.7227V91.4934Z" fill="#908E8E"/>
<path fill-rule="evenodd" clip-rule="evenodd" d="M133.863 66.6667H46V10.6667C46 9.19467 47.1928 8 48.6625 8H131.2C132.67 8 133.863 9.19467 133.863 10.6667V66.6667Z" fill="#1A1A1A"/>
<path fill-rule="evenodd" clip-rule="evenodd" d="M95.2563 5.33333C95.2563 2.388 92.872 0 89.9313 0C86.9905 0 84.6063 2.388 84.6063 5.33333C84.6063 8.27867 86.9905 10.6667 89.9313 10.6667C92.872 10.6667 95.2563 8.27867 95.2563 5.33333Z" fill="url(#paint0_linear)"/>
<path fill-rule="evenodd" clip-rule="evenodd" d="M129.203 58.6665H50.6594C50.292 58.6665 49.9938 58.3678 49.9938 57.9998V15.3332C49.9938 14.9652 50.292 14.6665 50.6594 14.6665H129.203C129.571 14.6665 129.869 14.9652 129.869 15.3332V57.9998C129.869 58.3678 129.571 58.6665 129.203 58.6665Z" fill="#222222"/>
<path fill-rule="evenodd" clip-rule="evenodd" d="M129.203 58.6665H50.6594C50.292 58.6665 49.9938 58.3678 49.9938 57.9998V15.3332C49.9938 14.9652 50.292 14.6665 50.6594 14.6665H129.203C129.571 14.6665 129.869 14.9652 129.869 15.3332V57.9998C129.869 58.3678 129.571 58.6665 129.203 58.6665Z" fill="url(#paint1_linear)"/>
<path fill-rule="evenodd" clip-rule="evenodd" d="M93.925 5.3335C93.925 3.12416 92.1371 1.3335 89.9313 1.3335C87.7254 1.3335 85.9375 3.12416 85.9375 5.3335C85.9375 7.54283 87.7254 9.3335 89.9313 9.3335C92.1371 9.3335 93.925 7.54283 93.925 5.3335Z" fill="#232323"/>
<path fill-rule="evenodd" clip-rule="evenodd" d="M91.5953 6.66667H88.2672C87.716 6.66667 87.2687 6.21867 87.2687 5.66667V5C87.2687 4.448 87.716 4 88.2672 4H91.5953C92.1464 4 92.5937 4.448 92.5937 5V5.66667C92.5937 6.21867 92.1464 6.66667 91.5953 6.66667Z" fill="#494E5C"/>
<path fill-rule="evenodd" clip-rule="evenodd" d="M131.2 62.6668C131.2 63.4042 130.604 64.0002 129.869 64.0002C129.134 64.0002 128.537 63.4042 128.537 62.6668C128.537 61.9295 129.134 61.3335 129.869 61.3335C130.604 61.3335 131.2 61.9295 131.2 62.6668Z" stroke="#474747" stroke-width="0.666667"/>
<path fill-rule="evenodd" clip-rule="evenodd" d="M131.2 92.0001C131.2 92.7374 130.604 93.3334 129.869 93.3334C129.134 93.3334 128.537 92.7374 128.537 92.0001C128.537 91.2627 129.134 90.6667 129.869 90.6667C130.604 90.6667 131.2 91.2627 131.2 92.0001Z" fill="white" fill-opacity="0.6"/>
<path fill-rule="evenodd" clip-rule="evenodd" d="M119.219 64.0002H124.544C125.279 64.0002 125.875 63.4042 125.875 62.6668C125.875 61.9295 125.279 61.3335 124.544 61.3335H119.219C118.484 61.3335 117.888 61.9295 117.888 62.6668C117.888 63.4042 118.484 64.0002 119.219 64.0002Z" stroke="#474747" stroke-width="0.666667"/>
<defs>
<filter id="filter0_ii" x="46" y="66.6665" width="87.8625" height="29.3333" filterUnits="userSpaceOnUse" color-interpolation-filters="sRGB">
<feFlood flood-opacity="0" result="BackgroundImageFix"/>
<feBlend mode="normal" in="SourceGraphic" in2="BackgroundImageFix" result="shape"/>
<feColorMatrix in="SourceAlpha" type="matrix" values="0 0 0 0 0 0 0 0 0 0 0 0 0 0 0 0 0 0 127 0" result="hardAlpha"/>
<feOffset dx="1"/>
<feComposite in2="hardAlpha" operator="arithmetic" k2="-1" k3="1"/>
<feColorMatrix type="matrix" values="0 0 0 0 0 0 0 0 0 0 0 0 0 0 0 0 0 0 0.08 0"/>
<feBlend mode="normal" in2="shape" result="effect1_innerShadow"/>
<feColorMatrix in="SourceAlpha" type="matrix" values="0 0 0 0 0 0 0 0 0 0 0 0 0 0 0 0 0 0 127 0" result="hardAlpha"/>
<feOffset dx="-1"/>
<feComposite in2="hardAlpha" operator="arithmetic" k2="-1" k3="1"/>
<feColorMatrix type="matrix" values="0 0 0 0 0 0 0 0 0 0 0 0 0 0 0 0 0 0 0.04 0"/>
<feBlend mode="normal" in2="effect1_innerShadow" result="effect2_innerShadow"/>
</filter>
<linearGradient id="paint0_linear" x1="84.9946" y1="0.386048" x2="84.9946" y2="10.2748" gradientUnits="userSpaceOnUse">
<stop stop-color="#424242"/>
<stop offset="1" stop-color="#656565"/>
</linearGradient>
<linearGradient id="paint1_linear" x1="10.0563" y1="36.6665" x2="47.2467" y2="104.18" gradientUnits="userSpaceOnUse">
<stop stop-color="white" stop-opacity="0.24"/>
<stop offset="1" stop-opacity="0.5"/>
</linearGradient>
</defs>
</svg>
