<svg width="200" height="72" viewBox="0 0 200 72" fill="none" xmlns="http://www.w3.org/2000/svg">
<circle opacity="0.25" cx="141" cy="48" r="24" fill="#FC9D03"/>
<path fill-rule="evenodd" clip-rule="evenodd" d="M151.691 53.314L142.927 38.4668C142.523 37.7834 141.802 37.375 141 37.375C140.197 37.375 139.477 37.7827 139.072 38.4668L130.309 53.3133C129.896 54.0118 129.897 54.8444 130.314 55.5415C130.719 56.2201 131.438 56.625 132.237 56.625H149.763C150.562 56.625 151.281 56.2201 151.686 55.5415C151.895 55.1929 151.999 54.8107 151.999 54.4277C152 54.0455 151.898 53.6626 151.691 53.314ZM141.062 42.875C141.477 42.875 141.812 43.2108 141.812 43.625V49C141.812 49.4142 141.477 49.75 141.062 49.75C140.648 49.75 140.312 49.4142 140.312 49V43.625C140.312 43.2108 140.648 42.875 141.062 42.875ZM141.062 52.625C141.477 52.625 141.812 52.2892 141.812 51.875C141.812 51.4608 141.477 51.125 141.062 51.125C140.648 51.125 140.312 51.4608 140.312 51.875C140.312 52.2892 140.648 52.625 141.062 52.625Z" fill="#D97F00"/>
<path fill-rule="evenodd" clip-rule="evenodd" d="M98.9263 4.04736C98.9263 3.77122 99.1501 3.54736 99.4263 3.54736H102.974C103.25 3.54736 103.474 3.77122 103.474 4.04736C103.474 4.32351 103.25 4.54736 102.974 4.54736H99.4263C99.1501 4.54736 98.9263 4.32351 98.9263 4.04736Z" fill="#D97F00"/>
<path opacity="0.1" d="M62.2734 8.33691C61.1689 8.33691 60.2734 9.23234 60.2734 10.3369V45.7474C60.2734 46.852 61.1689 47.7474 62.2734 47.7474H117.001C117.13 35.2487 126.813 25.0392 139.094 24.0746V10.3369C139.094 9.23234 138.199 8.33691 137.094 8.33691H62.2734Z" fill="#FFC14F"/>
<path d="M135.368 1H64C61.2386 1 59 3.23858 59 6.00001V48.5684C59 51.3298 61.2386 53.5684 64 53.5684H69V54.5684H64C60.6863 54.5684 58 51.8821 58 48.5684V6.00001C58 2.6863 60.6863 0 64 0H135.368C138.682 0 141.368 2.68629 141.368 6V24.0028C141.246 24.0009 141.123 24 141 24C140.789 24 140.578 24.0027 140.368 24.0081V6C140.368 3.23858 138.13 1 135.368 1Z" fill="#D97F00"/>
<path d="M117.649 53.5684H96V54.5684H117.91C117.816 54.2379 117.729 53.9045 117.649 53.5684Z" fill="#D97F00"/>
<path fill-rule="evenodd" clip-rule="evenodd" d="M69.5501 43.0552C69.8539 43.0552 70.1001 43.3014 70.1001 43.6052L70.1001 46.2552C70.1001 46.5589 69.8539 46.8052 69.5501 46.8052C69.2463 46.8052 69.0001 46.5589 69.0001 46.2552L69.0001 43.6052C69.0001 43.3014 69.2463 43.0552 69.5501 43.0552Z" fill="#D97F00"/>
<path fill-rule="evenodd" clip-rule="evenodd" d="M96.5501 43.0552C96.8539 43.0552 97.1001 43.3014 97.1001 43.6052L97.1001 47.0052C97.1001 47.3089 96.8539 47.5552 96.5501 47.5552C96.2463 47.5552 96.0001 47.3089 96.0001 47.0052L96.0001 43.6052C96.0001 43.3014 96.2463 43.0552 96.5501 43.0552Z" fill="#D97F00"/>
<path fill-rule="evenodd" clip-rule="evenodd" d="M74.0501 39.3052C74.3539 39.3052 74.6001 39.5514 74.6001 39.8552L74.6001 50.7552C74.6001 51.059 74.3539 51.3052 74.0501 51.3052C73.7463 51.3052 73.5001 51.059 73.5001 50.7552L73.5001 39.8552C73.5001 39.5514 73.7463 39.3052 74.0501 39.3052Z" fill="#D97F00"/>
<path fill-rule="evenodd" clip-rule="evenodd" d="M78.5501 32.5557C78.8539 32.5557 79.1001 32.8019 79.1001 33.1057L79.1001 57.5057C79.1001 57.8095 78.8539 58.0557 78.5501 58.0557C78.2463 58.0557 78.0001 57.8095 78.0001 57.5057L78.0001 33.1057C78.0001 32.8019 78.2463 32.5557 78.5501 32.5557Z" fill="#D97F00"/>
<path fill-rule="evenodd" clip-rule="evenodd" d="M83.0501 37.0552C83.3539 37.0552 83.6001 37.3014 83.6001 37.6052L83.6001 53.0052C83.6001 53.309 83.3539 53.5552 83.0501 53.5552C82.7463 53.5552 82.5001 53.309 82.5001 53.0052L82.5001 37.6052C82.5001 37.3014 82.7463 37.0552 83.0501 37.0552Z" fill="#D97F00"/>
<path fill-rule="evenodd" clip-rule="evenodd" d="M87.5501 40.0559C87.8539 40.0559 88.1001 40.3022 88.1001 40.6059L88.1001 50.0059C88.1001 50.3097 87.8539 50.5559 87.5501 50.5559C87.2463 50.5559 87.0001 50.3097 87.0001 50.0059L87.0001 40.6059C87.0001 40.3022 87.2463 40.0559 87.5501 40.0559Z" fill="#D97F00"/>
<path fill-rule="evenodd" clip-rule="evenodd" d="M92.0501 38.5557C92.3539 38.5557 92.6001 38.8019 92.6001 39.1057L92.6001 51.5057C92.6001 51.8095 92.3539 52.0557 92.0501 52.0557C91.7463 52.0557 91.5001 51.8095 91.5001 51.5057L91.5001 39.1057C91.5001 38.8019 91.7463 38.5557 92.0501 38.5557Z" fill="#D97F00"/>
</svg>
