<svg width="180" height="96" viewBox="0 0 180 96" fill="none" xmlns="http://www.w3.org/2000/svg">
<g filter="url(#filter0_iii)">
<path fill-rule="evenodd" clip-rule="evenodd" d="M167.714 59.5559H12.2857C11.0217 59.5559 10 58.5229 10 57.2448V38.7559C10 37.4779 11.0217 36.4448 12.2857 36.4448H167.714C168.978 36.4448 170 37.4779 170 38.7559V57.2448C170 58.5229 168.978 59.5559 167.714 59.5559Z" fill="url(#paint0_linear)"/>
</g>
<path fill-rule="evenodd" clip-rule="evenodd" d="M14.4915 57.2157H14.8329V55.6908H14.4915V57.2157ZM17.5936 56.1288C17.5812 56.1242 17.4702 56.0456 17.3057 56.0456C17.0836 56.0456 16.9314 56.2212 16.9314 56.4569C16.9314 56.6833 17.0794 56.8635 17.3057 56.8635C17.4661 56.8635 17.5812 56.7896 17.5936 56.7803V57.187C17.5525 57.2055 17.4332 57.2424 17.281 57.2424C16.8985 57.2424 16.5612 56.9421 16.5612 56.4569C16.5612 55.9994 16.8656 55.6667 17.281 55.6667C17.4414 55.6667 17.5607 55.7083 17.5936 55.7222V56.1288ZM14.021 56.1288C14.0087 56.1242 13.8976 56.0456 13.7331 56.0456C13.511 56.0456 13.3588 56.2212 13.3588 56.4569C13.3588 56.6833 13.5069 56.8635 13.7331 56.8635C13.8935 56.8635 14.0087 56.7896 14.021 56.7803V57.187C13.9799 57.2055 13.8647 57.2424 13.7125 57.2424C13.3259 57.2424 12.9886 56.9421 12.9886 56.4569C12.9886 55.9994 13.293 55.6667 13.7125 55.6667C13.8729 55.6667 13.9922 55.7083 14.021 55.7222V56.1288ZM18.6704 56.0521C18.4689 56.0521 18.3167 56.237 18.3167 56.4542C18.3167 56.676 18.4689 56.8562 18.6704 56.8562C18.8761 56.8562 19.0241 56.676 19.0241 56.4542C19.0241 56.237 18.8761 56.0521 18.6704 56.0521ZM19.3902 56.4541C19.3902 56.8885 19.0899 57.2443 18.6704 57.2443C18.255 57.2443 17.9547 56.8885 17.9547 56.4541C17.9547 56.0197 18.255 55.6686 18.6704 55.6686C19.0899 55.6686 19.3902 56.0197 19.3902 56.4541ZM16.1339 56.0387C16.1298 56.0387 15.9858 55.9925 15.8665 55.9925C15.7267 55.9925 15.6526 56.0434 15.6526 56.1173C15.6526 56.2097 15.7555 56.242 15.8131 56.2605L15.9035 56.2975C16.1298 56.3761 16.2285 56.547 16.2285 56.7319C16.2285 57.1154 15.9323 57.2448 15.6691 57.2448C15.484 57.2448 15.3154 57.2032 15.2948 57.1986V56.852C15.3277 56.8612 15.4717 56.9074 15.6197 56.9074C15.7925 56.9074 15.8706 56.852 15.8706 56.7642C15.8706 56.6903 15.8007 56.6441 15.7143 56.6163C15.6979 56.6071 15.665 56.5979 15.6444 56.5886C15.4511 56.5193 15.2907 56.3945 15.2907 56.1404C15.2907 55.8585 15.484 55.6644 15.8007 55.6644C15.9652 55.6644 16.1215 55.7107 16.1339 55.7153V56.0387ZM12.6271 54.0555C12.6271 53.9492 12.5448 53.866 12.4543 53.866C12.3597 53.866 12.2857 53.9492 12.2857 54.0555V54.4529C12.2857 54.5592 12.3597 54.647 12.4543 54.647C12.5448 54.647 12.6271 54.5592 12.6271 54.4529V54.0555ZM13.5591 53.5297C13.5591 53.428 13.481 53.3402 13.3864 53.3402C13.2959 53.3402 13.2177 53.428 13.2177 53.5297V54.4538C13.2177 54.5601 13.2959 54.6479 13.3864 54.6479C13.481 54.6479 13.5591 54.5601 13.5591 54.4538V53.5297ZM14.4928 52.812C14.4928 52.7057 14.4146 52.6226 14.32 52.6226C14.2295 52.6226 14.1514 52.7057 14.1514 52.812V54.8359C14.1514 54.9376 14.2295 55.0254 14.32 55.0254C14.4146 55.0254 14.4928 54.9376 14.4928 54.8359V52.812ZM15.4248 53.5297C15.4248 53.428 15.3466 53.3402 15.2561 53.3402C15.1615 53.3402 15.0834 53.428 15.0834 53.5297V54.4538C15.0834 54.5601 15.1615 54.6479 15.2561 54.6479C15.3466 54.6479 15.4248 54.5601 15.4248 54.4538V53.5297ZM16.3584 54.0555C16.3584 53.9492 16.2803 53.866 16.1857 53.866C16.0952 53.866 16.017 53.9492 16.017 54.0555V54.4529C16.017 54.5592 16.0952 54.647 16.1857 54.647C16.2803 54.647 16.3584 54.5592 16.3584 54.4529V54.0555ZM17.2904 53.5297C17.2904 53.428 17.2123 53.3402 17.1177 53.3402C17.0272 53.3402 16.9491 53.428 16.9491 53.5297V54.4538C16.9491 54.5601 17.0272 54.6479 17.1177 54.6479C17.2123 54.6479 17.2904 54.5601 17.2904 54.4538V53.5297ZM18.2245 52.812C18.2245 52.7057 18.1505 52.6226 18.0559 52.6226C17.9613 52.6226 17.8831 52.7057 17.8831 52.812V54.8359C17.8831 54.9376 17.9613 55.0254 18.0559 55.0254C18.1505 55.0254 18.2245 54.9376 18.2245 54.8359V52.812ZM19.1602 53.5297C19.1602 53.428 19.0821 53.3402 18.9875 53.3402C18.8929 53.3402 18.8189 53.428 18.8189 53.5297V54.4538C18.8189 54.5601 18.8929 54.6479 18.9875 54.6479C19.0821 54.6479 19.1602 54.5601 19.1602 54.4538V53.5297ZM20.0923 54.0555C20.0923 53.9492 20.0141 53.866 19.9236 53.866C19.829 53.866 19.7509 53.9492 19.7509 54.0555V54.4529C19.7509 54.5592 19.829 54.647 19.9236 54.647C20.0141 54.647 20.0923 54.5592 20.0923 54.4529V54.0555Z" fill="white"/>
<path fill-rule="evenodd" clip-rule="evenodd" d="M90 52.0445C87.7943 52.0445 86 50.2302 86 48C86 45.7698 87.7943 43.9556 90 43.9556C92.2057 43.9556 94 45.7698 94 48C94 50.2302 92.2057 52.0445 90 52.0445Z" fill="#666666"/>
<g filter="url(#filter1_i)">
<path fill-rule="evenodd" clip-rule="evenodd" d="M90 42.2222C86.848 42.2222 84.2857 44.8129 84.2857 47.9999C84.2857 51.187 86.848 53.7777 90 53.7777C93.152 53.7777 95.7143 51.187 95.7143 47.9999C95.7143 44.8129 93.152 42.2222 90 42.2222ZM90 45.6889C91.264 45.6889 92.2857 46.722 92.2857 48C92.2857 49.2781 91.264 50.3111 90 50.3111C88.736 50.3111 87.7142 49.2781 87.7142 48C87.7142 46.722 88.736 45.6889 90 45.6889Z" fill="url(#paint1_linear)"/>
</g>
<circle cx="90" cy="48.0002" r="2.66667" fill="black" fill-opacity="0.4" stroke="white" stroke-opacity="0.08"/>
<circle cx="90" cy="48.0001" r="6.22222" stroke="white" stroke-opacity="0.4"/>
<defs>
<filter id="filter0_iii" x="10" y="36.4448" width="160" height="23.1111" filterUnits="userSpaceOnUse" color-interpolation-filters="sRGB">
<feFlood flood-opacity="0" result="BackgroundImageFix"/>
<feBlend mode="normal" in="SourceGraphic" in2="BackgroundImageFix" result="shape"/>
<feColorMatrix in="SourceAlpha" type="matrix" values="0 0 0 0 0 0 0 0 0 0 0 0 0 0 0 0 0 0 127 0" result="hardAlpha"/>
<feOffset dy="-1"/>
<feComposite in2="hardAlpha" operator="arithmetic" k2="-1" k3="1"/>
<feColorMatrix type="matrix" values="0 0 0 0 0 0 0 0 0 0 0 0 0 0 0 0 0 0 0.24 0"/>
<feBlend mode="normal" in2="shape" result="effect1_innerShadow"/>
<feColorMatrix in="SourceAlpha" type="matrix" values="0 0 0 0 0 0 0 0 0 0 0 0 0 0 0 0 0 0 127 0" result="hardAlpha"/>
<feOffset dy="1"/>
<feComposite in2="hardAlpha" operator="arithmetic" k2="-1" k3="1"/>
<feColorMatrix type="matrix" values="0 0 0 0 1 0 0 0 0 1 0 0 0 0 1 0 0 0 0.500906 0"/>
<feBlend mode="normal" in2="effect1_innerShadow" result="effect2_innerShadow"/>
<feColorMatrix in="SourceAlpha" type="matrix" values="0 0 0 0 0 0 0 0 0 0 0 0 0 0 0 0 0 0 127 0" result="hardAlpha"/>
<feOffset dy="1"/>
<feComposite in2="hardAlpha" operator="arithmetic" k2="-1" k3="1"/>
<feColorMatrix type="matrix" values="0 0 0 0 0 0 0 0 0 0 0 0 0 0 0 0 0 0 0.08 0"/>
<feBlend mode="normal" in2="effect2_innerShadow" result="effect3_innerShadow"/>
</filter>
<filter id="filter1_i" x="84.2857" y="39.2222" width="11.4286" height="14.5556" filterUnits="userSpaceOnUse" color-interpolation-filters="sRGB">
<feFlood flood-opacity="0" result="BackgroundImageFix"/>
<feBlend mode="normal" in="SourceGraphic" in2="BackgroundImageFix" result="shape"/>
<feColorMatrix in="SourceAlpha" type="matrix" values="0 0 0 0 0 0 0 0 0 0 0 0 0 0 0 0 0 0 127 0" result="hardAlpha"/>
<feOffset dy="-3"/>
<feGaussianBlur stdDeviation="2.5"/>
<feComposite in2="hardAlpha" operator="arithmetic" k2="-1" k3="1"/>
<feColorMatrix type="matrix" values="0 0 0 0 0 0 0 0 0 0 0 0 0 0 0 0 0 0 0.5 0"/>
<feBlend mode="normal" in2="shape" result="effect1_innerShadow"/>
</filter>
<linearGradient id="paint0_linear" x1="10" y1="36.4448" x2="10" y2="59.5559" gradientUnits="userSpaceOnUse">
<stop stop-color="#DFDFDF"/>
<stop offset="1" stop-color="#7E7E7E"/>
</linearGradient>
<linearGradient id="paint1_linear" x1="84.2857" y1="53.7777" x2="95.7143" y2="53.7777" gradientUnits="userSpaceOnUse">
<stop stop-color="#2B2B2B"/>
<stop offset="0.563674" stop-color="#4F4F4F"/>
<stop offset="0.675635" stop-color="#535353"/>
<stop offset="0.761335" stop-color="#4A4A4A"/>
<stop offset="1" stop-color="#1C1C1C"/>
</linearGradient>
</defs>
</svg>
