<svg width="180" height="96" viewBox="0 0 180 96" fill="none" xmlns="http://www.w3.org/2000/svg">
<path fill-rule="evenodd" clip-rule="evenodd" d="M77.9609 8.33325C77.8118 8.33325 77.6761 8.23192 77.6375 8.08125L76.3701 2.99992H74.8924L73.6251 8.08125C73.5798 8.25859 73.4001 8.36392 73.2204 8.32392C73.0433 8.27859 72.9341 8.09725 72.9781 7.91859L74.3732 2.33325H76.8893L78.2844 7.91859C78.3284 8.09725 78.2192 8.27859 78.0422 8.32392C78.0142 8.33059 77.9876 8.33325 77.9609 8.33325Z" fill="#E9E9E9"/>
<mask id="path-2-inside-1" fill="white">
<path fill-rule="evenodd" clip-rule="evenodd" d="M70.3063 3.33333C69.9388 3.33333 69.6406 3.632 69.6406 4V12C69.6406 12.368 69.9388 12.6667 70.3063 12.6667H80.9563C81.3237 12.6667 81.6219 12.368 81.6219 12V4C81.6219 3.632 81.3237 3.33333 80.9563 3.33333H70.3063ZM80.9563 14H70.3063C69.2053 14 68.3094 13.1027 68.3094 12V4C68.3094 2.89733 69.2053 2 70.3063 2H80.9563C82.0572 2 82.9531 2.89733 82.9531 4V12C82.9531 13.1027 82.0572 14 80.9563 14Z"/>
</mask>
<path fill-rule="evenodd" clip-rule="evenodd" d="M70.3063 3.33333C69.9388 3.33333 69.6406 3.632 69.6406 4V12C69.6406 12.368 69.9388 12.6667 70.3063 12.6667H80.9563C81.3237 12.6667 81.6219 12.368 81.6219 12V4C81.6219 3.632 81.3237 3.33333 80.9563 3.33333H70.3063ZM80.9563 14H70.3063C69.2053 14 68.3094 13.1027 68.3094 12V4C68.3094 2.89733 69.2053 2 70.3063 2H80.9563C82.0572 2 82.9531 2.89733 82.9531 4V12C82.9531 13.1027 82.0572 14 80.9563 14Z" fill="url(#paint0_linear)"/>
<path d="M70.3063 2.83333C69.662 2.83333 69.1406 3.3566 69.1406 4H70.1406C70.1406 3.90741 70.2157 3.83333 70.3063 3.83333V2.83333ZM69.1406 4V12H70.1406V4H69.1406ZM69.1406 12C69.1406 12.6434 69.662 13.1667 70.3063 13.1667V12.1667C70.2157 12.1667 70.1406 12.0926 70.1406 12H69.1406ZM70.3063 13.1667H80.9563V12.1667H70.3063V13.1667ZM80.9563 13.1667C81.6006 13.1667 82.1219 12.6434 82.1219 12H81.1219C81.1219 12.0926 81.0468 12.1667 80.9563 12.1667V13.1667ZM82.1219 12V4H81.1219V12H82.1219ZM82.1219 4C82.1219 3.3566 81.6006 2.83333 80.9563 2.83333V3.83333C81.0468 3.83333 81.1219 3.9074 81.1219 4H82.1219ZM80.9563 2.83333H70.3063V3.83333H80.9563V2.83333ZM80.9563 13.5H70.3063V14.5H80.9563V13.5ZM70.3063 13.5C69.4822 13.5 68.8094 12.8273 68.8094 12H67.8094C67.8094 13.3781 68.9284 14.5 70.3063 14.5V13.5ZM68.8094 12V4H67.8094V12H68.8094ZM68.8094 4C68.8094 3.17274 69.4822 2.5 70.3063 2.5V1.5C68.9284 1.5 67.8094 2.62193 67.8094 4H68.8094ZM70.3063 2.5H80.9563V1.5H70.3063V2.5ZM80.9563 2.5C81.7803 2.5 82.4531 3.17274 82.4531 4H83.4531C83.4531 2.62193 82.3341 1.5 80.9563 1.5V2.5ZM82.4531 4V12H83.4531V4H82.4531ZM82.4531 12C82.4531 12.8273 81.7803 13.5 80.9563 13.5V14.5C82.3341 14.5 83.4531 13.3781 83.4531 12H82.4531Z" fill="#EAEAEA" mask="url(#path-2-inside-1)"/>
<path fill-rule="evenodd" clip-rule="evenodd" d="M107.248 8.33325C107.099 8.33325 106.964 8.23192 106.925 8.08125L105.658 2.99992H104.18L102.913 8.08125C102.867 8.25859 102.688 8.36392 102.508 8.32392C102.331 8.27859 102.222 8.09725 102.266 7.91859L103.661 2.33325H106.177L107.572 7.91859C107.616 8.09725 107.507 8.27859 107.33 8.32392C107.302 8.33059 107.275 8.33325 107.248 8.33325Z" fill="#E9E9E9"/>
<mask id="path-5-inside-2" fill="white">
<path fill-rule="evenodd" clip-rule="evenodd" d="M99.5937 3.33333C99.2263 3.33333 98.9281 3.632 98.9281 4V12C98.9281 12.368 99.2263 12.6667 99.5937 12.6667H110.244C110.611 12.6667 110.909 12.368 110.909 12V4C110.909 3.632 110.611 3.33333 110.244 3.33333H99.5937ZM110.244 14H99.5937C98.4928 14 97.5969 13.1027 97.5969 12V4C97.5969 2.89733 98.4928 2 99.5937 2H110.244C111.345 2 112.241 2.89733 112.241 4V12C112.241 13.1027 111.345 14 110.244 14Z"/>
</mask>
<path fill-rule="evenodd" clip-rule="evenodd" d="M99.5937 3.33333C99.2263 3.33333 98.9281 3.632 98.9281 4V12C98.9281 12.368 99.2263 12.6667 99.5937 12.6667H110.244C110.611 12.6667 110.909 12.368 110.909 12V4C110.909 3.632 110.611 3.33333 110.244 3.33333H99.5937ZM110.244 14H99.5937C98.4928 14 97.5969 13.1027 97.5969 12V4C97.5969 2.89733 98.4928 2 99.5937 2H110.244C111.345 2 112.241 2.89733 112.241 4V12C112.241 13.1027 111.345 14 110.244 14Z" fill="url(#paint1_linear)"/>
<path d="M99.5937 2.83333C98.9494 2.83333 98.4281 3.3566 98.4281 4H99.4281C99.4281 3.90741 99.5032 3.83333 99.5937 3.83333V2.83333ZM98.4281 4V12H99.4281V4H98.4281ZM98.4281 12C98.4281 12.6434 98.9494 13.1667 99.5937 13.1667V12.1667C99.5032 12.1667 99.4281 12.0926 99.4281 12H98.4281ZM99.5937 13.1667H110.244V12.1667H99.5937V13.1667ZM110.244 13.1667C110.888 13.1667 111.409 12.6434 111.409 12H110.409C110.409 12.0926 110.334 12.1667 110.244 12.1667V13.1667ZM111.409 12V4H110.409V12H111.409ZM111.409 4C111.409 3.3566 110.888 2.83333 110.244 2.83333V3.83333C110.334 3.83333 110.409 3.9074 110.409 4H111.409ZM110.244 2.83333H99.5937V3.83333H110.244V2.83333ZM110.244 13.5H99.5937V14.5H110.244V13.5ZM99.5937 13.5C98.7697 13.5 98.0969 12.8273 98.0969 12H97.0969C97.0969 13.3781 98.2159 14.5 99.5937 14.5V13.5ZM98.0969 12V4H97.0969V12H98.0969ZM98.0969 4C98.0969 3.17274 98.7697 2.5 99.5937 2.5V1.5C98.2159 1.5 97.0969 2.62193 97.0969 4H98.0969ZM99.5937 2.5H110.244V1.5H99.5937V2.5ZM110.244 2.5C111.068 2.5 111.741 3.17274 111.741 4H112.741C112.741 2.62193 111.622 1.5 110.244 1.5V2.5ZM111.741 4V12H112.741V4H111.741ZM111.741 12C111.741 12.8273 111.068 13.5 110.244 13.5V14.5C111.622 14.5 112.741 13.3781 112.741 12H111.741Z" fill="#EAEAEA" mask="url(#path-5-inside-2)"/>
<path fill-rule="evenodd" clip-rule="evenodd" d="M56.9937 57.3333V88C56.9937 89.472 58.1865 90.6667 59.6562 90.6667V92H55.6625L54.3312 90.6667V56L56.9937 57.3333Z" fill="url(#paint2_linear)"/>
<path fill-rule="evenodd" clip-rule="evenodd" d="M123.556 57.3333V88C123.556 89.472 122.363 90.6667 120.894 90.6667V92H124.887L126.219 90.6667V56L123.556 57.3333Z" fill="url(#paint3_linear)"/>
<path fill-rule="evenodd" clip-rule="evenodd" d="M124.887 51.4062V87.9996C124.887 89.4729 123.695 90.6662 122.225 90.6662H58.325C56.8553 90.6662 55.6625 89.4729 55.6625 87.9996V51.4062C54.0783 52.3303 53 54.0316 53 55.9996V87.9996C53 90.9449 55.3843 93.3329 58.325 93.3329H122.225C125.166 93.3329 127.55 90.9449 127.55 87.9996V55.9996C127.55 54.0316 126.472 52.3303 124.887 51.4062Z" fill="url(#paint4_linear)"/>
<path fill-rule="evenodd" clip-rule="evenodd" d="M111.575 12C111.575 12.736 110.979 13.3333 110.244 13.3333H99.5938C98.8589 13.3333 98.2625 12.736 98.2625 12V4C98.2625 3.264 98.8589 2.66667 99.5938 2.66667H110.244C110.979 2.66667 111.575 3.264 111.575 4V12ZM82.2875 12C82.2875 12.736 81.6911 13.3333 80.9562 13.3333H70.3062C69.5714 13.3333 68.975 12.736 68.975 12V4C68.975 3.264 69.5714 2.66667 70.3062 2.66667H80.9562C81.6911 2.66667 82.2875 3.264 82.2875 4V12ZM124.887 0H55.6625C54.1928 0 53 1.19467 53 2.66667V54.6667C53 56.1387 54.1928 57.3333 55.6625 57.3333H124.887C126.357 57.3333 127.55 56.1387 127.55 54.6667V2.66667C127.55 1.19467 126.357 0 124.887 0Z" fill="#E0E0E0"/>
<path fill-rule="evenodd" clip-rule="evenodd" d="M88.8972 55.9831H89.096V55.1034H88.8972V55.9831ZM90.7039 55.3561C90.6967 55.3534 90.6321 55.3081 90.5362 55.3081C90.4069 55.3081 90.3182 55.4094 90.3182 55.5454C90.3182 55.676 90.4045 55.78 90.5362 55.78C90.6297 55.78 90.6967 55.7373 90.7039 55.732V55.9666C90.68 55.9773 90.6105 55.9986 90.5219 55.9986C90.2991 55.9986 90.1026 55.8253 90.1026 55.5454C90.1026 55.2815 90.2799 55.0895 90.5219 55.0895C90.6153 55.0895 90.6848 55.1135 90.7039 55.1215V55.3561ZM88.6232 55.3561C88.616 55.3534 88.5513 55.3081 88.4555 55.3081C88.3261 55.3081 88.2375 55.4094 88.2375 55.5454C88.2375 55.676 88.3237 55.78 88.4555 55.78C88.5489 55.78 88.616 55.7373 88.6232 55.732V55.9666C88.5992 55.9773 88.5321 55.9986 88.4435 55.9986C88.2183 55.9986 88.0219 55.8253 88.0219 55.5454C88.0219 55.2815 88.1992 55.0895 88.4435 55.0895C88.5369 55.0895 88.6064 55.1135 88.6232 55.1215V55.3561ZM91.3311 55.3119C91.2137 55.3119 91.1251 55.4185 91.1251 55.5438C91.1251 55.6718 91.2137 55.7757 91.3311 55.7757C91.4508 55.7757 91.5371 55.6718 91.5371 55.5438C91.5371 55.4185 91.4508 55.3119 91.3311 55.3119ZM91.7503 55.5438C91.7503 55.7944 91.5754 55.9997 91.3311 55.9997C91.0891 55.9997 90.9142 55.7944 90.9142 55.5438C90.9142 55.2932 91.0891 55.0906 91.3311 55.0906C91.5754 55.0906 91.7503 55.2932 91.7503 55.5438ZM89.8537 55.3041C89.8514 55.3041 89.7675 55.2775 89.698 55.2775C89.6166 55.2775 89.5735 55.3068 89.5735 55.3494C89.5735 55.4028 89.6334 55.4214 89.6669 55.4321L89.7196 55.4534C89.8514 55.4987 89.9088 55.5974 89.9088 55.704C89.9088 55.9253 89.7364 55.9999 89.5831 55.9999C89.4753 55.9999 89.377 55.9759 89.3651 55.9733V55.7733C89.3842 55.7787 89.4681 55.8053 89.5543 55.8053C89.6549 55.8053 89.7004 55.7733 89.7004 55.7227C89.7004 55.68 89.6597 55.6534 89.6094 55.6374C89.5998 55.632 89.5807 55.6267 89.5687 55.6214C89.4561 55.5814 89.3627 55.5094 89.3627 55.3628C89.3627 55.2002 89.4753 55.0882 89.6597 55.0882C89.7555 55.0882 89.8466 55.1149 89.8537 55.1175V55.3041ZM87.8113 54.1599C87.8113 54.0986 87.7634 54.0506 87.7107 54.0506C87.6556 54.0506 87.6125 54.0986 87.6125 54.1599V54.3892C87.6125 54.4505 87.6556 54.5012 87.7107 54.5012C87.7634 54.5012 87.8113 54.4505 87.8113 54.3892V54.1599ZM88.3541 53.8566C88.3541 53.7979 88.3086 53.7473 88.2535 53.7473C88.2008 53.7473 88.1553 53.7979 88.1553 53.8566V54.3897C88.1553 54.451 88.2008 54.5017 88.2535 54.5017C88.3086 54.5017 88.3541 54.451 88.3541 54.3897V53.8566ZM88.8979 53.4426C88.8979 53.3812 88.8524 53.3333 88.7973 53.3333C88.7446 53.3333 88.6991 53.3812 88.6991 53.4426V54.6102C88.6991 54.6689 88.7446 54.7195 88.7973 54.7195C88.8524 54.7195 88.8979 54.6689 88.8979 54.6102V53.4426ZM89.4408 53.8566C89.4408 53.7979 89.3952 53.7473 89.3425 53.7473C89.2874 53.7473 89.2419 53.7979 89.2419 53.8566V54.3897C89.2419 54.451 89.2874 54.5017 89.3425 54.5017C89.3952 54.5017 89.4408 54.451 89.4408 54.3897V53.8566ZM89.9845 54.1599C89.9845 54.0986 89.939 54.0506 89.8839 54.0506C89.8312 54.0506 89.7857 54.0986 89.7857 54.1599V54.3892C89.7857 54.4505 89.8312 54.5012 89.8839 54.5012C89.939 54.5012 89.9845 54.4505 89.9845 54.3892V54.1599ZM90.5274 53.8566C90.5274 53.7979 90.4819 53.7473 90.4268 53.7473C90.3741 53.7473 90.3285 53.7979 90.3285 53.8566V54.3897C90.3285 54.451 90.3741 54.5017 90.4268 54.5017C90.4819 54.5017 90.5274 54.451 90.5274 54.3897V53.8566ZM91.0714 53.4426C91.0714 53.3812 91.0283 53.3333 90.9732 53.3333C90.9181 53.3333 90.8726 53.3812 90.8726 53.4426V54.6102C90.8726 54.6689 90.9181 54.7195 90.9732 54.7195C91.0283 54.7195 91.0714 54.6689 91.0714 54.6102V53.4426ZM91.6164 53.8566C91.6164 53.7979 91.5709 53.7473 91.5158 53.7473C91.4607 53.7473 91.4175 53.7979 91.4175 53.8566V54.3897C91.4175 54.451 91.4607 54.5017 91.5158 54.5017C91.5709 54.5017 91.6164 54.451 91.6164 54.3897V53.8566ZM92.1592 54.1599C92.1592 54.0986 92.1137 54.0506 92.061 54.0506C92.0059 54.0506 91.9604 54.0986 91.9604 54.1599V54.3892C91.9604 54.4505 92.0059 54.5012 92.061 54.5012C92.1137 54.5012 92.1592 54.4505 92.1592 54.3892V54.1599Z" fill="#908E8E"/>
<path fill-rule="evenodd" clip-rule="evenodd" d="M58.325 96V94.6667L60.9875 92H64.9813V93.3333L62.3188 96H58.325Z" fill="url(#paint5_radial)"/>
<path fill-rule="evenodd" clip-rule="evenodd" d="M62.7088 94.276C62.4599 94.5253 62.1204 94.6667 61.7676 94.6667H58.325V96H61.7676C62.1204 96 62.4599 95.8587 62.7088 95.6093L64.9813 93.3333V92L62.7088 94.276Z" fill="#D3D3D3"/>
<path fill-rule="evenodd" clip-rule="evenodd" d="M122.225 96V94.6667L119.563 92H115.569V93.3333L118.231 96H122.225Z" fill="url(#paint6_radial)"/>
<path fill-rule="evenodd" clip-rule="evenodd" d="M117.841 94.276C118.09 94.5253 118.43 94.6667 118.782 94.6667H122.225V96H118.782C118.43 96 118.09 95.8587 117.841 95.6093L115.569 93.3333V92L117.841 94.276Z" fill="#D3D3D3"/>
<path fill-rule="evenodd" clip-rule="evenodd" d="M124.222 52.0001H56.3281C55.9607 52.0001 55.6625 51.7014 55.6625 51.3334V15.3334C55.6625 14.9654 55.9607 14.6667 56.3281 14.6667H124.222C124.589 14.6667 124.888 14.9654 124.888 15.3334V51.3334C124.888 51.7014 124.589 52.0001 124.222 52.0001Z" fill="#222222"/>
<path fill-rule="evenodd" clip-rule="evenodd" d="M124.222 52.0001H56.3281C55.9607 52.0001 55.6625 51.7014 55.6625 51.3334V15.3334C55.6625 14.9654 55.9607 14.6667 56.3281 14.6667H124.222C124.589 14.6667 124.888 14.9654 124.888 15.3334V51.3334C124.888 51.7014 124.589 52.0001 124.222 52.0001Z" fill="url(#paint7_linear)"/>
<path fill-rule="evenodd" clip-rule="evenodd" d="M78.2937 7.99992C78.2937 6.52792 77.1009 5.33325 75.6312 5.33325C74.1615 5.33325 72.9688 6.52792 72.9688 7.99992C72.9688 9.47192 74.1615 10.6666 75.6312 10.6666C77.1009 10.6666 78.2937 9.47192 78.2937 7.99992Z" fill="#232323"/>
<path fill-rule="evenodd" clip-rule="evenodd" d="M76.9625 8.00008C76.9625 7.26408 76.3661 6.66675 75.6312 6.66675C74.8964 6.66675 74.3 7.26408 74.3 8.00008C74.3 8.73608 74.8964 9.33341 75.6312 9.33341C76.3661 9.33341 76.9625 8.73608 76.9625 8.00008Z" fill="#373B47"/>
<path fill-rule="evenodd" clip-rule="evenodd" d="M107.581 7.99992C107.581 6.52792 106.388 5.33325 104.919 5.33325C103.449 5.33325 102.256 6.52792 102.256 7.99992C102.256 9.47192 103.449 10.6666 104.919 10.6666C106.388 10.6666 107.581 9.47192 107.581 7.99992Z" fill="#232323"/>
<path fill-rule="evenodd" clip-rule="evenodd" d="M106.25 8.00008C106.25 7.26408 105.654 6.66675 104.919 6.66675C104.184 6.66675 103.587 7.26408 103.587 8.00008C103.587 8.73608 104.184 9.33341 104.919 9.33341C105.654 9.33341 106.25 8.73608 106.25 8.00008Z" fill="#373B47"/>
<defs>
<linearGradient id="paint0_linear" x1="68.3094" y1="2" x2="68.3094" y2="14" gradientUnits="userSpaceOnUse">
<stop stop-color="#EFEFEF"/>
<stop offset="0.506076" stop-color="white"/>
<stop offset="1" stop-color="#EFEFEF"/>
</linearGradient>
<linearGradient id="paint1_linear" x1="97.5969" y1="2" x2="97.5969" y2="14" gradientUnits="userSpaceOnUse">
<stop stop-color="#EFEFEF"/>
<stop offset="0.506076" stop-color="white"/>
<stop offset="1" stop-color="#EFEFEF"/>
</linearGradient>
<linearGradient id="paint2_linear" x1="54.333" y1="56" x2="54.333" y2="91.9756" gradientUnits="userSpaceOnUse">
<stop stop-color="#B1B1B1"/>
<stop offset="0.278382" stop-color="#C9C9C9"/>
<stop offset="0.514141" stop-color="#D6D6D6"/>
<stop offset="0.743587" stop-color="#C9C9C9"/>
<stop offset="0.953577" stop-color="#ECECEC"/>
<stop offset="0.999932" stop-color="#B1B1B1"/>
</linearGradient>
<linearGradient id="paint3_linear" x1="120.896" y1="56" x2="120.896" y2="91.9756" gradientUnits="userSpaceOnUse">
<stop stop-color="#B1B1B1"/>
<stop offset="0.278382" stop-color="#C9C9C9"/>
<stop offset="0.514141" stop-color="#D6D6D6"/>
<stop offset="0.743587" stop-color="#C9C9C9"/>
<stop offset="0.953577" stop-color="#ECECEC"/>
<stop offset="0.999932" stop-color="#B1B1B1"/>
</linearGradient>
<linearGradient id="paint4_linear" x1="53.0101" y1="51.4062" x2="53.0101" y2="93.3216" gradientUnits="userSpaceOnUse">
<stop stop-color="#CFCFCF"/>
<stop offset="0.470308" stop-color="#F1F1F1"/>
<stop offset="0.999932" stop-color="#D9D9D9"/>
</linearGradient>
<radialGradient id="paint5_radial" cx="0" cy="0" r="1" gradientUnits="userSpaceOnUse" gradientTransform="translate(62.5035 100.221) rotate(24.0092) scale(4.91541 3.819)">
<stop stop-color="#9C9C9C"/>
<stop offset="0.528236" stop-color="#E8E8E8"/>
<stop offset="1" stop-color="#E8E8E8"/>
</radialGradient>
<radialGradient id="paint6_radial" cx="0" cy="0" r="1" gradientUnits="userSpaceOnUse" gradientTransform="translate(119.747 100.221) rotate(24.0092) scale(4.91541 3.819)">
<stop stop-color="#9C9C9C"/>
<stop offset="0.528236" stop-color="#E8E8E8"/>
<stop offset="1" stop-color="#E8E8E8"/>
</radialGradient>
<linearGradient id="paint7_linear" x1="21.05" y1="33.3334" x2="52.245" y2="91.1765" gradientUnits="userSpaceOnUse">
<stop stop-color="white" stop-opacity="0.24"/>
<stop offset="1" stop-opacity="0.5"/>
</linearGradient>
</defs>
</svg>
