<?xml version="1.0" standalone="no"?>
<!DOCTYPE svg PUBLIC "-//W3C//DTD SVG 1.1//EN" "http://www.w3.org/Graphics/SVG/1.1/DTD/svg11.dtd" >
<svg xmlns="http://www.w3.org/2000/svg" id="incoming-call_16">
<path unicode="&#xe98e;" transform="scale(1,-1)" id="incoming-call_16" data-tags="incoming-call_16" d="M1014.637 950.624c-12.48 12.48-32.768 12.48-45.248 0l-329.408-329.344v242.688c0 17.728-14.272 32-32 32-17.664 0-32-14.272-32-32v-320c0-4.16 0.896-8.256 2.496-12.16 3.264-7.872 9.472-14.080 17.344-17.344 3.904-1.6 8-2.496 12.16-2.496h341.376c17.728 0 32 14.336 32 32 0 17.728-14.272 32-32 32h-264.064l329.344 329.408c12.48 12.48 12.48 32.768 0 45.248zM817.421 256.954l-84.288 36.288c-41.92 17.92-89.152 16.512-129.984-3.776l-48-24c-5.952-3.008-13.056-2.24-18.496 2.176-78.016 62.592-154.88 138.88-205.568 204.096-4.288 5.44-4.992 12.544-2.048 18.432l24.448 48.96c20.416 40.768 21.76 88.128 3.712 129.984l-36.224 84.352c-20.544 47.68-67.328 78.528-119.296 78.528h-96c-32.832 0-63.36-14.912-83.52-40.896-20.032-25.664-26.88-58.496-18.88-89.92 38.080-149.952 144.768-320.832 292.992-468.928 148.032-148.096 318.912-254.912 468.864-293.056 8.64-2.112 17.28-3.2 25.856-3.2 23.040 0 45.44 7.616 64.192 22.144 25.984 20.224 40.832 50.624 40.832 83.52v96c0 51.968-30.784 98.816-78.592 119.296zM832.013 41.658c0-12.992-5.888-25.024-16.128-32.96-10.048-7.808-22.72-10.432-35.008-7.424-139.072 35.328-299.2 136-439.36 276.224-140.224 140.16-240.96 300.352-276.224 439.424-3.072 12.16-0.384 24.896 7.36 34.944 8 10.24 20.032 16.128 33.024 16.128h96c26.304 0 50.112-15.616 60.544-39.808l36.224-84.352c10.56-24.512 9.728-52.224-2.176-76.032l-24.512-49.024c-13.888-27.84-10.368-61.76 8.832-86.4 54.336-69.888 133.12-148.096 216-214.656 24.704-19.904 58.944-23.552 87.168-9.472l48 24c23.808 11.968 51.648 12.608 76.16 2.176l84.288-36.288c24.192-10.368 39.808-34.112 39.808-60.48v-96z" />
</svg>
