<?xml version="1.0" standalone="no"?>
<!DOCTYPE svg PUBLIC "-//W3C//DTD SVG 1.1//EN" "http://www.w3.org/Graphics/SVG/1.1/DTD/svg11.dtd" >
<svg xmlns="http://www.w3.org/2000/svg" id="info-active_16">
<path unicode="&#xec27;" transform="scale(1,-1)" id="info-active_16" data-tags="info-active_16" d="M7.9999 0c4.418 0 8 3.582 8 8 0 4.418-3.582 8-8 8-4.418 0-8-3.582-8-8 0-4.418 3.582-8 8-8zm0 4.5c-.276 0-.5.224-.5.5 0 .276.224.5.5.5.276 0 .5-.224.5-.5 0-.276-.224-.5-.5-.5zm0 2c-.275 0-.5.225-.5.5l0 4c0 .275.225.5.5.5.275 0 .5-.225.5-.5l0-4c0-.275-.225-.5-.5-.5z" />
</svg>
