<svg xmlns="http://www.w3.org/2000/svg" viewBox="0 0 180 164"><defs><style>.cls-1,.cls-11{fill:#19aedc;}.cls-2{opacity:0.25;}.cls-3,.cls-9{fill:#48e33d;}.cls-4{fill:#ffac38;}.cls-5{opacity:0.8;}.cls-6{fill:#faaa39;}.cls-7{opacity:0.3;}.cls-8{opacity:0.5;}.cls-11,.cls-9{fill-rule:evenodd;}.cls-10{fill:none;}.cls-12{fill:#16b1e0;}</style></defs><g id="final"><path class="cls-1" d="M120.56,163,73.88,151.25l8.84-13.09a.5.5,0,0,1,.69-.14.51.51,0,0,1,.14.7l-8,11.91L120,161.82l13-25.76-41.31-9.45-2.81,4.17a.5.5,0,0,1-.7.13.49.49,0,0,1-.13-.69l3.19-4.73,43.23,9.88Z"/><g id="Line-6"><path class="cls-1" d="M178.75,120.36H80.13a.5.5,0,0,1-.5-.5.51.51,0,0,1,.5-.5h98.62a.5.5,0,0,1,.5.5A.5.5,0,0,1,178.75,120.36Z"/></g><g id="Line-6-2" data-name="Line-6"><path class="cls-1" d="M44.5,120.36H1.25a.5.5,0,0,1-.5-.5.5.5,0,0,1,.5-.5H44.5a.51.51,0,0,1,.5.5A.5.5,0,0,1,44.5,120.36Z"/></g><path class="cls-1" d="M61.33,147.62,38.18,123.45,69.56,111l23.83,23.9Zm-21.4-23.79,21.66,22.61,30-11.9L69.32,112.18Z"/><path class="cls-1" d="M58.86,140.23a.49.49,0,0,1-.46-.31.5.5,0,0,1,.28-.65l23.73-9.41a.5.5,0,0,1,.37.93L59.05,140.2A.63.63,0,0,1,58.86,140.23Z"/><path class="cls-1" d="M61.8,143.17a.5.5,0,0,1-.19-1l.29-.11a.5.5,0,0,1,.64.28.49.49,0,0,1-.28.65l-.28.11A.39.39,0,0,1,61.8,143.17Z"/><path class="cls-1" d="M56,137.32a.5.5,0,0,1-.18-1l22.32-8.86a.5.5,0,0,1,.65.29.49.49,0,0,1-.28.64l-22.33,8.86A.57.57,0,0,1,56,137.32Z"/><path class="cls-1" d="M53,134.41a.51.51,0,0,1-.47-.32.51.51,0,0,1,.28-.65L75,124.66a.5.5,0,0,1,.37.93l-22.16,8.78A.39.39,0,0,1,53,134.41Z"/><path class="cls-1" d="M50.13,131.5a.5.5,0,0,1-.19-1l20.61-8.17a.5.5,0,0,1,.64.28.49.49,0,0,1-.28.65l-20.6,8.17A.39.39,0,0,1,50.13,131.5Z"/><path class="cls-1" d="M47.21,128.59a.5.5,0,0,1-.46-.32.5.5,0,0,1,.28-.65l21.4-8.48a.5.5,0,0,1,.37.93l-21.4,8.48A.58.58,0,0,1,47.21,128.59Z"/><path class="cls-1" d="M44.3,125.67a.5.5,0,0,1-.18-1l10.19-4a.5.5,0,0,1,.37.93l-10.19,4A.63.63,0,0,1,44.3,125.67Z"/><path class="cls-1" d="M60.09,155,33.74,134.39l10.19-5.84a.5.5,0,0,1,.68.19.49.49,0,0,1-.18.68l-8.9,5.1,24.65,19.3,19.6-11.22a.5.5,0,0,1,.69.18.52.52,0,0,1-.19.69Z"/><g class="cls-2"><polygon class="cls-1" points="80.03 143.03 60.13 154.43 34.63 134.45 44.18 128.99 61.46 147.03 83.13 138.44 80.03 143.03"/></g><path class="cls-3" d="M71.72,34.73H65.07a.25.25,0,0,1-.25-.25.25.25,0,0,1,.25-.25h6.65a.25.25,0,0,1,.25.25A.25.25,0,0,1,71.72,34.73Z"/><path class="cls-3" d="M94.26,34.73H87.6a.25.25,0,0,1-.25-.25.25.25,0,0,1,.25-.25h6.66a.26.26,0,0,1,.25.25A.25.25,0,0,1,94.26,34.73Z"/><path class="cls-4" d="M73.33,31.78h0a4,4,0,0,1-2.26-1,3.87,3.87,0,0,1-1.35-3A3.45,3.45,0,0,1,72,24.54a.36.36,0,0,1,.41.32.22.22,0,0,1-.06.19,4.31,4.31,0,0,0-.91,2.59,2.2,2.2,0,0,0,2,2,.25.25,0,0,1,.2.3.26.26,0,0,1-.29.2,2.67,2.67,0,0,1-2.38-2.51,4.7,4.7,0,0,1,.67-2.4,2.51,2.51,0,0,0-.39.32,3.15,3.15,0,0,0-1,2.19,3.38,3.38,0,0,0,1.18,2.65,3.48,3.48,0,0,0,2,.87.25.25,0,0,1,.22.28A.24.24,0,0,1,73.33,31.78Z"/><path class="cls-4" d="M86.39,31.78h0a.27.27,0,0,1-.2-.3,3.52,3.52,0,0,0,0-1.75L83.71,19.16a.25.25,0,0,1,.19-.3.25.25,0,0,1,.3.19L86.6,29.6a4,4,0,0,1,0,2A.24.24,0,0,1,86.39,31.78Z"/><path class="cls-4" d="M80.51,34.8H79.12a.25.25,0,0,1,0-.5h1.39a.25.25,0,0,1,0,.5Z"/><path class="cls-4" d="M73.45,32a.25.25,0,0,1-.2-.1,3.23,3.23,0,0,1-.09-2.3l2.32-10.67a.26.26,0,0,1,.3-.19A.25.25,0,0,1,76,19L73.65,29.71a2.86,2.86,0,0,0,0,1.87.24.24,0,0,1-.05.35A.2.2,0,0,1,73.45,32Z"/><path class="cls-4" d="M82.56,15.64a.22.22,0,0,1-.2-.1,3.25,3.25,0,0,0-2.71-1.14,2.64,2.64,0,0,0-2.21,1,.25.25,0,0,1-.42-.28,3.17,3.17,0,0,1,2.62-1.25,3.76,3.76,0,0,1,3.12,1.34.25.25,0,0,1-.05.35A.23.23,0,0,1,82.56,15.64Z"/><ellipse class="cls-4" cx="78" cy="17.9" rx="0.5" ry="0.49" transform="translate(-1.51 8.81) rotate(-6.4)"/><path class="cls-4" d="M75.91,34.8H72.36a1.81,1.81,0,0,1-1.85-1.74,1.81,1.81,0,0,1,1.75-1.86h.06l1.92.45a.25.25,0,1,1-.11.49l-1.89-.45A1.32,1.32,0,0,0,71,33a1.35,1.35,0,0,0,.41.91,1.3,1.3,0,0,0,.93.35h3.56a.25.25,0,0,1,0,.5Z"/><path class="cls-4" d="M83.8,34.8a.25.25,0,0,1,0-.5h3.32a1.3,1.3,0,0,0,.95-2.19,1.32,1.32,0,0,0-.87-.41l-1.89.45A.26.26,0,0,1,85,32a.25.25,0,0,1,.19-.3l1.92-.45h.06a1.81,1.81,0,0,1,1.74,1.86,1.75,1.75,0,0,1-.56,1.25,1.89,1.89,0,0,1-1.29.49Z"/><path class="cls-4" d="M77.64,36.48A1.67,1.67,0,0,1,76,34.81V28.06a.25.25,0,0,1,.25-.25.25.25,0,0,1,.25.25v6.75a1.18,1.18,0,0,0,2.35,0V29.17a.25.25,0,0,1,.5,0v5.64A1.68,1.68,0,0,1,77.64,36.48Z"/><path class="cls-4" d="M82,36.48a1.68,1.68,0,0,1-1.68-1.67V29.17a.25.25,0,0,1,.5,0v5.64a1.18,1.18,0,0,0,2.35,0V28.06a.25.25,0,0,1,.25-.25.25.25,0,0,1,.25.25v6.75A1.67,1.67,0,0,1,82,36.48Z"/><g class="cls-5"><circle class="cls-1" cx="79.72" cy="22.83" r="1.88"/></g><path class="cls-6" d="M78.93,21.33a1.18,1.18,0,0,1-.92-.54.26.26,0,0,1,.07-.35.25.25,0,0,1,.35.07.61.61,0,0,0,.51.32.66.66,0,0,0,.53-.53v0a.26.26,0,0,1,.3-.18.24.24,0,0,1,.19.2.67.67,0,0,0,.54.49.62.62,0,0,0,.5-.34.26.26,0,0,1,.35-.08.25.25,0,0,1,.08.34,1.12,1.12,0,0,1-.92.58,1.06,1.06,0,0,1-.79-.39,1,1,0,0,1-.76.43Z"/><ellipse class="cls-4" cx="79.65" cy="19.7" rx="1.04" ry="0.66" transform="matrix(1, -0.02, 0.02, 1, -0.31, 1.29)"/><g class="cls-7"><ellipse class="cls-4" cx="81.34" cy="17.62" rx="1.15" ry="1.55" transform="translate(-0.53 32.56) rotate(-22.56)"/></g><ellipse class="cls-4" cx="81.38" cy="17.9" rx="0.49" ry="0.5" transform="translate(54.52 96.77) rotate(-83.6)"/><path class="cls-4" d="M85.26,21.1h0c-.81,0-1.39-1.34-2.18-3.78a.25.25,0,0,1,.16-.31.24.24,0,0,1,.32.16c.3.93,1.11,3.42,1.71,3.43.08,0,.41-.08.86-1.23a8.52,8.52,0,0,0,.7-2.28c0-.45-1.47-1.82-3-2.43-.51-.2-1.42-.46-1.8,0a.24.24,0,0,1-.35,0,.25.25,0,0,1,0-.35c.31-.39,1-.74,2.38-.19s3.41,2.1,3.33,2.92a9.09,9.09,0,0,1-.73,2.45C86.17,20.61,85.75,21.1,85.26,21.1Z"/><path class="cls-4" d="M74.37,21.1c-.49,0-.9-.49-1.31-1.55a9.19,9.19,0,0,1-.73-2.46c-.08-.8,1.8-2.29,3.33-2.9s2.08-.2,2.38.19a.25.25,0,0,1-.05.35.24.24,0,0,1-.35,0c-.37-.49-1.29-.23-1.8,0-1.55.61-3.06,2-3,2.41a9,9,0,0,0,.7,2.29c.44,1.15.76,1.24.86,1.24h0c.6,0,1.41-2.5,1.71-3.43a.25.25,0,0,1,.32-.16.25.25,0,0,1,.16.31c-.79,2.44-1.37,3.76-2.18,3.78Z"/><path class="cls-3" d="M76.19,15.93a1.8,1.8,0,0,1,.12-.47A2.48,2.48,0,0,1,77,14.37a2.72,2.72,0,0,1,1.14-.66,3,3,0,0,1,1-.1,3.69,3.69,0,0,1-.12.48,2.74,2.74,0,0,1-.66,1.08,2.79,2.79,0,0,1-1.14.66A2.51,2.51,0,0,1,76.19,15.93Z"/><g class="cls-8"><path class="cls-3" d="M70.21,18.5a2.71,2.71,0,0,1,.23.43,2.63,2.63,0,0,1,.27,1.24,2.81,2.81,0,0,1-.37,1.26,2.55,2.55,0,0,1-.66.75,2.19,2.19,0,0,1-.23-.42,2.63,2.63,0,0,1-.27-1.24,2.84,2.84,0,0,1,.37-1.27A2.69,2.69,0,0,1,70.21,18.5Z"/></g><g class="cls-8"><path class="cls-3" d="M68.61,34.21a2.26,2.26,0,0,1-.49,0,2.57,2.57,0,0,1-1.18-.44,2.72,2.72,0,0,1-1.15-2,2.15,2.15,0,0,1,.48,0,2.68,2.68,0,0,1,1.19.44,2.75,2.75,0,0,1,.87,1A2.53,2.53,0,0,1,68.61,34.21Z"/></g><g class="cls-2"><path class="cls-3" d="M66.79,17.72a1.89,1.89,0,0,0,0,.29,1.54,1.54,0,0,0,.92,1.13,1.45,1.45,0,0,0,.57.12,1.23,1.23,0,0,0,0-.28,1.47,1.47,0,0,0-.3-.67,1.62,1.62,0,0,0-.62-.46A1.67,1.67,0,0,0,66.79,17.72Z"/></g><path class="cls-1" d="M98.23,48.35H61.09V5.65H98.23Zm-36.14-1H97.23V6.65H62.09Z"/><path class="cls-1" d="M94.76,39.32H64.57V9.13H94.76Zm-29.19-1H93.76V10.13H65.57Z"/><g class="cls-8"><path class="cls-1" d="M102.19,6.94,96.93,1.7a.35.35,0,0,0-.48,0h0a.38.38,0,0,0-.12.28l.07,1.31-1.26-.1a.39.39,0,0,0-.3.13.33.33,0,0,0-.08.25l.06,1.31-1.26-.1a.36.36,0,0,0-.38.35.36.36,0,0,0,.1.25l5.27,5.24a.35.35,0,0,0,.24.1.36.36,0,0,0,.24-.09.39.39,0,0,0,.12-.28L99.07,9l1.26.11a.36.36,0,0,0,.29-.12.35.35,0,0,0,.1-.26l-.07-1.31,1.26.1a.37.37,0,0,0,.28-.11.35.35,0,0,0,.1-.24A.36.36,0,0,0,102.19,6.94Z"/><path class="cls-1" d="M60.79,43.4a.35.35,0,0,0-.5,0h0a.31.31,0,0,0-.1.26L60.25,45,59,44.88a.41.41,0,0,0-.28.11.34.34,0,0,0-.1.27l.06,1.31-1.25-.1a.35.35,0,0,0-.28.1.34.34,0,0,0,0,.5l5.26,5.24a.36.36,0,0,0,.24.09.35.35,0,0,0,.26-.1A.34.34,0,0,0,63,52l-.07-1.31,1.26.1a.34.34,0,0,0,.29-.11.35.35,0,0,0,.1-.26l-.07-1.32,1.26.11a.41.41,0,0,0,.28-.11.32.32,0,0,0,.1-.25.31.31,0,0,0-.1-.24Z"/></g><g class="cls-2"><ellipse class="cls-3" cx="132.43" cy="83.53" rx="1.7" ry="1.57" transform="translate(4.9 174.37) rotate(-67.7)"/></g><path class="cls-3" d="M135.11,88.41l-.1,0a.26.26,0,0,1-.13-.33l1.18-2.88a.25.25,0,0,1,.33-.14.24.24,0,0,1,.13.33l-1.18,2.88A.25.25,0,0,1,135.11,88.41Z"/><g class="cls-2"><polygon class="cls-9" points="138.16 80.61 133.32 85.95 137.85 87.81 138.16 80.61"/></g><path class="cls-3" d="M131.2,86.81l-.1,0a.25.25,0,0,1-.13-.33l1.18-2.89a.24.24,0,0,1,.33-.13.24.24,0,0,1,.13.32l-1.18,2.89A.25.25,0,0,1,131.2,86.81Z"/><ellipse class="cls-10" cx="118.05" cy="77.53" rx="1.7" ry="1.57" transform="translate(1.53 157.34) rotate(-67.7)"/><path class="cls-3" d="M116.82,80.8h-.1a.26.26,0,0,1-.14-.33l1.19-2.89a.25.25,0,0,1,.33-.14.26.26,0,0,1,.13.33l-1.18,2.89A.25.25,0,0,1,116.82,80.8Z"/><path class="cls-3" d="M119.76,82l-.09,0a.25.25,0,0,1-.14-.32l2.14-5.21a.25.25,0,0,1,.32-.14.26.26,0,0,1,.14.33L120,81.84A.26.26,0,0,1,119.76,82Z"/><g class="cls-2"><path class="cls-9" d="M125.38,82.37l.6-6.15h0l-2.63,3,.75-7.6h0l-4.54,5.19a1.5,1.5,0,0,0-.82-.84,1.71,1.71,0,0,0-1.29,3.15,1.54,1.54,0,0,0,1.48-.2l3.47,1.42-.51.59Z"/></g><path class="cls-3" d="M123,83.32l-.09,0a.26.26,0,0,1-.14-.33l1.45-3.53a.25.25,0,0,1,.32-.14.26.26,0,0,1,.14.33l-1.45,3.53A.25.25,0,0,1,123,83.32Z"/><path class="cls-1" d="M142.68,101.63,108.31,87.54,124.51,48l34.36,14.09ZM109.62,87l32.51,13.33,15.44-37.65L125.06,49.34Z"/><path class="cls-1" d="M142.89,92,115,80.5l11.45-27.94L154.34,64ZM116.26,80l26.08,10.69L153,64.56,127,53.87Z"/><g class="cls-8"><path class="cls-1" d="M162.05,64.81,159.17,58a.34.34,0,0,0-.2-.19.32.32,0,0,0-.27,0h0a.35.35,0,0,0-.18.2l-.44,1.24L157,58.66a.44.44,0,0,0-.3,0,.36.36,0,0,0-.21.21L156,60.1l-1.13-.57a.35.35,0,0,0-.3,0,.34.34,0,0,0-.18.46l2.88,6.84a.34.34,0,0,0,.2.19l.12,0a.29.29,0,0,0,.16,0,.33.33,0,0,0,.18-.19l.43-1.24,1.13.57a.33.33,0,0,0,.26,0l.07,0a.35.35,0,0,0,.17-.19l.44-1.24,1.12.57a.35.35,0,0,0,.3,0,.39.39,0,0,0,.19-.19A.32.32,0,0,0,162.05,64.81Z"/><path class="cls-1" d="M109.91,82.84a.36.36,0,0,0-.48-.18h0a.41.41,0,0,0-.17.2l-.43,1.24-1.13-.57a.33.33,0,0,0-.26,0l-.07,0a.41.41,0,0,0-.17.2L106.75,85l-1.12-.57a.35.35,0,0,0-.3,0,.32.32,0,0,0-.19.19.32.32,0,0,0,0,.27L108,91.69a.37.37,0,0,0,.2.19l.13,0a.4.4,0,0,0,.15,0,.35.35,0,0,0,.18-.2l.44-1.24,1.12.57a.41.41,0,0,0,.29,0,.32.32,0,0,0,.21-.21l.44-1.24,1.13.57a.35.35,0,0,0,.3,0,.34.34,0,0,0,.18-.46Z"/></g><g class="cls-8"><path class="cls-1" d="M139.9,65.52l-9.32-.37a.15.15,0,0,1-.09-.27L132,63.7a.17.17,0,0,1,.1,0l6.44.26a.13.13,0,0,1,.1,0l1.39,1.3A.14.14,0,0,1,139.9,65.52Z"/></g><g class="cls-8"><path class="cls-1" d="M130.37,65.12l9.48.38-1.32.87a.21.21,0,0,1-.12,0l-6.68-.27a.15.15,0,0,1-.11,0Z"/></g><g class="cls-2"><g class="cls-2"><path class="cls-1" d="M138.55,63.92a3.42,3.42,0,0,0-6.5-.26Z"/></g></g><path class="cls-1" d="M139.91,65.77h0l-9.32-.37a.42.42,0,0,1-.37-.28.38.38,0,0,1,.14-.43l1.49-1.18a.43.43,0,0,1,.26-.09l6.44.26a.42.42,0,0,1,.26.1l1.39,1.3a.4.4,0,0,1,.09.45A.38.38,0,0,1,139.91,65.77Zm0-.5Zm-9-.36,8.78.35-1.17-1.08-6.36-.26Z"/><path class="cls-1" d="M138.54,66.65h0l-6.69-.27a.38.38,0,0,1-.25-.09l-1.26-1a.25.25,0,0,1-.08-.28.27.27,0,0,1,.25-.16l9.48.38a.24.24,0,0,1,.23.18.25.25,0,0,1-.1.28l-1.32.87A.55.55,0,0,1,138.54,66.65Zm-7.29-1.25.64.49,6.66.26.64-.43Z"/><g class="cls-2"><path class="cls-1" d="M138.85,64.18l-7.12-.28.08-.3a3.67,3.67,0,0,1,7,.28Zm-6.46-.76,5.84.24a3.23,3.23,0,0,0-5.84-.24Z"/></g><path class="cls-1" d="M138,69.91a.23.23,0,0,1-.17-.07l-1.64-1.49a.25.25,0,0,1,0-.35.26.26,0,0,1,.36,0l1.63,1.49a.25.25,0,0,1,0,.36A.27.27,0,0,1,138,69.91Z"/><path class="cls-1" d="M142.52,71.49a.23.23,0,0,1-.16-.06l-1.85-1.68a.25.25,0,1,1,.34-.37l1.84,1.68a.24.24,0,0,1,0,.35A.27.27,0,0,1,142.52,71.49Z"/><path class="cls-1" d="M139.76,69a.2.2,0,0,1-.16-.07l-.29-.26a.25.25,0,0,1,0-.35.26.26,0,0,1,.36,0l.28.26a.26.26,0,0,1,0,.36A.27.27,0,0,1,139.76,69Z"/><path class="cls-1" d="M142.45,74a.27.27,0,0,1-.17-.06l-1.84-1.68a.25.25,0,0,1,0-.36.25.25,0,0,1,.35,0l1.85,1.68a.24.24,0,0,1,0,.35A.25.25,0,0,1,142.45,74Z"/><path class="cls-1" d="M139.67,71.46a.23.23,0,0,1-.16-.06l-.26-.23a.25.25,0,0,1,.34-.38l.25.24a.25.25,0,0,1,0,.35A.24.24,0,0,1,139.67,71.46Z"/><path class="cls-1" d="M144.78,76.1a.25.25,0,0,1-.17-.06l-.26-.23a.26.26,0,0,1,0-.36.25.25,0,0,1,.36,0l.25.23a.24.24,0,0,1,0,.35A.23.23,0,0,1,144.78,76.1Z"/><path class="cls-1" d="M145.41,74.11a.27.27,0,0,1-.17-.06l-1.42-1.29a.24.24,0,0,1,0-.35.25.25,0,0,1,.35,0l1.41,1.29a.24.24,0,0,1,0,.35A.27.27,0,0,1,145.41,74.11Z"/><path class="cls-1" d="M148.58,77a.27.27,0,0,1-.17-.06l-1-.92a.25.25,0,0,1,0-.35.24.24,0,0,1,.35,0l1,.92a.24.24,0,0,1,0,.35A.23.23,0,0,1,148.58,77Z"/><path class="cls-3" d="M29.7,61.25a.25.25,0,0,1-.24-.2l-.54-2.79a.25.25,0,0,1,.19-.29.26.26,0,0,1,.3.2L30,61a.24.24,0,0,1-.2.29Z"/><path class="cls-3" d="M32.53,60.69a.25.25,0,0,1-.24-.21l-1-5a.26.26,0,0,1,.2-.29.25.25,0,0,1,.3.2l1,5a.24.24,0,0,1-.2.29Z"/><g class="cls-2"><path class="cls-9" d="M37.1,58.11l-2.6-5h0L34,56.74,30.76,50.6h0l-.86,6.2a1.36,1.36,0,0,0-1-.23,1.55,1.55,0,0,0,.59,3,1.41,1.41,0,0,0,1-.89l3.34-.65-.1.7Z"/></g><path class="cls-3" d="M35.62,60.09a.25.25,0,0,1-.24-.21l-.66-3.4a.25.25,0,0,1,.19-.29.25.25,0,0,1,.3.2l.66,3.4a.25.25,0,0,1-.2.29Z"/><path class="cls-1" d="M43.4,58.57a.25.25,0,0,1-.18-.08.26.26,0,0,1-.06-.24L45,51.53a.27.27,0,0,1,.19-.18h0a.24.24,0,0,1,.25.1l3.87,5.61a.24.24,0,0,1,0,.23.26.26,0,0,1-.18.16l-5.77,1.12Zm2-6.42L43.75,58l5-1Z"/><path class="cls-1" d="M49.15,57.37a.26.26,0,0,1-.2-.1l-3.86-5.54a.24.24,0,0,1,0-.23.23.23,0,0,1,.18-.15l5.48-1.07a.24.24,0,0,1,.25.1l3.86,5.54a.26.26,0,0,1,0,.23.23.23,0,0,1-.18.15L49.2,57.37Zm-3.43-5.61,3.55,5.09,4.94-1L50.66,50.8Z"/><g class="cls-8"><polygon class="cls-11" points="45.27 51.6 45.3 51.59 49.17 57.21 43.4 58.33 45.27 51.6"/></g><polygon class="cls-11" points="45.3 51.59 50.78 50.53 54.63 56.06 49.15 57.12 45.3 51.59"/><path class="cls-1" d="M56.72,55.72a.25.25,0,0,1-.16,0l-5.94-5a.25.25,0,0,1,0-.35.26.26,0,0,1,.36,0l5.94,5a.24.24,0,0,1,0,.35A.25.25,0,0,1,56.72,55.72Z"/><path class="cls-1" d="M41.45,58.72a.28.28,0,0,1-.13,0,.25.25,0,0,1-.09-.34l3.85-6.88a.25.25,0,0,1,.26-.12.24.24,0,0,1,.21.21l.86,6.09a.25.25,0,0,1-.5.07l-.76-5.36-3.49,6.23A.24.24,0,0,1,41.45,58.72Z"/><path class="cls-12" d="M41.47,58.89a.25.25,0,0,1-.25-.2l-.08-.44a.24.24,0,0,1,.19-.29.25.25,0,0,1,.3.2l.08.43a.24.24,0,0,1-.2.29Z"/><path class="cls-1" d="M41.23,58.45a.25.25,0,0,1-.24-.21.25.25,0,0,1,.2-.29l.28-.05a.24.24,0,0,1,.29.19.25.25,0,0,1-.19.3l-.29,0Z"/><path class="cls-12" d="M56.81,55.9a.25.25,0,0,1-.24-.2l-.09-.43a.25.25,0,1,1,.49-.1l.09.44a.25.25,0,0,1-.2.29Z"/><path class="cls-1" d="M56.58,55.46a.26.26,0,0,1-.25-.2.25.25,0,0,1,.2-.29l.29-.06a.25.25,0,0,1,.29.2.24.24,0,0,1-.2.29l-.28.06Z"/><path class="cls-1" d="M26.26,71.53,18.11,29.62l36.46-7.09,8.15,41.91Zm-7-41.12,7.76,40,34.5-6.71L53.78,23.7Z"/><path class="cls-1" d="M28,62,22.19,32.36,51.82,26.6l5.76,29.64ZM23.36,33.16l5.38,27.67,27.67-5.39L51,27.77Z"/><g class="cls-8"><path class="cls-1" d="M58.7,23,52.53,18.9a.35.35,0,0,0-.47.07h0a.35.35,0,0,0-.07.3l.32,1.27-1.26.14a.35.35,0,0,0-.24.15.32.32,0,0,0-.06.3l.31,1.27-1.25.14a.37.37,0,0,0-.26.17.35.35,0,0,0,.1.48l6.16,4.13a.36.36,0,0,0,.2.06h.07a.34.34,0,0,0,.22-.15.31.31,0,0,0,.05-.28L56,25.68l1.25-.14a.56.56,0,0,0,.27-.18.36.36,0,0,0,0-.27l-.32-1.27,1.26-.14a.35.35,0,0,0,.24-.15.36.36,0,0,0,.07-.27A.39.39,0,0,0,58.7,23Z"/><path class="cls-1" d="M25,66.73a.34.34,0,0,0-.48.09h0a.34.34,0,0,0-.05.29l.32,1.27-1.26.14a.4.4,0,0,0-.26.16.41.41,0,0,0-.05.29l.32,1.27-1.26.14a.39.39,0,0,0-.27.18.35.35,0,0,0,.11.46l6.17,4.14a.33.33,0,0,0,.19.06h.08A.33.33,0,0,0,28.8,75a.34.34,0,0,0,0-.26l-.32-1.28,1.26-.14a.48.48,0,0,0,.27-.18.34.34,0,0,0,0-.26l-.31-1.27L31,71.5a.37.37,0,0,0,.26-.15.35.35,0,0,0-.1-.49Z"/></g><ellipse class="cls-10" cx="29.13" cy="58.09" rx="1.43" ry="1.55" transform="translate(-10.55 6.63) rotate(-11)"/><g class="cls-8"><path class="cls-1" d="M35.34,34.83h.07a2.12,2.12,0,0,0-.28,1.53,2.19,2.19,0,0,0,2.59,1.7,2.28,2.28,0,0,0,.82-.33A2.74,2.74,0,0,1,36.35,40a2.65,2.65,0,1,1-1-5.21Z"/></g><circle class="cls-1" cx="40.67" cy="32.67" r="0.32"/><circle class="cls-1" cx="34.05" cy="44.29" r="0.32"/><circle class="cls-1" cx="28.75" cy="48.62" r="0.32"/><circle class="cls-1" cx="50" cy="35.04" r="0.32"/><circle class="cls-1" cx="39.64" cy="50" r="0.32"/><circle class="cls-1" cx="49.74" cy="45.22" r="0.32"/><circle class="cls-1" cx="43.94" cy="41.05" r="0.32"/><circle class="cls-1" cx="28.28" cy="38.55" r="0.32"/><path class="cls-1" d="M103.85,145.39,90.91,126.57a.5.5,0,0,1,.13-.7.49.49,0,0,1,.69.13l12.53,18.22,29.19-8.75a.5.5,0,1,1,.28,1Z"/><g class="cls-8"><path class="cls-1" d="M107.08,148.32l-.54-7.4a.39.39,0,0,0-.12-.25.37.37,0,0,0-.26-.08h0a.32.32,0,0,0-.24.13l-.81,1-.89-.9a.33.33,0,0,0-.27-.1.37.37,0,0,0-.27.13l-.8,1L102,141a.37.37,0,0,0-.29-.1.34.34,0,0,0-.31.37l.54,7.41a.36.36,0,0,0,.13.24.24.24,0,0,0,.11.06.3.3,0,0,0,.16,0,.36.36,0,0,0,.23-.13l.81-1,.88.91a.37.37,0,0,0,.24.1h.07a.35.35,0,0,0,.23-.14l.81-1,.89.9a.39.39,0,0,0,.27.11.35.35,0,0,0,.24-.12A.32.32,0,0,0,107.08,148.32Z"/></g></g></svg>