<svg width="220" height="328" viewBox="0 0 220 328" fill="none" xmlns="http://www.w3.org/2000/svg">
<rect width="220" height="328" rx="16" fill="white"/>
<rect x="33" y="168" width="154" height="16" rx="8" fill="#EDEDED"/>
<rect x="16" y="248" width="188" height="16" rx="8" fill="#EDEDED"/>
<rect x="16" y="280" width="188" height="16" rx="8" fill="#EDEDED"/>
<rect x="60" y="200" width="100" height="16" rx="8" fill="#EDEDED"/>
<rect width="120" height="120" transform="translate(50 32)" fill="white"/>
<path d="M110 152C143.137 152 170 125.137 170 92C170 58.8629 143.137 32 110 32C76.8629 32 50 58.8629 50 92C50 125.137 76.8629 152 110 152Z" fill="#CED2ED"/>
<path d="M162.497 121.066C152.263 139.513 132.592 151.998 110.002 151.998C87.4127 151.998 67.7358 139.513 57.5022 121.066C72.449 115.958 90.5285 112.966 110.002 112.966C129.476 112.966 147.55 115.958 162.497 121.066Z" fill="#B0B4D9"/>
<path d="M109.999 100.716C87.5267 100.716 69.3088 106.355 69.3088 113.311V123.321C69.3088 130.276 87.5267 135.915 109.999 135.915C132.472 135.915 150.69 130.276 150.69 123.321V113.311C150.69 106.355 132.472 100.716 109.999 100.716Z" fill="white"/>
<path d="M110 123.374C132.472 123.374 150.689 118.302 150.689 112.045C150.689 105.788 132.472 100.716 110 100.716C87.5271 100.716 69.3096 105.788 69.3096 112.045C69.3096 118.302 87.5271 123.374 110 123.374Z" fill="#B0B4D9"/>
<path d="M76.4035 97.4193C82.0033 97.4193 86.5428 92.8798 86.5428 87.28C86.5428 81.6802 82.0033 77.1407 76.4035 77.1407C70.8037 77.1407 66.2642 81.6802 66.2642 87.28C66.2642 92.8798 70.8037 97.4193 76.4035 97.4193Z" fill="white"/>
<path d="M143.596 97.4193C149.196 97.4193 153.735 92.8798 153.735 87.28C153.735 81.6802 149.196 77.1407 143.596 77.1407C137.996 77.1407 133.457 81.6802 133.457 87.28C133.457 92.8798 137.996 97.4193 143.596 97.4193Z" fill="white"/>
<path d="M110.001 44.0793C89.1062 44.0793 72.168 61.0175 72.168 81.912V112.044H72.1685C72.1685 117.14 89.1062 121.272 110 121.272C130.894 121.272 147.832 117.14 147.832 112.044V81.912C147.832 61.0181 130.895 44.0793 110.001 44.0793Z" fill="white"/>
<path d="M126.55 71.3206C119.964 71.3206 117.748 73.5406 110 73.5406C102.252 73.5406 100.036 71.3206 93.4504 71.3206C87.1945 71.3206 80.0981 77.1373 80.0981 89.4707C80.0981 106.207 95.5863 111.711 109.631 111.711C109.754 111.711 109.877 111.706 110 111.705C110.123 111.706 110.245 111.711 110.368 111.711C124.414 111.711 139.901 106.207 139.901 89.4707C139.902 77.1367 132.806 71.3206 126.55 71.3206Z" fill="#8C91BD"/>
<path d="M119.913 66.7316C119.446 66.7316 119.066 66.3523 119.066 65.8849V49.2165C119.066 48.7491 119.446 48.3698 119.913 48.3698C120.38 48.3698 120.76 48.7491 120.76 49.2165V65.8843C120.76 66.3523 120.38 66.7316 119.913 66.7316Z" fill="#CED2ED"/>
<path d="M100.089 66.731C99.6215 66.731 99.2422 66.3517 99.2422 65.8843V49.2165C99.2422 48.7491 99.6215 48.3698 100.089 48.3698C100.556 48.3698 100.936 48.7491 100.936 49.2165V65.8843C100.936 66.3517 100.557 66.731 100.089 66.731Z" fill="#CED2ED"/>
<path d="M95.98 73.645L91.8403 87.3353C91.1138 89.723 88.5901 91.0754 86.2025 90.3585C84.4323 89.8229 83.234 88.2977 83.0342 86.5637C83.4615 76.1709 90.082 73.8691 95.98 73.645Z" fill="white"/>
<path d="M97.3142 89.2313C98.3917 89.2313 99.2655 88.3575 99.2655 87.28C99.2655 86.2025 98.3917 85.3287 97.3142 85.3287C96.2366 85.3287 95.3623 86.2025 95.3623 87.28C95.3623 88.3575 96.2361 89.2313 97.3142 89.2313Z" fill="black"/>
<path d="M122.685 89.2313C123.763 89.2313 124.636 88.3575 124.636 87.28C124.636 86.2025 123.763 85.3287 122.685 85.3287C121.607 85.3287 120.733 86.2025 120.733 87.28C120.733 88.3575 121.607 89.2313 122.685 89.2313Z" fill="black"/>
</svg>
