<?xml version="1.0" encoding="UTF-8"?>
<svg width="24px" height="18px" viewBox="0 0 24 18" version="1.1" xmlns="http://www.w3.org/2000/svg" xmlns:xlink="http://www.w3.org/1999/xlink">
    <!-- Generator: Sketch 45.1 (43504) - http://www.bohemiancoding.com/sketch -->
    <title>laptop_24</title>
    <desc>Created with Sketch.</desc>
    <defs></defs>
    <g id="laptop_24" stroke="none" stroke-width="1" fill="none" fill-rule="evenodd">
        <g id="24" transform="translate(-1341.000000, -847.000000)">
            <g id="laptop_24" transform="translate(1341.000000, 844.000000)">
                <rect id="bounds" x="0" y="0" width="24" height="24"></rect>
                <g id="icon" transform="translate(0.000000, 3.000000)" fill="#FFFFFF">
                    <path d="M23,14.5 C23,15.879 21.878,17 20.5,17 L3.5,17 C2.122,17 1,15.879 1,14.5 L1,14 L23,14 L23,14.5 Z M3,2.5 C3,1.673 3.673,1 4.5,1 L19.5,1 C20.327,1 21,1.673 21,2.5 L21,13 L3,13 L3,2.5 Z M23.5,13 L22,13 L22,2.5 C22,1.121 20.878,0 19.5,0 L4.5,0 C3.122,0 2,1.121 2,2.5 L2,13 L0.5,13 C0.224,13 0,13.224 0,13.5 L0,14.5 C0,16.43 1.57,18 3.5,18 L20.5,18 C22.43,18 24,16.43 24,14.5 L24,13.5 C24,13.224 23.776,13 23.5,13 L23.5,13 Z" id="fill"></path>
                </g>
            </g>
        </g>
    </g>
</svg>
