<svg id="Layer_1" data-name="Layer 1" xmlns="http://www.w3.org/2000/svg" viewBox="0 0 12.003 12.0029"><path d="M.5,12a.5.5,0,0,1-.3535-.8535l2-2a.5.5,0,0,1,.707.707l-2,2A.4975.4975,0,0,1,.5,12Z M.5,10a.5.5,0,0,1-.3535-.8535l1-1a.5.5,0,0,1,.707.707l-1,1A.4975.4975,0,0,1,.5,10Z M2.5,12a.5.5,0,0,1-.3535-.8535l1-1a.5.5,0,0,1,.707.707l-1,1A.4975.4975,0,0,1,2.5,12Z M8,3a1,1,0,1,0,.7071.2929A1.0008,1.0008,0,0,0,8,3Z M12,1.3323a1.2771,1.2771,0,0,0-.3569-.9754A1.2761,1.2761,0,0,0,10.6678,0a9.3422,9.3422,0,0,0-2.65.4984A10.5961,10.5961,0,0,0,4.4349,2.5143L4.426,2.5125l-.0089-.0018-1.67-.0069A1.7813,1.7813,0,0,0,1.0929,3.6259L.0442,6.2942a.4943.4943,0,0,0-.0386.131A.4788.4788,0,0,0,0,6.499V6.5A.5.5,0,0,0,.5,7H1.9254A1.6414,1.6414,0,0,0,2.43,8.153l.6977.6976.0111.011.011.0111.6977.6977A1.6412,1.6412,0,0,0,5,10.0748V11.5a.5.5,0,0,0,.4973.5H5.5a.4827.4827,0,0,0,.0968-.0093.4921.4921,0,0,0,.1079-.0344L8.374,10.9072A1.7811,1.7811,0,0,0,9.4963,9.2529l-.0069-1.67-.0018-.0091-.0018-.0087a10.5953,10.5953,0,0,0,2.0157-3.5824A9.3486,9.3486,0,0,0,12,1.3323ZM2.158,6H1.2336l.79-2.0089a.775.775,0,0,1,.72-.4873l.7876.0033A8.3751,8.3751,0,0,0,2.158,6ZM8.3632,9.6916a.7759.7759,0,0,1-.3542.2852L6,10.7667V9.8423A8.3776,8.3776,0,0,0,8.493,8.4692l.0033.7876A.7754.7754,0,0,1,8.3632,9.6916Zm2.194-6.0377A9.0179,9.0179,0,0,1,8.5766,7.0968,7.879,7.879,0,0,1,5.1222,9.0645a.4985.4985,0,0,1-.1041.01.6482.6482,0,0,1-.4638-.2116L3.1371,7.4456a.6478.6478,0,0,1-.2117-.4638.4991.4991,0,0,1,.0106-.1041A7.8775,7.8775,0,0,1,4.9033,3.4235a9.02,9.02,0,0,1,3.443-1.9806A8.4242,8.4242,0,0,1,10.6539,1c.221.0032.2607.0428.2821.0641s.0611.0611.0642.2823A8.42,8.42,0,0,1,10.5572,3.6539Z" transform="translate(0 0.0029)"/></svg>