<?xml version="1.0" standalone="no"?>
<!DOCTYPE svg PUBLIC "-//W3C//DTD SVG 1.1//EN" "http://www.w3.org/Graphics/SVG/1.1/DTD/svg11.dtd" >
<svg xmlns="http://www.w3.org/2000/svg" id="leave_room_24">
<path unicode="&#xeb5b;" transform="scale(1,1)" id="leave_room_24" data-tags="leave_room_24" d="M15.5 20a.5.5 0 0 1 .5.5v1c0 1.378-1.121 2.5-2.5 2.5h-11A2.503 2.503 0 0 1 0 21.5v-19C0 1.122 1.121 0 2.5 0h11C14.879 0 16 1.122 16 2.5v2a.5.5 0 0 1-1 0v-2c0-.827-.673-1.5-1.5-1.5h-11C1.673 1 1 1.673 1 2.5v19c0 .827.673 1.5 1.5 1.5h11c.827 0 1.5-.673 1.5-1.5v-1a.5.5 0 0 1 .5-.5zm-4-8h6.791l-3.145-3.143a.5.5 0 0 1 .708-.708l4 3.997c.003.004.004.01.008.013A.485.485 0 0 1 20 12.5v.003c0 .13-.048.259-.146.357l-4 3.997a.502.502 0 0 1-.708 0 .502.502 0 0 1 0-.708L18.297 13H11.5a.5.5 0 0 1 0-1z" />
</svg>
