<?xml version="1.0" encoding="UTF-8"?>
<svg width="284px" height="120px" viewBox="0 0 284 120" version="1.1" xmlns="http://www.w3.org/2000/svg" xmlns:xlink="http://www.w3.org/1999/xlink">
    <!-- Generator: Sketch 51.3 (57544) - http://www.bohemiancoding.com/sketch -->
    <title>Link_preview_Illustration</title>
    <desc>Created with Sketch.</desc>
    <defs>
        <polygon id="path-1" points="0.0235034483 -0.000244897959 164.034483 -0.000244897959 164.034483 88.1630204 0.0235034483 88.1630204"></polygon>
    </defs>
    <g id="Link_preview_Illustration" stroke="none" stroke-width="1" fill="none" fill-rule="evenodd">
        <g id="Artboard" transform="translate(-285.000000, -171.000000)">
            <rect id="Rectangle-2" fill-rule="nonzero" x="285" y="171" width="284" height="120"></rect>
            <g id="img_preview_windows" transform="translate(285.000000, 171.000000)">
                <path d="M118.741624,64.3434731 C116.770508,63.9046912 114.72223,63.6732245 112.620934,63.6732245 C98.3396943,63.6732245 86.5090531,74.3632279 84.7041887,88.1630204 L11.0174862,88.1630204 C5.63127931,88.1630204 1.22438276,83.7548571 1.22438276,78.367102 L1.22438276,9.79567347 C1.22438276,4.40914286 5.63127931,-0.000244897959 11.0174862,-0.000244897959 L118.741624,-0.000244897959 C118.768535,-0.000244897959 118.741624,4.40914286 118.741624,9.79567347 L118.741624,64.3434731 Z" id="Combined-Shape" fill="#EBEBEB"></path>
                <path d="M112.217765,63.6762946 C98.0943607,63.8744638 86.485438,74.474773 84.7028524,88.1632653 L9.22413793,88.1632653 C4.80585993,88.1632653 1.22413793,84.5815433 1.22413793,80.1632653 L1.22413793,60 L36.161423,30.3477145 C39.2688645,27.7103396 43.8623227,27.8307719 46.8272955,30.6273547 C62.5357939,45.4437182 70.3874512,52.7840385 70.3822673,52.6483156 C77.7323012,52.7201472 82.9434736,44.3776127 90.470965,44.3695638 C94.6603232,44.3650842 101.909254,50.8006581 112.217758,63.6762854 Z" id="Combined-Shape" fill="#05A1BF" fill-rule="nonzero"></path>
                <path d="M91.8120268,72.8648968 C88.0258523,77.0176557 85.4653642,82.30793 84.7028524,88.1632653 L9.22322617,88.1632653 C4.80494817,88.1632653 1.22322617,84.5815433 1.22322617,80.1632653 L1.22322617,60 L36.173672,30.3372218 C39.2764341,27.7038779 43.8616801,27.8195109 46.8277646,30.605902 L91.8120268,72.8648968 Z" id="Combined-Shape" fill-opacity="0.8" fill="#07C1E4" fill-rule="nonzero"></path>
                <path d="M121.877253,91.1153878 L120.918753,92.0741633 C119.781529,93.2117143 118.256253,93.8362041 116.657529,93.8362041 C116.448202,93.8362041 116.23765,93.8251837 116.027098,93.8031429 C115.689236,93.7688571 115.445633,93.4688571 115.479909,93.1321224 C115.515409,92.7953878 115.836133,92.5517143 116.150736,92.586 C117.617253,92.7280408 119.028684,92.2345714 120.053288,91.208449 L121.011788,90.2496735 C122.887167,88.3737551 122.887167,85.321102 121.011788,83.4427347 C119.13396,81.5668163 116.083409,81.5692653 114.206805,83.4427347 L113.248305,84.4027347 C112.223702,85.4264082 111.721805,86.8504898 111.87115,88.3051837 C111.905426,88.6406939 111.661822,88.9419184 111.325184,88.9762041 C111.005684,89.0080408 110.688633,88.7668163 110.654357,88.4300816 C110.467064,86.6055918 111.096271,84.8227347 112.38284,83.5370204 L113.34134,82.5770204 C115.692909,80.223551 119.520788,80.223551 121.877253,82.5770204 C124.230047,84.9317143 124.230047,88.7619184 121.877253,91.1153878 Z M117.044357,86.5468163 C117.283064,86.3068163 117.669891,86.3068163 117.909822,86.5468163 C118.148529,86.7855918 118.148529,87.1725306 117.909822,87.4125306 L108.197512,97.1264082 C108.078771,97.2464082 107.922081,97.3064082 107.765391,97.3064082 C107.608702,97.3064082 107.452012,97.2464082 107.332047,97.1264082 C107.09334,96.8876327 107.09334,96.4994694 107.332047,96.2606939 L117.044357,86.5468163 Z M112.859029,100.136204 L111.900529,101.09498 C110.724133,102.271714 109.178047,102.860694 107.63196,102.860694 C106.088322,102.860694 104.542236,102.271714 103.364616,101.09498 C101.011822,98.7415102 101.011822,94.9113061 103.364616,92.5578367 L104.323116,91.5990612 C105.609684,90.3133469 107.400598,89.6839592 109.214771,89.8688571 C109.552633,89.9043673 109.796236,90.2043673 109.76196,90.5398776 C109.72646,90.8778367 109.398391,91.1264082 109.091133,91.0872245 C107.627064,90.9402857 106.214409,91.4386531 105.188581,92.4647755 L104.230081,93.423551 C102.354702,95.2994694 102.354702,98.3521224 104.230081,100.229265 C106.107909,102.105184 109.15846,102.105184 111.035064,100.229265 L111.993564,99.2704898 C113.018167,98.2455918 113.520064,96.8227347 113.370719,95.3680408 C113.335219,95.0313061 113.580047,94.7313061 113.916684,94.6970204 C114.225167,94.6578367 114.553236,94.9051837 114.587512,95.2431429 C114.774805,97.0664082 114.145598,98.8492653 112.859029,100.136204 Z" id="Fill-24" fill-opacity="0.4" fill="#000000"></path>
                <path d="M118.741624,64.3512245 L118.741624,65.607551 C130.651262,68.3895918 139.551969,79.0891837 139.551969,91.8361224 C139.551969,106.690408 127.470952,118.774898 112.620934,118.774898 C101.484952,118.774898 91.3588828,111.776939 87.4220552,101.363878 C87.3020897,101.046735 86.9470897,100.89 86.6337103,101.007551 C86.3166586,101.126327 86.1575207,101.47898 86.2762621,101.796122 C90.3930379,112.684286 100.979383,119.999388 112.620934,119.999388 C128.145452,119.999388 140.776107,107.366327 140.776107,91.8361224 C140.776107,78.4095918 131.331883,67.1553061 118.741624,64.3512245" id="Fill-26" fill="#AFAFAF"></path>
                <path d="M252.472203,58.7755102 L149.045039,58.7755102 C147.190095,58.7755102 145.672414,57.6734694 145.672414,56.3265306 C145.672414,54.9804082 147.190095,53.877551 149.045039,53.877551 L252.472203,53.877551 C254.326022,53.877551 255.844828,54.9804082 255.844828,56.3265306 C255.844828,57.6734694 254.326022,58.7755102 252.472203,58.7755102" id="Fill-28" fill-opacity="0.1" fill="#000000"></path>
                <path d="M252.472203,47.755102 L149.045039,47.755102 C147.190095,47.755102 145.672414,46.6530612 145.672414,45.3061224 C145.672414,43.96 147.190095,42.8571429 149.045039,42.8571429 L252.472203,42.8571429 C254.326022,42.8571429 255.844828,43.96 255.844828,45.3061224 C255.844828,46.6530612 254.326022,47.755102 252.472203,47.755102" id="Fill-28" fill-opacity="0.1" fill="#000000"></path>
                <path d="M226.803766,69.7959184 L149.006579,69.7959184 C147.172788,69.7959184 145.672414,68.6938776 145.672414,67.3469388 C145.672414,66.0008163 147.172788,64.8979592 149.006579,64.8979592 L226.803766,64.8979592 C228.637557,64.8979592 230.137931,66.0008163 230.137931,67.3469388 C230.137931,68.6938776 228.637557,69.7959184 226.803766,69.7959184" id="Fill-30" fill-opacity="0.1" fill="#000000"></path>
                <path d="M149.344828,29.3877551 C147.325,29.3877551 145.672414,27.7346939 145.672414,25.7142857 C145.672414,23.695102 147.325,22.0408163 149.344828,22.0408163 L205.655172,22.0408163 C207.673776,22.0408163 209.327586,23.695102 209.327586,25.7142857 C209.327586,27.7346939 207.673776,29.3877551 205.655172,29.3877551 L149.344828,29.3877551 Z" id="Fill-32" fill="#07C1E4"></path>
                <ellipse id="Path" fill-opacity="0.08" fill="#000000" cx="80.1810345" cy="21.4285714" rx="7.95689655" ry="7.95918367"></ellipse>
                <g id="Group-36" transform="translate(119.353448, 0.000000)">
                    <mask id="mask-2" fill="white">
                        <use xlink:href="#path-1"></use>
                    </mask>
                    <g id="bg"></g>
                    <path d="M12.2648828,-0.000244897959 L12.2648828,1.2242449 L157.301969,1.2242449 C160.339055,1.2242449 162.81059,3.6964898 162.81059,6.73444898 L162.81059,81.4283265 C162.81059,84.4662857 160.339055,86.9385306 157.301969,86.9385306 L20.8105897,86.9385306 C20.4727276,86.9385306 20.1985207,87.2128163 20.1985207,87.5507755 C20.1985207,87.8887347 20.4727276,88.1630204 20.8105897,88.1630204 L157.301969,88.1630204 C161.013555,88.1630204 164.034728,85.1422041 164.034728,81.4283265 L164.034728,6.73444898 C164.034728,3.02179592 161.013555,-0.000244897959 157.301969,-0.000244897959 L12.2648828,-0.000244897959 Z" id="Fill-34" fill="#AFAFAF" mask="url(#mask-2)"></path>
                </g>
            </g>
        </g>
    </g>
</svg>