<?xml version="1.0" standalone="no"?>
<!DOCTYPE svg PUBLIC "-//W3C//DTD SVG 1.1//EN" "http://www.w3.org/Graphics/SVG/1.1/DTD/svg11.dtd" >
<svg xmlns="http://www.w3.org/2000/svg" id="list-menu_16">
<path unicode="&#xe99c;" transform="scale(1,-1)" id="list-menu_16" data-tags="list-menu_16" d="M64 736c0 17.673 14.074 32 31.889 32h832.222c17.612 0 31.889-14.844 31.889-32 0-17.673-14.074-32-31.889-32h-832.222c-17.612 0-31.889 14.844-31.889 32zM64 416c0 17.673 14.074 32 31.889 32h832.222c17.612 0 31.889-14.844 31.889-32 0-17.673-14.074-32-31.889-32h-832.222c-17.612 0-31.889 14.844-31.889 32zM64 96c0 17.673 14.074 32 31.889 32h832.222c17.612 0 31.889-14.844 31.889-32 0-17.673-14.074-32-31.889-32h-832.222c-17.612 0-31.889 14.844-31.889 32z" />
</svg>
