<?xml version="1.0" standalone="no"?>
<!DOCTYPE svg PUBLIC "-//W3C//DTD SVG 1.1//EN" "http://www.w3.org/Graphics/SVG/1.1/DTD/svg11.dtd" >
<svg xmlns="http://www.w3.org/2000/svg" id="list-view_16">
<path unicode="&#xe99d;" transform="scale(1,-1)" id="list-view_16" data-tags="list-view_16" d="M288 703.987h639.808c17.664 0 32 14.336 32 32 0 17.728-14.336 32-32 32h-639.808c-17.664 0-32-14.272-32-32 0-17.664 14.336-32 32-32zM927.814 447.949h-639.808c-17.664 0-32-14.336-32-32 0-17.728 14.336-32 32-32h639.808c17.664 0 32 14.272 32 32 0 17.664-14.336 32-32 32zM927.814 127.898h-639.808c-17.664 0-32-14.336-32-32 0-17.728 14.336-32 32-32h639.808c17.664 0 32 14.272 32 32 0 17.664-14.336 32-32 32zM96 768c-17.664 0-32-14.336-32-32s14.336-32 32-32c17.664 0 32 14.336 32 32s-14.336 32-32 32zM96 447.949c-17.664 0-32-14.336-32-32s14.336-32 32-32c17.664 0 32 14.336 32 32s-14.336 32-32 32zM96 127.898c-17.664 0-32-14.336-32-32s14.336-32 32-32c17.664 0 32 14.336 32 32s-14.336 32-32 32z" />
</svg>
