<?xml version="1.0" standalone="no"?>
<!DOCTYPE svg PUBLIC "-//W3C//DTD SVG 1.1//EN" "http://www.w3.org/Graphics/SVG/1.1/DTD/svg11.dtd" >
<svg xmlns="http://www.w3.org/2000/svg" id="location_16">
<path unicode="&#xe9a0;" transform="scale(1,-1)" id="location_16" data-tags="location_16" d="M512 960.019c-176.448 0-320-143.552-320-320 0-294.272 282.368-675.136 294.4-691.2 6.016-8.064 15.488-12.8 25.6-12.8 10.048 0 19.584 4.736 25.6 12.8 12.032 16 294.4 395.904 294.4 691.2 0 176.448-143.552 320-320 320zM512 23.315c-69.44 101.056-256 393.408-256 616.704 0 141.184 114.816 256 256 256s256-114.816 256-256c0-224-186.496-515.84-256-616.704zM544 640h-64c-17.6 0-32-14.4-32-32s14.4-32 32-32h64c17.6 0 32 14.4 32 32s-14.4 32-32 32z" />
</svg>
