<?xml version="1.0" standalone="no"?>
<!DOCTYPE svg PUBLIC "-//W3C//DTD SVG 1.1//EN" "http://www.w3.org/Graphics/SVG/1.1/DTD/svg11.dtd" >
<svg xmlns="http://www.w3.org/2000/svg" id="markdown_16">
<path unicode="&#xe9a4;" transform="scale(1,-1)" id="markdown_16" data-tags="markdown_16" d="M192.375 896h639.25c70.9 0 128.375-57.412 128.375-128.375v-639.25c0-70.9-57.412-128.375-128.375-128.375h-639.25c-70.9 0-128.375 57.412-128.375 128.375v639.25c0 70.9 57.412 128.375 128.375 128.375zM128 128.375c0-35.59 28.795-64.375 64.375-64.375h639.25c35.59 0 64.375 28.795 64.375 64.375v639.25c0 35.59-28.795 64.375-64.375 64.375h-639.25c-35.59 0-64.375-28.795-64.375-64.375v-639.25zM777.44 374.675l-73.408-72.96v369.728c0 13.504-8.448 25.536-21.12 30.080-12.544 4.608-26.816 0.832-35.456-9.536l-135.424-162.112-135.488 162.112c-8.64 10.368-22.912 14.144-35.456 9.536-12.672-4.544-21.056-16.576-21.056-30.080v-446.656c0-17.664 14.272-32 32-32 17.664 0 32 14.336 32 32v358.464l103.424-123.776c12.16-14.528 36.928-14.528 49.088 0l103.488 123.776v-281.536l-72.96 72.448c-12.48 12.48-32.768 12.416-45.248-0.128s-12.416-32.768 0.128-45.248l127.488-126.656c2.88-2.88 6.272-4.992 9.856-6.528 4.032-1.792 8.384-2.816 12.736-2.816 4.096 0 8.256 0.832 12.16 2.432 0 0.064 0.064 0.064 0.064 0.064 0.128 0.064 0.192 0.192 0.32 0.192 3.584 1.536 7.040 3.712 9.984 6.656l128 127.168c12.544 12.416 12.608 32.704 0.128 45.248s-32.704 12.608-45.248 0.128z" />
</svg>
