<?xml version="1.0" standalone="no"?>
<!DOCTYPE svg PUBLIC "-//W3C//DTD SVG 1.1//EN" "http://www.w3.org/Graphics/SVG/1.1/DTD/svg11.dtd" >
<svg xmlns="http://www.w3.org/2000/svg" id="maximize_12">
<path unicode="&#xec3b;" id="maximize_12" data-tags="maximize_12" d="M2 10l3.5 0c.276 0 .5.224.5.5 0 .276-.224.5-.5.5l-4 0c-.276 0-.5-.224-.5-.5l0-4c0-.276.224-.5.5-.5.276 0 .5.224.5.5L2 10zm4.5-9l4 0c.276 0 .5.224.5.5l0 4c0 .276-.224.5-.5.5-.276 0-.5-.224-.5-.5L10 2 6.5 2c-.276 0-.5-.224-.5-.5 0-.276.224-.5.5-.5z" />
</svg>
