<svg width="36" height="36" viewBox="0 0 36 36" fill="none" xmlns="http://www.w3.org/2000/svg">
<path opacity="0.15" fill-rule="evenodd" clip-rule="evenodd" d="M25 7H2V20H16.7789C18.5703 17.2526 21.5563 15.3552 25 15.0448V7Z" fill="#00CF64"/>
<path fill-rule="evenodd" clip-rule="evenodd" d="M4 4H23C24.6569 4 26 5.34315 26 7V15C26.3371 15 26.6706 15.0152 27 15.0448V7C27 4.79086 25.2091 3 23 3H4C1.79086 3 0 4.79086 0 7V23C0 25.2091 1.79086 27 4 27H15.0448C15.0152 26.6706 15 26.3371 15 26H4C2.34315 26 1 24.6569 1 23V7C1 5.34315 2.34315 4 4 4Z" fill="#00AB50"/>
<rect x="5" width="1" height="3.5" rx="0.5" fill="#00AB50"/>
<rect x="21" width="1" height="3.5" rx="0.5" fill="#00AB50"/>
<circle opacity="0.28" cx="26" cy="26" r="10" fill="#00CF64"/>
<path fill-rule="evenodd" clip-rule="evenodd" d="M24.5026 29.5V29.5C24.3696 29.5 24.2426 29.447 24.1486 29.353L21.1466 26.346C20.9516 26.15 20.9516 25.834 21.1476 25.639C21.3416 25.444 21.6586 25.443 21.8546 25.64L24.5026 28.292L30.1446 22.646C30.3396 22.451 30.6556 22.451 30.8516 22.646C31.0466 22.841 31.0466 23.158 30.8516 23.354L24.8566 29.354C24.7626 29.447 24.6356 29.5 24.5026 29.5" fill="#00AB50"/>
</svg>
