<svg width="36" height="36" viewBox="0 0 36 36" fill="none" xmlns="http://www.w3.org/2000/svg">
<path fill-rule="evenodd" clip-rule="evenodd" d="M15.7499 22C15.8834 21.658 16.0336 21.3243 16.1994 21H6V9.466C6 8.657 6.659 8 7.469 8H24.531C25.341 8 26 8.657 26 9.466V15C26.3371 15 26.6706 15.0152 27 15.0448V9.466C27 8.106 25.892 7 24.531 7H22V5.5C22 5.224 21.776 5 21.5 5C21.223 5 21 5.224 21 5.5V7H11V5.5C11 5.224 10.776 5 10.5 5C10.223 5 10 5.224 10 5.5V7H7.469C6.107 7 5 8.106 5 9.466V24.534C5 25.894 6.107 27 7.469 27H15.0448C15.0152 26.6706 15 26.3371 15 26H7.469C6.659 26 6 25.343 6 24.534V22H15.7499Z" fill="#F7644A"/>
<circle cx="26" cy="26" r="10" fill="#F7644A" fill-opacity="0.25"/>
<path fill-rule="evenodd" clip-rule="evenodd" d="M25.9983 22.9969C25.7223 22.9969 25.4983 23.2209 25.4983 23.4969V25.5029C25.4983 25.7789 25.7223 26.0029 25.9983 26.0029C26.2743 26.0029 26.4983 25.7789 26.4983 25.5029V23.4969C26.4983 23.2209 26.2743 22.9969 25.9983 22.9969M31.7824 27.8345L27.2604 20.6785C26.9934 20.2535 26.5224 19.9995 26.0014 19.9995H25.9984C25.4774 19.9995 25.0064 20.2535 24.7384 20.6785L20.2174 27.8345C19.9434 28.2685 19.9274 28.8175 20.1754 29.2665C20.4294 29.7275 20.9004 30.0025 21.4344 30.0025H30.5644C31.0994 30.0025 31.5704 29.7275 31.8234 29.2665C32.0724 28.8175 32.0554 28.2685 31.7824 27.8345M25.9983 27.0028C25.7223 27.0028 25.4983 27.2268 25.4983 27.5028C25.4983 27.7788 25.7223 28.0028 25.9983 28.0028C26.2743 28.0028 26.4983 27.7788 26.4983 27.5028C26.4983 27.2268 26.2743 27.0028 25.9983 27.0028" fill="#F7644A"/>
</svg>
