<?xml version="1.0" encoding="UTF-8" standalone="no"?>
<svg width="87px" height="86px" viewBox="0 0 87 86" version="1.1" xmlns="http://www.w3.org/2000/svg" xmlns:xlink="http://www.w3.org/1999/xlink">
    <!-- Generator: Sketch 42 (36781) - http://www.bohemiancoding.com/sketch -->
    <title>meetings-86-86</title>
    <desc>Created with Sketch.</desc>
    <defs>
        <path d="M0.4265,4.32334542 C1.97750131,6.21564751 4.3330156,7.423 6.971,7.423 C9.4663542,7.423 11.7092429,6.34267597 13.2575,4.62419407 L13.2575,0.2259 L0.4265,0.2259 L0.4265,4.32334542 L0.4265,4.32334542 Z" id="path-1"></path>
        <path d="M6.971,9.42589981 C9.4663542,9.42589981 11.7092429,8.19503504 13.2575,6.23708653 L13.2575,0.2259 L0.4265,0.2259 L0.4265,5.89431529 C1.97750131,8.05030545 4.3330156,9.42589981 6.971,9.42589981 Z" id="path-3"></path>
    </defs>
    <g id="meetings-86-86" stroke="none" stroke-width="1" fill="none" fill-rule="evenodd">
        <g id="Artboard" transform="translate(-1224.000000, -415.000000)">
            <g id="meetings" transform="translate(1224.000000, 415.000000)">
                <rect id="meetings-86-86" x="0" y="0" width="86" height="86"></rect>
                <g id="Group-29" transform="translate(2.000000, 2.000000)" stroke="#878585" stroke-linecap="round" stroke-linejoin="round">
                    <path d="M72.0568,30.432 C67.1018,30.432 63.0848,34.449 63.0848,39.404 C63.0848,41.036 63.5278,42.562 64.2898,43.88 L63.0848,48.376 L67.5798,47.171 C68.8988,47.933 70.4248,48.376 72.0568,48.376 C77.0118,48.376 81.0288,44.359 81.0288,39.404 C81.0288,34.449 77.0118,30.432 72.0568,30.432 Z" id="Stroke-1"></path>
                    <path d="M0.5,40.4922 C0.5,45.4472 4.517,49.4642 9.472,49.4642 C11.104,49.4642 12.63,49.0212 13.948,48.2592 L18.444,49.4642 L17.239,44.9692 C18.001,43.6502 18.444,42.1242 18.444,40.4922 C18.444,35.5372 14.427,31.5202 9.472,31.5202 C4.517,31.5202 0.5,35.5372 0.5,40.4922 Z" id="Stroke-3"></path>
                    <path d="M4.1191,7.8877 C1.5911,13.9917 4.4891,20.9887 10.5931,23.5177 C12.6041,24.3497 14.7091,24.5837 16.7221,24.3177 L21.6451,28.0947 L22.4551,21.9437 C24.0661,20.7077 25.3901,19.0537 26.2231,17.0437 C28.7511,10.9397 25.8521,3.9417 19.7491,1.4137 C13.6451,-1.1143 6.6471,1.7837 4.1191,7.8877 Z" id="Stroke-5"></path>
                    <path d="M76.8349,9.5203 C79.3629,15.6243 76.4649,22.6213 70.3609,25.1503 C68.3499,25.9823 66.2449,26.2163 64.2319,25.9503 L59.3089,29.7273 L58.4989,23.5763 C56.8879,22.3403 55.5639,20.6863 54.7309,18.6763 C52.2029,12.5723 55.1019,5.5743 61.2049,3.0463 C67.3089,0.5183 74.3069,3.4163 76.8349,9.5203 Z" id="Stroke-7"></path>
                    <path d="M31.6363,17.5469 C26.9643,22.2189 26.9643,29.7929 31.6363,34.4639 C33.1753,36.0029 35.0313,37.0239 36.9923,37.5489 L40.0953,42.9229 L43.1973,37.5489 C45.1583,37.0239 47.0143,36.0029 48.5533,34.4639 C53.2253,29.7929 53.2253,22.2189 48.5533,17.5469 C43.8823,12.8749 36.3083,12.8749 31.6363,17.5469 Z" id="Stroke-9"></path>
                    <path d="M70.5004,19.3398 L61.0664,19.3398 C60.4674,19.3398 59.9774,18.8668 59.9774,18.2888 L59.9774,10.2308 C59.9774,9.6508 60.4644,9.1798 61.0664,9.1798 L70.5004,9.1798 C71.0994,9.1798 71.5894,9.6528 71.5894,10.2308 L71.5894,18.2888 C71.5894,18.8688 71.1014,19.3398 70.5004,19.3398 Z" id="Stroke-11"></path>
                    <path d="M59.9773,16.4369 L71.5893,16.4369" id="Stroke-13"></path>
                    <path d="M62.8802,7.7282 L62.8802,8.8172" id="Stroke-15"></path>
                    <path d="M68.6861,7.7282 L68.6861,8.8172" id="Stroke-17"></path>
                    <path d="M19.4535,14.4969 L20.8105,15.0809 C21.3895,15.3289 21.7635,15.8979 21.7635,16.5279 L21.7635,18.0729 C21.7635,18.8409 21.0435,19.4109 20.2995,19.2219 C18.0055,18.6399 15.3645,17.0169 12.9885,14.6409 C10.6125,12.2649 8.9895,9.6239 8.4075,7.3299 C8.2185,6.5859 8.7895,5.8659 9.5565,5.8659 L11.1015,5.8659 C11.7315,5.8659 12.3005,6.2399 12.5485,6.8189 L13.1325,8.1759 C13.3615,8.7089 13.3445,9.3159 13.0845,9.8349 L12.6915,10.6219 C12.5535,10.8969 12.5895,11.2249 12.7785,11.4669 C13.6855,12.6339 14.9725,13.8749 16.1725,14.8379 C16.4135,15.0319 16.7445,15.0699 17.0225,14.9309 L17.7955,14.5449 C18.3135,14.2849 18.9205,14.2679 19.4535,14.4969 Z" id="Stroke-19"></path>
                    <path d="M76.4682,36.9978 L69.7252,43.7408 L67.2942,44.2688 L67.8222,41.8378 L74.5652,35.0948 C75.0912,34.5698 75.9432,34.5698 76.4682,35.0948 L76.4682,35.0948 C76.9932,35.6208 76.9932,36.4728 76.4682,36.9978 Z" id="Stroke-21"></path>
                    <path d="M73.5732,36.1959 L75.3672,37.9899" id="Stroke-23"></path>
                    <path d="M13.4063,36.6113 L5.0473,36.6113 C4.5523,36.6113 4.1523,37.0123 4.1523,37.5073 L4.1523,43.4773 C4.1523,43.9723 4.5523,44.3733 5.0473,44.3733 L13.4063,44.3733 C13.9013,44.3733 14.3023,43.9723 14.3023,43.4773 L14.3023,37.5073 C14.3023,37.0123 13.9013,36.6113 13.4063,36.6113 Z" id="Stroke-25"></path>
                    <path d="M4.1518,37.5225 L8.5018,40.8485 C8.9298,41.1765 9.5238,41.1765 9.9518,40.8485 L14.3018,37.5225" id="Stroke-27"></path>
                </g>
                <g id="Group-40" transform="translate(35.000000, 21.000000)">
                    <g id="Group-32" transform="translate(0.000000, 8.000000)">
                        <mask id="mask-2" fill="white">
                            <use xlink:href="#path-1"></use>
                        </mask>
                        <g id="Clip-31"></g>
                        <path d="M9.7285,0.2259 L3.9565,0.2259 C2.4945,0.2259 1.2475,1.2829 1.0075,2.7239 L0.4265,10.4309 L13.2575,10.4309 L12.6775,2.7239 C12.4375,1.2829 11.1905,0.2259 9.7285,0.2259 Z" id="Stroke-30" stroke="#878585" stroke-linecap="round" stroke-linejoin="round" mask="url(#mask-2)"></path>
                    </g>
                    <path d="M10.8913,4.1564 C10.8913,6.4044 9.0693,8.2264 6.8213,8.2264 C4.5743,8.2264 2.7523,6.4044 2.7523,4.1564 C2.7523,1.9084 4.5743,0.0864 6.8213,0.0864 C9.0693,0.0864 10.8913,1.9084 10.8913,4.1564 Z" id="Stroke-33" stroke="#878585" stroke-linecap="round" stroke-linejoin="round"></path>
                    <path d="M11.1271,0.7003 C9.5381,2.2893 6.9611,2.2893 5.3721,0.7003" id="Stroke-35" stroke="#878585" stroke-linecap="round" stroke-linejoin="round"></path>
                    <g id="Group-39" transform="translate(0.000000, 7.000000)">
                        <mask id="mask-4" fill="white">
                            <use xlink:href="#path-3"></use>
                        </mask>
                        <g id="Clip-38"></g>
                        <path d="M9.7285,1.2259 L3.9565,1.2259 C2.4945,1.2259 1.2475,2.2829 1.0075,3.7239 L0.4265,11.3659 L13.2575,11.3659 L12.6775,3.7239 C12.4375,2.2829 11.1905,1.2259 9.7285,1.2259 Z" id="Stroke-37" stroke="#878585" stroke-linecap="round" stroke-linejoin="round" mask="url(#mask-4)"></path>
                    </g>
                </g>
                <g id="Group-63" transform="translate(13.000000, 19.000000)" stroke="#878585" stroke-linecap="round" stroke-linejoin="round">
                    <path d="M37.4295,8.9644 C37.4295,13.6364 33.6425,17.4234 28.9705,17.4234 C24.2995,17.4234 20.5125,13.6364 20.5125,8.9644 C20.5125,4.2924 24.2995,0.5054 28.9705,0.5054 C33.6425,0.5054 37.4295,4.2924 37.4295,8.9644 Z" id="Stroke-41"></path>
                    <path d="M59.61,31.3911 L59.61,58.0581 C59.61,61.0511 57.161,63.5001 54.168,63.5001 L5.811,63.5001 C2.818,63.5001 0.369,61.0511 0.369,58.0581 L0.369,32.4801" id="Stroke-43"></path>
                    <path d="M30.7094,23.0716 L52.0694,23.0716" id="Stroke-45"></path>
                    <path d="M7.4406,23.0716 L27.4456,23.0716" id="Stroke-47"></path>
                    <path d="M0.691,58.2701 L59.601,58.2701" id="Stroke-49"></path>
                    <path d="M32.1209,58.2701 C32.1209,59.4471 31.1669,60.4021 29.9889,60.4021 C28.8119,60.4021 27.8579,59.4471 27.8579,58.2701" id="Stroke-51"></path>
                    <path d="M39.0932,52.0714 L20.9642,52.0714 C19.8132,52.0714 18.8722,51.1624 18.8722,50.0514 L18.8722,34.5684 C18.8722,33.4524 19.8082,32.5474 20.9642,32.5474 L39.0932,32.5474 C40.2442,32.5474 41.1852,33.4564 41.1852,34.5684 L41.1852,50.0514 C41.1852,51.1664 40.2482,52.0714 39.0932,52.0714 Z" id="Stroke-53"></path>
                    <path d="M24.4503,29.7585 L24.4503,31.8505" id="Stroke-55"></path>
                    <path d="M35.6068,29.7585 L35.6068,31.8505" id="Stroke-57"></path>
                    <path d="M36.015,41.8673 C36.015,45.3993 33.152,48.2623 29.62,48.2623 C26.089,48.2623 23.226,45.3993 23.226,41.8673 C23.226,38.3353 26.089,35.4723 29.62,35.4723 C33.152,35.4723 36.015,38.3353 36.015,41.8673 Z" id="Stroke-59"></path>
                    <path d="M31.5011,44.5004 L29.7301,42.7294 C29.6601,42.6594 29.6201,42.5634 29.6201,42.4634 L29.6201,38.4824" id="Stroke-61"></path>
                </g>
            </g>
        </g>
    </g>
</svg>