<svg width="200" height="151" viewBox="0 0 200 151" fill="none" xmlns="http://www.w3.org/2000/svg">
<path fill-rule="evenodd" clip-rule="evenodd" d="M100.52 75H200V6C200 4.4087 199.368 2.88258 198.243 1.75736C197.117 0.632141 195.591 0 194 0L100.52 0V75Z" fill="#91EBFF"/>
<path fill-rule="evenodd" clip-rule="evenodd" d="M100.52 150H194C195.591 150 197.117 149.368 198.243 148.243C199.368 147.117 200 145.591 200 144V75H100.52V150Z" fill="#FFCA99"/>
<path fill-rule="evenodd" clip-rule="evenodd" d="M112.13 150C112.592 145.269 114.79 140.876 118.3 137.67C122.067 134.337 127.067 132.633 133.3 132.56H151.22C161.727 132.56 170.273 133.687 176.86 135.94L177.15 136.04C178.28 136.2 179.08 137.11 180.07 137.52C181.87 138.655 183.578 139.929 185.18 141.33C186.28 142.38 189.11 145.33 194.06 150H112.13Z" fill="#EAF2F5"/>
<path fill-rule="evenodd" clip-rule="evenodd" d="M139.56 132.55H162.33L154.59 150H147.37L139.56 132.55Z" fill="white"/>
<path fill-rule="evenodd" clip-rule="evenodd" d="M135.35 120C132.994 118.651 130.941 116.832 129.319 114.656C127.697 112.48 126.54 109.993 125.92 107.35C125.541 105.478 125.317 103.579 125.25 101.67C125.024 97.3413 125.974 93.0321 128 89.2C129.359 86.3917 131.368 83.948 133.86 82.0714C136.352 80.1949 139.256 78.9397 142.33 78.41C144.859 78.0069 147.425 77.8928 149.98 78.07C152.336 78.2686 154.636 78.892 156.77 79.91C160.095 81.4471 163.011 83.7453 165.283 86.6185C167.555 89.4917 169.119 92.8593 169.848 96.449C170.578 100.039 170.452 103.75 169.481 107.282C168.51 110.813 166.722 114.067 164.26 116.78C163.206 117.967 161.971 118.979 160.6 119.78C159.051 120.578 157.413 121.189 155.72 121.6C151.85 122.71 147.88 123.83 143.86 123.6C140.79 123.41 135.33 120.02 135.33 120.02" fill="#124052"/>
<path fill-rule="evenodd" clip-rule="evenodd" d="M136.8 120.77C136.406 120.59 136.026 120.4 135.66 120.2L136.8 120.77Z" fill="#124052"/>
<path d="M134.37 120.63C135.198 120.626 136.006 120.377 136.692 119.914C137.378 119.451 137.912 118.796 138.226 118.03C138.54 117.264 138.621 116.422 138.457 115.61C138.293 114.799 137.892 114.054 137.305 113.47C136.719 112.886 135.972 112.489 135.16 112.329C134.348 112.169 133.506 112.253 132.742 112.571C131.977 112.889 131.324 113.426 130.864 114.114C130.405 114.803 130.16 115.612 130.16 116.44C130.161 116.992 130.271 117.537 130.483 118.047C130.695 118.556 131.006 119.018 131.397 119.407C131.788 119.796 132.252 120.104 132.762 120.314C133.272 120.524 133.818 120.631 134.37 120.63Z" stroke="#124052" stroke-width="0.8"/>
<path fill-rule="evenodd" clip-rule="evenodd" d="M141.25 133.4V111.88H157.31V133.54" fill="white"/>
<path d="M141.25 133.4V111.88H157.31V133.54" stroke="#124052" stroke-width="0.8"/>
<path fill-rule="evenodd" clip-rule="evenodd" d="M145.84 92.85C147.343 92.8461 148.832 93.1384 150.223 93.7103C151.613 94.2822 152.877 95.1224 153.942 96.183C155.007 97.2436 155.853 98.5037 156.431 99.8913C157.009 101.279 157.307 102.767 157.31 104.27V113.78C157.31 116.822 156.102 119.739 153.951 121.891C151.8 124.042 148.882 125.25 145.84 125.25C142.798 125.25 139.881 124.042 137.73 121.891C135.579 119.739 134.37 116.822 134.37 113.78V104.27C134.378 101.235 135.591 98.3273 137.741 96.186C139.892 94.0446 142.805 92.8447 145.84 92.85Z" fill="white"/>
<path d="M145.84 92.85C147.343 92.8461 148.832 93.1384 150.223 93.7103C151.613 94.2822 152.877 95.1224 153.942 96.183C155.007 97.2436 155.853 98.5037 156.431 99.8913C157.009 101.279 157.307 102.767 157.31 104.27V113.78C157.31 116.822 156.102 119.739 153.951 121.891C151.8 124.042 148.882 125.25 145.84 125.25C142.798 125.25 139.881 124.042 137.73 121.891C135.579 119.739 134.37 116.822 134.37 113.78V104.27C134.378 101.235 135.591 98.3273 137.741 96.186C139.892 94.0446 142.805 92.8447 145.84 92.85V92.85Z" stroke="#124052" stroke-width="0.8"/>
<path d="M157.31 120.63C157.877 120.658 158.443 120.57 158.975 120.372C159.507 120.174 159.993 119.871 160.404 119.479C160.815 119.088 161.142 118.617 161.366 118.096C161.589 117.574 161.705 117.012 161.705 116.445C161.705 115.878 161.589 115.316 161.366 114.794C161.142 114.273 160.815 113.802 160.404 113.411C159.993 113.019 159.507 112.716 158.975 112.518C158.443 112.32 157.877 112.232 157.31 112.26" stroke="white" stroke-width="0.8"/>
<path d="M157.31 120.63C156.743 120.658 156.176 120.57 155.645 120.372C155.113 120.174 154.626 119.871 154.216 119.479C153.805 119.088 153.477 118.617 153.254 118.096C153.03 117.574 152.915 117.012 152.915 116.445C152.915 115.878 153.03 115.316 153.254 114.794C153.477 114.273 153.805 113.802 154.216 113.411C154.626 113.019 155.113 112.716 155.645 112.518C156.176 112.32 156.743 112.232 157.31 112.26" stroke="#124052" stroke-width="0.8"/>
<path fill-rule="evenodd" clip-rule="evenodd" d="M138.61 109.3C138.76 109.298 138.906 109.252 139.029 109.167C139.153 109.082 139.249 108.963 139.305 108.824C139.361 108.685 139.374 108.532 139.344 108.386C139.314 108.239 139.24 108.104 139.134 107.999C139.027 107.894 138.892 107.822 138.744 107.794C138.597 107.765 138.445 107.781 138.307 107.839C138.168 107.897 138.05 107.994 137.967 108.119C137.884 108.244 137.84 108.39 137.84 108.54C137.84 108.641 137.86 108.74 137.899 108.833C137.937 108.926 137.994 109.01 138.066 109.081C138.138 109.152 138.223 109.207 138.316 109.245C138.409 109.283 138.509 109.301 138.61 109.3Z" fill="#124052"/>
<path fill-rule="evenodd" clip-rule="evenodd" d="M151 109.3C151.15 109.3 151.297 109.255 151.422 109.172C151.547 109.088 151.644 108.97 151.702 108.831C151.759 108.692 151.774 108.539 151.745 108.392C151.716 108.244 151.643 108.109 151.537 108.003C151.431 107.896 151.295 107.824 151.148 107.795C151.001 107.765 150.848 107.78 150.709 107.838C150.57 107.895 150.451 107.993 150.368 108.118C150.284 108.243 150.24 108.39 150.24 108.54C150.24 108.742 150.32 108.935 150.462 109.077C150.605 109.22 150.798 109.3 151 109.3Z" fill="#124052"/>
<path d="M144.69 118.73C145.778 118.769 146.843 118.414 147.69 117.73C148.445 117 148.892 116.009 148.94 114.96" stroke="#124052" stroke-width="0.8"/>
<path d="M144.12 107.69V114.63" stroke="#124052" stroke-width="0.8"/>
<path d="M138.77 113.78C139.785 113.774 140.776 113.468 141.618 112.899C142.459 112.331 143.113 111.526 143.497 110.586C143.882 109.647 143.979 108.614 143.778 107.619C143.576 106.624 143.084 105.711 142.364 104.995C141.644 104.279 140.728 103.793 139.732 103.597C138.736 103.401 137.704 103.504 136.766 103.894C135.829 104.284 135.028 104.943 134.464 105.788C133.901 106.632 133.6 107.625 133.6 108.64C133.601 109.317 133.736 109.987 133.997 110.612C134.258 111.237 134.639 111.805 135.119 112.282C135.599 112.76 136.169 113.138 136.795 113.395C137.422 113.652 138.093 113.783 138.77 113.78V113.78Z" stroke="#124052" stroke-width="0.8"/>
<path d="M151 113.78C152.016 113.776 153.007 113.471 153.85 112.904C154.693 112.337 155.348 111.533 155.734 110.593C156.12 109.654 156.219 108.621 156.019 107.625C155.818 106.629 155.327 105.715 154.607 104.998C153.888 104.282 152.972 103.794 151.975 103.597C150.979 103.401 149.946 103.504 149.008 103.893C148.07 104.283 147.269 104.942 146.705 105.786C146.141 106.631 145.84 107.624 145.84 108.64C145.845 110.005 146.391 111.312 147.358 112.276C148.325 113.239 149.635 113.78 151 113.78Z" stroke="#124052" stroke-width="0.8"/>
<path d="M157.31 111.88C159.87 110.79 161 109.39 160.71 107.66C160.42 105.93 159.29 105.4 157.31 106.07V111.88Z" stroke="#124052" stroke-width="0.8"/>
<path fill-rule="evenodd" clip-rule="evenodd" d="M134.4 104.16C134.8 102.16 135.28 99.94 136.81 98.53C138.55 96.95 141.13 96.82 143.49 96.88C145.755 96.8763 148.012 97.1722 150.2 97.76C152.4 98.3524 154.367 99.6012 155.84 101.34C156.591 102.326 157.184 103.422 157.6 104.59C157.735 105.081 157.986 105.534 158.33 105.91C158.65 106.143 159.023 106.293 159.416 106.347C159.808 106.401 160.208 106.357 160.58 106.22C161.496 105.917 162.335 105.419 163.041 104.762C163.747 104.104 164.302 103.302 164.67 102.41C165.367 100.623 165.706 98.7174 165.67 96.8C165.766 95.1162 165.59 93.4279 165.15 91.8C164.55 90.0779 163.589 88.5037 162.332 87.1827C161.075 85.8617 159.55 84.8243 157.86 84.14C154.459 82.7905 150.801 82.21 147.15 82.44C143.776 82.5439 140.423 83.0134 137.15 83.84C134.751 84.3488 132.481 85.3425 130.48 86.76C129.784 87.2692 129.195 87.9116 128.75 88.65C128.265 89.6273 127.979 90.6913 127.91 91.78C127.75 93.24 127.69 94.71 127.62 96.17C127.468 97.2499 127.631 98.3507 128.09 99.34C128.69 100.164 129.497 100.816 130.43 101.23L134.62 103.53" fill="#124052"/>
<path fill-rule="evenodd" clip-rule="evenodd" d="M107.11 75C109.64 61.7 118.25 60.15 118.25 60.15H118.31C121.177 59.4465 124.118 59.084 127.07 59.07C129.18 59.07 135.14 59.07 145.76 59.07C157.347 59.07 167.47 59.1033 176.13 59.17V59.26C180.193 59.4278 184.036 61.1539 186.86 64.08C187.57 64.82 188.68 66.08 190.11 67.52C192.8 70.24 194.76 72.52 197.65 75.01L107.11 75Z" fill="#FCF4E1"/>
<path fill-rule="evenodd" clip-rule="evenodd" d="M151.43 3.92001C163.43 6.92001 165.29 13.8 165.29 25.49C165.29 27.28 163.87 42.86 169.34 48.8C174.81 54.74 183.6 50.8 189.76 56.98C193.36 60.61 194.38 65.1 192.92 70.4C191.7 69.18 190.79 68.2 190.11 67.51C188.68 66.06 187.57 64.81 186.86 64.07C184.036 61.1439 180.193 59.4178 176.13 59.25V59.16H175.6C167.06 59.08 157.113 59.05 145.76 59.07C135.14 59.07 129.18 59.07 127.07 59.07C124.117 59.084 121.177 59.4465 118.31 60.15H118.25C116.25 60.7076 114.421 61.756 112.93 63.2C112.75 60.87 114.21 58.68 115.01 56.98C120.01 46.35 125.19 54.09 125.19 40.98V20.85C125.19 14.52 127.57 11.05 134.95 10.43C137.93 4.14334 143.423 1.97334 151.43 3.92001Z" fill="#124052"/>
<path fill-rule="evenodd" clip-rule="evenodd" d="M137.95 59.49V34.45H155.31V59.49" fill="white"/>
<path d="M137.95 59.49V34.45H155.31V59.49" stroke="#124052" stroke-width="0.8"/>
<path fill-rule="evenodd" clip-rule="evenodd" d="M142.73 13.72C144.41 13.7448 146.069 14.101 147.612 14.7682C149.154 15.4354 150.55 16.4006 151.719 17.6083C152.887 18.8161 153.806 20.2426 154.422 21.8062C155.039 23.3698 155.34 25.0397 155.31 26.72V37.47C155.377 39.1643 155.102 40.8547 154.5 42.4399C153.898 44.0251 152.983 45.4724 151.808 46.695C150.633 47.9176 149.223 48.8903 147.663 49.5548C146.103 50.2192 144.425 50.5617 142.73 50.5617C141.034 50.5617 139.356 50.2192 137.796 49.5548C136.236 48.8903 134.826 47.9176 133.652 46.695C132.477 45.4724 131.561 44.0251 130.959 42.4399C130.357 40.8547 130.082 39.1643 130.15 37.47V26.68C130.119 24.9997 130.421 23.3298 131.037 21.7662C131.653 20.2026 132.572 18.7761 133.741 17.5683C134.909 16.3606 136.305 15.3954 137.848 14.7282C139.39 14.061 141.049 13.7048 142.73 13.68" fill="white"/>
<path d="M142.73 13.72C144.41 13.7447 146.069 14.1009 147.612 14.7682C149.154 15.4354 150.55 16.4006 151.719 17.6083C152.887 18.8161 153.806 20.2426 154.422 21.8062C155.039 23.3698 155.34 25.0396 155.31 26.72V37.47C155.377 39.1642 155.102 40.8547 154.5 42.4399C153.898 44.0251 152.983 45.4724 151.808 46.695C150.633 47.9176 149.223 48.8903 147.663 49.5548C146.103 50.2192 144.425 50.5617 142.73 50.5617C141.034 50.5617 139.356 50.2192 137.796 49.5548C136.236 48.8903 134.826 47.9176 133.652 46.695C132.477 45.4724 131.561 44.0251 130.959 42.4399C130.357 40.8547 130.082 39.1642 130.15 37.47V26.68C130.125 25.003 130.43 23.3374 131.049 21.7785C131.667 20.2195 132.587 18.7977 133.755 17.5942C134.923 16.3907 136.317 15.4291 137.857 14.7644C139.397 14.0997 141.053 13.7448 142.73 13.72V13.72Z" stroke="#124052" stroke-width="0.8"/>
<path fill-rule="evenodd" clip-rule="evenodd" d="M148.45 29.5C143.5 27.34 142.1 23.79 140 21.7C137.9 19.61 135.6 18.92 133.54 19.98C130.1 21.75 130.14 28.53 128.99 25.98C128.23 24.26 128.23 19.76 128.99 12.48L154.88 11.6L158.4 26.6C155.067 30.02 151.733 31.02 148.4 29.6" fill="#124052"/>
<path fill-rule="evenodd" clip-rule="evenodd" d="M134.08 32.39C134.252 32.39 134.42 32.339 134.563 32.2434C134.706 32.1478 134.818 32.0119 134.884 31.853C134.95 31.694 134.967 31.5191 134.933 31.3503C134.9 31.1815 134.817 31.0265 134.695 30.9048C134.573 30.7832 134.418 30.7003 134.25 30.6667C134.081 30.6332 133.906 30.6504 133.747 30.7162C133.588 30.7821 133.452 30.8936 133.357 31.0367C133.261 31.1797 133.21 31.348 133.21 31.52C133.21 31.7508 133.302 31.972 133.465 32.1352C133.628 32.2984 133.849 32.39 134.08 32.39Z" fill="#124052"/>
<path fill-rule="evenodd" clip-rule="evenodd" d="M148.13 32.39C148.302 32.39 148.47 32.339 148.613 32.2434C148.756 32.1478 148.868 32.0119 148.934 31.853C148.999 31.694 149.017 31.5191 148.983 31.3503C148.949 31.1815 148.867 31.0265 148.745 30.9048C148.623 30.7832 148.468 30.7003 148.299 30.6667C148.131 30.6332 147.956 30.6504 147.797 30.7162C147.638 30.7821 147.502 30.8936 147.406 31.0367C147.311 31.1797 147.26 31.348 147.26 31.52C147.26 31.6343 147.282 31.7474 147.326 31.853C147.37 31.9585 147.434 32.0544 147.515 32.1352C147.595 32.216 147.691 32.2801 147.797 32.3238C147.902 32.3675 148.016 32.39 148.13 32.39Z" fill="#124052"/>
<path d="M141 43.09C142.222 43.1099 143.41 42.6913 144.35 41.91C145.211 41.0863 145.72 39.9609 145.77 38.77" stroke="#124052" stroke-width="0.8"/>
<path d="M140.34 30.56V38.44" stroke="#124052" stroke-width="0.8"/>
<path fill-rule="evenodd" clip-rule="evenodd" d="M155.31 35.31C158.21 34.0767 159.497 32.4833 159.17 30.53C158.84 28.53 157.56 27.97 155.31 28.72V35.31Z" fill="white"/>
<path d="M155.31 35.31C158.21 34.0767 159.497 32.4833 159.17 30.53C158.84 28.53 157.56 27.97 155.31 28.72V35.31Z" stroke="#124052" stroke-width="0.8"/>
<path d="M0 75H100.5V150H6C4.4087 150 2.88258 149.368 1.75736 148.243C0.632141 147.117 0 145.591 0 144L0 75Z" fill="#BAF5E7"/>
<path d="M50.2501 130.72C63.4718 130.72 74.1901 120.033 74.1901 106.85C74.1901 93.667 63.4718 82.98 50.2501 82.98C37.0284 82.98 26.3101 93.667 26.3101 106.85C26.3101 120.033 37.0284 130.72 50.2501 130.72Z" fill="white" stroke="#124052" stroke-width="0.8"/>
<path fill-rule="evenodd" clip-rule="evenodd" d="M25.6698 117.67C24.8398 117.86 24.0398 118.05 23.2698 118.26V118.34C21.0021 118.87 18.913 119.986 17.211 121.576C15.5089 123.165 14.2535 125.174 13.5698 127.4C12.4298 130.67 4.56982 149.93 4.56982 149.93L95.9998 150C95.9998 150 87.9998 130.61 86.9098 127.4C86.2288 125.174 84.9755 123.166 83.275 121.576C81.5746 119.986 79.4866 118.87 77.2198 118.34V118.26C76.3132 118.02 75.3632 117.79 74.3698 117.57" fill="white"/>
<path d="M23.45 149.93L23.25 127.32L23.45 149.93Z" fill="#EAF2F5"/>
<path d="M23.45 149.93L23.25 127.32" stroke="#124052" stroke-width="0.8"/>
<path d="M75.2 149.93L75 127.32L75.2 149.93Z" fill="#EAF2F5"/>
<path d="M75.2 149.93L75 127.32" stroke="#124052" stroke-width="0.8"/>
<path d="M33.7502 114.58C33.7502 114.94 33.6702 115.31 33.6502 115.71C33.5996 115.331 33.6337 114.945 33.7502 114.58Z" fill="white"/>
<path d="M28.5001 118.51C32.0127 118.51 34.8601 114.91 34.8601 110.47C34.8601 106.03 32.0127 102.43 28.5001 102.43C24.9876 102.43 22.1401 106.03 22.1401 110.47C22.1401 114.91 24.9876 118.51 28.5001 118.51Z" fill="white"/>
<path d="M72.0402 118.51C75.5527 118.51 78.4002 114.91 78.4002 110.47C78.4002 106.03 75.5527 102.43 72.0402 102.43C68.5276 102.43 65.6802 106.03 65.6802 110.47C65.6802 114.91 68.5276 118.51 72.0402 118.51Z" fill="white"/>
<path d="M58.51 98H42C34.8 98 32 102.24 32 108.15C32 116.87 43.43 120.58 50.24 120.58C57.05 120.58 68.48 116.87 68.48 108.15C68.49 102.28 65.72 98 58.51 98Z" fill="#195072"/>
<path d="M41.3702 99.67L38.9102 107.81C38.7001 108.492 38.2289 109.063 37.5993 109.398C36.9698 109.733 36.2331 109.806 35.5502 109.6C35.0483 109.453 34.601 109.161 34.2647 108.761C33.9284 108.361 33.7181 107.87 33.6602 107.35C33.9102 101.18 37.8602 99.81 41.3702 99.67Z" fill="white"/>
<path d="M74.1901 107.14C74.1901 100.791 71.6678 94.7015 67.1782 90.2119C62.6886 85.7223 56.5993 83.2 50.2501 83.2C43.9008 83.2 37.8115 85.7223 33.3219 90.2119C28.8323 94.7015 26.3101 100.791 26.3101 107.14" stroke="#124052" stroke-width="0.8"/>
<path d="M26.7201 102.75C24.0801 103.75 22.1401 106.81 22.1401 110.47C22.1401 114.91 24.9901 118.47 28.5001 118.47" stroke="#124052" stroke-width="0.8"/>
<path d="M73.7199 102.43C76.3699 103.43 78.2999 106.49 78.2999 110.15C78.2999 114.59 75.4499 118.15 71.9399 118.15" stroke="#124052" stroke-width="0.8"/>
<path d="M31.1802 121.56C33.4198 124.497 36.3071 126.878 39.6174 128.517C42.9277 130.155 46.5715 131.008 50.2652 131.008C53.9589 131.008 57.6027 130.155 60.913 128.517C64.2232 126.878 67.1106 124.497 69.3502 121.56" stroke="#124052" stroke-width="0.8"/>
<path d="M92.7701 142.3L86.6701 144.73L82.5601 134.48L88.6601 132.05L92.7701 142.3Z" fill="#EAF2F5" stroke="#124052" stroke-width="0.8"/>
<path fill-rule="evenodd" clip-rule="evenodd" d="M0 75H100.5V0H6C4.4087 0 2.88258 0.632141 1.75736 1.75736C0.632141 2.88258 0 4.4087 0 6L0 75Z" fill="#FFD98C"/>
<path fill-rule="evenodd" clip-rule="evenodd" d="M26.8798 64.08V64.18C25.5198 64.53 19.9298 66.4 17.0898 74.98H94.8698C94.0298 73.71 93.3399 72.7 92.7198 71.9C90.4919 69.1689 87.8934 66.7624 84.9998 64.75C82.5198 63.07 74.4298 60.37 57.3998 60.37C47.1063 60.2343 36.8411 61.4822 26.8798 64.08Z" fill="#E6F9FC"/>
<path fill-rule="evenodd" clip-rule="evenodd" d="M65.14 74.87V60.51H47V74.87H65.14Z" fill="white"/>
<path d="M46.7998 61.3L55.8298 69.58L46.7998 74.01V61.3Z" stroke="#124052" stroke-width="0.8"/>
<path d="M65.0101 61.26L56.0601 69.54L65.0101 74.01V61.26Z" stroke="#124052" stroke-width="0.8"/>
<path fill-rule="evenodd" clip-rule="evenodd" d="M65.0698 60.48C64.9912 62.8557 63.9923 65.1078 62.284 66.7606C60.5757 68.4134 58.2918 69.3374 55.9148 69.3374C53.5378 69.3374 51.2539 68.4134 49.5456 66.7606C47.8372 65.1078 46.8383 62.8557 46.7598 60.48H65.0698Z" fill="white"/>
<path d="M64.9995 60.48C65.2295 64.99 60.8696 69.48 55.8596 69.48C54.6718 69.4892 53.4939 69.2632 52.3939 68.8151C51.2939 68.3669 50.2934 67.7055 49.4503 66.8688C48.6071 66.0322 47.9379 65.0369 47.4813 63.9404C47.0246 62.8439 46.7895 61.6678 46.7896 60.48" stroke="#124052" stroke-width="0.8"/>
<path d="M55.8498 69.7L55.7998 74.88" stroke="#124052" stroke-width="0.8"/>
<path fill-rule="evenodd" clip-rule="evenodd" d="M46.7998 61.18V39.21H64.9398L65.0098 61.18" fill="white"/>
<path d="M46.7998 61.18V39.21H64.9398L65.0098 61.18" stroke="#124052" stroke-width="0.8"/>
<path fill-rule="evenodd" clip-rule="evenodd" d="M58.6098 16.68C55.4793 16.6694 52.4726 17.9021 50.2506 20.1072C48.0286 22.3124 46.773 25.3095 46.7598 28.44V40.3C46.759 41.8563 47.0651 43.3975 47.6605 44.8354C48.2559 46.2734 49.129 47.5798 50.2298 48.68C52.4831 50.9126 55.5179 52.1789 58.6898 52.21C61.8008 52.2225 64.7897 50.9996 66.9998 48.81C68.0885 47.7351 68.9538 46.4554 69.5459 45.0446C70.138 43.6339 70.4452 42.12 70.4498 40.59V28.42C70.453 26.877 70.1497 25.3487 69.5575 23.9239C68.9652 22.499 68.0958 21.2061 66.9998 20.12C65.9023 19.026 64.6 18.1591 63.1672 17.5688C61.7344 16.9786 60.1994 16.6765 58.6498 16.68" fill="white"/>
<path d="M58.6098 16.68C55.4793 16.6694 52.4726 17.9021 50.2506 20.1072C48.0286 22.3124 46.773 25.3095 46.7598 28.44V40.3C46.759 41.8563 47.0651 43.3975 47.6605 44.8354C48.2559 46.2734 49.129 47.5798 50.2298 48.68C52.4831 50.9126 55.5179 52.1789 58.6898 52.21C61.8008 52.2225 64.7897 50.9996 66.9998 48.81C68.0885 47.7351 68.9538 46.4554 69.5459 45.0446C70.138 43.6339 70.4452 42.12 70.4498 40.59V28.42C70.453 26.877 70.1497 25.3487 69.5575 23.9239C68.9652 22.499 68.0958 21.2061 66.9998 20.12C65.8976 19.0212 64.5887 18.1516 63.1487 17.5611C61.7087 16.9707 60.1661 16.6712 58.6098 16.68V16.68Z" stroke="#124052" stroke-width="0.8"/>
<path d="M59.52 33.52V39.45" stroke="#124052" stroke-width="0.8"/>
<path fill-rule="evenodd" clip-rule="evenodd" d="M70.19 39.43V40.59C70.1715 43.6312 68.947 46.5408 66.7852 48.68C64.6235 50.8193 61.7012 52.0133 58.66 52H58.55C55.4765 51.9606 52.5419 50.7133 50.3807 48.5277C48.2194 46.3421 47.005 43.3937 47 40.32V39.49L70.19 39.43Z" fill="#004154"/>
<path fill-rule="evenodd" clip-rule="evenodd" d="M53.6301 32.87C53.7922 32.87 53.9508 32.8219 54.0856 32.7318C54.2205 32.6417 54.3256 32.5136 54.3876 32.3638C54.4497 32.2139 54.4659 32.0491 54.4343 31.89C54.4027 31.7309 54.3246 31.5848 54.2099 31.4702C54.0952 31.3555 53.9491 31.2774 53.79 31.2457C53.631 31.2141 53.4661 31.2303 53.3163 31.2924C53.1664 31.3545 53.0384 31.4596 52.9483 31.5944C52.8582 31.7293 52.8101 31.8878 52.8101 32.05C52.8127 32.2667 52.8999 32.4737 53.0531 32.6269C53.2063 32.7802 53.4134 32.8674 53.6301 32.87Z" fill="#004154"/>
<path fill-rule="evenodd" clip-rule="evenodd" d="M64.3498 32.87C64.512 32.87 64.6705 32.8219 64.8054 32.7318C64.9402 32.6417 65.0453 32.5136 65.1074 32.3638C65.1694 32.2139 65.1857 32.0491 65.154 31.89C65.1224 31.7309 65.0443 31.5848 64.9296 31.4702C64.8149 31.3555 64.6688 31.2774 64.5098 31.2457C64.3507 31.2141 64.1858 31.2303 64.036 31.2924C63.8862 31.3545 63.7581 31.4596 63.668 31.5944C63.5779 31.7293 63.5298 31.8878 63.5298 32.05C63.5324 32.2667 63.6196 32.4737 63.7728 32.6269C63.926 32.7802 64.1331 32.8674 64.3498 32.87Z" fill="#004154"/>
<path fill-rule="evenodd" clip-rule="evenodd" d="M46.5798 38.19C46.5798 38.19 46.6398 31.65 46.5798 31.64C44.7798 31.64 43.3198 32.58 43.3198 34.39C43.3198 36.2 44.7798 38.19 46.5798 38.19Z" fill="white" stroke="#124052" stroke-width="0.8"/>
<path fill-rule="evenodd" clip-rule="evenodd" d="M56.5097 43.63C57.3997 44.19 58.5097 44.04 59.7297 43.17L55.5897 40.72C55.4071 41.2392 55.398 41.8038 55.564 42.3286C55.7299 42.8534 56.0618 43.3101 56.5097 43.63Z" fill="white"/>
<path d="M55.5898 40.72C55.3198 42.1 55.5898 43.06 56.5098 43.62C57.4298 44.18 58.5098 44.03 59.7298 43.17L55.5898 40.72Z" stroke="#124052" stroke-width="0.8"/>
<path fill-rule="evenodd" clip-rule="evenodd" d="M43.6299 15.53C43.6299 10.66 46.3599 7.09001 53.6299 7.04001C60.8999 6.99001 74.1399 14.53 74.1399 19.04C73.9808 21.6074 74.8272 24.1358 76.4999 26.09C74.6415 27.1278 72.5484 27.6727 70.4199 27.6727C68.2914 27.6727 66.1983 27.1278 64.3399 26.09C58.5299 23 57.6199 19.9 53.6399 19.9C49.6599 19.9 47.4699 24.31 47.0399 26.69C46.8005 28.3655 46.7001 30.058 46.7399 31.75C46.1275 31.7401 45.5182 31.8383 44.9399 32.04C44.4605 32.1924 44.0155 32.4369 43.6299 32.76V15.53Z" fill="#004154"/>
<path fill-rule="evenodd" clip-rule="evenodd" d="M72.0001 16.88C72.7706 16.8721 73.5214 16.6362 74.1579 16.202C74.7944 15.7678 75.288 15.1548 75.5764 14.4403C75.8649 13.7259 75.9353 12.942 75.7787 12.1876C75.6221 11.4332 75.2455 10.7421 74.6965 10.2014C74.1476 9.66082 73.4507 9.29492 72.694 9.14992C71.9373 9.00492 71.1546 9.08731 70.4447 9.38669C69.7347 9.68607 69.1294 10.189 68.705 10.8321C68.2806 11.4752 68.0562 12.2296 68.0601 13C68.0707 14.0362 68.4911 15.026 69.2294 15.7531C69.9677 16.4802 70.9639 16.8854 72.0001 16.88Z" fill="#004154"/>
<path fill-rule="evenodd" clip-rule="evenodd" d="M77.4101 25.74C81.6101 23.23 83.5901 18.84 81.8301 15.93C80.0701 13.02 75.2401 12.69 71.0001 15.2C66.7601 17.71 64.8701 22.1 66.6301 25C68.3901 27.9 73.2201 28.24 77.4101 25.73" fill="#004154"/>
<path d="M96.0001 150C96.0001 150 88.0001 130.61 86.9101 127.4C86.2291 125.174 84.9758 123.166 83.2753 121.576C81.5749 119.986 79.4869 118.87 77.2201 118.34V118.26C76.3134 118.02 75.3635 117.79 74.3701 117.57" stroke="#124052" stroke-width="0.8"/>
<path d="M25.6698 117.67C24.8398 117.86 24.0398 118.05 23.2698 118.26V118.34C21.0021 118.87 18.913 119.986 17.211 121.576C15.5089 123.165 14.2535 125.174 13.5698 127.4C12.4298 130.67 4.56982 149.93 4.56982 149.93" stroke="#124052" stroke-width="0.8"/>
<path fill-rule="evenodd" clip-rule="evenodd" d="M8.60023 56.31C10.6002 56.31 11.0302 57.83 11.0302 59.84V67.34C11.0302 70.78 12.0302 73.34 13.5702 75.01H41.6302C46.1802 70.78 45.1302 62.71 43.7602 58.46L34.2002 33.86C34.1075 33.6141 33.9441 33.4013 33.7305 33.2482C33.5169 33.0951 33.2628 33.0088 33.0002 33C32.7089 33.0028 32.4269 33.1027 32.1987 33.2838C31.9705 33.4649 31.8092 33.7169 31.7402 34L30.7402 37.18H27.5102L26.5102 34C26.4457 33.7244 26.2937 33.4771 26.0769 33.2951C25.8601 33.1131 25.5902 33.0062 25.3076 32.9905C25.025 32.9747 24.7449 33.0509 24.5092 33.2076C24.2735 33.3644 24.095 33.5933 24.0002 33.86L15.4502 58.69C15.3702 59.11 15.1802 59.32 14.8802 59.32C14.5802 59.32 14.4202 58.91 14.4102 58.08C14.4361 56.613 13.9182 55.1884 12.9563 54.0805C11.9943 52.9727 10.6563 52.2601 9.20023 52.08C8.39863 51.9976 7.58865 52.084 6.82248 52.3337C6.0563 52.5833 5.35092 52.9907 4.75176 53.5296C4.15261 54.0685 3.67297 54.7268 3.34374 55.4623C3.01451 56.1979 2.84299 56.9942 2.84023 57.8V60.64C2.81288 61.1408 2.98466 61.6321 3.31811 62.0068C3.65156 62.3814 4.11963 62.6091 4.62023 62.64C5.12084 62.6091 5.5889 62.3814 5.92235 62.0068C6.2558 61.6321 6.42759 61.1408 6.40023 60.64V59.32C6.40023 57.83 7.00023 56.31 8.60023 56.31Z" fill="white"/>
<path d="M15.5199 58.44C14.0499 62.67 13.5199 65.57 13.8599 67.13" stroke="#124052" stroke-width="0.8"/>
<path d="M28.91 47.63C28.9593 47.7802 28.9724 47.94 28.948 48.0962C28.9237 48.2524 28.8627 48.4006 28.77 48.5287C28.6773 48.6567 28.5555 48.761 28.4147 48.8329C28.2739 48.9048 28.1181 48.9423 27.96 48.9423C27.8019 48.9423 27.646 48.9048 27.5052 48.8329C27.3644 48.761 27.2427 48.6567 27.1499 48.5287C27.0572 48.4006 26.9962 48.2524 26.9719 48.0962C26.9475 47.94 26.9606 47.7802 27.01 47.63" stroke="#124052" stroke-width="0.8"/>
<path d="M31.0799 47.63C31.1292 47.7802 31.1423 47.94 31.118 48.0962C31.0936 48.2524 31.0326 48.4006 30.9399 48.5287C30.8472 48.6567 30.7254 48.761 30.5846 48.8329C30.4438 48.9048 30.288 48.9423 30.1299 48.9423C29.9718 48.9423 29.8159 48.9048 29.6751 48.8329C29.5343 48.761 29.4126 48.6567 29.3199 48.5287C29.2272 48.4006 29.1661 48.2524 29.1418 48.0962C29.1175 47.94 29.1305 47.7802 29.1799 47.63" stroke="#124052" stroke-width="0.8"/>
<path fill-rule="evenodd" clip-rule="evenodd" d="M29.3998 47.49L30.1198 46.81C30.1904 46.7432 30.2386 46.6561 30.2577 46.5608C30.2768 46.4654 30.2658 46.3665 30.2263 46.2776C30.1868 46.1888 30.1208 46.1144 30.0372 46.0647C29.9536 46.0149 29.8567 45.9923 29.7598 46H28.3298C28.2329 45.9923 28.1359 46.0149 28.0524 46.0647C27.9688 46.1144 27.9028 46.1888 27.8633 46.2776C27.8238 46.3665 27.8128 46.4654 27.8319 46.5608C27.851 46.6561 27.8992 46.7432 27.9698 46.81L28.6898 47.49C28.7872 47.5778 28.9137 47.6265 29.0448 47.6265C29.1759 47.6265 29.3024 47.5778 29.3998 47.49Z" fill="#004154"/>
<path fill-rule="evenodd" clip-rule="evenodd" d="M26.1998 43.69C26.1998 43.8704 26.1282 44.0433 26.0007 44.1708C25.8732 44.2984 25.7002 44.37 25.5198 44.37C25.3395 44.37 25.1665 44.2984 25.039 44.1708C24.9115 44.0433 24.8398 43.8704 24.8398 43.69C24.8398 43.5097 24.9115 43.3367 25.039 43.2092C25.1665 43.0817 25.3395 43.01 25.5198 43.01C25.7002 43.01 25.8732 43.0817 26.0007 43.2092C26.1282 43.3367 26.1998 43.5097 26.1998 43.69Z" fill="#004154"/>
<path d="M37.0601 46.77L34.8901 47.4" stroke="#124052" stroke-width="0.8"/>
<path d="M37.0601 49.57L34.8901 48.94" stroke="#124052" stroke-width="0.8"/>
<path d="M21.04 46.77L23.21 47.4" stroke="#124052" stroke-width="0.8"/>
<path d="M21.04 49.57L23.21 48.94" stroke="#124052" stroke-width="0.8"/>
<path d="M28.9102 63.63V72.68C28.9102 72.9472 28.9628 73.2119 29.0651 73.4588C29.1673 73.7057 29.3172 73.93 29.5062 74.119C29.6952 74.3079 29.9195 74.4578 30.1664 74.5601C30.4133 74.6624 30.6779 74.715 30.9452 74.715C31.2124 74.715 31.477 74.6624 31.7239 74.5601C31.9708 74.4578 32.1951 74.3079 32.3841 74.119C32.5731 73.93 32.723 73.7057 32.8253 73.4588C32.9275 73.2119 32.9802 72.9472 32.9802 72.68V65.8" fill="white"/>
<path d="M28.9102 63.63V72.68C28.9102 72.9472 28.9628 73.2119 29.0651 73.4588C29.1673 73.7057 29.3172 73.93 29.5062 74.119C29.6952 74.3079 29.9195 74.4578 30.1664 74.5601C30.4133 74.6624 30.6779 74.715 30.9452 74.715C31.2124 74.715 31.477 74.6624 31.7239 74.5601C31.9708 74.4578 32.1951 74.3079 32.3841 74.119C32.5731 73.93 32.723 73.7057 32.8253 73.4588C32.9275 73.2119 32.9802 72.9472 32.9802 72.68V65.8" stroke="#124052" stroke-width="0.8"/>
<path d="M24.8398 65.8V72.68C24.8398 73.2197 25.0542 73.7373 25.4359 74.1189C25.8175 74.5006 26.3351 74.715 26.8748 74.715C27.4146 74.715 27.9322 74.5006 28.3138 74.1189C28.6954 73.7373 28.9098 73.2197 28.9098 72.68V69.06" fill="white"/>
<path d="M24.8398 65.8V72.68C24.8398 73.2197 25.0542 73.7373 25.4359 74.1189C25.8175 74.5006 26.3351 74.715 26.8748 74.715C27.4146 74.715 27.9322 74.5006 28.3138 74.1189C28.6954 73.7373 28.9098 73.2197 28.9098 72.68V69.06" stroke="#124052" stroke-width="0.8" stroke-linecap="round" stroke-linejoin="round"/>
<path fill-rule="evenodd" clip-rule="evenodd" d="M36.1102 39.28C35.4409 39.1549 34.7503 39.212 34.1105 39.4453C33.4708 39.6786 32.9055 40.0794 32.4738 40.606C32.0421 41.1325 31.7597 41.7654 31.6564 42.4384C31.553 43.1115 31.6323 43.7999 31.8861 44.4318C32.1399 45.0636 32.5589 45.6157 33.0991 46.0302C33.6393 46.4447 34.281 46.7064 34.957 46.788C35.633 46.8696 36.3185 46.768 36.9418 46.4939C37.5652 46.2199 38.1034 45.7833 38.5002 45.23L36.1102 39.28Z" fill="#A6AEFF"/>
<path d="M41.6302 75C46.1802 70.77 45.1302 62.7 43.7602 58.45L34.2002 33.86C34.1075 33.6141 33.9441 33.4013 33.7305 33.2482C33.5169 33.0951 33.2628 33.0088 33.0002 33C32.7089 33.0028 32.4269 33.1027 32.1987 33.2838C31.9705 33.4649 31.8092 33.7169 31.7402 34L30.7402 37.18H27.5102L26.5102 34C26.4457 33.7244 26.2937 33.4771 26.0769 33.2951C25.8601 33.1131 25.5902 33.0062 25.3076 32.9905C25.025 32.9747 24.7449 33.0509 24.5092 33.2076C24.2735 33.3644 24.095 33.5933 24.0002 33.86L15.4502 58.69C15.3702 59.11 15.1802 59.32 14.8802 59.32C14.5802 59.32 14.4202 58.91 14.4102 58.08C14.4361 56.613 13.9182 55.1884 12.9563 54.0805C11.9943 52.9727 10.6563 52.2601 9.20023 52.08C8.39863 51.9976 7.58865 52.084 6.82248 52.3337C6.0563 52.5833 5.35092 52.9907 4.75176 53.5296C4.15261 54.0685 3.67297 54.7268 3.34374 55.4623C3.01451 56.1979 2.84299 56.9942 2.84023 57.8V60.64C2.81288 61.1408 2.98466 61.6321 3.31811 62.0068C3.65156 62.3814 4.11963 62.6091 4.62023 62.64C5.12084 62.6091 5.5889 62.3814 5.92235 62.0068C6.2558 61.6321 6.42759 61.1408 6.40023 60.64V59.32C6.40023 57.83 7.04023 56.32 8.60023 56.32C10.6002 56.32 11.0302 57.84 11.0302 59.85V67.35C11.0302 70.79 12.0302 73.35 13.5702 75.02" stroke="#124052" stroke-width="0.8"/>
<path fill-rule="evenodd" clip-rule="evenodd" d="M33.5299 43.69C33.5299 43.8704 33.4583 44.0433 33.3308 44.1708C33.2032 44.2984 33.0303 44.37 32.8499 44.37C32.6696 44.37 32.4966 44.2984 32.3691 44.1708C32.2416 44.0433 32.1699 43.8704 32.1699 43.69C32.1699 43.5097 32.2416 43.3367 32.3691 43.2092C32.4966 43.0817 32.6696 43.01 32.8499 43.01C33.0303 43.01 33.2032 43.0817 33.3308 43.2092C33.4583 43.3367 33.5299 43.5097 33.5299 43.69Z" fill="#004154"/>
</svg>
