<svg width="36" height="36" viewBox="0 0 36 36" fill="none" xmlns="http://www.w3.org/2000/svg">
<path fill-rule="evenodd" clip-rule="evenodd" d="M18 36C27.9411 36 36 27.9411 36 18C36 8.05887 27.9411 0 18 0C8.05887 0 0 8.05887 0 18C0 27.9411 8.05887 36 18 36Z" fill="#EDFAF4"/>
<path fill-rule="evenodd" clip-rule="evenodd" d="M22 12H24C25.104 12 26 12.895 26 14V21H10V14C10 12.895 10.896 12 12 12H14V10.5C14 10.225 14.225 10 14.5 10C14.775 10 15 10.225 15 10.5V12H21V10.5C21 10.225 21.225 10 21.5 10C21.775 10 22 10.225 22 10.5V12ZM10 22V24C10 25.105 10.896 26 12 26H24C25.104 26 26 25.105 26 24V22H10Z" fill="#00AB50"/>
</svg>