<?xml version="1.0" standalone="no"?>
<!DOCTYPE svg PUBLIC "-//W3C//DTD SVG 1.1//EN" "http://www.w3.org/Graphics/SVG/1.1/DTD/svg11.dtd" >
<svg xmlns="http://www.w3.org/2000/svg" id="meetings_24">
<path unicode="&#xe9a9;" transform="scale(1,-1)" id="meetings_24" data-tags="meetings_24" d="M875.989 21.333h-727.979c-34.56 0-62.677 28.032-62.677 62.549v108.117h853.333v-108.117c0-34.517-28.117-62.549-62.677-62.549zM148.011 789.333h727.979c34.56 0 62.677-28.032 62.677-62.549v-492.117h-853.333v492.117c0 34.517 28.117 62.549 62.677 62.549zM875.989 832h-107.989v64c0 11.776-9.557 21.333-21.333 21.333-11.819 0-21.333-9.557-21.333-21.333v-64h-426.667v64c0 11.776-9.557 21.333-21.333 21.333-11.819 0-21.333-9.557-21.333-21.333v-64h-107.989c-58.112 0-105.344-47.189-105.344-105.216v-642.901c0-58.027 47.232-105.216 105.344-105.216h727.979c58.069 0 105.344 47.189 105.344 105.216v642.901c0 58.027-47.275 105.216-105.344 105.216z" />
</svg>
