<?xml version="1.0" encoding="UTF-8"?>
<svg width="13px" height="10px" viewBox="0 0 13 10" version="1.1" xmlns="http://www.w3.org/2000/svg" xmlns:xlink="http://www.w3.org/1999/xlink">
    <!-- Generator: Sketch 59.1 (86144) - https://sketch.com -->
    <title>meeting@1x</title>
    <desc>Created with Sketch.</desc>
    <g id="Presence-Visual-Refresh" stroke="none" stroke-width="1" fill="none" fill-rule="evenodd">
        <g id="Avatar-availability-updates" transform="translate(-217.000000, -617.000000)" fill="#24AB31">
            <g id="Group" transform="translate(150.000000, 383.000000)">
                <g id="avatar" transform="translate(42.000000, 210.000000)">
                    <g id="availability">
                        <g id="meeting" transform="translate(25.000000, 24.000000)">
                            <path d="M12.4534,2.0676 C12.1204,1.9306 11.7414,2.0056 11.4924,2.2576 L10.0004,3.7326 L10.0004,1.4976 C10.0004,0.6716 9.3294,-0.0004 8.5034,-0.0004 L1.4974,-0.0004 C0.6714,-0.0004 0.0004,0.6706 0.0004,1.4976 L0.0004,8.5026 C0.0004,9.3286 0.6704,9.9996 1.4974,9.9996 L8.5034,9.9996 C9.3284,9.9996 10.0004,9.3296 10.0004,8.5026 L10.0004,6.2686 L11.4894,7.7406 C11.6594,7.9106 11.8844,7.9996 12.1144,7.9996 C12.2284,7.9996 12.3444,7.9776 12.4534,7.9326 C12.7854,7.7946 13.0004,7.4726 13.0004,7.1126 L13.0004,2.8886 C13.0004,2.5286 12.7854,2.2066 12.4534,2.0676 L12.4534,2.0676 Z" id="fill"></path>
                        </g>
                    </g>
                </g>
            </g>
        </g>
    </g>
</svg>