<?xml version="1.0" standalone="no"?>
<!DOCTYPE svg PUBLIC "-//W3C//DTD SVG 1.1//EN" "http://www.w3.org/Graphics/SVG/1.1/DTD/svg11.dtd" >
<svg xmlns="http://www.w3.org/2000/svg" id="mention_16">
<path unicode="&#xe9ae;" transform="scale(1,-1)" id="mention_16" data-tags="mention_16" d="M512 320c-70.592 0-128 57.408-128 128s57.408 128 128 128c70.592 0 128-57.408 128-128s-57.408-128-128-128zM672 640c-17.664 0-32-14.336-32-32v-17.92c-34.048 30.656-78.656 49.92-128 49.92-105.856 0-192-86.144-192-192s86.144-192 192-192c66.752 0 125.568 34.368 160 86.272 34.432-51.904 93.248-86.272 160-86.272 105.856 0 192 86.144 192 192 0 282.304-229.696 512-512 512s-512-229.696-512-512c0-282.304 229.696-512 512-512 129.984 0 253.888 48.768 348.928 137.344 12.928 12.032 13.632 32.256 1.6 45.184s-32.32 13.632-45.184 1.6c-83.2-77.44-191.616-120.128-305.344-120.128-247.040 0-448 200.96-448 448s200.96 448 448 448c247.040 0 448-200.96 448-448 0-70.592-57.408-128-128-128s-128 57.408-128 128v160c0 17.664-14.336 32-32 32z" />
</svg>
