<svg width="200" height="151" viewBox="0 0 200 151" fill="none" xmlns="http://www.w3.org/2000/svg">
<path fill-rule="evenodd" clip-rule="evenodd" d="M105.75 109.63C116.69 90.9633 123.11 80.5367 125.01 78.35C127.109 76.0329 129.814 74.3494 132.82 73.49L139.19 72.49C139.201 73.4795 138.845 74.4379 138.19 75.18C137.851 75.6549 137.399 76.0385 136.876 76.2967C136.352 76.5549 135.773 76.6797 135.19 76.66C134.49 78.92 134.19 80.05 134.36 80.06C135.87 80.17 145.42 74.6 146.36 74.6C146.557 74.6179 146.747 74.6844 146.912 74.7935C147.077 74.9025 147.213 75.0508 147.307 75.2251C147.401 75.3993 147.451 75.5942 147.451 75.7922C147.452 75.9902 147.403 76.1853 147.31 76.36C147.01 76.6933 145.403 78.24 142.49 81C145.38 79.22 147.13 78.33 147.76 78.33C148.7 78.33 148.7 82.62 148.3 83.44C147.9 84.26 143.35 90 137.84 91.9C132.33 93.8 131.71 94.36 129.65 96.37C127.59 98.38 119.24 119.86 112.58 127.86C105.92 135.86 99.58 131.75 95.8 128.18C92.02 124.61 72.42 96.54 68.87 90.18C65.32 83.82 71 77.44 75.1 75.07C79 72.86 86.31 73.71 91 81.5C92.4067 83.9333 97.3233 93.31 105.75 109.63Z" fill="white"/>
<path fill-rule="evenodd" clip-rule="evenodd" d="M105.75 109.63C116.69 90.9633 123.11 80.5367 125.01 78.35C127.109 76.0329 129.814 74.3494 132.82 73.49L139.19 72.49C139.201 73.4795 138.845 74.4379 138.19 75.18C137.851 75.6549 137.399 76.0385 136.876 76.2967C136.352 76.5549 135.773 76.6797 135.19 76.66C134.49 78.92 134.19 80.05 134.36 80.06C135.87 80.17 145.42 74.6 146.36 74.6C146.557 74.6179 146.747 74.6844 146.912 74.7935C147.078 74.9025 147.213 75.0508 147.307 75.2251C147.401 75.3993 147.451 75.5942 147.451 75.7922C147.452 75.9902 147.403 76.1853 147.31 76.36C147.01 76.6933 145.403 78.24 142.49 81C145.38 79.22 147.13 78.33 147.76 78.33C148.7 78.33 148.7 82.62 148.3 83.44C147.9 84.26 143.35 90 137.84 91.9C132.33 93.8 131.71 94.36 129.65 96.37C127.59 98.38 119.24 119.86 112.58 127.86C105.92 135.86 99.58 131.75 95.8 128.18C92.02 124.61 72.42 96.54 68.87 90.18C65.32 83.82 71 77.44 75.1 75.07C79 72.86 86.31 73.71 91 81.5C92.4067 83.9333 97.3233 93.31 105.75 109.63Z" stroke="#045CA6" stroke-width="0.8" stroke-miterlimit="10"/>
<path d="M105.75 109.63C116.69 90.9633 123.11 80.5367 125.01 78.35C127.109 76.0329 129.814 74.3494 132.82 73.49L139.19 72.49C139.201 73.4795 138.845 74.4379 138.19 75.18C137.851 75.6549 137.399 76.0385 136.876 76.2967C136.352 76.5549 135.773 76.6797 135.19 76.66C134.49 78.92 134.19 80.05 134.36 80.06C135.87 80.17 145.42 74.6 146.36 74.6C146.557 74.6179 146.747 74.6844 146.912 74.7935C147.077 74.9025 147.213 75.0508 147.307 75.2251C147.401 75.3993 147.451 75.5942 147.451 75.7922C147.452 75.9902 147.403 76.1853 147.31 76.36C147.01 76.6933 145.403 78.24 142.49 81C145.38 79.22 147.13 78.33 147.76 78.33C148.7 78.33 148.7 82.62 148.3 83.44C147.9 84.26 143.35 90 137.84 91.9C132.33 93.8 131.71 94.36 129.65 96.37C127.59 98.38 119.24 119.86 112.58 127.86C105.92 135.86 99.58 131.75 95.8 128.18C92.02 124.61 72.42 96.54 68.87 90.18C65.32 83.82 71 77.44 75.1 75.07C79 72.86 86.31 73.71 91 81.5C92.4067 83.9333 97.3233 93.31 105.75 109.63Z" fill="white" stroke="#124052" stroke-width="0.8"/>
<path d="M135.22 76.67L134.22 80.16C135.62 81.7 135.8 83.76 134.76 86.32" stroke="#124052" stroke-width="0.8"/>
<path fill-rule="evenodd" clip-rule="evenodd" d="M20.31 149.69L20.11 113V93.21C20.11 81.84 24.64 76.21 33.22 73.72C36.84 72.72 43.37 70.83 47.6 70.51C51.29 70.23 72.1 70.51 74.81 70.66C78.42 70.9 83.91 72.09 86.68 74.36C90.06 77.1267 94.6633 84.6167 100.49 96.83L83.57 108.57V149.69H20.31Z" fill="#FCE4C7"/>
<path fill-rule="evenodd" clip-rule="evenodd" d="M63.36 88.95L65.98 87.94L75.13 111.82L74.75 114.75L72.51 112.83L63.36 88.95Z" fill="white"/>
<path fill-rule="evenodd" clip-rule="evenodd" d="M63.36 88.95L65.98 87.94L75.13 111.82L74.75 114.75L72.51 112.83L63.36 88.95Z" stroke="#045CA6" stroke-width="0.8" stroke-miterlimit="10"/>
<path fill-rule="evenodd" clip-rule="evenodd" d="M74.0501 97.74C74.9001 98.01 75.2801 98.93 75.1901 100.49C77.0201 103.1 77.9301 105.28 77.9201 107.05C77.9101 108.82 76.9801 110.55 75.1301 112.23L73.8401 108.84L72.4401 108.64C72.6401 111.74 72.0101 113.767 70.5501 114.72C68.3501 116.14 65.7934 117.93 62.8801 120.09L63.3401 119.69C47.5401 133.23 36.6801 140 30.7601 140C24.8401 140 21.3567 137.14 20.3101 131.42V113.11L40.0001 113.43V119L57.4501 108.28C59.1501 102.327 61.2534 98.5333 63.7601 96.9C67.5801 94.42 72.7601 97.34 74.0501 97.74Z" fill="white"/>
<path d="M74.0501 97.74C74.9001 98.01 75.2801 98.93 75.1901 100.49C77.0201 103.1 77.9301 105.28 77.9201 107.05C77.9101 108.82 76.9801 110.55 75.1301 112.23L73.8401 108.84L72.4401 108.64C72.6401 111.74 72.0101 113.767 70.5501 114.72C68.3501 116.14 65.7934 117.93 62.8801 120.09L63.3401 119.69C47.5401 133.23 36.6801 140 30.7601 140C24.8401 140 21.3567 137.14 20.3101 131.42V113.11L40.0001 113.43V119L57.4501 108.28C59.1501 102.327 61.2534 98.5333 63.7601 96.9C67.5801 94.42 72.7601 97.34 74.0501 97.74Z" fill="white"/>
<path d="M74.0501 97.74C74.9001 98.01 75.2801 98.93 75.1901 100.49C77.0201 103.1 77.9301 105.28 77.9201 107.05C77.9101 108.82 76.9801 110.55 75.1301 112.23L73.8401 108.84L72.4401 108.64C72.6401 111.74 72.0101 113.767 70.5501 114.72C68.3501 116.14 65.7934 117.93 62.8801 120.09L63.3401 119.69C47.5401 133.23 36.6801 140 30.7601 140C24.8401 140 21.3567 137.14 20.3101 131.42V113.11L40.0001 113.43V119L57.4501 108.28C59.1501 102.327 61.2534 98.5333 63.7601 96.9C67.5801 94.42 72.7601 97.34 74.0501 97.74Z" stroke="#124052" stroke-width="0.8" stroke-miterlimit="10"/>
<path fill-rule="evenodd" clip-rule="evenodd" d="M74.0501 97.74C74.9001 98.01 75.2801 98.93 75.1901 100.49C77.0201 103.1 77.9301 105.28 77.9201 107.05C77.9101 108.82 76.9801 110.55 75.1301 112.23L73.8401 108.84L72.4401 108.64C72.6401 111.74 72.0101 113.767 70.5501 114.72C68.3501 116.14 65.7934 117.93 62.8801 120.09L63.3401 119.69C47.5401 133.23 36.6801 140 30.7601 140C24.8401 140 21.3567 137.14 20.3101 131.42V113.11L40.0001 113.43V119L57.4501 108.28C59.1501 102.327 61.2534 98.5333 63.7601 96.9C67.5801 94.42 72.7601 97.34 74.0501 97.74Z" stroke="#124052" stroke-width="0.8"/>
<path d="M75.37 99.88H67.74" stroke="#124052" stroke-width="0.8"/>
<path d="M62.42 73.32V92.62" stroke="#124052" stroke-width="0.8"/>
<path d="M59.41 84.2V92.62" stroke="#124052" stroke-width="0.8"/>
<path d="M40 114.31V97.84" stroke="#124052" stroke-width="0.8"/>
<path d="M83.8101 108.42V100.25" stroke="#045CA6" stroke-width="0.8" stroke-miterlimit="10"/>
<path d="M111.97 145.67H74.19C73.3008 145.67 72.58 146.391 72.58 147.28V148.08C72.58 148.969 73.3008 149.69 74.19 149.69H111.97C112.859 149.69 113.58 148.969 113.58 148.08V147.28C113.58 146.391 112.859 145.67 111.97 145.67Z" fill="white" stroke="#124052" stroke-width="0.8"/>
<path d="M176.68 96.63H105.54C104.43 96.63 103.53 97.5299 103.53 98.64V147.68C103.53 148.79 104.43 149.69 105.54 149.69H176.68C177.79 149.69 178.69 148.79 178.69 147.68V98.64C178.69 97.5299 177.79 96.63 176.68 96.63Z" fill="white" stroke="#124052" stroke-width="0.8"/>
<path d="M141.11 129.99C144.772 129.99 147.74 127.022 147.74 123.36C147.74 119.698 144.772 116.73 141.11 116.73C137.448 116.73 134.48 119.698 134.48 123.36C134.48 127.022 137.448 129.99 141.11 129.99Z" fill="#C5EBF7"/>
<path fill-rule="evenodd" clip-rule="evenodd" d="M50.9701 73.77H68.7101V49.52H50.9701V73.77Z" fill="white"/>
<path d="M50.9701 73.77H68.7101V49.52H50.9701V73.77Z" fill="white" stroke="#124052" stroke-width="0.8"/>
<path fill-rule="evenodd" clip-rule="evenodd" d="M50.4201 66.27L62.7101 73.61L58.5501 81.76L47.4701 70.81L50.4201 66.27Z" fill="white"/>
<path fill-rule="evenodd" clip-rule="evenodd" d="M68.5501 67.02L62.7101 73.63L67.2101 81.76L71.7101 70.81L68.5501 67.02Z" fill="white"/>
<path d="M47.4701 71L50.4201 66.52L62.7101 73.77" stroke="#124052" stroke-width="0.8"/>
<path d="M71.7101 70.9L68.5701 66.77L62.7101 73.77" stroke="#124052" stroke-width="0.8"/>
<path fill-rule="evenodd" clip-rule="evenodd" d="M72.0001 33.78C72.3129 33.0155 72.4561 32.1922 72.4199 31.367C72.3836 30.5417 72.1688 29.7341 71.7901 29C71.3545 27.8403 70.7218 26.7645 69.9201 25.82L67.4601 28.21L72.0001 33.78Z" fill="#004154"/>
<path fill-rule="evenodd" clip-rule="evenodd" d="M60.49 28.2C63.3289 27.6966 66.2516 28.3407 68.6159 29.9907C70.9803 31.6407 72.5931 34.1617 73.1 37L75.1 48.17C75.3328 49.5023 75.3006 50.8675 75.0054 52.1874C74.7101 53.5074 74.1575 54.7561 73.3792 55.8623C72.6009 56.9685 71.6121 57.9103 70.4695 58.6341C69.3268 59.3578 68.0527 59.8491 66.72 60.08L66.13 60.16C63.1965 60.5002 60.244 59.7058 57.8772 57.9396C55.5105 56.1734 53.9087 53.569 53.4 50.66L51.68 40.82C51.1903 37.9801 51.8409 35.0617 53.4905 32.6988C55.1401 30.3358 57.6554 28.7191 60.49 28.2Z" fill="white"/>
<path d="M60.49 28.2C63.3289 27.6966 66.2516 28.3407 68.6159 29.9907C70.9803 31.6407 72.5931 34.1617 73.1 37L75.1 48.17C75.3328 49.5023 75.3006 50.8675 75.0054 52.1874C74.7101 53.5074 74.1575 54.7561 73.3792 55.8623C72.6009 56.9685 71.6121 57.9103 70.4695 58.6341C69.3268 59.3578 68.0527 59.8491 66.72 60.08L66.13 60.16C63.1965 60.5002 60.244 59.7058 57.8772 57.9396C55.5105 56.1734 53.9087 53.569 53.4 50.66L51.68 40.82C51.1903 37.9801 51.8409 35.0617 53.4905 32.6988C55.1401 30.3358 57.6554 28.7191 60.49 28.2Z" fill="white" stroke="#124052" stroke-width="0.8"/>
<path fill-rule="evenodd" clip-rule="evenodd" d="M74.67 45.78L75.07 48.22C75.2867 49.5689 75.2354 50.9472 74.9188 52.2762C74.6022 53.6051 74.0266 54.8586 73.225 55.9648C72.4235 57.0711 71.4116 58.0084 70.2473 58.7231C69.083 59.4378 67.7893 59.9159 66.44 60.13L65.96 60.19C63.03 60.5319 60.0799 59.7436 57.7109 57.9859C55.3419 56.2282 53.7323 53.6333 53.21 50.73L53 49.34L74.67 45.78ZM70.53 48.67L63.35 50V50.11C63.5389 51.0358 64.0677 51.8572 64.8321 52.4125C65.5965 52.9677 66.5412 53.2166 67.48 53.11H67.57H67.76C68.2081 53.034 68.6367 52.8698 69.0211 52.6271C69.4054 52.3844 69.7378 52.0679 69.9991 51.696C70.2604 51.324 70.4454 50.904 70.5434 50.4601C70.6414 50.0163 70.6504 49.5574 70.57 49.11L70.53 48.67Z" fill="#004154"/>
<path d="M65 49.52C65.0172 50.0088 65.1729 50.4827 65.4491 50.8864C65.7253 51.2901 66.1106 51.6069 66.56 51.8C66.9057 51.9494 67.2784 52.0265 67.655 52.0265C68.0316 52.0265 68.4043 51.9494 68.75 51.8" stroke="#124052" stroke-width="0.8"/>
<path fill-rule="evenodd" clip-rule="evenodd" d="M61.09 40.77C61.2852 40.7334 61.4583 40.6219 61.5723 40.4593C61.6863 40.2967 61.7321 40.0959 61.7 39.9C61.6741 39.754 61.6055 39.619 61.503 39.512C61.4004 39.4051 61.2684 39.3308 61.1237 39.2988C60.979 39.2668 60.828 39.2783 60.6899 39.332C60.5517 39.3857 60.4325 39.4791 60.3475 39.6005C60.2624 39.7219 60.2151 39.8657 60.2117 40.0139C60.2084 40.1621 60.2489 40.3079 60.3284 40.4331C60.4078 40.5582 60.5226 40.657 60.6581 40.717C60.7937 40.7769 60.944 40.7954 61.09 40.77Z" fill="#004154"/>
<path fill-rule="evenodd" clip-rule="evenodd" d="M70.84 39.27C71.034 39.2311 71.2055 39.119 71.3191 38.9571C71.4327 38.7951 71.4796 38.5956 71.45 38.4C71.4241 38.254 71.3555 38.119 71.253 38.012C71.1504 37.9051 71.0184 37.8308 70.8737 37.7988C70.729 37.7668 70.578 37.7783 70.4399 37.832C70.3017 37.8857 70.1825 37.9791 70.0975 38.1005C70.0124 38.2219 69.9651 38.3657 69.9617 38.5139C69.9584 38.6621 69.9989 38.8079 70.0784 38.9331C70.1578 39.0582 70.2726 39.157 70.4081 39.217C70.5437 39.2769 70.694 39.2954 70.84 39.27Z" fill="#004154"/>
<path fill-rule="evenodd" clip-rule="evenodd" d="M50.85 51.52C43.6167 47.2133 40.1634 41.73 40.49 35.07C40.94 25.07 46.94 26.07 49.71 25.58C52.48 25.09 51.93 20.66 55.11 16.12C58.29 11.58 64.35 11.12 68.53 14.42C72.71 17.72 74.41 24.84 70.53 29.15C66.65 33.46 58.86 31.76 55.92 31.76C52.98 31.76 50.92 38.87 51.8 42.6C52.31 44.72 52.42 46.01 52.97 48.21C53.33 49.65 52.6234 50.7533 50.85 51.52Z" fill="#004154"/>
<path fill-rule="evenodd" clip-rule="evenodd" d="M51.71 49.73C51.71 49.78 50.3 42.28 50.25 42.28C48.25 42.66 46.88 44.03 47.25 46.08C47.62 48.13 49.7 50.08 51.67 49.73" fill="white"/>
<path d="M66.7101 40.03L67.9601 45.28" stroke="#124052" stroke-width="0.8"/>
<path d="M66.7101 40.03L67.9601 45.28" stroke="#124052" stroke-width="0.8"/>
<path d="M55 20.28C55.0364 19.9367 55.1205 19.6001 55.25 19.28C55.3739 18.927 55.5419 18.591 55.75 18.28" stroke="white" stroke-width="0.8"/>
<path d="M57.7101 15.79C60.1167 14.0434 63.1167 13.82 66.7101 15.12" stroke="white" stroke-width="0.8"/>
<path d="M156.3 20.78H138.8C132.211 20.78 126.87 26.119 126.87 32.705C126.87 39.291 132.211 44.63 138.8 44.63H156.3C162.889 44.63 168.23 39.291 168.23 32.705C168.23 26.119 162.889 20.78 156.3 20.78Z" fill="#1DC4F2"/>
<path fill-rule="evenodd" clip-rule="evenodd" d="M144 33.59C144.002 33.8831 143.917 34.1702 143.755 34.4149C143.594 34.6596 143.364 34.8509 143.093 34.9644C142.823 35.078 142.525 35.1087 142.237 35.0528C141.95 34.9968 141.685 34.8566 141.477 34.65C141.269 34.4435 141.127 34.1798 141.069 33.8924C141.011 33.6051 141.04 33.307 141.152 33.0359C141.263 32.7649 141.453 32.5332 141.697 32.3701C141.94 32.2071 142.227 32.12 142.52 32.12C142.718 32.1035 142.917 32.1301 143.103 32.198C143.289 32.2659 143.459 32.3734 143.599 32.5132C143.74 32.653 143.849 32.8217 143.918 33.0076C143.987 33.1935 144.015 33.3922 144 33.59Z" fill="white"/>
<path fill-rule="evenodd" clip-rule="evenodd" d="M149.31 33.59C149.312 33.8831 149.227 34.1702 149.066 34.4149C148.904 34.6596 148.674 34.8509 148.403 34.9644C148.133 35.078 147.835 35.1087 147.548 35.0528C147.26 34.9968 146.995 34.8566 146.787 34.65C146.579 34.4435 146.437 34.1798 146.379 33.8924C146.321 33.6051 146.35 33.307 146.462 33.0359C146.574 32.7649 146.763 32.5332 147.007 32.3701C147.25 32.2071 147.537 32.12 147.83 32.12C148.028 32.1035 148.227 32.1301 148.413 32.198C148.599 32.2659 148.769 32.3734 148.91 32.5132C149.05 32.653 149.159 32.8217 149.228 33.0076C149.297 33.1935 149.325 33.3922 149.31 33.59Z" fill="white"/>
<path fill-rule="evenodd" clip-rule="evenodd" d="M154.06 33.59C154.06 33.8807 153.974 34.1649 153.812 34.4067C153.651 34.6484 153.421 34.8368 153.153 34.9481C152.884 35.0593 152.588 35.0885 152.303 35.0317C152.018 34.975 151.756 34.835 151.551 34.6294C151.345 34.4238 151.205 34.1619 151.148 33.8768C151.092 33.5916 151.121 33.296 151.232 33.0274C151.343 32.7588 151.532 32.5292 151.773 32.3677C152.015 32.2062 152.299 32.12 152.59 32.12C152.787 32.105 152.985 32.1327 153.17 32.2013C153.355 32.2699 153.523 32.3777 153.663 32.5173C153.802 32.6569 153.91 32.825 153.979 33.0102C154.047 33.1953 154.075 33.3931 154.06 33.59Z" fill="white"/>
<path fill-rule="evenodd" clip-rule="evenodd" d="M137.1 42.12L137.2 52.18L147.32 41.97L137.1 42.12Z" fill="#1DC4F2"/>
<path d="M0 150H200" stroke="#124052" stroke-width="0.8"/>
</svg>
