<svg width="24" height="24" viewBox="0 0 24 24" fill="none" xmlns="http://www.w3.org/2000/svg">
	<g id="microphone-mic_on_3" stroke="none" stroke-width="1">
		<path d="M9 14H15V15C15 16.6569 13.6569 18 12 18V18C10.3431 18 9 16.6569 9 15V14Z" fill="#00CF64"/>
		<path fill-rule="evenodd" clip-rule="evenodd" d="M15.5 7.5C15.5 5.567 13.933 4 12 4C10.067 4 8.5 5.567 8.5 7.5V14.5C8.5 16.2632 9.80385 17.7219 11.5 17.9646V19H9.49026C9.21412 19 8.99026 19.2239 8.99026 19.5C8.99026 19.7761 9.21412 20 9.49026 20H12H14.4751C14.7513 20 14.9751 19.7761 14.9751 19.5C14.9751 19.2239 14.7513 19 14.4751 19H12.5V17.9646C14.1961 17.7219 15.5 16.2632 15.5 14.5V7.5ZM9.5 7.5V14.5C9.5 15.8807 10.6193 17 12 17C13.3807 17 14.5 15.8807 14.5 14.5V7.5C14.5 6.11929 13.3807 5 12 5C10.6193 5 9.5 6.11929 9.5 7.5Z"/>
		<path fill-rule="evenodd" clip-rule="evenodd" d="M19.663 15.0272C19.6119 15.0096 19.5571 15 19.5 15C19.2239 15 19 15.2239 19 15.5V20.0854C18.8436 20.0301 18.6753 20 18.5 20C17.6716 20 17 20.6716 17 21.5C17 22.3284 17.6716 23 18.5 23C19.3284 23 20 22.3284 20 21.5V16.0833L22.2671 16.4612C22.389 16.4815 22.5 16.3875 22.5 16.2639V15.6694C22.5 15.5717 22.4293 15.4882 22.3329 15.4721L19.663 15.0272Z"/>
	</g>
</svg>
