<?xml version="1.0" standalone="no"?>
<!DOCTYPE svg PUBLIC "-//W3C//DTD SVG 1.1//EN" "http://www.w3.org/Graphics/SVG/1.1/DTD/svg11.dtd" >
<svg xmlns="http://www.w3.org/2000/svg" id="microphone-muted_24">
<path unicode="&#xe9b1;" transform="scale(1,-1)" id="microphone-muted_24" data-tags="microphone-muted_24" d="M725.333 298.5c0-105.856-86.144-192-192-192-103.168 0-186.965 82.005-191.189 184.107l383.189 383.232v-375.339zM341.333 725.338c0 105.856 86.144 192 192 192 103.125 0 186.88-81.92 191.189-183.979l-383.189-383.189v375.168zM932.437 911.066c-8.363 8.363-21.845 8.363-30.208 0l-138.923-138.923c-21.76 107.008-116.608 187.861-229.973 187.861-129.408 0-234.667-105.301-234.667-234.667v-417.835l-164.437-164.437c-8.32-8.32-8.32-21.803 0-30.165 4.181-4.139 9.643-6.229 15.104-6.229s10.923 2.091 15.104 6.229l139.051 139.093c20.267-100.352 104.661-177.664 208.512-187.093v-86.229h-149.333c-11.776 0-21.333-9.557-21.333-21.333s9.557-21.333 21.333-21.333h341.333c11.776 0 21.333 9.557 21.333 21.333s-9.557 21.333-21.333 21.333h-149.333v86.229c119.424 10.837 213.333 111.403 213.333 233.6v418.005l164.437 164.395c8.32 8.363 8.32 21.845 0 30.165v0z" />
</svg>
