<svg width="12" height="12" viewBox="0 0 12 12" xmlns="http://www.w3.org/2000/svg">
<g>
<path d="M4.5 6H7.5V7.5C7.5 8.32843 6.82843 9 6 9C5.17157 9 4.5 8.32843 4.5 7.5V6Z"/>
<path d="M4.5 4H7.5V5H4.5V4Z"/>
<path fill-rule="evenodd" clip-rule="evenodd" d="M4.5 7.5V2.5C4.5 1.673 5.173 1 6 1C6.827 1 7.5 1.673 7.5 2.5V7.5C7.5 8.327 6.827 9 6 9C5.173 9 4.5 8.327 4.5 7.5ZM8.5 7.5V2.5C8.5 1.125 7.375 0 6 0C4.625 0 3.5 1.125 3.5 2.5V7.5C3.5 8.704 4.362 9.716 5.5 9.949V11H5.501H4.5C4.225 11 4 11.226 4 11.5C4 11.775 4.225 12 4.5 12H7.5C7.775 12 8 11.775 8 11.5C8 11.226 7.775 11 7.5 11H6.5V9.949C7.638 9.716 8.5 8.704 8.5 7.5Z"/>
</g>
</svg>
