<svg width="16" height="16" viewBox="0 0 16 16" fill="none" xmlns="http://www.w3.org/2000/svg">
<path fill-rule="evenodd" clip-rule="evenodd" d="M7.50025 7.501C7.50025 8.328 6.82725 9.001 6.00025 9.001C5.17325 9.001 4.50025 8.328 4.50025 7.501V7.207L7.50025 4.207V7.501ZM4.50025 2.501C4.50025 1.674 5.17325 1.001 6.00025 1.001C6.82725 1.001 7.50025 1.674 7.50025 2.501V2.793L4.50025 5.793V2.501ZM10.8542 0.147C10.6582 -0.049 10.3422 -0.049 10.1462 0.147L8.41225 1.881C8.13325 0.805 7.16025 0.000999995 6.00025 0.000999995C4.62525 0.000999995 3.50025 1.126 3.50025 2.501V6.793L1.14625 9.147C0.95125 9.342 0.95125 9.658 1.14625 9.854C1.24425 9.951 1.37225 10 1.50025 10C1.62825 10 1.75625 9.951 1.85425 9.854L3.58725 8.12C3.82525 9.038 4.56525 9.759 5.50025 9.95V11.001H4.50025C4.22525 11.001 4.00025 11.227 4.00025 11.501C4.00025 11.776 4.22525 12.001 4.50025 12.001H7.50025C7.77525 12.001 8.00025 11.776 8.00025 11.501C8.00025 11.227 7.77525 11.001 7.50025 11.001H6.50025V9.95C7.63825 9.717 8.50025 8.705 8.50025 7.501V3.207L10.8542 0.854C11.0492 0.658 11.0492 0.342 10.8542 0.147Z" fill="#F7644A"/>
</svg>
