<svg width="24" height="24" viewBox="0 0 24 24" fill="none" xmlns="http://www.w3.org/2000/svg">
	<g id="microphone-hard-muted_24" stroke="none" stroke-width="1">
		<path d="M22 22.834C22 22.926 21.925 23 21.833 23H18.167C18.075 23 18 22.926 18 22.834V20.167C18 20.075 18.075 20 18.167 20H21.833C21.925 20 22 20.075 22 20.167V22.834ZM20 17C20.552 17 21 17.449 21 18V19H19V18C19 17.449 19.448 17 20 17V17ZM22 19.033V18C22 16.9 21.1 16 20 16C18.9 16 18 16.9 18 18V19.033C17.439 19.118 17 19.582 17 20.167V22.834C17 23.477 17.523 24 18.167 24H21.833C22.477 24 23 23.477 23 22.834V20.167C23 19.582 22.561 19.118 22 19.033V19.033Z"/>
		<path fill-rule="evenodd" clip-rule="evenodd" d="M14.4892 14.541C14.4892 15.922 13.3702 17.041 11.9892 17.041C10.6082 17.041 9.48925 15.922 9.48925 14.541V14.248L14.4892 9.24802V14.541ZM9.48925 7.54102C9.48925 6.16102 10.6082 5.04102 11.9892 5.04102C13.3702 5.04102 14.4892 6.16102 14.4892 7.54102V7.83402L9.48925 12.834V7.54102ZM17.1772 5.14602L15.4242 6.89902C15.1222 5.27302 13.7023 4.04102 11.9893 4.04102C10.0563 4.04102 8.48925 5.60802 8.48925 7.54102V13.834L6.14625 16.177C5.95125 16.372 5.95125 16.688 6.14625 16.884C6.24425 16.981 6.37225 17.03 6.50025 17.03C6.62825 17.03 6.75625 16.981 6.85325 16.884L8.54925 15.188C8.82225 16.651 10.0063 17.793 11.4893 18.006V19.041H9.98925C9.71325 19.041 9.48925 19.265 9.48925 19.541C9.48925 19.817 9.71325 20.041 9.98925 20.041H13.9893C14.2653 20.041 14.4893 19.817 14.4893 19.541C14.4893 19.265 14.2653 19.041 13.9893 19.041H12.4893V18.006C14.1853 17.763 15.4893 16.304 15.4893 14.541V8.24802L17.8842 5.85302C18.0792 5.65802 18.0792 5.34102 17.8842 5.14602C17.6892 4.95102 17.3722 4.95102 17.1772 5.14602Z" fill="#D4371C"/>
	</g>
</svg>
