<svg width="24" height="24" viewBox="0 0 24 24" fill="none" xmlns="http://www.w3.org/2000/svg">
<path fill-rule="evenodd" clip-rule="evenodd" d="M13.5003 13.501C13.5003 14.328 12.8273 15.001 12.0003 15.001C11.1733 15.001 10.5003 14.328 10.5003 13.501V13.207L13.5003 10.207V13.501ZM10.5003 8.501C10.5003 7.674 11.1733 7.001 12.0003 7.001C12.8273 7.001 13.5003 7.674 13.5003 8.501V8.793L10.5003 11.793V8.501ZM16.8542 6.147C16.6582 5.951 16.3422 5.951 16.1462 6.147L14.4123 7.881C14.1333 6.805 13.1602 6.001 12.0002 6.001C10.6252 6.001 9.50025 7.126 9.50025 8.501V12.793L7.14625 15.147C6.95125 15.342 6.95125 15.658 7.14625 15.854C7.24425 15.951 7.37225 16 7.50025 16C7.62825 16 7.75625 15.951 7.85425 15.854L9.58725 14.12C9.82525 15.038 10.5652 15.759 11.5002 15.95V17.001H10.5003C10.2253 17.001 10.0003 17.227 10.0003 17.501C10.0003 17.776 10.2253 18.001 10.5003 18.001H13.5002C13.7752 18.001 14.0002 17.776 14.0002 17.501C14.0002 17.227 13.7752 17.001 13.5002 17.001H12.5002V15.95C13.6382 15.717 14.5002 14.705 14.5002 13.501V9.207L16.8542 6.854C17.0492 6.658 17.0492 6.342 16.8542 6.147V6.147Z"/>
</svg>
