<svg width="90" height="110" viewBox="0 0 90 110" fill="none" xmlns="http://www.w3.org/2000/svg">
<g clip-path="url(#clip0)">
<path d="M58.5999 33.7H30.8999L38.4999 5.8C39.2999 2.9 41.7999 1 44.7999 1C47.6999 1 50.2999 2.9 50.9999 5.8L58.5999 33.7Z" fill="#16B1E0" fill-opacity="0.5" stroke="#5DABC9" stroke-width="2" stroke-miterlimit="10"/>
<path d="M65.6998 59.7H23.7998L27.0998 47.7H62.4998L65.6998 59.7Z" fill="#16B1E0" fill-opacity="0.5" stroke="#5DABC9" stroke-width="2" stroke-miterlimit="10"/>
<path d="M75.5999 95.7H13.8999L19.9999 73.7H69.5999L75.5999 95.7Z" fill="#16B1E0" fill-opacity="0.5" stroke="#5DABC9" stroke-width="2" stroke-miterlimit="10"/>
<path d="M81.9 95.7H44.8H7.6C3.9 95.7 1 98.7 1 102.3C1 106 4 108.9 7.6 108.9H44.7H81.8C85.5 108.9 88.4 105.9 88.4 102.3C88.5 98.7 85.6 95.7 81.9 95.7Z" fill="#00A0D1" fill-opacity="0.75" stroke="#5DABC9" stroke-width="2" stroke-miterlimit="10"/>
<path d="M69.6 73.7H20L23.8 59.7H65.7L69.6 73.7Z" fill="white" fill-opacity="0.9" stroke="#5DABC9" stroke-width="2" stroke-miterlimit="10"/>
<path d="M62.5001 47.7H27.1001L30.9001 33.7H58.6001L62.5001 47.7Z" fill="white" fill-opacity="0.9" stroke="#5DABC9" stroke-width="2" stroke-miterlimit="10"/>
</g>
<defs>
<clipPath id="clip0">
<rect width="89.5" height="110" fill="white"/>
</clipPath>
</defs>
</svg>
