<svg width="720" height="201" viewBox="0 0 720 201" fill="none" xmlns="http://www.w3.org/2000/svg">
<path d="M0 0H720V200H0V0Z" fill="#B2B2B2" fill-opacity="0.12"/>
<path d="M32.2815 154.909L10.4843 124.132L36.6035 119.395L32.2815 154.909Z" fill="#FFAC38" fill-opacity="0.5"/>
<path d="M58.4764 148.263L36.9945 119.435L61.2495 113.168L58.4764 148.263Z" fill="#FFAC38" fill-opacity="0.25"/>
<path d="M115.986 131.772L92.935 104.182L117.155 96.0153L115.986 131.772Z" fill="#FFAC38" fill-opacity="0.5"/>
<path d="M166.097 111.139L140.304 86.0946L163.544 75.4544L166.097 111.139Z" fill="#16B1E0" fill-opacity="0.5"/>
<path d="M225.999 75.3552L195.353 56.5584L215.703 41.0932L225.999 75.3552Z" fill="#48E33D" fill-opacity="0.25"/>
<path d="M141.729 122.119L117.32 95.7241L141.098 86.3493L141.729 122.119Z" fill="#16B1E0" fill-opacity="0.25"/>
<path d="M269.686 34.0451L235.351 23.3852L251.259 3.37969L269.686 34.0451Z" fill="#FFAC38" fill-opacity="0.25"/>
<path opacity="0.5" d="M-15 126.996C70.3441 118.755 247.737 72.0182 274.555 -49" stroke="#FFCA99"/>
<path fill-rule="evenodd" clip-rule="evenodd" d="M376 34.4708C373.791 34.4708 372 36.2617 372 38.4708V72.4708C372 74.68 373.791 76.4708 376 76.4708H424C426.209 76.4708 428 74.68 428 72.4708V38.4708C428 36.2617 426.209 34.4708 424 34.4708H376ZM377.899 38.3313C376.795 38.3313 375.899 39.2267 375.899 40.3313V70.3313C375.899 71.4359 376.795 72.3313 377.899 72.3313H421.899C423.004 72.3313 423.899 71.4359 423.899 70.3313V40.3313C423.899 39.2267 423.004 38.3313 421.899 38.3313H377.899Z" fill="#16B1E0" fill-opacity="0.5"/>
<rect opacity="0.9" x="375.899" y="38.3313" width="48" height="34" rx="2" fill="#E6FBFF"/>
<mask id="mask0" mask-type="alpha" maskUnits="userSpaceOnUse" x="375" y="38" width="49" height="35">
<rect opacity="0.5" x="375.899" y="38.3313" width="48" height="34" rx="2" fill="#E6FBFF"/>
</mask>
<g mask="url(#mask0)">
<circle r="3.74153" transform="matrix(1 0 0 -1 415.058 47.6796)" fill="#16B1E0" fill-opacity="0.5"/>
<path d="M386.393 51.0131L375.397 61.6647C374.46 62.5728 374.025 63.881 374.231 65.1696L375.234 71.4378C375.544 73.3783 377.218 74.8058 379.183 74.8058H420.88C423.089 74.8058 424.88 73.0149 424.88 70.8058V67.1135C424.88 64.9044 423.089 63.1135 420.88 63.1135H420.07C419.244 63.1135 418.438 62.8578 417.763 62.3814L404.785 53.2205C403.618 52.3965 402.1 52.2578 400.802 52.8566L399.009 53.6843C397.662 54.306 396.081 54.1311 394.903 53.2299L391.606 50.7086C390.032 49.5054 387.815 49.6349 386.393 51.0131Z" fill="#16B1E0" fill-opacity="0.5"/>
</g>
<path fill-rule="evenodd" clip-rule="evenodd" d="M347.443 57.5366C347.443 73.829 336.922 87.0366 323.943 87.0366C310.965 87.0366 300.443 73.829 300.443 57.5366C300.443 41.2442 310.965 28.0366 323.943 28.0366C336.922 28.0366 347.443 41.2442 347.443 57.5366ZM342.37 57C342.37 69.7025 334.087 80 323.87 80C313.653 80 305.37 69.7025 305.37 57C305.37 44.2975 313.653 34 323.87 34C334.087 34 342.37 44.2975 342.37 57Z" fill="#FFAC38" fill-opacity="0.4"/>
<path opacity="0.85" fill-rule="evenodd" clip-rule="evenodd" d="M323.87 80C334.087 80 342.37 69.7025 342.37 57C342.37 44.2975 334.087 34 323.87 34C313.653 34 305.37 44.2975 305.37 57C305.37 69.7025 313.653 80 323.87 80Z" fill="#FFF7E3"/>
<mask id="mask1" mask-type="alpha" maskUnits="userSpaceOnUse" x="305" y="33" width="38" height="47">
<path fill-rule="evenodd" clip-rule="evenodd" d="M323.87 79.9486C334.087 79.9486 342.37 69.6512 342.37 56.9486C342.37 44.2461 334.087 33.9486 323.87 33.9486C313.653 33.9486 305.37 44.2461 305.37 56.9486C305.37 69.6512 313.653 79.9486 323.87 79.9486Z" fill="#FFF7E3"/>
</mask>
<g mask="url(#mask1)">
<path fill-rule="evenodd" clip-rule="evenodd" d="M320.086 65.4519C314.025 65.4519 308.601 66.1143 303.814 67.4388L303.814 67.4938C303.047 67.6943 299.759 68.8463 298.341 74.1114C297.267 78.0994 295.249 82.8667 292.288 88.4137L285.784 78.9354L280.738 88.4137C283.383 93.7843 285.54 97.7242 287.21 100.234C289.714 103.997 295.379 103.997 299.384 99.0782C300.767 97.3785 302.245 95.2628 303.818 92.7313L303.822 107.703H334.816L345.116 107.821C347.567 107.821 349.568 107.327 351.118 106.34C353.443 104.86 354.46 100.409 353.487 97.9363C352.489 95.3973 351.523 93.3347 350.59 91.7483C344.743 80.8158 340.866 74.113 338.958 71.64C337.855 70.2094 336.137 68.7059 334.816 67.8017C333.496 66.8973 329.176 65.4519 320.086 65.4519ZM334.817 88.9532C338.168 93.9765 340.12 96.6981 340.672 97.1182C340.767 97.1904 338.815 97.1904 334.817 97.1182V88.9532Z" fill="#FFAC38" fill-opacity="0.25"/>
<path fill-rule="evenodd" clip-rule="evenodd" d="M320.744 45.1329C319.024 45.1329 317.466 45.8432 316.338 46.9921C315.209 48.1409 314.51 49.7284 314.507 51.4824L314.497 57.8799C314.494 59.6419 315.188 61.2406 316.323 62.4028C317.454 63.5598 319.021 64.2845 320.774 64.3064C322.476 64.3099 324.018 63.6096 325.135 62.4749C326.252 61.34 326.944 59.7707 326.947 58.0361L326.959 51.4714C326.959 49.7208 326.263 48.1363 325.139 46.9892C324.014 45.8423 322.46 45.1329 320.744 45.1329Z" fill="#FFAC38" fill-opacity="0.25"/>
</g>
<path d="M708.119 130.722L725.521 99.0207L700.487 96.1422L708.119 130.722Z" fill="#16B1E0" fill-opacity="0.5"/>
<path d="M648.536 122.272L667.673 91.5866L642.41 86.8109L648.536 122.272Z" fill="#16B1E0" fill-opacity="0.25"/>
<path d="M595.749 108.669L617.971 80.1392L593.342 72.7633L595.749 108.669Z" fill="#FFAC38" fill-opacity="0.25"/>
<path d="M461.606 24.5824L495.969 13.3138L479.65 -6.55324L461.606 24.5824Z" fill="#48E33D" fill-opacity="0.25"/>
<path d="M531.106 81.3307L559.03 58.3518L536.61 45.768L531.106 81.3307Z" fill="#FFAC38" fill-opacity="0.5"/>
<path d="M621.55 116.227L642.206 86.5436L617.215 80.5033L621.55 116.227Z" fill="#48E33D" fill-opacity="0.25"/>
<path d="M481.85 46.2366L514.578 30.8524L495.953 13.129L481.85 46.2366Z" fill="#16B1E0" fill-opacity="0.5"/>
<path opacity="0.5" d="M778.371 99.3387C692.202 102.97 508.986 81.0223 465.476 -35.8228" stroke="#FFCA99"/>
<mask id="path-28-inside-1" fill="white">
<path fill-rule="evenodd" clip-rule="evenodd" d="M263.853 158.325H367.288L470.221 158.325C472.283 158.325 473.954 159.991 473.954 162.046V175.442C473.954 177.497 472.283 179.162 470.221 179.162H366.792L263.853 179.162C261.795 179.162 260.126 177.497 260.126 175.442V162.046C260.126 159.991 261.795 158.325 263.853 158.325Z"/>
</mask>
<path fill-rule="evenodd" clip-rule="evenodd" d="M263.853 158.325H367.288L470.221 158.325C472.283 158.325 473.954 159.991 473.954 162.046V175.442C473.954 177.497 472.283 179.162 470.221 179.162H366.792L263.853 179.162C261.795 179.162 260.126 177.497 260.126 175.442V162.046C260.126 159.991 261.795 158.325 263.853 158.325Z" fill="#16B1E0" fill-opacity="0.25"/>
<path d="M367.288 158.325V157.325V158.325ZM470.221 158.325V159.325V158.325ZM366.792 179.162V180.162V179.162ZM263.853 179.162L263.853 178.162H263.853V179.162ZM367.288 157.325H263.853V159.325H367.288V157.325ZM367.288 159.325L470.221 159.325V157.325L367.288 157.325V159.325ZM470.221 159.325C471.734 159.325 472.954 160.547 472.954 162.046H474.954C474.954 159.436 472.832 157.325 470.221 157.325V159.325ZM472.954 162.046V175.442H474.954V162.046H472.954ZM472.954 175.442C472.954 176.941 471.734 178.162 470.221 178.162V180.162C472.832 180.162 474.954 178.052 474.954 175.442H472.954ZM470.221 178.162H366.792V180.162H470.221V178.162ZM263.853 180.162L366.792 180.162V178.162L263.853 178.162L263.853 180.162ZM259.126 175.442C259.126 178.051 261.244 180.162 263.853 180.162V178.162C262.345 178.162 261.126 176.943 261.126 175.442H259.126ZM259.126 162.046V175.442H261.126V162.046H259.126ZM263.853 157.325C261.244 157.325 259.126 159.437 259.126 162.046H261.126C261.126 160.545 262.345 159.325 263.853 159.325V157.325Z" fill="#16B1E0" fill-opacity="0.5" mask="url(#path-28-inside-1)"/>
<rect x="506" y="150" width="46.7096" height="5.49525" fill="#16B1E0" fill-opacity="0.5"/>
<path fill-rule="evenodd" clip-rule="evenodd" d="M515.64 155.495L503 199.576L505.559 200.309L518.409 155.495H515.64ZM528 155.495V200.341H530.662V155.495H528ZM540.397 155.495L553.3 200.491L555.858 199.758L543.166 155.495H540.397Z" fill="#16B1E0" fill-opacity="0.3"/>
<path opacity="0.5" d="M522.622 138.389C522.819 137.551 523.581 137 524.442 137H533.558C534.419 137 535.181 137.551 535.378 138.389C535.661 139.595 536 141.463 536 143.5C536 145.537 535.661 147.405 535.378 148.611C535.181 149.449 534.419 150 533.558 150H524.442C523.581 150 522.819 149.449 522.622 148.611C522.339 147.405 522 145.537 522 143.5C522 141.463 522.339 139.595 522.622 138.389Z" fill="#91EBFF"/>
<path fill-rule="evenodd" clip-rule="evenodd" d="M532.697 132.461C535.016 131.593 535.812 133.346 534.686 134.083C534.503 134.202 534.258 134.355 533.974 134.531C532.921 135.186 531.329 136.175 530.37 137.077H529.819C530.249 135.418 531.19 133.026 532.697 132.461Z" fill="#93C437"/>
<path fill-rule="evenodd" clip-rule="evenodd" d="M526.584 131.042C526.37 130.387 526.201 129.87 526.103 129.577C526.032 129.365 525.948 129.135 525.859 128.893C525.319 127.427 524.635 125.567 526.103 125.077C527.603 124.577 529.603 126.577 530.103 129.077C530.465 130.887 530.303 134.791 530.186 137H528.558C527.881 135.009 527.101 132.623 526.584 131.042Z" fill="#93C437"/>
<path fill-rule="evenodd" clip-rule="evenodd" d="M529.386 137H529.836C530.658 135.336 532.764 132.442 533.812 131.381C533.834 131.359 533.855 131.337 533.876 131.316C535.117 130.06 535.601 129.571 535.6 129.078C535.6 128.577 533.873 127.933 531.6 130.077C529.87 131.709 529.327 135.205 529.386 137Z" fill="#BCE36F"/>
<path fill-rule="evenodd" clip-rule="evenodd" d="M525.046 132.453C521.498 131.591 520.323 134.087 522.223 134.087C525.736 134.087 527.292 135.628 528.186 137H529.226C528.399 135.101 526.65 132.843 525.046 132.453Z" fill="#93C437"/>
<path fill-rule="evenodd" clip-rule="evenodd" d="M528.607 137C528.356 136.361 527.973 135.636 527.412 134.954C526.923 134.36 526.136 133.736 525.35 133.113C523.777 131.866 522.204 130.619 523.009 129.607C523.814 128.595 525.685 129.871 527.152 131.653C528.472 133.257 528.876 135.244 529.052 137H528.607Z" fill="#BCE36F"/>
<path fill-rule="evenodd" clip-rule="evenodd" d="M455.345 98H278.736C268.458 98 260.126 106.336 260.126 116.619V134.871C258.241 130.438 253.362 127.271 248.367 127.271C241.983 127.271 236.809 132.442 236.809 138.819C236.809 144.557 240.997 149.317 246.485 150.215V187.608L246.486 187.684C246.527 190.22 248.598 192.263 251.146 192.263H265.42V196.784C265.42 198.419 266.729 199.744 268.345 199.744H268.415C270.03 199.744 271.34 198.419 271.34 196.784V192.263H461.755V196.784C461.755 198.419 463.064 199.744 464.679 199.744H464.75C466.365 199.744 467.675 198.419 467.675 196.784V192.263H482.935C485.509 192.263 487.596 190.179 487.596 187.608L487.596 150.215C493.084 149.317 497.272 144.557 497.272 138.819C497.272 132.442 492.098 127.271 485.714 127.271C480.917 127.271 476.068 130.192 473.955 134.351V116.619C473.955 106.336 465.623 98 455.345 98ZM262.617 178.659C262.743 178.708 262.878 178.747 263.022 178.776C262.884 178.744 262.749 178.705 262.617 178.659ZM470.581 178.852C470.962 178.835 471.281 178.758 471.548 178.629C471.243 178.744 470.919 178.82 470.581 178.852Z" fill="#16B1E0" fill-opacity="0.3"/>
<path d="M260.943 160.919V138.548C260.943 132.17 254.75 127 248.367 127C241.983 127 236.809 132.17 236.809 138.548C236.809 144.286 240.997 149.046 246.485 149.944V187.336L246.486 187.413C246.527 189.949 248.598 191.992 251.146 191.992H482.935C485.509 191.992 487.596 189.908 487.596 187.336L487.596 149.944C493.084 149.046 497.272 144.286 497.272 138.548C497.272 132.17 492.098 127 485.714 127C479.331 127 472.857 132.17 472.857 138.548L472.854 155.907V160" stroke="#16B1E0" stroke-opacity="0.5"/>
<path opacity="0.8" d="M452.14 120.033C454.516 119.633 457.078 119.526 458.714 119.683C458.956 122.927 457.938 124.399 458.132 125.724C458.326 127.049 459.215 134.998 459.075 140.925C458.971 145.348 457.659 151.248 457.641 152.227C457.619 153.402 458.372 154.416 458.298 158.416C457.85 158.304 456.308 157.879 454.808 157.851C450.283 159.134 444.34 157.823 438.815 157.188C434.177 156.655 428.623 155.146 424.341 155.578C421.319 156.73 419.591 156.81 420.183 155.501C421.435 152.731 421.813 124.191 422 122.242C422.188 120.294 420.875 118.155 423.694 119.062C426.513 119.97 430.82 119.159 435.449 118.425C440.078 117.691 449.764 120.433 452.14 120.033Z" fill="#E6FBFF"/>
<path d="M436.866 151.496C437.328 153.865 437.493 156.425 437.366 158.064C434.036 158.359 432.502 157.365 431.145 157.58C429.787 157.796 421.636 158.815 415.541 158.772C410.993 158.74 404.901 157.524 403.894 157.522C402.686 157.52 401.659 158.29 397.547 158.281C397.652 157.831 398.057 156.282 398.053 154.781C396.638 150.278 397.86 144.314 398.395 138.78C398.845 134.132 400.278 128.555 399.743 124.28C398.494 121.277 398.375 119.55 399.734 120.121C402.607 121.328 431.949 121.239 433.956 121.395C435.962 121.551 438.133 120.203 437.26 123.036C436.387 125.87 437.312 130.163 438.165 134.78C439.018 139.396 436.405 149.127 436.866 151.496Z" fill="#DDF2AE"/>
<path fill-rule="evenodd" clip-rule="evenodd" d="M295.148 151.034C295.148 156.084 299.642 158.491 308.629 158.254C317.549 158.254 325.954 158.254 333.842 158.254C335.711 159.97 329.927 161.359 329.927 170.179C329.927 177.244 335.73 181.102 341.25 181.102C346.77 181.102 351.489 177.757 351.489 171.123C351.489 169.786 350.947 169.068 349.272 169.068C348.154 169.068 347.32 169.753 346.77 171.123C346.253 174.694 344.413 176.479 341.25 176.479C336.506 176.479 334.881 172.998 334.881 170.179C334.881 167.361 336.411 164.024 339.044 161.794C341.677 159.564 343.942 159.188 347.609 158.254C350.773 158.254 351.489 158.254 354.331 158.254C358.01 156.228 359.617 151.147 359.617 149.009C359.617 145.844 359.617 131.417 343.15 125.55C336.879 123.315 328.571 124.145 320.792 127.102C313.013 130.058 311.944 130.802 310.166 130.802C308.389 130.802 305.3 127.26 304.479 127.742C303.658 128.224 304.515 133.03 304.024 134.257C303.534 135.483 299.209 137.332 297.555 137.938C295.9 138.545 290.081 138.722 289.745 139.839C289.58 140.385 291.381 141.424 295.148 142.954C295.148 144.772 295.148 147.466 295.148 151.034Z" fill="white"/>
<path d="M307.107 149.308C307.425 150.048 307.126 150.881 306.439 151.169C305.753 151.457 304.94 151.09 304.622 150.351" stroke="#124052" stroke-linecap="round" stroke-linejoin="round"/>
<path d="M309.72 148.002C310.037 148.742 309.739 149.575 309.052 149.863C308.366 150.151 307.552 149.784 307.234 149.045" stroke="#124052" stroke-linecap="round" stroke-linejoin="round"/>
<path fill-rule="evenodd" clip-rule="evenodd" d="M307.457 148.908L307.931 147.823C308.143 147.341 307.652 146.879 307.154 147.09L305.57 147.763C305.071 147.974 305.062 148.649 305.556 148.832L306.666 149.244C306.972 149.357 307.326 149.207 307.457 148.908Z" fill="#124052"/>
<path d="M315.526 144.134L313.419 145.857" stroke="#124052" stroke-linecap="round" stroke-linejoin="round"/>
<path d="M302.36 146.486C302.712 147.316 302.392 148.246 301.645 148.563C300.898 148.88 300.007 148.464 299.655 147.634" stroke="#124052" stroke-linecap="round" stroke-linejoin="round"/>
<path d="M310.524 142.24C310.876 143.07 310.556 144 309.808 144.318C309.061 144.635 308.171 144.218 307.818 143.389" stroke="#124052" stroke-linecap="round" stroke-linejoin="round"/>
<path d="M316.845 147.242L314.142 147.559" stroke="#124052" stroke-linecap="round" stroke-linejoin="round"/>
<path d="M297.791 151.663L300.493 151.344" stroke="#124052" stroke-linecap="round" stroke-linejoin="round"/>
<path d="M299.109 154.77L301.215 153.046" stroke="#124052" stroke-linecap="round" stroke-linejoin="round"/>
<path fill-rule="evenodd" clip-rule="evenodd" d="M296.095 153.908H288.125C286.731 154.161 285.672 154.701 284.949 155.529C283.865 156.771 283.515 158.512 284.949 159.41C286.384 160.308 287.292 158.27 288.101 158.262C288.641 158.256 293.93 158.202 303.969 158.099" fill="white"/>
<path d="M334.056 132.952C330.299 132.952 323.606 136.736 323.606 145.525C323.606 154.315 330.341 158.262 334.056 158.098" stroke="#124052"/>
<path opacity="0.5" d="M200 195C197.833 197.333 192.5 200 184.5 198C174.5 195.5 192.5 193.5 188.5 196.5C185.3 198.9 165.5 199.5 156 199" stroke="#FC9D03" stroke-linecap="round"/>
<path fill-rule="evenodd" clip-rule="evenodd" d="M215.804 191.339C215.804 195.979 212.042 199.741 207.401 199.741C202.762 199.741 199 195.979 199 191.339C199 186.7 202.762 182.938 207.401 182.938C212.042 182.938 215.804 186.7 215.804 191.339Z" fill="#FFAC38" fill-opacity="0.25"/>
<mask id="mask2" mask-type="alpha" maskUnits="userSpaceOnUse" x="199" y="182" width="17" height="18">
<path fill-rule="evenodd" clip-rule="evenodd" d="M215.804 191.339C215.804 195.979 212.042 199.741 207.401 199.741C202.762 199.741 199 195.979 199 191.339C199 186.7 202.762 182.938 207.401 182.938C212.042 182.938 215.804 186.7 215.804 191.339Z" fill="#FFD98C"/>
</mask>
<g mask="url(#mask2)">
<path opacity="0.5" d="M213 185C213 188.455 210.6 195.691 201 197" stroke="#FC9D03" stroke-linecap="round"/>
<path opacity="0.5" d="M215.484 187.526C215.193 190.969 212.193 197.977 202.516 198.474" stroke="#FC9D03" stroke-linecap="round"/>
<path opacity="0.5" d="M197.852 189.976C200.28 189.206 205.908 188.731 209 193" stroke="#FC9D03" stroke-linecap="round"/>
<path opacity="0.5" d="M201 184C203.889 184.381 209.433 186.014 210.5 191.5" stroke="#FC9D03" stroke-linecap="round"/>
</g>
</svg>
