<svg width="720" height="200" viewBox="0 0 720 200" fill="none" xmlns="http://www.w3.org/2000/svg">
<path d="M0 0H720V200H0V0Z" fill="#B2B2B2" fill-opacity="0.12"/>
<path opacity="0.5" d="M305.442 174.548C306.65 171.729 308.644 169.316 311.187 167.599C313.729 165.882 316.711 164.933 319.778 164.865C322.845 164.797 325.867 165.613 328.483 167.216C331.098 168.819 333.198 171.14 334.53 173.904C334.467 173.772 334.417 173.634 334.35 173.505L396.215 172.971L395.645 106.93C395.644 106.604 395.724 106.283 395.877 105.995L395.769 100.354L277.801 103.08L279.161 173.981L305.801 173.751C305.671 174.011 305.555 174.279 305.442 174.548Z" fill="#949494"/>
<path opacity="0.5" d="M334.989 174.94H334.997C334.983 174.907 334.966 174.876 334.953 174.843C334.966 174.874 334.977 174.908 334.989 174.94Z" fill="#949494"/>
<path opacity="0.5" d="M305.026 175.632H305.032C305.067 175.531 305.103 175.43 305.139 175.33C305.102 175.431 305.061 175.53 305.026 175.632Z" fill="#949494"/>
<path d="M462.289 141.5C462.262 138.358 461.004 135.352 458.784 133.128L435.094 109.386C433.592 107.88 431.804 106.689 429.836 105.883C427.868 105.076 425.758 104.67 423.631 104.688L397.626 104.913C397.364 104.915 397.104 104.969 396.862 105.072C396.621 105.175 396.402 105.324 396.218 105.511C396.034 105.698 395.888 105.92 395.79 106.164C395.692 106.407 395.643 106.667 395.645 106.93L396.215 172.971L421.801 172.75C423.116 170.102 425.138 167.869 427.645 166.3C430.151 164.732 433.043 163.888 435.999 163.862C438.956 163.837 441.862 164.631 444.395 166.156C446.928 167.681 448.989 169.879 450.349 172.504L462.383 172.4L462.426 177.36L451.957 177.45C451.965 177.504 451.973 177.557 451.98 177.61L462.6 177.519L462.289 141.5ZM402.17 144.557L402.138 140.837L413.298 140.741L413.33 144.461L402.17 144.557ZM457.641 161.44C457.379 161.442 457.118 161.393 456.874 161.295C456.631 161.196 456.409 161.051 456.222 160.867C456.034 160.682 455.885 160.463 455.783 160.221C455.68 159.979 455.626 159.72 455.624 159.457L455.583 154.777C455.581 154.514 455.63 154.254 455.729 154.01C455.827 153.767 455.973 153.545 456.157 153.358C456.341 153.171 456.56 153.021 456.802 152.919C457.044 152.816 457.304 152.762 457.566 152.76L460.526 152.734L460.601 161.414L457.641 161.44Z" fill="#FF752B" fill-opacity="0.75"/>
<path fill-rule="evenodd" clip-rule="evenodd" d="M353.417 75.7949C353.231 75.7958 353.051 75.7297 352.91 75.6087C352.769 75.4877 352.677 75.3199 352.649 75.1361C352.339 72.7909 351.248 70.6187 349.551 68.9707C347.854 67.3227 345.65 66.2953 343.297 66.0546C340.944 65.8139 338.578 66.3741 336.582 67.6444C334.587 68.9147 333.078 70.821 332.3 73.055C332.261 73.1637 332.189 73.2573 332.093 73.3228C331.998 73.3882 331.885 73.4221 331.769 73.4198C329.769 73.4247 327.847 74.1992 326.402 75.5827C324.957 76.9662 324.1 78.8527 324.008 80.8511C323.916 82.8495 324.597 84.8066 325.909 86.3168C327.221 87.8269 329.063 88.7743 331.055 88.9626L331.056 88.9632L331.057 88.9638H331.083C331.309 88.9848 331.537 89 331.769 89C332.001 89 332.227 88.9848 332.454 88.9638H352.74C352.965 88.9877 353.191 88.9998 353.417 89C355.164 88.9932 356.837 88.2946 358.069 87.0571C359.302 85.8196 359.994 84.1441 359.994 82.3975C359.994 80.6508 359.302 78.9753 358.069 77.7378C356.837 76.5003 355.164 75.8017 353.417 75.7949Z" fill="#16B1E0" fill-opacity="0.3"/>
<path d="M220 60.5H199C198.867 60.5 198.74 60.4473 198.646 60.3536C198.553 60.2598 198.5 60.1326 198.5 60C198.5 59.8674 198.553 59.7402 198.646 59.6464C198.74 59.5527 198.867 59.5 199 59.5H220C220.133 59.5 220.26 59.5527 220.354 59.6464C220.447 59.7402 220.5 59.8674 220.5 60C220.5 60.1326 220.447 60.2598 220.354 60.3536C220.26 60.4473 220.133 60.5 220 60.5Z" fill="#16B1E0"/>
<path d="M118.302 68.1973C118.17 68.1977 118.042 68.1454 117.948 68.0519C117.854 67.9585 117.801 67.8314 117.801 67.6988C117.8 67.5662 117.853 67.4389 117.946 67.3448C118.04 67.2508 118.167 67.1977 118.299 67.1973L129.146 67.1279C129.276 67.1343 129.4 67.1885 129.492 67.2801C129.585 67.3718 129.641 67.4944 129.649 67.6245C129.649 67.6902 129.637 67.7554 129.612 67.8162C129.587 67.8771 129.551 67.9325 129.505 67.9793C129.459 68.026 129.404 68.0632 129.343 68.0887C129.283 68.1142 129.218 68.1276 129.152 68.1279L118.305 68.1973H118.302Z" fill="#16B1E0"/>
<path fill-rule="evenodd" clip-rule="evenodd" d="M187.813 54.59C187.447 54.5922 187.092 54.4622 186.814 54.224C186.536 53.9857 186.353 53.6551 186.299 53.2929C185.747 48.6186 183.621 44.2714 180.27 40.9667C176.918 37.662 172.541 35.5968 167.86 35.1109C163.178 34.625 158.471 35.7474 154.512 38.2934C150.554 40.8394 147.58 44.6572 146.08 49.1186C146.003 49.3335 145.86 49.5187 145.672 49.6481C145.484 49.7776 145.26 49.8447 145.032 49.8401C141.061 49.9001 137.263 51.4733 134.413 54.2385C131.563 57.0037 129.876 60.7524 129.696 64.7194C129.516 68.6864 130.856 72.5726 133.444 75.5846C136.032 78.5966 139.672 80.5074 143.621 80.9269L143.622 80.9282L143.623 80.9295H143.678C144.125 80.9695 144.575 81.0002 145.032 81.0002C145.489 81.0002 145.94 80.9692 146.387 80.9295H186.475C186.919 80.9761 187.366 80.9997 187.813 81C191.281 80.9477 194.589 79.5335 197.022 77.0628C199.456 74.592 200.82 71.2631 200.82 67.795C200.82 64.3269 199.456 60.998 197.022 58.5272C194.589 56.0565 191.281 54.6423 187.813 54.59Z" fill="#16B1E0" fill-opacity="0.3"/>
<path d="M211.971 67.1279L201.124 67.1973C201.004 67.1995 200.89 67.2449 200.801 67.3251C200.807 67.4821 200.825 67.6359 200.825 67.7943C200.825 67.8896 200.813 67.9816 200.811 68.0764C200.898 68.1528 201.01 68.1956 201.126 68.1973H201.129L211.977 68.1279C212.043 68.1275 212.108 68.1142 212.168 68.0887C212.229 68.0631 212.284 68.026 212.33 67.9792C212.376 67.9325 212.413 67.8771 212.437 67.8162C212.462 67.7553 212.475 67.6902 212.474 67.6245C212.476 67.5583 212.464 67.4925 212.439 67.431C212.414 67.3696 212.377 67.3139 212.33 67.2674C212.283 67.2209 212.227 67.1845 212.165 67.1605C212.103 67.1365 212.037 67.1254 211.971 67.1279Z" fill="#16B1E0"/>
<path d="M643.693 74.1973H643.69L632.843 74.1279C632.778 74.1275 632.713 74.1142 632.652 74.0887C632.592 74.0632 632.537 74.026 632.49 73.9792C632.444 73.9325 632.408 73.8771 632.383 73.8162C632.358 73.7554 632.346 73.6902 632.346 73.6245C632.342 73.5576 632.352 73.4905 632.376 73.4279C632.399 73.3652 632.436 73.3084 632.484 73.2613C632.532 73.2141 632.589 73.1779 632.652 73.1548C632.715 73.1318 632.782 73.1226 632.849 73.1279L643.696 73.1973C643.828 73.1977 643.955 73.2507 644.049 73.3448C644.142 73.4388 644.195 73.5661 644.194 73.6988C644.194 73.8314 644.141 73.9584 644.047 74.0519C643.953 74.1454 643.826 74.1977 643.693 74.1973H643.693Z" fill="#16B1E0"/>
<path fill-rule="evenodd" clip-rule="evenodd" d="M574.183 60.59C574.549 60.5922 574.904 60.4622 575.182 60.2239C575.46 59.9856 575.642 59.6551 575.696 59.2929C576.248 54.6186 578.374 50.2714 581.726 46.9666C585.077 43.6619 589.454 41.5967 594.136 41.1108C598.817 40.6249 603.525 41.7473 607.484 44.2933C611.442 46.8393 614.416 50.6572 615.916 55.1186C615.993 55.3335 616.136 55.5187 616.324 55.6482C616.512 55.7776 616.736 55.8448 616.964 55.8401C620.935 55.9006 624.732 57.474 627.582 60.2391C630.432 63.0043 632.119 66.7528 632.299 70.7195C632.479 74.6863 631.138 78.5722 628.551 81.5841C625.963 84.5961 622.324 86.507 618.375 86.9269L618.374 86.9282L618.372 86.9295H618.317C617.87 86.9695 617.421 87.0002 616.964 87.0002C616.507 87.0002 616.056 86.9692 615.609 86.9295H575.521C575.077 86.9762 574.63 86.9997 574.183 87C570.716 86.9478 567.408 85.5335 564.974 83.0628C562.54 80.5921 561.176 77.2631 561.176 73.795C561.176 70.3269 562.54 66.998 564.974 64.5273C567.408 62.0565 570.716 60.6423 574.183 60.59Z" fill="#16B1E0" fill-opacity="0.3"/>
<path d="M561.171 73.7943C561.171 73.636 561.189 73.4824 561.194 73.3254C561.106 73.2451 560.991 73.1996 560.872 73.1973L550.025 73.1279H550.022C549.889 73.1275 549.762 73.1799 549.668 73.2734C549.574 73.3669 549.521 73.4939 549.521 73.6265C549.52 73.7591 549.572 73.8864 549.666 73.9805C549.759 74.0745 549.886 74.1275 550.019 74.1279L560.866 74.1973H560.869C560.985 74.1956 561.097 74.1527 561.185 74.0761C561.183 73.9814 561.171 73.89 561.171 73.7943Z" fill="#16B1E0"/>
<path d="M563.282 66.5982C563.201 66.5368 563.102 66.5025 563 66.5H542C541.867 66.5 541.74 66.5527 541.646 66.6464C541.553 66.7402 541.5 66.8674 541.5 67C541.5 67.1326 541.553 67.2598 541.646 67.3536C541.74 67.4473 541.867 67.5 542 67.5H562.742C562.908 67.19 563.093 66.8925 563.282 66.5982Z" fill="#16B1E0"/>
<path d="M401.905 113.836C401.9 113.311 401.999 112.79 402.196 112.303C402.393 111.816 402.684 111.372 403.052 110.998C403.421 110.623 403.859 110.325 404.343 110.119C404.826 109.914 405.346 109.806 405.871 109.802C413.735 109.734 419.699 109.683 426.253 109.626C427.314 109.617 428.335 110.03 429.092 110.773L448.539 129.888C449.103 130.443 449.49 131.152 449.651 131.926C449.812 132.701 449.739 133.506 449.443 134.239C449.147 134.972 448.64 135.601 447.986 136.046C447.332 136.492 446.561 136.733 445.77 136.74L406.105 137.082C405.58 137.087 405.059 136.988 404.572 136.791C404.085 136.594 403.641 136.303 403.267 135.935C402.892 135.567 402.594 135.129 402.388 134.645C402.183 134.161 402.075 133.642 402.071 133.117L401.905 113.836Z" fill="white" fill-opacity="0.5"/>
<path d="M413.298 140.741L402.138 140.837L402.17 144.557L413.33 144.461L413.298 140.741Z" fill="#6E1D13"/>
<path opacity="0.75" d="M320.138 196.861C328.975 196.861 336.138 189.698 336.138 180.861C336.138 172.024 328.975 164.861 320.138 164.861C311.302 164.861 304.138 172.024 304.138 180.861C304.138 189.698 311.302 196.861 320.138 196.861Z" fill="#914017"/>
<path d="M320 164.862C322.095 164.841 324.174 165.233 326.117 166.017C328.06 166.8 329.83 167.958 331.326 169.425L393.159 167.996L391.928 103.828L281.843 106.372L283.073 170.541L308.451 169.954C309.928 168.364 311.714 167.092 313.7 166.216C315.686 165.34 317.83 164.88 320 164.862Z" fill="white" fill-opacity="0.5"/>
<path opacity="0.7" d="M320.095 191.905C326.17 191.905 331.095 186.98 331.095 180.905C331.095 174.83 326.17 169.905 320.095 169.905C314.02 169.905 309.095 174.83 309.095 180.905C309.095 186.98 314.02 191.905 320.095 191.905Z" fill="#DEDEDE"/>
<path d="M320.035 184.965C322.244 184.965 324.035 183.174 324.035 180.965C324.035 178.756 322.244 176.965 320.035 176.965C317.826 176.965 316.035 178.756 316.035 180.965C316.035 183.174 317.826 184.965 320.035 184.965Z" fill="#6E1D13"/>
<path opacity="0.75" d="M436.138 195.861C444.975 195.861 452.138 188.698 452.138 179.861C452.138 171.024 444.975 163.861 436.138 163.861C427.302 163.861 420.138 171.024 420.138 179.861C420.138 188.698 427.302 195.861 436.138 195.861Z" fill="#914017"/>
<path opacity="0.75" fill-rule="evenodd" clip-rule="evenodd" d="M451.957 177.45L462.426 177.36L462.383 172.4L450.349 172.504C451.153 174.053 451.697 175.724 451.957 177.45ZM421.801 172.75L334.35 173.505C335.154 175.054 335.698 176.726 335.958 178.452L420.279 177.724C420.509 175.994 421.024 174.313 421.801 172.75ZM277 174L305.801 173.751C305.024 175.314 304.51 176.995 304.279 178.725L277.043 178.96L277 174Z" fill="#914017"/>
<path opacity="0.7" d="M436.095 190.905C442.17 190.905 447.095 185.98 447.095 179.905C447.095 173.83 442.17 168.905 436.095 168.905C430.02 168.905 425.095 173.83 425.095 179.905C425.095 185.98 430.02 190.905 436.095 190.905Z" fill="#DEDEDE"/>
<path d="M436.034 183.965C438.243 183.965 440.034 182.174 440.034 179.965C440.034 177.756 438.243 175.965 436.034 175.965C433.825 175.965 432.034 177.756 432.034 179.965C432.034 182.174 433.825 183.965 436.034 183.965Z" fill="#6E1D13"/>
<path d="M455.583 154.777C455.581 154.514 455.63 154.254 455.729 154.01C455.827 153.767 455.973 153.545 456.157 153.358C456.341 153.171 456.56 153.021 456.802 152.919C457.044 152.816 457.303 152.762 457.566 152.76L460.526 152.734L460.601 161.414L457.641 161.44C457.378 161.442 457.118 161.393 456.874 161.295C456.631 161.196 456.409 161.051 456.222 160.867C456.034 160.682 455.885 160.463 455.783 160.221C455.68 159.979 455.626 159.72 455.624 159.457L455.583 154.777Z" fill="#FFECC2"/>
<path opacity="0.8" fill-rule="evenodd" clip-rule="evenodd" d="M248.113 189.11C247.993 189.111 247.874 189.117 247.755 189.13C247.694 187.856 247.183 186.646 246.313 185.713C245.444 184.781 244.272 184.187 243.005 184.037C241.739 183.887 240.461 184.192 239.398 184.896C238.334 185.6 237.555 186.658 237.199 187.882C237.13 187.878 237.061 187.871 236.991 187.871C235.957 187.89 234.97 188.302 234.229 189.024C233.489 189.745 233.051 190.721 233.004 191.754C232.958 192.786 233.306 193.798 233.978 194.583C234.651 195.368 235.597 195.868 236.625 195.98V195.981H236.639C236.755 195.992 236.872 196 236.991 196C237.11 196 237.227 195.992 237.343 195.981H247.766C247.881 195.993 247.997 196 248.113 196H261C252.009 194.435 249.982 189.11 248.113 189.11Z" fill="#CCCCCC"/>
<path opacity="0.8" fill-rule="evenodd" clip-rule="evenodd" d="M224.431 175.992L224.428 175.947C224.359 175.882 224.359 175.89 224.431 175.992ZM222.508 179.989H224.437C224.503 179.996 224.57 180 224.636 180H232C229.168 179.441 226.563 178.06 224.512 176.028C224.478 175.994 224.449 175.967 224.428 175.947C224.38 175.159 224.037 174.418 223.467 173.872C222.897 173.325 222.142 173.014 221.352 173C220.682 173.008 220.032 173.233 219.5 173.641C218.968 174.049 218.582 174.619 218.4 175.264C218.385 175.264 218.37 175.263 218.356 175.262C218.331 175.26 218.306 175.258 218.281 175.258C217.686 175.282 217.122 175.528 216.7 175.949C216.278 176.369 216.029 176.932 216.002 177.527C215.976 178.122 216.174 178.705 216.557 179.161C216.94 179.617 217.48 179.912 218.071 179.989H218.079C218.146 179.995 218.213 180 218.281 180C218.349 180 218.415 179.995 218.482 179.989H218.492C218.725 180.303 219.027 180.557 219.376 180.733C219.725 180.908 220.11 181 220.5 181C220.89 181 221.275 180.908 221.624 180.733C221.973 180.557 222.275 180.303 222.508 179.989Z" fill="#CCCCCC"/>
<path opacity="0.8" d="M270.5 192H256C255.867 192 255.74 191.947 255.646 191.854C255.553 191.76 255.5 191.633 255.5 191.5C255.5 191.367 255.553 191.24 255.646 191.146C255.74 191.053 255.867 191 256 191H270.5C270.633 191 270.76 191.053 270.854 191.146C270.947 191.24 271 191.367 271 191.5C271 191.633 270.947 191.76 270.854 191.854C270.76 191.947 270.633 192 270.5 192Z" fill="#B2B2B2"/>
<path opacity="0.8" d="M266.5 187.5H252C251.867 187.5 251.74 187.447 251.646 187.354C251.553 187.26 251.5 187.133 251.5 187C251.5 186.867 251.553 186.74 251.646 186.646C251.74 186.553 251.867 186.5 252 186.5H266.5C266.633 186.5 266.76 186.553 266.854 186.646C266.947 186.74 267 186.867 267 187C267 187.133 266.947 187.26 266.854 187.354C266.76 187.447 266.633 187.5 266.5 187.5Z" fill="#B2B2B2"/>
</svg>
