<?xml version="1.0" standalone="no"?>
<!DOCTYPE svg PUBLIC "-//W3C//DTD SVG 1.1//EN" "http://www.w3.org/Graphics/SVG/1.1/DTD/svg11.dtd" >
<svg xmlns="http://www.w3.org/2000/svg" id="minimize_12">
<path unicode="&#xec3c;" id="minimize_12" data-tags="minimize_12" d="M8 4l3.5 0c.276 0 .5.224.5.5 0 .276-.224.5-.5.5l-4 0c-.276 0-.5-.224-.5-.5l0-4c0-.276.224-.5.5-.5.276 0 .5.224.5.5L8 4zM.5 7l4 0c.276 0 .5.224.5.5l0 4c0 .276-.224.5-.5.5-.276 0-.5-.224-.5-.5L4 8 .5 8C.224 8 0 7.776 0 7.5c0-.276.224-.5.5-.5z" />
</svg>
