<?xml version="1.0" standalone="no"?>
<!DOCTYPE svg PUBLIC "-//W3C//DTD SVG 1.1//EN" "http://www.w3.org/Graphics/SVG/1.1/DTD/svg11.dtd" >
<svg xmlns="http://www.w3.org/2000/svg" id="minimize_16">
<path unicode="&#xe9b9;" transform="scale(1,-1)" id="minimize_16" data-tags="minimize_16" d="M32 256h288v-288c0-17.664 14.336-32 32-32s32 14.336 32 32v320c0 17.664-14.336 32-32 32h-320c-17.664 0-32-14.336-32-32s14.336-32 32-32zM672 576h320c17.664 0 32 14.336 32 32s-14.336 32-32 32h-288v288c0 17.664-14.336 32-32 32s-32-14.336-32-32v-320c0-17.664 14.336-32 32-32z" />
</svg>
