<?xml version="1.0" encoding="UTF-8"?>
<svg xmlns="http://www.w3.org/2000/svg" viewBox="0 0 229.42 111.65">
   <defs>
      <style type="text/css">.cls-1,.cls-3,.cls-4,.cls-5{fill:#48e33d;}.cls-1,.cls-3,.cls-6{opacity:0.25;}.cls-2,.cls-7,.cls-9{fill:none;stroke-linecap:round;stroke-linejoin:round;}.cls-2{stroke:#48e33d;}.cls-3{fill-rule:evenodd;}.cls-4{opacity:0.5;}.cls-6,.cls-8{fill:#f37531;}.cls-7{stroke:#f37531;}.cls-9{stroke:#19b0de;}</style>
   </defs>
   <title>moderatedSpace</title>
   <g id="moderatedSpace" data-name="Layer 2">
      <g id="Working">
         <ellipse class="cls-1" cx="74.3" cy="47.47" rx="6.21" ry="6.72" />
         <line class="cls-2" x1="74.31" y1="48.03" x2="74.31" y2="60.35" />
         <line class="cls-2" x1="28.42" y1="48.03" x2="28.42" y2="60.35" />
         <line class="cls-2" x1="41.36" y1="48.03" x2="41.36" y2="60.35" />
         <polygon class="cls-3" points="41.36 27.73 34.89 45.66 28.42 27.73 18.77 54.48 31.71 54.48 38.07 54.48 51.01 54.48 41.36 27.73" />
         <ellipse class="cls-1" cx="215.1" cy="47.47" rx="6.21" ry="6.72" />
         <line class="cls-2" x1="215.12" y1="48.03" x2="215.12" y2="60.35" />
         <line class="cls-2" x1="196.18" y1="48.03" x2="196.18" y2="60.35" />
         <polygon class="cls-3" points="196.18 27.73 186.53 54.48 205.83 54.48 196.18 27.73" />
         <line class="cls-2" x1="94.56" y1="48.03" x2="94.56" y2="60.35" />
         <polygon class="cls-3" points="94.56 27.73 84.91 54.48 104.22 54.48 94.56 27.73" />
         <line class="cls-2" x1="158.22" y1="60.7" x2="220.81" y2="60.7" />
         <line class="cls-2" x1="12.83" y1="60.7" x2="118.86" y2="60.7" />
         <line class="cls-2" x1="168.19" y1="106.97" x2="182.37" y2="106.97" />
         <line class="cls-2" x1="192.7" y1="106.97" x2="228.92" y2="106.97" />
         <line class="cls-2" x1="55.4" y1="106.97" x2="108.74" y2="106.97" />
         <line class="cls-2" x1="0.5" y1="106.97" x2="45.69" y2="106.97" />
         <path class="cls-2" d="M30.39,78.79H42.72a4.12,4.12,0,0,0-.81-2.71c-.93-1,2.43-.42,3.24,1.35,0,0,1.22-4.25,3.3-4.25,0,0-1.5,5.61.54,5.61H59.17" />
         <path class="cls-2" d="M191.57,80.08a4.1,4.1,0,0,0-.81-2.7c-.93-1,2.43-.42,3.24,1.35,0,0,1.22-4.25,3.3-4.25,0,0-1.5,5.6.54,5.6,1,0,1-3.13,3.31-3.13,0,0-.9,2.32,0,3.13" />
         <path class="cls-2" d="M45.74,106.89a4.1,4.1,0,0,0-.81-2.7c-.93-1,2.43-.42,3.24,1.35,0,0,1.22-4.25,3.3-4.25,0,0-1.5,5.6.54,5.6,1,0,1-3.13,3.31-3.13,0,0-.9,2.32,0,3.13" />
         <path class="cls-4" d="M192.6,111.64a10.35,10.35,0,0,1-5.92-1.68,9.59,9.59,0,0,1-3.08-3.52,10.2,10.2,0,0,1-1-3.39,8.65,8.65,0,0,1,1.72.11,9.24,9.24,0,0,1,4.21,1.57,9.68,9.68,0,0,1,3.08,3.52A9.31,9.31,0,0,1,192.6,111.64Z" />
         <path class="cls-4" d="M92.07,103a9.59,9.59,0,0,1-1.72-.11,9.18,9.18,0,0,1-4.2-1.57,9.74,9.74,0,0,1-3.08-3.53,10.16,10.16,0,0,1-1-3.38A10.4,10.4,0,0,1,88,96.12a9.59,9.59,0,0,1,3.08,3.52A9.26,9.26,0,0,1,92.07,103Z" />
         <path class="cls-5" d="M194.94,97a5.33,5.33,0,0,1,.22.83,4.66,4.66,0,0,1-.09,2.23,4.84,4.84,0,0,1-1.19,2,4.69,4.69,0,0,1-1.44,1,4,4,0,0,1-.22-.83A4.75,4.75,0,0,1,194.94,97Z" />
         <path class="cls-5" d="M77.28,90.52a5.33,5.33,0,0,1,.22.83,4.66,4.66,0,0,1-.09,2.23,4.84,4.84,0,0,1-1.19,2,4.69,4.69,0,0,1-1.44,1,4,4,0,0,1-.22-.83,4.75,4.75,0,0,1,2.72-5.23Z" />
         <path class="cls-1" d="M78.56,78.79a5.49,5.49,0,0,0-.29.95,5.43,5.43,0,0,0,0,2.62,5.68,5.68,0,0,0,1.3,2.39A5.76,5.76,0,0,0,81.23,86a6.11,6.11,0,0,0,.28-3.57,5.51,5.51,0,0,0-1.3-2.4A5.38,5.38,0,0,0,78.56,78.79Z" />
         <path class="cls-6" d="M109.29,94.1a13.12,13.12,0,0,1-7.3-3.3c-2.83-2.57-4.92-5.27-4.92-9.59,0-1.23-2-3.11-.42-6.18.1-.2,1.62,1.85,1.71,1.65.52-1.27-.3-3.28,1.39-5,.2-.21,1,1.28,1.21,1.08,2-2.12,4.22-3,4.32-2.14a16.13,16.13,0,0,0-3.44,9.76c.06,5,4.1,7.34,7.71,8" />
         <path class="cls-6" d="M165.05,101.11,162.6,100c7.17-4.08,4.55-11.93,3.9-13.13-.5-.91-3.14-2.75-3.14-2.75a50.75,50.75,0,0,0-1-5.11l-9.24-40.35v-.08c2.58,6.43,5.3,9.4,8.45,1.28,0,0,2.53-5.81,2.53-8.41.32-3.44-14.78-14.11-18.66-9l.32.79c-4.66-3.12-12.13-2.81-15.64.82l1.31-1.61c-3.89-5.06-19,5.61-18.67,9.05,0,2.6,2.53,8.41,2.53,8.41,4,10.19,7.22,2.92,10.42-6.74l-1.82,5.54-9.12,39.81h0c-.53,2.25-.86,3.89-1.16,5.68A9.06,9.06,0,0,0,111,86c-2.59,3.28-1.21,6.91-1,9.06.23,3.29,4.58,5,3.61,5.23l-1.93,1.11a9,9,0,0,0-2.52,3.64c-1,2.25-.54,2.24,1.93,2.16h15.56a5,5,0,0,0,6.89,0h9.19a5,5,0,0,0,6.88,0h16.54c2.47.08,2.92.7,2.15-1.65A9.07,9.07,0,0,0,165.05,101.11Z" />
         <path class="cls-7" d="M113.63,84.14c.43-2.59.88-4.61,1-5.14l9.47-41.37" />
         <path class="cls-7" d="M163.51,84.35A51.36,51.36,0,0,0,162.42,79l-9.8-41.77" />
         <path class="cls-7" d="M109.29,94.1a13.12,13.12,0,0,1-7.3-3.3c-2.83-2.57-4.92-5.5-4.92-9.82,0-1.23-2-3.11-.42-6.19.1-.19,1.62,2.09,1.71,1.89.52-1.27-.3-3.28,1.39-5,.2-.21,1,1.28,1.21,1.08,2-2.12,4.22-3,4.32-2.14a16.13,16.13,0,0,0-3.44,9.76c.06,5,4.1,7.34,7.71,8" />
         <path class="cls-7" d="M148.18,25.43c-4.23-5.8-15.37-5.81-18.9-.36" />
         <ellipse class="cls-8" cx="132.03" cy="34.31" rx="1.78" ry="1.72" transform="translate(-3 14.94) rotate(-6.4)" />
         <path class="cls-7" d="M132.81,44.06A2.8,2.8,0,0,0,138.1,43h0a3.09,3.09,0,0,0,2.8,2.48,3.17,3.17,0,0,0,2.52-1.63" />
         <ellipse class="cls-8" cx="137.88" cy="40.69" rx="3.7" ry="2.35" transform="translate(-0.64 2.23) rotate(-0.93)" />
         <ellipse class="cls-6" cx="144.44" cy="32.78" rx="4.4" ry="5.95" transform="translate(-1.52 57.94) rotate(-22.56)" />
         <ellipse class="cls-8" cx="143.99" cy="34.31" rx="1.72" ry="1.78" transform="translate(93.84 173.57) rotate(-83.6)" />
         <path class="cls-7" d="M145.46,22.39c3.89-5.05,19,5.62,18.66,9.05,0,2.6-2.53,8.41-2.53,8.41-4.1,10.58-7.47,2.34-10.78-7.86" />
         <path class="cls-7" d="M131.45,22.39c-3.88-5.05-19,5.62-18.66,9.05,0,2.6,2.53,8.41,2.53,8.41,4.11,10.58,7.47,2.34,10.78-7.86" />
         <path class="cls-7" d="M125,80.67V103.6a5.08,5.08,0,0,0,5.06,5.06h0a5.07,5.07,0,0,0,5.06-5.06V73.24" />
         <path class="cls-7" d="M151.21,80.67V103.6a5.07,5.07,0,0,1-5.06,5.06h0a5.08,5.08,0,0,1-5.06-5.06V73.24" />
         <path class="cls-7" d="M108.77,107.12a7.41,7.41,0,0,1,7.67-7.37,8,8,0,0,1,4.29,1.21" />
         <path class="cls-7" d="M168.22,107.12a7.41,7.41,0,0,0-7.67-7.37,8,8,0,0,0-4.29,1.21" />
         <line class="cls-7" x1="133.44" y1="29.48" x2="129.46" y2="29.61" />
         <line class="cls-7" x1="142.6" y1="29.51" x2="146.59" y2="29.58" />
         <path class="cls-7" d="M114,99.87c-7-3.47-6.84-18.18,4.06-15.61" />
         <path class="cls-7" d="M162.8,99.87c7-3.47,6.84-18.18-4.05-15.61" />
         <path class="cls-9" d="M121,47.23c-.52,2.56,17.16,11.46,17.16,11.46S156.61,50.18,156,47.23" />
         <circle class="cls-9" cx="138.17" cy="61.28" r="2.55" />
         <line class="cls-9" x1="139" y1="68.75" x2="138.07" y2="68.75" />
         <polyline class="cls-9" points="138.07 64.27 138.07 71.32 139.92 71.32" />
         <line class="cls-2" x1="56.93" y1="85.6" x2="67.03" y2="85.6" />
         <line class="cls-2" x1="21.06" y1="85.6" x2="39.72" y2="85.6" />
         <line class="cls-2" x1="174.64" y1="80.08" x2="191.41" y2="80.08" />
         <line class="cls-2" x1="199.07" y1="88.47" x2="212.48" y2="88.47" />
         <path class="cls-2" d="M116.05,24.68C108.06,18.2,87.6.5,86,.5,84.53.5,61.86,24.38,47.48,39.35" />
         <path class="cls-2" d="M186.17,60.7S174.79,51.54,162.88,42" />
         <path class="cls-2" d="M189.32,43.67c-5.54-4.26-9.15-6.93-9.53-6.93-1.13,0-6.91,5.17-11.86,9.33" />
         <path class="cls-2" d="M210.79,60.5l-6.4-5.06" />
      </g>
   </g>
</svg>

