<?xml version="1.0" standalone="no"?>
<!DOCTYPE svg PUBLIC "-//W3C//DTD SVG 1.1//EN" "http://www.w3.org/Graphics/SVG/1.1/DTD/svg11.dtd" >
<svg xmlns="http://www.w3.org/2000/svg" id="more_adr_28">
<path unicode="&#xec29;" id="more_adr_28" data-tags="more_adr_28" d="M13 14c0-.55228475.44771525-1 1-1 .55228475 0 1 .44771525 1 1 0 .55228475-.44771525 1-1 1-.55228475 0-1-.44771525-1-1zm0 7c0-.5522847.44771525-1 1-1 .55228475 0 1 .4477153 1 1 0 .5522847-.44771525 1-1 1-.55228475 0-1-.4477153-1-1zm0-14c0-.55228475.44771525-1 1-1 .55228475 0 1 .44771525 1 1 0 .55228475-.44771525 1-1 1-.55228475 0-1-.44771525-1-1z" />
</svg>
