<svg width="12" height="12" viewBox="0 0 12 12" fill="none" xmlns="http://www.w3.org/2000/svg">
	<g>
		<path fill-rule="evenodd" clip-rule="evenodd" d="M9.5 1.31595C9.5 1.19337 9.39074 1.09964 9.26959 1.11828L4.16959 1.90289C4.07202 1.9179 4 2.00185 4 2.10057V10C4 10.2762 3.77614 10.5 3.5 10.5C3.22386 10.5 3 10.2762 3 10V2.10057C3 1.50828 3.43213 1.00458 4.01753 0.914519L9.11753 0.129904C9.84444 0.0180713 10.5 0.580487 10.5 1.31595V7.50002C10.5 7.77616 10.2761 8.00002 10 8.00002C9.72386 8.00002 9.5 7.77616 9.5 7.50002V1.31595Z"/>
		<path fill-rule="evenodd" clip-rule="evenodd" d="M10 1.5C10.2761 1.5 10.5 1.72386 10.5 2V8.5C10.5 8.77614 10.2761 9 10 9C9.72386 9 9.5 8.77614 9.5 8.5V2C9.5 1.72386 9.72386 1.5 10 1.5Z"/>
		<path fill-rule="evenodd" clip-rule="evenodd" d="M2 9C1.44772 9 1 9.44772 1 10C1 10.5523 1.44772 11 2 11C2.55228 11 3 10.5523 3 10C3 9.44772 2.55228 9 2 9ZM0 10C0 8.89543 0.895431 8 2 8C3.10457 8 4 8.89543 4 10C4 11.1046 3.10457 12 2 12C0.895431 12 0 11.1046 0 10Z"/>
		<path fill-rule="evenodd" clip-rule="evenodd" d="M8.5 7.5C7.94772 7.5 7.5 7.94772 7.5 8.5C7.5 9.05228 7.94772 9.5 8.5 9.5C9.05228 9.5 9.5 9.05228 9.5 8.5C9.5 7.94772 9.05228 7.5 8.5 7.5ZM6.5 8.5C6.5 7.39543 7.39543 6.5 8.5 6.5C9.60457 6.5 10.5 7.39543 10.5 8.5C10.5 9.60457 9.60457 10.5 8.5 10.5C7.39543 10.5 6.5 9.60457 6.5 8.5Z"/>
		<path fill-rule="evenodd" clip-rule="evenodd" d="M10.076 3.4942L3.57601 4.4942L3.42395 3.50583L9.92395 2.50583L10.076 3.4942Z"/>
	</g>
</svg>
