<svg width="20" height="20" viewBox="0 0 20 20" fill="none" xmlns="http://www.w3.org/2000/svg">
<path fill-rule="evenodd" clip-rule="evenodd" d="M14.577 4.716L4.716 14.577C3.651 13.348 3 11.75 3 10C3 6.14 6.141 3 10 3C11.75 3 13.349 3.651 14.577 4.716ZM16.968 9.3302C16.8252 7.84349 16.2124 6.49331 15.284 5.423L5.423 15.284C6.49331 16.2124 7.84349 16.8252 9.3302 16.968C9.45514 17.328 9.61341 17.6724 9.8013 17.9976C5.4751 17.8921 2 14.3526 2 10C2 5.582 5.582 2 10 2C14.3526 2 17.8921 5.4751 17.9976 9.8013C17.6724 9.61341 17.328 9.45514 16.968 9.3302Z" fill="#F7F7F7"/>
<path fill-rule="evenodd" clip-rule="evenodd" d="M20 15C20 17.7614 17.7614 20 15 20C12.2386 20 10 17.7614 10 15C10 12.2386 12.2386 10 15 10C17.7614 10 20 12.2386 20 15ZM17.8796 13.8254C18.0593 13.6157 18.0351 13.3001 17.8254 13.1204C17.6157 12.9407 17.3001 12.9649 17.1204 13.1746L14.4718 16.2647L12.8536 14.6464C12.6583 14.4512 12.3417 14.4512 12.1464 14.6464C11.9512 14.8417 11.9512 15.1583 12.1464 15.3536L14.1464 17.3536C14.2449 17.452 14.38 17.505 14.5192 17.4996C14.6584 17.4943 14.789 17.4311 14.8796 17.3254L17.8796 13.8254Z" fill="#00A0D1"/>
</svg>
