<?xml version="1.0" encoding="UTF-8"?>
<svg xmlns="http://www.w3.org/2000/svg" viewBox="0 0 78.56 51.39">
   <defs>
      <style type="text/css">.cls-1,.cls-11,.cls-7,.cls-9{fill:none;}.cls-1,.cls-11{stroke:#16b1e0;}.cls-1,.cls-11,.cls-4,.cls-7,.cls-9{stroke-linecap:round;}.cls-1,.cls-11,.cls-4,.cls-7{stroke-linejoin:round;}.cls-2{fill:#48e33d;}.cls-11,.cls-2,.cls-6{opacity:0.25;}.cls-3,.cls-4{fill:#ffac38;}.cls-3{fill-opacity:0.25;}.cls-3,.cls-4,.cls-7{stroke:#ffac38;}.cls-3,.cls-9{stroke-miterlimit:10;}.cls-10,.cls-5,.cls-6{fill:#00b8f1;}.cls-5{opacity:0.5;}.cls-8{fill:#ffac37;}.cls-9{stroke:#48e33d;}</style>
   </defs>
   <title>no_bots_results</title>
   <g id="no_bots_results" data-name="Layer 7">
      <line class="cls-1" x1="60.55" y1="43.25" x2="77.3" y2="43.25" />
      <line class="cls-1" x1="35.51" y1="43.25" x2="53.47" y2="43.25" />
      <line class="cls-1" x1="0.82" y1="43.25" x2="7.5" y2="43.25" />
      <rect class="cls-2" x="41.89" y="24.64" width="3.23" height="2.3" rx="1" />
      <path class="cls-3" d="M27.43,43.25c.85-2.22,6.81-4,7.41-6.49.51-2.14.4-3.1-.51-4.17C33,31,33.09,31.51,32.39,30c-.49-1.06.3-3.12-1.16-4.08-1.89-1.23-2.38.07-3.8-1-1-.76-1.68-3.25-3.36-3.24s-1.88,1.24-3.25,1.3-1.63-1.07-3.48-1.31C15.41,21.67,15,24.23,14,25c-1.32.95-2.5-.54-4.13.62-1.43,1-.5,3.09-1.21,4.66-.33.73-.87.56-2,1.83-.92,1.07-1,3-.47,4.78.84,2.57,5.67,4,7.14,6.21Z" />
      <line class="cls-4" x1="10.01" y1="32.46" x2="15.12" y2="40.99" />
      <line class="cls-4" x1="14.3" y1="28.04" x2="17.24" y2="40.99" />
      <line class="cls-4" x1="20.84" y1="25.89" x2="20.49" y2="40.99" />
      <line class="cls-4" x1="26.75" y1="28.04" x2="23.57" y2="40.99" />
      <line class="cls-4" x1="30.67" y1="32.46" x2="25.57" y2="40.99" />
      <path class="cls-3" d="M27.43,43.19c.85.78,6.81,1.39,7.41,2.27s.4,1.08-.51,1.46c-1.35.56-1.24.37-1.94.9-.49.37.31,1.09-1.16,1.43-1.89.43-2.37,0-3.8.35-1,.27-1.68,1.14-3.36,1.14s-1.88-.44-3.25-.46-1.63.38-3.48.46S15,49.84,14,49.58c-1.32-.33-2.5.19-4.12-.21-1.44-.36-.51-1.09-1.22-1.63a19.71,19.71,0,0,0-2-.64c-.92-.38-1-1.06-.47-1.68.84-.9,5.67-1.55,7.14-2.34Z" />
      <circle class="cls-5" cx="59.91" cy="11.41" r="1.18" />
      <circle class="cls-6" cx="65.1" cy="8.33" r="1.41" />
      <path class="cls-1" d="M36.67,47.5s.4-.58,1.14.1" />
      <path class="cls-1" d="M40.88,46.42a.64.64,0,0,1,1,.12" />
      <path class="cls-7" d="M49.18,11.41S50.55,7,51.81,6.92c.56,0,.56,1.65.56,1.65" />
      <path class="cls-7" d="M56.85,40.09c-2.61-.78-9.16-3.17-11.45-8" />
      <circle class="cls-8" cx="44.41" cy="20.81" r="0.71" />
      <path class="cls-9" d="M44.41,27s.05.14.25.63a3.43,3.43,0,0,0,2.43,2.17c2.17.42,4-1.49,4-3.85,0,0-.19-11.09-.23-11.85s2.18-.8,2.19-.16c0,1.38,0,.39.23,11.68.06,3.29-2,6.28-4.9,6.67a5.64,5.64,0,0,1-6-4.49" />
      <circle class="cls-5" cx="60.81" cy="5.69" r="0.77" />
      <circle class="cls-5" cx="67.92" cy="5.42" r="0.61" transform="translate(29.27 61.53) rotate(-60)" />
      <circle class="cls-5" cx="72.75" cy="5.42" r="0.61" transform="translate(31.68 65.71) rotate(-60)" />
      <circle class="cls-5" cx="54.28" cy="11.41" r="0.61" transform="matrix(0.5, -0.87, 0.87, 0.5, 17.25, 52.71)" />
      <circle class="cls-10" cx="76.22" cy="2.6" r="0.43" transform="translate(35.86 67.31) rotate(-60)" />
      <line class="cls-11" x1="36.14" y1="14.06" x2="27.77" y2="14.06" />
      <line class="cls-11" x1="24.76" y1="14.06" x2="20.01" y2="14.06" />
      <line class="cls-11" x1="31.84" y1="16.94" x2="25.02" y2="16.94" />
      <line class="cls-7" x1="49.76" y1="22.57" x2="47.56" y2="22.55" />
      <line class="cls-7" x1="48.97" y1="25.42" x2="47.07" y2="24.3" />
      <line class="cls-11" x1="12.94" y1="3.58" x2="7.48" y2="3.58" />
      <line class="cls-11" x1="18.66" y1="6.46" x2="2.21" y2="6.46" />
      <path class="cls-7" d="M65.81,32.18c.48-3.15,2.83-3.36,2.85-5.89,0-2.13-2.51-2.86-2.71-4.88a2.16,2.16,0,0,1,2.27-2.15,2.83,2.83,0,0,1,2.69,2.35l.43,2.21a1,1,0,0,0,1.3.79,1.08,1.08,0,0,0,.7-1.24l-.44-2.26a4.81,4.81,0,0,0-6.09-3.69,4.17,4.17,0,0,0-3,3.09A3.93,3.93,0,0,0,65,24.33c1,1.09,2.32,2.18.1,3.8" />
      <path class="cls-7" d="M55.89,23.89,57.21,31a2.19,2.19,0,0,0,2.56,1.76h0a2.2,2.2,0,0,0,1.77-2.56L59.29,18" />
      <path class="cls-7" d="M57.34,37.61l-1.41,7.12a2.2,2.2,0,0,0,1.73,2.58h0a2.19,2.19,0,0,0,2.59-1.73s.67-6.32,1.46-7.35h0a42.59,42.59,0,0,1,3.12-3.77,5.3,5.3,0,0,0,.45-5.73l-8.36-15.2L56.28,8c-.13-1.15-1.07-1.57-2.14-.69C52.78,8.59,51.8,9.62,51.8,9.62l-1.56,1.52s-9,5.19-7.39,13" />
      <path class="cls-7" d="M54.19,39.63l-.68,3.43a2.21,2.21,0,0,0,1.74,2.59h0a2.18,2.18,0,0,0,.44,0" />
      <path class="cls-2" d="M44.41,27s.05.14.25.63a3.43,3.43,0,0,0,2.43,2.17c2.17.42,4-1.49,4-3.85,0,0-.19-11.09-.23-11.85s2.18-.8,2.19-.16c0,1.38,0,.39.23,11.68.06,3.29-2,6.28-4.9,6.67a5.64,5.64,0,0,1-6-4.49l1-1Z" />
      <rect class="cls-9" x="40.77" y="16.94" width="5.46" height="7.7" rx="2" />
      <rect class="cls-9" x="41.89" y="24.64" width="3.23" height="2.3" rx="1" />
   </g>
</svg>
