<?xml version="1.0" encoding="UTF-8"?>
<svg xmlns="http://www.w3.org/2000/svg" viewBox="0 0 78.56 51.39">
   <defs>
      <style type="text/css">.cls-1,.cls-3,.cls-6{fill:none;}.cls-1{stroke:#ffac38;}.cls-1,.cls-3,.cls-5,.cls-6{stroke-linecap:round;stroke-linejoin:round;}.cls-2{fill:#ffac37;}.cls-3{stroke:#00b8f1;}.cls-4,.cls-7{fill:#00b8f1;}.cls-4{opacity:0.25;}.cls-5{fill:#48e33d;}.cls-5,.cls-6{stroke:#48e33d;}.cls-7{opacity:0.5;}</style>
   </defs>
   <title>no_people_results</title>
   <g id="no_people_results" data-name="Layer 7">
      <path class="cls-1" d="M48.53,36.77,37.39,2.1a1.35,1.35,0,0,0-2.58.07l-1,5a1.66,1.66,0,0,1-3.26,0l-1-5a1.35,1.35,0,0,0-2.58-.07l-8.8,27.38L17,32.82v-4a6.15,6.15,0,0,0-5.36-6.18,6,6,0,0,0-6.54,5.92v2.94a1.27,1.27,0,0,0,2.54,0V28.73a3.49,3.49,0,0,1,2.73-3.49,3.43,3.43,0,0,1,2.85.71,3.39,3.39,0,0,1,1.24,2.63V43.41a5.74,5.74,0,0,0,5.73,5.73l4,0c.21,0,.42,0,.63,0H39.46A9.53,9.53,0,0,0,48.53,36.77Z" />
      <path class="cls-1" d="M32.14,19.43a1.56,1.56,0,1,1-3.11,0" />
      <path class="cls-1" d="M35.25,19.43a1.56,1.56,0,1,1-3.11,0" />
      <path class="cls-2" d="M32.68,19.37l1.08-1.08A.77.77,0,0,0,33.22,17H31.06a.77.77,0,0,0-.54,1.31l1.08,1.08A.76.76,0,0,0,32.68,19.37Z" />
      <circle class="cls-2" cx="28.81" cy="13.92" r="0.77" />
      <circle class="cls-2" cx="35.98" cy="13.92" r="0.77" />
      <path class="cls-1" d="M32.16,34.87V47a2.16,2.16,0,0,0,2.16,2.16h0A2.16,2.16,0,0,0,36.48,47v-7.1" />
      <path class="cls-1" d="M27.85,39.88V47A2.16,2.16,0,0,0,30,49.14h0A2.16,2.16,0,0,0,32.16,47V34.84" />
      <path class="cls-1" d="M37.66,29.26a5.52,5.52,0,0,1-11,0" />
      <line class="cls-1" x1="40.43" y1="17.15" x2="38.25" y2="17.73" />
      <line class="cls-1" x1="40.43" y1="20.18" x2="38.25" y2="19.59" />
      <line class="cls-1" x1="23.85" y1="17.15" x2="26.02" y2="17.73" />
      <line class="cls-1" x1="23.85" y1="20.18" x2="26.02" y2="19.59" />
      <line class="cls-3" x1="1.06" y1="50.23" x2="77.49" y2="50.23" />
      <path class="cls-4" d="M75.06,31c0,1-7.3,1.88-16.3,1.88S42.46,32,42.46,31s7.3-1.88,16.3-1.88,16.3.84,16.3,1.88" />
      <path class="cls-4" d="M75,31.15a.25.25,0,0,0,.08-.17c0-1-7.3-1.88-16.3-1.88s-16.3.84-16.3,1.88a.33.33,0,0,0,.12.22,14.71,14.71,0,0,0-.1,1.49,16.3,16.3,0,0,0,32.6.34A16.79,16.79,0,0,0,75,31.15Z" />
      <path class="cls-5" d="M63.77,48.26a5.62,5.62,0,0,1,0-5.59c1.67-3,.08-7.21.08-7.21.09,1.47.66,4.61-.81,6.69-1.33,1.9-3.16,3.46-.47,6.57" />
      <path class="cls-6" d="M63.18,44.17c.85-3.53,3.59-3,4.14-5.5,0,0-.4,1.34-2.63,2.21" />
      <path class="cls-5" d="M61.28,46.5c-.59-3.26-3.58-1.81-4-5.53,0,0,.44,2.15,2,2.5s2.42,1.46,2.42,2.09" />
      <ellipse class="cls-3" cx="53.9" cy="20.69" rx="9.69" ry="3.19" transform="translate(-3.83 21.33) rotate(-21.64)" />
      <path class="cls-3" d="M62.91,17.12a16.29,16.29,0,1,1-18,7.14" />
      <circle class="cls-4" cx="70.08" cy="35.46" r="0.45" />
      <circle class="cls-4" cx="51.43" cy="35.24" r="0.38" />
      <circle class="cls-7" cx="65.76" cy="44.41" r="0.4" />
      <circle class="cls-4" cx="54.78" cy="39.13" r="0.64" />
      <circle class="cls-7" cx="52.15" cy="41.42" r="0.45" />
      <path class="cls-5" d="M63.43,41.12c.08-.9-.94-2.07-2.41-2.78s-1.06-1.9-1.2-3.1c0,0-.55,2.62.78,3.53s3.21,2.09,1.84,4.21" />
   </g>
</svg>
