<?xml version="1.0" encoding="UTF-8"?>
<svg xmlns="http://www.w3.org/2000/svg" viewBox="0 0 78.56 51.39">
   <defs>
      <style type="text/css">.cls-1,.cls-3,.cls-5,.cls-6,.cls-8{fill:none;stroke-linecap:round;}.cls-1{stroke:#ffac38;}.cls-1,.cls-3,.cls-5,.cls-6{stroke-linejoin:round;}.cls-2,.cls-7{fill:#48e33d;}.cls-2,.cls-6{opacity:0.25;}.cls-3,.cls-5,.cls-6{stroke:#16b1e0;}.cls-3,.cls-7,.cls-9{opacity:0.5;}.cls-4{fill:#ffac37;}.cls-8{stroke:#48e33d;stroke-miterlimit:10;}.cls-9{fill:#16b1e0;}</style>
   </defs>
   <title>no_spaces_results</title>
   <g id="no_spaces_results" data-name="Layer 7">
      <line class="cls-1" x1="62.12" y1="35.66" x2="60.84" y2="35.32" />
      <path class="cls-2" d="M65.37,35.45a3,3,0,0,0,.25-.37l0,0,0-.09a6.48,6.48,0,0,0,1.09-3.71c-.19-9.94-.18-9.07-.21-10.28,0-.57-2-.54-1.93.13s.14,6.8.19,9.36L65,31.81l-1.17.75-.92.32-.1-.11h-.65c-.34,0-.5.45-.5,1v1.06c0,.55.09,1,.5,1h2.44a1,1,0,0,0,.79-.39" />
      <line class="cls-3" x1="70.2" y1="25.12" x2="77.38" y2="25.12" />
      <path class="cls-1" d="M63.56,32.75,60.23,22.37a1,1,0,0,0-1.92.05l-.76,3.69a1.24,1.24,0,0,1-2.42,0l-.76-3.69a1,1,0,0,0-1.92-.05L47.38,38.16" />
      <line class="cls-1" x1="65.13" y1="37.62" x2="64.63" y2="36.07" />
      <path class="cls-1" d="M56.34,35.2a1.15,1.15,0,1,1-2.3,0" />
      <path class="cls-1" d="M58.64,35.2a1.15,1.15,0,1,1-2.3,0" />
      <path class="cls-4" d="M56.74,35.15l.8-.8a.56.56,0,0,0-.4-1h-1.6a.56.56,0,0,0-.4,1l.8.8A.55.55,0,0,0,56.74,35.15Z" />
      <circle class="cls-4" cx="53.87" cy="31.12" r="0.57" />
      <circle class="cls-4" cx="59.18" cy="31.12" r="0.57" />
      <line class="cls-1" x1="50.2" y1="33.51" x2="51.81" y2="33.95" />
      <line class="cls-1" x1="50.2" y1="35.75" x2="51.81" y2="35.32" />
      <line class="cls-5" x1="52.74" y1="49.65" x2="68.29" y2="49.65" />
      <line class="cls-5" x1="42.28" y1="49.65" x2="48.96" y2="49.65" />
      <line class="cls-6" x1="48.93" y1="13.14" x2="71.19" y2="13.14" />
      <line class="cls-6" x1="38.47" y1="13.14" x2="45.15" y2="13.14" />
      <line class="cls-5" x1="24.26" y1="45.4" x2="30.93" y2="45.4" />
      <line class="cls-3" x1="10.08" y1="25.12" x2="32.64" y2="25.12" />
      <line class="cls-3" x1="37.09" y1="25.12" x2="42.65" y2="25.12" />
      <line class="cls-6" x1="21.11" y1="2.6" x2="26.67" y2="2.6" />
      <line class="cls-5" x1="39.82" y1="38.16" x2="48.17" y2="38.16" />
      <line class="cls-5" x1="34.91" y1="38.16" x2="37.13" y2="38.16" />
      <line class="cls-3" x1="4.59" y1="17.3" x2="6.81" y2="17.3" />
      <line class="cls-5" x1="19.38" y1="45.4" x2="21.6" y2="45.4" />
      <line class="cls-3" x1="8.9" y1="17.3" x2="15.58" y2="17.3" />
      <line class="cls-6" x1="30.63" y1="2.6" x2="32.86" y2="2.6" />
      <line class="cls-5" x1="56.36" y1="38.16" x2="70.74" y2="38.16" />
      <line class="cls-6" x1="11.49" y1="7.55" x2="25.87" y2="7.55" />
      <path class="cls-7" d="M11.77,32.72s5.86-3.88,6.72-3.81S26.13,36,26.13,36L23.5,39.59a5.69,5.69,0,0,1-2.38,1c-1.31.19-3,.64-4.72-.72A16.41,16.41,0,0,1,12.46,36,4.56,4.56,0,0,1,11.77,32.72Z" />
      <path class="cls-8" d="M26.13,36s-6.78-7-7.64-7c-.68-.06-4.69,2.64-6.36,3.77" />
      <path class="cls-7" d="M22.92,32.75a17.26,17.26,0,0,1,2.53-1.59,1.44,1.44,0,0,1,1.72.34c.75.64,1.74,1.27,1.61,1.43a21.15,21.15,0,0,1-2.18,2.75c-.47.28-.74,0-1.1-.36Z" />
      <path class="cls-8" d="M23.1,32.53a11.72,11.72,0,0,1,3.11-1.63,10.18,10.18,0,0,1,2.57,2" />
      <rect class="cls-5" x="8.46" y="18.05" width="34.71" height="14.28" rx="6.01" transform="translate(-9.96 29.74) rotate(-51.54)" />
      <line class="cls-5" x1="38.62" y1="5.11" x2="34.74" y2="10" />
      <line class="cls-5" x1="38.53" y1="13.14" x2="42.47" y2="8.17" />
      <path class="cls-5" d="M42.5,8.2,38.59,5.09a.94.94,0,0,1-.15-1.32L39.08,3a.93.93,0,0,1,1.32-.15l3.92,3.1a1,1,0,0,1,.15,1.32L43.82,8a.94.94,0,0,1-1.32.16" />
      <path class="cls-9" d="M30.12,13.14h.06a1.61,1.61,0,0,0-.43,1.1,1.65,1.65,0,0,0,1.68,1.63,1.75,1.75,0,0,0,.65-.12,2,2,0,1,1-2-2.61Z" />
      <circle class="cls-9" cx="33.95" cy="13.52" r="0.38" />
      <circle class="cls-9" cx="24.77" cy="20.03" r="0.38" />
      <circle class="cls-9" cx="35.04" cy="20.19" r="0.38" />
      <rect class="cls-8" x="47.86" y="28.64" width="16.97" height="4.13" rx="1.5" />
      <line class="cls-1" x1="61.06" y1="33.89" x2="60.87" y2="33.95" />
      <line class="cls-5" x1="7.4" y1="38.14" x2="21.78" y2="38.14" />
      <line class="cls-5" x1="2.49" y1="38.14" x2="4.71" y2="38.14" />
      <path class="cls-1" d="M64.84,30.46c0-2.56-.16-8.82-.19-9.36s1.92-.7,1.93-.13c0,1.21,0,.34.21,10.28a6.45,6.45,0,0,1-1.42,4.2" />
      <path class="cls-8" d="M65.37,35.44a.83.83,0,0,1-.68.39h-2.1a.94.94,0,0,1-.86-1V33.77a.94.94,0,0,1,.86-1h.56" />
      <path class="cls-8" d="M65.37,35.45a6.45,6.45,0,0,0,1.42-4.2c-.19-9.94-.18-9.07-.21-10.28,0-.57-2-.54-1.93.13s.14,6.8.19,9.36" />
   </g>
</svg>
