<svg xmlns="http://www.w3.org/2000/svg" viewBox="0 0 238.94 167.01">
	<defs>
		<style type="text/css">
			.cls-1,.cls-2{fill:#faaa39;}.cls-11,.cls-2,.cls-4{opacity:0.5;}.cls-10,.cls-11,.cls-12,.cls-3,.cls-8,.cls-9{fill:none;}.cls-12,.cls-3{stroke:#48e33d;stroke-miterlimit:10;}.cls-10,.cls-11,.cls-3,.cls-8,.cls-9{stroke-linecap:round;}.cls-5,.cls-7{fill:#00b8f1;}.cls-10,.cls-13,.cls-6,.cls-7{opacity:0.25;}.cls-10,.cls-11,.cls-8,.cls-9{stroke:#00b8f1;stroke-linejoin:round;}.cls-9{fill-rule:evenodd;}.cls-13{fill:#48e33d;}
		</style>
	</defs>
	<title>
		Artboard 1 copy 20
	</title>
	<g id="noLinkActivityIllustration" data-name="Layer 6">
		<circle class="cls-1" cx="73.76" cy="163.79" r="2" />
		<circle class="cls-1" cx="77.12" cy="162.48" r="0.87" />
		<circle class="cls-1" cx="75.26" cy="160.55" r="0.87" />
		<circle class="cls-1" cx="72.61" cy="160.39" r="0.87" />
		<circle class="cls-2" cx="97.8" cy="155.8" r="2" />
		<circle class="cls-2" cx="101.31" cy="156.64" r="0.88" />
		<circle class="cls-2" cx="100.88" cy="153.99" r="0.88" />
		<circle class="cls-2" cx="98.79" cy="152.35" r="0.87" />
		<path class="cls-3" d="M152.33,136.92c-4-1.16-5.12,1.29-7-.23" />
		<path class="cls-1" d="M168.55,117.29h-8.32c-.25,0-.5,0-.75,0-2.35,0-3.58.14-4.89-1.12a3.2,3.2,0,0,1-.49-1.58,10.84,10.84,0,0,0-2-6.44,9.65,9.65,0,0,0-13.53-1.82c-.17.13-.48.4-.48.4a1.63,1.63,0,0,0,2,2.6l.49-.4a6.39,6.39,0,0,1,8.95,1.21c2,2.59,1.46,4.78.54,8.82-.33,1.26-.64,2.48-.82,3.61a15.21,15.21,0,0,0,.49,8.06,20.2,20.2,0,0,0,2,3.48c.54.83,1.38,2.27.55,3.19-1.29,1.43.83,3.56,2.13,2.12a4.31,4.31,0,0,0,1.1-3.7l1.53.79a10.79,10.79,0,0,1,1.34.84,7.3,7.3,0,0,1,1,1,7.57,7.57,0,0,1,.55.84,1.51,1.51,0,0,0,2.05.54,1.54,1.54,0,0,0,.54-2.06,8.13,8.13,0,0,0-.62-.95h6.55Z" />
		<g class="cls-4">
			<polygon class="cls-5" points="155.45 37.51 156.14 41.31 159.96 41.83 156.56 43.65 157.24 47.45 154.46 44.78 151.06 46.6 152.74 43.13 149.96 40.46 153.78 40.98 155.45 37.51" />
			<path class="cls-5" d="M155,40.72l.13.76.13.72.72.1.77.1-.68.37-.64.34.13.72.13.76-.56-.53-.52-.51-.64.35-.69.36.34-.7.32-.65-.53-.5-.56-.54.77.1.72.1.32-.65.34-.7m.43-3.21L153.78,41,150,40.46l2.78,2.67-1.68,3.47,3.4-1.82,2.78,2.66-.68-3.79,3.4-1.82-3.82-.52-.69-3.8Z" />
		</g>
		<g class="cls-4">
			<polygon class="cls-5" points="161.29 87.65 161.6 89.35 163.31 89.59 161.79 90.41 162.1 92.11 160.85 90.91 159.33 91.73 160.08 90.17 158.83 88.97 160.54 89.21 161.29 87.65" />
			<polygon class="cls-5" points="161.29 87.65 160.54 89.21 158.83 88.97 160.08 90.17 159.33 91.73 160.85 90.91 162.1 92.11 161.79 90.41 163.31 89.59 161.6 89.35 161.29 87.65 161.29 87.65" />
		</g>
		<g class="cls-6">
			<polygon class="cls-5" points="137.07 57.42 137.41 59.33 139.33 59.59 137.62 60.51 137.97 62.41 136.57 61.07 134.86 61.99 135.7 60.24 134.3 58.9 136.22 59.16 137.07 57.42" />
			<polygon class="cls-5" points="137.07 57.42 136.22 59.16 134.3 58.9 135.7 60.24 134.86 61.99 136.57 61.07 137.97 62.41 137.62 60.51 139.33 59.59 137.41 59.33 137.07 57.42 137.07 57.42" />
		</g>
		<g class="cls-6">
			<polygon class="cls-5" points="124.18 10.2 124.56 12.34 126.72 12.64 124.8 13.66 125.19 15.8 123.62 14.3 121.7 15.33 122.65 13.37 121.08 11.86 123.23 12.16 124.18 10.2" />
			<polygon class="cls-5" points="124.18 10.2 123.23 12.16 121.08 11.86 122.65 13.37 121.7 15.33 123.62 14.3 125.19 15.8 124.8 13.66 126.72 12.64 124.56 12.34 124.18 10.2 124.18 10.2" />
		</g>
		<path class="cls-7" d="M94.55,4.82l21.59,19A6.63,6.63,0,0,1,118.63,29v86.34a6.62,6.62,0,0,1-2.53,5.28L94.77,140.15" />
		<path class="cls-5" d="M135.6,77.71a.89.89,0,0,1-.48-.58c-.68-2.52,12.62-6.17,14.14-6.57a75.52,75.52,0,0,1,10.39-2.12c4.25-.49,5,.14,5.14.73h0c.16.61-.16,1.51-4.09,3.21a76.18,76.18,0,0,1-10,3.37,77.16,77.16,0,0,1-10.39,2.11C137.46,78.19,136.18,78,135.6,77.71Zm.52-.85h0c.9.5,6.25.06,14.25-2.09s12.92-4.47,13.4-5.34h0c-.9-.49-6.25-.05-14.25,2.09S136.6,76,136.12,76.86Zm27.73-7.37h0Z" />
		<circle class="cls-5" cx="149.6" cy="71.68" r="7.82" />
		<g class="cls-6">
			<path class="cls-5" d="M122.85,38.73a.72.72,0,0,1,.09-.58c.75-1.2,5.18,1.34,7.75,3a39.82,39.82,0,0,1,4.45,3.19c1.47,1.27,1.91,2,1.56,2.52-.75,1.2-5.18-1.33-7.75-3a41.09,41.09,0,0,1-4.45-3.2A4.84,4.84,0,0,1,122.85,38.73Zm12.67,7.35A27.39,27.39,0,0,0,130.15,42a27.63,27.63,0,0,0-6-3.07A27.8,27.8,0,0,0,129.49,43,27.63,27.63,0,0,0,135.52,46.08Z" />
			<circle class="cls-5" cx="130.25" cy="41.84" r="4.01" />
		</g>
		<polygon class="cls-5" points="131.81 10.29 132.05 11.65 133.43 11.84 132.2 12.5 132.45 13.87 131.45 12.91 130.22 13.57 130.82 12.31 129.82 11.35 131.2 11.54 131.81 10.29" />
		<polygon class="cls-5" points="131.81 10.29 131.2 11.54 129.82 11.35 130.82 12.31 130.22 13.57 131.45 12.91 132.45 13.87 132.2 12.5 133.43 11.84 132.05 11.65 131.81 10.29 131.81 10.29" />
		<g class="cls-6">
			<polygon class="cls-5" points="140.11 23.76 140.49 25.9 142.65 26.2 140.73 27.23 141.12 29.36 139.54 27.86 137.63 28.89 138.57 26.93 137.01 25.43 139.16 25.72 140.11 23.76" />
			<polygon class="cls-5" points="140.11 23.76 139.16 25.72 137.01 25.43 138.57 26.93 137.63 28.89 139.54 27.86 141.12 29.36 140.73 27.23 142.65 26.2 140.49 25.9 140.11 23.76 140.11 23.76" />
		</g>
		<g class="cls-4">
			<polygon class="cls-5" points="130.44 64.09 130.66 65.31 131.88 65.47 130.79 66.06 131.01 67.28 130.12 66.42 129.02 67.01 129.56 65.89 128.67 65.03 129.9 65.2 130.44 64.09" />
			<polygon class="cls-5" points="130.44 64.09 129.9 65.2 128.67 65.03 129.56 65.89 129.02 67.01 130.12 66.42 131.01 67.28 130.79 66.06 131.88 65.47 130.66 65.31 130.44 64.09 130.44 64.09" />
		</g>
		<g class="cls-4">
			<polygon class="cls-5" points="160.12 104.03 160.34 105.25 161.56 105.42 160.47 106 160.69 107.22 159.8 106.36 158.7 106.95 159.24 105.83 158.35 104.97 159.58 105.14 160.12 104.03" />
			<polygon class="cls-5" points="160.12 104.03 159.58 105.14 158.35 104.97 159.24 105.83 158.7 106.95 159.8 106.36 160.69 107.22 160.47 106 161.56 105.42 160.34 105.25 160.12 104.03 160.12 104.03" />
		</g>
		<circle class="cls-5" cx="163.31" cy="13.87" r="0.75" />
		<circle class="cls-7" cx="156.77" cy="8.42" r="0.75" />
		<circle class="cls-7" cx="142.41" cy="100.02" r="0.75" />
		<circle class="cls-5" cx="126.75" cy="31.2" r="0.75" />
		<circle class="cls-5" cx="110.95" cy="132.02" r="0.75" />
		<circle class="cls-7" cx="110.95" cy="9.89" r="0.75" />
		<ellipse class="cls-5" cx="115.35" cy="75.1" rx="0.91" ry="1.24" />
		<line class="cls-8" x1="74.87" y1="140.3" x2="236.1" y2="140.3" />
		<line class="cls-8" x1="2.84" y1="140.3" x2="74.87" y2="140.3" />
		<path class="cls-9" d="M94.32,140.27V6.5a3.23,3.23,0,0,1,3.1-3.35h68a3.23,3.23,0,0,1,3.1,3.35V140.27H151.77" />
		<ellipse class="cls-1" cx="109.95" cy="119.38" rx="1.43" ry="1.08" transform="translate(-43.02 173.59) rotate(-66.87)" />
		<ellipse class="cls-1" cx="111.92" cy="118.2" rx="0.62" ry="0.47" transform="translate(-40.75 174.68) rotate(-66.87)" />
		<ellipse class="cls-1" cx="110.95" cy="117.04" rx="0.62" ry="0.47" transform="translate(-40.27 173.08) rotate(-66.87)" />
		<ellipse class="cls-1" cx="109.45" cy="117.15" rx="0.62" ry="0.47" transform="translate(-41.28 171.77) rotate(-66.87)" />
		<g id="plant">
			<path class="cls-3" d="M191.38,128.94a10,10,0,0,0-.1-1.86,9.85,9.85,0,0,0-1.66-4.55,10.26,10.26,0,0,0-3.77-3.36,10.53,10.53,0,0,0-3.65-1.1,9.94,9.94,0,0,0,.1,1.85,10.12,10.12,0,0,0,1.66,4.56,10.42,10.42,0,0,0,3.78,3.35A10.12,10.12,0,0,0,191.38,128.94Z" />
			<path class="cls-3" d="M192.11,128.83a9.94,9.94,0,0,1,.1-1.85,10.08,10.08,0,0,1,1.66-4.56,10.42,10.42,0,0,1,3.78-3.35,10.78,10.78,0,0,1,3.64-1.11,9.86,9.86,0,0,1-.09,1.86,10.09,10.09,0,0,1-1.66,4.55,10.51,10.51,0,0,1-3.78,3.36A9.91,9.91,0,0,1,192.11,128.83Z" />
			<path class="cls-3" d="M191.67,124.75a9.43,9.43,0,0,1-1.1-1.5,10.48,10.48,0,0,1-1.63-4.55,10.27,10.27,0,0,1,.78-5,10.8,10.8,0,0,1,2.12-3.16,9.43,9.43,0,0,1,1.1,1.5,10.48,10.48,0,0,1,1.63,4.55,10.27,10.27,0,0,1-.78,5A10.8,10.8,0,0,1,191.67,124.75Z" />
			<polygon class="cls-8" points="191.68 129.12 200.63 129.12 197.86 140.13 191.68 140.13 185.49 140.13 182.72 129.12 191.68 129.12" />
			<line class="cls-8" x1="180.54" y1="132.86" x2="196.48" y2="132.86" />
		</g>
		<line class="cls-10" x1="126.75" y1="10.18" x2="134.08" y2="3.59" />
		<line class="cls-8" x1="133.8" y1="9.72" x2="136.69" y2="7.11" />
		<line class="cls-8" x1="139.03" y1="5.05" x2="140.64" y2="3.59" />
		<g class="cls-6">
			<polygon class="cls-5" points="124.2 100.02 124.59 102.16 126.74 102.46 124.82 103.48 125.21 105.62 123.64 104.12 121.72 105.15 122.67 103.19 121.1 101.68 123.25 101.98 124.2 100.02" />
			<polygon class="cls-5" points="124.2 100.02 123.25 101.98 121.1 101.68 122.67 103.19 121.72 105.15 123.64 104.12 125.21 105.62 124.82 103.48 126.74 102.46 124.59 102.16 124.2 100.02 124.2 100.02" />
		</g>
		<polygon class="cls-5" points="125.41 91.92 125.66 93.29 127.04 93.47 125.81 94.13 126.06 95.5 125.06 94.54 123.83 95.2 124.43 93.94 123.43 92.98 124.81 93.17 125.41 91.92" />
		<polygon class="cls-5" points="125.41 91.92 124.81 93.17 123.43 92.98 124.43 93.94 123.83 95.2 125.06 94.54 126.06 95.5 125.81 94.13 127.04 93.47 125.66 93.29 125.41 91.92 125.41 91.92" />
		<line class="cls-10" x1="126.72" y1="99.8" x2="131.77" y2="95.25" />
		<line class="cls-8" x1="127.76" y1="91.18" x2="130.66" y2="88.58" />
		<line class="cls-10" x1="133.59" y1="93.54" x2="136.48" y2="90.93" />
		<line class="cls-11" x1="157.49" y1="36.89" x2="164.65" y2="30.45" />
		<line class="cls-11" x1="166.82" y1="28.51" x2="168.49" y2="27.01" />
		<line class="cls-10" x1="162.73" y1="38.33" x2="165.62" y2="35.73" />
		<g class="cls-6">
			<path class="cls-8" d="M142.85,23.51l6.48-5.83" />
		</g>
		<g class="cls-6">
			<polygon class="cls-5" points="124.7 128.5 125.09 130.64 127.24 130.93 125.33 131.96 125.71 134.1 124.14 132.59 122.23 133.62 123.17 131.66 121.6 130.16 123.76 130.45 124.7 128.5" />
			<polygon class="cls-5" points="124.7 128.5 123.76 130.45 121.6 130.16 123.17 131.66 122.23 133.62 124.14 132.59 125.71 134.1 125.33 131.96 127.24 130.93 125.09 130.64 124.7 128.5 124.7 128.5" />
		</g>
		<g class="cls-6">
			<path class="cls-8" d="M127.44,128.25l6.48-5.83" />
		</g>
		<circle class="cls-12" cx="15.43" cy="133.27" r="6.04" />
		<circle class="cls-13" cx="15.43" cy="133.27" r="6.04" />
		<path class="cls-3" d="M12,128.31a8.05,8.05,0,0,1,8.49,8.27" />
		<path class="cls-3" d="M10.41,129.88a8.05,8.05,0,0,1,8.5,8.27" />
		<path class="cls-3" d="M10.11,135.49a7.72,7.72,0,0,1,3.64-4.85" />
		<path class="cls-3" d="M11.79,138.07a7.74,7.74,0,0,1,4.05-6.3" />
		<path class="cls-3" d="M13.79,138.7a7.67,7.67,0,0,1,3.56-5.44" />
		<path class="cls-3" d="M18.67,128c3.41.25,7.15,1.9,11.45,5.87,8.57,7.9,12.24,5.32,14,3.13a3.49,3.49,0,0,0-.76-5.38c-1.13-.7-3.39-.41-4.83,1.94-1.9,3.09,0,5.61,4.14,5.61s4.74-3.78,2.51-5.07c-1.19-.7-3.64-.59-5.69,1.08s-4,4.75-5.71,3.9c-2.84-1.41-2.08-4.42,1.18-4.89,4.25-.62,8.09,6.36,20.84,4.64,0,0,9.3-1.88,14.29-1.86s3,2.68,15.64,2.61l61.59-.38s8.37,0,8.37-1.11" />
	</g>
</svg>