<svg xmlns="http://www.w3.org/2000/svg" viewBox="0 0 138.56 104.35"><defs><style type="text/css">.cls-1,.cls-5,.cls-9{fill:#fff;}.cls-1,.cls-2,.cls-6,.cls-9{stroke:#124052;}.cls-1,.cls-2,.cls-6,.cls-8,.cls-9{stroke-linecap:round;stroke-linejoin:round;}.cls-1,.cls-3,.cls-4,.cls-5,.cls-6{fill-rule:evenodd;}.cls-2,.cls-6,.cls-8{fill:none;}.cls-3{fill:#ffcc74;}.cls-4,.cls-7{fill:#124052;}.cls-8{stroke:#fff;}.cls-10{fill:#bce5f4;}</style></defs><g id="Final"><g id="nps_feedback" data-name="feedback final"><g id="Group-3-Copy"><g id="Group-29"><path id="Path-35-Copy" class="cls-1" d="M69.52,72.64q12-20.34,14.08-22.73a12.27,12.27,0,0,1,5.72-3.54L94,45.66a2.94,2.94,0,0,1-.74,2,2.61,2.61,0,0,1-2.18,1.08c-.52,1.64-.72,2.47-.61,2.47,1.1.08,8.09-4,8.75-4s1,.92.7,1.28-1.4,1.37-3.53,3.38c2.11-1.3,3.4-1.94,3.86-1.94.68,0,.68,3.11.39,3.7S97,58.36,93,59.75,88.51,61.54,87,63,79.39,80.08,74.52,85.89s-9.55,2.83-12.28.24-17.1-23-19.7-27.65,1.54-9.24,4.56-11c2.81-1.61,8.2-1,11.59,4.67Q60.28,54.85,69.52,72.64Z"/><path id="Path-44" class="cls-2" d="M91.08,48.68l-.75,2.54q1.55,1.68.39,4.48"/></g><path id="Path-35" class="cls-3" d="M7,101.76,6.87,75.11V60.71c0-8.27,3.32-12.38,9.6-14.17A64.15,64.15,0,0,1,27,44.2c2.71-.2,17.92,0,19.91.12,2.64.17,6.66,1,8.68,2.68q3.7,3,10.1,16.34L53.29,71.87v29.89Z"/><g id="Group-6"><polygon id="Rectangle" class="cls-4" points="38.51 57.61 40.43 56.87 47.12 74.23 46.84 76.36 45.2 74.97 38.51 57.61"/><path id="Combined-Shape" class="cls-5" d="M21.26,75.17v4.55l13.07-8c1.23-4.29,2.74-7,4.56-8.21,2.32-1.49,5.33-.22,6.75.38l.64.25a.91.91,0,0,1,.57.55A2.83,2.83,0,0,1,47,66c1.34,2,2,3.51,2,4.78a4.92,4.92,0,0,1-1.81,3.47l-.89-2.33L45,71.73a7.84,7.84,0,0,1-.21,2.94,2.75,2.75,0,0,1-1.08,1.53q-2.28,1.47-5.27,3.65l0,0C26.89,89.64,19,94.58,14.67,94.58a7.83,7.83,0,0,1-5.06-1.52,7.38,7.38,0,0,1-2.42-4.57V75.34L21,75.17"/><g id="Group-2"><line id="Path-47" class="cls-2" x1="47" y1="65.99" x2="41.72" y2="65.55"/></g></g><g id="Group-6-2" data-name="Group-6"><path id="Combined-Shape-2" data-name="Combined-Shape" class="cls-6" d="M21.26,63.82v15.9l13.07-8c1.23-4.29,2.74-7,4.56-8.21,2.32-1.49,5.33-.22,6.75.38l.64.25a.91.91,0,0,1,.57.55A2.83,2.83,0,0,1,47,66c1.34,2,2,3.51,2,4.78a4.92,4.92,0,0,1-1.81,3.47l-.89-2.33L45,71.73a7.84,7.84,0,0,1-.21,2.94,2.75,2.75,0,0,1-1.08,1.53q-2.28,1.47-5.27,3.65l0,0C26.89,89.64,19,94.58,14.67,94.58a7.83,7.83,0,0,1-5.06-1.52,7.38,7.38,0,0,1-2.42-4.57V75.34"/></g><g id="Group-7"><polyline id="Rectangle-2" data-name="Rectangle" class="cls-1" points="29.07 43.76 29.07 28.72 42.01 28.72 42.01 46.25 31.74 46.25"/><polygon id="Rectangle-3" data-name="Rectangle" class="cls-5" points="28.81 40.99 37.81 46.25 34.76 52.09 26.64 44.24 28.81 40.99"/><polygon id="Rectangle-Copy" class="cls-5" points="42.01 41.49 37.81 46.25 41.04 52.09 44.28 44.21 42.01 41.49"/><polyline id="Rectangle-4" data-name="Rectangle" class="cls-2" points="26.64 44.24 28.81 40.99 37.81 46.25"/><polyline id="Rectangle-Copy-2" data-name="Rectangle-Copy" class="cls-2" points="44.28 44.21 42.02 41.28 37.81 46.25"/></g><g id="Group"><path id="Path-34" class="cls-4" d="M44.5,17.51A4,4,0,0,0,44.32,14,7.61,7.61,0,0,0,43,11.73l-1.8,1.73Z"/><path id="Rectangle-5" data-name="Rectangle" class="cls-1" d="M36,13.32a8.09,8.09,0,0,0-6.56,9.37l1.23,7a8.6,8.6,0,0,0,9.43,7.05l.45-.07a7.63,7.63,0,0,0,6.2-8.83l-1.4-8A8.06,8.06,0,0,0,36,13.32Z"/><path id="Combined-Shape-3" data-name="Combined-Shape" class="cls-4" d="M46.42,26.13l.28,1.73a7.55,7.55,0,0,1-6.24,8.67l-.36,0a8.41,8.41,0,0,1-9.25-6.91l-.17-1Zm-3,2.1-5.2.95,0,.08a2.73,2.73,0,0,0,3,2.16h.08l.14,0a2.5,2.5,0,0,0,2-2.89h0Z"/><path id="Path-33" class="cls-2" d="M39.31,28.79a1.84,1.84,0,0,0,1.14,1.6,2.1,2.1,0,0,0,1.6,0"/><circle id="Oval" class="cls-7" cx="36.41" cy="21.97" r="0.59" transform="matrix(0.98, -0.17, 0.17, 0.98, -3.26, 6.66)"/><circle id="Oval-Copy" class="cls-7" cx="43.48" cy="20.81" r="0.59" transform="translate(-2.95 7.87) rotate(-10)"/><path id="Path-30" class="cls-4" d="M29,30.3q-7.89-4.68-7.56-11.9c.33-7.22,4.71-6.5,6.73-6.86S29.81,8,32.14,4.7a6.76,6.76,0,0,1,9.79-1.23c3,2.37,4.29,7.53,1.45,10.65S34.88,16,32.73,16s-3.66,5.14-3,7.84c.36,1.53.44,2.46.85,4.06C30.84,28.94,30.32,29.74,29,30.3Z"/><path id="Oval-2" data-name="Oval" class="cls-1" d="M29.74,29s-1-5.45-1.06-5.45a2.35,2.35,0,0,0-2.13,2.79C26.84,27.86,28.32,29.3,29.74,29Z"/><line id="Path" class="cls-2" x1="40.32" y1="21.81" x2="41.61" y2="25.73"/><path id="Path-7" class="cls-8" d="M32,7.68A2.19,2.19,0,0,1,32.2,7a3,3,0,0,1,.4-.73"/><path id="Path-10" class="cls-8" d="M34.07,4.47C35.8,3.11,38,2.93,40.54,4"/></g><line id="Path-66" class="cls-2" x1="37.82" y1="46.25" x2="37.82" y2="60.28"/><line id="Path-69" class="cls-2" x1="35.62" y1="54.16" x2="35.62" y2="60.28"/><line id="Path-39" class="cls-2" x1="53.47" y1="71.26" x2="53.47" y2="65.32"/></g><line id="Path-76" class="cls-2" x1="3.05" y1="101.92" x2="135.51" y2="101.92"/><g id="Group-3"><rect id="Rectangle-6" data-name="Rectangle" class="cls-9" x="38.77" y="98.83" width="29.79" height="2.93" rx="1.33"/><rect id="Rectangle-7" data-name="Rectangle" class="cls-9" x="61.26" y="63.06" width="54.62" height="38.7" rx="1.67"/><ellipse id="Oval-3" data-name="Oval" class="cls-10" cx="88.57" cy="82.55" rx="4.82" ry="4.84"/></g></g></g></svg>