<?xml version="1.0" encoding="UTF-8"?>
<svg width="17px" height="15px" viewBox="0 0 17 15" version="1.1" xmlns="http://www.w3.org/2000/svg" xmlns:xlink="http://www.w3.org/1999/xlink">
    <path id="o365_group_icon" d="M15.2585722,12.8582918 C15.7589471,13.1016998 16.1925881,13.4631939 16.522083,13.9115863 C16.853785,14.3593057 17.0689795,14.8824643 17.1483063,15.4339951 L16.2919514,15.4339951 C16.234641,15.1417187 16.1252077,14.8621391 15.9688821,14.6086194 C15.6644431,14.1045444 15.1955422,13.7208271 14.6412,13.5221329 C14.0775438,13.3156727 13.4589543,13.3156727 12.8952981,13.5221329 C12.3421373,13.7240669 11.8739944,14.1079441 11.567616,14.6108322 C11.4128415,14.8646607 11.3049136,15.1442239 11.2489723,15.4362079 L10.4103198,15.4362079 C10.4906297,14.884946 10.7057289,14.3620192 11.0365432,13.9137991 C11.3665893,13.4645044 11.8009888,13.1022518 12.3022668,12.8582918 C12.0108912,12.6323282 11.7754215,12.3423447 11.6140849,12.0107881 C11.4512238,11.6820583 11.3671305,11.3199267 11.3684637,10.9530681 C11.3684637,10.7224214 11.401246,10.4929454 11.4658271,10.2715246 C11.5290052,10.0542438 11.6228908,9.84709934 11.7446403,9.65636525 C11.8686936,9.46633683 12.0175245,9.29369292 12.187201,9.14299485 C12.3589191,8.98931911 12.5528882,8.86249321 12.7625299,8.76681827 C12.6256476,8.56682671 12.4635095,8.385351 12.2801387,8.22689423 C12.0997503,8.06797582 11.9014766,7.93059513 11.6893202,7.81752559 C11.4797304,7.70328308 11.2567359,7.61557192 11.0254792,7.55641478 C10.7903575,7.49719874 10.5487816,7.46746632 10.3063181,7.46790264 C9.89480649,7.46608966 9.48732045,7.54894264 9.10919141,7.71131102 C8.73298092,7.87348834 8.39575015,8.1141519 8.12006827,8.41719532 C8.41032677,9.19661482 8.36302446,10.0616859 7.98951286,10.8048102 C7.77779075,11.2227352 7.4708087,11.5850498 7.09332747,11.8625303 C7.42486056,12.0303626 7.73103652,12.2441643 8.00278968,12.4976049 C8.27176691,12.7445611 8.50622282,13.0266525 8.69982277,13.3362574 C9.09052018,13.9663002 9.29815736,14.6926472 9.2994925,15.4339951 L8.30373095,15.4339951 C8.30639983,15.0354469 8.22653857,14.640661 8.06917379,14.274486 C7.76570268,13.5557782 7.19424124,12.9835231 6.4759553,12.6790548 C5.73245335,12.3692623 4.89601364,12.3692623 4.15251168,12.6790548 C3.435458,12.9845839 2.86504212,13.5565864 2.561506,14.274486 C2.40972072,14.6419369 2.33442795,15.0364711 2.34022566,15.4339951 L1.33336599,15.4339951 C1.33183717,15.0596835 1.38400098,14.6870848 1.48829633,14.3275933 C1.59090811,13.9774799 1.73973945,13.6426094 1.93085702,13.3318318 C2.12445697,13.0222269 2.35891288,12.7401355 2.62789011,12.4931793 C2.90139029,12.2398774 3.20900486,12.0261114 3.54177793,11.8581047 C3.16815857,11.5795194 2.86501539,11.2172633 2.65665655,10.8003846 C2.26291754,10.0203677 2.22818392,9.10760058 2.561506,8.29991674 C2.86504212,7.58201713 3.435458,7.01001456 4.15251168,6.70448545 C4.93015483,6.37926392 5.80872943,6.3961287 6.57331866,6.75095433 C6.9652428,6.93553024 7.31365252,7.20098527 7.59563385,7.52986114 C7.7324825,7.39909103 7.88057399,7.28061784 8.03819454,7.17581259 C8.19751639,7.06959802 8.35905104,6.97223467 8.5250113,6.88372253 C8.15139194,6.60513722 7.84824876,6.24288112 7.63988992,5.82600248 C7.2433732,5.04541377 7.2070113,4.13070994 7.54031376,3.32110898 C7.84384988,2.60320937 8.41426575,2.03120681 9.13131944,1.7256777 C9.8748214,1.41588521 10.7112611,1.41588521 11.4547631,1.7256777 C12.173049,2.03014603 12.7445104,2.60240116 13.0479815,3.32110898 C13.2053463,3.68728395 13.2852076,4.0820698 13.2825387,4.48061799 C13.2845821,4.94801018 13.1753582,5.40917763 12.963895,5.82600248 C12.7521729,6.24392742 12.4451909,6.60624204 12.0677096,6.88372253 C12.425669,7.07182833 12.7568415,7.30699806 13.0524072,7.58296842 C13.3465432,7.8613779 13.5945247,8.18479949 13.7870579,8.54111232 C14.1095331,8.53962337 14.4288764,8.60439584 14.7252866,8.73141341 C15.0114902,8.85304149 15.2714729,9.02886794 15.4909166,9.24920942 C15.7105921,9.46828466 15.8850271,9.72843339 16.004287,10.0148394 C16.1287768,10.3118797 16.1919989,10.6310009 16.1901624,10.9530681 C16.1914957,11.3199267 16.1074024,11.6820583 15.9445413,12.0107881 C15.7823947,12.3411956 15.5479417,12.6308586 15.2585722,12.8582918 L15.2585722,12.8582918 Z M5.3164463,11.4509847 C5.58265611,11.4523167 5.84629434,11.3988358 6.0909275,11.2938398 C6.56813161,11.0910674 6.94808791,10.7111111 7.15086036,10.233907 C7.35987824,9.73873989 7.35987824,9.1801116 7.15086036,8.68494454 C7.05089976,8.44763359 6.90586523,8.23196048 6.72378929,8.04986995 C6.54206982,7.868373 6.3272381,7.72339915 6.0909275,7.62279888 C5.59525953,7.41627056 5.03763306,7.41627056 4.54196509,7.62279888 C4.06285015,7.82463703 3.68165758,8.2058296 3.47981943,8.68494454 C3.27329111,9.18061251 3.27329111,9.73823898 3.47981943,10.233907 C3.5804197,10.4702175 3.72539355,10.6850493 3.9068905,10.8667687 C4.08898103,11.0488447 4.30465414,11.1938792 4.54196509,11.2938398 C4.78652197,11.3990798 5.05021165,11.4525711 5.3164463,11.4509847 L5.3164463,11.4509847 Z M8.30373095,4.48061799 C8.30160069,4.74667896 8.35432965,5.01032378 8.45862719,5.25509919 C8.55988701,5.49159019 8.70562073,5.70643474 8.88791106,5.88796098 C9.07000159,6.07003692 9.2856747,6.21507145 9.52298565,6.31503205 C10.0181527,6.52404993 10.576781,6.52404993 11.0719481,6.31503205 C11.5491522,6.1122596 11.9291085,5.73230331 12.1318809,5.25509919 C12.3408988,4.75993214 12.3408988,4.20130384 12.1318809,3.70613678 C12.0319203,3.46882583 11.8868858,3.25315272 11.7048099,3.07106219 C11.5230904,2.88956524 11.3082587,2.74459139 11.0719481,2.64399113 C10.5762801,2.4374628 10.0186536,2.4374628 9.52298565,2.64399113 C9.04387072,2.84582927 8.66267814,3.22702185 8.46084,3.70613678 C8.35578325,3.95075095 8.30229976,4.21440198 8.30373095,4.48061799 L8.30373095,4.48061799 Z M13.7804195,9.38197763 C13.5703487,9.37941286 13.3621444,9.42165721 13.1696857,9.50589462 C12.7947631,9.66836218 12.4957136,9.9674117 12.333246,10.3423343 C12.1679872,10.7327211 12.1679872,11.1734151 12.333246,11.5638018 C12.4136192,11.7496673 12.5285005,11.9186104 12.671805,12.0616826 C12.8152481,12.2045384 12.9841011,12.3193585 13.1696857,12.4002415 C13.3624643,12.4834634 13.57045,12.5256634 13.7804195,12.5241585 C13.9903454,12.5252158 14.1982403,12.4830342 14.3911532,12.4002415 C14.7660759,12.237774 15.0651254,11.9387245 15.2275929,11.5638018 C15.3103856,11.3708889 15.3525672,11.162994 15.3515099,10.9530681 C15.3530148,10.7430986 15.3108148,10.5351129 15.2275929,10.3423343 C15.1467099,10.1567497 15.0318898,9.9878967 14.889034,9.84445355 C14.7459618,9.70114911 14.5770187,9.58626776 14.3911532,9.50589462 C14.1985724,9.42204382 13.990452,9.37981649 13.7804195,9.38197763 L13.7804195,9.38197763 Z"></path>
</svg>