<?xml version="1.0" encoding="UTF-8"?>
<svg width="32px" height="19px" viewBox="0 0 32 19" version="1.1" xmlns="http://www.w3.org/2000/svg" xmlns:xlink="http://www.w3.org/1999/xlink">
    <!-- Generator: Sketch 51.3 (57544) - http://www.bohemiancoding.com/sketch -->
    <title>oneDrive_logo</title>
    <desc>Created with Sketch.</desc>
    <defs></defs>
    <g id="oneDrive_logo" stroke="none" stroke-width="1" fill="none" fill-rule="evenodd">
        <g id="oneDrive-logo-2.0" transform="translate(-620.000000, -267.000000)" fill="#094AB1" fill-rule="nonzero">
            <g id="Dialog" transform="translate(440.000000, 125.000000)">
                <g id="content" transform="translate(160.000000, 30.000000)">
                    <g id="item" transform="translate(20.000000, 111.000000)">
                        <g id="logo" transform="translate(0.000000, 1.000000)">
                            <path d="M10.0623026,18.8816876 C8.0978873,18.3886019 7.00347792,16.8199544 7.00001668,14.4924358 C6.99891112,13.748306 7.05250509,13.3917525 7.23740302,12.9131348 C7.69064073,11.7399149 8.89060841,10.8548008 10.4696257,10.529002 C11.2553361,10.3668849 11.4973998,10.1928221 11.4973998,9.78994162 C11.4973998,9.66352467 11.5909149,9.28704718 11.7052018,8.95332343 C12.2244306,7.43725126 13.1857757,6.17340107 14.2130289,5.65639315 C15.2881399,5.11529213 15.8309362,4.99326535 17.131485,5.00028045 C18.9785295,5.01024404 19.9000214,5.4127422 21.1888663,6.7724917 L21.8976873,7.52031217 L22.5326913,7.29955185 C25.6060104,6.23108739 28.6698047,8.04990006 28.916769,11.0894482 L28.9843249,11.9209533 L29.5895319,12.1387854 C31.3179098,12.7608841 32.1303024,14.0672018 31.9830295,15.9875086 C31.8867186,17.2433142 31.3022407,18.2459357 30.3763266,18.7436657 L29.9410457,18.9776542 L20.2674382,18.9963789 C12.8337623,19.0107679 10.4707418,18.9842112 10.0623026,18.8816876 Z" id="path4256"></path>
                            <path d="M3.17745938,17.9066189 C2.06384877,17.6316779 0.883866612,16.6098739 0.330544683,15.4413362 C0.0166710803,14.7784801 0,14.6809879 0,13.5083215 C0,12.3929384 0.0267862453,12.213999 0.276653222,11.660175 C0.803397423,10.4926593 1.81263366,9.64905897 3.07892349,9.31781271 C3.34616865,9.24790428 3.5972888,9.13632104 3.63696803,9.06984959 C3.67664727,9.00337707 3.72072499,8.64127094 3.73491657,8.26516811 C3.82306168,5.92932051 5.29833977,3.87116562 7.35831548,3.21017764 C8.47122828,2.85307631 9.86939617,2.94091814 11.0798921,3.44399178 C11.4638121,3.603549 11.4205808,3.63775791 12.2323437,2.53198333 C12.7124089,1.8780366 13.6824387,1.06473104 14.4764569,0.650434343 C15.3334021,0.203308886 16.2246391,-0.00268772901 17.2904424,2.6463762e-05 C20.2692806,0.00761891133 22.8365443,1.94325122 23.7858669,4.89737499 C24.0891773,5.84123633 24.0740546,6.10557683 23.7162922,6.11336766 C23.5601621,6.11676711 23.1128094,6.20608989 22.7221694,6.31186191 L22.0119194,6.50417496 L21.3638325,5.83091253 C19.5365376,3.93260653 16.5543652,3.52229909 14.0192152,4.820391 C13.0064083,5.33898627 12.1925396,6.08350082 11.5777845,7.05375878 C11.1395157,7.74548116 10.5807197,9.03590878 10.5807197,9.3562929 C10.5807197,9.58358591 10.4035624,9.69716163 9.64697402,9.9549263 C7.30454686,10.752974 5.9373304,12.5960064 5.93827492,14.9543182 C5.9385846,15.8126712 6.15138914,16.8629651 6.44679345,17.4645079 C6.55815214,17.6912711 6.62028624,17.9069095 6.58486922,17.9437029 C6.49429313,18.0377988 3.58033488,18.0060853 3.17745938,17.9066189 Z" id="path4248"></path>
                        </g>
                    </g>
                </g>
            </g>
        </g>
    </g>
</svg>