<?xml version="1.0" encoding="UTF-8" standalone="no"?>
<svg
   version="1.1"
   id="svg132"
   width="140"
   height="88"
   viewBox="0 0 140 88"
   xmlns="http://www.w3.org/2000/svg"
   xmlns:svg="http://www.w3.org/2000/svg">
  <defs
     id="defs136" />
  <g
     id="oshc_theme"
     style="display:inline">
    <rect
       id="background"
       x="0"
       y="0"
       fill="#ffffff"
       stroke-width="0"
       width="140"
       height="88" />
    <path
       style="fill:#19e9fd;stroke-width:0.1"
       d="M 14.5,30.00102 V 21 C 26.860202,20.97129 26.878864,20.98768 38.35,20.9923 36.586492,24.095391 35.171966,26.816274 33.383803,30 Z"
       id="left_header" />
    <path
       style="fill:#35006d;stroke-width:0.1"
       d="m 33.383803,30 c 1.718545,-3.127806 3.21755,-5.890697 4.966197,-9.007727 -0.0098,3.2e-5 11.777372,0.02367 17.65,0.0066 V 30 c -7.538732,0 -15.077465,0 -22.616197,0 z"
       id="right_header" />
    <path
       style="fill:#000000;stroke-width:0.1"
       d="M 14.000901,86 13.95,64.55 C 9.7885827,71.522946 5.8128709,79.690472 1.9335937,86 2.0042194,61.501283 2,36.998783 2,12.5 h 11.999621 c 0.01679,17.35 0.03359,34.7 0.05038,52.05 l 0.441161,-0.8 c 0.0029,7.416667 0.0059,14.833333 0.0088,22.25 H 14.000863 Z M 56,86 V 12.5 H 43.079853 c 0.07594,-0.166667 0.205659,-0.333333 0.281597,-0.5 23.31285,0 46.720231,0.0046 70.03308,0.0046 -0.1186,0.238332 -0.12409,0.24116 -0.24455,0.502304 C 94.28567,12.506904 75.36432,12.5 56.5,12.5 V 86 Z M 72.083333,86 113.14999,12.506904 C 121.43333,12.504532 129.71666,12.502269 138,12.5 V 86 Z M 14.491162,63.75 14.5,30 H 33.383803 Z M 14.5,21 V 12.5 H 43.079853 L 38.35,20.992273 14.5,20.999973 Z M 2,12 V 2 H 48.9 V 2.049387 2.098774 L 43.36145,12 Z M 113.39453,12.0046 118.80628,2 H 138 v 10 z"
       id="borders" />
  </g>
</svg>
