<?xml version="1.0" standalone="no"?>
<!DOCTYPE svg PUBLIC "-//W3C//DTD SVG 1.1//EN" "http://www.w3.org/Graphics/SVG/1.1/DTD/svg11.dtd" >
<svg xmlns="http://www.w3.org/2000/svg" id="outgoing-call_24">
<path unicode="&#xe9c1;" transform="scale(1,-1)" id="outgoing-call_24" data-tags="outgoing-call_24" d="M1002.679 960h-384c-11.776 0-21.333-9.557-21.333-21.333s9.557-21.333 21.333-21.333h332.501l-390.272-390.229c-8.32-8.363-8.32-21.845 0-30.208 4.181-4.139 9.643-6.229 15.104-6.229s10.923 2.091 15.104 6.229l390.229 390.272v-332.501c0-11.776 9.557-21.333 21.333-21.333s21.333 9.557 21.333 21.333v384c0 11.776-9.557 21.333-21.333 21.333zM901.645 269.751l-95.147 40.917c-43.136 18.603-92.075 17.152-134.187-3.883l-54.187-27.093c-11.776-5.931-26.24-4.224-36.693 4.139-90.24 72.448-175.659 157.269-234.325 232.704-8.32 10.667-9.813 24.704-3.883 36.565l27.605 55.211c21.035 42.027 22.443 90.965 3.883 134.187l-40.917 95.147c-20.821 48.384-68.309 79.701-121.045 79.701h-108.288c-32.512 0-62.592-14.72-82.56-40.405-19.755-25.387-26.581-57.771-18.688-88.832 42.283-166.528 161.365-356.907 326.656-522.24 165.333-165.291 355.669-284.373 522.283-326.656 8.448-2.176 17.024-3.2 25.515-3.2 22.699 0 44.8 7.509 63.275 21.845 25.685 19.968 40.405 50.048 40.405 82.56v108.331c0 52.693-31.275 100.224-79.701 121.003zM938.679 40.418c0-19.243-8.704-37.035-23.936-48.896-14.933-11.648-33.92-15.616-52.096-10.965-159.36 40.448-342.528 155.435-502.613 315.477-160 160.085-274.987 343.253-315.477 502.613-4.608 18.176-0.597 37.163 11.008 52.096 11.819 15.232 29.653 23.936 48.896 23.936h108.288c35.627 0 67.755-21.163 81.835-53.888l40.917-95.147c13.611-31.659 12.587-67.456-2.859-98.261l-27.563-55.211c-13.184-26.283-9.899-58.411 8.363-81.877 60.629-77.909 148.565-165.291 241.28-239.701 23.467-18.859 55.851-22.443 82.517-9.045l54.144 27.093c30.805 15.445 66.56 16.427 98.304 2.859l95.104-40.917c32.725-14.080 53.888-46.208 53.888-81.835v-108.331z" />
</svg>
