<?xml version="1.0" encoding="UTF-8"?>
<svg width="360px" height="240px" viewBox="0 0 360 240" version="1.1" xmlns="http://www.w3.org/2000/svg" xmlns:xlink="http://www.w3.org/1999/xlink">
    <!-- Generator: Sketch 41.2 (35397) - http://www.bohemiancoding.com/sketch -->
    <title>pairing@1x</title>
    <desc>Created with Sketch.</desc>
    <defs></defs>
    <g id="pairing" stroke="none" stroke-width="1" fill="none" fill-rule="evenodd">
        <g id="pairing@1x">
            <g id="Illustration">
                <rect id="Bounds" x="0" y="0" width="360" height="240"></rect>
                <g transform="translate(46.000000, 0.000000)" fill="#444444">
                    <path d="M255.9996,0 L11.9996,0 C5.3836,0 -0.0004,5.383 -0.0004,12 L-0.0004,168 C-0.0004,174.617 5.3836,180 11.9996,180 L52.9996,180 L52.9996,178 L11.9996,178 C6.4856,178 1.9996,173.514 1.9996,168 L1.9996,12 C1.9996,6.486 6.4856,2 11.9996,2 L255.9996,2 C261.5136,2 265.9996,6.486 265.9996,12 L265.9996,168 C265.9996,173.514 261.5136,178 255.9996,178 L214.9996,178 L214.9996,180 L255.9996,180 C262.6166,180 267.9996,174.617 267.9996,168 L267.9996,12 C267.9996,5.383 262.6166,0 255.9996,0" id="Fill-1" fill-opacity="0.48"></path>
                    <path d="M137.9996,16 L129.9996,16 C128.8966,16 127.9996,15.103 127.9996,14 C127.9996,12.897 128.8966,12 129.9996,12 L137.9996,12 C139.1026,12 139.9996,12.897 139.9996,14 C139.9996,15.103 139.1026,16 137.9996,16 M137.9996,10 L129.9996,10 C127.7906,10 125.9996,11.791 125.9996,14 C125.9996,16.209 127.7906,18 129.9996,18 L137.9996,18 C140.2086,18 141.9996,16.209 141.9996,14 C141.9996,11.791 140.2086,10 137.9996,10" id="Fill-4" fill-opacity="0.48"></path>
                    <path d="M225.3649,164.3164 C225.7799,164.1094 226.2449,164.0004 226.7079,164.0004 L253.9999,164.0004 C255.1019,164.0004 255.9999,164.8974 255.9999,166.0004 C255.9999,167.1024 255.1019,168.0004 253.9999,168.0004 L226.7079,168.0004 C226.2439,168.0004 225.7809,167.8904 225.3659,167.6824 L221.9999,166.0004 L225.3649,164.3164 Z M224.4699,169.4714 C225.1619,169.8174 225.9349,170.0004 226.7079,170.0004 L253.9999,170.0004 C256.2059,170.0004 257.9999,168.2064 257.9999,166.0004 C257.9999,163.7944 256.2059,162.0004 253.9999,162.0004 L226.7079,162.0004 C225.9359,162.0004 225.1629,162.1824 224.4709,162.5274 L221.1059,164.2114 C220.4239,164.5514 219.9999,165.2374 219.9999,165.9994 C219.9999,166.7614 220.4239,167.4474 221.1049,167.7884 L224.4699,169.4714 Z" id="Fill-7" fill-opacity="0.48"></path>
                    <path d="M219.9996,238 L47.9996,238 C43.3746,238 39.5536,234.494 39.0546,230 L128.0896,230 C128.5686,232.833 131.0326,235 133.9996,235 C136.9666,235 139.4316,232.833 139.9096,230 L228.9436,230 C228.4446,234.494 224.6246,238 219.9996,238 L219.9996,238 Z M137.8576,230 C137.4106,231.721 135.8576,233 133.9996,233 C132.1416,233 130.5886,231.721 130.1416,230 L137.8576,230 Z M53.9996,135 C53.9996,128.935 58.9346,124 64.9996,124 L202.9996,124 C209.0646,124 213.9996,128.935 213.9996,135 L213.9996,228 L53.9996,228 L53.9996,135 Z M229.9996,228 L215.9996,228 L215.9996,135 C215.9996,127.832 210.1676,122 202.9996,122 L64.9996,122 C57.8316,122 51.9996,127.832 51.9996,135 L51.9996,228 L37.9996,228 C37.4476,228 36.9996,228.447 36.9996,229 C36.9996,235.065 41.9346,240 47.9996,240 L219.9996,240 C226.0646,240 230.9996,235.065 230.9996,229 C230.9996,228.447 230.5526,228 229.9996,228 L229.9996,228 Z" id="Fill-9"></path>
                    <path d="M133.9996,186 C132.8956,186 131.9996,186.896 131.9996,188 C131.9996,189.104 132.8956,190 133.9996,190 C135.1036,190 135.9996,189.104 135.9996,188 C135.9996,186.896 135.1036,186 133.9996,186" id="Fill-11"></path>
                    <path d="M140.1285,182.8574 C140.3255,183.0934 140.6085,183.2144 140.8945,183.2144 C141.1215,183.2144 141.3495,183.1374 141.5365,182.9804 C141.9605,182.6264 142.0155,181.9954 141.6595,181.5724 C139.7555,179.3014 136.9635,178.0004 133.9995,178.0004 C131.0355,178.0004 128.2435,179.3014 126.3385,181.5724 C125.9835,181.9954 126.0395,182.6264 126.4625,182.9804 C126.8835,183.3354 127.5165,183.2824 127.8715,182.8574 C129.3945,181.0424 131.6285,180.0004 133.9995,180.0004 C136.3705,180.0004 138.6055,181.0424 140.1285,182.8574" id="Fill-13"></path>
                    <path d="M146.2565,177.7148 C146.4545,177.9508 146.7375,178.0718 147.0235,178.0718 C147.2495,178.0718 147.4785,177.9948 147.6655,177.8378 C148.0885,177.4838 148.1445,176.8528 147.7885,176.4298 C144.3595,172.3438 139.3335,169.9998 133.9995,169.9998 C128.6665,169.9998 123.6405,172.3438 120.2105,176.4298 C119.8555,176.8528 119.9105,177.4838 120.3335,177.8378 C120.7565,178.1928 121.3875,178.1388 121.7425,177.7148 C124.7915,174.0828 129.2585,171.9998 133.9995,171.9998 C138.7405,171.9998 143.2085,174.0828 146.2565,177.7148" id="Fill-15"></path>
                    <path d="M152.3844,172.5732 C152.5814,172.8092 152.8654,172.9302 153.1514,172.9302 C153.3784,172.9302 153.6064,172.8532 153.7924,172.6962 C154.2164,172.3422 154.2714,171.7112 153.9164,171.2882 C148.9644,165.3862 141.7044,162.0002 133.9994,162.0002 C126.2944,162.0002 119.0344,165.3862 114.0824,171.2882 C113.7274,171.7112 113.7824,172.3422 114.2064,172.6962 C114.6284,173.0522 115.2594,172.9982 115.6144,172.5732 C120.1864,167.1252 126.8864,164.0002 133.9994,164.0002 C141.1134,164.0002 147.8134,167.1252 152.3844,172.5732" id="Fill-17"></path>
                </g>
            </g>
        </g>
    </g>
</svg>