<svg width="4" height="16" viewBox="0 0 4 16" fill="none" xmlns="http://www.w3.org/2000/svg">
<path fill-rule="evenodd" clip-rule="evenodd" d="M1 0.500313C1 0.223998 0.77614 0 0.5 0C0.22386 0 0 0.223998 0 0.500313V1.7511C0 2.02741 0.22386 2.25141 0.5 2.25141C0.77614 2.25141 1 2.02741 1 1.7511V0.500313ZM1 5.08314C1 4.80682 0.77614 4.58282 0.5 4.58282C0.22386 4.58282 0 4.80682 0 5.08314V6.33392C0 6.61023 0.22386 6.83423 0.5 6.83423C0.77614 6.83423 1 6.61023 1 6.33392V5.08314ZM0.5 9.16577C0.77614 9.16577 1 9.38977 1 9.66608V10.9169C1 11.1932 0.77614 11.4172 0.5 11.4172C0.22386 11.4172 0 11.1932 0 10.9169V9.66608C0 9.38977 0.22386 9.16577 0.5 9.16577ZM1 14.2489C1 13.9726 0.77614 13.7486 0.5 13.7486C0.22386 13.7486 0 13.9726 0 14.2489V15.4997C0 15.776 0.22386 16 0.5 16C0.77614 16 1 15.776 1 15.4997V14.2489ZM3.5 0C3.77614 0 4 0.223998 4 0.500313V1.7511C4 2.02741 3.77614 2.25141 3.5 2.25141C3.22386 2.25141 3 2.02741 3 1.7511V0.500313C3 0.223998 3.22386 0 3.5 0ZM4 5.08314C4 4.80682 3.77614 4.58282 3.5 4.58282C3.22386 4.58282 3 4.80682 3 5.08314V6.33392C3 6.61023 3.22386 6.83423 3.5 6.83423C3.77614 6.83423 4 6.61023 4 6.33392V5.08314ZM3.5 9.16577C3.77614 9.16577 4 9.38977 4 9.66608V10.9169C4 11.1932 3.77614 11.4172 3.5 11.4172C3.22386 11.4172 3 11.1932 3 10.9169V9.66608C3 9.38977 3.22386 9.16577 3.5 9.16577ZM4 14.2489C4 13.9726 3.77614 13.7486 3.5 13.7486C3.22386 13.7486 3 13.9726 3 14.2489V15.4997C3 15.776 3.22386 16 3.5 16C3.77614 16 4 15.776 4 15.4997V14.2489Z" fill="#FFCA99"/>
</svg>
