<?xml version="1.0" standalone="no"?>
<!DOCTYPE svg PUBLIC "-//W3C//DTD SVG 1.1//EN" "http://www.w3.org/Graphics/SVG/1.1/DTD/svg11.dtd" >
<svg xmlns="http://www.w3.org/2000/svg" id="pause-circle_24">
<path unicode="&#xeb49;" transform="scale(1,-1)" id="pause-circle_24" data-tags="pause-circle_24" d="M512-21.333c258.773 0 469.333 210.56 469.333 469.333s-210.56 469.333-469.333 469.333c-258.773 0-469.333-210.56-469.333-469.333s210.56-469.333 469.333-469.333zM512 960c282.325 0 512-229.675 512-512s-229.675-512-512-512c-282.325 0-512 229.675-512 512s229.675 512 512 512zM426.581 298.667c0-11.563-9.771-21.333-21.333-21.333s-21.333 9.771-21.333 21.333v298.667c0 11.563 9.771 21.333 21.333 21.333s21.333-9.771 21.333-21.333v-298.667zM405.248 661.333c-35.2 0-64-28.8-64-64v-298.667c0-35.2 28.8-64 64-64s64 28.8 64 64v298.667c0 35.2-28.8 64-64 64zM639.915 298.667c0-11.563-9.771-21.333-21.333-21.333s-21.333 9.771-21.333 21.333v298.667c0 11.563 9.771 21.333 21.333 21.333s21.333-9.771 21.333-21.333v-298.667zM618.581 661.333c-35.2 0-64-28.8-64-64v-298.667c0-35.2 28.8-64 64-64s64 28.8 64 64v298.667c0 35.2-28.8 64-64 64z" />
</svg>
