<svg width="10" height="10" viewBox="0 0 10 10" fill="none" xmlns="http://www.w3.org/2000/svg">
<path fill-rule="evenodd" clip-rule="evenodd" d="M7.5 8.5C7.5 8.776 7.276 9 7 9C6.725 9 6.5 8.776 6.5 8.5V1.5C6.5 1.224 6.725 1 7 1C7.276 1 7.5 1.224 7.5 1.5V8.5ZM7 0C6.172 0 5.5 0.671 5.5 1.5V8.5C5.5 9.329 6.172 10 7 10C7.829 10 8.5 9.329 8.5 8.5V1.5C8.5 0.671 7.829 0 7 0ZM3.5 8.5C3.5 8.776 3.276 9 3 9C2.725 9 2.5 8.776 2.5 8.5V1.5C2.5 1.224 2.725 1 3 1C3.276 1 3.5 1.224 3.5 1.5V8.5ZM3 0C2.172 0 1.5 0.671 1.5 1.5V8.5C1.5 9.329 2.172 10 3 10C3.829 10 4.5 9.329 4.5 8.5V1.5C4.5 0.671 3.829 0 3 0Z" fill="white"/>
</svg>
