<?xml version="1.0" standalone="no"?>
<!DOCTYPE svg PUBLIC "-//W3C//DTD SVG 1.1//EN" "http://www.w3.org/Graphics/SVG/1.1/DTD/svg11.dtd" >
<svg xmlns="http://www.w3.org/2000/svg" id="pdf-file_24">
<path unicode="&#xea6c;" transform="scale(1,-1)" id="pdf-file_24" data-tags="pdf-file_24" d="M881.408 689.408l-256 256c-9.259 9.259-22.059 14.592-35.2 14.592h-355.541c-58.837 0-106.667-47.829-106.667-106.667v-810.667c0-58.837 47.829-106.667 106.667-106.667h554.667c58.837 0 106.667 47.829 106.667 106.667v611.584c0 13.312-5.163 25.771-14.592 35.157zM853.333 42.667c0-35.285-28.715-64-64-64h-554.667c-35.285 0-64 28.715-64 64v810.667c0 35.285 28.715 64 64 64h355.541c1.792 0 3.755-0.811 5.035-2.091l256-256c1.408-1.408 2.091-2.987 2.091-4.992v-611.584zM661.542 319.855c-30.037 0-60.16-2.944-89.472-8.704l-9.259-1.835-36.949 59.947c8.704 25.131 17.109 50.389 25.003 75.733 2.389 6.784 3.584 13.867 3.584 24.192 0 35.285-28.715 64-64.256 64-34.475 0-62.677-27.435-63.957-61.611h-0.043v-2.389h0.043c0.469-11.861 4.139-23.253 10.155-32.171l42.667-72.32c-10.496-29.269-21.419-58.411-32.939-87.296l-96.896-33.621c-29.909-8.533-50.773-36.181-50.773-67.285 0-38.571 31.403-69.973 69.973-69.973h4.992c27.349 0 52.352 16.085 63.701 41.003 14.379 31.573 28.16 63.616 41.344 95.957l10.624 3.669c18.432 6.4 37.333 11.52 56.235 15.275l17.536-22.485c23.893-30.549 59.861-48.085 98.688-48.085 35.285 0 64 28.715 64 64s-28.715 64-64 64zM661.457 234.522c-25.557 0-49.195 11.563-64.896 31.701l-4.139 5.248c22.741 3.797 45.952 5.717 69.12 5.717 11.733 0 21.333-9.557 21.333-21.333s-9.643-21.333-21.419-21.333zM498.769 294.98c2.816 7.339 5.547 14.72 8.32 22.144l10.155-17.237c-6.144-1.493-12.373-3.157-18.475-4.907zM472.444 459.716c-2.091 3.2-3.328 6.827-3.541 10.667 0.64 11.221 9.984 20.139 21.547 20.139 11.776 0 21.333-9.557 21.333-24.405 0-2.432-0.384-4.821-1.707-8.576-4.181-13.269-8.405-26.581-12.843-39.808l-24.789 41.984zM398.289 165.188c-4.395-9.728-14.208-16-24.875-16h-4.992c-15.061 0-27.307 12.245-27.307 27.307 0 12.117 8.192 22.912 20.949 26.624l62.379 21.632c-8.448-20.011-17.195-39.851-26.155-59.563z" />
</svg>
