<?xml version="1.0" standalone="no"?>
<!DOCTYPE svg PUBLIC "-//W3C//DTD SVG 1.1//EN" "http://www.w3.org/Graphics/SVG/1.1/DTD/svg11.dtd" >
<svg xmlns="http://www.w3.org/2000/svg" id="pdf-file_32">
<path unicode="&#xea6d;" transform="scale(1,-1)" id="pdf-file_32" data-tags="pdf-file_32" d="M864 32c0-35.296-28.704-64-64-64h-576c-35.296 0-64 28.704-64 64v832c0 35.296 28.704 64 64 64h379.232l260.768-260.768v-635.232zM886.624 689.888l-260.768 260.736c-5.984 6.016-14.112 9.376-22.624 9.376h-379.232c-53.024 0-96-42.976-96-96v-832c0-53.024 42.976-96 96-96h576c53.024 0 96 42.976 96 96v635.232c0 8.512-3.36 16.64-9.376 22.656zM611.187 280.97c19.872 4.672 40.352 7.040 60.8 7.040 17.664 0 32-14.368 32-32 0-17.664-14.368-32-32.032-32-25.792 0-50.304 11.2-67.136 30.784-5.824 6.752-11.456 13.664-16.864 20.704l23.232 5.472zM506.227 289.162l-14.432-4.896 21.184 51.168c6.752-13.504 14.080-26.688 22.048-39.488l-28.8-6.784zM482.291 493.386c-1.504 3.744-2.304 7.744-2.304 11.872v6.752c0 17.632 14.368 32 32 32 17.664 0 32-14.368 32-32v-8.288c0-4.128-0.768-8.16-2.336-12l-29.472-72.864-29.888 74.528zM394.835 149.802c-6.048-13.184-19.36-21.696-33.92-21.696h-3.584c-20.576 0-37.344 16.736-37.344 37.344 0 16.032 10.208 30.24 25.344 35.36l86.4 29.344-36.896-80.352zM529.395 376.138l41.952 103.584c3.104 7.68 4.64 15.744 4.64 24v8.288c0 35.296-28.704 64-64 64-35.264 0-64-28.704-64-64v-6.752c0-8.224 1.536-16.256 4.608-23.808l42.272-105.408-28.576-70.688-16.192-35.232-115.008-39.008c-28.192-9.536-47.104-35.936-47.104-65.664 0-38.272 31.104-69.344 69.344-69.344h3.584c27.008 0 51.744 15.84 62.976 40.352l49.536 107.84 41.568 14.112 39.008 9.152c8.352-11.552 17.216-22.816 26.56-33.664 22.944-26.624 56.288-41.888 91.424-41.888 35.296 0 64 28.704 64 64 0 35.264-28.704 64-64 64-22.912 0-45.856-2.656-68.128-7.872l-35.84-8.448c-14.944 22.912-27.872 47.104-38.624 72.448z" />
</svg>
