<?xml version="1.0" standalone="no"?>
<!DOCTYPE svg PUBLIC "-//W3C//DTD SVG 1.1//EN" "http://www.w3.org/Graphics/SVG/1.1/DTD/svg11.dtd" >
<svg xmlns="http://www.w3.org/2000/svg" id="people_32">
<path unicode="&#xe9cd;" transform="scale(1,-1)" id="people_32" data-tags="people_32" d="M77.411 0c-2.112 0-4.064 0.512-5.888 1.248-4.096 1.952-6.976 6.048-6.976 10.88 0 1.248 0.192 2.496 0.544 3.616l-0.032 0.032 7.392 26.784 26.4 95.584c24.352 88.224 112 149.856 213.184 149.856h399.84c101.152 0 188.8-61.632 213.152-149.856l33.792-122.368-0.032-0.032c0.352-1.12 0.544-2.368 0.544-3.616 0-4.832-2.88-8.928-6.976-10.88-1.824-0.736-3.776-1.248-5.888-1.248h-869.056zM224.067 608c0 158.784 129.12 287.936 287.872 288 158.752-0.064 287.904-129.216 287.904-288s-129.152-287.936-287.904-288c-158.752 0.064-287.872 129.216-287.872 288v0zM990.467 21.376l-17.28 62.656-17.312 62.624c-28.16 102.048-128.512 173.344-244 173.344h-61.248c107.136 51.776 181.44 161.248 181.44 288 0 176.448-143.584 320-320 320h-0.224c-176.448 0-320-143.552-320-320 0-126.752 74.272-236.224 181.44-288h-61.248c-115.52 0-215.872-71.296-244.032-173.344l-17.28-62.624-17.312-62.656c-3.072-11.072-1.056-22.592 5.088-32.32 0.672-1.056 1.152-2.208 1.92-3.2 8.512-11.2 22.336-17.856 36.992-17.856v0h869.056c14.656 0 28.48 6.656 36.992 17.856 1.536 2.016 2.72 4.224 3.872 6.432 4.576 9.024 5.856 19.232 3.136 29.088v0z" />
</svg>
