<?xml version="1.0" encoding="UTF-8" standalone="no"?>
<svg width="20px" height="20px" viewBox="0 0 20 20" version="1.1" xmlns="http://www.w3.org/2000/svg" xmlns:xlink="http://www.w3.org/1999/xlink">
    <!-- Generator: Sketch 45.2 (43514) - http://www.bohemiancoding.com/sketch -->
    <title>people-circle-active_20</title>
    <desc>Created with Sketch.</desc>
    <defs></defs>
    <g id="people-circle-active_20" stroke="none" stroke-width="1" fill="none" fill-rule="evenodd">
        <g id="20" transform="translate(-820.000000, -800.000000)">
            <g id="people-circle-active_20" transform="translate(820.000000, 800.000000)">
                <rect id="bounds" x="0" y="0" width="20" height="20"></rect>
                <g id="icon" fill="#444444">
                    <path d="M10,0 C15.523,0 20,4.477 20,10 C20,15.523 15.523,20 10,20 C4.477,20 0,15.523 0,10 C0,4.477 4.477,0 10,0 Z M7.0586,13 L7.2506,12.122 C7.3946,11.461 7.8926,11 8.4606,11 L9.9706,11 C9.9806,11 9.9906,11.003 9.9996,11.003 C10.0096,11.003 10.0186,11 10.0286,11 L11.5396,11 C12.1076,11 12.6046,11.461 12.7496,12.121 L12.9416,13 L7.0586,13 Z M9.9996,6 C11.1036,6 12.0016,6.897 12.0016,8.001 C12.0016,9.095 11.1186,9.984 10.0286,10 L9.9716,10 C8.8806,9.984 7.9986,9.095 7.9986,8.001 C7.9986,6.897 8.8966,6 9.9996,6 Z M12.1416,10.099 C12.6716,9.557 13.0016,8.817 13.0016,8.001 C13.0016,6.347 11.6546,5 9.9996,5 C8.3456,5 6.9986,6.347 6.9986,8.001 C6.9986,8.817 7.3286,9.557 7.8586,10.099 C7.0876,10.336 6.4706,11.01 6.2736,11.908 L6.0166,13.082 C5.9666,13.31 6.0226,13.553 6.1666,13.732 C6.3036,13.902 6.5046,14 6.7176,14 L13.2826,14 C13.4956,14 13.6966,13.902 13.8326,13.732 C13.9766,13.553 14.0336,13.31 13.9826,13.083 L13.7256,11.907 C13.5296,11.009 12.9126,10.336 12.1416,10.099 Z" id="fill"></path>
                </g>
            </g>
        </g>
    </g>
</svg>