<?xml version="1.0" standalone="no"?>
<!DOCTYPE svg PUBLIC "-//W3C//DTD SVG 1.1//EN" "http://www.w3.org/Graphics/SVG/1.1/DTD/svg11.dtd" >
<svg xmlns="http://www.w3.org/2000/svg" id="people-active_24">
<path unicode="&#xe9c7;" transform="scale(1,-1)" id="people-active_24" data-tags="people-active_24" d="M979.908 40.405l-32.896 133.632c-27.307 111.061-125.184 188.629-238.037 188.629h-43.904c87.040 52.224 145.621 147.285 145.621 256 0 164.651-133.973 298.667-298.667 298.667-164.651 0-298.667-134.016-298.667-298.667 0-108.715 58.581-203.776 145.664-256h-43.947c-112.853 0-210.731-77.568-237.995-188.629l-32.939-133.632c-3.712-15.061-0.341-30.677 9.173-42.837 9.429-12.032 23.552-18.901 38.699-18.901h840.021c15.147 0 29.269 6.869 38.699 18.901 9.557 12.16 12.885 27.776 9.173 42.837z" />
</svg>
