<?xml version="1.0" encoding="UTF-8" standalone="no"?>
<svg width="16px" height="16px" viewBox="0 0 16 16" version="1.1" xmlns="http://www.w3.org/2000/svg" xmlns:xlink="http://www.w3.org/1999/xlink">
    <!-- Generator: Sketch 45.2 (43514) - http://www.bohemiancoding.com/sketch -->
    <title>people-circle-active_16</title>
    <desc>Created with Sketch.</desc>
    <defs></defs>
    <g id="people-circle-active_16" stroke="none" stroke-width="1" fill="none" fill-rule="evenodd">
        <g id="16" transform="translate(-1376.000000, -1476.000000)">
            <g id="people-circle-active_16" transform="translate(1376.000000, 1476.000000)">
                <rect id="bounds" x="0" y="0" width="16" height="16"></rect>
                <g id="icon" fill="#444444">
                    <path d="M8,0 C12.418,0 16,3.582 16,8 C16,12.418 12.418,16 8,16 C3.582,16 0,12.418 0,8 C0,3.582 3.582,0 8,0 Z M5.0586,11 L5.2506,10.122 C5.3946,9.461 5.8926,9 6.4606,9 L7.9716,9 C7.9806,9 7.9906,9.003 7.9996,9.003 C8.0096,9.003 8.0186,9 8.0286,9 L9.5396,9 C10.1076,9 10.6046,9.461 10.7496,10.121 L10.9416,11 L5.0586,11 Z M7.9996,4 C9.1036,4 10.0016,4.897 10.0016,6.001 C10.0016,7.095 9.1186,7.984 8.0286,8 L7.9716,8 C6.8816,7.984 5.9986,7.095 5.9986,6.001 C5.9986,4.897 6.8966,4 7.9996,4 Z M10.1416,8.099 C10.6716,7.557 11.0016,6.817 11.0016,6.001 C11.0016,4.347 9.6546,3 7.9996,3 C6.3456,3 4.9986,4.347 4.9986,6.001 C4.9986,6.817 5.3286,7.557 5.8586,8.099 C5.0876,8.336 4.4706,9.01 4.2736,9.908 L4.0166,11.082 C3.9666,11.31 4.0226,11.553 4.1666,11.732 C4.3036,11.902 4.5046,12 4.7176,12 L11.2826,12 C11.4956,12 11.6966,11.902 11.8326,11.732 C11.9766,11.553 12.0336,11.31 11.9826,11.083 L11.7256,9.907 C11.5296,9.009 10.9126,8.336 10.1416,8.099 Z" id="fill"></path>
                </g>
            </g>
        </g>
    </g>
</svg>