<?xml version="1.0" encoding="UTF-8" standalone="no"?>
<svg width="16px" height="16px" viewBox="0 0 16 16" version="1.1" xmlns="http://www.w3.org/2000/svg" xmlns:xlink="http://www.w3.org/1999/xlink">
    <!-- Generator: Sketch 45.2 (43514) - http://www.bohemiancoding.com/sketch -->
    <title>people-circle_16</title>
    <desc>Created with Sketch.</desc>
    <defs></defs>
    <g id="@1X" stroke="none" stroke-width="1" fill="none" fill-rule="evenodd">
        <g id="16" transform="translate(-1422.000000, -1360.000000)">
            <g id="people-circle_16" transform="translate(1422.000000, 1360.000000)">
                <rect id="bounds" x="0" y="0" width="16" height="16"></rect>
                <g id="icon" transform="translate(3.000000, 3.000000)" fill="#444444">
                    <path d="M7.1416,5.099 C7.9126,5.336 8.5296,6.009 8.7256,6.907 L8.9826,8.083 C9.0336,8.31 8.9766,8.553 8.8326,8.732 C8.6966,8.902 8.4956,9 8.2826,9 L1.7176,9 C1.5046,9 1.3036,8.902 1.1666,8.732 C1.0226,8.553 0.9666,8.31 1.0166,8.082 L1.2736,6.908 C1.4706,6.01 2.0876,5.336 2.8586,5.099 C2.3286,4.557 1.9986,3.817 1.9986,3.001 C1.9986,1.347 3.3456,0 4.9996,0 C6.6546,0 8.0016,1.347 8.0016,3.001 C8.0016,3.817 7.6716,4.557 7.1416,5.099 Z M2.0586,8 L7.9416,8 L7.7496,7.121 C7.6046,6.461 7.1076,6 6.5396,6 L5.0286,6 C5.0186,6 5.0096,6.003 4.9996,6.003 C4.9906,6.003 4.9806,6 4.9716,6 L3.4606,6 C2.8926,6 2.3946,6.461 2.2506,7.122 L2.0586,8 Z M4.9996,1 C3.8966,1 2.9986,1.897 2.9986,3.001 C2.9986,4.095 3.8816,4.984 4.9716,5 L5.0286,5 C6.1186,4.984 7.0016,4.095 7.0016,3.001 C7.0016,1.897 6.1036,1 4.9996,1 Z" id="fill"></path>
                </g>
            </g>
        </g>
    </g>
</svg>