<?xml version="1.0" standalone="no"?>
<!DOCTYPE svg PUBLIC "-//W3C//DTD SVG 1.1//EN" "http://www.w3.org/Graphics/SVG/1.1/DTD/svg11.dtd" >
<svg xmlns="http://www.w3.org/2000/svg" id="people_24">
<path unicode="&#xe9cb;" transform="scale(1,-1)" id="people_24" data-tags="people_24" d="M937.101 23.893c-0.896-1.152-2.56-2.56-5.12-2.56h-839.969c-2.56 0-4.181 1.408-5.12 2.56-0.811 1.024-2.091 3.285-1.323 6.357l32.937 133.632c22.612 91.947 103.418 156.117 196.553 156.117h393.874c93.136 0 173.941-64.171 196.596-156.117l32.894-133.632c0.768-3.072-0.469-5.333-1.323-6.357zM256.013 618.667c0 141.184 114.852 256 255.984 256 141.175 0 255.984-114.816 255.984-256 0-141.141-114.809-256-255.984-256-141.133 0-255.984 114.859-255.984 256zM979.85 40.448l-32.937 133.632c-27.262 111.061-125.134 188.587-237.98 188.587h-43.901c87.035 52.267 145.612 147.328 145.612 256 0 164.693-133.965 298.667-298.648 298.667-164.64 0-298.648-133.973-298.648-298.667 0-108.672 58.578-203.733 145.655-256h-43.944c-112.846 0-210.718-77.525-237.98-188.587l-32.937-133.632c-3.712-15.061-0.341-30.677 9.173-42.837 9.429-12.032 23.551-18.944 38.696-18.944h839.969c15.146 0 29.268 6.912 38.696 18.944 9.557 12.16 12.885 27.776 9.173 42.837z" />
</svg>
