<?xml version="1.0" standalone="no"?>
<!DOCTYPE svg PUBLIC "-//W3C//DTD SVG 1.1//EN" "http://www.w3.org/Graphics/SVG/1.1/DTD/svg11.dtd" >
<svg xmlns="http://www.w3.org/2000/svg" id="people_16">
<path unicode="&#xe9ca;" transform="scale(1,-1)" id="people_16" data-tags="people_16" d="M64.102 0.448l35.261 150.336c23.358 99.648 106.231 169.216 201.647 169.216h421.98c95.416 0 178.353-69.568 201.711-169.216l37.245-150.784-897.844 0.448zM256.022 640.064c0 141.12 114.806 255.936 255.978 255.936s255.978-114.816 255.978-255.936c0-141.184-114.806-256-255.978-256s-255.978 114.816-255.978 256v0zM1022.229 15.104l-35.261 150.336c-30.141 128.64-138.74 218.56-263.978 218.56h-21.054c78.457 58.368 130.037 150.976 130.037 256.064 0 176.384-143.54 319.936-319.973 319.936s-319.973-143.552-319.973-319.936c0-105.088 51.58-197.696 130.037-256.064h-21.054c-125.237 0-233.836-89.92-263.978-218.56l-35.261-150.336c-4.608-19.712-0.128-40 12.287-55.616 11.839-14.912 29.31-23.488 47.996-23.488h899.891c18.686 0 36.157 8.576 47.996 23.488 12.415 15.616 16.895 35.904 12.287 55.616v0z" />
</svg>
