<?xml version="1.0" encoding="UTF-8"?>
<svg width="8px" height="12px" viewBox="0 0 8 12" version="1.1" xmlns="http://www.w3.org/2000/svg" xmlns:xlink="http://www.w3.org/1999/xlink">
    <!-- Generator: Sketch 45.1 (43504) - http://www.bohemiancoding.com/sketch -->
    <title>phone_12</title>
    <desc>Created with Sketch.</desc>
    <defs></defs>
    <g id="Page-1" stroke="none" stroke-width="1" fill="none" fill-rule="evenodd">
        <g id="Artboard" transform="translate(-88.000000, -20.000000)">
            <g id="phone_12" transform="translate(92.000000, 26.000000) scale(-1, 1) translate(-92.000000, -26.000000) translate(86.000000, 20.000000)">
                <rect id="bound" x="0" y="0" width="12" height="12"></rect>
                <g id="icon" transform="translate(2.000000, 0.000000)" fill-rule="nonzero" fill="#444444">
                    <path d="M1.5,1 C1.22385763,1 1,1.22385763 1,1.5 L1,10.5 C1,10.7761424 1.22385763,11 1.5,11 L6.5,11 C6.77614237,11 7,10.7761424 7,10.5 L7,1.5 C7,1.22385763 6.77614237,1 6.5,1 L1.5,1 Z M1.5,0 L6.5,0 C7.32842712,-1.52179594e-16 8,0.671572875 8,1.5 L8,10.5 C8,11.3284271 7.32842712,12 6.5,12 L1.5,12 C0.671572875,12 0,11.3284271 0,10.5 L0,1.5 C0,0.671572875 0.671572875,1.52179594e-16 1.5,0 Z M1,9 L1,10 L7,10 L7,9 L1,9 Z" id="fill"></path>
                </g>
            </g>
        </g>
    </g>
</svg>