<?xml version="1.0" standalone="no"?>
<!DOCTYPE svg PUBLIC "-//W3C//DTD SVG 1.1//EN" "http://www.w3.org/Graphics/SVG/1.1/DTD/svg11.dtd" >
<svg xmlns="http://www.w3.org/2000/svg" id="photo-camera_16">
<path unicode="&#xe9cf;" transform="scale(1,-1)" id="photo-camera_16" data-tags="photo-camera_16" d="M960 128c0-35.264-28.672-64-64-64h-768c-35.328 0-64 28.736-64 64v512c0 35.264 28.672 64 64 64h82.752c17.088 0 33.216 6.656 45.248 18.752l81.152 81.152c17.856 17.856 42.624 28.096 67.84 28.096h214.016c25.216 0 49.984-10.24 67.84-28.096l81.216-81.152c12.032-12.096 28.16-18.752 45.248-18.752h82.688c35.328 0 64-28.736 64-64v-512zM896 768h-82.688l-81.216 81.152c-30.208 30.208-70.336 46.848-113.088 46.848h-214.016c-42.752 0-82.88-16.64-113.088-46.848l-81.152-81.152h-82.752c-70.592 0-128-57.408-128-128v-512c0-70.592 57.408-128 128-128h768c70.592 0 128 57.408 128 128v512c0 70.592-57.408 128-128 128zM512 192c-105.856 0-192 86.144-192 192s86.144 192 192 192c105.856 0 192-86.144 192-192s-86.144-192-192-192zM512 640c-141.376 0-256-114.624-256-256s114.624-256 256-256c141.376 0 256 114.624 256 256s-114.624 256-256 256z" />
</svg>
