<?xml version="1.0" standalone="no"?>
<!DOCTYPE svg PUBLIC "-//W3C//DTD SVG 1.1//EN" "http://www.w3.org/Graphics/SVG/1.1/DTD/svg11.dtd" >
<svg xmlns="http://www.w3.org/2000/svg" id="pin_20">
<path unicode="&#xebe8;" transform="scale(1,-1)" id="pin_20" d="M937.984 742.159l-131.891 131.891c-46.285 46.336-121.754 46.336-168.038 0l-117.76-117.709c-24.474-24.474-56.781-40.653-91.034-45.517l-184.627-26.368c-45.056-6.451-87.706-27.75-119.962-60.006l-56.883-56.832c-10.701-10.752-16.589-24.934-16.589-40.090s5.888-29.389 16.589-40.038l223.744-223.744-232.806-232.755c-10.035-10.035-10.035-26.214 0-36.198 4.966-5.018 11.52-7.526 18.074-7.526s13.107 2.509 18.125 7.526l232.806 232.755 223.642-223.693c11.059-11.059 25.6-16.589 40.090-16.589 14.541 0 29.030 5.53 40.090 16.589l56.832 56.883c32.205 32.205 53.555 74.854 60.006 119.962l26.419 184.678c4.864 34.202 21.043 66.56 45.466 90.982l117.709 117.709c22.477 22.426 34.816 52.275 34.816 84.070 0 31.744-12.339 61.594-34.816 84.019zM901.786 610.268l-117.709-117.709c-32.256-32.256-53.555-74.854-60.006-120.013l-26.368-184.576c-4.915-34.253-21.043-66.611-45.517-91.034l-56.832-56.883c-2.099-2.099-5.581-2.15-7.782 0l-483.584 483.635c-1.843 1.843-1.792 5.939 0 7.731l56.883 56.832c24.474 24.474 56.832 40.653 91.034 45.517l184.627 26.368c45.056 6.451 87.706 27.75 119.962 60.006l117.76 117.709c13.158 13.21 30.464 19.763 47.821 19.763 17.306 0 34.662-6.554 47.821-19.763l131.891-131.891c12.8-12.8 19.814-29.747 19.814-47.821s-7.014-35.072-19.814-47.872z" />
</svg>
