<?xml version="1.0" encoding="UTF-8"?>
<svg width="9px" height="9px" viewBox="0 0 9 9" version="1.1" xmlns="http://www.w3.org/2000/svg" xmlns:xlink="http://www.w3.org/1999/xlink">
    <!-- Generator: Sketch 46.2 (44496) - http://www.bohemiancoding.com/sketch -->
    <title>plus_10</title>
    <desc>Created with Sketch.</desc>
    <defs></defs>
    <g id="plus_10" stroke="none" stroke-width="1" fill="none" fill-rule="evenodd">
        <g id="plus_10" transform="translate(-31.000000, -59.000000)">
            <g id="plus_10" transform="translate(35.000000, 63.000000) scale(-1, 1) translate(-35.000000, -63.000000) translate(30.000000, 58.000000)">
                <rect id="bound" x="0" y="0" width="10" height="10"></rect>
                <g id="icon" transform="translate(0.000000, 1.000000)" fill="#000000">
                    <path d="M5,4 L5,0.5 C5,0.223857625 4.77614237,-5.07265313e-17 4.5,0 C4.22385763,5.07265313e-17 4,0.223857625 4,0.5 L4,0.5 L4,4 L0.5,4 C0.223857625,4 0,4.22385763 0,4.5 C0,4.77614237 0.223857625,5 0.5,5 L4,5 L4,8.5 C4,8.77614237 4.22385763,9 4.5,9 C4.77614237,9 5,8.77614237 5,8.5 L5,5 L8.5,5 C8.77614237,5 9,4.77614237 9,4.5 C9,4.22385763 8.77614237,4 8.5,4 L5,4 Z" id="fil"></path>
                </g>
            </g>
        </g>
    </g>
</svg>