<?xml version="1.0" standalone="no"?>
<!DOCTYPE svg PUBLIC "-//W3C//DTD SVG 1.1//EN" "http://www.w3.org/Graphics/SVG/1.1/DTD/svg11.dtd" >
<svg xmlns="http://www.w3.org/2000/svg" id="plus-circle_24">
<path unicode="&#xe9d1;" transform="scale(1,-1)" id="plus-circle_24" data-tags="plus-circle_24" d="M533.333 917.333c-270.562 0-490.667-220.105-490.667-490.667s220.105-490.667 490.667-490.667c270.562 0 490.667 220.105 490.667 490.667s-220.105 490.667-490.667 490.667zM533.333-21.333c-247.011 0-448 200.989-448 448s200.989 448 448 448c247.011 0 448-200.989 448-448s-200.989-448-448-448zM746.667 448h-192v192c0 11.733-9.6 21.333-21.333 21.333s-21.333-9.6-21.333-21.333v-192h-192c-11.733 0-21.333-9.6-21.333-21.333s9.6-21.333 21.333-21.333h192v-192c0-11.733 9.6-21.333 21.333-21.333s21.333 9.6 21.333 21.333v192h192c11.733 0 21.333 9.6 21.333 21.333s-9.6 21.333-21.333 21.333z" />
</svg>
