<?xml version="1.0" standalone="no"?>
<!DOCTYPE svg PUBLIC "-//W3C//DTD SVG 1.1//EN" "http://www.w3.org/Graphics/SVG/1.1/DTD/svg11.dtd" >
<svg xmlns="http://www.w3.org/2000/svg" id="plus_16">
<path unicode="&#xe9d2;" transform="scale(1,-1)" id="plus_16" data-tags="plus_16" d="M576 448v416.059c0 17.625-14.327 31.941-32 31.941-17.156 0-32-14.3-32-31.941v-416.059h-416.059c-17.625 0-31.941-14.327-31.941-32 0-17.156 14.3-32 31.941-32h416.059v-416.059c0-17.625 14.327-31.941 32-31.941 17.156 0 32 14.3 32 31.941v416.059h416.059c17.625 0 31.941 14.327 31.941 32 0 17.156-14.3 32-31.941 32h-416.059z" />
</svg>
