<?xml version="1.0" standalone="no"?>
<!DOCTYPE svg PUBLIC "-//W3C//DTD SVG 1.1//EN" "http://www.w3.org/Graphics/SVG/1.1/DTD/svg11.dtd" >
<svg xmlns="http://www.w3.org/2000/svg" id="pmr_16">
<path unicode="&#xe9d5;" transform="scale(1,-1)" id="pmr_16" data-tags="pmr_16" d="M127.62 960h768.76c70.483 0 127.62-57.249 127.62-127.62v-768.76c0-70.483-57.249-127.62-127.62-127.62h-768.76c-70.483 0-127.62 57.249-127.62 127.62v768.76c0 70.483 57.249 127.62 127.62 127.62zM64 63.62c0-35.072 28.531-63.62 63.62-63.62h768.76c35.072 0 63.62 28.531 63.62 63.62v768.76c0 35.072-28.531 63.62-63.62 63.62h-768.76c-35.072 0-63.62-28.531-63.62-63.62v-768.76zM651.724 445.139c32.18 34.304 52.204 80.128 52.204 130.88 0 106.048-85.92 192-191.928 192s-191.928-85.952-191.928-192c0-50.816 20.088-96.704 52.332-131.072-76.323-13.76-138.38-72.896-154.054-151.296l-25.462-127.36c-3.967-19.776 11.196-38.272 31.348-38.272h576.936c20.216 0 35.315 18.496 31.348 38.272l-25.462 127.36c-15.738 78.784-78.371 138.112-155.334 151.488zM263.261 192.019l17.785 89.088c11.964 59.648 64.744 102.912 125.521 102.912h212.336c60.777 0 113.493-43.264 125.457-102.912l17.785-89.088h-498.885zM512 704.019c70.566 0 127.952-57.408 127.952-128s-57.386-128-127.952-128c-70.566 0-127.952 57.408-127.952 128s57.386 128 127.952 128z" />
</svg>
