<?xml version="1.0" standalone="no"?>
<!DOCTYPE svg PUBLIC "-//W3C//DTD SVG 1.1//EN" "http://www.w3.org/Graphics/SVG/1.1/DTD/svg11.dtd" >
<svg xmlns="http://www.w3.org/2000/svg" id="pop-out_24">
<path unicode="&#xe9d8;" transform="scale(1,-1)" id="pop-out_24" data-tags="pop-out_24" d="M960 448.145c-11.776 0-21.333-9.557-21.333-21.333v-342.827c0-34.56-28.117-62.635-62.677-62.635h-727.979c-34.56 0-62.677 28.075-62.677 62.635v727.723c0 34.56 28.117 62.677 62.677 62.677l342.656 0.299c11.776 0 21.333 9.557 21.333 21.333s-9.557 21.333-21.333 21.333l-342.656-0.299c-58.112 0-105.344-47.275-105.344-105.344v-727.723c0-58.069 47.232-105.301 105.344-105.301h727.979c58.112 0 105.344 47.232 105.344 105.301v342.827c0 11.776-9.557 21.333-21.333 21.333zM979.691 904.145c-2.176 5.205-6.315 9.387-11.563 11.563-2.603 1.067-5.333 1.621-8.149 1.621h-298.667c-11.776 0-21.333-9.557-21.333-21.333s9.557-21.333 21.333-21.333h247.168l-390.187-390.144c-8.32-8.363-8.32-21.845 0-30.165 4.181-4.181 9.643-6.272 15.104-6.272s10.923 2.091 15.061 6.272l390.187 390.144v-246.997c0-11.819 9.557-21.333 21.333-21.333 11.819 0 21.333 9.515 21.333 21.333v298.496c0 2.773-0.555 5.547-1.621 8.149z" />
</svg>
