<svg width="12" height="12" viewBox="0 0 12 12" fill="none" xmlns="http://www.w3.org/2000/svg">
<path fill-rule="evenodd" clip-rule="evenodd" d="M11.5 7C11.224 7 11 7.224 11 7.5V10.5C11 10.776 10.775 11 10.5 11H1.5C1.225 11 1 10.776 1 10.5V1.5C1 1.224 1.225 1 1.5 1H4.5C4.776 1 5 0.776 5 0.5C5 0.224 4.776 0 4.5 0H1.5C0.673 0 0 0.673 0 1.5V10.5C0 11.327 0.673 12 1.5 12H10.5C11.327 12 12 11.327 12 10.5V7.5C12 7.224 11.776 7 11.5 7ZM11.5 0H7.5C7.224 0 7 0.224 7 0.5C7 0.776 7.224 1 7.5 1H10.293L6.146 5.146C5.951 5.342 5.951 5.658 6.146 5.854C6.244 5.951 6.372 6 6.5 6C6.628 6 6.756 5.951 6.854 5.854L11 1.707V4.5C11 4.776 11.224 5 11.5 5C11.776 5 12 4.776 12 4.5V0.5C12 0.224 11.776 0 11.5 0Z" />
</svg>
