<?xml version="1.0" standalone="no"?>
<!DOCTYPE svg PUBLIC "-//W3C//DTD SVG 1.1//EN" "http://www.w3.org/Graphics/SVG/1.1/DTD/svg11.dtd" >
<svg xmlns="http://www.w3.org/2000/svg" id="presentation-file_24">
<path unicode="&#xea75;" transform="scale(1,-1)" id="presentation-file_24" data-tags="presentation-file_24" d="M682.667 320c0-94.123-76.544-170.667-170.667-170.667s-170.667 76.544-170.667 170.667c0 94.123 76.544 170.667 170.667 170.667v-128c0-23.552 19.115-42.667 42.667-42.667h128zM554.667 529.109c83.925-16.939 149.504-82.517 166.443-166.443h-166.443v166.443zM881.408 689.408l-256 256c-9.387 9.429-21.888 14.592-35.2 14.592h-355.541c-58.795 0-106.667-47.829-106.667-106.667v-810.667c0-58.837 47.872-106.667 106.667-106.667h554.667c58.795 0 106.667 47.829 106.667 106.667v611.584c0 13.312-5.205 25.771-14.592 35.157zM853.333 42.667c0-35.285-28.715-64-64-64h-554.667c-35.285 0-64 28.715-64 64v810.667c0 35.285 28.715 64 64 64h362.667l256-256v-618.667zM532.736 575.104c-11.392 0-20.736-9.899-20.736-21.547v-20.224c-117.803 0-213.333-95.531-213.333-213.333s95.531-213.333 213.333-213.333c117.803 0 213.333 95.531 213.333 213.333h20.224c12.203 0 22.528 10.283 21.461 22.443-10.709 123.477-109.099 221.867-232.576 232.576-0.555 0.043-1.152 0.085-1.707 0.085z" />
</svg>
