<?xml version="1.0" standalone="no"?>
<!DOCTYPE svg PUBLIC "-//W3C//DTD SVG 1.1//EN" "http://www.w3.org/Graphics/SVG/1.1/DTD/svg11.dtd" >
<svg xmlns="http://www.w3.org/2000/svg" id="presentation-file_32">
<path unicode="&#xea76;" transform="scale(1,-1)" id="presentation-file_32" data-tags="presentation-file_32" d="M864 32c0-35.296-28.704-64-64-64h-576c-35.296 0-64 28.704-64 64v832c0 35.296 28.704 64 64 64h379.232l260.768-260.768v-635.232zM886.624 689.888l-260.736 260.736c-6.016 6.016-14.144 9.376-22.656 9.376h-379.232c-53.024 0-96-42.976-96-96v-832c0-53.024 42.976-96 96-96h576c53.024 0 96 42.976 96 96v635.232c0 8.512-3.36 16.64-9.376 22.656zM733.437 352h-189.44v189.44c97.728-14.080 175.392-91.712 189.44-189.44zM511.997 128c-105.888 0-192 86.112-192 192s86.112 192 192 192v-176c0-8.832 7.168-16 16-16h176c0-105.888-86.112-192-192-192zM528.541 575.072c-0.192 0-0.352 0.128-0.544 0.128-1.184 0-2.24-0.448-3.36-0.704-0.768-0.16-1.536-0.16-2.272-0.448-1.408-0.512-2.56-1.376-3.744-2.24-0.512-0.352-1.12-0.512-1.568-0.928-0.064-0.064-0.064-0.16-0.16-0.224-1.216-1.184-2.112-2.624-2.912-4.16-0.192-0.352-0.512-0.64-0.672-0.992-0.832-1.952-1.312-4.064-1.312-6.304v-15.2c-123.52 0-224-100.48-224-224 0-123.488 100.48-224 224-224s224 100.512 224 224h15.2c2.24 0 4.352 0.48 6.304 1.312 0.32 0.128 0.544 0.416 0.832 0.576 1.6 0.8 3.104 1.76 4.32 3.008 0.064 0.064 0.16 0.096 0.224 0.16 0.48 0.512 0.672 1.216 1.088 1.792 0.768 1.088 1.568 2.112 2.048 3.392 0.352 0.896 0.416 1.856 0.576 2.848 0.192 0.96 0.608 1.888 0.608 2.912 0 0.192-0.096 0.352-0.128 0.512 0 0.192 0.096 0.352 0.096 0.544-8.416 127.328-110.784 229.696-238.112 238.112-0.192 0-0.352-0.096-0.512-0.096z" />
</svg>
