<?xml version="1.0" standalone="no"?>
<!DOCTYPE svg PUBLIC "-//W3C//DTD SVG 1.1//EN" "http://www.w3.org/Graphics/SVG/1.1/DTD/svg11.dtd" >
<svg xmlns="http://www.w3.org/2000/svg" id="priority_12">
<path unicode="&#xeb61;" transform="scale(1,-1)" id="priority_12" d="M554.667 874.667c-259.206 0-469.333-210.128-469.333-469.333s210.128-469.333 469.333-469.333c259.206 0 469.333 210.128 469.333 469.333s-210.128 469.333-469.333 469.333zM554.667 789.333c212.077 0 384-171.923 384-384s-171.923-384-384-384c-212.077 0-384 171.923-384 384s171.923 384 384 384zM554.667 277.333c-23.564 0-42.667-19.103-42.667-42.667s19.103-42.667 42.667-42.667c23.564 0 42.667 19.103 42.667 42.667s-19.103 42.667-42.667 42.667zM554.667 362.667c23.564 0 42.667 19.103 42.667 42.667v170.667c0 23.564-19.103 42.667-42.667 42.667s-42.667-19.103-42.667-42.667v-170.667c0-23.564 19.103-42.667 42.667-42.667z" />
</svg>
