<?xml version="1.0" encoding="UTF-8" standalone="no"?>
<svg width="20px" height="20px" viewBox="0 0 20 20" version="1.1" xmlns="http://www.w3.org/2000/svg" xmlns:xlink="http://www.w3.org/1999/xlink">
    <!-- Generator: Sketch 45.2 (43514) - http://www.bohemiancoding.com/sketch -->
    <title>private-active_20</title>
    <desc>Created with Sketch.</desc>
    <defs></defs>
    <g id="private-active_20" stroke="none" stroke-width="1" fill="none" fill-rule="evenodd">
        <g id="20" transform="translate(-220.000000, -800.000000)">
            <g id="private-active_20" transform="translate(220.000000, 800.000000)">
                <rect id="bounds" x="0" y="0" width="20" height="20"></rect>
                <g id="icon" fill="#444444">
                    <path d="M10,0 C15.5136842,0 20,4.48631579 20,10 C20,15.5136842 15.5136842,20 10,20 C4.48631579,20 0,15.5136842 0,10 C0,4.48631579 4.48631579,0 10,0 Z M12.5,10 C13.878,10 15,8.879 15,7.5 C15,6.121 13.878,5 12.5,5 C11.122,5 10,6.121 10,7.5 C10,8.009 10.154,8.481 10.417,8.876 L6.146,13.146 C5.951,13.342 5.951,13.658 6.146,13.854 L7.631,15.338 C7.729,15.436 7.856,15.484 7.984,15.484 C8.112,15.484 8.24,15.436 8.338,15.338 L9.838,13.838 C10.033,13.643 10.033,13.326 9.838,13.131 L8.707,12 L11.124,9.583 C11.519,9.845 11.991,10 12.5,10 Z M7.207,13.5 L8,12.707 L8.777,13.484 L7.984,14.277 L7.207,13.5 Z M12.5,6 C13.327,6 14,6.673 14,7.5 C14,8.327 13.327,9 12.5,9 C11.673,9 11,8.327 11,7.5 C11,6.673 11.673,6 12.5,6 Z" id="fill"></path>
                </g>
            </g>
        </g>
    </g>
</svg>