<?xml version="1.0" standalone="no"?>
<!DOCTYPE svg PUBLIC "-//W3C//DTD SVG 1.1//EN" "http://www.w3.org/Graphics/SVG/1.1/DTD/svg11.dtd" >
<svg xmlns="http://www.w3.org/2000/svg" id="private-white_12">
<path unicode="&#xeb60;" transform="scale(1,1)" id="private-white_12" data-tags="private-white_12" fill="#FFF" d="M5.5 4C4.673 4 4 3.327 4 2.5S4.673 1 5.5 1 7 1.673 7 2.5 6.327 4 5.5 4zm-4 3.792L1.208 7.5l.292-.293.292.293-.292.292zM5.5 0a2.5 2.5 0 0 0-2.084 3.877L.146 7.146a.504.504 0 0 0 .001.708l1 .998a.5.5 0 0 0 .706 0l1-.998a.5.5 0 0 0 .001-.708L2.207 6.5l1.916-1.916A2.5 2.5 0 1 0 5.5 0z" />
</svg>
