<?xml version="1.0" encoding="UTF-8" standalone="no"?>
<svg width="20px" height="20px" viewBox="0 0 20 20" version="1.1" xmlns="http://www.w3.org/2000/svg" xmlns:xlink="http://www.w3.org/1999/xlink">
    <!-- Generator: Sketch 45.2 (43514) - http://www.bohemiancoding.com/sketch -->
    <title>private_20</title>
    <desc>Created with Sketch.</desc>
    <defs></defs>
    <g id="private_20" stroke="none" stroke-width="1" fill="none" fill-rule="evenodd">
        <g id="20" transform="translate(-264.000000, -680.000000)">
            <g id="private_20" transform="translate(264.000000, 680.000000)">
                <rect id="bounds" x="0" y="0" width="20" height="20"></rect>
                <g id="icon" transform="translate(6.000000, 5.000000)" fill="#444444">
                    <path d="M6.5,0 C7.878,0 9,1.121 9,2.5 C9,3.879 7.878,5 6.5,5 C5.991,5 5.519,4.845 5.124,4.583 L2.707,7 L3.838,8.131 C4.033,8.326 4.033,8.643 3.838,8.838 L2.338,10.338 C2.24,10.436 2.112,10.484 1.984,10.484 C1.856,10.484 1.729,10.436 1.631,10.338 L0.146,8.854 C-0.049,8.658 -0.049,8.342 0.146,8.146 L4.417,3.876 C4.154,3.481 4,3.009 4,2.5 C4,1.121 5.122,0 6.5,0 Z M6.5,4 C7.327,4 8,3.327 8,2.5 C8,1.673 7.327,1 6.5,1 C5.673,1 5,1.673 5,2.5 C5,3.327 5.673,4 6.5,4 Z M2.777,8.484 L2,7.707 L1.207,8.5 L1.984,9.277 L2.777,8.484 Z" id="fill"></path>
                </g>
            </g>
        </g>
    </g>
</svg>