<?xml version="1.0" standalone="no"?>
<!DOCTYPE svg PUBLIC "-//W3C//DTD SVG 1.1//EN" "http://www.w3.org/Graphics/SVG/1.1/DTD/svg11.dtd" >
<svg xmlns="http://www.w3.org/2000/svg" id="private-circle_16">
<path id="private-circle_16" data-tags="private-circle_16" d="M9.5,4.5a2,2,0,0,0-2,2,2,2,0,0,0,.28,1L5.15,10.15a.48.48,0,0,0,0,.7l1,1a.48.48,0,0,0,.7,0l1-1a.48.48,0,0,0,0-.7L7.21,9.5,8.49,8.22a2,2,0,0,0,1,.28,2,2,0,0,0,0-4Zm-3,6.29-.29-.29.29-.29.29.29Zm3-3.29a1,1,0,1,1,1-1A1,1,0,0,1,9.5,7.5ZM8,0a8,8,0,1,0,8,8A8,8,0,0,0,8,0ZM8,15a7,7,0,1,1,7-7A7,7,0,0,1,8,15Z"/>
</svg>