<svg width="16" height="16" viewBox="0 0 16 16" fill="none" xmlns="http://www.w3.org/2000/svg">
<g id="privacy_16">
<path id="Union" fill-rule="evenodd" clip-rule="evenodd" d="M1 8C1 4.13395 4.13395 1 8 1C11.866 1 15 4.13395 15 8C15 11.866 11.866 15 8 15C4.13395 15 1 11.866 1 8ZM8 0C3.58167 0 0 3.58167 0 8C0 12.4183 3.58167 16 8 16C12.4183 16 16 12.4183 16 8C16 3.58167 12.4183 0 8 0ZM6.5 6C6.5 5.17164 7.17164 4.5 8 4.5C8.82836 4.5 9.5 5.17164 9.5 6C9.5 6.62812 9.11229 7.16593 8.55884 7.38935C8.33894 7.47812 8.21165 7.70913 8.25406 7.94244L8.90089 11.5H7.09911L7.74593 7.94244C7.78835 7.70913 7.66106 7.47812 7.44116 7.38935C6.88771 7.16593 6.5 6.62812 6.5 6ZM8 3.5C6.61936 3.5 5.5 4.61936 5.5 6C5.5 6.90405 5.98018 7.6911 6.69553 8.12951L6.00807 11.9106C5.98154 12.0564 6.02113 12.2065 6.11612 12.3204C6.21112 12.4342 6.35174 12.5 6.5 12.5H9.5C9.64826 12.5 9.78888 12.4342 9.88388 12.3204C9.97887 12.2065 10.0185 12.0564 9.99193 11.9106L9.30447 8.12951C10.0198 7.6911 10.5 6.90405 10.5 6C10.5 4.61936 9.38064 3.5 8 3.5Z" />
</g>
</svg>
