<svg xmlns="http://www.w3.org/2000/svg" width="8" height="9" viewBox="0 0 8 9">
    <g fill="none" fill-rule="evenodd">
        <path d="M-2-2h12v12H-2z"/>
        <path fill="#FFF" id="private-white-12" d="M5.5 4C4.673 4 4 3.327 4 2.5S4.673 1 5.5 1 7 1.673 7 2.5 6.327 4 5.5 4zm-4 3.792L1.208 7.5l.292-.293.292.293-.292.292zM5.5 0a2.5 2.5 0 0 0-2.084 3.877L.146 7.146a.504.504 0 0 0 .001.708l1 .998a.5.5 0 0 0 .706 0l1-.998a.5.5 0 0 0 .001-.708L2.207 6.5l1.916-1.916A2.5 2.5 0 1 0 5.5 0z"/>
    </g>
</svg>
