<svg width="16" height="16" viewBox="0 0 16 16" fill="none" xmlns="http://www.w3.org/2000/svg">
<path fill-rule="evenodd" clip-rule="evenodd" d="M8 0C3.582 0 0 3.582 0 8C0 12.418 3.582 16 8 16C12.418 16 16 12.418 16 8C16 3.582 12.418 0 8 0ZM9.24225 7.234C8.69525 7.234 8.25025 6.789 8.25025 6.242C8.25025 5.695 8.69525 5.25 9.24225 5.25C9.78925 5.25 10.2343 5.695 10.2343 6.242C10.2343 6.789 9.78925 7.234 9.24225 7.234ZM6.24925 10.543L5.95725 10.25L6.25425 9.953L6.54425 10.247L6.24925 10.543ZM9.24225 4.25C8.14125 4.25 7.25025 5.141 7.25025 6.242C7.25025 6.614 7.35825 6.958 7.53525 7.255L4.89625 9.896C4.70125 10.091 4.70125 10.408 4.89625 10.603L5.89425 11.603C5.98825 11.697 6.11525 11.75 6.24825 11.75C6.38125 11.75 6.50825 11.697 6.60125 11.603L7.60225 10.603C7.79725 10.409 7.79825 10.094 7.60525 9.899L6.96125 9.245L8.24725 7.959C8.54125 8.13 8.87825 8.234 9.24225 8.234C10.3433 8.234 11.2343 7.342 11.2343 6.242C11.2343 5.141 10.3433 4.25 9.24225 4.25Z" fill="#949494"/>
</svg>
