<?xml version="1.0" encoding="UTF-8" standalone="no"?>
<svg width="16px" height="16px" viewBox="0 0 16 16" version="1.1" xmlns="http://www.w3.org/2000/svg" xmlns:xlink="http://www.w3.org/1999/xlink">
    <!-- Generator: Sketch 45.2 (43514) - http://www.bohemiancoding.com/sketch -->
    <title>private-active_16</title>
    <desc>Created with Sketch.</desc>
    <defs></defs>
    <g id="private-active_16" stroke="none" stroke-width="1" fill="none" fill-rule="evenodd">
        <g id="16" transform="translate(-912.000000, -1476.000000)">
            <g id="private-active_16" transform="translate(912.000000, 1476.000000)">
                <rect id="bounds" x="0" y="0" width="16" height="16"></rect>
                <g id="icon" fill="#444444">
                    <path d="M8,0 C12.418,0 16,3.582 16,8 C16,12.418 12.418,16 8,16 C3.582,16 0,12.418 0,8 C0,3.582 3.582,0 8,0 Z M8.9922,6.9844 C8.4452,6.9844 8.0002,6.5394 8.0002,5.9924 C8.0002,5.4454 8.4452,5.0004 8.9922,5.0004 C9.5392,5.0004 9.9842,5.4454 9.9842,5.9924 C9.9842,6.5394 9.5392,6.9844 8.9922,6.9844 Z M5.9992,10.2934 L5.7072,10.0004 L6.0042,9.7034 L6.2942,9.9974 L5.9992,10.2934 Z M8.9922,4.0004 C7.8912,4.0004 7.0002,4.8914 7.0002,5.9924 C7.0002,6.3644 7.1082,6.7084 7.2852,7.0054 L4.6462,9.6464 C4.4512,9.8414 4.4512,10.1584 4.6462,10.3534 L5.6442,11.3534 C5.7382,11.4474 5.8652,11.5004 5.9982,11.5004 C6.1312,11.5004 6.2582,11.4474 6.3512,11.3534 L7.3522,10.3534 C7.5472,10.1594 7.5482,9.8444 7.3552,9.6494 L6.7112,8.9954 L7.9972,7.7094 C8.2912,7.8804 8.6282,7.9844 8.9922,7.9844 C10.0932,7.9844 10.9842,7.0924 10.9842,5.9924 C10.9842,4.8914 10.0932,4.0004 8.9922,4.0004 Z" id="fill"></path>
                </g>
            </g>
        </g>
    </g>
</svg>