<?xml version="1.0" standalone="no"?>
<!DOCTYPE svg PUBLIC "-//W3C//DTD SVG 1.1//EN" "http://www.w3.org/Graphics/SVG/1.1/DTD/svg11.dtd" >
<svg xmlns="http://www.w3.org/2000/svg" id="private_24">
<path unicode="&#xe9df;" transform="scale(1,-1)" id="private_24" data-tags="private_24" d="M512-21.333c258.773 0 469.333 210.56 469.333 469.333s-210.56 469.333-469.333 469.333c-258.773 0-469.333-210.56-469.333-469.333s210.56-469.333 469.333-469.333zM512 960c282.283 0 512-229.675 512-512s-229.717-512-512-512c-282.325 0-512 229.675-512 512s229.675 512 512 512zM638.669 490.667c-47.061 0-85.333 38.272-85.333 85.333 0 47.104 38.272 85.333 85.333 85.333s85.333-38.229 85.333-85.333c0-47.061-38.272-85.333-85.333-85.333zM460.493 257.323l-55.168-55.168-55.168 55.168 55.168 55.168 55.168-55.168zM638.669 704c-70.571 0-128-57.429-128-128 0-27.563 8.96-53.035 23.893-73.899l-229.632-229.675c-8.363-8.363-8.363-21.845 0-30.165l85.333-85.333c4.139-4.181 9.6-6.272 15.061-6.272s10.923 2.091 15.104 6.272l85.333 85.333c8.32 8.32 8.32 21.803 0 30.165l-70.272 70.229 129.237 129.28c20.907-14.976 46.336-23.936 73.941-23.936 70.571 0 128 57.429 128 128s-57.429 128-128 128z" />
</svg>
