<?xml version="1.0" standalone="no"?>
<!DOCTYPE svg PUBLIC "-//W3C//DTD SVG 1.1//EN" "http://www.w3.org/Graphics/SVG/1.1/DTD/svg11.dtd" >
<svg xmlns="http://www.w3.org/2000/svg" id="pto_16">
<path unicode="&#xead4;" transform="scale(1,-1)" id="pto_16" data-tags="pto_16" d="M627.503 472.32c-8.582-4.672-14.539-13.056-16.14-22.656l-39.581-231.808-30.038 159.488c-1.857 9.984-8.39 18.496-17.549 22.912-4.419 2.112-9.159 3.2-13.898 3.2-5.124 0-10.248-1.28-14.923-3.712l-117.399-61.888c-25.299-13.76-54.953-8.448-76.729 14.656l-13.834 13.376 36.571-14.144c8.774-3.392 18.702-2.752 27.028 1.856l394.532 216.128c7.301 4.032 16.524 1.088 20.047-6.528l0.064-0.064c3.202-6.912 0.512-15.104-6.149-18.752l-132.002-72.064zM432.543 573.696l88.449-53.76-42.656-23.488-55.849 71.36 10.055 5.888zM824.961 593.856v0c-8.39 19.456-24.594 34.496-44.385 41.216-19.599 6.72-40.99 4.864-58.924-5.056l-135.909-74.56-127.839 77.696c-15.884 9.152-34.842 9.088-51.046-0.256l-48.356-28.608c-7.942-4.672-13.45-12.544-15.179-21.632-1.665-9.024 0.576-18.368 6.277-25.6l71.861-91.776-88.257-48.448-47.267 18.304c-13.13 5.12-27.733 4.224-40.606-2.944l-37.34-21.632c-8.71-5.056-14.539-13.824-15.756-23.808-1.217-9.92 2.306-19.84 9.479-26.88l53.864-52.224c40.798-43.328 102.348-53.824 152.753-26.112l78.522 41.408 31.768-168.896c1.921-10.048 8.518-18.624 17.805-23.040 4.355-1.984 9.031-3.008 13.706-3.008 5.316 0 10.632 1.28 15.371 3.904l41.439 22.784c13.386 7.424 22.545 20.544 25.171 36.096l39.773 232.896 119.641 65.664c35.61 19.584 50.341 65.472 33.433 104.512v0z" />
</svg>
