<?xml version="1.0" standalone="no"?>
<!DOCTYPE svg PUBLIC "-//W3C//DTD SVG 1.1//EN" "http://www.w3.org/Graphics/SVG/1.1/DTD/svg11.dtd" >
<svg xmlns="http://www.w3.org/2000/svg" id="pto_120">
<path unicode="&#xead7;" transform="scale(1,-1)" id="pto_120" data-tags="pto_120" d="M817.298 570.34c-3.365-11.606-11.22-21.308-21.557-26.603l-144.058-73.783c-1.211-0.609-2.059-1.756-2.301-3.086l-43.625-238.59c-2.171-11.91-9.645-22.178-19.991-27.481l-29.377-15.049-41.929 207.753c-0.268 1.313-1.125 2.434-2.327 3.034-0.606 0.296-1.263 0.443-1.912 0.443s-1.298-0.148-1.903-0.443l-126.497-62.212c-39.3-20.108-86.999-12.415-118.902 19.291l-54.853 49.606 30.078 16.17c6.384 3.425 13.927 3.99 20.727 1.521l60.917-22.143c1.125-0.409 2.388-0.339 3.434 0.217l433.947 222.245c20.182 10.328 44.611 3.756 55.615-14.936 6.35-10.798 7.993-23.899 4.516-35.957v0zM373.203 600.967l36.609 21.117c11.202 6.512 24.611 6.599 35.813 0.278l136.255-81.156-114.239-58.5-94.438 118.26zM820.23 610.722c-13.331 22.647-42.777 30.663-66.981 18.248l-162.328-83.129c-0.104 0.078-0.164 0.191-0.285 0.261l-140.684 83.798c-13.971 7.876-30.588 7.772-44.455-0.287l-40.986-23.638c-1.099-0.635-1.86-1.713-2.093-2.965-0.234-1.243 0.087-2.539 0.882-3.521l96.471-120.816-138.807-71.088-59.153 21.499c-9.1 3.304-19.204 2.556-27.76-2.026l-35.502-19.091c-1.246-0.669-2.085-1.904-2.249-3.312-0.173-1.408 0.355-2.808 1.401-3.756l59.291-53.605c34.403-34.21 86.142-42.53 128.695-20.743l121.411 59.708 41.938-207.849c0.277-1.33 1.142-2.46 2.362-3.051 0.597-0.287 1.237-0.426 1.886-0.426 0.675 0 1.349 0.156 1.955 0.469l34.464 17.648c12.716 6.52 21.912 19.1 24.568 33.653l43.236 236.477 142.155 72.81c12.465 6.381 21.921 18.022 25.943 31.923 4.144 14.353 2.189 29.958-5.372 42.808v0z" />
</svg>
