<?xml version="1.0" standalone="no"?>
<!DOCTYPE svg PUBLIC "-//W3C//DTD SVG 1.1//EN" "http://www.w3.org/Graphics/SVG/1.1/DTD/svg11.dtd" >
<svg xmlns="http://www.w3.org/2000/svg" id="pto_26">
<path unicode="&#xead6;" transform="scale(1,-1)" id="pto_26" data-tags="pto_26" horiz-adv-x="1063" d="M773.928 555.19l-136.625-70.735c-5.435-2.796-9.255-7.956-10.319-13.982l-42.575-239.065-19.062-9.886-35.722 178.885c-1.182 6.026-5.12 11.146-10.634 13.824-2.718 1.339-5.711 2.009-8.665 2.009-3.033 0-6.026-0.67-8.783-2.048l-120.241-59.786c-31.586-16.384-68.687-10.24-94.996 16.187l-36.628 33.438 11.737 6.814 62.897-23.001c5.159-1.851 10.91-1.497 15.833 1.024l411.806 213.189c5.908 3.033 12.958 3.505 19.417 1.3 6.223-2.127 11.067-6.459 13.745-12.249 6.026-13.194 0.945-29.657-11.185-35.919v0zM401.546 589.494l28.869 16.266 115.318-66.127-71.838-37.179-72.35 87.040zM820.874 607.571c-7.207 15.636-20.204 27.372-36.706 33.044-16.62 5.671-34.895 4.411-50.334-3.584l-146.511-75.855-137.807 79.006c-11.934 6.38-26.073 6.341-38.164-0.236l-49.625-27.687c-5.12-2.836-8.704-7.838-9.767-13.588s0.473-11.658 4.214-16.187l81.92-98.58-108.386-56.084-54.745 20.007c-9.57 3.505-20.165 2.796-29.499-2.048l-38.282-20.913c-5.593-3.072-9.334-8.625-10.122-14.927-0.748-6.302 1.575-12.603 6.262-16.896l55.729-50.885c37.415-37.652 93.854-46.789 140.091-22.843l96.886 48.167 35.801-179.318c1.221-6.065 5.199-11.225 10.752-13.903 2.718-1.3 5.632-1.93 8.546-1.93 3.111 0 6.223 0.709 9.058 2.206l42.299 21.898c10.358 5.317 17.762 15.478 19.81 27.097l41.708 230.4 128.039 66.284c30.72 15.911 43.678 55.099 28.83 87.355v0z" />
</svg>
