<?xml version="1.0" standalone="no"?>
<!DOCTYPE svg PUBLIC "-//W3C//DTD SVG 1.1//EN" "http://www.w3.org/Graphics/SVG/1.1/DTD/svg11.dtd" >
<svg xmlns="http://www.w3.org/2000/svg" id="pto_142">
<path unicode="&#xeac2;" transform="scale(1,-1)" id="pto_142" data-tags="pto_142" d="M841.705 589.076c-3.674-12.711-12.326-23.329-23.77-29.133l-155.096-79.853c-1.006-0.512-1.713-1.471-1.917-2.591l-46.978-254.912c-2.405-13.011-10.649-24.252-22.049-30.055l-32.837-16.685-45.403 223.247c-0.226 1.105-0.955 2.042-1.953 2.547-0.518 0.249-1.064 0.373-1.618 0.373-0.547 0-1.093-0.117-1.596-0.366l-136.174-66.454c-42.706-21.705-94.561-13.399-129.176 20.761l-60.091 53.926 33.61 17.929c7.143 3.798 15.577 4.413 23.165 1.683l65.587-23.651c0.955-0.344 1.983-0.278 2.879 0.183l467.213 238.454c22.224 11.284 49.099 4.113 61.213-16.326 6.968-11.731 8.783-25.971 4.993-39.078v0zM361.051 621.216l40.418 23.132c12.384 7.142 27.203 7.237 39.587 0.3l147.676-87.281-124.971-63.783-102.71 127.631zM842.98 631.901c-14.075 23.732-45.163 32.126-70.777 19.107l-175.826-89.739c-0.087 0.066-0.146 0.161-0.233 0.212l-151.459 89.512c-14.731 8.255-32.239 8.137-46.847-0.293l-44.128-25.254c-0.926-0.534-1.574-1.449-1.771-2.503-0.204-1.054 0.066-2.144 0.743-2.978l104.43-129.768-150.723-76.933-64.107 23.117c-9.534 3.439-20.103 2.671-29.047-2.108l-38.231-20.395c-1.050-0.563-1.764-1.603-1.91-2.788-0.138-1.185 0.299-2.371 1.195-3.169l63.859-57.299c36.722-36.238 91.959-45.056 137.398-21.983l131.902 64.368 45.418-223.32c0.226-1.12 0.962-2.064 1.983-2.561 0.51-0.241 1.050-0.366 1.589-0.366 0.561 0 1.137 0.132 1.647 0.395l37.094 18.851c13.426 6.828 23.121 20.007 25.92 35.258l46.664 253.141 153.478 79.011c13.215 6.718 23.223 18.968 27.458 33.618 4.352 15.046 2.267 31.394-5.722 44.866v0z" />
</svg>
