<?xml version="1.0" standalone="no"?>
<!DOCTYPE svg PUBLIC "-//W3C//DTD SVG 1.1//EN" "http://www.w3.org/Graphics/SVG/1.1/DTD/svg11.dtd" >
<svg xmlns="http://www.w3.org/2000/svg" id="pto_124">
<path unicode="&#xeac1;" transform="scale(1,-1)" id="pto_124" data-tags="pto_124" d="M807.449 566.393c-3.257-11.232-10.858-20.621-20.862-25.745l-139.411-71.403c-1.172-0.589-1.992-1.699-2.227-2.987l-42.218-230.893c-2.101-11.526-9.334-21.462-19.347-26.594l-28.43-14.563-40.577 201.051c-0.26 1.27-1.088 2.356-2.252 2.936-0.586 0.286-1.222 0.429-1.85 0.429s-1.256-0.143-1.842-0.429l-122.417-60.205c-38.032-19.46-84.192-12.014-115.067 18.669l-53.084 48.006 29.108 15.649c6.178 3.315 13.478 3.862 20.058 1.472l58.952-21.429c1.088-0.395 2.311-0.328 3.323 0.21l419.949 215.076c19.531 9.995 43.172 3.635 53.821-14.454 6.145-10.449 7.735-23.128 4.37-34.797v0zM377.681 596.033l35.428 20.436c10.841 6.302 23.817 6.386 34.658 0.269l131.86-78.538-110.554-56.613-91.392 114.445zM810.287 605.473c-12.901 21.917-41.397 29.674-64.821 17.659l-157.092-80.447c-0.1 0.076-0.159 0.185-0.276 0.252l-136.146 81.095c-13.52 7.622-29.602 7.521-43.021-0.278l-39.664-22.876c-1.063-0.614-1.8-1.657-2.026-2.869-0.226-1.203 0.084-2.457 0.854-3.407l93.359-116.919-134.329-68.795-57.244 20.806c-8.807 3.197-18.585 2.473-26.864-1.96l-34.357-18.475c-1.205-0.648-2.018-1.843-2.177-3.205-0.167-1.363 0.343-2.717 1.356-3.635l57.378-51.876c33.294-33.106 83.364-41.158 124.543-20.074l117.494 57.782 40.585-201.144c0.268-1.287 1.105-2.381 2.285-2.953 0.578-0.278 1.197-0.412 1.825-0.412 0.653 0 1.306 0.151 1.892 0.454l33.352 17.079c12.306 6.31 21.205 18.484 23.775 32.568l41.841 228.849 137.569 70.461c12.063 6.175 21.213 17.441 25.106 30.893 4.010 13.89 2.118 28.992-5.199 41.427v0z" />
</svg>
