<?xml version="1.0" standalone="no"?>
<!DOCTYPE svg PUBLIC "-//W3C//DTD SVG 1.1//EN" "http://www.w3.org/Graphics/SVG/1.1/DTD/svg11.dtd" >
<svg xmlns="http://www.w3.org/2000/svg" id="pto_64">
<path unicode="&#xeac0;" transform="scale(1,-1)" id="pto_64" data-tags="pto_64" d="M830.328 571.43c-3.184-10.816-10.688-19.856-20.544-24.8l-151.648-75.76-2.24-3.008-0.848-1.104-2.288-3.008-0.688-3.696-45.28-241.648c-2.048-10.912-9.040-20.304-18.768-25.152l-26.112-13.056-40.928 197.632c-1.68 8.144-8.928 14.032-17.232 14.032l-4.208-0.48-3.424-1.248-123.552-59.344c-14.352-7.168-30.464-10.96-46.576-10.96-27.744 0-54 10.656-74.512 30.512l-52.736 46.512 25.984 13.648c3.328 1.744 7.072 2.656 10.816 2.656 2.672 0 5.28-0.448 7.776-1.344l67.856-24.048 461.568 230.672c6 2.992 12.688 4.592 19.344 4.592 14.112 0 27.104-7.024 33.904-18.304 6.032-10 7.616-22.144 4.336-33.296v0zM372.12 600.278l34.016 19.152c5.264 2.992 11.184 4.576 17.136 4.576 5.776 0 11.552-1.504 16.4-4.192l138.8-80.64-110.96-55.456-2.32 2.848-93.072 113.712zM839.704 612.982c-10.064 16.704-28.448 26.048-47.616 26.048-8.912 0-18-2.032-26.496-6.272l-170.064-84.992-147.808 85.888c-7.68 4.24-16.064 6.352-24.448 6.352-8.624 0-17.216-2.224-25.024-6.64l-43.264-24.368c-1.808-1.024-3.088-2.8-3.488-4.832-0.384-2.032 0.144-4.128 1.472-5.744l99.824-121.984-142.704-71.328-61.408 21.792c-4.256 1.52-8.688 2.256-13.136 2.256-6.272 0-12.544-1.504-18.224-4.496l-37.52-19.68c-2.080-1.072-3.472-3.088-3.76-5.376-0.272-2.288 0.608-4.576 2.352-6.112l62.496-55.152c23.344-22.64 54.096-34.512 85.104-34.512 18.304 0 36.688 4.144 53.728 12.64l123.344 59.232c0.224 0.112 0.448 0.16 0.688 0.16 0.736 0 1.408-0.496 1.568-1.264l43.28-208.944c0.432-2.176 1.856-3.984 3.872-4.944 0.992-0.464 2.064-0.704 3.12-0.704 1.088 0 2.224 0.24 3.216 0.752l36.384 18.192c14.16 7.072 24.368 20.72 27.344 36.512l45.264 241.632c0.304 0.4 0.56 0.736 0.848 1.136l148.272 74.080c13.84 6.944 24.32 19.536 28.768 34.592 4.528 15.44 2.352 32.24-5.984 46.080v0z" />
</svg>
