<?xml version="1.0" standalone="no"?>
<!DOCTYPE svg PUBLIC "-//W3C//DTD SVG 1.1//EN" "http://www.w3.org/Graphics/SVG/1.1/DTD/svg11.dtd" >
<svg xmlns="http://www.w3.org/2000/svg" id="pto_150">
<path unicode="&#xeac3;" transform="scale(1,-1)" id="pto_150" data-tags="pto_150" d="M837.716 591.425c-3.652-12.766-12.227-23.434-23.538-29.277l-153.163-80.099c-0.935-0.492-1.597-1.398-1.789-2.451l-46.394-255.734c-2.376-13.126-10.554-24.452-21.873-30.302l-32.631-16.844-44.879 224.214c-0.212 1.045-0.887 1.938-1.843 2.416-0.471 0.235-0.983 0.353-1.502 0.353-0.512 0-1.031-0.118-1.502-0.353l-134.472-66.668c-42.237-21.807-93.505-13.458-127.795 20.9l-59.433 52.075 33.369 18.083c7.1 3.849 15.469 4.458 23.101 1.668l64.771-21.489c0.853-0.284 1.789-0.215 2.615 0.201l461.353 239.223c22.002 11.361 48.66 4.14 60.675-16.456 6.922-11.845 8.724-26.231 4.929-39.461v0zM362.634 623.873l40.12 23.33c12.281 7.2 26.979 7.29 39.274 0.298l146.152-87.755-123.87-64.231-101.676 128.359zM838.671 634.417c-13.844 23.711-44.435 32.109-69.659 19.094l-173.725-90.075c-0.109 0.083-0.177 0.194-0.3 0.27l-149.545 89.791c-14.493 8.245-31.717 8.134-46.094-0.298l-43.575-25.331c-0.867-0.505-1.468-1.364-1.652-2.361-0.184-0.99 0.068-2.022 0.696-2.804l103.287-130.401-149.19-77.357-63.317 21.004c-9.346 3.434-19.75 2.658-28.542-2.105l-37.751-20.457c-0.997-0.54-1.659-1.537-1.789-2.672s0.314-2.257 1.161-3.005l63.024-55.211c36.209-36.297 90.679-45.145 135.475-22.015l130.458 64.681 44.899-224.29c0.212-1.059 0.894-1.959 1.857-2.43 0.471-0.228 0.983-0.339 1.488-0.339 0.532 0 1.058 0.125 1.543 0.374l36.632 18.914c13.203 6.819 22.74 19.987 25.498 35.224l46.087 254.052 151.654 79.316c12.971 6.701 22.808 18.907 26.986 33.507 4.308 15.057 2.266 31.437-5.605 44.923v0z" />
</svg>
