<?xml version="1.0" standalone="no"?>
<!DOCTYPE svg PUBLIC "-//W3C//DTD SVG 1.1//EN" "http://www.w3.org/Graphics/SVG/1.1/DTD/svg11.dtd" >
<svg xmlns="http://www.w3.org/2000/svg" id="pto_18">
<path unicode="&#xead5;" transform="scale(1,-1)" id="pto_18" data-tags="pto_18" d="M614.669 469.618c-7.629-4.153-12.923-11.605-14.347-20.139l-35.183-206.052-26.701 141.767c-1.651 8.875-7.458 16.441-15.599 20.366-3.928 1.877-8.141 2.844-12.354 2.844-4.554 0-9.109-1.138-13.265-3.3l-104.355-55.012c-22.488-12.231-48.847-7.509-68.203 13.028l-12.297 11.89 32.508-12.572c7.8-3.015 16.624-2.446 24.025 1.65l350.695 192.114c6.49 3.584 14.688 0.967 17.819-5.803l0.057-0.057c2.847-6.144 0.455-13.426-5.465-16.668l-117.335-64.057zM441.371 559.73l78.622-47.787-37.916-20.878-49.644 63.431 8.938 5.234zM790.187 577.65v0c-7.458 17.294-21.862 30.663-39.453 36.636-17.421 5.973-36.436 4.324-52.377-4.494l-120.808-66.276-113.634 69.063c-14.119 8.135-30.97 8.078-45.374-0.228l-42.983-25.429c-7.059-4.153-11.956-11.15-13.493-19.228-1.48-8.021 0.512-16.327 5.579-22.756l63.877-81.579-78.451-43.065-42.015 16.27c-11.671 4.551-24.651 3.755-36.094-2.617l-33.191-19.228c-7.743-4.494-12.923-12.288-14.005-21.163-1.082-8.818 2.050-17.636 8.426-23.893l47.879-46.421c36.265-38.514 90.976-47.844 135.78-23.211l69.797 36.807 28.238-150.13c1.708-8.932 7.572-16.555 15.827-20.48 3.871-1.764 8.027-2.674 12.183-2.674 4.725 0 9.451 1.138 13.663 3.47l36.834 20.252c11.899 6.599 20.040 18.261 22.374 32.085l35.354 207.019 106.347 58.368c31.654 17.408 44.748 58.197 29.718 92.9v0z" />
</svg>
