<?xml version="1.0" encoding="UTF-8"?>
<svg width="126px" height="104px" viewBox="0 0 126 104" version="1.1" xmlns="http://www.w3.org/2000/svg" xmlns:xlink="http://www.w3.org/1999/xlink">
    <!-- Generator: Sketch 52.5 (67469) - http://www.bohemiancoding.com/sketch -->
    <title>quote-message-illustration</title>
    <desc>Created with Sketch.</desc>
    <g id="quote-message-illustration" stroke="none" stroke-width="1" fill="none" fill-rule="evenodd">
        <g id="Iteration-Announcements-1.0" transform="translate(-657.000000, -273.000000)">
            <g id="Dialog" transform="translate(174.000000, 128.000000)">
                <g id="window" transform="translate(246.000000, 63.000000)">
                    <g id="form" transform="translate(42.000000, 82.000000)">
                        <g id="illustration" transform="translate(195.000000, 0.000000)">
                            <path d="M81,14 C105.813,14 126,34.187 126,59 C126,83.813 105.813,104 81,104 C73.52,104 66.115,102.103 59.511,98.502 L39.332,103.91 C39.105,103.972 38.875,104 38.647,104 C37.955,104 37.277,103.729 36.775,103.225 C36.106,102.555 35.846,101.58 36.091,100.668 L41.498,80.489 C37.897,73.885 36,66.48 36,59 C36,54.48 36.678,50.118 37.922,46 L48.5,46 C50.43,46 52,44.43 52,42.5 L52,24.629 C59.838,18.005 69.958,14 81,14 Z M38.2412,45 C40.7322,37.413 45.1822,30.709 51.0002,25.495 L51.0002,42.5 C51.0002,43.879 49.8792,45 48.5002,45 L38.2412,45 Z" id="fill" fill="#07C1E4"></path>
                            <path d="M32.5,45 L38.241,45 C38.133,45.332 38.023,45.664 37.922,46 L32.5,46 C30.57,46 29,44.43 29,42.5 L29,32 L29,19.5 L29,18.5 C29,8.299 37.299,0 47.5,0 C47.776,0 48,0.224 48,0.5 C48,0.776 47.776,1 47.5,1 C37.851,1 30,8.851 30,18.5 L30,19 L48.5,19 C50.43,19 52,20.57 52,22.5 L52,24.629 C51.663,24.914 51.328,25.201 51,25.495 L51,22.5 C51,21.121 49.879,20 48.5,20 L30,20 L30,32 L30,42.5 C30,43.879 31.121,45 32.5,45 Z M22,42.5 L22,22.5 C22,21.121 20.879,20 19.5,20 L1,20 L1,32 L1,42.5 C1,43.879 2.121,45 3.5,45 L19.5,45 C20.879,45 22,43.879 22,42.5 Z M19.5,19 C21.43,19 23,20.57 23,22.5 L23,42.5 C23,44.43 21.43,46 19.5,46 L3.5,46 C1.57,46 0,44.43 0,42.5 L0,32 L0,19.5 L0,18.5 C0,8.299 8.299,0 18.5,0 C18.776,0 19,0.224 19,0.5 C19,0.776 18.776,1 18.5,1 C8.851,1 1,8.851 1,18.5 L1,19 L19.5,19 Z" id="fill" fill="#9F9F9F"></path>
                        </g>
                    </g>
                </g>
            </g>
        </g>
    </g>
</svg>