<?xml version="1.0" encoding="UTF-8"?>
<svg width="12px" height="12px" viewBox="0 0 12 12" version="1.1" xmlns="http://www.w3.org/2000/svg" xmlns:xlink="http://www.w3.org/1999/xlink">
    <!-- Generator: Sketch 59.1 (86144) - https://sketch.com -->
    <title>recents_12@1x</title>
    <desc>Created with Sketch.</desc>
    <g id="Presence-Visual-Refresh" stroke="none" stroke-width="1" fill="none" fill-rule="evenodd">
        <g id="Avatar-availability-updates" transform="translate(-488.000000, -777.000000)" fill="#929596">
            <g id="Group-2" transform="translate(150.000000, 683.000000)">
                <g id="avatar" transform="translate(310.000000, 70.000000)">
                    <g id="recents_12" transform="translate(28.000000, 24.000000)">
                        <path d="M6,0 C9.308,0 12,2.692 12,6 C12,9.308 9.308,12 6,12 C2.692,12 0,9.308 0,6 C0,2.692 2.692,0 6,0 Z M5.49953365,3.5 C5.22379107,3.5 5,3.723 5,4 L5,6.466 C5,6.678 5.08292259,6.878 5.23178361,7.027 L6.55754592,8.353 C6.65445544,8.451 6.78233606,8.5 6.91021667,8.5 C7.03809728,8.5 7.1659779,8.451 7.26388649,8.353 C7.45870462,8.158 7.45870462,7.841 7.26388649,7.646 L5.9990673,6.381 L5.9990673,4 C5.9990673,3.723 5.77527622,3.5 5.49953365,3.5 Z" id="fill"></path>
                    </g>
                </g>
            </g>
        </g>
    </g>
</svg>