<?xml version="1.0" encoding="UTF-8" standalone="no"?>
<svg width="89px" height="56px" viewBox="0 0 89 56" version="1.1" xmlns="http://www.w3.org/2000/svg" xmlns:xlink="http://www.w3.org/1999/xlink">
    <!-- Generator: Sketch 42 (36781) - http://www.bohemiancoding.com/sketch -->
    <title>recents-89-56</title>
    <desc>Created with Sketch.</desc>
    <defs>
        <polygon id="path-1" points="0 50.4737 81 50.4737 81 -0.0003 0 -0.0003"></polygon>
    </defs>
    <g id="recents-89-56" stroke="none" stroke-width="1" fill="none" fill-rule="evenodd">
        <g id="Artboard" transform="translate(-1224.000000, -613.000000)">
            <g id="Recents" transform="translate(1224.000000, 613.000000)">
                <rect id="Rectangle-3" x="0" y="0" width="88" height="55"></rect>
                <g id="Group-16" transform="translate(3.000000, 2.000000)">
                    <path d="M23.0989,42.753 L7.4909,42.753 L7.5139,42.1 L7.5309,41.616 C7.8499,39.697 9.5099,38.291 11.4549,38.291 L19.1349,38.291 C21.0799,38.291 22.7389,39.697 23.0589,41.616 L23.0989,42.753 Z" id="Stroke-1" stroke="#878585" stroke-linecap="round" stroke-linejoin="round"></path>
                    <path d="M26.2469,35.2369 C26.2469,41.2859 21.3439,46.1889 15.2949,46.1889 C9.2459,46.1889 4.3429,41.2859 4.3429,35.2369 C4.3429,29.1879 9.2459,24.2849 15.2949,24.2849 C21.3439,24.2849 26.2469,29.1879 26.2469,35.2369 Z" id="Stroke-3" stroke="#878585" stroke-linecap="round" stroke-linejoin="round"></path>
                    <path d="M20.7045,32.9855 C20.7045,35.9735 18.2825,38.3955 15.2945,38.3955 C12.3075,38.3955 9.8855,35.9735 9.8855,32.9855 C9.8855,29.9975 12.3075,27.5755 15.2945,27.5755 C18.2825,27.5755 20.7045,29.9975 20.7045,32.9855 Z" id="Stroke-5" stroke="#878585" stroke-linecap="round" stroke-linejoin="round"></path>
                    <path d="M20.6016,28.3912 C18.4886,30.5042 15.0636,30.5042 12.9516,28.3912" id="Stroke-7" stroke="#878585" stroke-linecap="round" stroke-linejoin="round"></path>
                    <path d="M72.4424,36.85 L73.5744,37.337 C74.0564,37.544 74.3684,38.018 74.3684,38.543 L74.3684,39.832 C74.3684,40.472 73.7674,40.947 73.1474,40.79 C71.2354,40.304 69.0324,38.951 67.0524,36.97 C65.0714,34.989 63.7184,32.787 63.2324,30.874 C63.0744,30.254 63.5504,29.653 64.1904,29.653 L65.4794,29.653 C66.0034,29.653 66.4784,29.966 66.6854,30.448 L67.1724,31.58 C67.3634,32.024 67.3484,32.53 67.1324,32.963 L66.8044,33.619 C66.6894,33.848 66.7194,34.121 66.8774,34.324 C67.6334,35.296 68.7064,36.331 69.7064,37.134 C69.9084,37.296 70.1844,37.328 70.4154,37.212 L71.0594,36.89 C71.4924,36.674 71.9984,36.659 72.4424,36.85 Z" id="Stroke-9" stroke="#878585" stroke-linecap="round" stroke-linejoin="round"></path>
                    <mask id="mask-2" fill="white">
                        <use xlink:href="#path-1"></use>
                    </mask>
                    <g id="Clip-12"></g>
                    <polygon id="Stroke-11" stroke="#878585" stroke-linecap="round" stroke-linejoin="round" mask="url(#mask-2)" points="30.561 33.3037 58.907 33.3037 58.907 29.0087 30.561 29.0087"></polygon>
                    <polygon id="Stroke-13" stroke="#878585" stroke-linecap="round" stroke-linejoin="round" mask="url(#mask-2)" points="30.561 41.4647 58.907 41.4647 58.907 37.1697 30.561 37.1697"></polygon>
                    <path d="M9.9493,17.1812 C11.1733,13.3712 14.7463,10.6142 18.9633,10.6142 C23.0193,10.6142 26.4803,13.1652 27.8273,16.7502" id="Stroke-14" stroke="#878585" stroke-linecap="round" stroke-linejoin="round" mask="url(#mask-2)"></path>
                    <path d="M14.4955,16.7512 C15.0855,14.8442 16.8625,13.4582 18.9635,13.4582 C21.2205,13.4582 23.1035,15.0572 23.5425,17.1842" id="Stroke-15" stroke="#878585" stroke-linecap="round" stroke-linejoin="round" mask="url(#mask-2)"></path>
                    <path d="M23.5499,14.163 C21.7239,15.989 18.7639,15.989 16.9379,14.163" id="Stroke-16" stroke="#878585" stroke-linecap="round" stroke-linejoin="round" mask="url(#mask-2)"></path>
                    <path d="M5.9225,16.7514 L5.9225,11.3824 C5.9225,9.0204 7.8555,7.0874 10.2175,7.0874 L70.8365,7.0874 C73.1985,7.0874 75.1315,9.0204 75.1315,11.3824 L75.1315,16.7514" id="Stroke-17" stroke="#878585" stroke-linecap="round" stroke-linejoin="round" mask="url(#mask-2)"></path>
                    <path d="M60.6898,16.7479 C60.5688,16.4409 60.4708,16.1389 60.3958,15.8449 C60.2598,15.3089 60.6708,14.7899 61.2248,14.7899 L62.3378,14.7899 C62.7918,14.7899 63.2018,15.0599 63.3808,15.4769 L63.8018,16.4549" id="Stroke-18" stroke="#878585" stroke-linecap="round" stroke-linejoin="round" mask="url(#mask-2)"></path>
                    <polyline id="Stroke-19" stroke="#878585" stroke-linecap="round" stroke-linejoin="round" mask="url(#mask-2)" points="32.1575 16.7513 32.1575 14.7903 56.6575 14.7903 56.6575 16.7513"></polyline>
                    <path d="M11.5642,4.5 L11.5642,4.095 C11.5642,2.118 13.1822,0.5 15.1592,0.5 L65.8952,0.5 C67.8722,0.5 69.4902,2.118 69.4902,4.095 L69.4902,4.5" id="Stroke-20" stroke="#878585" stroke-linecap="round" stroke-linejoin="round" mask="url(#mask-2)"></path>
                    <path d="M76.5,49.9737 L4.5,49.9737 C2.3,49.9737 0.5,48.1737 0.5,45.9737 L0.5,24.4997 C0.5,22.2997 2.3,20.4997 4.5,20.4997 L76.5,20.4997 C78.7,20.4997 80.5,22.2997 80.5,24.4997 L80.5,45.9737 C80.5,48.1737 78.7,49.9737 76.5,49.9737 Z" id="Stroke-21" stroke="#878585" stroke-linecap="round" stroke-linejoin="round" mask="url(#mask-2)"></path>
                </g>
            </g>
        </g>
    </g>
</svg>