<svg width="16" height="16" viewBox="0 0 16 16" fill="none" xmlns="http://www.w3.org/2000/svg">
<path fill-rule="evenodd" clip-rule="evenodd" d="M15.993 7.9965C15.993 12.4137 12.4137 15.993 7.9965 15.993C3.57929 15.993 0 12.4137 0 7.9965C0 3.57996 3.57963 0 7.9965 0C12.4134 0 15.993 3.57996 15.993 7.9965ZM10 7.9965C10 6.88971 9.10329 5.993 7.9965 5.993C6.88971 5.993 5.993 6.88971 5.993 7.9965C5.993 9.10329 6.88971 10 7.9965 10C9.10329 10 10 9.10329 10 7.9965ZM7.9965 10.993C9.65171 10.993 10.993 9.65171 10.993 7.9965C10.993 6.34129 9.65171 5 7.9965 5C6.34129 5 5 6.34129 5 7.9965C5 9.65171 6.34129 10.993 7.9965 10.993Z" fill="#F7644A"/>
</svg>
