<?xml version="1.0" standalone="no"?>
<!DOCTYPE svg PUBLIC "-//W3C//DTD SVG 1.1//EN" "http://www.w3.org/Graphics/SVG/1.1/DTD/svg11.dtd" >
<svg xmlns="http://www.w3.org/2000/svg" id="record_24">
<path unicode="&#xe9e5;" transform="scale(1,-1)" id="record_24" data-tags="record_24" d="M512-21.333c-258.773 0-469.333 210.56-469.333 469.333s210.56 469.333 469.333 469.333c258.773 0 469.333-210.56 469.333-469.333s-210.56-469.333-469.333-469.333zM512 960c-282.325 0-512-229.675-512-512s229.675-512 512-512c282.325 0 512 229.675 512 512s-229.675 512-512 512zM512 277.333c-94.123 0-170.667 76.544-170.667 170.667s76.544 170.667 170.667 170.667c94.123 0 170.667-76.544 170.667-170.667s-76.544-170.667-170.667-170.667zM512 661.333c-117.632 0-213.333-95.701-213.333-213.333s95.701-213.333 213.333-213.333c117.632 0 213.333 95.701 213.333 213.333s-95.701 213.333-213.333 213.333z" />
</svg>
