<?xml version="1.0" standalone="no"?>
<!DOCTYPE svg PUBLIC "-//W3C//DTD SVG 1.1//EN" "http://www.w3.org/Graphics/SVG/1.1/DTD/svg11.dtd" >
<svg xmlns="http://www.w3.org/2000/svg" id="record-active_16">
<path unicode="&#xeb0d;" transform="scale(1,-1)" id="record-active_16" data-tags="record-active_16" d="M1023.552 448.224c0-282.701-229.075-511.776-511.776-511.776s-511.776 229.075-511.776 511.776c0 282.659 229.096 511.776 511.776 511.776s511.776-229.117 511.776-511.776zM640 448.224c0-70.835-57.389-128.224-128.224-128.224s-128.224 57.389-128.224 128.224c0 70.835 57.389 128.224 128.224 128.224s128.224-57.389 128.224-128.224zM703.552 448.224c0 105.933-85.843 191.776-191.776 191.776s-191.776-85.843-191.776-191.776c0-105.933 85.843-191.776 191.776-191.776s191.776 85.843 191.776 191.776z" />
</svg>
