<svg width="12" height="12" viewBox="0 0 12 12" fill="none" xmlns="http://www.w3.org/2000/svg">
<path fill-rule="evenodd" clip-rule="evenodd" id="recurring_12" data-tags="recurring_12" d="M10.499 6.51221C10.23 6.45121 9.962 6.62021 9.901 6.88921C9.485 8.72021 7.881 10.0002 6 10.0002C4.557 10.0002 3.261 9.23621 2.546 8.00021H4.5C4.775 8.00021 5 7.77521 5 7.50021C5 7.22521 4.775 7.00021 4.5 7.00021H1.5C1.225 7.00021 1 7.22521 1 7.50021V10.5002C1 10.7752 1.225 11.0002 1.5 11.0002C1.775 11.0002 2 10.7752 2 10.5002V8.98721C2.933 10.2422 4.394 11.0002 6 11.0002C8.351 11.0002 10.356 9.40121 10.876 7.11121C10.937 6.84121 10.769 6.57421 10.499 6.51221M11 4.49951V1.49951C11 1.22551 10.775 0.999512 10.5 0.999512C10.225 0.999512 10 1.22551 10 1.49951V3.01251C9.066 1.75751 7.606 0.999512 6 0.999512C3.445 0.999512 1.308 2.91251 1.03 5.44951C1 5.72451 1.198 5.97051 1.473 6.00051C1.491 6.00251 1.509 6.00351 1.527 6.00351C1.779 6.00351 1.996 5.81451 2.024 5.55851C2.247 3.52951 3.956 1.99951 6 1.99951C7.442 1.99951 8.739 2.76351 9.454 3.99951H7.5C7.225 3.99951 7 4.22551 7 4.49951C7 4.77451 7.225 4.99951 7.5 4.99951H10.5C10.569 4.99951 10.634 4.98551 10.694 4.96051C10.813 4.90951 10.91 4.81351 10.96 4.69451C10.986 4.63451 11 4.56851 11 4.49951Z"/>
</svg>
