<?xml version="1.0" standalone="no"?>
<!DOCTYPE svg PUBLIC "-//W3C//DTD SVG 1.1//EN" "http://www.w3.org/Graphics/SVG/1.1/DTD/svg11.dtd" >
<svg xmlns="http://www.w3.org/2000/svg" id="redo_12">
<path unicode="&#xec35;" id="redo_12" data-tags="redo_12" d="M6 1c1.613 0 3.073.765 4 2.013L10 1.5c0-.276.224-.5.5-.5.276 0 .5.224.5.5l0 3c0 .276-.224.5-.5.5l-3 0c-.276 0-.5-.224-.5-.5 0-.276.224-.5.5-.5l1.964 0C8.757 2.77 7.453 2 6 2 3.794 2 2 3.794 2 6c0 2.206 1.794 4 4 4 .276 0 .5.224.5.5 0 .276-.224.5-.5.5-2.757 0-5-2.243-5-5 0-2.757 2.243-5 5-5" />
</svg>
