<?xml version="1.0" standalone="no"?>
<!DOCTYPE svg PUBLIC "-//W3C//DTD SVG 1.1//EN" "http://www.w3.org/Graphics/SVG/1.1/DTD/svg11.dtd" >
<svg xmlns="http://www.w3.org/2000/svg" id="refresh_16">
<path unicode="&#xe9e6;" transform="scale(1,-1)" id="refresh_16" data-tags="refresh_16" d="M640 608c0-17.6 14.4-32 32-32h320c17.6 0 32 14.4 32 32v320c0 17.6-14.4 32-32 32s-32-14.4-32-32v-233.344c-89.152 160.896-261.184 265.344-448 265.344-282.304 0-512-229.696-512-512s229.696-512 512-512c268.48 0 492.928 209.664 510.848 477.312 1.216 17.6-12.16 32.896-29.76 34.048-15.488 0.896-32.896-12.16-34.112-29.824-15.68-234.112-212.032-417.536-446.976-417.536-246.976 0-448 200.96-448 448s201.024 448 448 448c172.416 0 329.728-102.016 403.392-256h-243.392c-17.6 0-32-14.4-32-32z" />
</svg>
