<svg width="10" height="10" viewBox="0 0 10 10" fill="none" xmlns="http://www.w3.org/2000/svg">
<path d="M8.49984 0.999512H1.50024C0.673144 0.999512 0.000244141 1.67241 0.000244141 2.49951V6.49951C0.000244141 7.32711 0.673144 8.00001 1.50024 8.00001H3.50024V8.50001C3.50024 8.77541 3.27614 9.00001 3.00024 9.00001C2.72384 9.00001 2.50024 9.22361 2.50024 9.50001C2.50024 9.77641 2.72384 10 3.00024 10H6.99974C7.27614 10 7.49974 9.77641 7.49974 9.50001C7.49974 9.22361 7.27614 9.00001 6.99984 9.00001C6.72444 9.00001 6.49984 8.77541 6.49984 8.50001V7.50001C6.49984 7.22361 6.27624 7.00001 5.99984 7.00001H1.50024C1.22434 7.00001 1.00024 6.77541 1.00024 6.49951V2.49951C1.00024 2.22361 1.22434 1.99951 1.50024 1.99951H8.49974C8.77514 1.99951 8.99974 2.22361 8.99974 2.49951V3.49951C8.99974 3.77591 9.22334 3.99951 9.49974 3.99951C9.77614 3.99951 9.99974 3.77591 9.99974 3.49951V2.49951C9.99984 1.67241 9.32694 0.999512 8.49984 0.999512ZM5.49974 8.00001V8.50001C5.49974 8.67481 5.53004 8.84381 5.58514 9.00001H4.41484C4.47004 8.84381 4.50024 8.67481 4.50024 8.50001V8.00001H5.49974ZM7.17352 3.62072C7.43361 3.80561 7.98556 4.27928 9.02169 5.2185C9.13684 5.32288 9.18369 5.4915 9.15769 5.6485C9.13069 5.8065 9.03915 5.95785 8.89715 6.02885L8.58766 6.1798L9.15786 7.34966C9.27686 7.59666 9.17286 7.89366 8.92586 8.01366C8.85586 8.04766 8.78286 8.06366 8.70886 8.06366C8.52386 8.06366 8.34586 7.95966 8.25986 7.78266L7.69253 6.61638L7.38157 6.76357C7.23791 6.83401 7.06057 6.81491 6.91159 6.73524C6.77612 6.66281 6.66719 6.54303 6.66719 6.37103C6.66719 6.37103 6.53427 4.1345 6.53427 3.9325C6.53427 3.7305 6.54862 3.61403 6.73555 3.52286C6.92248 3.43168 6.96238 3.47064 7.17352 3.62072Z" fill="#FFFFFF"/>
</svg>
