<?xml version="1.0" encoding="UTF-8"?>
<svg width="10px" height="10px" viewBox="0 0 10 10" version="1.1" xmlns="http://www.w3.org/2000/svg" xmlns:xlink="http://www.w3.org/1999/xlink">
    <!-- Generator: Sketch 64 (93537) - https://sketch.com -->
    <title>remote-desktop-control-end_10</title>
    <desc>Created with Sketch.</desc>
    <g id="remote-desktop-control-end_10" stroke="none" stroke-width="1" fill="none" fill-rule="evenodd">
        <path d="M5.70725,4.50025 L6.85325,5.64625 C6.95125,5.74325 7.00025,5.87125 7.00025,5.99925 C7.00025,6.12725 6.95125,6.25525 6.85325,6.35325 C6.75625,6.45025 6.62825,6.49925 6.50025,6.49925 C6.37225,6.49925 6.24425,6.45025 6.14625,6.35325 L5.00025,5.20725 L3.85325,6.35325 C3.75625,6.45025 3.62825,6.49925 3.50025,6.49925 C3.37225,6.49925 3.24425,6.45025 3.14625,6.35325 C2.95125,6.15725 2.95125,5.84125 3.14625,5.64625 L4.29325,4.50025 L3.14625,3.35325 C2.95125,3.15825 2.95125,2.84125 3.14625,2.64625 C3.34225,2.45125 3.65825,2.45125 3.85325,2.64625 L5.00025,3.79225 L6.14625,2.64625 C6.34225,2.45125 6.65825,2.45125 6.85325,2.64625 C6.95125,2.74425 7.00025,2.87225 7.00025,3.00025 C7.00025,3.12725 6.95125,3.25525 6.85325,3.35325 L5.70725,4.50025 Z" id="Path"></path>
        <g id="remote-desktop-control_14-copy" transform="translate(0.000000, 1.000000)" fill-rule="nonzero">
            <path d="M1.21428571,0 C0.543571429,0 0,0.507333333 0,1.13333333 L0,5.53333333 C0,6.15933333 0.543571429,6.66666667 1.21428571,6.66666667 L3.92857143,6.66666667 L3.92857143,7 C3.92857143,7.184 3.76857143,7.33333333 3.57142857,7.33333333 C3.37428571,7.33333333 3.21428571,7.48266667 3.21428571,7.66666667 C3.21428571,7.85133333 3.37428571,8 3.57142857,8 L6.42857143,8 C6.62571429,8 6.78571429,7.85133333 6.78571429,7.66666667 C6.78571429,7.48266667 6.62571429,7.33333333 6.42857143,7.33333333 C6.23142857,7.33333333 6.07142857,7.184 6.07142857,7 L6.07142857,6.66666667 L8.78571429,6.66666667 C9.45642857,6.66666667 10,6.15933333 10,5.53333333 L10,1.13333333 C10,0.507333333 9.45642857,0 8.78571429,0 L1.21428571,0 Z M5.41857143,7.33333333 L4.58142857,7.33333333 C4.62142857,7.22933333 4.64285714,7.11666667 4.64285714,7 L4.64285714,6.66666667 L5.35714286,6.66666667 L5.35714286,7 C5.35714286,7.11666667 5.37857143,7.22933333 5.41857143,7.33333333 L5.41857143,7.33333333 Z M9.28571429,5.53333333 C9.28571429,5.79066667 9.06142857,6 8.78571429,6 L1.21428571,6 C0.938571429,6 0.714285714,5.79066667 0.714285714,5.53333333 L0.714285714,1.13333333 C0.714285714,0.876666667 0.938571429,0.666666667 1.21428571,0.666666667 L8.78571429,0.666666667 C9.06142857,0.666666667 9.28571429,0.876666667 9.28571429,1.13333333 L9.28571429,5.53333333 Z" id="fill"></path>
        </g>
    </g>
</svg>