<svg width="12" height="12" viewBox="0 0 12 12" xmlns="http://www.w3.org/2000/svg">
<path d="M7.498 6.44861C7.407 6.44861 7.316 6.42361 7.236 6.37461C7.09 6.28361 7 6.12361 7 5.95161V3.51161C7 3.30961 7.122 3.12661 7.309 3.05161C7.642 2.91561 7.642 2.91561 9.484 4.79061C9.596 4.90461 9.646 5.06361 9.62 5.22061C9.593 5.37861 9.493 5.51261 9.351 5.58361L9.043 5.73761L9.306 6.27761C9.425 6.52461 9.321 6.82161 9.074 6.94161C9.004 6.97561 8.931 6.99161 8.857 6.99161C8.672 6.99161 8.494 6.88761 8.408 6.71061L8.151 6.18061L7.721 6.39561C7.65 6.43061 7.574 6.44861 7.498 6.44861ZM10.5 0.999817L1.5 1.00002C0.67 1.00002 0 1.67002 0 2.50002V7.50002C0 8.33002 0.67 9.00002 1.5 9.00002H4.5V9.33335C4.5 9.63935 4.27878 10 3.99939 10C3.72 10 3.5 10.22 3.5 10.5C3.5 10.78 3.72 11 4 11C4.18667 11 5.52 11 8 11C8.28 11 8.5 10.78 8.5 10.5C8.5 10.22 8.28 10 8 10C7.72 10 7.5 9.63935 7.5 9.33335V9.00002H10.5C11.33 9.00002 12 8.33002 12 7.50002V2.50002C12 1.67002 11.33 0.999817 10.5 0.999817ZM6.59 10H5.41C5.47612 9.82646 5.5 9.69424 5.5 9.50002V9.00002H6.5V9.50002C6.5 9.69424 6.52388 9.82646 6.59 10ZM11 7.50002C11 7.78002 10.78 8.00002 10.5 8.00002H1.5C1.22 8.00002 1 7.80602 1 7.50002V2.50002C1 2.23002 1.23 2.00002 1.5 2.00002H10.5C10.78 2.00002 11 2.22002 11 2.50002V7.50002ZM7.996 4.69961V5.14761L8.293 4.99961C8.193 4.89861 8.094 4.79861 7.996 4.69961Z"/>
</svg>
