<?xml version="1.0" standalone="no"?>
<!DOCTYPE svg PUBLIC "-//W3C//DTD SVG 1.1//EN" "http://www.w3.org/Graphics/SVG/1.1/DTD/svg11.dtd" >
<svg xmlns="http://www.w3.org/2000/svg" id="remove_16">
<path unicode="&#xe9e7;" transform="scale(1,-1)" id="remove_16" data-tags="remove_16" d="M544 896c-264.66 0-480-215.34-480-480s215.34-480 480-480c264.66 0 480 215.34 480 480s-215.34 480-480 480zM544 0c-229.394 0-416 186.606-416 416s186.606 416 416 416c229.394 0 416-186.606 416-416s-186.606-416-416-416zM320 416c0 17.673 14.906 32 32.219 32h383.562c17.794 0 32.219-14.844 32.219-32 0-17.673-14.906-32-32.219-32h-383.562c-17.794 0-32.219 14.844-32.219 32z" />
</svg>
