<?xml version="1.0" encoding="UTF-8"?>
<svg width="138px" height="120px" viewBox="0 0 138 120" version="1.1" xmlns="http://www.w3.org/2000/svg" xmlns:xlink="http://www.w3.org/1999/xlink">
    <!-- Generator: Sketch 50.2 (55047) - http://www.bohemiancoding.com/sketch -->
    <title>Rich_Text_Illustration</title>
    <desc>Created with Sketch.</desc>
    <defs></defs>
    <g id="Rich_Text_Illustration" stroke="none" stroke-width="1" fill="none" fill-rule="evenodd">
        <g id="Iteration-Announcements-P1-1.1" transform="translate(-651.000000, -356.000000)">
            <g id="Dialog" transform="translate(208.000000, 128.000000)">
                <g id="window" transform="translate(212.000000, 34.000000)">
                    <g id="form" transform="translate(12.000000, 72.000000)">
                        <g id="illustration" transform="translate(219.000000, 122.000000)">
                            <path d="M65,49.5 C65,49.225 65.225,49 65.5,49 L75,49 L75,20 L120,20 C125.5,20 130,15.5 130,10 C130,4.5 125.5,0 120,0 L10,0 C4.5,0 0,4.5 0,10 C0,15.5 4.5,20 10,20 L55,20 L55,110 C55,115.5 59.5,120 65,120 C70.5,120 75,115.5 75,110 L75,50 L65.5,50 C65.225,50 65,49.775 65,49.5" id="fill" fill="#07C1E4"></path>
                            <path d="M137.5,49 L75,49 L75,50 L101,50 L101,119.5 C101,119.775 101.225,120 101.5,120 C101.775,120 102,119.775 102,119.5 L102,50 L137.5,50 C137.775,50 138,49.775 138,49.5 C138,49.225 137.775,49 137.5,49" id="fill" fill="#AFAFAF"></path>
                        </g>
                    </g>
                </g>
            </g>
        </g>
    </g>
</svg>