<svg xmlns="http://www.w3.org/2000/svg" viewBox="0 0 62.6 96.375" xmlns:v="https://vecta.io/nano"><path d="M48.425 85.949a9.27 9.27 0 0 0-8-8 9.25 9.25 0 0 0-18.351 0 9.27 9.27 0 0 0-8 8c-4.612.599-8.064 4.525-8.069 9.176a1.25 1.25 0 1 0 2.5 0 6.76 6.76 0 0 1 6.75-6.75 1.25 1.25 0 0 0 1.25-1.25 6.76 6.76 0 0 1 6.75-6.75 1.25 1.25 0 0 0 1.25-1.25 6.75 6.75 0 1 1 13.5 0 1.25 1.25 0 0 0 1.25 1.25 6.76 6.76 0 0 1 6.75 6.75 1.25 1.25 0 0 0 1.25 1.25 6.76 6.76 0 0 1 6.75 6.75 1.25 1.25 0 1 0 2.5 0c-.006-4.654-3.464-8.581-8.08-9.176zm8.501-37.015L44.433 36.641c-1.251-1.29-1.943-3.02-1.928-4.816v-.7a12.02 12.02 0 0 1 3.184-7.67c.143-.161.348-.254.564-.254a.75.75 0 0 1 .564.254c1.94 2.097 3.07 4.816 3.188 7.67v5a1.25 1.25 0 1 0 2.5 0v-5a14.51 14.51 0 0 0-3.816-9.33c-.618-.697-1.504-1.097-2.436-1.097a3.25 3.25 0 0 0-2.436 1.097 14.51 14.51 0 0 0-3.812 9.33v.7a9.35 9.35 0 0 0 2.672 6.591l12.489 12.293a16.85 16.85 0 0 1 4.933 11.816v2.5a.76.76 0 0 1-.75.75h-16a.76.76 0 0 1-.75-.75v-21a1.25 1.25 0 1 0-2.5 0v21c.002 1.794 1.456 3.248 3.25 3.25h16c1.794-.002 3.248-1.456 3.25-3.25v-2.5a19.37 19.37 0 0 0-5.673-13.591zM22.505 65.025v-21a1.25 1.25 0 1 0-2.5 0v21a.76.76 0 0 1-.75.75h-16a.76.76 0 0 1-.75-.75v-2.5a16.84 16.84 0 0 1 4.93-11.812l12.4-12.3a9.35 9.35 0 0 0 2.67-6.588v-.7a14.51 14.51 0 0 0-3.816-9.33c-.617-.697-1.504-1.097-2.435-1.097s-1.818.399-2.436 1.097a14.5 14.5 0 0 0-3.813 9.33v5a1.25 1.25 0 1 0 2.5 0v-5a12.02 12.02 0 0 1 3.184-7.67c.143-.161.349-.254.565-.254a.75.75 0 0 1 .564.254 12.03 12.03 0 0 1 3.187 7.67v.7c.014 1.796-.679 3.524-1.931 4.812l-12.4 12.3C2.069 52.543.032 57.426.005 62.525v2.5c.002 1.794 1.456 3.248 3.25 3.25h16c1.794-.002 3.248-1.456 3.25-3.25zm8.745-45.15a5.25 5.25 0 1 0 5.255 5.25c-.003-2.9-2.355-5.249-5.255-5.25zm0 8a2.75 2.75 0 1 1 1.948-.804 2.75 2.75 0 0 1-1.947.804zm-10-8.5a1.25 1.25 0 0 0 1.255-1.25c0-5.506 3.232-10.2 6.543-14.543A2.7 2.7 0 0 1 31.204 2.5h0c.849.001 1.647.403 2.155 1.083 3.308 4.342 6.546 9.036 6.546 14.542a1.25 1.25 0 1 0 2.5 0c0-6.812-4.418-12.6-7.057-16.057C34.37.765 32.835-.001 31.205 0h0c-1.629-.001-3.164.764-4.143 2.067-2.645 3.458-7.057 9.247-7.057 16.058a1.25 1.25 0 0 0 1.245 1.25z"/></svg>