<?xml version="1.0" encoding="UTF-8"?>
<svg width="360px" height="240px" viewBox="0 0 360 240" version="1.1" xmlns="http://www.w3.org/2000/svg" xmlns:xlink="http://www.w3.org/1999/xlink">
    <!-- Generator: Sketch 41.2 (35397) - http://www.bohemiancoding.com/sketch -->
    <title>sbpairing@1x</title>
    <desc>Created with Sketch.</desc>
    <defs></defs>
    <g id="sbpairing" stroke="none" stroke-width="1" fill="none" fill-rule="evenodd">
        <g id="sbpairing@1x">
            <g id="Illustration">
                <rect id="Bounds" x="0" y="0" width="360" height="240"></rect>
                <g transform="translate(46.000000, 0.000000)" fill="#444444">
                    <path d="M133.9996,152 C132.8956,152 131.9996,152.896 131.9996,154 C131.9996,155.104 132.8956,156 133.9996,156 C135.1036,156 135.9996,155.104 135.9996,154 C135.9996,152.896 135.1036,152 133.9996,152" id="Fill-10"></path>
                    <path d="M133.9996,144 C131.0356,144 128.2436,145.302 126.3386,147.572 C125.9836,147.995 126.0396,148.626 126.4626,148.98 C126.8836,149.335 127.5166,149.282 127.8716,148.857 C129.3946,147.042 131.6286,146 133.9996,146 C136.3706,146 138.6046,147.042 140.1276,148.857 C140.3256,149.094 140.6096,149.215 140.8946,149.215 C141.1216,149.215 141.3496,149.138 141.5366,148.98 C141.9596,148.626 142.0156,147.995 141.6606,147.572 C139.7556,145.302 136.9636,144 133.9996,144" id="Fill-12"></path>
                    <path d="M133.9996,136 C128.6666,136 123.6406,138.344 120.2106,142.43 C119.8556,142.853 119.9106,143.483 120.3336,143.838 C120.7566,144.192 121.3876,144.139 121.7426,143.715 C124.7916,140.083 129.2586,138 133.9996,138 C138.7406,138 143.2076,140.083 146.2566,143.715 C146.4546,143.951 146.7376,144.072 147.0226,144.072 C147.2496,144.072 147.4786,143.995 147.6656,143.838 C148.0886,143.483 148.1436,142.853 147.7886,142.43 C144.3586,138.344 139.3326,136 133.9996,136" id="Fill-14"></path>
                    <path d="M133.9996,128 C126.2936,128 119.0346,131.386 114.0826,137.288 C113.7276,137.711 113.7826,138.342 114.2066,138.696 C114.6286,139.052 115.2596,138.998 115.6146,138.573 C120.1866,133.125 126.8866,130 133.9996,130 C141.1126,130 147.8126,133.125 152.3846,138.573 C152.5826,138.81 152.8656,138.931 153.1506,138.931 C153.3776,138.931 153.6056,138.854 153.7926,138.696 C154.2166,138.342 154.2716,137.711 153.9166,137.288 C148.9646,131.386 141.7056,128 133.9996,128" id="Fill-16"></path>
                    <path d="M163.9996,183.667 C163.9996,186.891 162.9346,190.087 160.9996,192.667 L152.6006,203.867 C150.7366,206.352 149.2646,209.104 148.1706,212 L115.2406,212 C116.9176,210.533 117.9996,208.403 117.9996,206 C117.9996,203.597 116.9176,201.467 115.2406,200 L117.9996,200 C122.4176,200 125.9996,196.418 125.9996,192 C125.9996,189.597 124.9176,187.467 123.2406,186 L125.9996,186 C130.4176,186 133.9996,182.418 133.9996,178 C133.9996,173.582 130.4176,170 125.9996,170 L105.9996,170 C105.3046,170 104.6426,170.116 103.9996,170.283 L103.9996,170 L103.9996,118 C103.9996,115.794 105.7936,114 107.9996,114 L159.9996,114 C162.2056,114 163.9996,115.794 163.9996,118 L163.9996,183 L163.9996,183.667 Z M145.9996,223.667 L145.9996,226 L107.9996,226 C105.7936,226 103.9996,224.205 103.9996,222 L103.9996,214 L105.9996,214 L109.9996,214 L147.4816,214 C146.5216,217.126 145.9996,220.387 145.9996,223.667 L145.9996,223.667 Z M99.9996,206 C99.9996,202.691 102.6906,200 105.9996,200 L109.9996,200 C113.3086,200 115.9996,202.691 115.9996,206 C115.9996,209.309 113.3086,212 109.9996,212 L105.9996,212 C102.6906,212 99.9996,209.309 99.9996,206 L99.9996,206 Z M99.9996,192 C99.9996,188.691 102.6906,186 105.9996,186 L117.9996,186 C121.3086,186 123.9996,188.691 123.9996,192 C123.9996,195.309 121.3086,198 117.9996,198 L109.9996,198 L105.9996,198 C102.6906,198 99.9996,195.309 99.9996,192 L99.9996,192 Z M99.9996,178 C99.9996,174.691 102.6906,172 105.9996,172 L125.9996,172 C129.3086,172 131.9996,174.691 131.9996,178 C131.9996,181.309 129.3086,184 125.9996,184 L117.9996,184 L105.9996,184 C102.6906,184 99.9996,181.309 99.9996,178 L99.9996,178 Z M93.7566,158.242 C92.6236,157.109 91.9996,155.603 91.9996,154 C91.9996,152.397 92.6236,150.891 93.7566,149.758 C94.8906,148.624 96.3966,148 97.9996,148 C99.4966,148 100.8956,148.563 101.9996,149.558 L101.9996,166.485 L93.7566,158.242 Z M193.7396,238.327 L187.9006,231.904 C185.3906,229.143 183.9996,225.545 183.9996,221.813 L183.9996,162.998 C183.9996,161.309 182.6006,159.991 180.9116,160 C174.4586,160.033 168.8506,163.682 165.9996,169.017 L165.9996,170 L165.9996,118 C165.9996,114.687 163.3126,112 159.9996,112 L107.9996,112 C104.6866,112 101.9996,114.687 101.9996,118 L101.9996,147.11 C100.7676,146.382 99.3896,146 97.9996,146 C96.0756,146 94.1526,146.689 92.6306,148.068 C89.2096,151.171 89.3846,156.699 92.6506,159.965 L101.9996,169.313 L101.9996,171.109 C99.6186,172.495 97.9996,175.047 97.9996,178 C97.9996,181.035 99.7096,183.645 102.2016,185 C99.7096,186.355 97.9996,188.965 97.9996,192 C97.9996,195.035 99.7096,197.645 102.2016,199 C99.7096,200.355 97.9996,202.965 97.9996,206 C97.9996,208.953 99.6186,211.505 101.9996,212.891 L101.9996,222 C101.9996,225.313 104.6866,228 107.9996,228 L145.9996,228 C147.1036,228 147.9996,227.105 147.9996,226 L147.9996,223.667 C147.9996,216.96 150.1746,210.434 154.1986,205.067 L162.5996,193.866 C164.4736,191.368 165.5736,188.353 165.8706,185.25 L165.9996,185.25 L165.9996,183.667 L165.9996,177 C165.9996,168.719 172.7446,161.983 181.0306,162 C181.5676,162.001 181.9996,162.462 181.9996,163 L181.9996,221.814 C181.9996,226.044 183.5756,230.121 186.4206,233.25 L192.2596,239.673 C192.4566,239.89 192.7286,240 192.9996,240 C193.2396,240 193.4806,239.914 193.6726,239.74 C194.0806,239.368 194.1106,238.736 193.7396,238.327 L193.7396,238.327 Z" id="Fill-18"></path>
                    <path d="M225.3649,164.3164 C225.7799,164.1094 226.2449,164.0004 226.7079,164.0004 L253.9989,164.0004 C255.1019,164.0004 255.9989,164.8974 255.9989,166.0004 C255.9989,167.1024 255.1019,168.0004 253.9989,168.0004 L226.7079,168.0004 C226.2439,168.0004 225.7809,167.8904 225.3659,167.6824 L221.9999,166.0004 L225.3649,164.3164 Z M224.4699,169.4714 C225.1619,169.8174 225.9349,170.0004 226.7079,170.0004 L253.9989,170.0004 C256.2049,170.0004 257.9989,168.2064 257.9989,166.0004 C257.9989,163.7944 256.2049,162.0004 253.9989,162.0004 L226.7079,162.0004 C225.9359,162.0004 225.1629,162.1824 224.4709,162.5274 L221.1059,164.2114 C220.4239,164.5514 219.9999,165.2374 219.9999,165.9994 C219.9999,166.7614 220.4239,167.4474 221.1049,167.7884 L224.4699,169.4714 Z" id="Fill-1" fill-opacity="0.48"></path>
                    <path d="M12.0001,0 C5.3831,0 0.0001,5.383 0.0001,12 L0.0001,168 C0.0001,174.617 5.3831,180 12.0001,180 L98.9991,180 L98.9991,178 L12.0001,178 C6.4861,178 2.0001,173.514 2.0001,168 L2.0001,12 C2.0001,6.486 6.4861,2 12.0001,2 L255.9991,2 C261.5131,2 265.9991,6.486 265.9991,12 L265.9991,168 C265.9991,173.514 261.5131,178 255.9991,178 L183.9991,178 L183.9991,180 L255.9991,180 C262.6161,180 267.9991,174.617 267.9991,168 L267.9991,12 C267.9991,5.383 262.6161,0 255.9991,0 L12.0001,0 Z" id="Fill-3" fill-opacity="0.48"></path>
                    <path d="M137.9996,16 L129.9996,16 C128.8966,16 127.9996,15.103 127.9996,14 C127.9996,12.897 128.8966,12 129.9996,12 L137.9996,12 C139.1026,12 139.9996,12.897 139.9996,14 C139.9996,15.103 139.1026,16 137.9996,16 M137.9996,10 L129.9996,10 C127.7906,10 125.9996,11.791 125.9996,14 C125.9996,16.209 127.7906,18 129.9996,18 L137.9996,18 C140.2086,18 141.9996,16.209 141.9996,14 C141.9996,11.791 140.2086,10 137.9996,10" id="Fill-6" fill-opacity="0.48"></path>
                </g>
            </g>
        </g>
    </g>
</svg>