<?xml version="1.0" encoding="UTF-8"?>
<svg width="360px" height="240px" viewBox="0 0 360 240" version="1.1" xmlns="http://www.w3.org/2000/svg" xmlns:xlink="http://www.w3.org/1999/xlink">
    <!-- Generator: Sketch 41.2 (35397) - http://www.bohemiancoding.com/sketch -->
    <title>sbspaces@1x</title>
    <desc>Created with Sketch.</desc>
    <defs></defs>
    <g id="sbspaces" stroke="none" stroke-width="1" fill="none" fill-rule="evenodd">
        <g id="sbspaces@1x">
            <g id="Illustration">
                <rect id="Bounds" x="0" y="0" width="360" height="240"></rect>
                <g transform="translate(46.000000, 0.000000)" fill="#444444">
                    <path d="M225.3649,164.3164 C225.7799,164.1094 226.2449,164.0004 226.7079,164.0004 L253.9999,164.0004 C255.1019,164.0004 255.9999,164.8974 255.9999,166.0004 C255.9999,167.1024 255.1019,168.0004 253.9999,168.0004 L226.7079,168.0004 C226.2439,168.0004 225.7809,167.8904 225.3659,167.6824 L221.9999,166.0004 L225.3649,164.3164 Z M224.4699,169.4714 C225.1619,169.8174 225.9349,170.0004 226.7079,170.0004 L253.9999,170.0004 C256.2059,170.0004 257.9999,168.2064 257.9999,166.0004 C257.9999,163.7944 256.2059,162.0004 253.9999,162.0004 L226.7079,162.0004 C225.9359,162.0004 225.1629,162.1824 224.4709,162.5274 L221.1059,164.2114 C220.4239,164.5514 219.9999,165.2374 219.9999,165.9994 C219.9999,166.7614 220.4239,167.4474 221.1049,167.7884 L224.4699,169.4714 Z" id="Fill-1" fill-opacity="0.48"></path>
                    <path d="M255.9996,0 L11.9996,0 C5.3836,0 -0.0004,5.383 -0.0004,12 L-0.0004,168 C-0.0004,174.617 5.3836,180 11.9996,180 L64.9996,180 L64.9996,178 L11.9996,178 C6.4856,178 1.9996,173.514 1.9996,168 L1.9996,12 C1.9996,6.486 6.4856,2 11.9996,2 L255.9996,2 C261.5136,2 265.9996,6.486 265.9996,12 L265.9996,168 C265.9996,173.514 261.5136,178 255.9996,178 L202.9996,178 L201.9996,180 L255.9996,180 C262.6166,180 267.9996,174.617 267.9996,168 L267.9996,12 C267.9996,5.383 262.6166,0 255.9996,0" id="Fill-3" fill-opacity="0.48"></path>
                    <path d="M137.9996,16 L129.9996,16 C128.8966,16 127.9996,15.103 127.9996,14 C127.9996,12.897 128.8966,12 129.9996,12 L137.9996,12 C139.1026,12 139.9996,12.897 139.9996,14 C139.9996,15.103 139.1026,16 137.9996,16 M137.9996,10 L129.9996,10 C127.7906,10 125.9996,11.791 125.9996,14 C125.9996,16.209 127.7906,18 129.9996,18 L137.9996,18 C140.2086,18 141.9996,16.209 141.9996,14 C141.9996,11.791 140.2086,10 137.9996,10" id="Fill-6" fill-opacity="0.48"></path>
                    <polygon id="Fill-8" fill-opacity="0.48" points="148.9996 178 147.9996 180 173.9996 180 172.9996 178"></polygon>
                    <polygon id="Fill-10" fill-opacity="0.48" points="94.9996 178 93.9996 180 119.9996 180 118.9996 178"></polygon>
                    <path d="M79.9996,130 C68.9716,130 59.9996,121.028 59.9996,110 C59.9996,98.972 68.9716,90 79.9996,90 C91.0276,90 99.9996,98.972 99.9996,110 C99.9996,121.028 91.0276,130 79.9996,130 M79.9996,88 C67.8496,88 57.9996,97.85 57.9996,110 C57.9996,122.15 67.8496,132 79.9996,132 C92.1496,132 101.9996,122.15 101.9996,110 C101.9996,97.85 92.1496,88 79.9996,88" id="Fill-13"></path>
                    <path d="M133.9996,130 C122.9716,130 113.9996,121.028 113.9996,110 C113.9996,98.972 122.9716,90 133.9996,90 C145.0276,90 153.9996,98.972 153.9996,110 C153.9996,121.028 145.0276,130 133.9996,130 M133.9996,88 C121.8496,88 111.9996,97.85 111.9996,110 C111.9996,122.15 121.8496,132 133.9996,132 C146.1496,132 155.9996,122.15 155.9996,110 C155.9996,97.85 146.1496,88 133.9996,88" id="Fill-15"></path>
                    <path d="M187.9996,90 C199.0276,90 207.9996,98.972 207.9996,110 C207.9996,121.028 199.0276,130 187.9996,130 C176.9716,130 167.9996,121.028 167.9996,110 C167.9996,98.972 176.9716,90 187.9996,90 M187.9996,132 C200.1496,132 209.9996,122.15 209.9996,110 C209.9996,97.85 200.1496,88 187.9996,88 C175.8496,88 165.9996,97.85 165.9996,110 C165.9996,122.15 175.8496,132 187.9996,132" id="Fill-17"></path>
                    <path d="M79.9996,184 C68.9716,184 59.9996,175.028 59.9996,164 C59.9996,152.972 68.9716,144 79.9996,144 C91.0276,144 99.9996,152.972 99.9996,164 C99.9996,175.028 91.0276,184 79.9996,184 M79.9996,142 C67.8496,142 57.9996,151.85 57.9996,164 C57.9996,176.15 67.8496,186 79.9996,186 C92.1496,186 101.9996,176.15 101.9996,164 C101.9996,151.85 92.1496,142 79.9996,142" id="Fill-19"></path>
                    <path d="M187.9996,184 C176.9716,184 167.9996,175.028 167.9996,164 C167.9996,152.972 176.9716,144 187.9996,144 C199.0276,144 207.9996,152.972 207.9996,164 C207.9996,175.028 199.0276,184 187.9996,184 M187.9996,142 C175.8496,142 165.9996,151.85 165.9996,164 C165.9996,176.15 175.8496,186 187.9996,186 C200.1496,186 209.9996,176.15 209.9996,164 C209.9996,151.85 200.1496,142 187.9996,142" id="Fill-21"></path>
                    <path d="M79.9996,238 C68.9716,238 59.9996,229.028 59.9996,218 C59.9996,206.972 68.9716,198 79.9996,198 C91.0276,198 99.9996,206.972 99.9996,218 C99.9996,229.028 91.0276,238 79.9996,238 M79.9996,196 C67.8496,196 57.9996,205.85 57.9996,218 C57.9996,230.15 67.8496,240 79.9996,240 C92.1496,240 101.9996,230.15 101.9996,218 C101.9996,205.85 92.1496,196 79.9996,196" id="Fill-23"></path>
                    <path d="M141.9996,112.5864 L139.9996,110.5864 L139.9996,109.4144 L141.9996,107.4144 L141.9996,112.5864 Z M137.9996,108.5864 L137.9996,111.4144 L137.9996,115.0004 C137.9996,115.5514 137.5516,116.0004 136.9996,116.0004 L126.9996,116.0004 C126.4486,116.0004 125.9996,115.5514 125.9996,115.0004 L125.9996,105.0004 C125.9996,104.4484 126.4486,104.0004 126.9996,104.0004 L136.9996,104.0004 C137.5516,104.0004 137.9996,104.4484 137.9996,105.0004 L137.9996,108.5864 Z M143.3826,104.0764 C143.0116,103.9204 142.5796,104.0084 142.2926,104.2934 L139.9996,106.5864 L139.9996,105.0004 C139.9996,103.3434 138.6566,102.0004 136.9996,102.0004 L126.9996,102.0004 C125.3426,102.0004 123.9996,103.3434 123.9996,105.0004 L123.9996,115.0004 C123.9996,116.6564 125.3426,118.0004 126.9996,118.0004 L136.9996,118.0004 C138.6566,118.0004 139.9996,116.6564 139.9996,115.0004 L139.9996,113.4144 L142.2926,115.7074 C142.4836,115.8994 142.7396,116.0004 142.9996,116.0004 C143.1286,116.0004 143.2596,115.9764 143.3826,115.9244 C143.7556,115.7704 143.9996,115.4044 143.9996,115.0004 L143.9996,105.0004 C143.9996,104.5964 143.7556,104.2314 143.3826,104.0764 L143.3826,104.0764 Z" id="Fill-25"></path>
                    <path d="M79.9996,118 C78.6046,118 77.2266,117.629 76.0096,116.926 C75.8566,116.838 75.6836,116.792 75.5096,116.792 C75.4236,116.792 75.3356,116.804 75.2516,116.826 L72.4136,117.586 L73.1756,114.75 C73.2436,114.494 73.2066,114.221 73.0736,113.99 C72.3706,112.775 71.9996,111.396 71.9996,110 C71.9996,105.589 75.5876,102 79.9996,102 C84.4116,102 87.9996,105.589 87.9996,110 C87.9996,114.411 84.4116,118 79.9996,118 M79.9996,100 C74.4856,100 69.9996,104.486 69.9996,110 C69.9996,111.606 70.3926,113.194 71.1386,114.621 L70.0326,118.741 C69.9406,119.086 70.0406,119.454 70.2926,119.707 C70.4816,119.897 70.7376,120 70.9996,120 C71.0856,120 71.1736,119.989 71.2576,119.966 L75.3806,118.862 C76.8086,119.607 78.3956,120 79.9996,120 C85.5136,120 89.9996,115.514 89.9996,110 C89.9996,104.486 85.5136,100 79.9996,100" id="Fill-27"></path>
                    <path d="M87.5499,158.6123 L87.5499,158.6133 L86.2889,159.8753 L84.1239,157.7103 L85.3859,156.4473 C85.9639,155.8693 86.9719,155.8683 87.5499,156.4483 C87.8409,156.7373 87.9989,157.1213 87.9989,157.5303 C87.9989,157.9393 87.8409,158.3233 87.5499,158.6123 L87.5499,158.6123 Z M75.0729,171.0903 L72.3059,171.6913 L72.9069,168.9243 L82.7099,159.1243 L84.8749,161.2893 L75.0729,171.0903 Z M83.9719,155.0333 L71.2859,167.7173 C71.1519,167.8533 71.0579,168.0253 71.0169,168.2133 L70.0229,172.7873 C69.9499,173.1193 70.0519,173.4663 70.2919,173.7063 C70.4819,173.8953 70.7379,173.9993 70.9989,173.9993 C71.0699,173.9993 71.1419,173.9913 71.2119,173.9763 L75.7859,172.9823 C75.9739,172.9413 76.1459,172.8473 76.2799,172.7123 L88.9639,160.0283 C89.6319,159.3613 89.9989,158.4733 89.9989,157.5303 C89.9989,156.5873 89.6319,155.6993 88.9639,155.0333 C87.5889,153.6563 85.3469,153.6563 83.9719,155.0333 L83.9719,155.0333 Z" id="Fill-29"></path>
                    <path d="M180.6871,104.25 L195.3121,104.25 C195.6851,104.25 196.0001,104.538 196.0001,104.88 L196.0001,113.5 L180.0001,113.5 L180.0001,104.88 C180.0001,104.532 180.3081,104.25 180.6871,104.25 M195.3121,118 L180.6871,118 C180.3141,118 180.0001,117.712 180.0001,117.37 L180.0001,115.5 L196.0001,115.5 L196.0001,117.37 C196.0001,117.718 195.6911,118 195.3121,118 M180.6871,120 L195.3121,120 C196.7941,120 197.9991,118.82 197.9991,117.37 L197.9991,104.88 C197.9991,103.43 196.7941,102.25 195.3121,102.25 L193.5001,102.25 L193.5001,101 C193.5001,100.447 193.0521,100 192.5001,100 C191.9471,100 191.5001,100.447 191.5001,101 L191.5001,102.25 L184.5001,102.25 L184.5001,101 C184.5001,100.447 184.0521,100 183.5001,100 C182.9471,100 182.4991,100.447 182.4991,101 L182.4991,102.25 L180.6871,102.25 C179.2051,102.25 177.9991,103.43 177.9991,104.88 L177.9991,117.37 C177.9991,118.82 179.2051,120 180.6871,120" id="Fill-31"></path>
                    <path d="M195.4117,170.9414 L180.5877,170.9414 C180.2637,170.9414 179.9997,170.6764 179.9997,170.3524 L179.9997,162.8824 L195.9997,162.8824 L195.9997,170.3524 C195.9997,170.6764 195.7357,170.9414 195.4117,170.9414 M180.5877,157.0584 L184.6947,157.0584 C184.8507,157.0584 184.9997,157.1204 185.1107,157.2324 L185.7667,157.8874 C186.2497,158.3704 186.9177,158.6474 187.5997,158.6474 L195.4117,158.6474 C195.7357,158.6474 195.9997,158.9114 195.9997,159.2354 L195.9997,160.8824 L179.9997,160.8824 L179.9997,157.6474 C179.9997,157.3234 180.2637,157.0584 180.5877,157.0584 M195.4117,156.6474 L187.5997,156.6474 C187.4447,156.6474 187.2927,156.5854 187.1827,156.4734 L186.5227,155.8164 C186.0347,155.3284 185.3847,155.0584 184.6947,155.0584 L180.5877,155.0584 C179.1597,155.0584 177.9997,156.2194 177.9997,157.6474 L177.9997,170.3524 C177.9997,171.7804 179.1597,172.9414 180.5877,172.9414 L195.4117,172.9414 C196.8397,172.9414 197.9997,171.7804 197.9997,170.3524 L197.9997,159.2354 C197.9997,157.8084 196.8397,156.6474 195.4117,156.6474" id="Fill-33"></path>
                    <path d="M79.9996,226 C75.9266,226 72.5636,222.939 72.0686,219 L79.7036,219 L77.7046,220.999 C77.3136,221.39 77.3136,222.022 77.7046,222.413 C77.8996,222.608 78.1556,222.706 78.4116,222.706 C78.6676,222.706 78.9236,222.608 79.1186,222.413 L82.8226,218.708 C82.9156,218.616 82.9886,218.505 83.0396,218.382 C83.1406,218.138 83.1406,217.862 83.0396,217.618 C82.9886,217.495 82.9156,217.384 82.8226,217.292 L79.1186,213.587 C78.7286,213.196 78.0956,213.196 77.7046,213.587 C77.3136,213.978 77.3136,214.61 77.7046,215.001 L79.7036,217 L72.0686,217 C72.5636,213.061 75.9266,210 79.9996,210 C84.4116,210 87.9996,213.589 87.9996,218 C87.9996,222.411 84.4116,226 79.9996,226 M79.9996,208 C74.4856,208 69.9996,212.486 69.9996,218 C69.9996,223.514 74.4856,228 79.9996,228 C85.5136,228 89.9996,223.514 89.9996,218 C89.9996,212.486 85.5136,208 79.9996,208" id="Fill-35"></path>
                    <path d="M133.9996,184 C122.9716,184 113.9996,175.028 113.9996,164 C113.9996,152.972 122.9716,144 133.9996,144 C145.0276,144 153.9996,152.972 153.9996,164 C153.9996,175.028 145.0276,184 133.9996,184 M133.9996,142 C121.8496,142 111.9996,151.85 111.9996,164 C111.9996,176.15 121.8496,186 133.9996,186 C146.1496,186 155.9996,176.15 155.9996,164 C155.9996,151.85 146.1496,142 133.9996,142" id="Fill-37"></path>
                    <path d="M128.3317,169.6484 C129.0337,168.4394 130.3417,167.6484 131.7917,167.6484 L135.9957,167.6484 C137.4457,167.6484 138.7557,168.4394 139.4577,169.6484 L128.3317,169.6484 Z M133.8937,157.6484 C136.0997,157.6484 137.8917,159.4424 137.8917,161.6464 C137.8917,163.8494 136.0997,165.6434 133.8937,165.6434 C131.6897,165.6434 129.8957,163.8494 129.8957,161.6464 C129.8957,159.4424 131.6897,157.6484 133.8937,157.6484 L133.8937,157.6484 Z M137.9997,166.0004 C139.1597,164.9064 139.8917,163.3664 139.8917,161.6464 C139.8917,158.3344 137.2077,155.6484 133.8937,155.6484 C130.5817,155.6484 127.8957,158.3344 127.8957,161.6464 C127.8957,163.3664 128.6297,164.9064 129.7877,166.0004 C127.8357,166.6984 126.3397,168.3774 125.9157,170.4424 C125.7877,171.0624 126.2737,171.6484 126.9077,171.6484 L140.8817,171.6484 C141.5157,171.6484 142.0017,171.0624 141.8737,170.4424 C141.4477,168.3774 139.9537,166.6984 137.9997,166.0004 L137.9997,166.0004 Z" id="Fill-39"></path>
                </g>
            </g>
        </g>
    </g>
</svg>