<?xml version="1.0" encoding="UTF-8"?>
<svg width="360px" height="240px" viewBox="0 0 360 240" version="1.1" xmlns="http://www.w3.org/2000/svg" xmlns:xlink="http://www.w3.org/1999/xlink">
    <!-- Generator: Sketch 41.2 (35397) - http://www.bohemiancoding.com/sketch -->
    <title>sbvideocalls@1x</title>
    <desc>Created with Sketch.</desc>
    <defs></defs>
    <g id="sbvideocalls" stroke="none" stroke-width="1" fill="none" fill-rule="evenodd">
        <g id="sbvideocalls@1x">
            <g id="Illustration">
                <rect id="Bounds" x="0" y="0" width="360" height="240"></rect>
                <g transform="translate(46.000000, 0.000000)" fill="#444444">
                    <path d="M225.3649,164.3164 C225.7799,164.1094 226.2449,164.0004 226.7079,164.0004 L253.9989,164.0004 C255.1019,164.0004 255.9989,164.8974 255.9989,166.0004 C255.9989,167.1024 255.1019,168.0004 253.9989,168.0004 L226.7079,168.0004 C226.2439,168.0004 225.7809,167.8904 225.3659,167.6824 L221.9999,166.0004 L225.3649,164.3164 Z M224.4699,169.4714 C225.1619,169.8174 225.9349,170.0004 226.7079,170.0004 L253.9989,170.0004 C256.2049,170.0004 257.9989,168.2064 257.9989,166.0004 C257.9989,163.7944 256.2049,162.0004 253.9989,162.0004 L226.7079,162.0004 C225.9359,162.0004 225.1629,162.1824 224.4709,162.5274 L221.1059,164.2114 C220.4239,164.5514 219.9999,165.2374 219.9999,165.9994 C219.9999,166.7614 220.4239,167.4474 221.1049,167.7884 L224.4699,169.4714 Z" id="Fill-1" fill-opacity="0.48"></path>
                    <path d="M255.9991,0 L12.0001,0 C5.3831,0 0.0001,5.383 0.0001,12 L0.0001,168 C0.0001,174.617 5.3831,180 12.0001,180 L63.9991,180 L63.9991,178 L12.0001,178 C6.4861,178 2.0001,173.514 2.0001,168 L2.0001,12 C2.0001,6.486 6.4861,2 12.0001,2 L255.9991,2 C261.5131,2 265.9991,6.486 265.9991,12 L265.9991,168 C265.9991,173.514 261.5131,178 255.9991,178 L203.9991,178 L203.9991,180 L255.9991,180 C262.6161,180 267.9991,174.617 267.9991,168 L267.9991,12 C267.9991,5.383 262.6161,0 255.9991,0" id="Fill-3" fill-opacity="0.48"></path>
                    <path d="M137.9996,16 L129.9996,16 C128.8966,16 127.9996,15.103 127.9996,14 C127.9996,12.897 128.8966,12 129.9996,12 L137.9996,12 C139.1026,12 139.9996,12.897 139.9996,14 C139.9996,15.103 139.1026,16 137.9996,16 M137.9996,10 L129.9996,10 C127.7906,10 125.9996,11.791 125.9996,14 C125.9996,16.209 127.7906,18 129.9996,18 L137.9996,18 C140.2086,18 141.9996,16.209 141.9996,14 C141.9996,11.791 140.2086,10 137.9996,10" id="Fill-6" fill-opacity="0.48"></path>
                    <path d="M133.9996,238 C95.4016,238 63.9996,206.598 63.9996,168 C63.9996,129.402 95.4016,98 133.9996,98 C172.5976,98 203.9996,129.402 203.9996,168 C203.9996,206.598 172.5976,238 133.9996,238 M133.9996,96 C94.2346,96 61.9996,128.235 61.9996,168 C61.9996,207.765 94.2346,240 133.9996,240 C173.7646,240 205.9996,207.765 205.9996,168 C205.9996,128.235 173.7646,96 133.9996,96" id="Fill-9"></path>
                    <path d="M158.0055,177.4502 C158.0055,177.7862 157.7655,177.9202 157.6635,177.9652 C157.5595,178.0062 157.2935,178.0782 157.0575,177.8432 L148.0015,168.7862 L148.0015,167.2242 L157.0575,158.1682 C157.2935,157.9322 157.5595,158.0042 157.6635,158.0472 C157.7655,158.0902 158.0055,158.2242 158.0055,158.5602 L158.0055,177.4502 Z M146.0015,180.0142 C146.0015,182.2132 144.2135,184.0002 142.0135,184.0002 L113.9895,184.0002 C111.7975,184.0002 110.0015,182.1992 110.0015,180.0142 L110.0015,155.9852 C110.0015,153.7872 111.7905,152.0002 113.9895,152.0002 L142.0135,152.0002 C144.2055,152.0002 146.0015,153.8002 146.0015,155.9852 L146.0015,180.0142 Z M158.4235,156.2002 C157.4655,155.8042 156.3715,156.0202 155.6395,156.7542 L147.9975,164.3962 L147.9975,155.9852 C147.9975,152.7062 145.3165,150.0002 142.0095,150.0002 L113.9855,150.0002 C110.6845,150.0002 107.9975,152.6792 107.9975,155.9852 L107.9975,180.0142 C107.9975,183.2942 110.6785,186.0002 113.9855,186.0002 L142.0095,186.0002 C145.3115,186.0002 147.9975,183.3202 147.9975,180.0142 L147.9975,171.6162 L155.6395,179.2562 C156.1275,179.7462 156.7795,180.0062 157.4435,180.0062 C157.7735,180.0062 158.1055,179.9422 158.4235,179.8122 C159.3815,179.4142 160.0015,178.4882 160.0015,177.4502 L160.0015,158.5602 C160.0015,157.5242 159.3815,156.5962 158.4235,156.2002 L158.4235,156.2002 Z" id="Fill-11"></path>
                </g>
            </g>
        </g>
    </g>
</svg>