<svg width="128" height="81" viewBox="0 0 128 81" fill="none" xmlns="http://www.w3.org/2000/svg">
<path d="M102.752 12.7907C102.903 13.1139 103.08 13.4242 103.282 13.7185C103.786 14.5098 104.477 15.1644 105.295 15.6239C106.15 16.1007 107.109 16.3596 108.087 16.3777C108.818 16.3843 109.545 16.2609 110.233 16.0132C110.088 15.6883 109.913 15.3776 109.711 15.0854C109.204 14.2969 108.513 13.6431 107.698 13.18C106.843 12.7045 105.884 12.4457 104.906 12.4262C104.171 12.4101 103.44 12.5338 102.752 12.7907" fill="#48E33D"/>
<path opacity="0.5" d="M26.8939 16.4937C27.4445 16.0234 27.9493 15.5019 28.4016 14.9363C29.6645 13.4913 30.5547 11.7593 30.9945 9.89127C31.4304 7.94321 31.3821 5.91799 30.8537 3.99296C30.4422 2.55724 29.7803 1.20549 28.8986 0C28.348 0.470359 27.8432 0.991829 27.391 1.55742C26.133 3.00545 25.251 4.741 24.8228 6.61075C24.3825 8.55558 24.4309 10.5792 24.9637 12.5008C25.3537 13.9447 26.0174 15.3002 26.9188 16.4937" fill="#48E33D"/>
<path opacity="0.47" d="M126.262 55.2967C126.093 54.5926 125.855 53.9071 125.55 53.2505C124.818 51.4773 123.663 49.9102 122.186 48.6859C120.838 47.5806 119.266 46.7802 117.578 46.3398C115.891 45.8994 114.128 45.8293 112.411 46.1344C112.586 46.8378 112.827 47.5229 113.132 48.1806C113.845 49.9486 114.983 51.5135 116.446 52.7369C117.992 53.9864 119.821 54.8395 121.772 55.2221C123.242 55.5022 124.751 55.5022 126.221 55.2221" fill="#48E33D"/>
<path d="M21.1861 18.0097C21.0974 17.5082 20.9672 17.015 20.7968 16.5351C20.383 15.255 19.6636 14.0949 18.7009 13.1552C17.686 12.1973 16.4514 11.5032 15.1056 11.1338C14.0951 10.8558 13.0426 10.7632 11.999 10.8605C12.085 11.3598 12.2152 11.8505 12.3884 12.3268C12.8022 13.6069 13.5216 14.7669 14.4843 15.7067C15.4935 16.6752 16.7253 17.3807 18.0713 17.7612C19.0828 18.0492 20.1394 18.1448 21.1861 18.0428" fill="#48E33D"/>
<g opacity="0.25">
<path opacity="0.25" d="M115.99 58.834C115.479 58.8538 114.972 58.9204 114.474 59.0328C113.153 59.2839 111.914 59.8525 110.862 60.6896C109.773 61.5721 108.919 62.7105 108.377 64.0033C107.972 64.9709 107.744 66.0036 107.706 67.0519C108.214 67.0366 108.719 66.97 109.213 66.853C110.535 66.6068 111.776 66.0377 112.825 65.1962C113.917 64.3159 114.771 63.1769 115.31 61.8826C115.724 60.9178 115.952 59.8834 115.981 58.834" fill="#48E33D"/>
</g>
<path opacity="0.25" d="M13.4072 63.15C13.6277 64.9838 14.3825 66.7123 15.5777 68.1205C16.5197 69.1558 17.7038 69.9414 19.0239 70.4069C20.0145 70.7485 21.058 70.9112 22.1056 70.8874C22.0569 70.3795 21.9598 69.8774 21.8156 69.388C21.485 68.0853 20.8425 66.8827 19.9434 65.8838C18.9989 64.8514 17.8156 64.0663 16.4972 63.5974C15.5065 63.2453 14.4579 63.0851 13.4072 63.1252" fill="#48E33D"/>
<path d="M2 54.7499C2.50951 54.7372 3.01688 54.679 3.51601 54.5759C4.84 54.3458 6.08809 53.7971 7.15272 52.9771C8.11874 52.224 8.91007 51.2704 9.47211 50.1821C10.0342 49.0938 10.3536 47.8965 10.4084 46.6729C9.90119 46.6853 9.39631 46.7463 8.90071 46.8551C7.59647 47.0758 6.36543 47.6103 5.31366 48.4125C4.19891 49.2878 3.31924 50.4265 2.75384 51.7262C2.32538 52.6856 2.08091 53.7169 2.03312 54.7665" fill="#48E33D"/>
<path d="M6.2417 80H121.159" stroke="#19B0DE" stroke-miterlimit="10" stroke-linecap="round"/>
<path opacity="0.25" d="M62.7724 75.6177C55.4702 75.619 48.3483 73.3493 42.3935 69.1229L35.2939 79.9834H90.2427L83.1846 69.1229C77.2212 73.3573 70.0862 75.6276 62.7724 75.6177V75.6177Z" fill="#19B0DE"/>
<path opacity="0.25" d="M62.7727 67.8886C78.2918 67.8886 90.8725 55.3042 90.8725 39.7805C90.8725 24.2568 78.2918 11.6724 62.7727 11.6724C47.2536 11.6724 34.6729 24.2568 34.6729 39.7805C34.6729 55.3042 47.2536 67.8886 62.7727 67.8886Z" stroke="#19AFDD" stroke-miterlimit="10"/>
<path d="M50.3959 44.1297L47.4468 43.9143L50.2882 42.6882" stroke="#FFAC38" stroke-linecap="round" stroke-linejoin="round"/>
<path d="M79.8711 44.7344L80.161 42.6882C80.1917 42.4963 80.2946 42.3234 80.4486 42.2048C80.6026 42.0862 80.7961 42.031 80.9894 42.0503V42.0503C81.1822 42.0791 81.3564 42.1815 81.4753 42.336C81.5943 42.4904 81.6488 42.6849 81.6273 42.8787L81.1386 46.2835" fill="#FFAC38"/>
<path d="M79.8711 44.7344L80.161 42.6882C80.1917 42.4963 80.2946 42.3234 80.4486 42.2048C80.6026 42.0862 80.7961 42.031 80.9894 42.0503V42.0503C81.1822 42.0791 81.3564 42.1815 81.4753 42.336C81.5943 42.4904 81.6488 42.6849 81.6273 42.8787L81.1386 46.2835" stroke="#FFAC38" stroke-linecap="round" stroke-linejoin="round"/>
<path d="M56.0952 40.3521C56.3934 38.4053 57.3958 37.0384 60.1462 37.3698L62.3746 37.7011C62.5451 37.7274 62.7086 37.787 62.856 37.8767C63.0033 37.9663 63.1314 38.0842 63.233 38.2236C63.3346 38.3629 63.4077 38.5209 63.448 38.6886C63.4884 38.8563 63.4952 39.0303 63.4681 39.2006L63.1616 41.2302C63.0395 42.1578 62.5693 43.0042 61.8463 43.598C61.1233 44.1918 60.2017 44.4884 59.2681 44.4279" stroke="#FFAC38" stroke-linecap="round" stroke-linejoin="round"/>
<path d="M48.0298 50.0074L42.6329 50.9814C41.6289 51.1626 40.9618 52.1234 41.143 53.1274L41.2872 53.9264C41.4684 54.9304 42.4292 55.5975 43.4333 55.4163L48.8302 54.4423C49.8343 54.2611 50.5013 53.3003 50.3201 52.2962L50.176 51.4973C49.9948 50.4932 49.0339 49.8262 48.0298 50.0074Z" stroke="#FFAC38" stroke-miterlimit="10"/>
<path d="M81.028 55.3676L73.9819 52.7583C73.0251 52.404 71.9623 52.8924 71.608 53.8492L71.3261 54.6105C70.9718 55.5673 71.4602 56.6302 72.4169 56.9845L79.4631 59.5937C80.4198 59.948 81.4827 59.4596 81.837 58.5028L82.1189 57.7415C82.4732 56.7847 81.9848 55.7219 81.028 55.3676Z" stroke="#FFAC38" stroke-miterlimit="10"/>
<path d="M80.5175 54.7583C81.1191 54.1493 81.5919 53.4254 81.9078 52.6298C82.2238 51.8343 82.3764 50.9832 82.3565 50.1274C82.0666 45.77 78.6535 41.3379 66.7575 42.2243C65.5517 42.376 64.3273 42.2485 63.1787 41.8516" stroke="#FFAC38" stroke-linecap="round" stroke-linejoin="round"/>
<path d="M48.6812 54.6919C50.4718 55.7192 52.3257 56.6323 54.2315 57.4257C65.1832 60.8304 72.1005 59.4056 73.3597 59.0328C74.1108 58.8641 74.8414 58.6141 75.5384 58.2872" stroke="#FFAC38" stroke-linecap="round" stroke-linejoin="round"/>
<path d="M43.4206 50.7156C41.7904 48.8903 40.8779 46.5355 40.8525 44.0883C40.9099 43.4284 41.1853 42.8065 41.6353 42.3205C42.0853 41.8345 42.6843 41.5121 43.3378 41.4042C44.1829 39.9441 45.4265 38.7549 46.923 37.9759C48.4194 37.1969 50.1067 36.8602 51.7876 37.0053C53.3979 37.1737 54.9467 37.7155 56.3107 38.5876" stroke="#FFAC38" stroke-linecap="round" stroke-linejoin="round"/>
<path d="M62.7724 73.6046C81.4484 73.6046 96.5883 58.4611 96.5883 39.7805C96.5883 21.0999 81.4484 5.9563 62.7724 5.9563C44.0964 5.9563 28.9565 21.0999 28.9565 39.7805C28.9565 58.4611 44.0964 73.6046 62.7724 73.6046Z" stroke="#19B0DE" stroke-miterlimit="10"/>
<path d="M44.0753 43.5746C44.1508 43.5006 44.204 43.4067 44.2287 43.3038C44.2533 43.201 44.2486 43.0932 44.2149 42.9929C44.1811 42.8927 44.1198 42.8039 44.038 42.7368C43.9562 42.6698 43.8572 42.6271 43.7523 42.6137L42.1617 42.4894C42.0506 42.4807 41.9393 42.5051 41.8421 42.5596C41.7449 42.6141 41.666 42.6962 41.6154 42.7955C41.5649 42.8948 41.545 43.0069 41.5582 43.1176C41.5713 43.2283 41.617 43.3325 41.6895 43.4172L42.4268 44.2456C42.4748 44.3073 42.5351 44.3583 42.6039 44.3955C42.6727 44.4326 42.7485 44.4549 42.8264 44.4612C42.9043 44.4674 42.9826 44.4574 43.0565 44.4317C43.1303 44.406 43.198 44.3652 43.2552 44.3119L44.0753 43.5746Z" fill="#FFAC38" stroke="#FFAC38" stroke-miterlimit="10"/>
<path d="M101.874 23.7175C102.754 26.0045 103.347 28.3921 103.638 30.8253" stroke="#19B0DE" stroke-linecap="round" stroke-linejoin="round"/>
<path d="M98.5684 22.8311C99.5047 24.9487 100.173 27.175 100.557 29.4584" stroke="#19B0DE" stroke-linecap="round" stroke-linejoin="round"/>
<path d="M27.59 58.8258C26.2183 56.7961 25.1051 54.6032 24.2764 52.2979" stroke="#19B0DE" stroke-linecap="round" stroke-linejoin="round"/>
<path d="M30.9946 58.9334C29.6076 57.0898 28.4555 55.0806 27.5649 52.9523" stroke="#19B0DE" stroke-linecap="round" stroke-linejoin="round"/>
<path opacity="0.5" d="M82.0582 52.1569L73.3598 50.8978C72.6184 50.7911 71.9496 50.3944 71.5006 49.7947C71.0516 49.195 70.8592 48.4416 70.9657 47.7001L71.7444 42.2325L75.2735 42.6633L78.0486 43.6906L80.741 45.6208L81.6771 47.5841L82.3233 50.0693L82.0582 52.1569Z" fill="#FFAC38"/>
</svg>
