<?xml version="1.0" encoding="utf-8"?>
<svg version="1.1" id="schedule_illustration" xmlns="http://www.w3.org/2000/svg" xmlns:xlink="http://www.w3.org/1999/xlink" x="0px" y="0px" viewBox="0 0 232.7 164.8" style="enable-background:new 0 0 232.7 164.8;" xml:space="preserve">
	<style type="text/css">
		.st0{fill:#00B3E6;}
		.st1{opacity:0.5;fill-rule:evenodd;clip-rule:evenodd;fill:#48E33D;enable-background:new    ;}
		.st2{fill:none;stroke:#16B1E0;stroke-linecap:round;}
		.st3{opacity:0.25;fill-rule:evenodd;clip-rule:evenodd;fill:#00B3E6;enable-background:new    ;}
		.st4{opacity:0.5;fill-rule:evenodd;clip-rule:evenodd;fill:#16B1E0;enable-background:new    ;}
		.st5{opacity:0.25;fill:#00B3E6;enable-background:new    ;}
		.st6{fill-rule:evenodd;clip-rule:evenodd;fill:#00B3E6;}
		.st7{fill:#FFAC38;stroke:#FFAC38;stroke-linejoin:round;}
		.st8{fill:none;stroke:#16B1E0;stroke-linecap:round;stroke-linejoin:round;}
		.st9{opacity:0.25;fill:#FFAC38;stroke:#FFAC38;stroke-linejoin:round;enable-background:new    ;}
		.st10{opacity:0.25;fill:none;stroke:#FFAC38;stroke-linecap:round;stroke-linejoin:round;enable-background:new    ;}
		.st11{fill:#FFAC38;stroke:#FFAC38;stroke-width:1.2;stroke-linejoin:round;}
		.st12{fill:none;stroke:#FFAC38;stroke-width:1.2;stroke-linecap:round;stroke-linejoin:round;}
		.st13{opacity:0.25;fill:#FFAC38;stroke:#FFAC38;stroke-width:1.2;stroke-linejoin:round;enable-background:new    ;}
		
		.st14{opacity:0.25;fill:none;stroke:#FFAC38;stroke-width:1.2;stroke-linecap:round;stroke-linejoin:round;enable-background:new    ;}
		.st15{opacity:0.5;fill:#FFAC38;stroke:#FFAC38;stroke-width:1.2;stroke-linejoin:round;enable-background:new    ;}
		
		.st16{opacity:0.5;fill:none;stroke:#FFAC38;stroke-width:1.2;stroke-linecap:round;stroke-linejoin:round;enable-background:new    ;}
		.st17{opacity:0.5;fill:#FFAC38;stroke:#FFAC38;stroke-linejoin:round;enable-background:new    ;}
		.st18{fill:none;stroke:#16B1E0;stroke-width:0.91;stroke-linecap:round;stroke-linejoin:round;}
	</style>
	<title>
		Artboard 1 copy 2
	</title>
	<g id="schedule_illustration">
		<path class="st0" d="M80.9,115.2l-4-12.4c-0.1-0.3-0.4-0.5-0.7-0.5c-0.3,0-0.6,0.2-0.7,0.6l-0.4,1.8c0,0.2-0.2,0.3-0.3,0.3
	c-0.2,0-0.3-0.1-0.4-0.3l-0.4-1.8c-0.1-0.4-0.5-0.6-0.9-0.5c-0.2,0.1-0.4,0.3-0.5,0.5l-3.5,10.9v-1c0-1.3-0.9-2.3-2.2-2.5
	c-0.7-0.1-1.3,0.1-1.8,0.6c-0.5,0.5-0.8,1.1-0.8,1.8v1.1c0,0.4,0.3,0.7,0.7,0.7c0.4,0,0.7-0.3,0.7-0.7c0,0,0,0,0,0v-1
	c0-0.5,0.3-1,0.8-1.1c0.6-0.1,1.1,0.3,1.2,0.8c0,0.1,0,0.1,0,0.2v2.6" />
		<path id="Rectangle" class="st1" d="M173.4,115.2c9,0,14.8-1.8,17.6-4.7c0,9.1-7.4,16.4-16.4,16.4H63.7c-6.5,0-11.7-11.7-11.7-11.7
	H173.4" />
		<line id="Line-6" class="st2" x1="4.4" y1="126.7" x2="228.4" y2="126.7" />
		<polygon id="Path-7" class="st3" points="135.9,106.7 140.2,109.5 138.6,111.2 131.7,109.5 " />
		<polyline id="Shape" class="st4" points="108.9,135.4 111.2,133.6 117,128.9 119.9,131.7 118.9,133 117.4,135.2 " />
		<ellipse transform="matrix(0.6947 -0.7193 0.7193 0.6947 -36.1609 135.2365)" class="st5" cx="141.2" cy="110.2" rx="1.3" ry="1" />
		<polygon class="st3" points="166.9,106.7 171.2,109.5 169.6,111.2 162.7,109.5 " />
		<polyline class="st4" points="139.9,135.4 142.2,133.6 148,128.9 150.9,131.7 149.9,133 148.4,135.2 " />
		<ellipse transform="matrix(0.6947 -0.7193 0.7193 0.6947 -26.6871 157.5362)" class="st5" cx="172.2" cy="110.2" rx="1.3" ry="1" />
		<polygon class="st3" points="104.9,106.7 109.2,109.5 107.6,111.2 100.7,109.5 " />
		<path class="st6" d="M149.6,104.1c0-0.9-0.7-1.6-1.6-1.6s-1.6,0.7-1.6,1.6c0,0.2,0,0.3,0.1,0.5c-1.9,0.3-3.9,0.5-5.9,0.4
	c-2-0.1-4-0.2-6-0.5c0-0.9-0.4-1.7-1.1-2.3c1.4,0.4,2.9-0.2,3.6-1.4l0.5-0.9c0.8-1.5,0.3-3.5-1.3-4.3c-1.5-0.8-3.3-0.3-4.2,1.1
	l-0.5,0.9c-0.6,1.1-0.6,2.5,0.2,3.5l-0.4-0.2c-1.6-0.8-6,1-9.5,8.2c-1,2.1-2.1,4.2-3.4,6.1h14.8c-0.3-2.1-0.3-4.2,0.1-6.3
	c2.4,0.1,4.8,0,7.1-0.2c2.8-0.3,5.6-1.4,7.9-3C149.1,105.4,149.6,104.7,149.6,104.1z" />
		<path class="st6" d="M180.6,104.1c0-0.9-0.7-1.6-1.6-1.6s-1.6,0.7-1.6,1.6c0,0.2,0,0.3,0.1,0.5c-1.9,0.3-3.9,0.5-5.9,0.4
	c-2-0.1-4-0.2-6-0.5c0-0.9-0.4-1.7-1.1-2.3c1.4,0.4,2.9-0.2,3.6-1.4l0.5-0.9c0.8-1.5,0.3-3.5-1.3-4.3c-1.5-0.8-3.3-0.3-4.2,1.1
	l-0.5,0.9c-0.6,1.1-0.6,2.5,0.2,3.5l-0.4-0.2c-1.6-0.8-6,1-9.5,8.2c-1,2.1-2.1,4.2-3.4,6.1h14.8c-0.3-2.1-0.3-4.2,0.1-6.3
	c2.4,0.1,4.8,0,7.1-0.2c2.8-0.3,5.6-1.4,7.9-3C180.1,105.4,180.6,104.7,180.6,104.1z" />
		<polyline class="st4" points="77.9,135.4 80.2,133.6 86,128.9 88.9,131.7 87.9,133 86.4,135.2 " />
		<path class="st6" d="M118.6,104.1c0-0.9-0.7-1.6-1.6-1.6s-1.6,0.7-1.6,1.6c0,0.2,0,0.3,0.1,0.5c-1.9,0.3-3.9,0.5-5.9,0.4
	c-2-0.1-3.9-0.2-5.9-0.5c0-0.9-0.4-1.7-1.1-2.3c1.3,0.3,2.7-0.3,3.4-1.5l0.5-0.9c0.8-1.5,0.3-3.5-1.3-4.3c-1.5-0.8-3.3-0.3-4.2,1.1
	l-0.5,0.9c-0.6,1.1-0.6,2.4,0.2,3.4l-0.3-0.1c-1.6-0.8-5.9,1-9.5,8.2c-1,2.1-2.1,4.2-3.4,6.1h14.8c-0.3-2.1-0.3-4.2,0.1-6.3
	c2.3,0.1,4.7,0,7-0.2c2.8-0.3,5.6-1.4,7.9-3C118.1,105.4,118.6,104.7,118.6,104.1z" />
		<ellipse transform="matrix(0.6947 -0.7193 0.7193 0.6947 -45.6245 112.9408)" class="st5" cx="110.2" cy="110.2" rx="1.3" ry="1" />
		<polyline id="Path" class="st7" points="128.3,160.6 128.4,159.8 122.9,157.7 128.6,156.1 128.9,150.3 132.1,155.2 137.8,153.7 134.1,158.3 135.6,160.6 " />
		<line class="st8" x1="117.3" y1="160.6" x2="142.6" y2="160.6" />
		<line class="st8" x1="105.5" y1="160.6" x2="113.1" y2="160.6" />
		<polygon class="st9" points="150.3,13.1 149.6,17.8 153.9,19.9 149.2,20.7 148.6,25.4 146.3,21.2 141.6,22 144.9,18.6 142.7,14.4 147,16.5 " />
		<path class="st10" d="M154.3,15.9l4.7-1.6 M162.4,13.1l12.2-4.2" />
		<line id="Line-11" class="st10" x1="152.4" y1="23.9" x2="167.9" y2="18.6" />
		<path class="st10" d="M145.4,11.6l12.9-4.4 M162.2,5.8l4.8-1.6" />
		<polygon class="st11" points="194.5,65.1 193.8,69.8 198.1,71.9 193.4,72.8 192.8,77.5 190.5,73.3 185.9,74.1 189.2,70.7 186.9,66.5 191.2,68.6 " />
		<path class="st12" d="M198.5,68l4.7-1.6 M206.6,65.2l12.2-4.2" />
		<line class="st12" x1="196.6" y1="76" x2="212.1" y2="70.6" />
		<path class="st12" d="M189.7,63.6l12.9-4.4 M206.4,57.9l4.8-1.6" />
		<polygon class="st11" points="78.3,42.4 77.6,47.1 81.9,49.2 77.2,50 76.6,54.7 74.3,50.5 69.7,51.4 72.9,47.9 70.7,43.7 75,45.8" />
		<path class="st12" d="M82.3,45.2l4.7-1.6 M90.4,42.4l12.2-4.2" />
		<line class="st12" x1="80.4" y1="53.2" x2="95.9" y2="47.9" />
		<path class="st12" d="M73.4,40.9l12.9-4.4 M90.2,35.1l4.8-1.6" />
		<polygon class="st13" points="24,84.1 23.3,88.8 27.6,90.9 22.9,91.7 22.2,96.4 20,92.2 15.3,93 18.6,89.6 16.4,85.4 20.7,87.5 " />
		<path class="st14" d="M28,86.9l4.7-1.6 M36.1,84.1l12.2-4.2" />
		<line class="st14" x1="26" y1="94.9" x2="41.6" y2="89.6" />
		<path class="st14" d="M19.1,82.6L32,78.2 M35.9,76.8l4.7-1.6" />
		<polygon class="st15" points="130.1,61.4 129.4,66.1 133.7,68.2 129,69 128.4,73.7 126.1,69.5 121.4,70.4 124.7,66.9 122.5,62.7 126.8,64.8" />
		<path class="st16" d="M134.1,64.2l4.7-1.6 M142.2,61.4l12.2-4.2" />
		<line class="st16" x1="132.1" y1="72.2" x2="147.7" y2="66.9" />
		<path class="st16" d="M125.2,59.9l12.8-4.4 M142,54.1l4.8-1.6" />
		<path class="st17" d="M177.6,149.1l-0.2-1.4l-5.8-0.9l5.2-2.7l-0.9-5.8l4.2,4.2l5.2-2.7l-2.7,5.2l3.9,3.9 M185.5,149l-4.5-0.7 l-0.4,0.9" />
		<polyline class="st9" points="195.1,149 190.7,148.4 194.7,146.3 194,141.9 197.1,145.1 201.1,143.1 199.1,147 201,148.9 " />
		<polyline class="st17" points="34.8,153 37.4,149.6 33.5,144 39.9,146.2 44.1,140.7 43.9,147.6 50.4,149.8 43.9,151.8 43.8,153.1" />
		<polyline class="st7" points="58,153.1 57.8,152.4 53,151.6 57.4,149.4 56.6,144.5 60.1,148 64.5,145.8 62.2,150.2 65.1,153 " />
		<line class="st8" x1="166.1" y1="149" x2="205.3" y2="149" />
		<line class="st8" x1="210.3" y1="149" x2="216.6" y2="149" />
		<line class="st8" x1="22.9" y1="153.1" x2="72.1" y2="153.1" />
		<line class="st8" x1="74.2" y1="135.1" x2="90.5" y2="135.1" />
		<line class="st8" x1="68.6" y1="135.1" x2="71.1" y2="135.1" />
		<line class="st8" x1="103.2" y1="135.1" x2="119.5" y2="135.1" />
		<line class="st8" x1="97.6" y1="135.1" x2="100.1" y2="135.1" />
		<line class="st8" x1="134.2" y1="135.1" x2="150.5" y2="135.1" />
		<line class="st8" x1="128.6" y1="135.1" x2="131.1" y2="135.1" />
		<line id="Line-13" class="st18" x1="152.9" y1="98.2" x2="115.7" y2="133" />
		<line class="st18" x1="183.9" y1="98.2" x2="146.7" y2="133" />
		<line class="st18" x1="121.9" y1="98.2" x2="84.7" y2="133" />
	</g>
</svg>
