<svg width="172" height="111" viewBox="0 0 172 111" fill="none" xmlns="http://www.w3.org/2000/svg">
<path d="M131.782 17.7175C132.36 17.7571 132.94 17.7493 133.517 17.6942C135.037 17.6012 136.511 17.1337 137.807 16.3336C139.156 15.4948 140.278 14.3365 141.074 12.961C141.658 11.9275 142.054 10.7985 142.244 9.62644C141.669 9.57602 141.09 9.57988 140.515 9.63794C138.996 9.73804 137.524 10.2049 136.225 10.9986C134.877 11.8391 133.756 12.9971 132.958 14.3713C132.358 15.4021 131.958 16.5376 131.782 17.7175Z" fill="#48E33D"/>
<path d="M136.951 52.8889L137.789 58.0352" stroke="#2EB4E7" stroke-miterlimit="10" stroke-linecap="round"/>
<path d="M148.603 64.9279L143.624 64.4146" stroke="#2EB4E7" stroke-miterlimit="10" stroke-linecap="round"/>
<path d="M145.654 55.9963L141.02 60.8704" stroke="#2EB4E7" stroke-miterlimit="10" stroke-linecap="round"/>
<path d="M140.596 73.5598L139.816 68.408" stroke="#2EB4E7" stroke-miterlimit="10" stroke-linecap="round"/>
<path d="M131.921 70.3476L136.615 65.5354" stroke="#2EB4E7" stroke-miterlimit="10" stroke-linecap="round"/>
<path opacity="0.5" d="M17.6765 104.689C18.5926 105.18 19.5532 105.583 20.5454 105.893C23.1362 106.828 25.9165 107.115 28.6437 106.729C31.4759 106.296 34.1587 105.175 36.4572 103.465C38.1624 102.166 39.6247 100.576 40.7768 98.768C39.8606 98.2771 38.9001 97.8741 37.908 97.5643C35.3156 96.6374 32.5349 96.3631 29.8115 96.7658C26.9813 97.1913 24.3006 98.3114 22.0091 100.026C20.2818 101.3 18.8154 102.895 17.6895 104.723" fill="#48E33D"/>
<path opacity="0.47" d="M142.919 105.164C143.935 105.385 144.97 105.505 146.009 105.52C148.757 105.682 151.503 105.167 154.007 104.023C156.278 102.97 158.294 101.438 159.916 99.5321C161.539 97.6263 162.73 95.392 163.407 92.9825C162.389 92.7694 161.353 92.6536 160.313 92.6366C157.583 92.4547 154.85 92.9487 152.356 94.0748C149.775 95.294 147.531 97.1245 145.819 99.4076C144.539 101.132 143.597 103.083 143.042 105.157" fill="#48E33D"/>
<path d="M142.672 105.607C142.329 104.961 141.934 104.345 141.49 103.764C140.361 102.198 138.867 100.93 137.138 100.071C135.33 99.2091 133.338 98.8048 131.337 98.8931C129.834 98.9584 128.355 99.2955 126.973 99.8881C127.31 100.532 127.704 101.145 128.151 101.72C129.28 103.286 130.773 104.554 132.502 105.413C134.308 106.292 136.301 106.713 138.307 106.64C139.816 106.588 141.301 106.253 142.686 105.652" fill="#48E33D"/>
<g opacity="0.35">
<path opacity="0.25" d="M153.766 99.6794C153.471 99.0081 153.116 98.3653 152.704 97.7589C151.675 96.1268 150.265 94.7696 148.594 93.8045C146.843 92.813 144.874 92.2704 142.863 92.2251C141.358 92.1923 139.859 92.431 138.438 92.9298C138.725 93.6004 139.08 94.2401 139.496 94.8393C140.519 96.476 141.931 97.8344 143.606 98.7937C145.355 99.7894 147.325 100.332 149.337 100.373C150.843 100.419 152.344 100.18 153.761 99.6684" fill="#48E33D"/>
</g>
<path opacity="0.25" d="M6.39417 91.5287C6.71064 94.1607 7.79394 96.6415 9.50932 98.6627C10.8614 100.149 12.5608 101.276 14.4555 101.944C15.8773 102.435 17.375 102.668 18.8786 102.634C18.8087 101.905 18.6693 101.184 18.4624 100.482C17.9879 98.6122 17.0657 96.8861 15.7753 95.4524C14.4196 93.9706 12.7213 92.8438 10.8291 92.1708C9.40717 91.6655 7.90209 91.4355 6.39417 91.493" fill="#48E33D"/>
<path d="M17.8992 87.3264C18.1071 88.0277 18.3774 88.709 18.7068 89.3622C19.5204 91.111 20.7472 92.6355 22.2814 93.8044C23.686 94.8616 25.3031 95.6019 27.0213 95.974C28.7395 96.3462 30.518 96.3415 32.2342 95.9602C32.0273 95.2619 31.7541 94.5851 31.4182 93.939C30.6249 92.2141 29.4242 90.7079 27.9195 89.5501C26.29 88.3324 24.3833 87.5389 22.371 87.2411C20.8815 87.0059 19.361 87.0525 17.8886 87.3785" fill="#48E33D"/>
<path d="M1 107.272H171" stroke="#19B0DE" stroke-miterlimit="10" stroke-linecap="round"/>
<path opacity="0.25" d="M82.1365 100.983C71.6559 100.985 61.4341 97.7268 52.8873 91.6609L42.6976 107.249H121.564L111.433 91.6609C102.874 97.7384 92.6338 100.997 82.1365 100.983Z" fill="#19B0DE"/>
<path d="M6.39417 15.0632L12.0691 17.3756" stroke="#2EB4E7" stroke-miterlimit="10" stroke-linecap="round"/>
<path d="M25.6075 10.7544L22.0425 15.4324" stroke="#2EB4E7" stroke-miterlimit="10" stroke-linecap="round"/>
<path d="M14.8434 8.23926L16.8921 15.8732" stroke="#2EB4E7" stroke-miterlimit="10" stroke-linecap="round"/>
<path d="M29.3585 24.0735L23.7137 21.6992" stroke="#2EB4E7" stroke-miterlimit="10" stroke-linecap="round"/>
<path d="M10.0906 28.1719L13.7157 23.5332" stroke="#2EB4E7" stroke-miterlimit="10" stroke-linecap="round"/>
<path d="M20.8219 30.8055L18.8718 23.1497" stroke="#2EB4E7" stroke-miterlimit="10" stroke-linecap="round"/>
<path opacity="0.25" d="M82.1368 89.8892C104.411 89.8892 122.467 71.8272 122.467 49.5467C122.467 27.2661 104.411 9.2041 82.1368 9.2041C59.8628 9.2041 41.8062 27.2661 41.8062 49.5467C41.8062 71.8272 59.8628 89.8892 82.1368 89.8892Z" stroke="#19AFDD" stroke-miterlimit="10"/>
<path d="M82.1365 98.0932C108.942 98.0932 130.671 76.3582 130.671 49.5466C130.671 22.7351 108.942 1 82.1365 1C55.3315 1 33.6018 22.7351 33.6018 49.5466C33.6018 76.3582 55.3315 98.0932 82.1365 98.0932Z" stroke="#19B0DE" stroke-miterlimit="10"/>
<path d="M106.527 45.6646L103.341 46.8132C101.852 47.3503 101.08 48.9931 101.617 50.4825C102.154 51.972 103.797 52.744 105.286 52.207L108.472 51.0584C109.961 50.5213 110.733 48.8785 110.196 47.3891C109.659 45.8996 108.016 45.1275 106.527 45.6646Z" fill="white" stroke="#FFAC38" stroke-miterlimit="10" stroke-linecap="round"/>
<path d="M90.4053 33.1442L91.124 29.3447C91.4183 27.789 90.3957 26.2893 88.84 25.995C87.2842 25.7007 85.7845 26.7234 85.4902 28.2791L84.7716 32.0786C84.4773 33.6343 85.4999 35.134 87.0556 35.4283C88.6114 35.7226 90.1111 34.7 90.4053 33.1442Z" fill="white" stroke="#FFAC38" stroke-miterlimit="10" stroke-linecap="round"/>
<path d="M75.5383 75.5345C76.8569 77.6567 77.2952 80.2527 74.35 82.1965C72.0416 83.998 70.0028 83.617 68.245 80.9608C67.5959 79.9621 67.3503 78.7542 67.5576 77.5813C67.765 76.4083 68.41 75.3579 69.3622 74.6423" fill="white"/>
<path d="M75.5383 75.5345C76.8569 77.6567 77.2952 80.2527 74.35 82.1965C72.0416 83.998 70.0028 83.617 68.245 80.9608C67.5959 79.9621 67.3503 78.7542 67.5576 77.5813C67.765 76.4083 68.41 75.3579 69.3622 74.6423" stroke="#FFAC38" stroke-miterlimit="10" stroke-linecap="round"/>
<path d="M60.346 59.5867C57.9716 57.8346 55.5499 57.8245 53.5159 60.7082C51.6437 62.9597 51.9614 65.0094 54.5619 66.8484C55.5401 67.5282 56.7398 67.8111 57.9186 67.6401C59.0974 67.4691 60.1673 66.857 60.912 65.9274" fill="white"/>
<path d="M60.346 59.5867C57.9716 57.8346 55.5499 57.8245 53.5159 60.7082C51.6437 62.9597 51.9614 65.0094 54.5619 66.8484C55.5401 67.5282 56.7398 67.8111 57.9186 67.6401C59.0974 67.4691 60.1673 66.857 60.912 65.9274" stroke="#FFAC38" stroke-miterlimit="10" stroke-linecap="round"/>
<path d="M66.0667 49.6951C66.6162 49.2742 71.2169 39.464 77.6986 35.2132C83.8302 31.1921 92.0688 29.8601 99.1688 37.2297C117.032 55.6079 87.8372 68.5024 85.534 69.7077C77.9188 78.5635 69.1899 77.9258 63.3255 71.9802C56.4563 65.016 58.2816 55.6596 66.0667 49.6951Z" fill="white" stroke="#FFAC38" stroke-miterlimit="10" stroke-linecap="round"/>
<path opacity="0.5" d="M72.5745 62.3813C74.4987 62.7117 74.0289 63.937 74.0289 63.937C74.0289 63.937 79.5728 73.7712 76.2299 75.5916C76.2299 75.5916 70.2076 77.8595 63.7237 71.7398C62.3039 70.508 61.186 68.9663 60.4566 67.2339C59.7271 65.5015 59.4055 63.6246 59.5166 61.7482C59.6034 60.6404 59.797 59.5436 60.0947 58.473C60.9556 57.3561 69.1807 58.7695 72.5745 62.3813Z" fill="#FFAC38"/>
<path opacity="0.5" d="M82.3852 33.3538C83.942 32.6326 85.6581 32.3239 87.3686 32.4573C88.4137 32.4341 89.4575 32.5449 90.4745 32.7869C92.6882 33.2963 86.3924 36.2054 82.3409 36.9979C80.4719 37.4835 78.5085 37.4723 76.6452 36.9655C76.2735 36.8719 76.9494 36.5518 77.3873 36.1666C78.9185 35.0074 80.5998 34.0611 82.3852 33.3538Z" fill="#FFAC38"/>
<path d="M89.4111 65.5029L89.5944 74.7962C89.6089 75.6322 89.292 76.44 88.7128 77.043C88.1337 77.6461 87.3394 77.9954 86.5035 78.0147H86.503C85.667 78.0292 84.8594 77.7122 84.2564 77.1331C83.6533 76.554 83.304 75.7598 83.2846 74.924L83.079 70.0966" fill="white"/>
<path d="M89.4111 65.5029L89.5944 74.7962C89.6089 75.6322 89.292 76.44 88.7128 77.043C88.1337 77.6461 87.3394 77.9954 86.5035 78.0147H86.503C85.667 78.0292 84.8594 77.7122 84.2564 77.1331C83.6533 76.554 83.304 75.7598 83.2846 74.924L83.079 70.0966" stroke="#FFAC38" stroke-miterlimit="10" stroke-linecap="round"/>
<path d="M70.3802 45.5986L61.4101 45.6328C60.5741 45.6226 59.7679 45.9436 59.1678 46.5258C58.5677 47.108 58.2224 47.904 58.2073 48.74V48.7405C58.1971 49.5765 58.5181 50.3826 59.1003 50.9826C59.6824 51.5827 60.4784 51.9281 61.3143 51.9432L65.9251 52.0971" fill="white"/>
<path d="M70.3802 45.5986L61.4101 45.6328C60.5741 45.6226 59.7679 45.9436 59.1678 46.5258C58.5677 47.108 58.2224 47.904 58.2073 48.74V48.7405C58.1971 49.5765 58.5181 50.3826 59.1003 50.9826C59.6824 51.5827 60.4784 51.9281 61.3143 51.9432L65.9251 52.0971" stroke="#FFAC38" stroke-miterlimit="10" stroke-linecap="round"/>
<path d="M71.1552 61.3262C70.43 61.163 70.255 61.9599 70.8774 62.5889L72.8581 64.5904C73.4805 65.2194 74.2791 65.0527 74.1235 64.3258L73.7737 62.6918C73.71 62.4538 73.5853 62.2365 73.412 62.0614C73.2387 61.8863 73.0227 61.7593 72.7854 61.6931L71.1552 61.3262Z" fill="#FFAC38" stroke="#FFAC38" stroke-miterlimit="10"/>
<path d="M72.3885 71.5602C73.1584 70.8815 73.2968 69.7805 72.6978 69.101C72.0987 68.4215 70.989 68.4208 70.2192 69.0995C69.4494 69.7782 69.3109 70.8792 69.91 71.5587C70.509 72.2382 71.6187 72.2388 72.3885 71.5602Z" fill="#FFAC38"/>
<path d="M65.9556 65.1032C66.6489 64.492 66.7769 63.5042 66.2416 62.897C65.7063 62.2898 64.7102 62.293 64.0169 62.9043C63.3236 63.5155 63.1956 64.5032 63.7309 65.1105C64.2663 65.7177 65.2623 65.7144 65.9556 65.1032Z" fill="#FFAC38"/>
</svg>
