<?xml version="1.0" standalone="no"?>
<!DOCTYPE svg PUBLIC "-//W3C//DTD SVG 1.1//EN" "http://www.w3.org/Graphics/SVG/1.1/DTD/svg11.dtd" >
<svg xmlns="http://www.w3.org/2000/svg" id="screenshot_16">
<path unicode="&#xef1d;" transform="scale(1,-1)" id="screenshot_16" data-tags="screenshot_16" d="M896 832c70.72 0 128-57.28 128-128v-288c0-17.6-14.4-32-32-32s-32 14.4-32 32v288c0 35.264-28.736 64-64 64h-768c-35.264 0-64-28.736-64-64v-512c0-35.264 28.736-64 64-64h544c17.6 0 32-14.4 32-32s-14.4-32-32-32h-544c-70.72 0-128 57.28-128 128v512c0 70.72 57.28 128 128 128h768zM992 256c17.6 0 32-14.4 32-32s-14.4-32-32-32h-96v-96c0-17.6-14.4-32-32-32s-32 14.4-32 32v96h-96c-17.6 0-32 14.4-32 32s14.4 32 32 32h96v96c0 17.6 14.4 32 32 32s32-14.4 32-32v-96h96z" />
</svg>
