<svg width="10" height="10" viewBox="0 0 10 10" fill="none" xmlns="http://www.w3.org/2000/svg">
<path fill-rule="evenodd" clip-rule="evenodd" d="M3.50019 0.000399964H1.50037C0.673439 0.000399964 0.000499955 0.673339 0.000499955 1.50027V3.50009C0.000499955 3.77606 0.22448 4.00004 0.500455 4.00004C0.77643 4.00004 1.00041 3.77606 1.00041 3.50009V1.50027C1.00041 1.22529 1.22439 1.00031 1.50037 1.00031H3.50019C3.77616 1.00031 4.00014 0.77633 4.00014 0.500355C4.00014 0.22438 3.77616 0.000399964 3.50019 0.000399964ZM9.49965 5.99986C9.22367 5.99986 8.99969 6.22384 8.99969 6.49981V8.49963C8.99969 8.77461 8.77571 8.99959 8.49973 8.99959H6.49992C6.22394 8.99959 5.99996 9.22357 5.99996 9.49955C5.99996 9.77552 6.22394 9.9995 6.49992 9.9995H8.49973C9.32666 9.9995 9.9996 9.32656 9.9996 8.49963V6.49981C9.9996 6.22384 9.77562 5.99986 9.49965 5.99986ZM3.85365 6.14635C3.65867 5.95136 3.3417 5.95136 3.14672 6.14635L0.99991 8.29215V6.50032C0.99991 6.22334 0.77693 6.00036 0.499955 6.00036C0.22398 6.00036 0 6.22334 0 6.50032V9.50004C0 9.56504 0.0139987 9.62903 0.0389965 9.69103C0.0899919 9.81302 0.186983 9.91101 0.309972 9.96C0.370967 9.986 0.435961 10 0.499955 10H3.49969C3.77666 10 3.99964 9.77602 3.99964 9.50004C3.99964 9.22307 3.77666 9.00009 3.49969 9.00009H1.70785L3.85365 6.85328C4.04864 6.6583 4.04864 6.34133 3.85365 6.14635ZM9.961 0.308972C9.91001 0.186983 9.81302 0.088992 9.69003 0.0389965C9.62903 0.0139987 9.56504 0 9.50004 0H6.50032C6.22334 0 6.00036 0.22398 6.00036 0.499955C6.00036 0.77693 6.22334 0.99991 6.50032 0.99991H8.29315L6.14635 3.14672C5.95136 3.3417 5.95136 3.65867 6.14635 3.85365C6.24434 3.95164 6.37233 3.99964 6.50032 3.99964C6.6283 3.99964 6.75529 3.95164 6.85328 3.85365L9.00009 1.70685V3.49969C9.00009 3.77666 9.22307 3.99964 9.50004 3.99964C9.77602 3.99964 10 3.77666 10 3.49969V0.499955C10 0.434961 9.986 0.370967 9.961 0.308972Z"/>
</svg>
