<?xml version="1.0" encoding="UTF-8"?>
<svg width="28" height="28" viewBox="0 0 28 28" fill="none" xmlns="http://www.w3.org/2000/svg">
   <title>search_everywhere</title>
   <g id="search_everywhere">
      <rect width="28" height="28" rx="14" fill="#07C1E4"/>
      <path fill-rule="evenodd" clip-rule="evenodd" d="M9 13C9 10.794 10.794 9 13 9C15.206 9 17 10.794 17 13C17 15.206 15.206 17 13 17C10.794 17 9 15.206 9 13ZM19.854 19.146L16.855 16.148C17.56 15.286 18 14.2 18 13C18 11.0211 16.8499 9.31043 15.1817 8.5C14.5224 8.17968 13.7821 8 13 8C10.239 8 8 10.239 8 13C8 15.761 10.239 18 13 18C14.2 18 15.286 17.56 16.148 16.855L19.146 19.854C19.244 19.951 19.372 20 19.5 20C19.628 20 19.756 19.951 19.854 19.854C20.049 19.658 20.049 19.342 19.854 19.146Z" fill="white"/>
      <rect x="14" y="7" width="8" height="8" fill="#07C1E4"/>
      <path fill-rule="evenodd" clip-rule="evenodd" d="M17 8C16.7239 8 16.5 8.22386 16.5 8.5V10.5H14.5C14.2239 10.5 14 10.7239 14 11C14 11.2761 14.2239 11.5 14.5 11.5H16.5V13.5C16.5 13.7761 16.7239 14 17 14C17.2761 14 17.5 13.7761 17.5 13.5V11.5H19.5C19.7761 11.5 20 11.2761 20 11C20 10.7239 19.7761 10.5 19.5 10.5H17.5V8.5C17.5 8.22386 17.2761 8 17 8Z" fill="white"/>
   </g>
</svg>
