<svg xmlns="http://www.w3.org/2000/svg" id="search_24">
<path unicode="&#xe9ec;" transform="scale(1,-1)" id="search_24" data-tags="search_24" d="M426.667 192c-188.203 0-341.333 153.131-341.333 341.333s153.131 341.333 341.333 341.333c188.203 0 341.333-153.131 341.333-341.333s-153.131-341.333-341.333-341.333zM975.104 15.104l-262.656 262.613c60.843 67.968 98.219 157.397 98.219 255.616 0 211.755-172.245 384-384 384-211.712 0-384-172.245-384-384s172.288-384 384-384c98.219 0 187.648 37.376 255.616 98.219l262.613-262.656c4.181-4.139 9.643-6.229 15.104-6.229s10.923 2.091 15.104 6.229c8.32 8.363 8.32 21.845 0 30.208z" />
</svg>
