<?xml version="1.0" encoding="UTF-8"?>
<svg width="180px" height="99px" viewBox="0 0 180 99" version="1.1" xmlns="http://www.w3.org/2000/svg" xmlns:xlink="http://www.w3.org/1999/xlink">
    <!-- Generator: Sketch 61 (89581) - https://sketch.com -->
    <title>search_illustration</title>
    <desc>Created with Sketch.</desc>
    <g id="search_illustration" stroke="none" stroke-width="1" fill="none" fill-rule="evenodd">
        <g id="Open-Search---Empty-State" transform="translate(-305.000000, -290.000000)">
            <g id="App" transform="translate(162.000000, 113.000000)">
                <g id="sidebar" transform="translate(72.000000, 0.000000)">
                    <g id="content" transform="translate(39.000000, 175.000000)">
                        <g id="illustration" transform="translate(30.000000, 0.000000)">
                            <rect id="bounds" x="0" y="0" width="185" height="103"></rect>
                            <g id="search-cat-illustration-med" transform="translate(2.000000, 2.000000)">
                                <line x1="147.71" y1="97.28" x2="167.02" y2="81.58" id="Path" stroke="#48E33D" stroke-linecap="round" stroke-linejoin="round"></line>
                                <line x1="154.72" y1="91.4" x2="150.78" y2="80.33" id="Path" stroke="#48E33D" stroke-linecap="round" stroke-linejoin="round"></line>
                                <path d="M166.35,79.68 C166.057312,79.4070958 165.792661,79.1055944 165.56,78.78 C164.906798,77.9477246 164.464254,76.9700097 164.27,75.93 C164.082952,74.8433442 164.165361,73.7273927 164.51,72.68 C164.771298,71.8953589 165.170934,71.1638234 165.69,70.52 C166.742397,71.5381576 167.466689,72.8474546 167.77,74.28 C167.962335,75.3657337 167.883326,76.4821747 167.54,77.53 C167.28524,78.3165044 166.881196,79.0464996 166.35,79.68 L166.35,79.68 Z" id="Path" fill="#48E33D" fill-rule="nonzero"></path>
                                <path d="M168.36,80.41 C168.473876,79.7792183 168.644571,79.1600292 168.87,78.56 C169.394572,76.9465621 170.308094,75.4869889 171.53,74.31 C172.815459,73.0987289 174.377423,72.2199091 176.08,71.75 C177.356891,71.4091717 178.684099,71.2974424 180,71.42 C179.889217,72.0536884 179.721882,72.6761769 179.5,73.28 C178.965206,74.8880912 178.049124,76.3428433 176.83,77.52 C175.551555,78.7355086 173.991686,79.615082 172.29,80.08 C171.012346,80.4358165 169.6791,80.5477686 168.36,80.41 Z" id="Path" fill="#48E33D" fill-rule="nonzero" opacity="0.5"></path>
                                <path d="M76.32,28.69 C74.543141,29.366509 72.5454855,29.1074146 71,28 C70.7117205,27.807152 70.4407055,27.5896709 70.19,27.35 C70.7189946,26.8755013 71.3331801,26.5056327 72,26.26 C72.8950646,25.9197251 73.8604534,25.806352 74.81,25.93 C75.5969381,26.0292277 76.3518888,26.302513 77.02,26.73 L76.32,28.69 Z" id="Path" fill="#48E33D" fill-rule="nonzero" opacity="0.25"></path>
                                <path d="M43,59.47 C42.4210144,59.5122113 41.8389765,59.4752031 41.27,59.36 C40.3363576,59.1531011 39.4676717,58.7204749 38.74,58.1 C37.7978674,57.2473877 37.1384789,56.1274738 36.85,54.89 C37.5670009,54.7865037 38.2973057,54.8238681 39,55 C39.9336424,55.2068989 40.8023283,55.6395251 41.53,56.26 C42.2232893,56.8638417 42.7616746,57.6251253 43.1,58.48 L43,59.47 Z" id="Path" fill="#48E33D" fill-rule="nonzero"></path>
                                <path d="M42.62,43.86 C42.7921137,44.0793388 42.98282,44.2834281 43.19,44.47 C43.7268922,44.9876627 44.3828028,45.3654123 45.1,45.57 C45.8430424,45.7802312 46.6269289,45.8008598 47.38,45.63 C47.9540903,45.5212104 48.5032444,45.3076505 49,45 C48.8299276,44.7727398 48.6354302,44.5648288 48.42,44.38 C47.8844921,43.8656749 47.2326759,43.4883076 46.52,43.28 C45.776152,43.0751258 44.9935939,43.0545321 44.24,43.22 C43.6631851,43.3247875 43.1126885,43.5422676 42.62,43.86 Z" id="Path" fill="#48E33D" fill-rule="nonzero" opacity="0.5"></path>
                                <path d="M105.13,93.66 C105.258564,93.9118239 105.41271,94.1497446 105.59,94.37 C106.038129,94.96187 106.620906,95.4383758 107.29,95.76 C107.989418,96.0877381 108.758579,96.2388233 109.53,96.2 C110.109296,96.167391 110.678165,96.0319459 111.21,95.8 C111.076867,95.5516987 110.919429,95.3172172 110.74,95.1 C110.303002,94.4989772 109.721837,94.0175383 109.05,93.7 C108.350582,93.3722619 107.581421,93.2211767 106.81,93.26 C106.230002,93.2877296 105.660262,93.4233819 105.13,93.66 L105.13,93.66 Z" id="Path" fill="#48E33D" fill-rule="nonzero" opacity="0.5"></path>
                                <path d="M52.75,63.84 C52.9457117,64.0421469 53.1563017,64.229338 53.38,64.4 C53.9593192,64.868967 54.6469322,65.1852689 55.38,65.32 C56.1398973,65.4623737 56.9232302,65.4142744 57.66,65.18 C58.2111888,65.0034488 58.7260741,64.7290691 59.18,64.37 C58.9958322,64.1598398 58.7877569,63.9719008 58.56,63.81 C57.9784067,63.3427342 57.2920977,63.0236005 56.56,62.88 C55.7997841,62.7429075 55.0177321,62.7909282 54.28,63.02 C53.7217128,63.1916798 53.2020894,63.4701707 52.75,63.84 L52.75,63.84 Z" id="Path" fill="#48E33D" fill-rule="nonzero" opacity="0.5"></path>
                                <path d="M80.59,0.46 C80.4629052,0.711142741 80.3559039,0.971958455 80.27,1.24 C80.0362843,1.94521454 79.9745687,2.69608845 80.09,3.43 C80.2195714,4.19313447 80.531779,4.91361368 81,5.53 C81.3570039,5.98442232 81.7900825,6.37351632 82.28,6.68 C82.4068684,6.42530782 82.513854,6.16118732 82.6,5.89 C82.8348042,5.18845737 82.8965577,4.44055416 82.78,3.71 C82.6543386,2.9457105 82.3417374,2.22432325 81.87,1.61 C81.5191146,1.14989163 81.0849183,0.759793469 80.59,0.46 L80.59,0.46 Z" id="Path" fill="#48E33D" fill-rule="nonzero"></path>
                                <path d="M135,89.1 C135.057449,89.3740763 135.141169,89.6419806 135.25,89.9 C135.501264,90.6004042 135.920113,91.2286779 136.47,91.73 C137.040124,92.2413237 137.726789,92.6052557 138.47,92.79 C139.032063,92.9304183 139.615451,92.9643362 140.19,92.89 C140.136972,92.6127305 140.056578,92.3414029 139.95,92.08 C139.700242,91.3817058 139.281039,90.7563364 138.73,90.26 C138.159985,89.7463989 137.473583,89.3791741 136.73,89.19 C136.164238,89.0507057 135.577162,89.0201643 135,89.1 Z" id="Path" fill="#48E33D" fill-rule="nonzero"></path>
                                <path d="M40.54,87.44 C40.6294046,87.7065795 40.7432206,87.9643392 40.88,88.21 C41.219499,88.8710991 41.7134721,89.4405404 42.32,89.87 C43.4478018,90.6441709 44.8555379,90.8921659 46.18,90.55 C45.8458936,89.5814441 45.2250848,88.7374231 44.4,88.13 C43.7658713,87.6848292 43.0299682,87.4062864 42.26,87.32 C41.6841469,87.2547379 41.1012121,87.2954078 40.54,87.44 L40.54,87.44 Z" id="Path" fill="#48E33D" fill-rule="nonzero"></path>
                                <path d="M81.82,11.8 C81.64351,11.7077424 81.4731561,11.604194 81.31,11.49 C80.5237633,10.9443301 79.8847723,10.2125824 79.45,9.36 C79.0370358,8.53876033 78.831059,7.62902953 78.85,6.71 C78.8472246,6.37496329 78.873995,6.04033428 78.93,5.71 C80.5740294,6.10700597 81.9622843,7.20299668 82.73,8.71 L81.82,11.8 Z" id="Path" fill="#48E33D" fill-rule="nonzero" opacity="0.25"></path>
                                <path d="M102,9.75 C102.362483,9.259951 102.639705,8.71226757 102.82,8.13 C103.115742,7.22000791 103.177644,6.25020819 103,5.31 C102.861301,4.60216691 102.597143,3.9248398 102.22,3.31 C101.94267,3.51963197 101.681898,3.75031428 101.44,4 C100.778175,4.64448127 100.283841,5.44090809 100,6.32 C99.8983066,6.64645572 99.8247054,6.98100692 99.78,7.32 C100.923106,7.63995322 101.784387,8.58270698 102,9.75 L102,9.75 Z" id="Path" fill="#48E33D" fill-rule="nonzero" opacity="0.5"></path>
                                <path d="M131.18,35 C130.363668,35.2584627 129.573509,35.5932761 128.82,36 C126.79238,37.0059124 125.041522,38.4924248 123.72,40.33 C122.356804,42.2529067 121.487909,44.4818122 121.19,46.82 C120.978334,48.571126 121.083339,50.3460461 121.5,52.06 C122.312987,51.8011733 123.099794,51.466362 123.85,51.06 C125.895587,50.060544 127.664139,48.5735868 129,46.73 C130.363196,44.8070933 131.232091,42.5781878 131.53,40.24 C131.750075,38.4870395 131.631254,36.7081199 131.18,35 Z" id="Path" fill="#48E33D" fill-rule="nonzero" opacity="0.25"></path>
                                <path d="M115.19,47.36 C115.680533,47.2772749 116.16252,47.1500838 116.63,46.98 C117.880293,46.5940622 119.016833,45.9073309 119.94,44.98 C120.882832,43.9944251 121.569558,42.7926552 121.94,41.48 C122.207104,40.5038958 122.301858,39.488674 122.22,38.48 C121.729228,38.5616151 121.24714,38.6888328 120.78,38.86 C119.532021,39.2510842 118.396647,39.9371111 117.47,40.86 C116.524428,41.8474262 115.837413,43.0531386 115.47,44.37 C115.188759,45.3400558 115.093752,46.3545942 115.19,47.36 Z" id="Path" fill="#48E33D" fill-rule="nonzero" opacity="0.5"></path>
                                <path d="M110.82,37.33 C111.54929,37.8124558 112.35353,38.1706469 113.2,38.39 C114.514164,38.7097405 115.885836,38.7097405 117.2,38.39 C118.200257,38.1432042 119.148451,37.7199033 120,37.14 C119.698272,36.7581323 119.363659,36.4034421 119,36.08 C118.033012,35.1876695 116.862266,34.5456475 115.59,34.21 C114.275789,33.890648 112.904211,33.890648 111.59,34.21 C111.060266,34.3392847 110.54447,34.5201483 110.05,34.75 L110.82,37.33 Z" id="Path" fill="#48E33D" fill-rule="nonzero" opacity="0.5"></path>
                                <path d="M109.85,32.92 C110.315968,33.0971591 110.798316,33.227795 111.29,33.31 C112.575208,33.5826399 113.907783,33.5345573 115.17,33.17 C116.485802,32.7809662 117.687076,32.0773631 118.67,31.12 C119.395775,30.394404 119.985154,29.5442078 120.41,28.61 C119.943482,28.4368613 119.461203,28.3095932 118.97,28.23 C117.684792,27.9573601 116.352217,28.0054427 115.09,28.37 C113.770407,28.7502393 112.567107,29.4550293 111.59,30.42 C110.855247,31.1342099 110.264542,31.9829234 109.85,32.92 L109.85,32.92 Z" id="Path" fill="#48E33D" fill-rule="nonzero" opacity="0.25"></path>
                                <path d="M88.06,13 C88.6839587,12.4957353 89.2269311,11.8988029 89.67,11.23 C91.0118729,9.20951631 91.402805,6.70316669 90.74,4.37 C90.2759554,4.5408547 89.8276079,4.75164496 89.4,5 C88.2375474,5.6158688 87.2449089,6.50889993 86.51,7.6 L86.35,7.86 C86.35,7.86 87.47,8.08 88.06,13 Z" id="Path" fill="#48E33D" fill-rule="nonzero" opacity="0.5"></path>
                                <path d="M115.59,19.05 C115.139993,19.2617836 114.71136,19.5162846 114.31,19.81 C113.218626,20.5433358 112.322708,21.5319358 111.699996,22.69 C111.04249,23.8954582 110.698615,25.246884 110.699996,26.62 C110.712062,27.6457427 110.90502,28.6613116 111.27,29.62 C111.720259,29.404765 112.148881,29.1469223 112.55,28.85 C113.654457,28.1326094 114.564722,27.153645 115.199996,26 C115.844777,24.7895767 116.187826,23.441391 116.199996,22.07 C116.196839,21.0330551 115.989565,20.0068766 115.59,19.05 L115.59,19.05 Z" id="Path" fill="#48E33D" fill-rule="nonzero"></path>
                                <path d="M77.38,25.23 C76.6608311,24.3669275 76.1173065,23.371598 75.78,22.3 C75.3988503,21.0419199 75.3335932,19.7093006 75.59,18.42 C75.6785412,17.9340774 75.8159041,17.4583328 76,17 C76.943649,17.4097558 77.8018795,17.9932168 78.53,18.72 C78.8226192,19.0131079 79.0933455,19.3272841 79.34,19.66 L77.38,25.23 Z" id="Path" fill="#48E33D" fill-rule="nonzero" opacity="0.5"></path>
                                <path d="M136.36,47 C135.884253,46.8506475 135.395388,46.7468475 134.9,46.69 C133.594379,46.4689674 132.254309,46.5754858 131,47 C129.708523,47.4569491 128.548225,48.2224717 127.62,49.23 C126.936352,49.9947082 126.388461,50.8706577 126,51.82 C127.740941,52.3473492 129.599059,52.3473492 131.34,51.82 C132.629153,51.3583912 133.788406,50.5935588 134.72,49.59 C135.428515,48.8404582 135.985404,47.9609808 136.36,47 L136.36,47 Z" id="Path" fill="#48E33D" fill-rule="nonzero" opacity="0.25"></path>
                                <path d="M103.93,15.85 L104.23,15.47 C105.021653,14.3518901 105.529575,13.0580616 105.71,11.7 C105.845041,10.6983043 105.787339,9.68002751 105.54,8.7 C105.066187,8.85003018 104.607508,9.04421569 104.17,9.28 C103.465396,9.63634999 102.812709,10.0871748 102.23,10.62 L103.93,15.85 Z" id="Path" fill="#48E33D" fill-rule="nonzero" opacity="0.25"></path>
                                <path d="M108.27,29.36 C108.332332,29.2806634 108.389133,29.1971329 108.44,29.11 C109.52073,27.5805738 110.207672,25.8082639 110.44,23.95 C110.687252,22.0164254 110.453685,20.0517149 109.76,18.23 C109.242799,16.8566244 108.469044,15.5941813 107.48,14.51 C106.991065,15.0225902 106.549281,15.578167 106.16,16.17 C105.610393,16.9508039 105.153962,17.7931892 104.8,18.68 L108.27,29.36 Z" id="Path" fill="#48E33D" fill-rule="nonzero" opacity="0.5"></path>
                                <path d="M70,48.61 C69.1526,48.4436974 68.3199236,48.2096117 67.51,47.91 C65.3136261,47.0641717 63.3593995,45.6903744 61.82,43.91 C60.3420662,42.1869637 59.3116687,40.1261688 58.82,37.91 C58.5986439,37.0822049 58.4579872,36.2349156 58.4,35.38 C60.1648825,35.3642696 61.916442,35.6867467 63.56,36.33 C65.7567062,37.1805386 67.7131193,38.55346 69.26,40.33 C70.1941121,41.4267132 70.9469399,42.6656721 71.49,44 L70,48.61 Z" id="Path" fill="#48E33D" fill-rule="nonzero" opacity="0.5"></path>
                                <path d="M72,42.75 C70.5079251,40.8410086 69.9268693,38.3742621 70.41,36 C70.6873912,34.7128476 71.278197,33.5140613 72.13,32.51 C72.428953,32.1196271 72.7637427,31.7580542 73.13,31.43 C73.7601788,32.2397763 74.2286922,33.163223 74.51,34.15 C74.51,34.25 74.57,34.36 74.59,34.46 L72,42.75 Z" id="Path" fill="#48E33D" fill-rule="nonzero"></path>
                                <path d="M59.87,48.38 C61.1370202,48.2519751 62.3739094,47.9140273 63.53,47.38 C62.2761944,45.1157105 60.375033,43.2772247 58.07,42.1 C56.3021611,41.274501 54.3583423,40.8967271 52.41,41 C50.9516629,41.0785173 49.5191168,41.4171807 48.18,42 C48.5150055,42.6214229 48.9066676,43.2105898 49.35,43.76 C50.1777842,44.8678563 51.1931068,45.8222596 52.35,46.58 C54.9925088,46.2389657 57.6682967,46.8794469 59.87,48.38 L59.87,48.38 Z" id="Path" fill="#48E33D" fill-rule="nonzero" opacity="0.25"></path>
                                <path d="M69.35,38.4 C69.5069749,37.7099668 69.6006963,37.0070561 69.63,36.3 C69.7825775,34.4304723 69.47352,32.5520893 68.73,30.83 C67.9482097,29.0416626 66.735389,27.4749594 65.2,26.27 C64.0412623,25.3810485 62.7344839,24.7039613 61.34,24.27 C61.183132,24.9634333 61.0894155,25.6696536 61.06,26.38 C60.9082572,28.246244 61.2173141,30.1211893 61.96,31.84 C62.7446735,33.6294214 63.9568486,35.1987246 65.49,36.41 C66.640048,37.3102128 67.9496204,37.985355 69.35,38.4 Z" id="Path" fill="#48E33D" fill-rule="nonzero" opacity="0.5"></path>
                                <path d="M60.74,49.1 C61.5478757,48.7188533 62.4126013,48.4722714 63.3,48.37 C64.6057958,48.2144225 65.9297484,48.3898033 67.15,48.88 C67.6246495,49.0362919 68.080713,49.2442032 68.51,49.5 C67.9395153,50.3542975 67.2135874,51.0937941 66.37,51.68 C65.534601,52.2626792 64.5989774,52.6864218 63.61,52.93 C62.9080898,51.4809195 61.9336797,50.1805743 60.74,49.1 L60.74,49.1 Z" id="Path" fill="#48E33D" fill-rule="nonzero" opacity="0.25"></path>
                                <path d="M60.08,63.64 C59.8066904,63.5278196 59.5396353,63.4009684 59.28,63.26 C58.0731807,62.6070698 57.0435169,61.6700757 56.28,60.53 C55.331619,58.9808975 54.8651942,57.1848138 54.94,55.37 C55.9565865,55.5030091 56.9417064,55.8144559 57.85,56.29 C58.7238023,56.7603122 59.5061847,57.3835085 60.16,58.13 L60.08,63.64 Z" id="Path" fill="#48E33D" fill-rule="nonzero" opacity="0.25"></path>
                                <path d="M58.79,40.88 C58.7096727,40.3889528 58.5824232,39.9067441 58.41,39.44 C58.0214649,38.1908734 57.3350906,37.0549239 56.41,36.13 C55.4203604,35.1874002 54.2154332,34.500832 52.9,34.13 C51.9074783,33.8593445 50.8746334,33.7679124 49.85,33.86 C49.9316151,34.3507717 50.0588328,34.8328601 50.23,35.3 C50.6218157,36.5447264 51.3078523,37.6766869 52.23,38.6 C53.2219955,39.544664 54.4306845,40.2314191 55.75,40.6 C56.7359651,40.8876089 57.7680879,40.9826728 58.79,40.88 L58.79,40.88 Z" id="Path" fill="#48E33D" fill-rule="nonzero" opacity="0.5"></path>
                                <path d="M149,28.64 C149.486308,28.5390551 149.961817,28.3917142 150.42,28.2 C151.667297,27.74417 152.783389,26.9886615 153.67,26 C154.574059,24.9733136 155.212691,23.740685 155.53,22.41 C155.763491,21.4106938 155.814309,20.3773947 155.68,19.36 C155.190038,19.4593394 154.711057,19.6067182 154.25,19.8 C153.002515,20.2554623 151.886339,21.0110274 151,22 C150.087514,23.022325 149.44474,24.2563141 149.13,25.59 C148.891292,26.5888971 148.847155,27.6244138 149,28.64 Z" id="Path" fill="#48E33D" fill-rule="nonzero" opacity="0.25"></path>
                                <path d="M115.24,27.56 C115.572496,27.5934171 115.907504,27.5934171 116.24,27.56 C117.156901,27.5135613 118.048951,27.2459465 118.84,26.78 C119.659466,26.2859938 120.345994,25.5994663 120.84,24.78 C121.200615,24.1621818 121.447839,23.4848538 121.57,22.78 C121.237261,22.7518442 120.902739,22.7518442 120.57,22.78 C119.651777,22.8186894 118.757887,23.0868564 117.97,23.56 C117.146419,24.0487292 116.458729,24.7364194 115.97,25.56 C115.597786,26.1723058 115.349737,26.8518901 115.24,27.56 L115.24,27.56 Z" id="Path" fill="#48E33D" fill-rule="nonzero"></path>
                                <path d="M127.68,63.61 C128.947633,63.5661125 130.173302,63.1447886 131.2,62.4 C131.952946,61.8053634 132.550084,61.0366335 132.94,60.16 C133.221882,59.5040534 133.384431,58.8030625 133.42,58.09 C133.083822,58.1009781 132.749231,58.141129 132.42,58.21 C131.514016,58.3664564 130.659551,58.7404992 129.93,59.3 C129.179975,59.8909995 128.586023,60.6566138 128.2,61.53 C127.890654,62.1820633 127.713901,62.8890752 127.68,63.61 Z" id="Path" fill="#48E33D" fill-rule="nonzero"></path>
                                <path d="M112.85,43.64 C113.215451,43.5591819 113.570917,43.4384576 113.91,43.28 C114.774106,42.8739331 115.525907,42.2628805 116.1,41.5 C116.52574,40.9214292 116.844126,40.2711092 117.04,39.58 C116.710986,39.5112229 116.376097,39.4743852 116.04,39.47 C115.122659,39.4182636 114.20646,39.5898365 113.37,39.97 C112.870656,40.2089858 112.406352,40.5151575 111.99,40.88 L112.85,43.64 Z" id="Path" fill="#48E33D" fill-rule="nonzero" opacity="0.25"></path>
                                <path d="M54.64,25 C54.6810903,25.3405285 54.7581883,25.6757374 54.87,26 C55.1157666,26.8827266 55.5721715,27.6925879 56.2,28.36 C56.8649109,29.0492181 57.6891127,29.5643442 58.6,29.86 C59.2814887,30.0762688 59.9956924,30.1710446 60.71,30.14 C60.6683872,29.8004711 60.5947252,29.4656441 60.49,29.14 C60.2435915,28.2553629 59.7834121,27.4448978 59.15,26.78 C58.4894881,26.0902309 57.6683536,25.5748745 56.76,25.28 C56.0774892,25.0530475 55.3580296,24.9580245 54.64,25 L54.64,25 Z" id="Path" fill="#48E33D" fill-rule="nonzero"></path>
                                <path d="M70.24,20.34 C70.2806382,20.6796947 70.3543206,21.0146144 70.46,21.34 C70.7064085,22.2246371 71.1665879,23.0351022 71.8,23.7 C72.4569504,24.3963798 73.2789888,24.915743 74.19,25.21 C74.8740431,25.4296355 75.5927414,25.5211678 76.31,25.48 C76.264663,25.1402277 76.1876613,24.8054377 76.08,24.48 C75.8327729,23.5949255 75.3766562,22.782146 74.75,22.11 C74.0810575,21.4257744 73.2581663,20.9114674 72.35,20.61 C71.6701596,20.386978 70.9540924,20.2953486 70.24,20.34 L70.24,20.34 Z" id="Path" fill="#48E33D" fill-rule="nonzero"></path>
                                <path d="M10,69.34 C9.84470656,68.8762378 9.647213,68.4276931 9.41,68 C8.80356736,66.8294052 7.92155838,65.8238463 6.84,65.07 C5.70812506,64.3026628 4.40817996,63.8190421 3.05,63.66 C2.04421331,63.5636756 1.02934876,63.6414819 0.05,63.89 C0.210995966,64.3611598 0.415197929,64.8164297 0.66,65.25 C1.26202532,66.4235972 2.1448904,67.4301321 3.23,68.18 C4.35495576,68.9446819 5.64860646,69.4250827 7,69.58 C8.00620236,69.6888249 9.02389638,69.6074094 10,69.34 Z" id="Path" fill="#48E33D" fill-rule="nonzero" opacity="0.5"></path>
                                <path d="M22.21,93.08 C22.5106118,93.4689719 22.845267,93.8303996 23.21,94.16 C24.1896376,95.0444304 25.370553,95.6760829 26.65,96 C27.9793408,96.3340054 29.3706592,96.3340054 30.7,96 C31.6967703,95.7520874 32.6414886,95.3288265 33.49,94.75 C33.1888465,94.3645641 32.8542108,94.0065039 32.49,93.68 C31.5294302,92.7798571 30.3615732,92.130666 29.09,91.79 C27.7597667,91.4632889 26.3702333,91.4632889 25.04,91.79 C24.0243591,92.0394217 23.0644573,92.476974 22.21,93.08 L22.21,93.08 Z" id="Path" fill="#48E33D" fill-rule="nonzero" opacity="0.25"></path>
                                <path d="M13.93,90.57 C14.4272173,90.5547939 14.9222845,90.4979281 15.41,90.4 C16.7164384,90.1820986 17.9492791,89.6463795 19,88.84 C20.079138,87.9929487 20.9341031,86.8941983 21.49,85.64 C21.8971191,84.6886771 22.1340492,83.6732622 22.19,82.64 C21.69271,82.654198 21.1975577,82.7110736 20.71,82.81 C19.413165,83.0355434 18.1910684,83.5745017 17.15,84.38 C16.0677372,85.2198225 15.2119297,86.3162185 14.66,87.57 C14.2241732,88.5131113 13.9762229,89.5320851 13.93,90.57 Z" id="Path" fill="#48E33D" fill-rule="nonzero" opacity="0.5"></path>
                                <path d="M114.39,48.44 L101.78,9.15 C101.445114,8.11541358 100.468352,7.42537087 99.3813312,7.4554374 C98.2943106,7.48550393 97.3571857,8.22848393 97.08,9.28 L95.2,18.34 C95.2,19.9968542 93.8568542,21.34 92.2,21.34 C90.5431458,21.34 89.2,19.9968542 89.2,18.34 L87.32,9.28 C87.0428143,8.22848393 86.1056894,7.48550393 85.0186688,7.4554374 C83.9316481,7.42537087 82.9548864,8.11541358 82.62,9.15 L69,51.78" id="Path" stroke="#FFAC38" stroke-linecap="round" stroke-linejoin="round"></path>
                                <path d="M67.06,57.72 L66.65,59 L65.58,62.33 C65.5140367,62.5441656 65.3005457,62.6771596 65.0792351,62.6419511 C64.8579244,62.6067426 64.6962452,62.4140624 64.7,62.19 L64.7,57.84 C64.7852724,52.1735448 60.6173071,47.3395644 55,46.59 C51.9411106,46.2639483 48.8875943,47.2516828 46.5991644,49.3074557 C44.3107344,51.3632286 43.0025185,54.2937835 42.9999054,57.37 L42.9999054,62.58 C42.9892848,63.8009226 43.8897456,64.8385965 45.1,65 C45.7522377,65.0678403 46.4027215,64.8564876 46.8905201,64.4182311 C47.3783187,63.9799745 47.6578655,63.3557528 47.66,62.7 L47.66,57.6 C47.5954838,54.5627008 49.6913161,51.9051856 52.66,51.26 C55.1492718,50.7864911 57.6769509,51.8703472 59.05,54 C59.7325151,55.0855691 60.0803089,56.3480606 60.05,57.63 L60.05,67.77" id="Path" stroke="#FFAC38" stroke-linecap="round" stroke-linejoin="round"></path>
                                <path d="M92.23,40.71 C92.23,42.2729658 90.9629658,43.54 89.4,43.54 C87.8370342,43.54 86.57,42.2729658 86.57,40.71" id="Path" stroke="#FFAC38" stroke-linecap="round" stroke-linejoin="round"></path>
                                <path d="M97.88,40.71 C97.88,42.2729658 96.6129658,43.54 95.05,43.54 C93.4870342,43.54 92.22,42.2729658 92.22,40.71" id="Path" stroke="#FFAC38" stroke-linecap="round" stroke-linejoin="round"></path>
                                <circle id="Oval" fill="#FFAC38" fill-rule="nonzero" cx="86.16" cy="30.67" r="1.39"></circle>
                                <circle id="Oval" fill="#FFAC38" fill-rule="nonzero" cx="99.21" cy="30.67" r="1.39"></circle>
                                <path d="M93.06,40.76 L94.72,39.09 C95.0468699,38.7518725 95.1417493,38.2519306 94.9614849,37.8175588 C94.7812206,37.3831869 94.3602344,37.0973292 93.89,37.09 L90.56,37.09 C90.0879527,37.0933999 89.6633565,37.3778046 89.4805597,37.8130351 C89.2977629,38.2482655 89.3919464,38.7505577 89.72,39.09 L91.39,40.76 C91.8553697,41.2108747 92.5946303,41.2108747 93.06,40.76 L93.06,40.76 Z" id="Path" fill="#FFAC38" fill-rule="nonzero"></path>
                                <line x1="107.32" y1="36.55" x2="103.36" y2="37.61" id="Path" stroke="#FFAC38" stroke-linecap="round" stroke-linejoin="round"></line>
                                <line x1="107.32" y1="42.06" x2="103.36" y2="40.99" id="Path" stroke="#FFAC38" stroke-linecap="round" stroke-linejoin="round"></line>
                                <line x1="77.13" y1="36.55" x2="81.09" y2="37.61" id="Path" stroke="#FFAC38" stroke-linecap="round" stroke-linejoin="round"></line>
                                <line x1="77.13" y1="42.06" x2="81.09" y2="40.99" id="Path" stroke="#FFAC38" stroke-linecap="round" stroke-linejoin="round"></line>
                                <line x1="10.84" y1="97.54" x2="169.02" y2="97.54" id="Path" stroke="#48E33D" stroke-linecap="round" stroke-linejoin="round"></line>
                                <path d="M79.41,82.8399988 C79.6680678,85.9555745 80.8521491,88.9227427 82.81,91.36 C84.3493995,93.1403744 86.3036261,94.5141717 88.5,95.36 C90.1512891,95.9941707 91.9013335,96.3326706 93.67,96.36 C93.6127679,95.5049965 93.472099,94.6576343 93.25,93.83 C92.7556105,91.6147976 91.7255282,89.554633 90.25,87.83 C88.7108784,86.0493184 86.7565689,84.6754628 84.56,83.83 C82.9219762,83.1752748 81.1740256,82.839261 79.41,82.8399988 L79.41,82.8399988 Z" id="Path" fill="#48E33D" fill-rule="nonzero" opacity="0.5"></path>
                                <path d="M104.7,82.87 C104.762904,83.7210449 104.90349,84.5645561 105.12,85.39 C105.614389,87.6052024 106.644472,89.665367 108.12,91.39 C109.659122,93.1706816 111.613431,94.5445372 113.81,95.39 C115.462725,96.0130393 117.213746,96.3347936 118.98,96.34 C118.922768,95.4849965 118.782099,94.6376343 118.56,93.81 C118.065611,91.5947976 117.035528,89.534633 115.56,87.81 C114.020601,86.0296256 112.066374,84.6558283 109.87,83.81 C108.223534,83.1657618 106.467864,82.8465492 104.7,82.87 L104.7,82.87 Z" id="Path" fill="#48E33D" fill-rule="nonzero"></path>
                                <path d="M103.64,79.1 C100.720251,80.2092557 98.1965305,82.1620936 96.39,84.71 C95.0956752,86.6817 94.305838,88.9413213 94.09,91.29 C93.9492434,93.0497766 94.1219211,94.8205687 94.6,96.52 C95.4031342,96.2274018 96.1766173,95.8590765 96.91,95.42 C98.9028062,94.3462261 100.599682,92.7970539 101.85,90.91 C103.144325,88.9383 103.934162,86.6786787 104.15,84.33 C104.311631,82.5701033 104.138583,80.7955164 103.64,79.1 L103.64,79.1 Z" id="Path" fill="#48E33D" fill-rule="nonzero"></path>
                                <path d="M77.09,65 C77.5713479,65.1320003 78.0631622,65.2223336 78.56,65.27 C79.8649353,65.4302542 81.1892708,65.2724318 82.42,64.81 C83.6997046,64.320258 84.8372776,63.5194891 85.73,62.48 C86.3995355,61.7009227 86.9214036,60.8062918 87.27,59.84 C86.7888668,59.7070622 86.2969702,59.6167138 85.8,59.57 C84.4950647,59.4097458 83.1707292,59.5675682 81.94,60.03 C79.6713851,60.9094088 77.8999221,62.7356593 77.09,65.03 L77.09,65 Z" id="Path" fill="#48E33D" fill-rule="nonzero" opacity="0.5"></path>
                                <path d="M52.36,77.54 C52.5537149,77.9967088 52.787986,78.4351304 53.06,78.85 C53.7412666,79.9785811 54.6889536,80.9228343 55.82,81.6 C57.0007738,82.2926856 58.3324766,82.6873913 59.7,82.75 C60.7181185,82.7813203 61.7337547,82.6323603 62.7,82.31 C62.5103493,81.8513595 62.2758787,81.4125644 62,81 C61.3187334,79.8714189 60.3710464,78.9271657 59.24,78.25 C58.0592262,77.5573144 56.7275234,77.1626087 55.36,77.1 C54.3410947,77.0540871 53.3228086,77.2034357 52.36,77.54 Z" id="Path" fill="#48E33D" fill-rule="nonzero"></path>
                                <path d="M108,71 C108.301891,71.384805 108.636469,71.7428033 109,72.07 C109.963907,72.9644778 111.136094,73.6038526 112.41,73.93 C113.723494,74.2552818 115.096506,74.2552818 116.41,73.93 C117.404596,73.6797294 118.346193,73.2529624 119.19,72.67 C118.891374,72.2824106 118.55653,71.9241279 118.19,71.6 C117.22055,70.7078456 116.045766,70.0689284 114.77,69.74 C113.45716,69.4093951 112.08284,69.4093951 110.77,69.74 C109.774554,69.9789013 108.834211,70.4066384 108,71 Z" id="Path" fill="#48E33D" fill-rule="nonzero" opacity="0.5"></path>
                                <path d="M65.72,54.21 C66.0173141,54.6017511 66.3522428,54.963474 66.72,55.29 C67.6755889,56.1959569 68.84003,56.8520284 70.11,57.2 C72.4714337,57.8315697 74.9911286,57.3927259 77,56 C76.694162,55.6402608 76.3597392,55.305838 76,55 C75.04188,54.0996531 73.8780532,53.4473608 72.61,53.1 C71.3022053,52.7516808 69.9291814,52.7276529 68.61,53.03 C67.5797791,53.2339303 66.5985381,53.6345754 65.72,54.21 Z" id="Path" fill="#48E33D" fill-rule="nonzero"></path>
                                <path d="M119.36,88.66 C119.726786,88.3361349 120.061653,87.9778267 120.36,87.59 C121.232158,86.6091393 121.847214,85.4271327 122.15,84.15 C122.463935,82.81567 122.443324,81.4244447 122.09,80.1 C121.815696,79.1095463 121.368852,78.175235 120.77,77.34 C119.42346,78.5384009 118.459988,80.1070869 118,81.85 C117.672096,83.1800887 117.672096,84.5699113 118,85.9 C118.273522,86.8981796 118.735121,87.834953 119.36,88.66 Z" id="Path" fill="#48E33D" fill-rule="nonzero"></path>
                                <path d="M101.25,61.11 C101.745015,61.1232701 102.240241,61.093155 102.73,61.02 C104.038351,60.8802942 105.292044,60.4200342 106.38,59.68 C107.506637,58.9158239 108.427203,57.8853392 109.06,56.68 C109.525754,55.7671884 109.823817,54.7781617 109.94,53.76 C109.441909,53.7372037 108.942786,53.7640022 108.45,53.84 C107.143226,53.9864265 105.891103,54.4461102 104.8,55.18 C103.678452,55.949975 102.759131,56.9790658 102.12,58.18 C101.644391,59.0916776 101.349001,60.086497 101.25,61.11 Z" id="Path" fill="#48E33D" fill-rule="nonzero" opacity="0.25"></path>
                                <path d="M116.68,59.37 C117.175546,59.4171821 117.674454,59.4171821 118.17,59.37 C119.483945,59.3100766 120.7638,58.9326395 121.9,58.27 C123.081469,57.5735044 124.071172,56.5941111 124.78,55.42 C125.303448,54.537663 125.665759,53.569243 125.85,52.56 C125.354465,52.5125754 124.855535,52.5125754 124.36,52.56 C123.046253,52.6211035 121.766674,52.9984592 120.63,53.66 C119.454227,54.360442 118.468647,55.3391535 117.76,56.51 C117.221065,57.3858142 116.854489,58.3565629 116.68,59.37 L116.68,59.37 Z" id="Path" fill="#48E33D" fill-rule="nonzero" opacity="0.5"></path>
                                <path d="M116.65,69.5 C116.923452,69.0859856 117.157795,68.6474293 117.35,68.19 C117.904543,66.9960822 118.158594,65.6846303 118.09,64.37 C117.96572,61.9468055 116.775937,59.7026911 114.84,58.24 C113.853214,59.7654591 113.351209,61.5538524 113.4,63.37 C113.474964,64.7360454 113.88725,66.06223 114.6,67.23 C115.133365,68.1096965 115.829038,68.880027 116.65,69.5 L116.65,69.5 Z" id="Path" fill="#48E33D" fill-rule="nonzero"></path>
                                <path d="M101.46,96.23 C101.782901,96.0991655 102.091242,95.93494 102.38,95.74 C103.171814,95.2732906 103.835068,94.6169091 104.31,93.83 C104.799615,93.0067772 105.08108,92.0765695 105.13,91.12 C105.154592,90.4045116 105.053043,89.6902797 104.83,89.01 C104.509896,89.1428093 104.202051,89.3034241 103.91,89.49 C103.125326,89.9634436 102.46934,90.6228646 102,91.41 C101.5097,92.2292762 101.22812,93.1564321 101.18,94.11 C101.145636,94.8277319 101.240475,95.5458006 101.46,96.23 L101.46,96.23 Z" id="Path" fill="#48E33D" fill-rule="nonzero" opacity="0.5"></path>
                                <path d="M115.51,78.22 C115.842496,78.2534171 116.177504,78.2534171 116.51,78.22 C117.426901,78.1735613 118.318951,77.9059465 119.11,77.44 C120.561631,76.5705468 121.559368,75.1086599 121.84,73.44 C121.507475,73.4071767 121.172525,73.4071767 120.84,73.44 C119.921563,73.4774133 119.027363,73.7456731 118.24,74.22 C117.416419,74.7087292 116.728729,75.3964194 116.24,76.22 C115.867786,76.8323058 115.619737,77.5118901 115.51,78.22 Z" id="Path" fill="#48E33D" fill-rule="nonzero"></path>
                                <path d="M140.36,94.62 C140.107184,94.3831898 139.828805,94.1752439 139.53,94 C138.76281,93.4957628 137.88395,93.1867885 136.97,93.1 C135.280621,92.9411446 133.607526,93.537894 132.4,94.73 C132.659876,94.9596937 132.941161,95.1639603 133.24,95.34 C134.005341,95.8479606 134.885163,96.1572727 135.8,96.24 C136.752104,96.3271582 137.71093,96.1759455 138.59,95.8 C139.251535,95.5262872 139.852905,95.1253738 140.36,94.62 L140.36,94.62 Z" id="Path" fill="#48E33D" fill-rule="nonzero" opacity="0.5"></path>
                                <path d="M50.7,89.63 C51.0074774,89.4681174 51.2987989,89.2772516 51.57,89.06 C53.0982273,87.9250459 53.9576737,86.101068 53.86,84.2 C53.820746,83.4831755 53.6548509,82.7789676 53.37,82.12 C53.0654785,82.2868536 52.7745782,82.4774435 52.5,82.69 C51.7576467,83.2337149 51.1601545,83.9513923 50.76,84.78 C50.3528153,85.6444339 50.1639605,86.5955757 50.21,87.55 C50.2380574,88.2683922 50.4044301,88.9746275 50.7,89.63 L50.7,89.63 Z" id="Path" fill="#48E33D" fill-rule="nonzero" opacity="0.5"></path>
                                <path d="M117.35,55.5 C117.642899,55.3135249 117.914516,55.0955612 118.16,54.85 C118.849824,54.2414206 119.378796,53.472006 119.7,52.61 C120.028535,51.7120177 120.131551,50.7471019 120,49.8 C119.892171,49.0972571 119.658427,48.4197365 119.31,47.8 C119.020783,47.9915666 118.749658,48.2091361 118.5,48.45 C117.827736,49.0577275 117.313005,49.8195295 117,50.67 C116.674834,51.5688208 116.575254,52.533715 116.71,53.48 C116.792355,54.1880305 117.009605,54.8737248 117.35,55.5 L117.35,55.5 Z" id="Path" fill="#48E33D" fill-rule="nonzero"></path>
                                <path d="M140.64,79.11 C142.872437,78.646237 144.621181,76.9092564 145.1,74.68 C145.246925,73.9792667 145.267245,73.257893 145.16,72.55 C144.816267,72.6255425 144.481182,72.7361204 144.16,72.88 C143.32335,73.2204522 142.582049,73.7592684 142,74.45 C141.359014,75.1770799 140.911876,76.0541585 140.7,77 C140.545694,77.6930799 140.525328,78.4092714 140.64,79.11 Z" id="Path" fill="#48E33D" fill-rule="nonzero" opacity="0.25"></path>
                                <path d="M121.92,77.1 C121.961194,77.4396003 122.034864,77.7744669 122.14,78.1 C122.385667,78.9878877 122.845836,79.8017691 123.48,80.47 C124.141039,81.1591216 124.962,81.674369 125.87,81.97 C126.551489,82.1862688 127.265692,82.2810446 127.98,82.25 C127.937414,81.9106383 127.863771,81.5759011 127.76,81.25 C127.514233,80.3672734 127.057829,79.5574121 126.43,78.89 C125.766721,78.1965035 124.942253,77.6777757 124.03,77.38 C123.351091,77.1523886 122.634775,77.0573324 121.92,77.1 L121.92,77.1 Z" id="Path" fill="#48E33D" fill-rule="nonzero" opacity="0.5"></path>
                                <path d="M78.08,83.05 C77.8248589,83.2866275 77.5937351,83.547898 77.39,83.83 C76.8185081,84.5482631 76.4337283,85.3968401 76.27,86.3 C75.9697135,87.9712836 76.4195223,89.6900654 77.5,91 C77.7515666,90.7628031 77.9793185,90.5015582 78.18,90.22 C78.7514919,89.5017369 79.1362717,88.6531599 79.3,87.75 C79.4648849,86.8077854 79.3962131,85.8395126 79.1,84.93 C78.8841763,84.2435221 78.5378376,83.6051725 78.08,83.05 Z" id="Path" fill="#48E33D" fill-rule="nonzero"></path>
                                <path d="M66.21,64 C66.5427408,64.0281082 66.8772592,64.0281082 67.21,64 C68.130801,63.9579727 69.02713,63.6901043 69.82,63.22 C70.6387191,62.7250394 71.3250394,62.0387191 71.82,61.22 C72.1803269,60.6010762 72.4306963,59.9244024 72.56,59.22 C72.2272592,59.1918918 71.8927408,59.1918918 71.56,59.22 C70.6400823,59.267191 69.7449648,59.5346973 68.95,60 C68.1312809,60.4949606 67.4449606,61.1812809 66.95,62 C66.585889,62.6171319 66.3352646,63.294495 66.21,64 Z" id="Path" fill="#48E33D" fill-rule="nonzero"></path>
                                <path d="M102.91,49.08 C101.937411,49.9053648 101.239702,51.0077452 100.91,52.24 C100.530418,53.8901807 100.896158,55.6237906 101.91,56.98 C102.176725,56.7608252 102.418214,56.512629 102.63,56.24 C103.238377,55.5515902 103.667705,54.7238461 103.88,53.83 C104.10959,52.9006362 104.10959,51.9293638 103.88,51 C103.679657,50.3049415 103.350627,49.6536649 102.91,49.08 L102.91,49.08 Z" id="Path" fill="#48E33D" fill-rule="nonzero" opacity="0.25"></path>
                                <path d="M76.9,65.89 C77.0073199,66.2376925 77.1514709,66.5729274 77.33,66.89 C77.7530306,67.6937841 78.3678722,68.3807579 79.12,68.89 C79.9061319,69.4390835 80.8171023,69.7828459 81.77,69.89 C82.4838212,69.9667034 83.2056481,69.9124817 83.9,69.73 C83.7852349,69.3850945 83.6413847,69.050559 83.47,68.73 C83.0407215,67.9305765 82.4271036,67.24497 81.68,66.73 C80.8905953,66.1871504 79.9812362,65.8439961 79.03,65.73 C78.3163002,65.6466769 77.593243,65.7009911 76.9,65.89 L76.9,65.89 Z" id="Path" fill="#48E33D" fill-rule="nonzero" opacity="0.5"></path>
                                <path d="M95.23,62.93 C95.5520727,62.8055204 95.8603847,62.6480132 96.15,62.46 C96.9633086,62.0103293 97.650929,61.3639661 98.15,60.58 C98.6566065,59.7691273 98.9522525,58.8443741 99.01,57.89 C99.0555934,57.1740287 98.9708879,56.4557259 98.76,55.77 C98.4355483,55.8962634 98.1240932,56.0536654 97.83,56.24 C97.0189308,56.6927371 96.3319931,57.3384585 95.83,58.12 C95.3256461,58.9355769 95.0302545,59.8629692 94.97,60.82 C94.9154561,61.5336259 95.0038483,62.2509622 95.23,62.93 L95.23,62.93 Z" id="Path" fill="#48E33D" fill-rule="nonzero"></path>
                                <path d="M129,90.42 C129.330203,90.479453 129.664563,90.512889 130,90.52 C130.917966,90.5529063 131.830356,90.3642542 132.66,89.97 C134.180709,89.226852 135.301747,87.8575059 135.73,86.22 C135.399879,86.1599631 135.065472,86.1265224 134.73,86.12 C133.812034,86.0870937 132.899644,86.2757458 132.07,86.67 C131.210066,87.0921572 130.465424,87.7166954 129.9,88.49 C129.484052,89.0726219 129.178964,89.7268674 129,90.42 Z" id="Path" fill="#48E33D" fill-rule="nonzero" opacity="0.5"></path>
                                <path d="M86.21,45.31 C86.0170588,45.6016405 85.8497658,45.9094598 85.71,46.23 C85.3100832,47.0544696 85.1178336,47.9642222 85.15,48.88 C85.2276884,50.5740201 86.0378837,52.1506164 87.37,53.2 C87.561076,52.9107322 87.7282945,52.6063944 87.87,52.29 C88.2684606,51.4617736 88.4573298,50.5483334 88.42,49.63 C88.3837352,48.6740487 88.1087066,47.7423892 87.62,46.92 C87.2576686,46.2978256 86.7789594,45.7512144 86.21,45.31 Z" id="Path" fill="#48E33D" fill-rule="nonzero" opacity="0.25"></path>
                                <path d="M78.08,95 C78.3347877,95.2373643 78.612861,95.4484319 78.91,95.63 C79.6691551,96.1494484 80.5453289,96.4724301 81.46,96.57 C82.4120947,96.6727353 83.374755,96.5352124 84.26,96.17 C84.9214056,95.8893805 85.5275389,95.4931928 86.05,95 C85.791234,94.7674054 85.513615,94.5566825 85.22,94.37 C84.4585889,93.8549352 83.5835421,93.5323689 82.67,93.43 C81.7172459,93.3383025 80.7564645,93.4789883 79.87,93.84 C79.2060995,94.1114353 78.598952,94.504894 78.08,95 L78.08,95 Z" id="Path" fill="#48E33D" fill-rule="nonzero"></path>
                                <path d="M44.74,95 C44.9929799,95.2352408 45.2675219,95.4461695 45.56,95.63 C46.3201089,96.1475986 47.1958039,96.4704038 48.11,96.57 C49.062102,96.673165 50.0248683,96.5356269 50.91,96.17 C51.5714056,95.8893805 52.1775389,95.4931928 52.7,95 C52.4452123,94.7626357 52.167139,94.5515681 51.87,94.37 C51.1126218,93.854291 50.2406358,93.5315875 49.33,93.43 C48.3772164,93.3370937 47.4161462,93.4778219 46.53,93.84 C45.8633535,94.1061542 45.2552532,94.5002303 44.74,95 L44.74,95 Z" id="Path" fill="#48E33D" fill-rule="nonzero"></path>
                                <path d="M46.33,69.14 C46.4295289,69.4873784 46.5670249,69.8227346 46.74,70.14 C47.1510082,70.9649167 47.7589224,71.6758673 48.51,72.21 C49.2949795,72.7542134 50.201463,73.0975784 51.15,73.21 C51.8668478,73.2682253 52.5883245,73.1970938 53.28,73 C53.1742375,72.6532994 53.0335145,72.3182447 52.86,72 C52.4429423,71.1982682 51.8350869,70.5114259 51.09,70 C50.3062549,69.4604992 49.4041973,69.1175115 48.46,69 C47.7474917,68.9130772 47.0250012,68.9605649 46.33,69.14 Z" id="Path" fill="#48E33D" fill-rule="nonzero" opacity="0.25"></path>
                                <path d="M41.43,80.58 C41.3497839,80.9080959 41.299577,81.2428082 41.28,81.58 C41.1994725,82.4942129 41.3436577,83.4142517 41.7,84.26 C42.0720903,85.1416522 42.6601645,85.9154341 43.41,86.51 C43.9720307,86.9527593 44.6087223,87.291425 45.29,87.51 C45.3702161,87.1819041 45.420423,86.8471918 45.44,86.51 C45.5125806,85.5974641 45.3615518,84.6809935 45,83.84 C44.3413499,82.2780021 43.0280786,81.0854493 41.41,80.58 L41.43,80.58 Z" id="Path" fill="#48E33D" fill-rule="nonzero" opacity="0.25"></path>
                                <path d="M133.42,92.13 C132.965157,91.9310769 132.493228,91.7737674 132.01,91.66 C130.741327,91.307012 129.405134,91.2726626 128.12,91.56 C125.754505,92.1003223 123.744479,93.6498692 122.62,95.8 C123.075956,95.9960139 123.547627,96.1532374 124.03,96.27 C125.300382,96.6136326 126.635085,96.6445127 127.92,96.36 C129.255059,96.0548907 130.49472,95.4264753 131.53,94.53 C132.305465,93.8561107 132.9467,93.0418445 133.42,92.13 Z" id="Path" fill="#48E33D" fill-rule="nonzero"></path>
                                <path d="M76.21,78 C75.9124631,77.593111 75.5776846,77.2148114 75.21,76.87 C74.3272469,75.9164001 73.2254866,75.1921901 72,74.76 C70.7101813,74.3390178 69.3370536,74.2394661 68,74.47 C66.9915103,74.6623462 66.0239052,75.0277355 65.14,75.55 C65.4374948,75.9600009 65.7722522,76.3416245 66.14,76.69 C67.048701,77.6436176 68.1788163,78.3580978 69.43,78.77 C70.7195353,79.1933308 72.0940632,79.2895477 73.43,79.05 C74.4141103,78.876692 75.3570418,78.5205488 76.21,78 Z" id="Path" fill="#48E33D" fill-rule="nonzero"></path>
                                <path d="M61,96.16 C60.839004,95.6888402 60.6348021,95.2335703 60.39,94.8 C59.7894369,93.6311864 58.9102016,92.6283086 57.83,91.88 C56.6909801,91.0977924 55.3743168,90.6130678 54,90.47 C52.9942588,90.3693612 51.9786461,90.4472249 51,90.7 C51.165091,91.171159 51.3726091,91.62636 51.62,92.06 C52.2061235,93.2288776 53.0675021,94.237823 54.13,95 C55.2602944,95.7775538 56.5660821,96.2620698 57.93,96.41 C58.9598856,96.5250469 60.0022973,96.4401599 61,96.16 L61,96.16 Z" id="Path" fill="#48E33D" fill-rule="nonzero"></path>
                                <path d="M79.41,92.23 C78.9871193,92.0551099 78.548446,91.9211638 78.1,91.83 C76.9182447,91.5340701 75.6817553,91.5340701 74.5,91.83 C73.2747294,92.135743 72.1443544,92.7404421 71.21,93.59 C70.5093495,94.2325392 69.9330655,94.998658 69.51,95.85 C69.9344285,96.0205385 70.3727011,96.1543622 70.82,96.25 C71.9983737,96.5459094 73.2316263,96.5459094 74.41,96.25 C75.6411845,95.9464839 76.7760922,95.3377608 77.71,94.48 C78.4206145,93.8504767 78.9985516,93.0855599 79.41,92.23 Z" id="Path" fill="#48E33D" fill-rule="nonzero"></path>
                                <path d="M91.41,86.19 C91.3856547,84.3750107 90.8255369,82.6076825 89.8,81.11 C88.9804184,80.012278 87.9062348,79.1302806 86.67,78.54 C85.724177,78.1057592 84.7080408,77.8449509 83.67,77.77 C83.667538,78.2667524 83.714435,78.7625205 83.81,79.25 C83.9964619,80.5526363 84.5013769,81.7891629 85.28,82.85 C86.0942065,83.952841 87.1697902,84.835988 88.41,85.42 C89.3502929,85.8696418 90.3693885,86.1312097 91.41,86.19 L91.41,86.19 Z" id="Path" fill="#48E33D" fill-rule="nonzero"></path>
                                <path d="M73.7,44.41 C73.722343,45.2805678 73.8227454,46.1473757 74,47 C74.3525504,49.2342962 75.245036,51.3488004 76.6,53.16 C78.022666,55.0169671 79.8760323,56.4996601 82,57.48 C83.6098322,58.2064747 85.3374773,58.6366922 87.1,58.75 C87.0884666,57.8940094 87.0014629,57.0407037 86.84,56.2 C86.4868234,53.9519252 85.5909636,51.823829 84.23,50 C82.8027917,48.1254508 80.9385845,46.628592 78.8,45.64 C77.1940466,44.9083658 75.4629059,44.4908554 73.7,44.41 Z" id="Path" fill="#48E33D" fill-rule="nonzero" opacity="0.25"></path>
                                <path d="M100.74,68.46 C99.9827933,68.7142851 99.2552461,69.0495603 98.57,69.46 C96.6880067,70.5061166 95.1124957,72.0264675 94,73.87 C92.8126652,75.837243 92.1259387,78.0656704 92,80.36 C91.9012742,82.1214721 92.1041929,83.886865 92.6,85.58 C93.3530864,85.3233624 94.0770736,84.9881832 94.76,84.58 C96.6389519,83.5475998 98.2146052,82.0409028 99.33,80.21 C100.514726,78.24159 101.201248,76.0138259 101.33,73.72 C101.452768,71.9454202 101.25287,70.163282 100.74,68.46 Z" id="Path" fill="#48E33D" fill-rule="nonzero" opacity="0.5"></path>
                                <path d="M102.72,71.72 C102.777232,72.5750035 102.917901,73.4223657 103.14,74.25 C103.634389,76.4652024 104.664472,78.525367 106.14,80.25 C107.679399,82.0303744 109.633626,83.4041717 111.83,84.25 C113.479581,84.8901159 115.230701,85.2288239 117,85.25 C116.941871,84.3983887 116.801211,83.554431 116.58,82.73 C116.085611,80.5147976 115.055528,78.454633 113.58,76.73 C112.040878,74.9493184 110.086569,73.5754628 107.89,72.73 C106.246797,72.066877 104.491957,71.7240553 102.72,71.72 Z" id="Path" fill="#48E33D" fill-rule="nonzero"></path>
                                <path d="M75.91,57.36 C75.4989282,57.6523069 75.1201289,57.9875276 74.78,58.36 C73.8285341,59.2683936 73.1113986,60.3938501 72.69,61.64 C72.2797728,62.9320704 72.1837813,64.3033784 72.41,65.64 C72.5977542,66.6497784 72.9634379,67.618163 73.49,68.5 C73.8989898,68.2050809 74.2775316,67.8700882 74.62,67.5 C75.5722374,66.5941238 76.286623,65.4675926 76.7,64.22 C77.1205833,62.930103 77.220128,61.5570736 76.99,60.22 C76.8152731,59.2066277 76.4487133,58.2359229 75.91,57.36 L75.91,57.36 Z" id="Path" fill="#48E33D" fill-rule="nonzero" opacity="0.5"></path>
                                <path d="M65.13,77.14 C64.8623333,77.5595742 64.6378542,78.0051819 64.46,78.47 C63.9381165,79.6755469 63.7184235,80.9902718 63.82,82.3 C63.9292394,83.6646722 64.3759648,84.9807937 65.12,86.13 C65.6844949,86.9905596 66.399213,87.7425378 67.23,88.35 C67.4929901,87.9223201 67.7140181,87.4702172 67.89,87 C68.4196856,85.7930885 68.6429686,84.4740014 68.54,83.16 C68.4240718,81.7952129 67.9741867,80.4798998 67.23,79.33 C66.6782776,78.4710123 65.9650929,77.7272625 65.13,77.14 L65.13,77.14 Z" id="Path" fill="#48E33D" fill-rule="nonzero"></path>
                                <path d="M98,63.13 C97.5222938,63.269656 97.0599402,63.4572778 96.62,63.69 C95.4372238,64.2530511 94.4080169,65.0935701 93.62,66.14 C92.7804382,67.2343479 92.2239804,68.5190099 92,69.88 C91.8581178,70.8990403 91.8987515,71.9352001 92.12,72.94 C93.8532731,72.4016846 95.3857181,71.3568358 96.52,69.94 C97.3345666,68.8387488 97.8667632,67.5546098 98.07,66.2 C98.2414074,65.1814759 98.2176525,64.139653 98,63.13 L98,63.13 Z" id="Path" fill="#48E33D" fill-rule="nonzero"></path>
                                <path d="M64.41,63.79 C64.0905022,64.168963 63.8028573,64.5736727 63.55,65 C62.851958,66.1130019 62.4365689,67.3797671 62.34,68.69 C62.2412463,70.0615835 62.4852391,71.4361904 63.05,72.69 C63.4796273,73.6214841 64.0684532,74.4708824 64.79,75.2 C65.1143436,74.828392 65.4023267,74.426555 65.65,74 C66.3568277,72.8904176 66.7761179,71.6222365 66.87,70.31 C66.9633587,68.9387021 66.7195973,67.5653983 66.16,66.31 C65.7410366,65.3670259 65.1472353,64.5119519 64.41,63.79 L64.41,63.79 Z" id="Path" fill="#48E33D" fill-rule="nonzero"></path>
                                <path d="M98.91,60.59 C98.7884945,61.0715711 98.7148042,61.5639566 98.69,62.06 C98.5714323,63.3689347 98.7739528,64.6870347 99.28,65.9 C99.806729,67.1659762 100.642147,68.2798669 101.71,69.14 C102.514023,69.7759588 103.424924,70.2635784 104.4,70.58 C104.521505,70.0984289 104.595196,69.6060434 104.62,69.11 C104.743374,67.798575 104.54426,66.4768724 104.04,65.26 C103.50457,63.9906801 102.666917,62.8715197 101.6,62 C100.799862,61.3652011 99.8872749,60.886856 98.91,60.59 Z" id="Path" fill="#48E33D" fill-rule="nonzero" opacity="0.5"></path>
                                <path d="M122.58,74.12 C122.791176,74.5703292 123.045711,74.9990197 123.34,75.4 C124.069299,76.4886304 125.05484,77.3814544 126.21,78 C127.416242,78.6555134 128.76715,78.999256 130.14,79 C131.165164,78.9913438 132.18075,78.8017678 133.14,78.44 C132.349364,76.8022135 131.084636,75.4399297 129.51,74.53 C128.300009,73.8841078 126.951545,73.5409872 125.58,73.53 C124.551807,73.5363711 123.534031,73.7365336 122.58,74.12 L122.58,74.12 Z" id="Path" fill="#48E33D" fill-rule="nonzero"></path>
                                <path d="M67.53,65.12 C67.4519407,65.6125935 67.4217999,66.1115922 67.44,66.61 C67.4217078,67.9239732 67.7273797,69.2222205 68.33,70.39 C68.9638866,71.5976874 69.8883266,72.6286614 71.02,73.39 C71.8686847,73.9640469 72.8137447,74.3806862 73.81,74.62 C73.8921668,74.1278205 73.9256617,73.6287452 73.91,73.13 C73.9188343,71.8210942 73.6063655,70.5300144 73,69.37 C72.3600113,68.166564 71.4367842,67.1369427 70.31,66.37 C69.4710288,65.7807361 68.527578,65.3565226 67.53,65.12 L67.53,65.12 Z" id="Path" fill="#48E33D" fill-rule="nonzero" opacity="0.5"></path>
                                <path d="M110.42,48.07 C110.298495,48.5515711 110.224804,49.0439566 110.2,49.54 C110.076626,50.851425 110.27574,52.1731276 110.78,53.39 C111.319619,54.6484577 112.156979,55.7569296 113.22,56.62 C114.022795,57.2602261 114.933876,57.7513291 115.91,58.07 C116.031393,57.5850157 116.105077,57.0893243 116.13,56.59 C116.248568,55.2810653 116.046047,53.9629653 115.54,52.75 C115.010729,51.4882839 114.175604,50.3782209 113.11,49.52 C112.314835,48.8683074 111.401508,48.3759938 110.42,48.07 Z" id="Path" fill="#48E33D" fill-rule="nonzero" opacity="0.5"></path>
                                <path d="M75.37,79.08 C74.729395,79.3834037 74.1198527,79.7484593 73.55,80.17 C71.9934109,81.2161651 70.7163083,82.6271574 69.83,84.28 C68.925056,86.0076048 68.4548194,87.9297397 68.4599577,89.88 C68.4838141,91.344272 68.7647529,92.7929686 69.29,94.16 C69.9327918,93.8547829 70.5454843,93.4898458 71.12,93.07 C72.6680523,92.0338379 73.9412239,90.637124 74.83,89 C75.744265,87.2723331 76.2150289,85.3446067 76.2,83.39 C76.2087319,81.9127975 75.9267081,80.4483127 75.37,79.08 L75.37,79.08 Z" id="Path" fill="#48E33D" fill-rule="nonzero" opacity="0.5"></path>
                                <path d="M126.65,56.65 C125.985352,56.8983364 125.343036,57.2027674 124.73,57.56 C123.081922,58.4542656 121.677743,59.7382828 120.64,61.3 C119.568288,62.9328596 118.915696,64.8047679 118.74,66.75 C118.617293,68.2062348 118.756148,69.6726772 119.15,71.08 C119.818206,70.8401537 120.461283,70.535362 121.07,70.17 C122.720517,69.2836082 124.125713,68.0020973 125.16,66.44 C126.231712,64.8071404 126.884304,62.9352321 127.06,60.99 C127.198593,59.5304225 127.059474,58.0578016 126.65,56.65 L126.65,56.65 Z" id="Path" fill="#48E33D" fill-rule="nonzero" opacity="0.5"></path>
                                <path d="M63.25,78.33 C63.2553593,77.6197245 63.1984751,76.9103453 63.08,76.21 C62.8409267,74.3595989 62.1544493,72.5953521 61.08,71.07 C59.9275652,69.4909594 58.4068122,68.2173717 56.65,67.36 C55.3268597,66.7388865 53.905597,66.3531152 52.45,66.22 C52.4442795,66.9302885 52.5011663,67.6396993 52.62,68.34 C52.8602382,70.1931813 53.5465372,71.9604011 54.62,73.49 C55.7712571,75.0676243 57.2925199,76.3382049 59.05,77.19 C60.3644209,77.8345468 61.7900778,78.2215108 63.25,78.33 Z" id="Path" fill="#48E33D" fill-rule="nonzero" opacity="0.5"></path>
                                <path d="M131.07,82.44 C130.360684,82.4534689 129.654221,82.5338249 128.96,82.68 C127.111432,82.9962191 125.367786,83.7582063 123.88,84.9 C122.339616,86.0966586 121.119906,87.6565133 120.33,89.44 C119.746637,90.7824409 119.407976,92.2183641 119.33,93.68 C120.036041,93.6669811 120.739228,93.5866168 121.43,93.44 C123.27962,93.1273034 125.024085,92.3649586 126.51,91.22 C128.049495,90.0158777 129.271575,88.4539485 130.07,86.67 C130.668494,85.3361499 131.007857,83.900647 131.07,82.44 L131.07,82.44 Z" id="Path" fill="#48E33D" fill-rule="nonzero" opacity="0.5"></path>
                                <path d="M136.05,64.27 C135.355139,64.1292348 134.64887,64.0522481 133.94,64.04 C132.072242,63.9245768 130.204609,64.2678917 128.5,65.04 C126.717508,65.8828591 125.17149,67.1540293 124,68.74 C123.136377,69.9196791 122.489623,71.2436611 122.09,72.65 C124.631883,73.1416893 127.262945,72.8559315 129.64,71.83 C131.407795,70.9999266 132.943248,69.746145 134.11,68.18 C135.002469,67.0137854 135.661208,65.6861211 136.05,64.27 Z" id="Path" fill="#48E33D" fill-rule="nonzero" opacity="0.5"></path>
                                <path d="M75.76,67.41 C75.5162114,68.0577851 75.3353766,68.7275436 75.22,69.41 C74.8291643,71.2627905 74.9047619,73.183656 75.44,75 C75.9963965,76.8820011 77.0058846,78.5988176 78.38,80 C79.4341997,81.0193784 80.6595497,81.8453049 82,82.44 C82.2437886,81.7922149 82.4246234,81.1224564 82.54,80.44 C82.9224483,78.6032641 82.8468923,76.7006249 82.32,74.9 C81.7701026,73.0151849 80.7597341,71.2968711 79.38,69.9 C78.3455512,68.8439013 77.1162159,67.9983088 75.76,67.41 Z" id="Path" fill="#48E33D" fill-rule="nonzero"></path>
                                <path d="M111.91,56 C111.277986,56.3214209 110.67853,56.7031972 110.12,57.14 C108.600808,58.2382937 107.372048,59.6901524 106.54,61.37 C105.685207,63.1198466 105.276406,65.0539224 105.35,67 C105.427119,68.4617587 105.765816,69.8978321 106.35,71.24 C106.979779,70.9108347 107.578836,70.5259662 108.14,70.09 C109.661826,68.9987241 110.891385,67.5493553 111.72,65.87 C112.576448,64.1135909 112.98525,62.1726429 112.91,60.22 C112.850264,58.7622358 112.510767,57.3295579 111.91,56 L111.91,56 Z" id="Path" fill="#48E33D" fill-rule="nonzero" opacity="0.5"></path>
                                <path d="M91.5,53 C90.9964655,53.5030136 90.5411442,54.0520774 90.14,54.64 C89.0264243,56.1354004 88.2921064,57.8785476 88,59.72 C87.7236774,61.6520302 87.9227641,63.6223015 88.58,65.46 C89.0853209,66.8335193 89.8301838,68.1065577 90.78,69.22 C92.5896393,67.3678046 93.8049,65.017372 94.27,62.47 C94.5536132,60.5388749 94.3578627,58.5676336 93.7,56.73 C93.2083926,55.3590822 92.4619418,54.0935088 91.5,53 Z" id="Path" fill="#48E33D" fill-rule="nonzero" opacity="0.5"></path>
                                <path d="M85.41,65.24 C84.4197364,67.6310192 84.1621731,70.2623423 84.67,72.8 C85.1191577,74.6985068 86.0293354,76.4570387 87.32,77.92 C88.2990608,79.0098382 89.4637926,79.9172455 90.76,80.6 C91.0370068,79.9535164 91.2578227,79.2843774 91.42,78.6 C91.9102145,76.769159 91.9411281,74.8456482 91.51,73 C91.0590724,71.0971321 90.145377,69.3350053 88.85,67.87 C87.8822286,66.7812445 86.7144249,65.8884178 85.41,65.24 L85.41,65.24 Z" id="Path" fill="#48E33D" fill-rule="nonzero" opacity="0.5"></path>
                                <path d="M54.64,82.76 C54.8901284,85.8704046 56.0597129,88.8361369 58,91.28 C59.5468807,93.05654 61.5032938,94.4294614 63.7,95.28 C65.3522579,95.9047198 67.1035858,96.2265305 68.87,96.23 C68.8019999,95.3762821 68.6614933,94.5298969 68.45,93.7 C67.9556105,91.4847976 66.9255282,89.424633 65.45,87.7 C63.903662,85.9228576 61.9470882,84.5498234 59.75,83.7 C58.1211511,83.0673468 56.3873592,82.7484106 54.64,82.76 Z" id="Path" fill="#48E33D" fill-rule="nonzero"></path>
                                <path d="M46.68,85 C46.5502702,85.3245705 46.4466088,85.658962 46.37,86 C45.9048042,87.8481434 46.4009249,89.8063168 47.69,91.21 C48.1732076,91.7385765 48.7451628,92.178542 49.38,92.51 C49.5166478,92.1879209 49.6205054,91.8528965 49.69,91.51 C49.9143486,90.6205963 49.9143486,89.6894037 49.69,88.8 C49.4580929,87.870322 49.0013797,87.0118385 48.36,86.3 C47.8854389,85.7662595 47.315753,85.3254311 46.68,85 Z" id="Path" fill="#48E33D" fill-rule="nonzero" opacity="0.5"></path>
                                <path d="M46.15,91.92 C45.6887248,91.7273211 45.2098038,91.5799608 44.72,91.48 C43.4462612,91.161615 42.1137388,91.161615 40.84,91.48 C39.5110281,91.8133746 38.2848084,92.4694192 37.27,93.39 C36.5173469,94.0882555 35.8943826,94.9143603 35.43,95.83 C35.8877507,96.0229009 36.3633769,96.1702781 36.85,96.27 C38.1272686,96.5871928 39.4627314,96.5871928 40.74,96.27 C42.0689719,95.9366254 43.2951916,95.2805808 44.31,94.36 C45.0709884,93.6693131 45.6951862,92.8415726 46.15,91.92 L46.15,91.92 Z" id="Path" fill="#48E33D" fill-rule="nonzero" opacity="0.5"></path>
                            </g>
                        </g>
                    </g>
                </g>
            </g>
        </g>
    </g>
</svg>