<?xml version="1.0" standalone="no"?>
<!DOCTYPE svg PUBLIC "-//W3C//DTD SVG 1.1//EN" "http://www.w3.org/Graphics/SVG/1.1/DTD/svg11.dtd" >
<svg xmlns="http://www.w3.org/2000/svg" id="search_16">
<path unicode="&#xe9eb;" transform="scale(1,-1)" id="search_16" data-tags="search_16" d="M416 192c-194.112 0-352 157.888-352 352s157.888 352 352 352c194.112 0 352-157.888 352-352s-157.888-352-352-352zM1014.656-9.344l-283.072 283.008c62.4 72.832 100.416 167.168 100.416 270.336 0 229.376-186.624 416-416 416s-416-186.624-416-416c0-229.376 186.624-416 416-416 103.168 0 197.504 38.016 270.336 100.416l283.008-283.072c6.272-6.208 14.464-9.344 22.656-9.344s16.384 3.136 22.656 9.344c12.48 12.544 12.48 32.768 0 45.312z" />
</svg>
