<?xml version="1.0" standalone="no"?>
<!DOCTYPE svg PUBLIC "-//W3C//DTD SVG 1.1//EN" "http://www.w3.org/Graphics/SVG/1.1/DTD/svg11.dtd" >
<svg xmlns="http://www.w3.org/2000/svg" id="selfview_16">
<path unicode="&#xec3a;" id="selfview_16" data-tags="selfview_16" d="M15 12c0 .551-.449 1-1 1l-.599 0c-.475-1.139-1.551-1.915-2.801-1.985C11.45 10.281 12 9.209 12 8c0-2.206-1.794-4-4-4-2.206 0-4 1.794-4 4 0 1.209.55 2.281 1.4 3.015-1.25.07-2.326.846-2.801 1.985L2 13c-.551 0-1-.449-1-1l0-8c0-.551.449-1 1-1l12 0c.551 0 1 .449 1 1l0 8zm-4.582 0c.764 0 1.435.396 1.844 1l-8.524 0c.409-.604 1.08-1 1.844-1l4.836 0zM8 11c-1.654 0-3-1.346-3-3 0-1.654 1.346-3 3-3 1.654 0 3 1.346 3 3 0 1.654-1.346 3-3 3zm6-9L2 2C.895 2 0 2.895 0 4l0 8c0 1.105.895 2 2 2l12 0c1.105 0 2-.895 2-2l0-8c0-1.105-.895-2-2-2z" />
</svg>
