<?xml version="1.0" standalone="no"?>
<!DOCTYPE svg PUBLIC "-//W3C//DTD SVG 1.1//EN" "http://www.w3.org/Graphics/SVG/1.1/DTD/svg11.dtd" >
<svg xmlns="http://www.w3.org/2000/svg" id="server-connection_70x50">
<path unicode="&#xeada;" transform="scale(1,-1)" id="server-connection_70x50" data-tags="server-connection_70x50" horiz-adv-x="1434" d="M1300.48 939.52h-409.6c-39.588 0-71.68-32.092-71.68-71.68v-532.48c0-39.588 32.092-71.68 71.68-71.68h194.56v-122.88c0-0.369 0.164-0.655 0.205-1.024-42.762-4.669-76.431-38.339-81.101-81.101-0.369 0.041-0.655 0.205-1.024 0.205h-573.44c-0.369 0-0.655-0.164-1.024-0.205-4.669 42.762-38.339 76.431-81.101 81.101 0.041 0.369 0.205 0.655 0.205 1.024v122.88h194.56c39.588 0 71.68 32.092 71.68 71.68v532.48c0 39.588-32.092 71.68-71.68 71.68h-409.6c-39.588 0-71.68-32.092-71.68-71.68v-532.48c0-39.588 32.092-71.68 71.68-71.68h194.56v-122.88c0-0.369 0.164-0.655 0.205-1.024-42.701-4.669-76.308-38.216-81.101-80.896h-175.104c-5.652 0-10.24-4.588-10.24-10.24s4.588-10.24 10.24-10.24h175.104c5.161-46.019 43.745-81.92 91.136-81.92 47.452 0 86.077 36.024 91.136 82.125 0.369-0.041 0.655-0.205 1.024-0.205h573.44c0.369 0 0.655 0.164 1.024 0.205 5.059-46.1 43.684-82.125 91.136-82.125 47.391 0 85.975 35.901 91.116 81.92h175.124c5.652 0 10.24 4.588 10.24 10.24s-4.588 10.24-10.24 10.24h-175.124c-4.772 42.68-38.38 76.227-81.080 80.896 0.041 0.369 0.205 0.655 0.205 1.024v122.88h194.56c39.588 0 71.68 32.092 71.68 71.68v532.48c0 39.588-32.092 71.68-71.68 71.68zM1300.48 284.16h-409.6c-28.242 0-51.2 22.958-51.2 51.2v133.12h512v-133.12c0-28.242-22.958-51.2-51.2-51.2zM890.88 919.040h409.6c28.242 0 51.2-22.979 51.2-51.2v-133.12h-512v133.12c0 28.221 22.958 51.2 51.2 51.2zM931.84 816.64c-2.683 0-5.325 1.024-7.168 3.072-2.048 1.843-3.072 4.506-3.072 7.168s1.024 5.325 3.072 7.168c3.686 3.891 10.65 3.891 14.336 0 2.028-1.843 3.072-4.506 3.072-7.168s-1.044-5.325-3.072-7.168c-1.843-2.048-4.506-3.072-7.168-3.072zM839.68 488.96v225.28h512v-225.28h-512zM1167.36 48.64c0-39.526-32.154-71.68-71.68-71.68s-71.68 32.154-71.68 71.68c0 39.526 32.154 71.68 71.68 71.68s71.68-32.154 71.68-71.68zM337.92-23.040c-39.526 0-71.68 32.154-71.68 71.68s32.154 71.68 71.68 71.68c39.526 0 71.68-32.154 71.68-71.68s-32.154-71.68-71.68-71.68zM133.12 284.16c-28.221 0-51.2 22.958-51.2 51.2v133.12h512v-133.12c0-28.242-22.958-51.2-51.2-51.2h-409.6zM133.12 919.040h409.6c28.242 0 51.2-22.979 51.2-51.2v-133.12h-512v133.12c0 28.221 22.979 51.2 51.2 51.2zM174.080 816.64c-2.662 0-5.325 1.024-7.168 3.072-2.048 1.843-3.072 4.506-3.072 7.168s1.024 5.325 3.072 7.168c3.686 3.891 10.65 3.891 14.336 0 2.048-1.843 3.072-4.506 3.072-7.168s-1.024-5.325-3.072-7.168c-1.843-2.048-4.506-3.072-7.168-3.072zM81.92 488.96v225.28h512v-225.28h-512z" />
</svg>
