<?xml version="1.0" standalone="no"?>
<!DOCTYPE svg PUBLIC "-//W3C//DTD SVG 1.1//EN" "http://www.w3.org/Graphics/SVG/1.1/DTD/svg11.dtd" >
<svg xmlns="http://www.w3.org/2000/svg" id="settings_24">
<path unicode="&#xe9f1;" transform="scale(1,-1)" id="settings_24" data-tags="settings_24" d="M340.267 166.272c2.773 0 5.504-0.555 8.149-1.621l79.019-32.64c5.717-2.347 10.155-7.083 12.117-12.928l38.912-116.352c4.821-14.421 18.261-24.064 33.408-24.064 15.403 0 28.843 9.685 33.664 24.107l38.571 116.352c1.963 5.845 6.357 10.581 12.075 12.971l78.976 32.811c5.675 2.347 12.203 2.133 17.707-0.64l109.995-54.869c13.568-6.741 29.909-4.139 40.661 6.613 10.923 10.923 13.568 27.264 6.741 40.875l-54.955 109.739c-2.773 5.504-3.029 11.989-0.64 17.749l32.811 79.019c2.389 5.717 7.125 10.112 13.013 12.075l116.693 38.656c14.464 4.779 24.149 18.219 24.149 33.451v0.256c0 15.147-9.643 28.587-24.064 33.408l-116.864 39.083c-5.888 1.963-10.581 6.357-12.971 12.117l-32.597 79.019c-2.347 5.717-2.091 12.203 0.683 17.749l55.211 109.867c6.869 13.611 4.224 29.952-6.528 40.747-10.88 10.88-27.221 13.525-40.832 6.741l-110.251-55.040c-5.547-2.731-12.075-2.944-17.707-0.64l-78.933 32.725c-5.717 2.389-10.112 7.125-12.075 12.971l-38.827 116.651c-4.821 14.379-18.261 24.107-33.451 24.107-15.403 0-28.843-9.728-33.621-24.107l-38.827-116.565c-1.963-5.845-6.357-10.581-12.075-12.971l-78.976-32.683c-5.717-2.389-12.16-2.133-17.707 0.597l-109.739 54.912c-13.611 6.827-29.952 4.139-40.704-6.613-10.88-10.923-13.568-27.264-6.784-40.832l54.912-109.909c2.773-5.504 3.029-11.989 0.64-17.664l-32.597-78.933c-2.347-5.717-7.083-10.112-12.928-12.075l-116.992-39.253c-14.379-4.779-24.064-18.219-24.064-33.408 0-15.531 9.728-28.971 24.149-33.749l116.565-38.656c5.845-1.963 10.624-6.357 12.971-12.075l32.811-78.891c2.389-5.717 2.176-12.16-0.597-17.707l-54.912-110.379c-6.784-13.568-4.096-29.909 6.613-40.619 10.923-10.965 27.349-13.611 40.917-6.784l109.483 55.040c3.029 1.493 6.315 2.261 9.6 2.261zM512.085-64c-33.792 0-63.445 21.376-74.069 53.163l-35.84 107.136-61.013 25.216-100.821-50.645c-30.080-15.104-66.304-9.259-90.069 14.507-23.893 23.936-29.739 59.989-14.848 89.984l50.603 101.717-25.301 60.885-107.349 35.627c-31.915 10.624-53.376 40.32-53.376 73.941 0 33.835 21.376 63.531 53.163 74.197l107.776 36.096 25.173 60.971-50.56 101.205c-15.019 30.037-9.173 66.133 14.549 89.899 23.936 23.936 60.16 29.824 90.155 14.805l101.035-50.56 60.971 25.259 35.755 107.307c10.581 31.872 40.277 53.291 73.899 53.291 33.792 0 63.488-21.419 74.112-53.291l35.797-107.392 60.928-25.259 101.589 50.688c30.037 15.019 66.176 9.088 89.899-14.635 23.936-23.936 29.739-60.117 14.635-90.197l-50.859-101.205 25.173-61.013 107.648-36.011c31.787-10.624 53.163-40.32 53.163-73.856v-0.256c0-33.664-21.461-63.403-53.419-73.984l-107.435-35.584-25.344-61.013 50.645-100.992c15.019-30.080 9.173-66.219-14.549-89.984-23.936-23.893-60.032-29.824-90.069-14.805l-101.333 50.56-60.928-25.344-35.541-107.093c-10.581-31.915-40.32-53.333-73.941-53.333zM512.017 618.645c-94.123 0-170.667-76.544-170.667-170.667s76.544-170.667 170.667-170.667c94.123 0 170.667 76.544 170.667 170.667s-76.544 170.667-170.667 170.667zM512.017 234.645c-117.632 0-213.333 95.701-213.333 213.333s95.701 213.333 213.333 213.333c117.632 0 213.333-95.701 213.333-213.333s-95.701-213.333-213.333-213.333z" />
</svg>
