<?xml version="1.0" standalone="no"?>
<!DOCTYPE svg PUBLIC "-//W3C//DTD SVG 1.1//EN" "http://www.w3.org/Graphics/SVG/1.1/DTD/svg11.dtd" >
<svg xmlns="http://www.w3.org/2000/svg" id="settings_16">
<path unicode="&#xe9f0;" transform="scale(1,-1)" id="settings_16" data-tags="settings_16" d="M344.040 182.487c4.092 0 8.248-0.834 12.084-2.374l77.363-32.020c8.503-3.593 15.089-10.652 18.030-19.379l37.978-114.156c6.521-19.636 38.617-19.186 44.947 0l37.722 114.22c2.941 8.727 9.526 15.785 17.966 19.379l77.235 32.148c8.44 3.529 18.030 3.208 26.342-0.898l107.54-53.901c9.079-4.556 20.076-2.695 27.237 4.492 7.289 7.379 9.079 18.352 4.476 27.464l-53.706 107.675c-4.092 8.278-4.476 17.903-0.959 26.502l32.032 77.58c3.58 8.534 10.613 15.144 19.373 18.031l114.19 37.924c9.59 3.144 16.112 12.192 16.112 22.459v0.257c0 10.139-6.458 19.122-16.048 22.395l-114.318 38.373c-8.759 2.888-15.792 9.497-19.309 18.031l-31.84 77.58c-3.516 8.534-3.197 18.224 0.959 26.502l54.026 107.803c4.539 9.112 2.813 20.149-4.412 27.336-7.353 7.379-18.35 9.112-27.365 4.62l-107.732-54.030c-8.184-4.235-17.774-4.556-26.342-0.963l-71.544 29.774c-8.503 3.529-20.715 12.962-23.656 21.753l-37.978 114.412c-6.521 19.571-38.553 19.186-44.947-0.064l-37.914-114.284c-2.941-8.727-9.526-15.785-18.030-19.379l-77.171-32.084c-8.567-3.529-18.094-3.208-26.342 0.898l-107.285 53.901c-9.079 4.62-20.012 2.823-27.237-4.428-7.353-7.379-9.079-18.352-4.603-27.4l53.706-107.931c4.092-8.278 4.476-17.903 0.959-26.437l-31.904-77.451c-3.453-8.534-10.549-15.080-19.181-18.031l-114.446-38.501c-9.59-3.208-16.048-12.192-16.048-22.395 0-10.524 6.521-19.571 16.112-22.716l113.934-37.988c8.759-2.952 15.728-9.497 19.309-17.967l32.16-77.451c3.516-8.534 3.197-18.16-0.959-26.437l-53.706-108.38c-4.476-9.112-2.685-20.021 4.412-27.207 7.417-7.444 18.286-9.304 27.429-4.62l107.093 53.966c4.476 2.31 9.335 3.401 14.258 3.401zM512-64c-37.632 0-70.848 23.935-82.752 59.58l-33.472 100.090-50.624 20.863-94.208-47.357c-33.664-16.895-74.048-10.367-100.736 16.255-26.688 26.686-33.28 67.068-16.512 100.666l47.296 95.034-21.056 50.429-100.224 33.342c-35.712 11.839-59.712 45.053-59.712 82.683 0 37.758 23.872 70.972 59.392 82.939l100.8 33.79 20.864 50.493-47.296 94.586c-16.832 33.534-10.24 73.915 16.32 100.538 26.624 26.75 67.072 33.406 100.8 16.511l94.4-47.229 50.496 20.927 33.408 100.282c11.968 35.646 45.184 59.58 82.688 59.58 37.824 0 71.040-23.935 82.88-59.644l33.472-100.282 50.496-20.991 94.848 47.421c33.536 16.831 74.048 10.239 100.672-16.319 26.752-26.814 33.216-67.324 16.32-100.922l-47.552-94.586 20.864-50.493 100.608-33.726c35.648-11.839 59.52-45.053 59.52-82.555v-0.256c0-37.694-24-70.908-59.712-82.747l-100.48-33.278-20.928-50.493 47.296-94.394c16.832-33.662 10.24-74.107-16.32-100.666-26.816-26.686-67.328-33.278-100.672-16.511l-94.72 47.229-50.496-20.991-33.216-100.090c-11.84-35.71-45.12-59.708-82.752-59.708zM512 576c-70.574 0-128-57.412-128-127.968 0-70.621 57.426-128.032 128-128.032s128 57.412 128 128.032c0 70.556-57.426 127.968-128 127.968zM512 256c-105.893 0-192 86.157-192 192.032s86.107 191.968 192 191.968c105.893 0 192-86.092 192-191.968s-86.107-192.032-192-192.032z" />
</svg>
