<?xml version="1.0" encoding="UTF-8"?>
<svg width="360px" height="240px" viewBox="0 0 360 240" version="1.1" xmlns="http://www.w3.org/2000/svg" xmlns:xlink="http://www.w3.org/1999/xlink">
    <!-- Generator: Sketch 41.2 (35397) - http://www.bohemiancoding.com/sketch -->
    <title>sharescreen@1x</title>
    <desc>Created with Sketch.</desc>
    <defs></defs>
    <g id="sharescreen" stroke="none" stroke-width="1" fill="none" fill-rule="evenodd">
        <g id="sharescreen@1x">
            <g id="Illustration">
                <rect id="Bounds" x="0" y="0" width="360" height="240"></rect>
                <g transform="translate(46.000000, 0.000000)" fill="#444444">
                    <path d="M225.3649,164.3164 C225.7799,164.1094 226.2449,164.0004 226.7079,164.0004 L253.9989,164.0004 C255.1019,164.0004 255.9989,164.8974 255.9989,166.0004 C255.9989,167.1024 255.1019,168.0004 253.9989,168.0004 L226.7079,168.0004 C226.2439,168.0004 225.7809,167.8904 225.3659,167.6824 L221.9999,166.0004 L225.3649,164.3164 Z M224.4699,169.4714 C225.1619,169.8174 225.9349,170.0004 226.7079,170.0004 L253.9989,170.0004 C256.2049,170.0004 257.9989,168.2064 257.9989,166.0004 C257.9989,163.7944 256.2049,162.0004 253.9989,162.0004 L226.7079,162.0004 C225.9359,162.0004 225.1629,162.1824 224.4709,162.5274 L221.1059,164.2114 C220.4239,164.5514 219.9999,165.2374 219.9999,165.9994 C219.9999,166.7614 220.4239,167.4474 221.1049,167.7884 L224.4699,169.4714 Z" id="Fill-1" fill-opacity="0.48"></path>
                    <path d="M255.9991,0 L12.0001,0 C5.3831,0 0.0001,5.383 0.0001,12 L0.0001,168 C0.0001,174.617 5.3831,180 12.0001,180 L63.9991,180 L63.9991,178 L12.0001,178 C6.4861,178 2.0001,173.514 2.0001,168 L2.0001,12 C2.0001,6.486 6.4861,2 12.0001,2 L255.9991,2 C261.5131,2 265.9991,6.486 265.9991,12 L265.9991,168 C265.9991,173.514 261.5131,178 255.9991,178 L203.9991,178 L203.9991,180 L255.9991,180 C262.6161,180 267.9991,174.617 267.9991,168 L267.9991,12 C267.9991,5.383 262.6161,0 255.9991,0" id="Fill-3" fill-opacity="0.48"></path>
                    <path d="M137.9996,16 L129.9996,16 C128.8966,16 127.9996,15.103 127.9996,14 C127.9996,12.897 128.8966,12 129.9996,12 L137.9996,12 C139.1026,12 139.9996,12.897 139.9996,14 C139.9996,15.103 139.1026,16 137.9996,16 M137.9996,10 L129.9996,10 C127.7906,10 125.9996,11.791 125.9996,14 C125.9996,16.209 127.7906,18 129.9996,18 L137.9996,18 C140.2086,18 141.9996,16.209 141.9996,14 C141.9996,11.791 140.2086,10 137.9996,10" id="Fill-6" fill-opacity="0.48"></path>
                    <path d="M134,238 C95.402,238 64,206.598 64,168 C64,129.402 95.402,98 134,98 C172.598,98 204,129.402 204,168 C204,206.598 172.598,238 134,238 M134,96 C94.235,96 62,128.235 62,168 C62,207.765 94.235,240 134,240 C173.765,240 206,207.765 206,168 C206,128.235 173.765,96 134,96" id="Fill-9"></path>
                    <path d="M156,171 C156,172.654 154.654,174 153,174 L127,174 C125.346,174 124,172.654 124,171 L124,153 C124,151.346 125.346,150 127,150 L153,150 C154.654,150 156,151.346 156,153 L156,171 Z M144,183 C144,184.654 142.654,186 141,186 L115,186 C113.346,186 112,184.654 112,183 L112,165 C112,163.346 113.346,162 115,162 L122,162 L122,171 C122,173.762 124.239,176 127,176 L144,176 L144,183 Z M153,148 L127,148 C124.239,148 122,150.238 122,153 L122,160 L115,160 C112.239,160 110,162.238 110,165 L110,183 C110,185.762 112.239,188 115,188 L141,188 C143.761,188 146,185.762 146,183 L146,176 L153,176 C155.761,176 158,173.762 158,171 L158,153 C158,150.238 155.761,148 153,148 L153,148 Z" id="xxxxx"></path>
                </g>
            </g>
        </g>
    </g>
</svg>