<?xml version="1.0" standalone="no"?>
<!DOCTYPE svg PUBLIC "-//W3C//DTD SVG 1.1//EN" "http://www.w3.org/Graphics/SVG/1.1/DTD/svg11.dtd" >
<svg xmlns="http://www.w3.org/2000/svg" id="share-screen-16-copy">
<path unicode="&#xeb63;" transform="scale(1,-1)" id="share-screen-16-copy" data-tags="share-screen-16-copy" fill="#4F5051" d="M15 8c0 .55-.452 1-1.009 1H6.009A1 1 0 0 1 5 8V2c0-.55.452-1 1.009-1h7.982A.999.999 0 0 1 15 2v6zm-4 4c0 .55-.452 1-1.009 1H2.009A1 1 0 0 1 1 12V6c0-.55.452-1 1.009-1H4v3a2 2 0 0 0 2.009 2H11v2zm2.991-12H6.009A2.006 2.006 0 0 0 4 2v2H2.009A2.006 2.006 0 0 0 0 6v6a2 2 0 0 0 2.009 2h7.982A2.007 2.007 0 0 0 12 12v-2h1.991A2.007 2.007 0 0 0 16 8V2a1.999 1.999 0 0 0-2.009-2z" />
</svg>
