<?xml version="1.0" standalone="no"?>
<!DOCTYPE svg PUBLIC "-//W3C//DTD SVG 1.1//EN" "http://www.w3.org/Graphics/SVG/1.1/DTD/svg11.dtd" >
<svg xmlns="http://www.w3.org/2000/svg" id="share-screen_24">
<path unicode="&#xe9f3;" transform="scale(1,-1)" id="share-screen_24" data-tags="share-screen_24" d="M981.333 382.123c0-34.261-27.861-62.123-62.123-62.123h-558.421c-34.261 0-62.123 27.861-62.123 62.123v387.797c0 34.261 27.861 62.080 62.123 62.080h558.421c34.261 0 62.123-27.819 62.123-62.080v-387.797zM725.333 126.123c0-34.219-27.861-62.123-62.123-62.123h-558.421c-34.261 0-62.123 27.904-62.123 62.123v387.797c0 34.261 27.861 62.080 62.123 62.080h151.211v-193.877c0-57.771 47.019-104.789 104.789-104.789h364.544v-151.211zM919.211 874.667h-558.421c-57.771 0-104.789-46.976-104.789-104.747v-151.253h-151.211c-57.771 0-104.789-46.976-104.789-104.747v-387.797c0-57.771 47.019-104.789 104.789-104.789h558.421c57.771 0 104.789 47.019 104.789 104.789v151.211h151.211c57.771 0 104.789 47.019 104.789 104.789v387.797c0 57.771-47.019 104.747-104.789 104.747v0z" />
</svg>
