<svg id="single_person_illustration" data-name="Layer 1" xmlns="http://www.w3.org/2000/svg" viewBox="0 0 198.12 189.54">
	<defs>
		<style type="text/css">.cls-1,.cls-10,.cls-4,.cls-5{fill:#fff;}.cls-1,.cls-11,.cls-4,.cls-5,.cls-6{stroke:#005ba8;}.cls-1,.cls-11,.cls-4,.cls-6,.cls-8,.cls-9{stroke-linecap:round;}.cls-1,.cls-5{stroke-miterlimit:10;}.cls-2{opacity:0.75;}.cls-3{fill:#ffac38;}.cls-11,.cls-4,.cls-6,.cls-8,.cls-9{stroke-linejoin:round;}.cls-11,.cls-6,.cls-8{fill:none;}.cls-7{fill:#005ba8;}.cls-8,.cls-9{stroke:#fff;}.cls-9{fill:#12283d;}.cls-11{stroke-width:1.09px;}</style>
	</defs>
	<title>Artboard 3</title>
	<g id="single_person_illustration">
		<line class="cls-1" x1="2.29" y1="164.61" x2="195.83" y2="164.61"/>
		<g id="shirt" class="cls-2">
			<path id="arm_front_-_male_" data-name="arm(front - male)" class="cls-3" d="M61.65,137.37h0c-3.93-3-4.94-9.85-2.25-15.35L76.68,86.71c2.69-5.5,8.06-7.54,12-4.57l7.12,5.4L73.64,132.81C71,138.3,65.58,140.35,61.65,137.37Z"/>
			<g id="arm_front_-_female_" data-name="arm(front - female)">
				<path class="cls-3" d="M135.88,87.15l8.87,50.07a8.2,8.2,0,0,1-7.07,9.47h0a8.21,8.21,0,0,1-9.11-6.81l-9-50.7A8.21,8.21,0,0,1,126.72,80h0A8.21,8.21,0,0,1,135.88,87.15Z"/>
			</g>
			<path class="cls-3" d="M81,87.42a8.65,8.65,0,0,1,8.57-7.56H124A5.18,5.18,0,0,1,129.14,85l-3.46,62.19,4.51,16.84H78.73l4.76-18.17Z"/>
			<path class="cls-3" d="M85.83,88.23,79,108.43a5.71,5.71,0,0,0,1.76,6.25l5.12,4.23"/>
		</g>
		<g id="chest_neck" data-name="chest/neck">
			<path class="cls-4" d="M121.87,79.52A15.76,15.76,0,0,1,106,95.26C97.16,95.26,90,88.69,90,79.89"/>
			<line class="cls-4" x1="95.44" y1="79.91" x2="89.99" y2="79.89"/>
		</g>
		<g id="arm_phone_" data-name="arm(phone)">
			<rect class="cls-4" x="103.37" y="88.38" width="5.92" height="17.01" rx="2.96" transform="matrix(0.79, -0.62, 0.62, 0.79, -37.12, 86.1)"/>
			<rect class="cls-4" x="87.66" y="85.43" width="17.23" height="25.85" rx="4.12" transform="translate(192.55 196.7) rotate(180)"/>
			<path class="cls-4" d="M123.83,111.27c-8.28-9.18-16.37-17.84-17.36-17.81L96,92.18a2.2,2.2,0,1,0-.54,4.37l3.12.38a11.35,11.35,0,0,0,14,17.64l16.27,28.9A8.86,8.86,0,0,0,141.22,145h0a8.86,8.86,0,0,0,1.51-12.4s-5.38-6.17-12-13.6Z"/>
			<circle class="cls-5" cx="102.58" cy="88.86" r="0.82"/>
			<line class="cls-6" x1="113.35" y1="113.8" x2="115.77" y2="111.81"/>
		</g>
		<polyline class="cls-4" points="95.47 79.78 95.44 63.63 112.79 63.54 112.82 79.7"/>
		<path class="cls-7" d="M112.94,52.56V68.71a8.87,8.87,0,0,1-8.67,9.06h0a8.87,8.87,0,0,1-8.67-9.06V52.56"/>
		<path class="cls-4" d="M104.13,17.26c-8.88,0-16.07,7.52-16.07,16.8V56.42a15.74,15.74,0,0,0,6.61,12.8,11.24,11.24,0,0,0,18.93,0,15.74,15.74,0,0,0,6.61-12.8V34.06C120.21,24.78,113,17.26,104.13,17.26Z"/>
		<path class="cls-7" d="M124.77,58.88a4.62,4.62,0,0,0,4.63-1.7,5.12,5.12,0,0,0,.67-5.06,4.54,4.54,0,0,0,.79-1,5,5,0,0,0,.39-1,4.8,4.8,0,0,0,3.67-3.22A5.1,5.1,0,0,0,134,42a5,5,0,0,0,.39-1.19,5.1,5.1,0,0,0,.05-1.1,5,5,0,0,0,0-8.46,4.76,4.76,0,0,0,0-1.46,4.39,4.39,0,0,0-.35-1.15,5.11,5.11,0,0,0,.72-4.69,4.77,4.77,0,0,0-3.43-3.16,4.85,4.85,0,0,0-.52-1.63,4.67,4.67,0,0,0-.81-1.05,5.11,5.11,0,0,0-.9-4.55,4.66,4.66,0,0,0-4.09-1.77,4.75,4.75,0,0,0-.94-1.21,4.35,4.35,0,0,0-1.25-.78A5,5,0,0,0,120.62,6a4.54,4.54,0,0,0-4.34-.25A4.31,4.31,0,0,0,115,4.88a4.17,4.17,0,0,0-1.58-.29A4.74,4.74,0,0,0,110,1.8a4.59,4.59,0,0,0-4.28,1.44,4.21,4.21,0,0,0-1.87-.39,4.07,4.07,0,0,0-1.6.36,4.63,4.63,0,0,0-4.26-1.33,4.77,4.77,0,0,0-3.38,2.83,4.09,4.09,0,0,0-2.68,1.23,4.52,4.52,0,0,0-4.48.24A5,5,0,0,0,85.14,10a4.32,4.32,0,0,0-.85.59,4.62,4.62,0,0,0-1.09,1.45A4.65,4.65,0,0,0,79,13.83a5.12,5.12,0,0,0-.87,4.51,4.33,4.33,0,0,0-.58.82A4.77,4.77,0,0,0,77,20.92a4.76,4.76,0,0,0-3.5,3.19,5.11,5.11,0,0,0,.68,4.62,5.09,5.09,0,0,0-.18.67,4.83,4.83,0,0,0,0,1.82,5,5,0,0,0-.16,8.47,4.47,4.47,0,0,0,0,.73,4.94,4.94,0,0,0,.59,1.64,5.07,5.07,0,0,0-1,5,4.77,4.77,0,0,0,3.61,3.19,4.39,4.39,0,0,0,.35.84,4.67,4.67,0,0,0,1,1.26,5.11,5.11,0,0,0,.7,5.1,4.63,4.63,0,0,0,4.69,1.65s0,.1,0,.16a2.88,2.88,0,0,0,2.81,2.94,2.77,2.77,0,0,0,2.06-.95l.12.09s0-.13,0-.2a3,3,0,0,0-.66-4.37l-.08-15.27c.37,0,.73,0,1.11,0A31.46,31.46,0,0,0,114.26,28.8a8,8,0,0,0,5.73,5,17.54,17.54,0,0,1,.22,2.73l-.09,20.23a3,3,0,0,0-1.33,2.5,3,3,0,0,0,.68,1.9l0,.18.12-.08a2.76,2.76,0,0,0,2,.94,2.88,2.88,0,0,0,2.82-2.94Z"/>
		<path class="cls-4" d="M88.05,46.26V41.49a4.77,4.77,0,0,0,0,9.54Z"/>
		<path class="cls-4" d="M88.05,43.35a2.85,2.85,0,0,0-2.78,2.91"/>
		<path class="cls-4" d="M120.21,46.26V41.49a4.77,4.77,0,0,1,0,9.54Z"/>
		<path class="cls-4" d="M120.21,43.35A2.85,2.85,0,0,1,123,46.26"/>
		<path class="cls-8" d="M118.48,18.9c-.46,5-1.68,6.16-3.49,8.84"/>
		<line class="cls-9" x1="120.21" y1="29.3" x2="120.21" y2="32.77"/>
		<path class="cls-4" d="M104.13,61.18a3.28,3.28,0,0,1,5.31,2.45c0,2.42-2.38,4.39-5.31,4.39s-5.3-2-5.3-4.39a3.3,3.3,0,0,1,5.3-2.45"/>
		<path class="cls-6" d="M104.09,64.25c-1.87-2.06-4.64,0-6.34-2.06"/>
		<path class="cls-6" d="M110.51,62.19c-1.32,2.06-4.91,0-6.34,2.06"/>
		<line class="cls-4" x1="101.46" y1="56.54" x2="106.72" y2="56.54"/>
		<ellipse class="cls-7" cx="96.53" cy="45.6" rx="1.43" ry="1.49"/>
		<ellipse class="cls-7" cx="111.75" cy="45.6" rx="1.43" ry="1.49"/>
		<path class="cls-4" d="M108.35,43a5,5,0,0,1,7.31,0"/>
		<path class="cls-10" d="M92.88,43a5,5,0,0,1,7.31,0"/>
		<path class="cls-6" d="M92.88,43a5,5,0,0,1,7.31,0"/>
		<ellipse class="cls-11" cx="96.82" cy="45.76" rx="7.41" ry="7.74"/>
		<ellipse class="cls-11" cx="111.68" cy="45.76" rx="7.41" ry="7.74"/>
		<path id="hand_right_" data-name="hand(right)" class="cls-4" d="M11.74,185.45l16.78-2.81-1.2,1.24a2.12,2.12,0,0,0,0,2.74,1.61,1.61,0,0,0,2.44.26L35,181.56l1.18-.19a5.52,5.52,0,0,0,5.57-2.86l30.83-44.6c2.78-3.1,1-9.58-2.07-12s-7.83-3.6-11.07,2L33.21,171.84l-.53.93-5.86,1a19.69,19.69,0,0,0-7.65,3l-8.58,5.7C9.3,183.34,10.22,185.71,11.74,185.45Z"/>
	</g>
</svg>