<?xml version="1.0" standalone="no"?>
<!DOCTYPE svg PUBLIC "-//W3C//DTD SVG 1.1//EN" "http://www.w3.org/Graphics/SVG/1.1/DTD/svg11.dtd" >
<svg xmlns="http://www.w3.org/2000/svg" id="sparkboard_24">
<path id="sparkboard" transform="scale(1,-1)" d="M910.222 910.222h-796.444c-62.578 0-113.778-51.2-113.778-113.778v-540.444c0-79.644 62.578-142.222 142.222-142.222h739.556c79.644 0 142.222 62.578 142.222 142.222v540.444c0 62.578-51.2 113.778-113.778 113.778zM113.778 853.333h796.444c31.289 0 56.889-25.6 56.889-56.889v-455.111h-910.222v455.111c0 31.289 25.6 56.889 56.889 56.889zM967.111 256c0-48.356-36.978-85.333-85.333-85.333h-739.556c-48.356 0-85.333 36.978-85.333 85.333v28.444h910.222v-28.444zM475.022 713.956c2.844 0 2.844-2.844 5.689-5.689 8.533-5.689 19.911-11.378 31.289-11.378 2.844 0 5.689 0 8.533 0s5.689 2.844 8.533 2.844c2.844 0 5.689 2.844 8.533 2.844 2.844 2.844 2.844 2.844 5.689 5.689 2.844 0 2.844 2.844 5.689 5.689 0 2.844 2.844 5.689 2.844 8.533 2.844 2.844 2.844 5.689 2.844 8.533s0 5.689 0 8.533c0 11.378-2.844 22.756-11.378 31.289 0 2.844-2.844 2.844-5.689 5.689-2.844 0-5.689 2.844-8.533 2.844-2.844 2.844-5.689 2.844-8.533 2.844-14.222 2.844-28.444 0-39.822-11.378-5.689-8.533-11.378-19.911-11.378-31.289 0-2.844 0-5.689 0-8.533s2.844-5.689 2.844-8.533c0-2.844 0-5.689 2.844-8.533z" />
</svg>
