<svg width="48" height="48" viewBox="0 0 48 48" fill="none" xmlns="http://www.w3.org/2000/svg">
<rect width="48" height="48" rx="10.5366" fill="url(#paint0_linear)"/>
<g clip-path="url(#clip0)">
<path d="M16.1258 39.0407C8.41212 39.0407 5.78677 29.2854 5.1985 27.3877C3.7212 22.6222 3.2721 18.3295 3.22456 17.879C2.95024 15.2796 5.03504 13.4707 7.32313 13.4707C9.05564 13.4707 11.0663 14.5078 11.3327 17.024C11.3789 17.4473 11.7311 21.0974 12.9771 25.0746C14.2775 29.2254 15.6569 30.8217 16.6503 30.8217C18.2545 30.8217 19.2333 26.7012 20.0986 22.7779C20.7361 19.8874 21.4252 16.9747 22.7857 14.3874C25.1527 9.88627 28.7294 8.83887 31.8193 8.83887C38.5947 8.83887 41.9857 16.6889 41.9857 18.7228C41.9857 22.1216 39.2136 22.9886 38.0121 22.9886C35.3841 22.9886 34.4933 21.2278 33.7435 19.6844C33.0691 18.2959 32.3647 17.1413 31.4539 17.1413C31.1547 17.1413 30.8773 17.293 30.6209 17.5537C28.3573 19.8544 27.5982 31.8903 23.0723 36.4905C20.5632 39.0407 17.8332 39.0407 16.1258 39.0407Z" fill="url(#paint1_linear)"/>
<path d="M16.1258 39.0407C8.41212 39.0407 5.78677 29.2854 5.1985 27.3877C3.7212 22.6222 3.2721 18.3295 3.22456 17.879C2.95024 15.2796 5.03504 13.4707 7.32313 13.4707C9.05564 13.4707 11.0663 14.5078 11.3327 17.024C11.3789 17.4473 11.7311 21.0974 12.9771 25.0746C14.2775 29.2254 15.6569 30.8217 16.6503 30.8217C18.2545 30.8217 19.2333 26.7012 20.0986 22.7779C20.7361 19.8874 21.4252 16.9747 22.7857 14.3874C25.1527 9.88627 28.7294 8.83887 31.8193 8.83887C38.5947 8.83887 41.9857 16.6889 41.9857 18.7228C41.9857 22.1216 39.2136 22.9886 38.0121 22.9886C35.3841 22.9886 34.4933 21.2278 33.7435 19.6844C33.0691 18.2959 32.3647 17.1413 31.4539 17.1413C31.1547 17.1413 30.8773 17.293 30.6209 17.5537C28.3573 19.8544 27.5982 31.8903 23.0723 36.4905C20.5632 39.0407 17.8332 39.0407 16.1258 39.0407Z" fill="url(#paint2_radial)"/>
<path d="M16.1258 39.0407C8.41212 39.0407 5.78677 29.2854 5.1985 27.3877C3.7212 22.6222 3.2721 18.3295 3.22456 17.879C2.95024 15.2796 5.03504 13.4707 7.32313 13.4707C9.05564 13.4707 11.0663 14.5078 11.3327 17.024C11.3789 17.4473 11.7311 21.0974 12.9771 25.0746C14.2775 29.2254 15.6569 30.8217 16.6503 30.8217C18.2545 30.8217 19.2333 26.7012 20.0986 22.7779C20.7361 19.8874 21.4252 16.9747 22.7857 14.3874C25.1527 9.88627 28.7294 8.83887 31.8193 8.83887C38.5947 8.83887 41.9857 16.6889 41.9857 18.7228C41.9857 22.1216 39.2136 22.9886 38.0121 22.9886C35.3841 22.9886 34.4933 21.2278 33.7435 19.6844C33.0691 18.2959 32.3647 17.1413 31.4539 17.1413C31.1547 17.1413 30.8773 17.293 30.6209 17.5537C28.3573 19.8544 27.5982 31.8903 23.0723 36.4905C20.5632 39.0407 17.8332 39.0407 16.1258 39.0407Z" fill="url(#paint3_radial)"/>
<path d="M16.1258 39.0407C8.41212 39.0407 5.78677 29.2854 5.1985 27.3877C3.7212 22.6222 3.2721 18.3295 3.22456 17.879C2.95024 15.2796 5.03504 13.4707 7.32313 13.4707C9.05564 13.4707 11.0663 14.5078 11.3327 17.024C11.3789 17.4473 11.7311 21.0974 12.9771 25.0746C14.2775 29.2254 15.6569 30.8217 16.6503 30.8217C18.2545 30.8217 19.2333 26.7012 20.0986 22.7779C20.7361 19.8874 21.4252 16.9747 22.7857 14.3874C25.1527 9.88627 28.7294 8.83887 31.8193 8.83887C38.5947 8.83887 41.9857 16.6889 41.9857 18.7228C41.9857 22.1216 39.2136 22.9886 38.0121 22.9886C35.3841 22.9886 34.4933 21.2278 33.7435 19.6844C33.0691 18.2959 32.3647 17.1413 31.4539 17.1413C31.1547 17.1413 30.8773 17.293 30.6209 17.5537C28.3573 19.8544 27.5982 31.8903 23.0723 36.4905C20.5632 39.0407 17.8332 39.0407 16.1258 39.0407Z" fill="url(#paint4_radial)"/>
<path d="M16.1258 39.0407C8.41212 39.0407 5.78677 29.2854 5.1985 27.3877C3.7212 22.6222 3.2721 18.3295 3.22456 17.879C2.95024 15.2796 5.03504 13.4707 7.32313 13.4707C9.05564 13.4707 11.0663 14.5078 11.3327 17.024C11.3789 17.4473 11.7311 21.0974 12.9771 25.0746C14.2775 29.2254 15.6569 30.8217 16.6503 30.8217C18.2545 30.8217 19.2333 26.7012 20.0986 22.7779C20.7361 19.8874 21.4252 16.9747 22.7857 14.3874C25.1527 9.88627 28.7294 8.83887 31.8193 8.83887C38.5947 8.83887 41.9857 16.6889 41.9857 18.7228C41.9857 22.1216 39.2136 22.9886 38.0121 22.9886C35.3841 22.9886 34.4933 21.2278 33.7435 19.6844C33.0691 18.2959 32.3647 17.1413 31.4539 17.1413C31.1547 17.1413 30.8773 17.293 30.6209 17.5537C28.3573 19.8544 27.5982 31.8903 23.0723 36.4905C20.5632 39.0407 17.8332 39.0407 16.1258 39.0407Z" fill="url(#paint5_radial)"/>
<path d="M16.1258 39.0407C8.41212 39.0407 5.78677 29.2854 5.1985 27.3877C3.7212 22.6222 3.2721 18.3295 3.22456 17.879C2.95024 15.2796 5.03504 13.4707 7.32313 13.4707C9.05564 13.4707 11.0663 14.5078 11.3327 17.024C11.3789 17.4473 11.7311 21.0974 12.9771 25.0746C14.2775 29.2254 15.6569 30.8217 16.6503 30.8217C18.2545 30.8217 19.2333 26.7012 20.0986 22.7779C20.7361 19.8874 21.4252 16.9747 22.7857 14.3874C25.1527 9.88627 28.7294 8.83887 31.8193 8.83887C38.5947 8.83887 41.9857 16.6889 41.9857 18.7228C41.9857 22.1216 39.2136 22.9886 38.0121 22.9886C35.3841 22.9886 34.4933 21.2278 33.7435 19.6844C33.0691 18.2959 32.3647 17.1413 31.4539 17.1413C31.1547 17.1413 30.8773 17.293 30.6209 17.5537C28.3573 19.8544 27.5982 31.8903 23.0723 36.4905C20.5632 39.0407 17.8332 39.0407 16.1258 39.0407Z" fill="url(#paint6_radial)"/>
<path d="M16.1258 39.0407C8.41212 39.0407 5.78677 29.2854 5.1985 27.3877C3.7212 22.6222 3.2721 18.3295 3.22456 17.879C2.95024 15.2796 5.03504 13.4707 7.32313 13.4707C9.05564 13.4707 11.0663 14.5078 11.3327 17.024C11.3789 17.4473 11.7311 21.0974 12.9771 25.0746C14.2775 29.2254 15.6569 30.8217 16.6503 30.8217C18.2545 30.8217 19.2333 26.7012 20.0986 22.7779C20.7361 19.8874 21.4252 16.9747 22.7857 14.3874C25.1527 9.88627 28.7294 8.83887 31.8193 8.83887C38.5947 8.83887 41.9857 16.6889 41.9857 18.7228C41.9857 22.1216 39.2136 22.9886 38.0121 22.9886C35.3841 22.9886 34.4933 21.2278 33.7435 19.6844C33.0691 18.2959 32.3647 17.1413 31.4539 17.1413C31.1547 17.1413 30.8773 17.293 30.6209 17.5537C28.3573 19.8544 27.5982 31.8903 23.0723 36.4905C20.5632 39.0407 17.8332 39.0407 16.1258 39.0407Z" fill="url(#paint7_radial)"/>
<path d="M16.1258 39.0407C8.41212 39.0407 5.78677 29.2854 5.1985 27.3877C3.7212 22.6222 3.2721 18.3295 3.22456 17.879C2.95024 15.2796 5.03504 13.4707 7.32313 13.4707C9.05564 13.4707 11.0663 14.5078 11.3327 17.024C11.3789 17.4473 11.7311 21.0974 12.9771 25.0746C14.2775 29.2254 15.6569 30.8217 16.6503 30.8217C18.2545 30.8217 19.2333 26.7012 20.0986 22.7779C20.7361 19.8874 21.4252 16.9747 22.7857 14.3874C25.1527 9.88627 28.7294 8.83887 31.8193 8.83887C38.5947 8.83887 41.9857 16.6889 41.9857 18.7228C41.9857 22.1216 39.2136 22.9886 38.0121 22.9886C35.3841 22.9886 34.4933 21.2278 33.7435 19.6844C33.0691 18.2959 32.3647 17.1413 31.4539 17.1413C31.1547 17.1413 30.8773 17.293 30.6209 17.5537C28.3573 19.8544 27.5982 31.8903 23.0723 36.4905C20.5632 39.0407 17.8332 39.0407 16.1258 39.0407Z" fill="url(#paint8_linear)"/>
<path d="M16.1258 39.0407C8.41212 39.0407 5.78677 29.2854 5.1985 27.3877C3.7212 22.6222 3.2721 18.3295 3.22456 17.879C2.95024 15.2796 5.03504 13.4707 7.32313 13.4707C9.05564 13.4707 11.0663 14.5078 11.3327 17.024C11.3789 17.4473 11.7311 21.0974 12.9771 25.0746C14.2775 29.2254 15.6569 30.8217 16.6503 30.8217C18.2545 30.8217 19.2333 26.7012 20.0986 22.7779C20.7361 19.8874 21.4252 16.9747 22.7857 14.3874C25.1527 9.88627 28.7294 8.83887 31.8193 8.83887C38.5947 8.83887 41.9857 16.6889 41.9857 18.7228C41.9857 22.1216 39.2136 22.9886 38.0121 22.9886C35.3841 22.9886 34.4933 21.2278 33.7435 19.6844C33.0691 18.2959 32.3647 17.1413 31.4539 17.1413C31.1547 17.1413 30.8773 17.293 30.6209 17.5537C28.3573 19.8544 27.5982 31.8903 23.0723 36.4905C20.5632 39.0407 17.8332 39.0407 16.1258 39.0407Z" fill="url(#paint9_radial)"/>
<path d="M31.8198 8.83887C28.7299 8.83887 25.1532 9.88627 22.7862 14.3874C21.4257 16.9747 20.7366 19.8874 20.0991 22.7779C19.8892 23.7291 19.6727 24.6917 19.4424 25.6046V38.6825C20.6116 38.3517 21.8677 37.7153 23.0728 36.4905C27.5987 31.8903 28.3578 19.8544 30.6214 17.5537C30.8778 17.293 31.1552 17.1413 31.4544 17.1413C32.3651 17.1413 33.0695 18.2959 33.744 19.6844C34.4938 21.2278 35.3846 22.9886 38.0126 22.9886C39.2141 22.9886 41.9862 22.1216 41.9862 18.7228C41.9862 16.6889 38.5952 8.83887 31.8198 8.83887Z" fill="url(#paint10_radial)"/>
<path d="M16.1258 39.0407C8.41212 39.0407 5.78677 29.2854 5.1985 27.3877C3.7212 22.6222 3.2721 18.3295 3.22456 17.879C2.95024 15.2796 5.03504 13.4707 7.32313 13.4707C9.05564 13.4707 11.0663 14.5078 11.3327 17.024C11.3789 17.4473 11.7311 21.0974 12.9771 25.0746C14.2775 29.2254 15.6569 30.8217 16.6503 30.8217C18.2545 30.8217 19.2333 26.7012 20.0986 22.7779C20.7361 19.8874 21.4252 16.9747 22.7857 14.3874C25.1527 9.88627 28.7294 8.83887 31.8193 8.83887C38.5947 8.83887 41.9857 16.6889 41.9857 18.7228C41.9857 22.1216 39.2136 22.9886 38.0121 22.9886C35.3841 22.9886 34.4933 21.2278 33.7435 19.6844C33.0691 18.2959 32.3647 17.1413 31.4539 17.1413C31.1547 17.1413 30.8773 17.293 30.6209 17.5537C28.3573 19.8544 27.5982 31.8903 23.0723 36.4905C20.5632 39.0407 17.8332 39.0407 16.1258 39.0407Z" fill="url(#paint11_radial)"/>
<path d="M16.1258 39.0407C8.41212 39.0407 5.78677 29.2854 5.1985 27.3877C3.7212 22.6222 3.2721 18.3295 3.22456 17.879C2.95024 15.2796 5.03504 13.4707 7.32313 13.4707C9.05564 13.4707 11.0663 14.5078 11.3327 17.024C11.3789 17.4473 11.7311 21.0974 12.9771 25.0746C14.2775 29.2254 15.6569 30.8217 16.6503 30.8217C18.2545 30.8217 19.2333 26.7012 20.0986 22.7779C20.7361 19.8874 21.4252 16.9747 22.7857 14.3874C25.1527 9.88627 28.7294 8.83887 31.8193 8.83887C38.5947 8.83887 41.9857 16.6889 41.9857 18.7228C41.9857 22.1216 39.2136 22.9886 38.0121 22.9886C35.3841 22.9886 34.4933 21.2278 33.7435 19.6844C33.0691 18.2959 32.3647 17.1413 31.4539 17.1413C31.1547 17.1413 30.8773 17.293 30.6209 17.5537C28.3573 19.8544 27.5982 31.8903 23.0723 36.4905C20.5632 39.0407 17.8332 39.0407 16.1258 39.0407Z" fill="url(#paint12_radial)"/>
<path d="M16.1258 39.0407C8.41212 39.0407 5.78677 29.2854 5.1985 27.3877C3.7212 22.6222 3.2721 18.3295 3.22456 17.879C2.95024 15.2796 5.03504 13.4707 7.32313 13.4707C9.05564 13.4707 11.0663 14.5078 11.3327 17.024C11.3789 17.4473 11.7311 21.0974 12.9771 25.0746C14.2775 29.2254 15.6569 30.8217 16.6503 30.8217C18.2545 30.8217 19.2333 26.7012 20.0986 22.7779C20.7361 19.8874 21.4252 16.9747 22.7857 14.3874C25.1527 9.88627 28.7294 8.83887 31.8193 8.83887C38.5947 8.83887 41.9857 16.6889 41.9857 18.7228C41.9857 22.1216 39.2136 22.9886 38.0121 22.9886C35.3841 22.9886 34.4933 21.2278 33.7435 19.6844C33.0691 18.2959 32.3647 17.1413 31.4539 17.1413C31.1547 17.1413 30.8773 17.293 30.6209 17.5537C28.3573 19.8544 27.5982 31.8903 23.0723 36.4905C20.5632 39.0407 17.8332 39.0407 16.1258 39.0407Z" fill="url(#paint13_radial)"/>
<path d="M16.1258 39.0407C8.41212 39.0407 5.78677 29.2854 5.1985 27.3877C3.7212 22.6222 3.2721 18.3295 3.22456 17.879C2.95024 15.2796 5.03504 13.4707 7.32313 13.4707C9.05564 13.4707 11.0663 14.5078 11.3327 17.024C11.3789 17.4473 11.7311 21.0974 12.9771 25.0746C14.2775 29.2254 15.6569 30.8217 16.6503 30.8217C18.2545 30.8217 19.2333 26.7012 20.0986 22.7779C20.7361 19.8874 21.4252 16.9747 22.7857 14.3874C25.1527 9.88627 28.7294 8.83887 31.8193 8.83887C38.5947 8.83887 41.9857 16.6889 41.9857 18.7228C41.9857 22.1216 39.2136 22.9886 38.0121 22.9886C35.3841 22.9886 34.4933 21.2278 33.7435 19.6844C33.0691 18.2959 32.3647 17.1413 31.4539 17.1413C31.1547 17.1413 30.8773 17.293 30.6209 17.5537C28.3573 19.8544 27.5982 31.8903 23.0723 36.4905C20.5632 39.0407 17.8332 39.0407 16.1258 39.0407Z" fill="url(#paint14_radial)"/>
<path d="M16.1258 39.0407C8.41212 39.0407 5.78677 29.2854 5.1985 27.3877C3.7212 22.6222 3.2721 18.3295 3.22456 17.879C2.95024 15.2796 5.03504 13.4707 7.32313 13.4707C9.05564 13.4707 11.0663 14.5078 11.3327 17.024C11.3789 17.4473 11.7311 21.0974 12.9771 25.0746C14.2775 29.2254 15.6569 30.8217 16.6503 30.8217C18.2545 30.8217 19.2333 26.7012 20.0986 22.7779C20.7361 19.8874 21.4252 16.9747 22.7857 14.3874C25.1527 9.88627 28.7294 8.83887 31.8193 8.83887C38.5947 8.83887 41.9857 16.6889 41.9857 18.7228C41.9857 22.1216 39.2136 22.9886 38.0121 22.9886C35.3841 22.9886 34.4933 21.2278 33.7435 19.6844C33.0691 18.2959 32.3647 17.1413 31.4539 17.1413C31.1547 17.1413 30.8773 17.293 30.6209 17.5537C28.3573 19.8544 27.5982 31.8903 23.0723 36.4905C20.5632 39.0407 17.8332 39.0407 16.1258 39.0407Z" fill="url(#paint15_radial)"/>
<path d="M40.7366 13.4707C40.4313 13.4707 40.124 13.4996 39.8227 13.5589C41.2549 15.6242 41.9716 17.7877 41.9716 18.7225C41.9716 22.1214 39.1994 22.9884 37.9979 22.9884C37.0603 22.9884 36.3439 22.7641 35.7761 22.4057C35.7708 22.4269 35.7656 22.448 35.7603 22.4693C35.5914 23.1439 35.4581 23.8822 35.2274 24.6006C34.7838 25.982 34.1855 27.56 33.5465 28.781C32.8578 30.0974 32.1759 30.8676 31.3632 30.8272C30.4389 30.7813 29.6895 29.5899 28.7581 26.2227C28.4577 25.137 28.1796 23.9467 27.9218 22.7779C27.2825 19.8788 26.4977 16.9635 25.1558 14.3874C22.9641 10.1799 19.2253 8.83887 16.2405 8.83887C13.4723 8.83887 11.4042 10.1495 9.7796 11.8007C9.33064 12.257 8.84021 12.8718 8.34766 13.5943C9.76464 13.9357 11.1045 15.0023 11.3185 17.0238C11.3606 17.4092 11.6564 20.4705 12.6499 24.0179C12.9349 23.1285 13.3506 21.8114 14.3162 19.6844C14.7894 18.7103 15.2165 18.068 15.6018 17.6763C15.9552 17.3172 16.2735 17.1688 16.5599 17.1688C16.869 17.1688 17.9241 17.4517 18.9513 21.0563C20.2252 25.5261 21.1733 32.6398 24.7853 36.4168C26.3784 38.0829 28.6079 39.1608 31.6977 39.1608C34.4089 39.1608 36.6693 37.9667 38.2809 36.3058C40.9307 33.5744 42.3827 29.0587 42.9006 27.3877C44.3744 22.6336 44.7872 18.3339 44.8352 17.879C45.1095 15.2796 42.9197 13.4707 40.7366 13.4707Z" fill="#316AFF"/>
<path d="M40.7366 13.4707C40.4313 13.4707 40.124 13.4996 39.8227 13.5589C41.2549 15.6242 41.9716 17.7877 41.9716 18.7225C41.9716 22.1214 39.1994 22.9884 37.9979 22.9884C37.0603 22.9884 36.3439 22.7641 35.7761 22.4057C35.7708 22.4269 35.7656 22.448 35.7603 22.4693C35.5914 23.1439 35.4581 23.8822 35.2274 24.6006C34.7838 25.982 34.1855 27.56 33.5465 28.781C32.8578 30.0974 32.1759 30.8676 31.3632 30.8272C30.4389 30.7813 29.6895 29.5899 28.7581 26.2227C28.4577 25.137 28.1796 23.9467 27.9218 22.7779C27.2825 19.8788 26.4977 16.9635 25.1558 14.3874C22.9641 10.1799 19.2253 8.83887 16.2405 8.83887C13.4723 8.83887 11.4042 10.1495 9.7796 11.8007C9.33064 12.257 8.84021 12.8718 8.34766 13.5943C9.76464 13.9357 11.1045 15.0023 11.3185 17.0238C11.3606 17.4092 11.6564 20.4705 12.6499 24.0179C12.9349 23.1285 13.3506 21.8114 14.3162 19.6844C14.7894 18.7103 15.2165 18.068 15.6018 17.6763C15.9552 17.3172 16.2735 17.1688 16.5599 17.1688C16.869 17.1688 17.9241 17.4517 18.9513 21.0563C20.2252 25.5261 21.1733 32.6398 24.7853 36.4168C26.3784 38.0829 28.6079 39.1608 31.6977 39.1608C34.4089 39.1608 36.6693 37.9667 38.2809 36.3058C40.9307 33.5744 42.3827 29.0587 42.9006 27.3877C44.3744 22.6336 44.7872 18.3339 44.8352 17.879C45.1095 15.2796 42.9197 13.4707 40.7366 13.4707Z" fill="url(#paint16_radial)"/>
<path d="M40.7366 13.4707C40.4313 13.4707 40.124 13.4996 39.8227 13.5589C41.2549 15.6242 41.9716 17.7877 41.9716 18.7225C41.9716 22.1214 39.1994 22.9884 37.9979 22.9884C37.0603 22.9884 36.3439 22.7641 35.7761 22.4057C35.7708 22.4269 35.7656 22.448 35.7603 22.4693C35.5914 23.1439 35.4581 23.8822 35.2274 24.6006C34.7838 25.982 34.1855 27.56 33.5465 28.781C32.8578 30.0974 32.1759 30.8676 31.3632 30.8272C30.4389 30.7813 29.6895 29.5899 28.7581 26.2227C28.4577 25.137 28.1796 23.9467 27.9218 22.7779C27.2825 19.8788 26.4977 16.9635 25.1558 14.3874C22.9641 10.1799 19.2253 8.83887 16.2405 8.83887C13.4723 8.83887 11.4042 10.1495 9.7796 11.8007C9.33064 12.257 8.84021 12.8718 8.34766 13.5943C9.76464 13.9357 11.1045 15.0023 11.3185 17.0238C11.3606 17.4092 11.6564 20.4705 12.6499 24.0179C12.9349 23.1285 13.3506 21.8114 14.3162 19.6844C14.7894 18.7103 15.2165 18.068 15.6018 17.6763C15.9552 17.3172 16.2735 17.1688 16.5599 17.1688C16.869 17.1688 17.9241 17.4517 18.9513 21.0563C20.2252 25.5261 21.1733 32.6398 24.7853 36.4168C26.3784 38.0829 28.6079 39.1608 31.6977 39.1608C34.4089 39.1608 36.6693 37.9667 38.2809 36.3058C40.9307 33.5744 42.3827 29.0587 42.9006 27.3877C44.3744 22.6336 44.7872 18.3339 44.8352 17.879C45.1095 15.2796 42.9197 13.4707 40.7366 13.4707Z" fill="url(#paint17_radial)"/>
<path d="M40.7366 13.4707C40.4313 13.4707 40.124 13.4996 39.8227 13.5589C41.2549 15.6242 41.9716 17.7877 41.9716 18.7225C41.9716 22.1214 39.1994 22.9884 37.9979 22.9884C37.0603 22.9884 36.3439 22.7641 35.7761 22.4057C35.7708 22.4269 35.7656 22.448 35.7603 22.4693C35.5914 23.1439 35.4581 23.8822 35.2274 24.6006C34.7838 25.982 34.1855 27.56 33.5465 28.781C32.8578 30.0974 32.1759 30.8676 31.3632 30.8272C30.4389 30.7813 29.6895 29.5899 28.7581 26.2227C28.4577 25.137 28.1796 23.9467 27.9218 22.7779C27.2825 19.8788 26.4977 16.9635 25.1558 14.3874C22.9641 10.1799 19.2253 8.83887 16.2405 8.83887C13.4723 8.83887 11.4042 10.1495 9.7796 11.8007C9.33064 12.257 8.84021 12.8718 8.34766 13.5943C9.76464 13.9357 11.1045 15.0023 11.3185 17.0238C11.3606 17.4092 11.6564 20.4705 12.6499 24.0179C12.9349 23.1285 13.3506 21.8114 14.3162 19.6844C14.7894 18.7103 15.2165 18.068 15.6018 17.6763C15.9552 17.3172 16.2735 17.1688 16.5599 17.1688C16.869 17.1688 17.9241 17.4517 18.9513 21.0563C20.2252 25.5261 21.1733 32.6398 24.7853 36.4168C26.3784 38.0829 28.6079 39.1608 31.6977 39.1608C34.4089 39.1608 36.6693 37.9667 38.2809 36.3058C40.9307 33.5744 42.3827 29.0587 42.9006 27.3877C44.3744 22.6336 44.7872 18.3339 44.8352 17.879C45.1095 15.2796 42.9197 13.4707 40.7366 13.4707Z" fill="url(#paint18_radial)"/>
<path d="M40.7366 13.4707C40.4313 13.4707 40.124 13.4996 39.8227 13.5589C41.2549 15.6242 41.9716 17.7877 41.9716 18.7225C41.9716 22.1214 39.1994 22.9884 37.9979 22.9884C37.0603 22.9884 36.3439 22.7641 35.7761 22.4057C35.7708 22.4269 35.7656 22.448 35.7603 22.4693C35.5914 23.1439 35.4581 23.8822 35.2274 24.6006C34.7838 25.982 34.1855 27.56 33.5465 28.781C32.8578 30.0974 32.1759 30.8676 31.3632 30.8272C30.4389 30.7813 29.6895 29.5899 28.7581 26.2227C28.4577 25.137 28.1796 23.9467 27.9218 22.7779C27.2825 19.8788 26.4977 16.9635 25.1558 14.3874C22.9641 10.1799 19.2253 8.83887 16.2405 8.83887C13.4723 8.83887 11.4042 10.1495 9.7796 11.8007C9.33064 12.257 8.84021 12.8718 8.34766 13.5943C9.76464 13.9357 11.1045 15.0023 11.3185 17.0238C11.3606 17.4092 11.6564 20.4705 12.6499 24.0179C12.9349 23.1285 13.3506 21.8114 14.3162 19.6844C14.7894 18.7103 15.2165 18.068 15.6018 17.6763C15.9552 17.3172 16.2735 17.1688 16.5599 17.1688C16.869 17.1688 17.9241 17.4517 18.9513 21.0563C20.2252 25.5261 21.1733 32.6398 24.7853 36.4168C26.3784 38.0829 28.6079 39.1608 31.6977 39.1608C34.4089 39.1608 36.6693 37.9667 38.2809 36.3058C40.9307 33.5744 42.3827 29.0587 42.9006 27.3877C44.3744 22.6336 44.7872 18.3339 44.8352 17.879C45.1095 15.2796 42.9197 13.4707 40.7366 13.4707Z" fill="url(#paint19_radial)"/>
<path d="M40.7366 13.4707C40.4313 13.4707 40.124 13.4996 39.8227 13.5589C41.2549 15.6242 41.9716 17.7877 41.9716 18.7225C41.9716 22.1214 39.1994 22.9884 37.9979 22.9884C37.0603 22.9884 36.3439 22.7641 35.7761 22.4057C35.7708 22.4269 35.7656 22.448 35.7603 22.4693C35.5914 23.1439 35.4581 23.8822 35.2274 24.6006C34.7838 25.982 34.1855 27.56 33.5465 28.781C32.8578 30.0974 32.1759 30.8676 31.3632 30.8272C30.4389 30.7813 29.6895 29.5899 28.7581 26.2227C28.4577 25.137 28.1796 23.9467 27.9218 22.7779C27.2825 19.8788 26.4977 16.9635 25.1558 14.3874C22.9641 10.1799 19.2253 8.83887 16.2405 8.83887C13.4723 8.83887 11.4042 10.1495 9.7796 11.8007C9.33064 12.257 8.84021 12.8718 8.34766 13.5943C9.76464 13.9357 11.1045 15.0023 11.3185 17.0238C11.3606 17.4092 11.6564 20.4705 12.6499 24.0179C12.9349 23.1285 13.3506 21.8114 14.3162 19.6844C14.7894 18.7103 15.2165 18.068 15.6018 17.6763C15.9552 17.3172 16.2735 17.1688 16.5599 17.1688C16.869 17.1688 17.9241 17.4517 18.9513 21.0563C20.2252 25.5261 21.1733 32.6398 24.7853 36.4168C26.3784 38.0829 28.6079 39.1608 31.6977 39.1608C34.4089 39.1608 36.6693 37.9667 38.2809 36.3058C40.9307 33.5744 42.3827 29.0587 42.9006 27.3877C44.3744 22.6336 44.7872 18.3339 44.8352 17.879C45.1095 15.2796 42.9197 13.4707 40.7366 13.4707Z" fill="url(#paint20_radial)"/>
<path d="M40.7366 13.4707C40.4313 13.4707 40.124 13.4996 39.8227 13.5589C41.2549 15.6242 41.9716 17.7877 41.9716 18.7225C41.9716 22.1214 39.1994 22.9884 37.9979 22.9884C37.0603 22.9884 36.3439 22.7641 35.7761 22.4057C35.7708 22.4269 35.7656 22.448 35.7603 22.4693C35.5914 23.1439 35.4581 23.8822 35.2274 24.6006C34.7838 25.982 34.1855 27.56 33.5465 28.781C32.8578 30.0974 32.1759 30.8676 31.3632 30.8272C30.4389 30.7813 29.6895 29.5899 28.7581 26.2227C28.4577 25.137 28.1796 23.9467 27.9218 22.7779C27.2825 19.8788 26.4977 16.9635 25.1558 14.3874C22.9641 10.1799 19.2253 8.83887 16.2405 8.83887C13.4723 8.83887 11.4042 10.1495 9.7796 11.8007C9.33064 12.257 8.84021 12.8718 8.34766 13.5943C9.76464 13.9357 11.1045 15.0023 11.3185 17.0238C11.3606 17.4092 11.6564 20.4705 12.6499 24.0179C12.9349 23.1285 13.3506 21.8114 14.3162 19.6844C14.7894 18.7103 15.2165 18.068 15.6018 17.6763C15.9552 17.3172 16.2735 17.1688 16.5599 17.1688C16.869 17.1688 17.9241 17.4517 18.9513 21.0563C20.2252 25.5261 21.1733 32.6398 24.7853 36.4168C26.3784 38.0829 28.6079 39.1608 31.6977 39.1608C34.4089 39.1608 36.6693 37.9667 38.2809 36.3058C40.9307 33.5744 42.3827 29.0587 42.9006 27.3877C44.3744 22.6336 44.7872 18.3339 44.8352 17.879C45.1095 15.2796 42.9197 13.4707 40.7366 13.4707Z" fill="url(#paint21_radial)"/>
<path d="M40.7366 13.4707C40.4313 13.4707 40.124 13.4996 39.8227 13.5589C41.2549 15.6242 41.9716 17.7877 41.9716 18.7225C41.9716 22.1214 39.1994 22.9884 37.9979 22.9884C37.0603 22.9884 36.3439 22.7641 35.7761 22.4057C35.7708 22.4269 35.7656 22.448 35.7603 22.4693C35.5914 23.1439 35.4581 23.8822 35.2274 24.6006C34.7838 25.982 34.1855 27.56 33.5465 28.781C32.8578 30.0974 32.1759 30.8676 31.3632 30.8272C30.4389 30.7813 29.6895 29.5899 28.7581 26.2227C28.4577 25.137 28.1796 23.9467 27.9218 22.7779C27.2825 19.8788 26.4977 16.9635 25.1558 14.3874C22.9641 10.1799 19.2253 8.83887 16.2405 8.83887C13.4723 8.83887 11.4042 10.1495 9.7796 11.8007C9.33064 12.257 8.84021 12.8718 8.34766 13.5943C9.76464 13.9357 11.1045 15.0023 11.3185 17.0238C11.3606 17.4092 11.6564 20.4705 12.6499 24.0179C12.9349 23.1285 13.3506 21.8114 14.3162 19.6844C14.7894 18.7103 15.2165 18.068 15.6018 17.6763C15.9552 17.3172 16.2735 17.1688 16.5599 17.1688C16.869 17.1688 17.9241 17.4517 18.9513 21.0563C20.2252 25.5261 21.1733 32.6398 24.7853 36.4168C26.3784 38.0829 28.6079 39.1608 31.6977 39.1608C34.4089 39.1608 36.6693 37.9667 38.2809 36.3058C40.9307 33.5744 42.3827 29.0587 42.9006 27.3877C44.3744 22.6336 44.7872 18.3339 44.8352 17.879C45.1095 15.2796 42.9197 13.4707 40.7366 13.4707Z" fill="url(#paint22_radial)"/>
<path d="M40.7366 13.4707C40.4313 13.4707 40.124 13.4996 39.8227 13.5589C41.2549 15.6242 41.9716 17.7877 41.9716 18.7225C41.9716 22.1214 39.1994 22.9884 37.9979 22.9884C37.0603 22.9884 36.3439 22.7641 35.7761 22.4057C35.7708 22.4269 35.7656 22.448 35.7603 22.4693C35.5914 23.1439 35.4581 23.8822 35.2274 24.6006C34.7838 25.982 34.1855 27.56 33.5465 28.781C32.8578 30.0974 32.1759 30.8676 31.3632 30.8272C30.4389 30.7813 29.6895 29.5899 28.7581 26.2227C28.4577 25.137 28.1796 23.9467 27.9218 22.7779C27.2825 19.8788 26.4977 16.9635 25.1558 14.3874C22.9641 10.1799 19.2253 8.83887 16.2405 8.83887C13.4723 8.83887 11.4042 10.1495 9.7796 11.8007C9.33064 12.257 8.84021 12.8718 8.34766 13.5943C9.76464 13.9357 11.1045 15.0023 11.3185 17.0238C11.3606 17.4092 11.6564 20.4705 12.6499 24.0179C12.9349 23.1285 13.3506 21.8114 14.3162 19.6844C14.7894 18.7103 15.2165 18.068 15.6018 17.6763C15.9552 17.3172 16.2735 17.1688 16.5599 17.1688C16.869 17.1688 17.9241 17.4517 18.9513 21.0563C20.2252 25.5261 21.1733 32.6398 24.7853 36.4168C26.3784 38.0829 28.6079 39.1608 31.6977 39.1608C34.4089 39.1608 36.6693 37.9667 38.2809 36.3058C40.9307 33.5744 42.3827 29.0587 42.9006 27.3877C44.3744 22.6336 44.7872 18.3339 44.8352 17.879C45.1095 15.2796 42.9197 13.4707 40.7366 13.4707Z" fill="url(#paint23_radial)"/>
<path d="M40.7366 13.4707C40.4313 13.4707 40.124 13.4996 39.8227 13.5589C41.2549 15.6242 41.9716 17.7877 41.9716 18.7225C41.9716 22.1214 39.1994 22.9884 37.9979 22.9884C37.0603 22.9884 36.3439 22.7641 35.7761 22.4057C35.7708 22.4269 35.7656 22.448 35.7603 22.4693C35.5914 23.1439 35.4581 23.8822 35.2274 24.6006C34.7838 25.982 34.1855 27.56 33.5465 28.781C32.8578 30.0974 32.1759 30.8676 31.3632 30.8272C30.4389 30.7813 29.6895 29.5899 28.7581 26.2227C28.4577 25.137 28.1796 23.9467 27.9218 22.7779C27.2825 19.8788 26.4977 16.9635 25.1558 14.3874C22.9641 10.1799 19.2253 8.83887 16.2405 8.83887C13.4723 8.83887 11.4042 10.1495 9.7796 11.8007C9.33064 12.257 8.84021 12.8718 8.34766 13.5943C9.76464 13.9357 11.1045 15.0023 11.3185 17.0238C11.3606 17.4092 11.6564 20.4705 12.6499 24.0179C12.9349 23.1285 13.3506 21.8114 14.3162 19.6844C14.7894 18.7103 15.2165 18.068 15.6018 17.6763C15.9552 17.3172 16.2735 17.1688 16.5599 17.1688C16.869 17.1688 17.9241 17.4517 18.9513 21.0563C20.2252 25.5261 21.1733 32.6398 24.7853 36.4168C26.3784 38.0829 28.6079 39.1608 31.6977 39.1608C34.4089 39.1608 36.6693 37.9667 38.2809 36.3058C40.9307 33.5744 42.3827 29.0587 42.9006 27.3877C44.3744 22.6336 44.7872 18.3339 44.8352 17.879C45.1095 15.2796 42.9197 13.4707 40.7366 13.4707Z" fill="url(#paint24_radial)"/>
<path d="M40.7366 13.4707C40.4313 13.4707 40.124 13.4996 39.8227 13.5589C41.2549 15.6242 41.9716 17.7877 41.9716 18.7225C41.9716 22.1214 39.1994 22.9884 37.9979 22.9884C37.0603 22.9884 36.3439 22.7641 35.7761 22.4057C35.7708 22.4269 35.7656 22.448 35.7603 22.4693C35.5914 23.1439 35.4581 23.8822 35.2274 24.6006C34.7838 25.982 34.1855 27.56 33.5465 28.781C32.8578 30.0974 32.1759 30.8676 31.3632 30.8272C30.4389 30.7813 29.6895 29.5899 28.7581 26.2227C28.4577 25.137 28.1796 23.9467 27.9218 22.7779C27.2825 19.8788 26.4977 16.9635 25.1558 14.3874C22.9641 10.1799 19.2253 8.83887 16.2405 8.83887C13.4723 8.83887 11.4042 10.1495 9.7796 11.8007C9.33064 12.257 8.84021 12.8718 8.34766 13.5943C9.76464 13.9357 11.1045 15.0023 11.3185 17.0238C11.3606 17.4092 11.6564 20.4705 12.6499 24.0179C12.9349 23.1285 13.3506 21.8114 14.3162 19.6844C14.7894 18.7103 15.2165 18.068 15.6018 17.6763C15.9552 17.3172 16.2735 17.1688 16.5599 17.1688C16.869 17.1688 17.9241 17.4517 18.9513 21.0563C20.2252 25.5261 21.1733 32.6398 24.7853 36.4168C26.3784 38.0829 28.6079 39.1608 31.6977 39.1608C34.4089 39.1608 36.6693 37.9667 38.2809 36.3058C40.9307 33.5744 42.3827 29.0587 42.9006 27.3877C44.3744 22.6336 44.7872 18.3339 44.8352 17.879C45.1095 15.2796 42.9197 13.4707 40.7366 13.4707Z" fill="url(#paint25_radial)"/>
<path d="M16.1258 39.0407C8.41212 39.0407 5.78677 29.2854 5.1985 27.3877C3.7212 22.6222 3.2721 18.3295 3.22456 17.879C2.95024 15.2796 5.03504 13.4707 7.32313 13.4707C9.05564 13.4707 11.0663 14.5078 11.3327 17.024C11.379 17.4473 11.7311 21.0974 12.9771 25.0746C14.2775 29.2254 15.6569 30.8217 16.6503 30.8217C18.2545 30.8217 19.2333 26.7012 20.0986 22.7779C20.7361 19.8874 21.4252 16.9747 22.7857 14.3874C25.1527 9.88627 28.7294 8.83887 31.8193 8.83887C38.5947 8.83887 41.9857 16.6889 41.9857 18.7228C41.9857 22.1216 39.2136 22.9886 38.0121 22.9886C35.3841 22.9886 34.4933 21.2278 33.7435 19.6844C33.0691 18.2959 32.3647 17.1413 31.4539 17.1413C31.1547 17.1413 30.8773 17.293 30.6209 17.5537C28.3573 19.8544 27.5982 31.8903 23.0723 36.4905C20.5632 39.0407 17.8332 39.0407 16.1258 39.0407Z" fill="url(#paint26_linear)"/>
<path d="M16.1258 39.0407C8.41212 39.0407 5.78677 29.2854 5.1985 27.3877C3.7212 22.6222 3.2721 18.3295 3.22456 17.879C2.95024 15.2796 5.03504 13.4707 7.32313 13.4707C9.05564 13.4707 11.0663 14.5078 11.3327 17.024C11.379 17.4473 11.7311 21.0974 12.9771 25.0746C14.2775 29.2254 15.6569 30.8217 16.6503 30.8217C18.2545 30.8217 19.2333 26.7012 20.0986 22.7779C20.7361 19.8874 21.4252 16.9747 22.7857 14.3874C25.1527 9.88627 28.7294 8.83887 31.8193 8.83887C38.5947 8.83887 41.9857 16.6889 41.9857 18.7228C41.9857 22.1216 39.2136 22.9886 38.0121 22.9886C35.3841 22.9886 34.4933 21.2278 33.7435 19.6844C33.0691 18.2959 32.3647 17.1413 31.4539 17.1413C31.1547 17.1413 30.8773 17.293 30.6209 17.5537C28.3573 19.8544 27.5982 31.8903 23.0723 36.4905C20.5632 39.0407 17.8332 39.0407 16.1258 39.0407Z" fill="url(#paint27_radial)"/>
<path d="M16.1258 39.0407C8.41212 39.0407 5.78677 29.2854 5.1985 27.3877C3.7212 22.6222 3.2721 18.3295 3.22456 17.879C2.95024 15.2796 5.03504 13.4707 7.32313 13.4707C9.05564 13.4707 11.0663 14.5078 11.3327 17.024C11.379 17.4473 11.7311 21.0974 12.9771 25.0746C14.2775 29.2254 15.6569 30.8217 16.6503 30.8217C18.2545 30.8217 19.2333 26.7012 20.0986 22.7779C20.7361 19.8874 21.4252 16.9747 22.7857 14.3874C25.1527 9.88627 28.7294 8.83887 31.8193 8.83887C38.5947 8.83887 41.9857 16.6889 41.9857 18.7228C41.9857 22.1216 39.2136 22.9886 38.0121 22.9886C35.3841 22.9886 34.4933 21.2278 33.7435 19.6844C33.0691 18.2959 32.3647 17.1413 31.4539 17.1413C31.1547 17.1413 30.8773 17.293 30.6209 17.5537C28.3573 19.8544 27.5982 31.8903 23.0723 36.4905C20.5632 39.0407 17.8332 39.0407 16.1258 39.0407Z" fill="url(#paint28_linear)"/>
<path d="M16.1258 39.0407C8.41212 39.0407 5.78677 29.2854 5.1985 27.3877C3.7212 22.6222 3.2721 18.3295 3.22456 17.879C2.95024 15.2796 5.03504 13.4707 7.32313 13.4707C9.05564 13.4707 11.0663 14.5078 11.3327 17.024C11.379 17.4473 11.7311 21.0974 12.9771 25.0746C14.2775 29.2254 15.6569 30.8217 16.6503 30.8217C18.2545 30.8217 19.2333 26.7012 20.0986 22.7779C20.7361 19.8874 21.4252 16.9747 22.7857 14.3874C25.1527 9.88627 28.7294 8.83887 31.8193 8.83887C38.5947 8.83887 41.9857 16.6889 41.9857 18.7228C41.9857 22.1216 39.2136 22.9886 38.0121 22.9886C35.3841 22.9886 34.4933 21.2278 33.7435 19.6844C33.0691 18.2959 32.3647 17.1413 31.4539 17.1413C31.1547 17.1413 30.8773 17.293 30.6209 17.5537C28.3573 19.8544 27.5982 31.8903 23.0723 36.4905C20.5632 39.0407 17.8332 39.0407 16.1258 39.0407Z" fill="url(#paint29_linear)"/>
<path d="M16.1258 39.0407C8.41212 39.0407 5.78677 29.2854 5.1985 27.3877C3.7212 22.6222 3.2721 18.3295 3.22456 17.879C2.95024 15.2796 5.03504 13.4707 7.32313 13.4707C9.05564 13.4707 11.0663 14.5078 11.3327 17.024C11.379 17.4473 11.7311 21.0974 12.9771 25.0746C14.2775 29.2254 15.6569 30.8217 16.6503 30.8217C18.2545 30.8217 19.2333 26.7012 20.0986 22.7779C20.7361 19.8874 21.4252 16.9747 22.7857 14.3874C25.1527 9.88627 28.7294 8.83887 31.8193 8.83887C38.5947 8.83887 41.9857 16.6889 41.9857 18.7228C41.9857 22.1216 39.2136 22.9886 38.0121 22.9886C35.3841 22.9886 34.4933 21.2278 33.7435 19.6844C33.0691 18.2959 32.3647 17.1413 31.4539 17.1413C31.1547 17.1413 30.8773 17.293 30.6209 17.5537C28.3573 19.8544 27.5982 31.8903 23.0723 36.4905C20.5632 39.0407 17.8332 39.0407 16.1258 39.0407Z" fill="url(#paint30_radial)"/>
</g>
<path d="M28.3906 33.6589C28.3906 30.7493 30.7493 28.3906 33.6589 28.3906H48.0004V37.4638C48.0004 43.283 43.283 48.0004 37.4638 48.0004H28.3906V33.6589Z" fill="white"/>
<path d="M35.5812 35.1807L34.1988 40.1455L32.8333 35.1807H31.375L33.3137 41.2497H35.008L36.9467 35.1807H35.5812Z" fill="black"/>
<path d="M37.4536 35.1807V41.2497H39.7464C41.643 41.2497 42.7556 40.3394 42.7556 38.2152C42.7556 36.1416 41.6935 35.1807 39.7295 35.1807H37.4536ZM39.7295 36.1585C40.7073 36.1585 41.3311 36.7822 41.3311 38.2152C41.3311 39.6482 40.7242 40.2635 39.7464 40.2635H38.8697V36.1585H39.7295Z" fill="black"/>
<path d="M43.5945 35.1807V41.2497H45.0106V35.1807H43.5945Z" fill="black"/>
<defs>
<linearGradient id="paint0_linear" x1="24" y1="0" x2="24" y2="48" gradientUnits="userSpaceOnUse">
<stop stop-color="#313131"/>
<stop offset="1" stop-color="#070707"/>
<stop offset="1" stop-color="#020202"/>
</linearGradient>
<linearGradient id="paint1_linear" x1="37.7651" y1="17.7001" x2="10.516" y2="26.6365" gradientUnits="userSpaceOnUse">
<stop stop-color="#5CEE64"/>
<stop offset="1" stop-color="#00BBFF"/>
</linearGradient>
<radialGradient id="paint2_radial" cx="0" cy="0" r="1" gradientUnits="userSpaceOnUse" gradientTransform="translate(19.0563 24.9449) rotate(-120.86) scale(17.8511 14.9858)">
<stop stop-color="#007383"/>
<stop offset="0.407867" stop-color="#00717E" stop-opacity="0.75"/>
<stop offset="0.874482" stop-color="#007281" stop-opacity="0"/>
</radialGradient>
<radialGradient id="paint3_radial" cx="0" cy="0" r="1" gradientUnits="userSpaceOnUse" gradientTransform="translate(30.785 21.6233) rotate(-126.734) scale(14.5582 9.56552)">
<stop stop-color="#218970"/>
<stop offset="0.459527" stop-color="#267E6A"/>
<stop offset="1" stop-color="#026C51" stop-opacity="0"/>
</radialGradient>
<radialGradient id="paint4_radial" cx="0" cy="0" r="1" gradientUnits="userSpaceOnUse" gradientTransform="translate(18.0283 25.7883) rotate(-107.468) scale(11.8569 6.1771)">
<stop stop-color="#178697"/>
<stop offset="0.407867" stop-color="#17838F" stop-opacity="0.79"/>
<stop offset="0.874482" stop-color="#007281" stop-opacity="0"/>
</radialGradient>
<radialGradient id="paint5_radial" cx="0" cy="0" r="1" gradientUnits="userSpaceOnUse" gradientTransform="translate(23.2998 25.7251) rotate(-120.86) scale(30.1102 9.28797)">
<stop stop-color="#25342F" stop-opacity="0.3"/>
<stop offset="1" stop-color="#25342F" stop-opacity="0"/>
</radialGradient>
<radialGradient id="paint6_radial" cx="0" cy="0" r="1" gradientUnits="userSpaceOnUse" gradientTransform="translate(28.6708 21.9535) rotate(85.0979) scale(11.3404 6.43211)">
<stop stop-color="#056D4F"/>
<stop offset="0.232593" stop-color="#056C4E" stop-opacity="0.75"/>
<stop offset="0.598902" stop-color="#056C4E" stop-opacity="0.300824"/>
<stop offset="0.874482" stop-color="#056C4F" stop-opacity="0"/>
</radialGradient>
<radialGradient id="paint7_radial" cx="0" cy="0" r="1" gradientUnits="userSpaceOnUse" gradientTransform="translate(29.1725 3.61307) rotate(57.0774) scale(13.3308 6.99202)">
<stop stop-color="#22B67B"/>
<stop offset="0.407867" stop-color="#24BE82"/>
<stop offset="1" stop-color="#24BE82" stop-opacity="0.07"/>
</radialGradient>
<linearGradient id="paint8_linear" x1="-7.04945" y1="23.6763" x2="12.2614" y2="23.8351" gradientUnits="userSpaceOnUse">
<stop stop-color="#09F8FF"/>
<stop offset="1" stop-color="#0BF7F9" stop-opacity="0"/>
</linearGradient>
<radialGradient id="paint9_radial" cx="0" cy="0" r="1" gradientUnits="userSpaceOnUse" gradientTransform="translate(-2.90089 6.28289) rotate(49.6506) scale(17.4108 17.3673)">
<stop stop-color="#09F8FF"/>
<stop offset="1" stop-color="#0BF7F9" stop-opacity="0"/>
</radialGradient>
<radialGradient id="paint10_radial" cx="0" cy="0" r="1" gradientUnits="userSpaceOnUse" gradientTransform="translate(11.0461 -2.48297) rotate(48.0118) scale(35.3126 35.2569)">
<stop stop-color="#00B8FF"/>
<stop offset="0.745423" stop-color="#00B9FC" stop-opacity="0"/>
</radialGradient>
<radialGradient id="paint11_radial" cx="0" cy="0" r="1" gradientUnits="userSpaceOnUse" gradientTransform="translate(12.9153 24.003) rotate(-107.468) scale(17.0211 11.7937)">
<stop stop-color="#00BCFF" stop-opacity="0.76"/>
<stop offset="0.57273" stop-color="#00BAFC" stop-opacity="0"/>
</radialGradient>
<radialGradient id="paint12_radial" cx="0" cy="0" r="1" gradientUnits="userSpaceOnUse" gradientTransform="translate(38.792 17.5384) rotate(-129.551) scale(12.0363 8.4266)">
<stop stop-color="#5FEC50"/>
<stop offset="1" stop-color="#3CC08E" stop-opacity="0"/>
</radialGradient>
<radialGradient id="paint13_radial" cx="0" cy="0" r="1" gradientUnits="userSpaceOnUse" gradientTransform="translate(37.0692 25.2909) rotate(-79.0944) scale(3.64396 2.52033)">
<stop stop-color="#28855B"/>
<stop offset="1" stop-color="#14795C" stop-opacity="0"/>
</radialGradient>
<radialGradient id="paint14_radial" cx="0" cy="0" r="1" gradientUnits="userSpaceOnUse" gradientTransform="translate(36.8935 25.0226) rotate(-77.8798) scale(3.00402 4.19823)">
<stop stop-color="#28855B"/>
<stop offset="1" stop-color="#14795C" stop-opacity="0"/>
</radialGradient>
<radialGradient id="paint15_radial" cx="0" cy="0" r="1" gradientUnits="userSpaceOnUse" gradientTransform="translate(40.4722 19.6108) rotate(-132.79) scale(9.96507 7.00056)">
<stop stop-color="#5FF05B"/>
<stop offset="0.813285" stop-color="#5DE955" stop-opacity="0"/>
</radialGradient>
<radialGradient id="paint16_radial" cx="0" cy="0" r="1" gradientUnits="userSpaceOnUse" gradientTransform="translate(37.3559 22.4731) rotate(37.4559) scale(8.86223 12.3183)">
<stop stop-color="#123AA8"/>
<stop offset="0.966119" stop-color="#123AA8" stop-opacity="0"/>
</radialGradient>
<radialGradient id="paint17_radial" cx="0" cy="0" r="1" gradientUnits="userSpaceOnUse" gradientTransform="translate(35.1511 23.472) rotate(8.48611) scale(10.4566 15.608)">
<stop stop-color="#123AA8"/>
<stop offset="0.592487" stop-color="#123AA8" stop-opacity="0"/>
</radialGradient>
<radialGradient id="paint18_radial" cx="0" cy="0" r="1" gradientUnits="userSpaceOnUse" gradientTransform="translate(35.9996 24.7691) rotate(24.6631) scale(8.93218 15.9162)">
<stop stop-color="#123AA8"/>
<stop offset="0.756788" stop-color="#123AA8" stop-opacity="0"/>
</radialGradient>
<radialGradient id="paint19_radial" cx="0" cy="0" r="1" gradientUnits="userSpaceOnUse" gradientTransform="translate(34.9507 25.2983) rotate(95.8028) scale(16.0572 8.7995)">
<stop stop-color="#123AA8"/>
<stop offset="0.592487" stop-color="#123AA8" stop-opacity="0"/>
<stop offset="1" stop-color="#123AA8" stop-opacity="0"/>
</radialGradient>
<radialGradient id="paint20_radial" cx="0" cy="0" r="1" gradientUnits="userSpaceOnUse" gradientTransform="translate(37.3559 18.2092) rotate(93.6671) scale(19.3243 6.8964)">
<stop stop-color="#123AA8"/>
<stop offset="0.884611" stop-color="#123AA8" stop-opacity="0"/>
</radialGradient>
<radialGradient id="paint21_radial" cx="0" cy="0" r="1" gradientUnits="userSpaceOnUse" gradientTransform="translate(15.456 22.2271) rotate(84.8296) scale(10.2543 5.43265)">
<stop stop-color="#123AA8"/>
<stop offset="0.884611" stop-color="#123AA8" stop-opacity="0"/>
</radialGradient>
<radialGradient id="paint22_radial" cx="0" cy="0" r="1" gradientUnits="userSpaceOnUse" gradientTransform="translate(15.4487 22.5029) rotate(87.2504) scale(10.702 8.83547)">
<stop stop-color="#123AA8"/>
<stop offset="0.884611" stop-color="#123AA8" stop-opacity="0"/>
</radialGradient>
<radialGradient id="paint23_radial" cx="0" cy="0" r="1" gradientUnits="userSpaceOnUse" gradientTransform="translate(17.8836 32.559) rotate(-23.1725) scale(11.9347 23.3282)">
<stop stop-color="#123AA8"/>
<stop offset="0.708977" stop-color="#123AA8" stop-opacity="0"/>
</radialGradient>
<radialGradient id="paint24_radial" cx="0" cy="0" r="1" gradientUnits="userSpaceOnUse" gradientTransform="translate(13.6371 19.8864) rotate(-159.526) scale(7.90691 13.5388)">
<stop stop-color="#1A3DA0"/>
<stop offset="0.708977" stop-color="#123AA8" stop-opacity="0"/>
</radialGradient>
<radialGradient id="paint25_radial" cx="0" cy="0" r="1" gradientUnits="userSpaceOnUse" gradientTransform="translate(6.67704 22.5775) rotate(16.749) scale(15.0807 15.2238)">
<stop stop-color="#1E3882"/>
<stop offset="0.761404" stop-color="#123AA8" stop-opacity="0"/>
</radialGradient>
<linearGradient id="paint26_linear" x1="1.94606" y1="14.2361" x2="16.8066" y2="23.721" gradientUnits="userSpaceOnUse">
<stop offset="0.229329" stop-color="#1DC4FF"/>
<stop offset="1" stop-color="#1CC1FF" stop-opacity="0"/>
</linearGradient>
<radialGradient id="paint27_radial" cx="0" cy="0" r="1" gradientUnits="userSpaceOnUse" gradientTransform="translate(-2.90179 6.28219) rotate(49.6506) scale(17.4108 17.3673)">
<stop stop-color="#09F8FF"/>
<stop offset="1" stop-color="#0BF7F9" stop-opacity="0"/>
</radialGradient>
<linearGradient id="paint28_linear" x1="2.76748" y1="14.7207" x2="6.93589" y2="18.4995" gradientUnits="userSpaceOnUse">
<stop stop-color="#26FBFF"/>
<stop offset="0.637346" stop-color="#0BF7F9" stop-opacity="0"/>
</linearGradient>
<linearGradient id="paint29_linear" x1="1.66003" y1="17.613" x2="7.42562" y2="18.0244" gradientUnits="userSpaceOnUse">
<stop stop-color="#26FBFF"/>
<stop offset="0.637346" stop-color="#0BF7F9" stop-opacity="0"/>
</linearGradient>
<radialGradient id="paint30_radial" cx="0" cy="0" r="1" gradientUnits="userSpaceOnUse" gradientTransform="translate(12.9148 24.0032) rotate(-107.468) scale(17.0211 11.7937)">
<stop stop-color="#00BCFF" stop-opacity="0.76"/>
<stop offset="0.57273" stop-color="#00BAFC" stop-opacity="0"/>
</radialGradient>
<clipPath id="clip0">
<rect width="41.6579" height="30.322" fill="white" transform="translate(3.2002 8.83887)"/>
</clipPath>
</defs>
</svg>
