<svg width="12" height="12" viewBox="0 0 12 12" fill="none" xmlns="http://www.w3.org/2000/svg">
<rect width="12" height="12" rx="2.63415" fill="url(#paint0_linear)"/>
<g clip-path="url(#clip0)">
<path d="M4.0312 9.76041C2.10279 9.76041 1.44645 7.3216 1.29938 6.84716C0.930056 5.65579 0.817781 4.58263 0.805896 4.47C0.737316 3.82014 1.25852 3.36793 1.83054 3.36793C2.26367 3.36793 2.76634 3.6272 2.83292 4.25625C2.84449 4.36206 2.93254 5.27459 3.24404 6.26889C3.56912 7.30658 3.91398 7.70566 4.16233 7.70566C4.56338 7.70566 4.80809 6.67555 5.02441 5.69471C5.18378 4.97209 5.35607 4.24391 5.69618 3.5971C6.28794 2.47181 7.18212 2.20996 7.95459 2.20996C9.64844 2.20996 10.4962 4.17248 10.4962 4.68094C10.4962 5.53065 9.80316 5.7474 9.50278 5.7474C8.84579 5.7474 8.62309 5.30718 8.43563 4.92134C8.26702 4.57421 8.09092 4.28558 7.86323 4.28558C7.78843 4.28558 7.71909 4.32348 7.65498 4.38866C7.08908 4.96383 6.89932 7.97282 5.76784 9.12287C5.14055 9.76041 4.45804 9.76041 4.0312 9.76041Z" fill="url(#paint1_linear)"/>
<path d="M4.0312 9.76041C2.10279 9.76041 1.44645 7.3216 1.29938 6.84716C0.930056 5.65579 0.817781 4.58263 0.805896 4.47C0.737316 3.82014 1.25852 3.36793 1.83054 3.36793C2.26367 3.36793 2.76634 3.6272 2.83292 4.25625C2.84449 4.36206 2.93254 5.27459 3.24404 6.26889C3.56912 7.30658 3.91398 7.70566 4.16233 7.70566C4.56338 7.70566 4.80809 6.67555 5.02441 5.69471C5.18378 4.97209 5.35607 4.24391 5.69618 3.5971C6.28794 2.47181 7.18212 2.20996 7.95459 2.20996C9.64844 2.20996 10.4962 4.17248 10.4962 4.68094C10.4962 5.53065 9.80316 5.7474 9.50278 5.7474C8.84579 5.7474 8.62309 5.30718 8.43563 4.92134C8.26702 4.57421 8.09092 4.28558 7.86323 4.28558C7.78843 4.28558 7.71909 4.32348 7.65498 4.38866C7.08908 4.96383 6.89932 7.97282 5.76784 9.12287C5.14055 9.76041 4.45804 9.76041 4.0312 9.76041Z" fill="url(#paint2_radial)"/>
<path d="M4.0312 9.76041C2.10279 9.76041 1.44645 7.3216 1.29938 6.84716C0.930056 5.65579 0.817781 4.58263 0.805896 4.47C0.737316 3.82014 1.25852 3.36793 1.83054 3.36793C2.26367 3.36793 2.76634 3.6272 2.83292 4.25625C2.84449 4.36206 2.93254 5.27459 3.24404 6.26889C3.56912 7.30658 3.91398 7.70566 4.16233 7.70566C4.56338 7.70566 4.80809 6.67555 5.02441 5.69471C5.18378 4.97209 5.35607 4.24391 5.69618 3.5971C6.28794 2.47181 7.18212 2.20996 7.95459 2.20996C9.64844 2.20996 10.4962 4.17248 10.4962 4.68094C10.4962 5.53065 9.80316 5.7474 9.50278 5.7474C8.84579 5.7474 8.62309 5.30718 8.43563 4.92134C8.26702 4.57421 8.09092 4.28558 7.86323 4.28558C7.78843 4.28558 7.71909 4.32348 7.65498 4.38866C7.08908 4.96383 6.89932 7.97282 5.76784 9.12287C5.14055 9.76041 4.45804 9.76041 4.0312 9.76041Z" fill="url(#paint3_radial)"/>
<path d="M4.0312 9.76041C2.10279 9.76041 1.44645 7.3216 1.29938 6.84716C0.930056 5.65579 0.817781 4.58263 0.805896 4.47C0.737316 3.82014 1.25852 3.36793 1.83054 3.36793C2.26367 3.36793 2.76634 3.6272 2.83292 4.25625C2.84449 4.36206 2.93254 5.27459 3.24404 6.26889C3.56912 7.30658 3.91398 7.70566 4.16233 7.70566C4.56338 7.70566 4.80809 6.67555 5.02441 5.69471C5.18378 4.97209 5.35607 4.24391 5.69618 3.5971C6.28794 2.47181 7.18212 2.20996 7.95459 2.20996C9.64844 2.20996 10.4962 4.17248 10.4962 4.68094C10.4962 5.53065 9.80316 5.7474 9.50278 5.7474C8.84579 5.7474 8.62309 5.30718 8.43563 4.92134C8.26702 4.57421 8.09092 4.28558 7.86323 4.28558C7.78843 4.28558 7.71909 4.32348 7.65498 4.38866C7.08908 4.96383 6.89932 7.97282 5.76784 9.12287C5.14055 9.76041 4.45804 9.76041 4.0312 9.76041Z" fill="url(#paint4_radial)"/>
<path d="M4.0312 9.76041C2.10279 9.76041 1.44645 7.3216 1.29938 6.84716C0.930056 5.65579 0.817781 4.58263 0.805896 4.47C0.737316 3.82014 1.25852 3.36793 1.83054 3.36793C2.26367 3.36793 2.76634 3.6272 2.83292 4.25625C2.84449 4.36206 2.93254 5.27459 3.24404 6.26889C3.56912 7.30658 3.91398 7.70566 4.16233 7.70566C4.56338 7.70566 4.80809 6.67555 5.02441 5.69471C5.18378 4.97209 5.35607 4.24391 5.69618 3.5971C6.28794 2.47181 7.18212 2.20996 7.95459 2.20996C9.64844 2.20996 10.4962 4.17248 10.4962 4.68094C10.4962 5.53065 9.80316 5.7474 9.50278 5.7474C8.84579 5.7474 8.62309 5.30718 8.43563 4.92134C8.26702 4.57421 8.09092 4.28558 7.86323 4.28558C7.78843 4.28558 7.71909 4.32348 7.65498 4.38866C7.08908 4.96383 6.89932 7.97282 5.76784 9.12287C5.14055 9.76041 4.45804 9.76041 4.0312 9.76041Z" fill="url(#paint5_radial)"/>
<path d="M4.0312 9.76041C2.10279 9.76041 1.44645 7.3216 1.29938 6.84716C0.930056 5.65579 0.817781 4.58263 0.805896 4.47C0.737316 3.82014 1.25852 3.36793 1.83054 3.36793C2.26367 3.36793 2.76634 3.6272 2.83292 4.25625C2.84449 4.36206 2.93254 5.27459 3.24404 6.26889C3.56912 7.30658 3.91398 7.70566 4.16233 7.70566C4.56338 7.70566 4.80809 6.67555 5.02441 5.69471C5.18378 4.97209 5.35607 4.24391 5.69618 3.5971C6.28794 2.47181 7.18212 2.20996 7.95459 2.20996C9.64844 2.20996 10.4962 4.17248 10.4962 4.68094C10.4962 5.53065 9.80316 5.7474 9.50278 5.7474C8.84579 5.7474 8.62309 5.30718 8.43563 4.92134C8.26702 4.57421 8.09092 4.28558 7.86323 4.28558C7.78843 4.28558 7.71909 4.32348 7.65498 4.38866C7.08908 4.96383 6.89932 7.97282 5.76784 9.12287C5.14055 9.76041 4.45804 9.76041 4.0312 9.76041Z" fill="url(#paint6_radial)"/>
<path d="M4.0312 9.76041C2.10279 9.76041 1.44645 7.3216 1.29938 6.84716C0.930056 5.65579 0.817781 4.58263 0.805896 4.47C0.737316 3.82014 1.25852 3.36793 1.83054 3.36793C2.26367 3.36793 2.76634 3.6272 2.83292 4.25625C2.84449 4.36206 2.93254 5.27459 3.24404 6.26889C3.56912 7.30658 3.91398 7.70566 4.16233 7.70566C4.56338 7.70566 4.80809 6.67555 5.02441 5.69471C5.18378 4.97209 5.35607 4.24391 5.69618 3.5971C6.28794 2.47181 7.18212 2.20996 7.95459 2.20996C9.64844 2.20996 10.4962 4.17248 10.4962 4.68094C10.4962 5.53065 9.80316 5.7474 9.50278 5.7474C8.84579 5.7474 8.62309 5.30718 8.43563 4.92134C8.26702 4.57421 8.09092 4.28558 7.86323 4.28558C7.78843 4.28558 7.71909 4.32348 7.65498 4.38866C7.08908 4.96383 6.89932 7.97282 5.76784 9.12287C5.14055 9.76041 4.45804 9.76041 4.0312 9.76041Z" fill="url(#paint7_radial)"/>
<path d="M4.0312 9.76041C2.10279 9.76041 1.44645 7.3216 1.29938 6.84716C0.930056 5.65579 0.817781 4.58263 0.805896 4.47C0.737316 3.82014 1.25852 3.36793 1.83054 3.36793C2.26367 3.36793 2.76634 3.6272 2.83292 4.25625C2.84449 4.36206 2.93254 5.27459 3.24404 6.26889C3.56912 7.30658 3.91398 7.70566 4.16233 7.70566C4.56338 7.70566 4.80809 6.67555 5.02441 5.69471C5.18378 4.97209 5.35607 4.24391 5.69618 3.5971C6.28794 2.47181 7.18212 2.20996 7.95459 2.20996C9.64844 2.20996 10.4962 4.17248 10.4962 4.68094C10.4962 5.53065 9.80316 5.7474 9.50278 5.7474C8.84579 5.7474 8.62309 5.30718 8.43563 4.92134C8.26702 4.57421 8.09092 4.28558 7.86323 4.28558C7.78843 4.28558 7.71909 4.32348 7.65498 4.38866C7.08908 4.96383 6.89932 7.97282 5.76784 9.12287C5.14055 9.76041 4.45804 9.76041 4.0312 9.76041Z" fill="url(#paint8_linear)"/>
<path d="M4.0312 9.76041C2.10279 9.76041 1.44645 7.3216 1.29938 6.84716C0.930056 5.65579 0.817781 4.58263 0.805896 4.47C0.737316 3.82014 1.25852 3.36793 1.83054 3.36793C2.26367 3.36793 2.76634 3.6272 2.83292 4.25625C2.84449 4.36206 2.93254 5.27459 3.24404 6.26889C3.56912 7.30658 3.91398 7.70566 4.16233 7.70566C4.56338 7.70566 4.80809 6.67555 5.02441 5.69471C5.18378 4.97209 5.35607 4.24391 5.69618 3.5971C6.28794 2.47181 7.18212 2.20996 7.95459 2.20996C9.64844 2.20996 10.4962 4.17248 10.4962 4.68094C10.4962 5.53065 9.80316 5.7474 9.50278 5.7474C8.84579 5.7474 8.62309 5.30718 8.43563 4.92134C8.26702 4.57421 8.09092 4.28558 7.86323 4.28558C7.78843 4.28558 7.71909 4.32348 7.65498 4.38866C7.08908 4.96383 6.89932 7.97282 5.76784 9.12287C5.14055 9.76041 4.45804 9.76041 4.0312 9.76041Z" fill="url(#paint9_radial)"/>
<path d="M7.95471 2.20947C7.18224 2.20947 6.28806 2.47132 5.6963 3.59661C5.35618 4.24342 5.1839 4.9716 5.02453 5.69422C4.97206 5.93203 4.91793 6.17268 4.86035 6.4009V9.67039C5.15266 9.58768 5.46668 9.42857 5.76796 9.12238C6.89944 7.97234 7.0892 4.96335 7.6551 4.38818C7.71921 4.323 7.78855 4.28509 7.86335 4.28509C8.09104 4.28509 8.26714 4.57372 8.43575 4.92085C8.62321 5.30669 8.84591 5.74691 9.5029 5.74691C9.80328 5.74691 10.4963 5.53016 10.4963 4.68045C10.4963 4.17199 9.64856 2.20947 7.95471 2.20947Z" fill="url(#paint10_radial)"/>
<path d="M4.0312 9.76041C2.10279 9.76041 1.44645 7.3216 1.29938 6.84716C0.930056 5.65579 0.817781 4.58263 0.805896 4.47C0.737316 3.82014 1.25852 3.36793 1.83054 3.36793C2.26367 3.36793 2.76634 3.6272 2.83292 4.25625C2.84449 4.36206 2.93254 5.27459 3.24404 6.26889C3.56912 7.30658 3.91398 7.70566 4.16233 7.70566C4.56338 7.70566 4.80809 6.67555 5.02441 5.69471C5.18378 4.97209 5.35607 4.24391 5.69618 3.5971C6.28794 2.47181 7.18212 2.20996 7.95459 2.20996C9.64844 2.20996 10.4962 4.17248 10.4962 4.68094C10.4962 5.53065 9.80316 5.7474 9.50278 5.7474C8.84579 5.7474 8.62309 5.30718 8.43563 4.92134C8.26702 4.57421 8.09092 4.28558 7.86323 4.28558C7.78843 4.28558 7.71909 4.32348 7.65498 4.38866C7.08908 4.96383 6.89932 7.97282 5.76784 9.12287C5.14055 9.76041 4.45804 9.76041 4.0312 9.76041Z" fill="url(#paint11_radial)"/>
<path d="M4.0312 9.76041C2.10279 9.76041 1.44645 7.3216 1.29938 6.84716C0.930056 5.65579 0.817781 4.58263 0.805896 4.47C0.737316 3.82014 1.25852 3.36793 1.83054 3.36793C2.26367 3.36793 2.76634 3.6272 2.83292 4.25625C2.84449 4.36206 2.93254 5.27459 3.24404 6.26889C3.56912 7.30658 3.91398 7.70566 4.16233 7.70566C4.56338 7.70566 4.80809 6.67555 5.02441 5.69471C5.18378 4.97209 5.35607 4.24391 5.69618 3.5971C6.28794 2.47181 7.18212 2.20996 7.95459 2.20996C9.64844 2.20996 10.4962 4.17248 10.4962 4.68094C10.4962 5.53065 9.80316 5.7474 9.50278 5.7474C8.84579 5.7474 8.62309 5.30718 8.43563 4.92134C8.26702 4.57421 8.09092 4.28558 7.86323 4.28558C7.78843 4.28558 7.71909 4.32348 7.65498 4.38866C7.08908 4.96383 6.89932 7.97282 5.76784 9.12287C5.14055 9.76041 4.45804 9.76041 4.0312 9.76041Z" fill="url(#paint12_radial)"/>
<path d="M4.0312 9.76041C2.10279 9.76041 1.44645 7.3216 1.29938 6.84716C0.930056 5.65579 0.817781 4.58263 0.805896 4.47C0.737316 3.82014 1.25852 3.36793 1.83054 3.36793C2.26367 3.36793 2.76634 3.6272 2.83292 4.25625C2.84449 4.36206 2.93254 5.27459 3.24404 6.26889C3.56912 7.30658 3.91398 7.70566 4.16233 7.70566C4.56338 7.70566 4.80809 6.67555 5.02441 5.69471C5.18378 4.97209 5.35607 4.24391 5.69618 3.5971C6.28794 2.47181 7.18212 2.20996 7.95459 2.20996C9.64844 2.20996 10.4962 4.17248 10.4962 4.68094C10.4962 5.53065 9.80316 5.7474 9.50278 5.7474C8.84579 5.7474 8.62309 5.30718 8.43563 4.92134C8.26702 4.57421 8.09092 4.28558 7.86323 4.28558C7.78843 4.28558 7.71909 4.32348 7.65498 4.38866C7.08908 4.96383 6.89932 7.97282 5.76784 9.12287C5.14055 9.76041 4.45804 9.76041 4.0312 9.76041Z" fill="url(#paint13_radial)"/>
<path d="M4.0312 9.76041C2.10279 9.76041 1.44645 7.3216 1.29938 6.84716C0.930056 5.65579 0.817781 4.58263 0.805896 4.47C0.737316 3.82014 1.25852 3.36793 1.83054 3.36793C2.26367 3.36793 2.76634 3.6272 2.83292 4.25625C2.84449 4.36206 2.93254 5.27459 3.24404 6.26889C3.56912 7.30658 3.91398 7.70566 4.16233 7.70566C4.56338 7.70566 4.80809 6.67555 5.02441 5.69471C5.18378 4.97209 5.35607 4.24391 5.69618 3.5971C6.28794 2.47181 7.18212 2.20996 7.95459 2.20996C9.64844 2.20996 10.4962 4.17248 10.4962 4.68094C10.4962 5.53065 9.80316 5.7474 9.50278 5.7474C8.84579 5.7474 8.62309 5.30718 8.43563 4.92134C8.26702 4.57421 8.09092 4.28558 7.86323 4.28558C7.78843 4.28558 7.71909 4.32348 7.65498 4.38866C7.08908 4.96383 6.89932 7.97282 5.76784 9.12287C5.14055 9.76041 4.45804 9.76041 4.0312 9.76041Z" fill="url(#paint14_radial)"/>
<path d="M4.0312 9.76041C2.10279 9.76041 1.44645 7.3216 1.29938 6.84716C0.930056 5.65579 0.817781 4.58263 0.805896 4.47C0.737316 3.82014 1.25852 3.36793 1.83054 3.36793C2.26367 3.36793 2.76634 3.6272 2.83292 4.25625C2.84449 4.36206 2.93254 5.27459 3.24404 6.26889C3.56912 7.30658 3.91398 7.70566 4.16233 7.70566C4.56338 7.70566 4.80809 6.67555 5.02441 5.69471C5.18378 4.97209 5.35607 4.24391 5.69618 3.5971C6.28794 2.47181 7.18212 2.20996 7.95459 2.20996C9.64844 2.20996 10.4962 4.17248 10.4962 4.68094C10.4962 5.53065 9.80316 5.7474 9.50278 5.7474C8.84579 5.7474 8.62309 5.30718 8.43563 4.92134C8.26702 4.57421 8.09092 4.28558 7.86323 4.28558C7.78843 4.28558 7.71909 4.32348 7.65498 4.38866C7.08908 4.96383 6.89932 7.97282 5.76784 9.12287C5.14055 9.76041 4.45804 9.76041 4.0312 9.76041Z" fill="url(#paint15_radial)"/>
<path d="M10.1842 3.36744C10.1078 3.36744 10.031 3.37465 9.95568 3.38948C10.3137 3.9058 10.4929 4.44669 10.4929 4.68039C10.4929 5.53012 9.79984 5.74686 9.49948 5.74686C9.26507 5.74686 9.08598 5.69079 8.94402 5.60117C8.94269 5.60648 8.94139 5.61176 8.94007 5.61708C8.89785 5.78572 8.86453 5.97029 8.80684 6.1499C8.69595 6.49527 8.54638 6.88976 8.38663 7.19502C8.21446 7.5241 8.04398 7.71665 7.84079 7.70655C7.60972 7.69507 7.42238 7.39723 7.18952 6.55543C7.11442 6.28401 7.04489 5.98643 6.98045 5.69422C6.82061 4.96946 6.62442 4.24064 6.28895 3.59661C5.74102 2.54474 4.80632 2.20947 4.06011 2.20947C3.36808 2.20947 2.85105 2.53712 2.4449 2.94993C2.33266 3.06402 2.21005 3.21772 2.08691 3.39834C2.44116 3.48368 2.77613 3.75034 2.82962 4.25571C2.84015 4.35206 2.91411 5.11737 3.16247 6.00423C3.23374 5.78187 3.33765 5.45259 3.57905 4.92085C3.69736 4.67732 3.80412 4.51675 3.90045 4.41884C3.9888 4.32905 4.06836 4.29196 4.13999 4.29196C4.21724 4.29196 4.48102 4.36267 4.73782 5.26384C5.05631 6.38129 5.29332 8.15971 6.19632 9.10396C6.59461 9.52049 7.15197 9.78996 7.92443 9.78996C8.60222 9.78996 9.16731 9.49144 9.57021 9.0762C10.2327 8.39336 10.5957 7.26443 10.7252 6.84667C11.0936 5.65816 11.1968 4.58324 11.2088 4.46951C11.2774 3.81965 10.7299 3.36744 10.1842 3.36744Z" fill="#316AFF"/>
<path d="M10.1842 3.36744C10.1078 3.36744 10.031 3.37465 9.95568 3.38948C10.3137 3.9058 10.4929 4.44669 10.4929 4.68039C10.4929 5.53012 9.79984 5.74686 9.49948 5.74686C9.26507 5.74686 9.08598 5.69079 8.94402 5.60117C8.94269 5.60648 8.94139 5.61176 8.94007 5.61708C8.89785 5.78572 8.86453 5.97029 8.80684 6.1499C8.69595 6.49527 8.54638 6.88976 8.38663 7.19502C8.21446 7.5241 8.04398 7.71665 7.84079 7.70655C7.60972 7.69507 7.42238 7.39723 7.18952 6.55543C7.11442 6.28401 7.04489 5.98643 6.98045 5.69422C6.82061 4.96946 6.62442 4.24064 6.28895 3.59661C5.74102 2.54474 4.80632 2.20947 4.06011 2.20947C3.36808 2.20947 2.85105 2.53712 2.4449 2.94993C2.33266 3.06402 2.21005 3.21772 2.08691 3.39834C2.44116 3.48368 2.77613 3.75034 2.82962 4.25571C2.84015 4.35206 2.91411 5.11737 3.16247 6.00423C3.23374 5.78187 3.33765 5.45259 3.57905 4.92085C3.69736 4.67732 3.80412 4.51675 3.90045 4.41884C3.9888 4.32905 4.06836 4.29196 4.13999 4.29196C4.21724 4.29196 4.48102 4.36267 4.73782 5.26384C5.05631 6.38129 5.29332 8.15971 6.19632 9.10396C6.59461 9.52049 7.15197 9.78996 7.92443 9.78996C8.60222 9.78996 9.16731 9.49144 9.57021 9.0762C10.2327 8.39336 10.5957 7.26443 10.7252 6.84667C11.0936 5.65816 11.1968 4.58324 11.2088 4.46951C11.2774 3.81965 10.7299 3.36744 10.1842 3.36744Z" fill="url(#paint16_radial)"/>
<path d="M10.1842 3.36744C10.1078 3.36744 10.031 3.37465 9.95568 3.38948C10.3137 3.9058 10.4929 4.44669 10.4929 4.68039C10.4929 5.53012 9.79984 5.74686 9.49948 5.74686C9.26507 5.74686 9.08598 5.69079 8.94402 5.60117C8.94269 5.60648 8.94139 5.61176 8.94007 5.61708C8.89785 5.78572 8.86453 5.97029 8.80684 6.1499C8.69595 6.49527 8.54638 6.88976 8.38663 7.19502C8.21446 7.5241 8.04398 7.71665 7.84079 7.70655C7.60972 7.69507 7.42238 7.39723 7.18952 6.55543C7.11442 6.28401 7.04489 5.98643 6.98045 5.69422C6.82061 4.96946 6.62442 4.24064 6.28895 3.59661C5.74102 2.54474 4.80632 2.20947 4.06011 2.20947C3.36808 2.20947 2.85105 2.53712 2.4449 2.94993C2.33266 3.06402 2.21005 3.21772 2.08691 3.39834C2.44116 3.48368 2.77613 3.75034 2.82962 4.25571C2.84015 4.35206 2.91411 5.11737 3.16247 6.00423C3.23374 5.78187 3.33765 5.45259 3.57905 4.92085C3.69736 4.67732 3.80412 4.51675 3.90045 4.41884C3.9888 4.32905 4.06836 4.29196 4.13999 4.29196C4.21724 4.29196 4.48102 4.36267 4.73782 5.26384C5.05631 6.38129 5.29332 8.15971 6.19632 9.10396C6.59461 9.52049 7.15197 9.78996 7.92443 9.78996C8.60222 9.78996 9.16731 9.49144 9.57021 9.0762C10.2327 8.39336 10.5957 7.26443 10.7252 6.84667C11.0936 5.65816 11.1968 4.58324 11.2088 4.46951C11.2774 3.81965 10.7299 3.36744 10.1842 3.36744Z" fill="url(#paint17_radial)"/>
<path d="M10.1842 3.36744C10.1078 3.36744 10.031 3.37465 9.95568 3.38948C10.3137 3.9058 10.4929 4.44669 10.4929 4.68039C10.4929 5.53012 9.79984 5.74686 9.49948 5.74686C9.26507 5.74686 9.08598 5.69079 8.94402 5.60117C8.94269 5.60648 8.94139 5.61176 8.94007 5.61708C8.89785 5.78572 8.86453 5.97029 8.80684 6.1499C8.69595 6.49527 8.54638 6.88976 8.38663 7.19502C8.21446 7.5241 8.04398 7.71665 7.84079 7.70655C7.60972 7.69507 7.42238 7.39723 7.18952 6.55543C7.11442 6.28401 7.04489 5.98643 6.98045 5.69422C6.82061 4.96946 6.62442 4.24064 6.28895 3.59661C5.74102 2.54474 4.80632 2.20947 4.06011 2.20947C3.36808 2.20947 2.85105 2.53712 2.4449 2.94993C2.33266 3.06402 2.21005 3.21772 2.08691 3.39834C2.44116 3.48368 2.77613 3.75034 2.82962 4.25571C2.84015 4.35206 2.91411 5.11737 3.16247 6.00423C3.23374 5.78187 3.33765 5.45259 3.57905 4.92085C3.69736 4.67732 3.80412 4.51675 3.90045 4.41884C3.9888 4.32905 4.06836 4.29196 4.13999 4.29196C4.21724 4.29196 4.48102 4.36267 4.73782 5.26384C5.05631 6.38129 5.29332 8.15971 6.19632 9.10396C6.59461 9.52049 7.15197 9.78996 7.92443 9.78996C8.60222 9.78996 9.16731 9.49144 9.57021 9.0762C10.2327 8.39336 10.5957 7.26443 10.7252 6.84667C11.0936 5.65816 11.1968 4.58324 11.2088 4.46951C11.2774 3.81965 10.7299 3.36744 10.1842 3.36744Z" fill="url(#paint18_radial)"/>
<path d="M10.1842 3.36744C10.1078 3.36744 10.031 3.37465 9.95568 3.38948C10.3137 3.9058 10.4929 4.44669 10.4929 4.68039C10.4929 5.53012 9.79984 5.74686 9.49948 5.74686C9.26507 5.74686 9.08598 5.69079 8.94402 5.60117C8.94269 5.60648 8.94139 5.61176 8.94007 5.61708C8.89785 5.78572 8.86453 5.97029 8.80684 6.1499C8.69595 6.49527 8.54638 6.88976 8.38663 7.19502C8.21446 7.5241 8.04398 7.71665 7.84079 7.70655C7.60972 7.69507 7.42238 7.39723 7.18952 6.55543C7.11442 6.28401 7.04489 5.98643 6.98045 5.69422C6.82061 4.96946 6.62442 4.24064 6.28895 3.59661C5.74102 2.54474 4.80632 2.20947 4.06011 2.20947C3.36808 2.20947 2.85105 2.53712 2.4449 2.94993C2.33266 3.06402 2.21005 3.21772 2.08691 3.39834C2.44116 3.48368 2.77613 3.75034 2.82962 4.25571C2.84015 4.35206 2.91411 5.11737 3.16247 6.00423C3.23374 5.78187 3.33765 5.45259 3.57905 4.92085C3.69736 4.67732 3.80412 4.51675 3.90045 4.41884C3.9888 4.32905 4.06836 4.29196 4.13999 4.29196C4.21724 4.29196 4.48102 4.36267 4.73782 5.26384C5.05631 6.38129 5.29332 8.15971 6.19632 9.10396C6.59461 9.52049 7.15197 9.78996 7.92443 9.78996C8.60222 9.78996 9.16731 9.49144 9.57021 9.0762C10.2327 8.39336 10.5957 7.26443 10.7252 6.84667C11.0936 5.65816 11.1968 4.58324 11.2088 4.46951C11.2774 3.81965 10.7299 3.36744 10.1842 3.36744Z" fill="url(#paint19_radial)"/>
<path d="M10.1842 3.36744C10.1078 3.36744 10.031 3.37465 9.95568 3.38948C10.3137 3.9058 10.4929 4.44669 10.4929 4.68039C10.4929 5.53012 9.79984 5.74686 9.49948 5.74686C9.26507 5.74686 9.08598 5.69079 8.94402 5.60117C8.94269 5.60648 8.94139 5.61176 8.94007 5.61708C8.89785 5.78572 8.86453 5.97029 8.80684 6.1499C8.69595 6.49527 8.54638 6.88976 8.38663 7.19502C8.21446 7.5241 8.04398 7.71665 7.84079 7.70655C7.60972 7.69507 7.42238 7.39723 7.18952 6.55543C7.11442 6.28401 7.04489 5.98643 6.98045 5.69422C6.82061 4.96946 6.62442 4.24064 6.28895 3.59661C5.74102 2.54474 4.80632 2.20947 4.06011 2.20947C3.36808 2.20947 2.85105 2.53712 2.4449 2.94993C2.33266 3.06402 2.21005 3.21772 2.08691 3.39834C2.44116 3.48368 2.77613 3.75034 2.82962 4.25571C2.84015 4.35206 2.91411 5.11737 3.16247 6.00423C3.23374 5.78187 3.33765 5.45259 3.57905 4.92085C3.69736 4.67732 3.80412 4.51675 3.90045 4.41884C3.9888 4.32905 4.06836 4.29196 4.13999 4.29196C4.21724 4.29196 4.48102 4.36267 4.73782 5.26384C5.05631 6.38129 5.29332 8.15971 6.19632 9.10396C6.59461 9.52049 7.15197 9.78996 7.92443 9.78996C8.60222 9.78996 9.16731 9.49144 9.57021 9.0762C10.2327 8.39336 10.5957 7.26443 10.7252 6.84667C11.0936 5.65816 11.1968 4.58324 11.2088 4.46951C11.2774 3.81965 10.7299 3.36744 10.1842 3.36744Z" fill="url(#paint20_radial)"/>
<path d="M10.1842 3.36744C10.1078 3.36744 10.031 3.37465 9.95568 3.38948C10.3137 3.9058 10.4929 4.44669 10.4929 4.68039C10.4929 5.53012 9.79984 5.74686 9.49948 5.74686C9.26507 5.74686 9.08598 5.69079 8.94402 5.60117C8.94269 5.60648 8.94139 5.61176 8.94007 5.61708C8.89785 5.78572 8.86453 5.97029 8.80684 6.1499C8.69595 6.49527 8.54638 6.88976 8.38663 7.19502C8.21446 7.5241 8.04398 7.71665 7.84079 7.70655C7.60972 7.69507 7.42238 7.39723 7.18952 6.55543C7.11442 6.28401 7.04489 5.98643 6.98045 5.69422C6.82061 4.96946 6.62442 4.24064 6.28895 3.59661C5.74102 2.54474 4.80632 2.20947 4.06011 2.20947C3.36808 2.20947 2.85105 2.53712 2.4449 2.94993C2.33266 3.06402 2.21005 3.21772 2.08691 3.39834C2.44116 3.48368 2.77613 3.75034 2.82962 4.25571C2.84015 4.35206 2.91411 5.11737 3.16247 6.00423C3.23374 5.78187 3.33765 5.45259 3.57905 4.92085C3.69736 4.67732 3.80412 4.51675 3.90045 4.41884C3.9888 4.32905 4.06836 4.29196 4.13999 4.29196C4.21724 4.29196 4.48102 4.36267 4.73782 5.26384C5.05631 6.38129 5.29332 8.15971 6.19632 9.10396C6.59461 9.52049 7.15197 9.78996 7.92443 9.78996C8.60222 9.78996 9.16731 9.49144 9.57021 9.0762C10.2327 8.39336 10.5957 7.26443 10.7252 6.84667C11.0936 5.65816 11.1968 4.58324 11.2088 4.46951C11.2774 3.81965 10.7299 3.36744 10.1842 3.36744Z" fill="url(#paint21_radial)"/>
<path d="M10.1842 3.36744C10.1078 3.36744 10.031 3.37465 9.95568 3.38948C10.3137 3.9058 10.4929 4.44669 10.4929 4.68039C10.4929 5.53012 9.79984 5.74686 9.49948 5.74686C9.26507 5.74686 9.08598 5.69079 8.94402 5.60117C8.94269 5.60648 8.94139 5.61176 8.94007 5.61708C8.89785 5.78572 8.86453 5.97029 8.80684 6.1499C8.69595 6.49527 8.54638 6.88976 8.38663 7.19502C8.21446 7.5241 8.04398 7.71665 7.84079 7.70655C7.60972 7.69507 7.42238 7.39723 7.18952 6.55543C7.11442 6.28401 7.04489 5.98643 6.98045 5.69422C6.82061 4.96946 6.62442 4.24064 6.28895 3.59661C5.74102 2.54474 4.80632 2.20947 4.06011 2.20947C3.36808 2.20947 2.85105 2.53712 2.4449 2.94993C2.33266 3.06402 2.21005 3.21772 2.08691 3.39834C2.44116 3.48368 2.77613 3.75034 2.82962 4.25571C2.84015 4.35206 2.91411 5.11737 3.16247 6.00423C3.23374 5.78187 3.33765 5.45259 3.57905 4.92085C3.69736 4.67732 3.80412 4.51675 3.90045 4.41884C3.9888 4.32905 4.06836 4.29196 4.13999 4.29196C4.21724 4.29196 4.48102 4.36267 4.73782 5.26384C5.05631 6.38129 5.29332 8.15971 6.19632 9.10396C6.59461 9.52049 7.15197 9.78996 7.92443 9.78996C8.60222 9.78996 9.16731 9.49144 9.57021 9.0762C10.2327 8.39336 10.5957 7.26443 10.7252 6.84667C11.0936 5.65816 11.1968 4.58324 11.2088 4.46951C11.2774 3.81965 10.7299 3.36744 10.1842 3.36744Z" fill="url(#paint22_radial)"/>
<path d="M10.1842 3.36744C10.1078 3.36744 10.031 3.37465 9.95568 3.38948C10.3137 3.9058 10.4929 4.44669 10.4929 4.68039C10.4929 5.53012 9.79984 5.74686 9.49948 5.74686C9.26507 5.74686 9.08598 5.69079 8.94402 5.60117C8.94269 5.60648 8.94139 5.61176 8.94007 5.61708C8.89785 5.78572 8.86453 5.97029 8.80684 6.1499C8.69595 6.49527 8.54638 6.88976 8.38663 7.19502C8.21446 7.5241 8.04398 7.71665 7.84079 7.70655C7.60972 7.69507 7.42238 7.39723 7.18952 6.55543C7.11442 6.28401 7.04489 5.98643 6.98045 5.69422C6.82061 4.96946 6.62442 4.24064 6.28895 3.59661C5.74102 2.54474 4.80632 2.20947 4.06011 2.20947C3.36808 2.20947 2.85105 2.53712 2.4449 2.94993C2.33266 3.06402 2.21005 3.21772 2.08691 3.39834C2.44116 3.48368 2.77613 3.75034 2.82962 4.25571C2.84015 4.35206 2.91411 5.11737 3.16247 6.00423C3.23374 5.78187 3.33765 5.45259 3.57905 4.92085C3.69736 4.67732 3.80412 4.51675 3.90045 4.41884C3.9888 4.32905 4.06836 4.29196 4.13999 4.29196C4.21724 4.29196 4.48102 4.36267 4.73782 5.26384C5.05631 6.38129 5.29332 8.15971 6.19632 9.10396C6.59461 9.52049 7.15197 9.78996 7.92443 9.78996C8.60222 9.78996 9.16731 9.49144 9.57021 9.0762C10.2327 8.39336 10.5957 7.26443 10.7252 6.84667C11.0936 5.65816 11.1968 4.58324 11.2088 4.46951C11.2774 3.81965 10.7299 3.36744 10.1842 3.36744Z" fill="url(#paint23_radial)"/>
<path d="M10.1842 3.36744C10.1078 3.36744 10.031 3.37465 9.95568 3.38948C10.3137 3.9058 10.4929 4.44669 10.4929 4.68039C10.4929 5.53012 9.79984 5.74686 9.49948 5.74686C9.26507 5.74686 9.08598 5.69079 8.94402 5.60117C8.94269 5.60648 8.94139 5.61176 8.94007 5.61708C8.89785 5.78572 8.86453 5.97029 8.80684 6.1499C8.69595 6.49527 8.54638 6.88976 8.38663 7.19502C8.21446 7.5241 8.04398 7.71665 7.84079 7.70655C7.60972 7.69507 7.42238 7.39723 7.18952 6.55543C7.11442 6.28401 7.04489 5.98643 6.98045 5.69422C6.82061 4.96946 6.62442 4.24064 6.28895 3.59661C5.74102 2.54474 4.80632 2.20947 4.06011 2.20947C3.36808 2.20947 2.85105 2.53712 2.4449 2.94993C2.33266 3.06402 2.21005 3.21772 2.08691 3.39834C2.44116 3.48368 2.77613 3.75034 2.82962 4.25571C2.84015 4.35206 2.91411 5.11737 3.16247 6.00423C3.23374 5.78187 3.33765 5.45259 3.57905 4.92085C3.69736 4.67732 3.80412 4.51675 3.90045 4.41884C3.9888 4.32905 4.06836 4.29196 4.13999 4.29196C4.21724 4.29196 4.48102 4.36267 4.73782 5.26384C5.05631 6.38129 5.29332 8.15971 6.19632 9.10396C6.59461 9.52049 7.15197 9.78996 7.92443 9.78996C8.60222 9.78996 9.16731 9.49144 9.57021 9.0762C10.2327 8.39336 10.5957 7.26443 10.7252 6.84667C11.0936 5.65816 11.1968 4.58324 11.2088 4.46951C11.2774 3.81965 10.7299 3.36744 10.1842 3.36744Z" fill="url(#paint24_radial)"/>
<path d="M10.1842 3.36744C10.1078 3.36744 10.031 3.37465 9.95568 3.38948C10.3137 3.9058 10.4929 4.44669 10.4929 4.68039C10.4929 5.53012 9.79984 5.74686 9.49948 5.74686C9.26507 5.74686 9.08598 5.69079 8.94402 5.60117C8.94269 5.60648 8.94139 5.61176 8.94007 5.61708C8.89785 5.78572 8.86453 5.97029 8.80684 6.1499C8.69595 6.49527 8.54638 6.88976 8.38663 7.19502C8.21446 7.5241 8.04398 7.71665 7.84079 7.70655C7.60972 7.69507 7.42238 7.39723 7.18952 6.55543C7.11442 6.28401 7.04489 5.98643 6.98045 5.69422C6.82061 4.96946 6.62442 4.24064 6.28895 3.59661C5.74102 2.54474 4.80632 2.20947 4.06011 2.20947C3.36808 2.20947 2.85105 2.53712 2.4449 2.94993C2.33266 3.06402 2.21005 3.21772 2.08691 3.39834C2.44116 3.48368 2.77613 3.75034 2.82962 4.25571C2.84015 4.35206 2.91411 5.11737 3.16247 6.00423C3.23374 5.78187 3.33765 5.45259 3.57905 4.92085C3.69736 4.67732 3.80412 4.51675 3.90045 4.41884C3.9888 4.32905 4.06836 4.29196 4.13999 4.29196C4.21724 4.29196 4.48102 4.36267 4.73782 5.26384C5.05631 6.38129 5.29332 8.15971 6.19632 9.10396C6.59461 9.52049 7.15197 9.78996 7.92443 9.78996C8.60222 9.78996 9.16731 9.49144 9.57021 9.0762C10.2327 8.39336 10.5957 7.26443 10.7252 6.84667C11.0936 5.65816 11.1968 4.58324 11.2088 4.46951C11.2774 3.81965 10.7299 3.36744 10.1842 3.36744Z" fill="url(#paint25_radial)"/>
<path d="M4.0312 9.76041C2.10279 9.76041 1.44645 7.3216 1.29938 6.84716C0.930056 5.65579 0.817781 4.58263 0.805896 4.47C0.737316 3.82014 1.25852 3.36793 1.83054 3.36793C2.26367 3.36793 2.76634 3.6272 2.83292 4.25625C2.8445 4.36206 2.93254 5.27459 3.24404 6.26889C3.56912 7.30658 3.91398 7.70566 4.16233 7.70566C4.56338 7.70566 4.80809 6.67555 5.02441 5.69471C5.18378 4.97209 5.35607 4.24391 5.69618 3.5971C6.28794 2.47181 7.18212 2.20996 7.95459 2.20996C9.64844 2.20996 10.4962 4.17248 10.4962 4.68094C10.4962 5.53065 9.80316 5.7474 9.50278 5.7474C8.84579 5.7474 8.62309 5.30718 8.43563 4.92134C8.26702 4.57421 8.09092 4.28558 7.86323 4.28558C7.78843 4.28558 7.71909 4.32348 7.65498 4.38866C7.08908 4.96383 6.89932 7.97282 5.76784 9.12287C5.14055 9.76041 4.45804 9.76041 4.0312 9.76041Z" fill="url(#paint26_linear)"/>
<path d="M4.0312 9.76041C2.10279 9.76041 1.44645 7.3216 1.29938 6.84716C0.930056 5.65579 0.817781 4.58263 0.805896 4.47C0.737316 3.82014 1.25852 3.36793 1.83054 3.36793C2.26367 3.36793 2.76634 3.6272 2.83292 4.25625C2.8445 4.36206 2.93254 5.27459 3.24404 6.26889C3.56912 7.30658 3.91398 7.70566 4.16233 7.70566C4.56338 7.70566 4.80809 6.67555 5.02441 5.69471C5.18378 4.97209 5.35607 4.24391 5.69618 3.5971C6.28794 2.47181 7.18212 2.20996 7.95459 2.20996C9.64844 2.20996 10.4962 4.17248 10.4962 4.68094C10.4962 5.53065 9.80316 5.7474 9.50278 5.7474C8.84579 5.7474 8.62309 5.30718 8.43563 4.92134C8.26702 4.57421 8.09092 4.28558 7.86323 4.28558C7.78843 4.28558 7.71909 4.32348 7.65498 4.38866C7.08908 4.96383 6.89932 7.97282 5.76784 9.12287C5.14055 9.76041 4.45804 9.76041 4.0312 9.76041Z" fill="url(#paint27_radial)"/>
<path d="M4.0312 9.76041C2.10279 9.76041 1.44645 7.3216 1.29938 6.84716C0.930056 5.65579 0.817781 4.58263 0.805896 4.47C0.737316 3.82014 1.25852 3.36793 1.83054 3.36793C2.26367 3.36793 2.76634 3.6272 2.83292 4.25625C2.8445 4.36206 2.93254 5.27459 3.24404 6.26889C3.56912 7.30658 3.91398 7.70566 4.16233 7.70566C4.56338 7.70566 4.80809 6.67555 5.02441 5.69471C5.18378 4.97209 5.35607 4.24391 5.69618 3.5971C6.28794 2.47181 7.18212 2.20996 7.95459 2.20996C9.64844 2.20996 10.4962 4.17248 10.4962 4.68094C10.4962 5.53065 9.80316 5.7474 9.50278 5.7474C8.84579 5.7474 8.62309 5.30718 8.43563 4.92134C8.26702 4.57421 8.09092 4.28558 7.86323 4.28558C7.78843 4.28558 7.71909 4.32348 7.65498 4.38866C7.08908 4.96383 6.89932 7.97282 5.76784 9.12287C5.14055 9.76041 4.45804 9.76041 4.0312 9.76041Z" fill="url(#paint28_linear)"/>
<path d="M4.0312 9.76041C2.10279 9.76041 1.44645 7.3216 1.29938 6.84716C0.930056 5.65579 0.817781 4.58263 0.805896 4.47C0.737316 3.82014 1.25852 3.36793 1.83054 3.36793C2.26367 3.36793 2.76634 3.6272 2.83292 4.25625C2.8445 4.36206 2.93254 5.27459 3.24404 6.26889C3.56912 7.30658 3.91398 7.70566 4.16233 7.70566C4.56338 7.70566 4.80809 6.67555 5.02441 5.69471C5.18378 4.97209 5.35607 4.24391 5.69618 3.5971C6.28794 2.47181 7.18212 2.20996 7.95459 2.20996C9.64844 2.20996 10.4962 4.17248 10.4962 4.68094C10.4962 5.53065 9.80316 5.7474 9.50278 5.7474C8.84579 5.7474 8.62309 5.30718 8.43563 4.92134C8.26702 4.57421 8.09092 4.28558 7.86323 4.28558C7.78843 4.28558 7.71909 4.32348 7.65498 4.38866C7.08908 4.96383 6.89932 7.97282 5.76784 9.12287C5.14055 9.76041 4.45804 9.76041 4.0312 9.76041Z" fill="url(#paint29_linear)"/>
<path d="M4.0312 9.76041C2.10279 9.76041 1.44645 7.3216 1.29938 6.84716C0.930056 5.65579 0.817781 4.58263 0.805896 4.47C0.737316 3.82014 1.25852 3.36793 1.83054 3.36793C2.26367 3.36793 2.76634 3.6272 2.83292 4.25625C2.8445 4.36206 2.93254 5.27459 3.24404 6.26889C3.56912 7.30658 3.91398 7.70566 4.16233 7.70566C4.56338 7.70566 4.80809 6.67555 5.02441 5.69471C5.18378 4.97209 5.35607 4.24391 5.69618 3.5971C6.28794 2.47181 7.18212 2.20996 7.95459 2.20996C9.64844 2.20996 10.4962 4.17248 10.4962 4.68094C10.4962 5.53065 9.80316 5.7474 9.50278 5.7474C8.84579 5.7474 8.62309 5.30718 8.43563 4.92134C8.26702 4.57421 8.09092 4.28558 7.86323 4.28558C7.78843 4.28558 7.71909 4.32348 7.65498 4.38866C7.08908 4.96383 6.89932 7.97282 5.76784 9.12287C5.14055 9.76041 4.45804 9.76041 4.0312 9.76041Z" fill="url(#paint30_radial)"/>
</g>
<defs>
<linearGradient id="paint0_linear" x1="6" y1="0" x2="6" y2="12" gradientUnits="userSpaceOnUse">
<stop stop-color="#313131"/>
<stop offset="1" stop-color="#070707"/>
<stop offset="1" stop-color="#020202"/>
</linearGradient>
<linearGradient id="paint1_linear" x1="9.44103" y1="4.42526" x2="2.62875" y2="6.65936" gradientUnits="userSpaceOnUse">
<stop stop-color="#5CEE64"/>
<stop offset="1" stop-color="#00BBFF"/>
</linearGradient>
<radialGradient id="paint2_radial" cx="0" cy="0" r="1" gradientUnits="userSpaceOnUse" gradientTransform="translate(4.76383 6.23647) rotate(-120.86) scale(4.46277 3.74645)">
<stop stop-color="#007383"/>
<stop offset="0.407867" stop-color="#00717E" stop-opacity="0.75"/>
<stop offset="0.874482" stop-color="#007281" stop-opacity="0"/>
</radialGradient>
<radialGradient id="paint3_radial" cx="0" cy="0" r="1" gradientUnits="userSpaceOnUse" gradientTransform="translate(7.696 5.40607) rotate(-126.734) scale(3.63956 2.39138)">
<stop stop-color="#218970"/>
<stop offset="0.459527" stop-color="#267E6A"/>
<stop offset="1" stop-color="#026C51" stop-opacity="0"/>
</radialGradient>
<radialGradient id="paint4_radial" cx="0" cy="0" r="1" gradientUnits="userSpaceOnUse" gradientTransform="translate(4.50684 6.44731) rotate(-107.468) scale(2.96422 1.54428)">
<stop stop-color="#178697"/>
<stop offset="0.407867" stop-color="#17838F" stop-opacity="0.79"/>
<stop offset="0.874482" stop-color="#007281" stop-opacity="0"/>
</radialGradient>
<radialGradient id="paint5_radial" cx="0" cy="0" r="1" gradientUnits="userSpaceOnUse" gradientTransform="translate(5.82471 6.43151) rotate(-120.86) scale(7.52756 2.32199)">
<stop stop-color="#25342F" stop-opacity="0.3"/>
<stop offset="1" stop-color="#25342F" stop-opacity="0"/>
</radialGradient>
<radialGradient id="paint6_radial" cx="0" cy="0" r="1" gradientUnits="userSpaceOnUse" gradientTransform="translate(7.16746 5.48862) rotate(85.0979) scale(2.8351 1.60803)">
<stop stop-color="#056D4F"/>
<stop offset="0.232593" stop-color="#056C4E" stop-opacity="0.75"/>
<stop offset="0.598902" stop-color="#056C4E" stop-opacity="0.300824"/>
<stop offset="0.874482" stop-color="#056C4F" stop-opacity="0"/>
</radialGradient>
<radialGradient id="paint7_radial" cx="0" cy="0" r="1" gradientUnits="userSpaceOnUse" gradientTransform="translate(7.29288 0.903511) rotate(57.0774) scale(3.33271 1.748)">
<stop stop-color="#22B67B"/>
<stop offset="0.407867" stop-color="#24BE82"/>
<stop offset="1" stop-color="#24BE82" stop-opacity="0.07"/>
</radialGradient>
<linearGradient id="paint8_linear" x1="-1.76261" y1="5.91932" x2="3.0651" y2="5.95901" gradientUnits="userSpaceOnUse">
<stop stop-color="#09F8FF"/>
<stop offset="1" stop-color="#0BF7F9" stop-opacity="0"/>
</linearGradient>
<radialGradient id="paint9_radial" cx="0" cy="0" r="1" gradientUnits="userSpaceOnUse" gradientTransform="translate(-0.725466 1.57097) rotate(49.6506) scale(4.3527 4.34182)">
<stop stop-color="#09F8FF"/>
<stop offset="1" stop-color="#0BF7F9" stop-opacity="0"/>
</radialGradient>
<radialGradient id="paint10_radial" cx="0" cy="0" r="1" gradientUnits="userSpaceOnUse" gradientTransform="translate(2.76128 -0.620987) rotate(48.0118) scale(8.82815 8.81424)">
<stop stop-color="#00B8FF"/>
<stop offset="0.745423" stop-color="#00B9FC" stop-opacity="0"/>
</radialGradient>
<radialGradient id="paint11_radial" cx="0" cy="0" r="1" gradientUnits="userSpaceOnUse" gradientTransform="translate(3.22859 6.001) rotate(-107.468) scale(4.25527 2.94843)">
<stop stop-color="#00BCFF" stop-opacity="0.76"/>
<stop offset="0.57273" stop-color="#00BAFC" stop-opacity="0"/>
</radialGradient>
<radialGradient id="paint12_radial" cx="0" cy="0" r="1" gradientUnits="userSpaceOnUse" gradientTransform="translate(9.69777 4.38484) rotate(-129.551) scale(3.00907 2.10665)">
<stop stop-color="#5FEC50"/>
<stop offset="1" stop-color="#3CC08E" stop-opacity="0"/>
</radialGradient>
<radialGradient id="paint13_radial" cx="0" cy="0" r="1" gradientUnits="userSpaceOnUse" gradientTransform="translate(9.26706 6.32297) rotate(-79.0944) scale(0.91099 0.630082)">
<stop stop-color="#28855B"/>
<stop offset="1" stop-color="#14795C" stop-opacity="0"/>
</radialGradient>
<radialGradient id="paint14_radial" cx="0" cy="0" r="1" gradientUnits="userSpaceOnUse" gradientTransform="translate(9.22314 6.2559) rotate(-77.8798) scale(0.751004 1.04956)">
<stop stop-color="#28855B"/>
<stop offset="1" stop-color="#14795C" stop-opacity="0"/>
</radialGradient>
<radialGradient id="paint15_radial" cx="0" cy="0" r="1" gradientUnits="userSpaceOnUse" gradientTransform="translate(10.1178 4.90294) rotate(-132.79) scale(2.49127 1.75014)">
<stop stop-color="#5FF05B"/>
<stop offset="0.813285" stop-color="#5DE955" stop-opacity="0"/>
</radialGradient>
<radialGradient id="paint16_radial" cx="0" cy="0" r="1" gradientUnits="userSpaceOnUse" gradientTransform="translate(9.33896 5.61803) rotate(37.4559) scale(2.21556 3.07958)">
<stop stop-color="#123AA8"/>
<stop offset="0.966119" stop-color="#123AA8" stop-opacity="0"/>
</radialGradient>
<radialGradient id="paint17_radial" cx="0" cy="0" r="1" gradientUnits="userSpaceOnUse" gradientTransform="translate(8.78778 5.86776) rotate(8.48611) scale(2.61415 3.90201)">
<stop stop-color="#123AA8"/>
<stop offset="0.592487" stop-color="#123AA8" stop-opacity="0"/>
</radialGradient>
<radialGradient id="paint18_radial" cx="0" cy="0" r="1" gradientUnits="userSpaceOnUse" gradientTransform="translate(8.9999 6.19202) rotate(24.6631) scale(2.23305 3.97906)">
<stop stop-color="#123AA8"/>
<stop offset="0.756788" stop-color="#123AA8" stop-opacity="0"/>
</radialGradient>
<radialGradient id="paint19_radial" cx="0" cy="0" r="1" gradientUnits="userSpaceOnUse" gradientTransform="translate(8.73768 6.32434) rotate(95.8028) scale(4.01431 2.19988)">
<stop stop-color="#123AA8"/>
<stop offset="0.592487" stop-color="#123AA8" stop-opacity="0"/>
<stop offset="1" stop-color="#123AA8" stop-opacity="0"/>
</radialGradient>
<radialGradient id="paint20_radial" cx="0" cy="0" r="1" gradientUnits="userSpaceOnUse" gradientTransform="translate(9.33896 4.55204) rotate(93.6671) scale(4.83108 1.7241)">
<stop stop-color="#123AA8"/>
<stop offset="0.884611" stop-color="#123AA8" stop-opacity="0"/>
</radialGradient>
<radialGradient id="paint21_radial" cx="0" cy="0" r="1" gradientUnits="userSpaceOnUse" gradientTransform="translate(3.864 5.55653) rotate(84.8296) scale(2.56358 1.35816)">
<stop stop-color="#123AA8"/>
<stop offset="0.884611" stop-color="#123AA8" stop-opacity="0"/>
</radialGradient>
<radialGradient id="paint22_radial" cx="0" cy="0" r="1" gradientUnits="userSpaceOnUse" gradientTransform="translate(3.86217 5.62549) rotate(87.2504) scale(2.6755 2.20887)">
<stop stop-color="#123AA8"/>
<stop offset="0.884611" stop-color="#123AA8" stop-opacity="0"/>
</radialGradient>
<radialGradient id="paint23_radial" cx="0" cy="0" r="1" gradientUnits="userSpaceOnUse" gradientTransform="translate(4.47089 8.1395) rotate(-23.1725) scale(2.98367 5.83204)">
<stop stop-color="#123AA8"/>
<stop offset="0.708977" stop-color="#123AA8" stop-opacity="0"/>
</radialGradient>
<radialGradient id="paint24_radial" cx="0" cy="0" r="1" gradientUnits="userSpaceOnUse" gradientTransform="translate(3.40928 4.97135) rotate(-159.526) scale(1.97673 3.3847)">
<stop stop-color="#1A3DA0"/>
<stop offset="0.708977" stop-color="#123AA8" stop-opacity="0"/>
</radialGradient>
<radialGradient id="paint25_radial" cx="0" cy="0" r="1" gradientUnits="userSpaceOnUse" gradientTransform="translate(1.66926 5.64412) rotate(16.749) scale(3.77017 3.80596)">
<stop stop-color="#1E3882"/>
<stop offset="0.761404" stop-color="#123AA8" stop-opacity="0"/>
</radialGradient>
<linearGradient id="paint26_linear" x1="0.486271" y1="3.55928" x2="4.20142" y2="5.93048" gradientUnits="userSpaceOnUse">
<stop offset="0.229329" stop-color="#1DC4FF"/>
<stop offset="1" stop-color="#1CC1FF" stop-opacity="0"/>
</linearGradient>
<radialGradient id="paint27_radial" cx="0" cy="0" r="1" gradientUnits="userSpaceOnUse" gradientTransform="translate(-0.725692 1.57079) rotate(49.6506) scale(4.3527 4.34182)">
<stop stop-color="#09F8FF"/>
<stop offset="1" stop-color="#0BF7F9" stop-opacity="0"/>
</radialGradient>
<linearGradient id="paint28_linear" x1="0.691626" y1="3.68041" x2="1.73373" y2="4.62513" gradientUnits="userSpaceOnUse">
<stop stop-color="#26FBFF"/>
<stop offset="0.637346" stop-color="#0BF7F9" stop-opacity="0"/>
</linearGradient>
<linearGradient id="paint29_linear" x1="0.414763" y1="4.40349" x2="1.85616" y2="4.50633" gradientUnits="userSpaceOnUse">
<stop stop-color="#26FBFF"/>
<stop offset="0.637346" stop-color="#0BF7F9" stop-opacity="0"/>
</linearGradient>
<radialGradient id="paint30_radial" cx="0" cy="0" r="1" gradientUnits="userSpaceOnUse" gradientTransform="translate(3.22846 6.00105) rotate(-107.468) scale(4.25527 2.94843)">
<stop stop-color="#00BCFF" stop-opacity="0.76"/>
<stop offset="0.57273" stop-color="#00BAFC" stop-opacity="0"/>
</radialGradient>
<clipPath id="clip0">
<rect width="10.4145" height="7.58049" fill="white" transform="translate(0.799805 2.20996)"/>
</clipPath>
</defs>
</svg>
