<?xml version="1.0" standalone="no"?>
<!DOCTYPE svg PUBLIC "-//W3C//DTD SVG 1.1//EN" "http://www.w3.org/Graphics/SVG/1.1/DTD/svg11.dtd" >
<svg xmlns="http://www.w3.org/2000/svg" id="speaker-muted_28">
<path unicode="&#xeaf6;" transform="scale(1,-1)" id="speaker-muted_28" data-tags="speaker-muted_28" d="M551.762-18.131l-234.679 243.183 234.679 234.515v-477.698zM259.546 284.705c-3.704 3.822-8.828 6.028-14.148 6.028h-127.172c-43.468 0-78.818 35.303-78.818 78.802v157.525c0 43.381 35.35 78.802 78.818 78.802h127.172c5.32 0 10.443 2.167 14.148 5.95l292.216 302.324v-398.857l-262.029-261.859-30.187 31.284zM887.998 795.54l91.468 91.45c7.685 7.683 7.685 20.173 0 27.857-7.645 7.683-20.217 7.683-27.862 0l-360.433-360.204v370.33c0 14.224-8.512 26.872-21.635 32.348-13.163 5.477-28.177 2.403-38.187-7.644l-0.197-0.158-294.108-304.255h-118.817c-65.182 0-118.226-53.073-118.226-118.203v-157.525c0-65.169 53.044-118.203 118.226-118.203h118.817l24.828-25.729-216.985-216.863c-7.645-7.683-7.645-20.213 0-27.857 7.685-7.683 20.217-7.683 27.862 0l216.472 216.351 242.167-250.985c6.699-6.698 15.645-10.244 24.709-10.244 4.532 0 9.103 0.827 13.478 2.64 13.123 5.516 21.596 18.164 21.596 32.427v527.856l157.477 157.368c108.926-123.64 104.67-312.726-13.478-430.851-7.685-7.762-7.685-20.173 0-27.896 3.862-3.822 8.906-5.753 13.911-5.753 5.044 0 10.089 1.931 13.951 5.753 133.556 133.451 137.773 347.557 13.478 486.603l83.625 83.57c170.246-185.264 166.108-474.192-13.517-653.742-7.645-7.683-7.645-20.134 0-27.857 3.901-3.822 8.906-5.753 13.911-5.753 5.044 0 10.089 1.931 13.951 5.753 194.955 194.917 199.054 508.865 13.517 709.416v0z" />
</svg>
