<?xml version="1.0" standalone="no"?>
<!DOCTYPE svg PUBLIC "-//W3C//DTD SVG 1.1//EN" "http://www.w3.org/Graphics/SVG/1.1/DTD/svg11.dtd" >
<svg xmlns="http://www.w3.org/2000/svg" id="speaker_16">
<path unicode="&#xe9f9;" transform="scale(1,-1)" id="speaker_16" data-tags="speaker_16" d="M874.061 810.061c-12.48 12.48-32.768 12.48-45.248 0s-12.48-32.768 0-45.248c174.656-174.72 174.656-458.944 0-633.6-12.48-12.544-12.48-32.768 0-45.248 6.272-6.272 14.464-9.408 22.592-9.408 8.192 0 16.384 3.136 22.656 9.408 199.616 199.616 199.616 524.48 0 724.096zM547.008 956.365c-17.664 7.36-37.76 3.328-51.264-10.176-0.256-0.256-0.448-0.512-0.704-0.768l-286.080-305.408h-80.96c-70.528 0-128-57.472-128-128v-128c0-70.592 57.472-128 128-128h80.96l286.784-306.176c9.024-9.024 20.992-13.824 33.216-13.824 6.080 0 12.16 1.152 18.048 3.584 17.6 7.36 28.992 24.32 28.992 43.392v929.984c0 19.072-11.392 36.096-28.992 43.392zM512 26.061l-265.856 283.84c-6.016 6.4-14.464 10.112-23.36 10.112h-94.784c-35.264 0-64 28.672-64 64v128c0 35.328 28.736 64 64 64h94.784c8.896 0 17.344 3.648 23.36 10.112l265.856 283.84v-843.904zM783.565 719.501c-12.48 12.48-32.768 12.48-45.248 0s-12.48-32.768 0-45.248c60.416-60.416 93.696-140.736 93.696-226.24s-33.28-165.824-93.696-226.24c-12.48-12.544-12.48-32.768 0-45.248 6.272-6.272 14.464-9.408 22.592-9.408 8.192 0 16.384 3.136 22.656 9.408 72.512 72.448 112.448 168.896 112.448 271.488 0 102.528-39.936 198.976-112.448 271.488z" />
</svg>
