<?xml version="1.0" standalone="no"?>
<!DOCTYPE svg PUBLIC "-//W3C//DTD SVG 1.1//EN" "http://www.w3.org/Graphics/SVG/1.1/DTD/svg11.dtd" >
<svg xmlns="http://www.w3.org/2000/svg" id="speaker-muted_16">
<path unicode="&#xe9f7;" transform="scale(1,-1)" id="speaker-muted_16" data-tags="speaker-muted_16" d="M850.637 741.382c152.501-175.836 145.226-443.119-21.824-610.169-12.48-12.544-12.48-32.768 0-45.248 6.272-6.272 14.464-9.408 22.592-9.408 8.192 0 16.384 3.136 22.656 9.408 192.017 192.017 199.327 499.929 21.928 700.769l54.638 54.638c12.497 12.497 12.497 32.758 0 45.255s-32.758 12.497-45.255 0l-329.373-329.373v355.718c0 19.072-11.392 36.096-28.992 43.392-17.664 7.36-37.76 3.328-51.264-10.176-0.256-0.256-0.448-0.512-0.704-0.768l-286.080-305.408h-80.96c-70.528 0-128-57.472-128-128v-128c0-70.592 57.472-128 128-128h80.96l31.823-33.975-167.41-167.41c-12.497-12.497-12.497-32.758 0-45.255s32.758-12.497 45.255 0l165.93 165.93 211.186-225.466c9.024-9.024 20.992-13.824 33.216-13.824 6.080 0 12.16 1.152 18.048 3.584 17.6 7.36 28.992 24.32 28.992 43.392v483.756l183.805 183.805c46.77-56.992 72.207-127.784 72.207-202.538 0-85.504-33.28-165.824-93.696-226.24-12.48-12.544-12.48-32.768 0-45.248 6.272-6.272 14.464-9.408 22.592-9.408 8.192 0 16.384 3.136 22.656 9.408 72.512 72.448 112.448 168.896 112.448 271.488 0 91.805-32.019 178.735-90.774 247.971l45.398 45.398zM329.82 220.565l182.18 182.18v-376.684l-182.18 194.504zM286.045 267.3l-39.901 42.601c-6.016 6.4-14.464 10.112-23.36 10.112h-94.784c-35.264 0-64 28.672-64 64v128c0 35.328 28.736 64 64 64h94.784c8.896 0 17.344 3.648 23.36 10.112l265.856 283.84v-376.71l-225.955-225.955z" />
</svg>
