<svg width="12px" height="12px" viewBox="0 0 12 12"  xmlns="http://www.w3.org/2000/svg"><title>content/stickies_12</title><path id="stickies_12" data-tags="stickies_12" d="M8.0469,11 L7.9999,11 L7.9999,8.84 C7.9999,8.377 8.3769,8 8.8399,8 L10.9979,8 L10.9979,8.033 L8.0469,11 Z M0.9999,10.162 L0.9999,1.84 C0.9999,1.377 1.3769,1 1.8399,1 L9.9689,1 C10.4579,1 10.9299,1.416 10.9999,1.898 L10.9989,7 L8.8399,7 C7.8249,7 6.9999,7.825 6.9999,8.84 L6.9999,11 L1.8379,11 C1.3759,11 0.9999,10.624 0.9999,10.162 Z M11.9999,1.838 C11.8989,0.827 10.9849,0 9.9689,0 L1.8399,0 C0.8239,0 -0.0001,0.824 -0.0001,1.84 L-0.0001,10.162 C-0.0001,11.177 0.8229,12 1.8379,12 L8.0469,12 C8.3119,12 8.5669,11.895 8.7539,11.707 L11.7069,8.738 C11.8949,8.551 11.9999,8.296 11.9999,8.031 L11.9999,1.84 L11.9999,1.838 Z"/></svg>
