<svg width="81" height="60" viewBox="0 0 81 60" fill="none" xmlns="http://www.w3.org/2000/svg">
<g clip-path="url(#clip0)">
<path d="M25.1326 58.8051C10.1341 58.8051 5.02935 39.811 3.88551 36.1159C1.01304 26.8371 0.139816 18.4791 0.0473762 17.6019C-0.486017 12.5405 3.56768 9.01858 8.01666 9.01858C11.3854 9.01858 15.295 11.0379 15.8129 15.9371C15.9028 16.7612 16.5876 23.8682 19.0103 31.6121C21.5387 39.694 24.2209 42.8021 26.1525 42.8021C29.2717 42.8021 31.175 34.7794 32.8575 27.1403C34.0969 21.5123 35.4369 15.841 38.0822 10.8034C42.6847 2.03937 49.6393 0 55.6473 0C68.8215 0 75.415 15.2847 75.415 19.2447C75.415 25.8625 70.0248 27.5506 67.6886 27.5506C62.5788 27.5506 60.8467 24.1221 59.3887 21.117C58.0773 18.4135 56.7076 16.1655 54.9368 16.1655C54.355 16.1655 53.8157 16.4607 53.3171 16.9684C48.9157 21.448 47.4398 44.8829 38.6396 53.8398C33.7607 58.8052 28.4524 58.8051 25.1326 58.8051Z" fill="url(#paint0_linear)"/>
<path d="M25.1326 58.8051C10.1341 58.8051 5.02935 39.811 3.88551 36.1159C1.01304 26.8371 0.139816 18.4791 0.0473762 17.6019C-0.486017 12.5405 3.56768 9.01858 8.01666 9.01858C11.3854 9.01858 15.295 11.0379 15.8129 15.9371C15.9028 16.7612 16.5876 23.8682 19.0103 31.6121C21.5387 39.694 24.2209 42.8021 26.1525 42.8021C29.2717 42.8021 31.175 34.7794 32.8575 27.1403C34.0969 21.5123 35.4369 15.841 38.0822 10.8034C42.6847 2.03937 49.6393 0 55.6473 0C68.8215 0 75.415 15.2847 75.415 19.2447C75.415 25.8625 70.0248 27.5506 67.6886 27.5506C62.5788 27.5506 60.8467 24.1221 59.3887 21.117C58.0773 18.4135 56.7076 16.1655 54.9368 16.1655C54.355 16.1655 53.8157 16.4607 53.3171 16.9684C48.9157 21.448 47.4398 44.8829 38.6396 53.8398C33.7607 58.8052 28.4524 58.8051 25.1326 58.8051Z" fill="url(#paint1_radial)"/>
<path d="M25.1326 58.8051C10.1341 58.8051 5.02935 39.811 3.88551 36.1159C1.01304 26.8371 0.139816 18.4791 0.0473762 17.6019C-0.486017 12.5405 3.56768 9.01858 8.01666 9.01858C11.3854 9.01858 15.295 11.0379 15.8129 15.9371C15.9028 16.7612 16.5876 23.8682 19.0103 31.6121C21.5387 39.694 24.2209 42.8021 26.1525 42.8021C29.2717 42.8021 31.175 34.7794 32.8575 27.1403C34.0969 21.5123 35.4369 15.841 38.0822 10.8034C42.6847 2.03937 49.6393 0 55.6473 0C68.8215 0 75.415 15.2847 75.415 19.2447C75.415 25.8625 70.0248 27.5506 67.6886 27.5506C62.5788 27.5506 60.8467 24.1221 59.3887 21.117C58.0773 18.4135 56.7076 16.1655 54.9368 16.1655C54.355 16.1655 53.8157 16.4607 53.3171 16.9684C48.9157 21.448 47.4398 44.8829 38.6396 53.8398C33.7607 58.8052 28.4524 58.8051 25.1326 58.8051Z" fill="url(#paint2_radial)"/>
<path d="M25.1326 58.8051C10.1341 58.8051 5.02935 39.811 3.88551 36.1159C1.01304 26.8371 0.139816 18.4791 0.0473762 17.6019C-0.486017 12.5405 3.56768 9.01858 8.01666 9.01858C11.3854 9.01858 15.295 11.0379 15.8129 15.9371C15.9028 16.7612 16.5876 23.8682 19.0103 31.6121C21.5387 39.694 24.2209 42.8021 26.1525 42.8021C29.2717 42.8021 31.175 34.7794 32.8575 27.1403C34.0969 21.5123 35.4369 15.841 38.0822 10.8034C42.6847 2.03937 49.6393 0 55.6473 0C68.8215 0 75.415 15.2847 75.415 19.2447C75.415 25.8625 70.0248 27.5506 67.6886 27.5506C62.5788 27.5506 60.8467 24.1221 59.3887 21.117C58.0773 18.4135 56.7076 16.1655 54.9368 16.1655C54.355 16.1655 53.8157 16.4607 53.3171 16.9684C48.9157 21.448 47.4398 44.8829 38.6396 53.8398C33.7607 58.8052 28.4524 58.8051 25.1326 58.8051Z" fill="url(#paint3_radial)"/>
<path d="M25.1326 58.8051C10.1341 58.8051 5.02935 39.811 3.88551 36.1159C1.01304 26.8371 0.139816 18.4791 0.0473762 17.6019C-0.486017 12.5405 3.56768 9.01858 8.01666 9.01858C11.3854 9.01858 15.295 11.0379 15.8129 15.9371C15.9028 16.7612 16.5876 23.8682 19.0103 31.6121C21.5387 39.694 24.2209 42.8021 26.1525 42.8021C29.2717 42.8021 31.175 34.7794 32.8575 27.1403C34.0969 21.5123 35.4369 15.841 38.0822 10.8034C42.6847 2.03937 49.6393 0 55.6473 0C68.8215 0 75.415 15.2847 75.415 19.2447C75.415 25.8625 70.0248 27.5506 67.6886 27.5506C62.5788 27.5506 60.8467 24.1221 59.3887 21.117C58.0773 18.4135 56.7076 16.1655 54.9368 16.1655C54.355 16.1655 53.8157 16.4607 53.3171 16.9684C48.9157 21.448 47.4398 44.8829 38.6396 53.8398C33.7607 58.8052 28.4524 58.8051 25.1326 58.8051Z" fill="url(#paint4_radial)"/>
<path d="M25.1326 58.8051C10.1341 58.8051 5.02935 39.811 3.88551 36.1159C1.01304 26.8371 0.139816 18.4791 0.0473762 17.6019C-0.486017 12.5405 3.56768 9.01858 8.01666 9.01858C11.3854 9.01858 15.295 11.0379 15.8129 15.9371C15.9028 16.7612 16.5876 23.8682 19.0103 31.6121C21.5387 39.694 24.2209 42.8021 26.1525 42.8021C29.2717 42.8021 31.175 34.7794 32.8575 27.1403C34.0969 21.5123 35.4369 15.841 38.0822 10.8034C42.6847 2.03937 49.6393 0 55.6473 0C68.8215 0 75.415 15.2847 75.415 19.2447C75.415 25.8625 70.0248 27.5506 67.6886 27.5506C62.5788 27.5506 60.8467 24.1221 59.3887 21.117C58.0773 18.4135 56.7076 16.1655 54.9368 16.1655C54.355 16.1655 53.8157 16.4607 53.3171 16.9684C48.9157 21.448 47.4398 44.8829 38.6396 53.8398C33.7607 58.8052 28.4524 58.8051 25.1326 58.8051Z" fill="url(#paint5_radial)"/>
<path d="M25.1326 58.8051C10.1341 58.8051 5.02935 39.811 3.88551 36.1159C1.01304 26.8371 0.139816 18.4791 0.0473762 17.6019C-0.486017 12.5405 3.56768 9.01858 8.01666 9.01858C11.3854 9.01858 15.295 11.0379 15.8129 15.9371C15.9028 16.7612 16.5876 23.8682 19.0103 31.6121C21.5387 39.694 24.2209 42.8021 26.1525 42.8021C29.2717 42.8021 31.175 34.7794 32.8575 27.1403C34.0969 21.5123 35.4369 15.841 38.0822 10.8034C42.6847 2.03937 49.6393 0 55.6473 0C68.8215 0 75.415 15.2847 75.415 19.2447C75.415 25.8625 70.0248 27.5506 67.6886 27.5506C62.5788 27.5506 60.8467 24.1221 59.3887 21.117C58.0773 18.4135 56.7076 16.1655 54.9368 16.1655C54.355 16.1655 53.8157 16.4607 53.3171 16.9684C48.9157 21.448 47.4398 44.8829 38.6396 53.8398C33.7607 58.8052 28.4524 58.8051 25.1326 58.8051Z" fill="url(#paint6_radial)"/>
<path d="M25.1326 58.8051C10.1341 58.8051 5.02935 39.811 3.88551 36.1159C1.01304 26.8371 0.139816 18.4791 0.0473762 17.6019C-0.486017 12.5405 3.56768 9.01858 8.01666 9.01858C11.3854 9.01858 15.295 11.0379 15.8129 15.9371C15.9028 16.7612 16.5876 23.8682 19.0103 31.6121C21.5387 39.694 24.2209 42.8021 26.1525 42.8021C29.2717 42.8021 31.175 34.7794 32.8575 27.1403C34.0969 21.5123 35.4369 15.841 38.0822 10.8034C42.6847 2.03937 49.6393 0 55.6473 0C68.8215 0 75.415 15.2847 75.415 19.2447C75.415 25.8625 70.0248 27.5506 67.6886 27.5506C62.5788 27.5506 60.8467 24.1221 59.3887 21.117C58.0773 18.4135 56.7076 16.1655 54.9368 16.1655C54.355 16.1655 53.8157 16.4607 53.3171 16.9684C48.9157 21.448 47.4398 44.8829 38.6396 53.8398C33.7607 58.8052 28.4524 58.8051 25.1326 58.8051Z" fill="url(#paint7_linear)"/>
<path d="M25.1326 58.8051C10.1341 58.8051 5.02935 39.811 3.88551 36.1159C1.01304 26.8371 0.139816 18.4791 0.0473762 17.6019C-0.486017 12.5405 3.56768 9.01858 8.01666 9.01858C11.3854 9.01858 15.295 11.0379 15.8129 15.9371C15.9028 16.7612 16.5876 23.8682 19.0103 31.6121C21.5387 39.694 24.2209 42.8021 26.1525 42.8021C29.2717 42.8021 31.175 34.7794 32.8575 27.1403C34.0969 21.5123 35.4369 15.841 38.0822 10.8034C42.6847 2.03937 49.6393 0 55.6473 0C68.8215 0 75.415 15.2847 75.415 19.2447C75.415 25.8625 70.0248 27.5506 67.6886 27.5506C62.5788 27.5506 60.8467 24.1221 59.3887 21.117C58.0773 18.4135 56.7076 16.1655 54.9368 16.1655C54.355 16.1655 53.8157 16.4607 53.3171 16.9684C48.9157 21.448 47.4398 44.8829 38.6396 53.8398C33.7607 58.8052 28.4524 58.8051 25.1326 58.8051Z" fill="url(#paint8_radial)"/>
<path d="M55.6488 0C49.6408 0 42.6862 2.03938 38.0838 10.8034C35.4384 15.841 34.0985 21.5123 32.859 27.1403C32.4508 28.9923 32.0298 30.8667 31.582 32.6441V58.1078C33.8555 57.4637 36.2978 56.2245 38.6411 53.8398C47.4413 44.8829 48.9172 21.448 53.3186 16.9684C53.8172 16.4607 54.3565 16.1655 54.9383 16.1655C56.7092 16.1655 58.0788 18.4135 59.3902 21.117C60.8482 24.1221 62.5803 27.5506 67.6901 27.5506C70.0263 27.5506 75.4165 25.8625 75.4165 19.2447C75.4165 15.2847 68.823 0 55.6488 0Z" fill="url(#paint9_radial)"/>
<path d="M25.1326 58.8051C10.1341 58.8051 5.02935 39.811 3.88551 36.1159C1.01304 26.8371 0.139816 18.4791 0.0473762 17.6019C-0.486017 12.5405 3.56768 9.01858 8.01666 9.01858C11.3854 9.01858 15.295 11.0379 15.8129 15.9371C15.9028 16.7612 16.5876 23.8682 19.0103 31.6121C21.5387 39.694 24.2209 42.8021 26.1525 42.8021C29.2717 42.8021 31.175 34.7794 32.8575 27.1403C34.0969 21.5123 35.4369 15.841 38.0822 10.8034C42.6847 2.03937 49.6393 0 55.6473 0C68.8215 0 75.415 15.2847 75.415 19.2447C75.415 25.8625 70.0248 27.5506 67.6886 27.5506C62.5788 27.5506 60.8467 24.1221 59.3887 21.117C58.0773 18.4135 56.7076 16.1655 54.9368 16.1655C54.355 16.1655 53.8157 16.4607 53.3171 16.9684C48.9157 21.448 47.4398 44.8829 38.6396 53.8398C33.7607 58.8052 28.4524 58.8051 25.1326 58.8051Z" fill="url(#paint10_radial)"/>
<path d="M25.1326 58.8051C10.1341 58.8051 5.02935 39.811 3.88551 36.1159C1.01304 26.8371 0.139816 18.4791 0.0473762 17.6019C-0.486017 12.5405 3.56768 9.01858 8.01666 9.01858C11.3854 9.01858 15.295 11.0379 15.8129 15.9371C15.9028 16.7612 16.5876 23.8682 19.0103 31.6121C21.5387 39.694 24.2209 42.8021 26.1525 42.8021C29.2717 42.8021 31.175 34.7794 32.8575 27.1403C34.0969 21.5123 35.4369 15.841 38.0822 10.8034C42.6847 2.03937 49.6393 0 55.6473 0C68.8215 0 75.415 15.2847 75.415 19.2447C75.415 25.8625 70.0248 27.5506 67.6886 27.5506C62.5788 27.5506 60.8467 24.1221 59.3887 21.117C58.0773 18.4135 56.7076 16.1655 54.9368 16.1655C54.355 16.1655 53.8157 16.4607 53.3171 16.9684C48.9157 21.448 47.4398 44.8829 38.6396 53.8398C33.7607 58.8052 28.4524 58.8051 25.1326 58.8051Z" fill="url(#paint11_radial)"/>
<path d="M25.1326 58.8051C10.1341 58.8051 5.02935 39.811 3.88551 36.1159C1.01304 26.8371 0.139816 18.4791 0.0473762 17.6019C-0.486017 12.5405 3.56768 9.01858 8.01666 9.01858C11.3854 9.01858 15.295 11.0379 15.8129 15.9371C15.9028 16.7612 16.5876 23.8682 19.0103 31.6121C21.5387 39.694 24.2209 42.8021 26.1525 42.8021C29.2717 42.8021 31.175 34.7794 32.8575 27.1403C34.0969 21.5123 35.4369 15.841 38.0822 10.8034C42.6847 2.03937 49.6393 0 55.6473 0C68.8215 0 75.415 15.2847 75.415 19.2447C75.415 25.8625 70.0248 27.5506 67.6886 27.5506C62.5788 27.5506 60.8467 24.1221 59.3887 21.117C58.0773 18.4135 56.7076 16.1655 54.9368 16.1655C54.355 16.1655 53.8157 16.4607 53.3171 16.9684C48.9157 21.448 47.4398 44.8829 38.6396 53.8398C33.7607 58.8052 28.4524 58.8051 25.1326 58.8051Z" fill="url(#paint12_radial)"/>
<path d="M25.1326 58.8051C10.1341 58.8051 5.02935 39.811 3.88551 36.1159C1.01304 26.8371 0.139816 18.4791 0.0473762 17.6019C-0.486017 12.5405 3.56768 9.01858 8.01666 9.01858C11.3854 9.01858 15.295 11.0379 15.8129 15.9371C15.9028 16.7612 16.5876 23.8682 19.0103 31.6121C21.5387 39.694 24.2209 42.8021 26.1525 42.8021C29.2717 42.8021 31.175 34.7794 32.8575 27.1403C34.0969 21.5123 35.4369 15.841 38.0822 10.8034C42.6847 2.03937 49.6393 0 55.6473 0C68.8215 0 75.415 15.2847 75.415 19.2447C75.415 25.8625 70.0248 27.5506 67.6886 27.5506C62.5788 27.5506 60.8467 24.1221 59.3887 21.117C58.0773 18.4135 56.7076 16.1655 54.9368 16.1655C54.355 16.1655 53.8157 16.4607 53.3171 16.9684C48.9157 21.448 47.4398 44.8829 38.6396 53.8398C33.7607 58.8052 28.4524 58.8051 25.1326 58.8051Z" fill="url(#paint13_radial)"/>
<path d="M25.1326 58.8051C10.1341 58.8051 5.02935 39.811 3.88551 36.1159C1.01304 26.8371 0.139816 18.4791 0.0473762 17.6019C-0.486017 12.5405 3.56768 9.01858 8.01666 9.01858C11.3854 9.01858 15.295 11.0379 15.8129 15.9371C15.9028 16.7612 16.5876 23.8682 19.0103 31.6121C21.5387 39.694 24.2209 42.8021 26.1525 42.8021C29.2717 42.8021 31.175 34.7794 32.8575 27.1403C34.0969 21.5123 35.4369 15.841 38.0822 10.8034C42.6847 2.03937 49.6393 0 55.6473 0C68.8215 0 75.415 15.2847 75.415 19.2447C75.415 25.8625 70.0248 27.5506 67.6886 27.5506C62.5788 27.5506 60.8467 24.1221 59.3887 21.117C58.0773 18.4135 56.7076 16.1655 54.9368 16.1655C54.355 16.1655 53.8157 16.4607 53.3171 16.9684C48.9157 21.448 47.4398 44.8829 38.6396 53.8398C33.7607 58.8052 28.4524 58.8051 25.1326 58.8051Z" fill="url(#paint14_radial)"/>
<path d="M72.9852 9.01858C72.3914 9.01858 71.7941 9.07472 71.2082 9.19022C73.993 13.2115 75.3864 17.4241 75.3864 19.2443C75.3864 25.8622 69.9961 27.5502 67.66 27.5502C65.8369 27.5502 64.444 27.1135 63.3399 26.4156C63.3296 26.4569 63.3194 26.498 63.3091 26.5395C62.9808 27.8529 62.7216 29.2904 62.273 30.6893C61.4105 33.379 60.2471 36.4515 59.0047 38.8289C57.6656 41.3919 56.3397 42.8915 54.7594 42.8128C52.9622 42.7235 51.5051 40.4038 49.694 33.8476C49.1099 31.7337 48.5691 29.416 48.068 27.1403C46.8248 21.4956 45.2989 15.8193 42.6897 10.8034C38.4281 2.61112 31.1584 0 25.3546 0C19.9723 0 15.951 2.55184 12.7921 5.76692C11.9191 6.65545 10.9655 7.85249 10.0078 9.25927C12.763 9.92392 15.3683 12.0007 15.7843 15.9367C15.8662 16.6871 16.4414 22.6476 18.3731 29.5547C18.9274 27.8229 19.7355 25.2584 21.6131 21.117C22.5333 19.2204 23.3636 17.9697 24.1129 17.2072C24.8 16.5079 25.4188 16.2191 25.9759 16.2191C26.5767 16.2191 28.6283 16.7698 30.6256 23.7883C33.1027 32.4913 34.9461 46.3422 41.9693 53.6963C45.067 56.9403 49.402 59.0391 55.4099 59.0391C60.6815 59.0391 65.0766 56.7142 68.2102 53.4801C73.3625 48.162 76.1858 39.3695 77.1929 36.1159C80.0584 26.8594 80.8613 18.4876 80.9546 17.6019C81.4879 12.5405 77.23 9.01858 72.9852 9.01858Z" fill="#316AFF"/>
<path d="M72.9852 9.01858C72.3914 9.01858 71.7941 9.07472 71.2082 9.19022C73.993 13.2115 75.3864 17.4241 75.3864 19.2443C75.3864 25.8622 69.9961 27.5502 67.66 27.5502C65.8369 27.5502 64.444 27.1135 63.3399 26.4156C63.3296 26.4569 63.3194 26.498 63.3091 26.5395C62.9808 27.8529 62.7216 29.2904 62.273 30.6893C61.4105 33.379 60.2471 36.4515 59.0047 38.8289C57.6656 41.3919 56.3397 42.8915 54.7594 42.8128C52.9622 42.7235 51.5051 40.4038 49.694 33.8476C49.1099 31.7337 48.5691 29.416 48.068 27.1403C46.8248 21.4956 45.2989 15.8193 42.6897 10.8034C38.4281 2.61112 31.1584 0 25.3546 0C19.9723 0 15.951 2.55184 12.7921 5.76692C11.9191 6.65545 10.9655 7.85249 10.0078 9.25927C12.763 9.92392 15.3683 12.0007 15.7843 15.9367C15.8662 16.6871 16.4414 22.6476 18.3731 29.5547C18.9274 27.8229 19.7355 25.2584 21.6131 21.117C22.5333 19.2204 23.3636 17.9697 24.1129 17.2072C24.8 16.5079 25.4188 16.2191 25.9759 16.2191C26.5767 16.2191 28.6283 16.7698 30.6256 23.7883C33.1027 32.4913 34.9461 46.3422 41.9693 53.6963C45.067 56.9403 49.402 59.0391 55.4099 59.0391C60.6815 59.0391 65.0766 56.7142 68.2102 53.4801C73.3625 48.162 76.1858 39.3695 77.1929 36.1159C80.0584 26.8594 80.8613 18.4876 80.9546 17.6019C81.4879 12.5405 77.23 9.01858 72.9852 9.01858Z" fill="url(#paint15_radial)"/>
<path d="M72.9852 9.01858C72.3914 9.01858 71.7941 9.07472 71.2082 9.19022C73.993 13.2115 75.3864 17.4241 75.3864 19.2443C75.3864 25.8622 69.9961 27.5502 67.66 27.5502C65.8369 27.5502 64.444 27.1135 63.3399 26.4156C63.3296 26.4569 63.3194 26.498 63.3091 26.5395C62.9808 27.8529 62.7216 29.2904 62.273 30.6893C61.4105 33.379 60.2471 36.4515 59.0047 38.8289C57.6656 41.3919 56.3397 42.8915 54.7594 42.8128C52.9622 42.7235 51.5051 40.4038 49.694 33.8476C49.1099 31.7337 48.5691 29.416 48.068 27.1403C46.8248 21.4956 45.2989 15.8193 42.6897 10.8034C38.4281 2.61112 31.1584 0 25.3546 0C19.9723 0 15.951 2.55184 12.7921 5.76692C11.9191 6.65545 10.9655 7.85249 10.0078 9.25927C12.763 9.92392 15.3683 12.0007 15.7843 15.9367C15.8662 16.6871 16.4414 22.6476 18.3731 29.5547C18.9274 27.8229 19.7355 25.2584 21.6131 21.117C22.5333 19.2204 23.3636 17.9697 24.1129 17.2072C24.8 16.5079 25.4188 16.2191 25.9759 16.2191C26.5767 16.2191 28.6283 16.7698 30.6256 23.7883C33.1027 32.4913 34.9461 46.3422 41.9693 53.6963C45.067 56.9403 49.402 59.0391 55.4099 59.0391C60.6815 59.0391 65.0766 56.7142 68.2102 53.4801C73.3625 48.162 76.1858 39.3695 77.1929 36.1159C80.0584 26.8594 80.8613 18.4876 80.9546 17.6019C81.4879 12.5405 77.23 9.01858 72.9852 9.01858Z" fill="url(#paint16_radial)"/>
<path d="M72.9852 9.01858C72.3914 9.01858 71.7941 9.07472 71.2082 9.19022C73.993 13.2115 75.3864 17.4241 75.3864 19.2443C75.3864 25.8622 69.9961 27.5502 67.66 27.5502C65.8369 27.5502 64.444 27.1135 63.3399 26.4156C63.3296 26.4569 63.3194 26.498 63.3091 26.5395C62.9808 27.8529 62.7216 29.2904 62.273 30.6893C61.4105 33.379 60.2471 36.4515 59.0047 38.8289C57.6656 41.3919 56.3397 42.8915 54.7594 42.8128C52.9622 42.7235 51.5051 40.4038 49.694 33.8476C49.1099 31.7337 48.5691 29.416 48.068 27.1403C46.8248 21.4956 45.2989 15.8193 42.6897 10.8034C38.4281 2.61112 31.1584 0 25.3546 0C19.9723 0 15.951 2.55184 12.7921 5.76692C11.9191 6.65545 10.9655 7.85249 10.0078 9.25927C12.763 9.92392 15.3683 12.0007 15.7843 15.9367C15.8662 16.6871 16.4414 22.6476 18.3731 29.5547C18.9274 27.8229 19.7355 25.2584 21.6131 21.117C22.5333 19.2204 23.3636 17.9697 24.1129 17.2072C24.8 16.5079 25.4188 16.2191 25.9759 16.2191C26.5767 16.2191 28.6283 16.7698 30.6256 23.7883C33.1027 32.4913 34.9461 46.3422 41.9693 53.6963C45.067 56.9403 49.402 59.0391 55.4099 59.0391C60.6815 59.0391 65.0766 56.7142 68.2102 53.4801C73.3625 48.162 76.1858 39.3695 77.1929 36.1159C80.0584 26.8594 80.8613 18.4876 80.9546 17.6019C81.4879 12.5405 77.23 9.01858 72.9852 9.01858Z" fill="url(#paint17_radial)"/>
<path d="M72.9852 9.01858C72.3914 9.01858 71.7941 9.07472 71.2082 9.19022C73.993 13.2115 75.3864 17.4241 75.3864 19.2443C75.3864 25.8622 69.9961 27.5502 67.66 27.5502C65.8369 27.5502 64.444 27.1135 63.3399 26.4156C63.3296 26.4569 63.3194 26.498 63.3091 26.5395C62.9808 27.8529 62.7216 29.2904 62.273 30.6893C61.4105 33.379 60.2471 36.4515 59.0047 38.8289C57.6656 41.3919 56.3397 42.8915 54.7594 42.8128C52.9622 42.7235 51.5051 40.4038 49.694 33.8476C49.1099 31.7337 48.5691 29.416 48.068 27.1403C46.8248 21.4956 45.2989 15.8193 42.6897 10.8034C38.4281 2.61112 31.1584 0 25.3546 0C19.9723 0 15.951 2.55184 12.7921 5.76692C11.9191 6.65545 10.9655 7.85249 10.0078 9.25927C12.763 9.92392 15.3683 12.0007 15.7843 15.9367C15.8662 16.6871 16.4414 22.6476 18.3731 29.5547C18.9274 27.8229 19.7355 25.2584 21.6131 21.117C22.5333 19.2204 23.3636 17.9697 24.1129 17.2072C24.8 16.5079 25.4188 16.2191 25.9759 16.2191C26.5767 16.2191 28.6283 16.7698 30.6256 23.7883C33.1027 32.4913 34.9461 46.3422 41.9693 53.6963C45.067 56.9403 49.402 59.0391 55.4099 59.0391C60.6815 59.0391 65.0766 56.7142 68.2102 53.4801C73.3625 48.162 76.1858 39.3695 77.1929 36.1159C80.0584 26.8594 80.8613 18.4876 80.9546 17.6019C81.4879 12.5405 77.23 9.01858 72.9852 9.01858Z" fill="url(#paint18_radial)"/>
<path d="M72.9852 9.01858C72.3914 9.01858 71.7941 9.07472 71.2082 9.19022C73.993 13.2115 75.3864 17.4241 75.3864 19.2443C75.3864 25.8622 69.9961 27.5502 67.66 27.5502C65.8369 27.5502 64.444 27.1135 63.3399 26.4156C63.3296 26.4569 63.3194 26.498 63.3091 26.5395C62.9808 27.8529 62.7216 29.2904 62.273 30.6893C61.4105 33.379 60.2471 36.4515 59.0047 38.8289C57.6656 41.3919 56.3397 42.8915 54.7594 42.8128C52.9622 42.7235 51.5051 40.4038 49.694 33.8476C49.1099 31.7337 48.5691 29.416 48.068 27.1403C46.8248 21.4956 45.2989 15.8193 42.6897 10.8034C38.4281 2.61112 31.1584 0 25.3546 0C19.9723 0 15.951 2.55184 12.7921 5.76692C11.9191 6.65545 10.9655 7.85249 10.0078 9.25927C12.763 9.92392 15.3683 12.0007 15.7843 15.9367C15.8662 16.6871 16.4414 22.6476 18.3731 29.5547C18.9274 27.8229 19.7355 25.2584 21.6131 21.117C22.5333 19.2204 23.3636 17.9697 24.1129 17.2072C24.8 16.5079 25.4188 16.2191 25.9759 16.2191C26.5767 16.2191 28.6283 16.7698 30.6256 23.7883C33.1027 32.4913 34.9461 46.3422 41.9693 53.6963C45.067 56.9403 49.402 59.0391 55.4099 59.0391C60.6815 59.0391 65.0766 56.7142 68.2102 53.4801C73.3625 48.162 76.1858 39.3695 77.1929 36.1159C80.0584 26.8594 80.8613 18.4876 80.9546 17.6019C81.4879 12.5405 77.23 9.01858 72.9852 9.01858Z" fill="url(#paint19_radial)"/>
<path d="M72.9852 9.01858C72.3914 9.01858 71.7941 9.07472 71.2082 9.19022C73.993 13.2115 75.3864 17.4241 75.3864 19.2443C75.3864 25.8622 69.9961 27.5502 67.66 27.5502C65.8369 27.5502 64.444 27.1135 63.3399 26.4156C63.3296 26.4569 63.3194 26.498 63.3091 26.5395C62.9808 27.8529 62.7216 29.2904 62.273 30.6893C61.4105 33.379 60.2471 36.4515 59.0047 38.8289C57.6656 41.3919 56.3397 42.8915 54.7594 42.8128C52.9622 42.7235 51.5051 40.4038 49.694 33.8476C49.1099 31.7337 48.5691 29.416 48.068 27.1403C46.8248 21.4956 45.2989 15.8193 42.6897 10.8034C38.4281 2.61112 31.1584 0 25.3546 0C19.9723 0 15.951 2.55184 12.7921 5.76692C11.9191 6.65545 10.9655 7.85249 10.0078 9.25927C12.763 9.92392 15.3683 12.0007 15.7843 15.9367C15.8662 16.6871 16.4414 22.6476 18.3731 29.5547C18.9274 27.8229 19.7355 25.2584 21.6131 21.117C22.5333 19.2204 23.3636 17.9697 24.1129 17.2072C24.8 16.5079 25.4188 16.2191 25.9759 16.2191C26.5767 16.2191 28.6283 16.7698 30.6256 23.7883C33.1027 32.4913 34.9461 46.3422 41.9693 53.6963C45.067 56.9403 49.402 59.0391 55.4099 59.0391C60.6815 59.0391 65.0766 56.7142 68.2102 53.4801C73.3625 48.162 76.1858 39.3695 77.1929 36.1159C80.0584 26.8594 80.8613 18.4876 80.9546 17.6019C81.4879 12.5405 77.23 9.01858 72.9852 9.01858Z" fill="url(#paint20_radial)"/>
<path d="M72.9852 9.01858C72.3914 9.01858 71.7941 9.07472 71.2082 9.19022C73.993 13.2115 75.3864 17.4241 75.3864 19.2443C75.3864 25.8622 69.9961 27.5502 67.66 27.5502C65.8369 27.5502 64.444 27.1135 63.3399 26.4156C63.3296 26.4569 63.3194 26.498 63.3091 26.5395C62.9808 27.8529 62.7216 29.2904 62.273 30.6893C61.4105 33.379 60.2471 36.4515 59.0047 38.8289C57.6656 41.3919 56.3397 42.8915 54.7594 42.8128C52.9622 42.7235 51.5051 40.4038 49.694 33.8476C49.1099 31.7337 48.5691 29.416 48.068 27.1403C46.8248 21.4956 45.2989 15.8193 42.6897 10.8034C38.4281 2.61112 31.1584 0 25.3546 0C19.9723 0 15.951 2.55184 12.7921 5.76692C11.9191 6.65545 10.9655 7.85249 10.0078 9.25927C12.763 9.92392 15.3683 12.0007 15.7843 15.9367C15.8662 16.6871 16.4414 22.6476 18.3731 29.5547C18.9274 27.8229 19.7355 25.2584 21.6131 21.117C22.5333 19.2204 23.3636 17.9697 24.1129 17.2072C24.8 16.5079 25.4188 16.2191 25.9759 16.2191C26.5767 16.2191 28.6283 16.7698 30.6256 23.7883C33.1027 32.4913 34.9461 46.3422 41.9693 53.6963C45.067 56.9403 49.402 59.0391 55.4099 59.0391C60.6815 59.0391 65.0766 56.7142 68.2102 53.4801C73.3625 48.162 76.1858 39.3695 77.1929 36.1159C80.0584 26.8594 80.8613 18.4876 80.9546 17.6019C81.4879 12.5405 77.23 9.01858 72.9852 9.01858Z" fill="url(#paint21_radial)"/>
<path d="M72.9852 9.01858C72.3914 9.01858 71.7941 9.07472 71.2082 9.19022C73.993 13.2115 75.3864 17.4241 75.3864 19.2443C75.3864 25.8622 69.9961 27.5502 67.66 27.5502C65.8369 27.5502 64.444 27.1135 63.3399 26.4156C63.3296 26.4569 63.3194 26.498 63.3091 26.5395C62.9808 27.8529 62.7216 29.2904 62.273 30.6893C61.4105 33.379 60.2471 36.4515 59.0047 38.8289C57.6656 41.3919 56.3397 42.8915 54.7594 42.8128C52.9622 42.7235 51.5051 40.4038 49.694 33.8476C49.1099 31.7337 48.5691 29.416 48.068 27.1403C46.8248 21.4956 45.2989 15.8193 42.6897 10.8034C38.4281 2.61112 31.1584 0 25.3546 0C19.9723 0 15.951 2.55184 12.7921 5.76692C11.9191 6.65545 10.9655 7.85249 10.0078 9.25927C12.763 9.92392 15.3683 12.0007 15.7843 15.9367C15.8662 16.6871 16.4414 22.6476 18.3731 29.5547C18.9274 27.8229 19.7355 25.2584 21.6131 21.117C22.5333 19.2204 23.3636 17.9697 24.1129 17.2072C24.8 16.5079 25.4188 16.2191 25.9759 16.2191C26.5767 16.2191 28.6283 16.7698 30.6256 23.7883C33.1027 32.4913 34.9461 46.3422 41.9693 53.6963C45.067 56.9403 49.402 59.0391 55.4099 59.0391C60.6815 59.0391 65.0766 56.7142 68.2102 53.4801C73.3625 48.162 76.1858 39.3695 77.1929 36.1159C80.0584 26.8594 80.8613 18.4876 80.9546 17.6019C81.4879 12.5405 77.23 9.01858 72.9852 9.01858Z" fill="url(#paint22_radial)"/>
<path d="M72.9852 9.01858C72.3914 9.01858 71.7941 9.07472 71.2082 9.19022C73.993 13.2115 75.3864 17.4241 75.3864 19.2443C75.3864 25.8622 69.9961 27.5502 67.66 27.5502C65.8369 27.5502 64.444 27.1135 63.3399 26.4156C63.3296 26.4569 63.3194 26.498 63.3091 26.5395C62.9808 27.8529 62.7216 29.2904 62.273 30.6893C61.4105 33.379 60.2471 36.4515 59.0047 38.8289C57.6656 41.3919 56.3397 42.8915 54.7594 42.8128C52.9622 42.7235 51.5051 40.4038 49.694 33.8476C49.1099 31.7337 48.5691 29.416 48.068 27.1403C46.8248 21.4956 45.2989 15.8193 42.6897 10.8034C38.4281 2.61112 31.1584 0 25.3546 0C19.9723 0 15.951 2.55184 12.7921 5.76692C11.9191 6.65545 10.9655 7.85249 10.0078 9.25927C12.763 9.92392 15.3683 12.0007 15.7843 15.9367C15.8662 16.6871 16.4414 22.6476 18.3731 29.5547C18.9274 27.8229 19.7355 25.2584 21.6131 21.117C22.5333 19.2204 23.3636 17.9697 24.1129 17.2072C24.8 16.5079 25.4188 16.2191 25.9759 16.2191C26.5767 16.2191 28.6283 16.7698 30.6256 23.7883C33.1027 32.4913 34.9461 46.3422 41.9693 53.6963C45.067 56.9403 49.402 59.0391 55.4099 59.0391C60.6815 59.0391 65.0766 56.7142 68.2102 53.4801C73.3625 48.162 76.1858 39.3695 77.1929 36.1159C80.0584 26.8594 80.8613 18.4876 80.9546 17.6019C81.4879 12.5405 77.23 9.01858 72.9852 9.01858Z" fill="url(#paint23_radial)"/>
<path d="M72.9852 9.01858C72.3914 9.01858 71.7941 9.07472 71.2082 9.19022C73.993 13.2115 75.3864 17.4241 75.3864 19.2443C75.3864 25.8622 69.9961 27.5502 67.66 27.5502C65.8369 27.5502 64.444 27.1135 63.3399 26.4156C63.3296 26.4569 63.3194 26.498 63.3091 26.5395C62.9808 27.8529 62.7216 29.2904 62.273 30.6893C61.4105 33.379 60.2471 36.4515 59.0047 38.8289C57.6656 41.3919 56.3397 42.8915 54.7594 42.8128C52.9622 42.7235 51.5051 40.4038 49.694 33.8476C49.1099 31.7337 48.5691 29.416 48.068 27.1403C46.8248 21.4956 45.2989 15.8193 42.6897 10.8034C38.4281 2.61112 31.1584 0 25.3546 0C19.9723 0 15.951 2.55184 12.7921 5.76692C11.9191 6.65545 10.9655 7.85249 10.0078 9.25927C12.763 9.92392 15.3683 12.0007 15.7843 15.9367C15.8662 16.6871 16.4414 22.6476 18.3731 29.5547C18.9274 27.8229 19.7355 25.2584 21.6131 21.117C22.5333 19.2204 23.3636 17.9697 24.1129 17.2072C24.8 16.5079 25.4188 16.2191 25.9759 16.2191C26.5767 16.2191 28.6283 16.7698 30.6256 23.7883C33.1027 32.4913 34.9461 46.3422 41.9693 53.6963C45.067 56.9403 49.402 59.0391 55.4099 59.0391C60.6815 59.0391 65.0766 56.7142 68.2102 53.4801C73.3625 48.162 76.1858 39.3695 77.1929 36.1159C80.0584 26.8594 80.8613 18.4876 80.9546 17.6019C81.4879 12.5405 77.23 9.01858 72.9852 9.01858Z" fill="url(#paint24_radial)"/>
<path d="M25.1326 58.8051C10.1341 58.8051 5.02935 39.811 3.88551 36.1159C1.01304 26.8371 0.139816 18.4791 0.0473762 17.6019C-0.486017 12.5405 3.56768 9.01858 8.01666 9.01858C11.3854 9.01858 15.295 11.0379 15.8129 15.9371C15.9029 16.7612 16.5876 23.8682 19.0103 31.6121C21.5387 39.694 24.2209 42.8021 26.1525 42.8021C29.2717 42.8021 31.175 34.7794 32.8575 27.1403C34.0969 21.5123 35.4369 15.841 38.0822 10.8034C42.6847 2.03937 49.6393 0 55.6473 0C68.8215 0 75.415 15.2847 75.415 19.2447C75.415 25.8625 70.0248 27.5506 67.6886 27.5506C62.5788 27.5506 60.8467 24.1221 59.3887 21.117C58.0773 18.4135 56.7076 16.1655 54.9368 16.1655C54.355 16.1655 53.8157 16.4607 53.3171 16.9684C48.9157 21.448 47.4398 44.8829 38.6396 53.8398C33.7607 58.8052 28.4524 58.8051 25.1326 58.8051Z" fill="url(#paint25_linear)"/>
<path d="M25.1326 58.8051C10.1341 58.8051 5.02935 39.811 3.88551 36.1159C1.01304 26.8371 0.139816 18.4791 0.0473762 17.6019C-0.486017 12.5405 3.56768 9.01858 8.01666 9.01858C11.3854 9.01858 15.295 11.0379 15.8129 15.9371C15.9029 16.7612 16.5876 23.8682 19.0103 31.6121C21.5387 39.694 24.2209 42.8021 26.1525 42.8021C29.2717 42.8021 31.175 34.7794 32.8575 27.1403C34.0969 21.5123 35.4369 15.841 38.0822 10.8034C42.6847 2.03937 49.6393 0 55.6473 0C68.8215 0 75.415 15.2847 75.415 19.2447C75.415 25.8625 70.0248 27.5506 67.6886 27.5506C62.5788 27.5506 60.8467 24.1221 59.3887 21.117C58.0773 18.4135 56.7076 16.1655 54.9368 16.1655C54.355 16.1655 53.8157 16.4607 53.3171 16.9684C48.9157 21.448 47.4398 44.8829 38.6396 53.8398C33.7607 58.8052 28.4524 58.8051 25.1326 58.8051Z" fill="url(#paint26_radial)"/>
<path d="M25.1326 58.8051C10.1341 58.8051 5.02935 39.811 3.88551 36.1159C1.01304 26.8371 0.139816 18.4791 0.0473762 17.6019C-0.486017 12.5405 3.56768 9.01858 8.01666 9.01858C11.3854 9.01858 15.295 11.0379 15.8129 15.9371C15.9029 16.7612 16.5876 23.8682 19.0103 31.6121C21.5387 39.694 24.2209 42.8021 26.1525 42.8021C29.2717 42.8021 31.175 34.7794 32.8575 27.1403C34.0969 21.5123 35.4369 15.841 38.0822 10.8034C42.6847 2.03937 49.6393 0 55.6473 0C68.8215 0 75.415 15.2847 75.415 19.2447C75.415 25.8625 70.0248 27.5506 67.6886 27.5506C62.5788 27.5506 60.8467 24.1221 59.3887 21.117C58.0773 18.4135 56.7076 16.1655 54.9368 16.1655C54.355 16.1655 53.8157 16.4607 53.3171 16.9684C48.9157 21.448 47.4398 44.8829 38.6396 53.8398C33.7607 58.8052 28.4524 58.8051 25.1326 58.8051Z" fill="url(#paint27_linear)"/>
<path d="M25.1326 58.8051C10.1341 58.8051 5.02935 39.811 3.88551 36.1159C1.01304 26.8371 0.139816 18.4791 0.0473762 17.6019C-0.486017 12.5405 3.56768 9.01858 8.01666 9.01858C11.3854 9.01858 15.295 11.0379 15.8129 15.9371C15.9029 16.7612 16.5876 23.8682 19.0103 31.6121C21.5387 39.694 24.2209 42.8021 26.1525 42.8021C29.2717 42.8021 31.175 34.7794 32.8575 27.1403C34.0969 21.5123 35.4369 15.841 38.0822 10.8034C42.6847 2.03937 49.6393 0 55.6473 0C68.8215 0 75.415 15.2847 75.415 19.2447C75.415 25.8625 70.0248 27.5506 67.6886 27.5506C62.5788 27.5506 60.8467 24.1221 59.3887 21.117C58.0773 18.4135 56.7076 16.1655 54.9368 16.1655C54.355 16.1655 53.8157 16.4607 53.3171 16.9684C48.9157 21.448 47.4398 44.8829 38.6396 53.8398C33.7607 58.8052 28.4524 58.8051 25.1326 58.8051Z" fill="url(#paint28_linear)"/>
<path d="M25.1326 58.8051C10.1341 58.8051 5.02935 39.811 3.88551 36.1159C1.01304 26.8371 0.139816 18.4791 0.0473762 17.6019C-0.486017 12.5405 3.56768 9.01858 8.01666 9.01858C11.3854 9.01858 15.295 11.0379 15.8129 15.9371C15.9029 16.7612 16.5876 23.8682 19.0103 31.6121C21.5387 39.694 24.2209 42.8021 26.1525 42.8021C29.2717 42.8021 31.175 34.7794 32.8575 27.1403C34.0969 21.5123 35.4369 15.841 38.0822 10.8034C42.6847 2.03937 49.6393 0 55.6473 0C68.8215 0 75.415 15.2847 75.415 19.2447C75.415 25.8625 70.0248 27.5506 67.6886 27.5506C62.5788 27.5506 60.8467 24.1221 59.3887 21.117C58.0773 18.4135 56.7076 16.1655 54.9368 16.1655C54.355 16.1655 53.8157 16.4607 53.3171 16.9684C48.9157 21.448 47.4398 44.8829 38.6396 53.8398C33.7607 58.8052 28.4524 58.8051 25.1326 58.8051Z" fill="url(#paint29_radial)"/>
</g>
<defs>
<linearGradient id="paint0_linear" x1="67.2083" y1="17.2534" x2="14.2108" y2="34.6102" gradientUnits="userSpaceOnUse">
<stop stop-color="#5CEE64"/>
<stop offset="1" stop-color="#00BBFF"/>
</linearGradient>
<radialGradient id="paint1_radial" cx="0" cy="0" r="1" gradientUnits="userSpaceOnUse" gradientTransform="translate(30.8307 31.3596) rotate(-120.825) scale(34.7448 29.149)">
<stop stop-color="#007383"/>
<stop offset="0.407867" stop-color="#00717E" stop-opacity="0.75"/>
<stop offset="0.874482" stop-color="#007281" stop-opacity="0"/>
</radialGradient>
<radialGradient id="paint2_radial" cx="0" cy="0" r="1" gradientUnits="userSpaceOnUse" gradientTransform="translate(53.6361 24.8923) rotate(-126.696) scale(28.3321 18.6084)">
<stop stop-color="#218970"/>
<stop offset="0.459527" stop-color="#267E6A"/>
<stop offset="1" stop-color="#026C51" stop-opacity="0"/>
</radialGradient>
<radialGradient id="paint3_radial" cx="0" cy="0" r="1" gradientUnits="userSpaceOnUse" gradientTransform="translate(28.8319 33.0017) rotate(-107.446) scale(23.0834 12.0123)">
<stop stop-color="#178697"/>
<stop offset="0.407867" stop-color="#17838F" stop-opacity="0.79"/>
<stop offset="0.874482" stop-color="#007281" stop-opacity="0"/>
</radialGradient>
<radialGradient id="paint4_radial" cx="0" cy="0" r="1" gradientUnits="userSpaceOnUse" gradientTransform="translate(39.0819 32.8787) rotate(-120.825) scale(58.6058 18.0661)">
<stop stop-color="#25342F" stop-opacity="0.3"/>
<stop offset="1" stop-color="#25342F" stop-opacity="0"/>
</radialGradient>
<radialGradient id="paint5_radial" cx="0" cy="0" r="1" gradientUnits="userSpaceOnUse" gradientTransform="translate(49.5253 25.5351) rotate(85.1046) scale(22.0804 12.5068)">
<stop stop-color="#056D4F"/>
<stop offset="0.232593" stop-color="#056C4E" stop-opacity="0.75"/>
<stop offset="0.598902" stop-color="#056C4E" stop-opacity="0.300824"/>
<stop offset="0.874482" stop-color="#056C4F" stop-opacity="0"/>
</radialGradient>
<radialGradient id="paint6_radial" cx="0" cy="0" r="1" gradientUnits="userSpaceOnUse" gradientTransform="translate(50.5007 -10.175) rotate(57.1132) scale(25.9456 13.6008)">
<stop stop-color="#22B67B"/>
<stop offset="0.407867" stop-color="#24BE82"/>
<stop offset="1" stop-color="#24BE82" stop-opacity="0.07"/>
</radialGradient>
<linearGradient id="paint7_linear" x1="-19.9295" y1="28.8896" x2="17.6186" y2="29.1979" gradientUnits="userSpaceOnUse">
<stop stop-color="#09F8FF"/>
<stop offset="1" stop-color="#0BF7F9" stop-opacity="0"/>
</linearGradient>
<radialGradient id="paint8_radial" cx="0" cy="0" r="1" gradientUnits="userSpaceOnUse" gradientTransform="translate(-11.863 -4.97668) rotate(49.6893) scale(33.8806 33.7885)">
<stop stop-color="#09F8FF"/>
<stop offset="1" stop-color="#0BF7F9" stop-opacity="0"/>
</radialGradient>
<radialGradient id="paint9_radial" cx="0" cy="0" r="1" gradientUnits="userSpaceOnUse" gradientTransform="translate(15.2562 -22.0445) rotate(48.0508) scale(68.7141 68.5959)">
<stop stop-color="#00B8FF"/>
<stop offset="0.745423" stop-color="#00B9FC" stop-opacity="0"/>
</radialGradient>
<radialGradient id="paint10_radial" cx="0" cy="0" r="1" gradientUnits="userSpaceOnUse" gradientTransform="translate(18.8902 29.5257) rotate(-107.446) scale(33.1372 22.9346)">
<stop stop-color="#00BCFF" stop-opacity="0.76"/>
<stop offset="0.57273" stop-color="#00BAFC" stop-opacity="0"/>
</radialGradient>
<radialGradient id="paint11_radial" cx="0" cy="0" r="1" gradientUnits="userSpaceOnUse" gradientTransform="translate(69.2051 16.9386) rotate(-129.512) scale(23.4226 16.3939)">
<stop stop-color="#5FEC50"/>
<stop offset="1" stop-color="#3CC08E" stop-opacity="0"/>
</radialGradient>
<radialGradient id="paint12_radial" cx="0" cy="0" r="1" gradientUnits="userSpaceOnUse" gradientTransform="translate(65.8552 32.0333) rotate(-79.109) scale(7.09471 4.90079)">
<stop stop-color="#28855B"/>
<stop offset="1" stop-color="#14795C" stop-opacity="0"/>
</radialGradient>
<radialGradient id="paint13_radial" cx="0" cy="0" r="1" gradientUnits="userSpaceOnUse" gradientTransform="translate(65.5136 31.511) rotate(-77.8959) scale(5.84869 8.16356)">
<stop stop-color="#28855B"/>
<stop offset="1" stop-color="#14795C" stop-opacity="0"/>
</radialGradient>
<radialGradient id="paint14_radial" cx="0" cy="0" r="1" gradientUnits="userSpaceOnUse" gradientTransform="translate(72.4721 20.9737) rotate(-132.751) scale(19.3905 13.6206)">
<stop stop-color="#5FF05B"/>
<stop offset="0.813285" stop-color="#5DE955" stop-opacity="0"/>
</radialGradient>
<radialGradient id="paint15_radial" cx="0" cy="0" r="1" gradientUnits="userSpaceOnUse" gradientTransform="translate(66.4116 26.5468) rotate(37.4938) scale(17.2405 23.9725)">
<stop stop-color="#123AA8"/>
<stop offset="0.966119" stop-color="#123AA8" stop-opacity="0"/>
</radialGradient>
<radialGradient id="paint16_radial" cx="0" cy="0" r="1" gradientUnits="userSpaceOnUse" gradientTransform="translate(62.1247 28.4918) rotate(8.49757) scale(20.3325 30.3891)">
<stop stop-color="#123AA8"/>
<stop offset="0.592487" stop-color="#123AA8" stop-opacity="0"/>
</radialGradient>
<radialGradient id="paint17_radial" cx="0" cy="0" r="1" gradientUnits="userSpaceOnUse" gradientTransform="translate(63.7745 31.0173) rotate(24.6929) scale(17.372 30.9827)">
<stop stop-color="#123AA8"/>
<stop offset="0.756788" stop-color="#123AA8" stop-opacity="0"/>
</radialGradient>
<radialGradient id="paint18_radial" cx="0" cy="0" r="1" gradientUnits="userSpaceOnUse" gradientTransform="translate(61.735 32.0478) rotate(95.7949) scale(31.2642 17.1101)">
<stop stop-color="#123AA8"/>
<stop offset="0.592487" stop-color="#123AA8" stop-opacity="0"/>
<stop offset="1" stop-color="#123AA8" stop-opacity="0"/>
</radialGradient>
<radialGradient id="paint19_radial" cx="0" cy="0" r="1" gradientUnits="userSpaceOnUse" gradientTransform="translate(66.4116 18.2446) rotate(93.6621) scale(37.6256 13.4095)">
<stop stop-color="#123AA8"/>
<stop offset="0.884611" stop-color="#123AA8" stop-opacity="0"/>
</radialGradient>
<radialGradient id="paint20_radial" cx="0" cy="0" r="1" gradientUnits="userSpaceOnUse" gradientTransform="translate(23.8294 26.0679) rotate(84.8366) scale(19.9657 10.5634)">
<stop stop-color="#123AA8"/>
<stop offset="0.884611" stop-color="#123AA8" stop-opacity="0"/>
</radialGradient>
<radialGradient id="paint21_radial" cx="0" cy="0" r="1" gradientUnits="userSpaceOnUse" gradientTransform="translate(23.8151 26.605) rotate(87.2542) scale(20.8376 17.1798)">
<stop stop-color="#123AA8"/>
<stop offset="0.884611" stop-color="#123AA8" stop-opacity="0"/>
</radialGradient>
<radialGradient id="paint22_radial" cx="0" cy="0" r="1" gradientUnits="userSpaceOnUse" gradientTransform="translate(28.5495 46.1848) rotate(-23.2009) scale(23.2108 45.412)">
<stop stop-color="#123AA8"/>
<stop offset="0.708977" stop-color="#123AA8" stop-opacity="0"/>
</radialGradient>
<radialGradient id="paint23_radial" cx="0" cy="0" r="1" gradientUnits="userSpaceOnUse" gradientTransform="translate(20.2927 21.5103) rotate(-159.501) scale(15.3768 26.3566)">
<stop stop-color="#1A3DA0"/>
<stop offset="0.708977" stop-color="#123AA8" stop-opacity="0"/>
</radialGradient>
<radialGradient id="paint24_radial" cx="0" cy="0" r="1" gradientUnits="userSpaceOnUse" gradientTransform="translate(6.75946 26.7501) rotate(16.7707) scale(29.3264 29.6386)">
<stop stop-color="#1E3882"/>
<stop offset="0.761404" stop-color="#123AA8" stop-opacity="0"/>
</radialGradient>
<linearGradient id="paint25_linear" x1="-2.43855" y1="10.5089" x2="26.4794" y2="28.9406" gradientUnits="userSpaceOnUse">
<stop offset="0.229329" stop-color="#1DC4FF"/>
<stop offset="1" stop-color="#1CC1FF" stop-opacity="0"/>
</linearGradient>
<radialGradient id="paint26_radial" cx="0" cy="0" r="1" gradientUnits="userSpaceOnUse" gradientTransform="translate(-11.8648 -4.97805) rotate(49.6893) scale(33.8806 33.7885)">
<stop stop-color="#09F8FF"/>
<stop offset="1" stop-color="#0BF7F9" stop-opacity="0"/>
</radialGradient>
<linearGradient id="paint27_linear" x1="-0.841373" y1="11.4523" x2="7.27374" y2="18.799" gradientUnits="userSpaceOnUse">
<stop stop-color="#26FBFF"/>
<stop offset="0.637346" stop-color="#0BF7F9" stop-opacity="0"/>
</linearGradient>
<linearGradient id="paint28_linear" x1="-2.99472" y1="17.0839" x2="8.21612" y2="17.8827" gradientUnits="userSpaceOnUse">
<stop stop-color="#26FBFF"/>
<stop offset="0.637346" stop-color="#0BF7F9" stop-opacity="0"/>
</linearGradient>
<radialGradient id="paint29_radial" cx="0" cy="0" r="1" gradientUnits="userSpaceOnUse" gradientTransform="translate(18.8892 29.5261) rotate(-107.446) scale(33.1372 22.9346)">
<stop stop-color="#00BCFF" stop-opacity="0.76"/>
<stop offset="0.57273" stop-color="#00BAFC" stop-opacity="0"/>
</radialGradient>
<clipPath id="clip0">
<rect width="81" height="59.0391" fill="white"/>
</clipPath>
</defs>
</svg>
