<?xml version="1.0" encoding="UTF-8"?>
<svg width="282px" height="114px" viewBox="0 0 282 114" version="1.1" xmlns="http://www.w3.org/2000/svg" xmlns:xlink="http://www.w3.org/1999/xlink">
    <!-- Generator: Sketch 60 (88103) - https://sketch.com -->
    <title>create illustration@1x</title>
    <desc>Created with Sketch.</desc>
    <g id="team_meeting" stroke="none" stroke-width="1" fill="none" fill-rule="evenodd">
        <g id="Create-0365-team-1.0" transform="translate(-616.000000, -374.000000)">
            <g id="App" transform="translate(162.000000, 103.000000)">
                <g id="content" transform="translate(347.000000, 54.000000)">
                    <g id="create-illustration" transform="translate(107.000000, 205.000000)">
                        <rect id="bounds" opacity="0.501999628" x="0" y="0" width="281" height="137"></rect>
                        <g id="3-Create-a-Team-Illustration---DSK-(Cassandra)-0.1_Export-1" transform="translate(0.000000, 12.000000)">
                            <g id="girl_on_webex_board" transform="translate(96.000000, 13.000000)">
                                <rect id="Rectangle" fill-rule="nonzero" x="0.65" y="7.16" width="114.04" height="62.54"></rect>
                                <g id="Group" transform="translate(16.000000, 12.000000)">
                                    <path d="M26.72,57.7 L32,45 C33.43,41.17 36.86,39.79 39.56,39.14 L48,36.86 L61.14,36.05 L72.7,39.11 C75.4781582,39.7941033 77.524764,42.1531069 77.81,45 L79.08,57.73" id="Stroke-251" fill="#9B4AFF" fill-rule="nonzero" opacity="0.75"></path>
                                    <path d="M32.77,57.7 C34.2865761,55.7717401 34.7474053,53.2165733 34,50.88 L25.27,23.71 C25.1182399,23.2788247 24.7049698,22.9953695 24.2480723,23.0090764 C23.7911747,23.0227833 23.3956399,23.3305027 23.27,23.77 L22.46,27.67 C22.3289082,28.2719703 21.796079,28.7012528 21.18,28.7012528 C20.563921,28.7012528 20.0310918,28.2719703 19.9,27.67 L19.09,23.77 C18.9643601,23.3305027 18.5688253,23.0227833 18.1119277,23.0090764 C17.6550302,22.9953695 17.2417601,23.2788247 17.09,23.71 L10.2,45.17 L9.35,47.79 L9.35,44.67 C9.39016413,42.2248786 7.5856659,40.1404462 5.16,39.83 C3.84940547,39.6939855 2.54263731,40.1203755 1.56448155,41.0031945 C0.586325799,41.8860134 0.0286282997,43.1423672 0.0299974756,44.46 L0.0299974756,46.77 C0.0299974756,47.3222847 0.47771525,47.77 1.02999748,47.77 C1.58228475,47.77 2.02999748,47.3222847 2.02999748,46.77 L2.02999748,44.58 C1.99835801,43.2731071 2.89436606,42.1258818 4.17,41.84 C4.95608486,41.6851005 5.7703045,41.8886659 6.3910026,42.3952793 C7.0117007,42.9018927 7.37426718,43.6588194 7.38,44.46 L7.38,56.08 C7.37613732,56.6341584 7.4779548,57.1839727 7.68,57.7" id="Path" stroke="#005CA8" fill="#FFFFFF" fill-rule="nonzero" stroke-linejoin="round"></path>
                                    <path d="M21.11,37.3 C21.0529277,37.9284453 20.5260315,38.4096596 19.895,38.4096596 C19.2639685,38.4096596 18.7370723,37.9284453 18.68,37.3" id="Path" stroke="#005CA8" stroke-linecap="round"></path>
                                    <path d="M23.55,37.3 C23.55,37.9737873 23.0037873,38.5199999 22.33,38.5199999 C21.6562127,38.5199999 21.11,37.9737873 21.11,37.3" id="Path" stroke="#005CA8" stroke-linecap="round"></path>
                                    <path d="M21.53,37.24 L22.38,36.4 C22.5348461,36.2273388 22.5763162,35.9808976 22.4865073,35.7670669 C22.3966984,35.5532363 22.1916955,35.4103137 21.96,35.4 L20.26,35.4 C20.0283045,35.4103137 19.8233016,35.5532363 19.7334927,35.7670669 C19.6436838,35.9808976 19.6851539,36.2273388 19.84,36.4 L20.69,37.24 C20.7994708,37.3549443 20.9512674,37.42 21.11,37.42 C21.2687326,37.42 21.4205292,37.3549443 21.53,37.24 Z" id="Path" fill="#005CA8" fill-rule="nonzero"></path>
                                    <circle id="Oval" fill="#005CA8" fill-rule="nonzero" cx="18.5" cy="32.97" r="1"></circle>
                                    <circle id="Oval" fill="#005CA8" fill-rule="nonzero" cx="24.12" cy="32.97" r="1"></circle>
                                    <line x1="24.51" y1="57.4" x2="24.51" y2="53.34" id="Path" stroke="#005CA8" stroke-linecap="round"></line>
                                    <line x1="21.13" y1="49.39" x2="21.13" y2="57.65" id="Path" stroke="#005CA8" stroke-linecap="round"></line>
                                    <line x1="21.13" y1="57.65" x2="21.13" y2="49.36" id="Path" stroke="#005CA8"></line>
                                    <line x1="17.75" y1="53.31" x2="17.75" y2="57.4" id="Path" stroke="#005CA8" stroke-linecap="round"></line>
                                    <path d="M25.43,45 C25.43,46.5433874 24.6066128,47.9695362 23.2700001,48.74123 C21.9333874,49.5129237 20.2866126,49.5129237 18.9499999,48.74123 C17.6133872,47.9695362 16.79,46.5433874 16.79,45" id="Path" stroke="#005CA8" stroke-linecap="round"></path>
                                    <line x1="27.61" y1="35.51" x2="25.9" y2="35.96" id="Path" stroke="#005CA8" stroke-linecap="round"></line>
                                    <line x1="27.61" y1="37.88" x2="25.9" y2="37.42" id="Path" stroke="#005CA8" stroke-linecap="round"></line>
                                    <line x1="14.61" y1="35.51" x2="16.32" y2="35.96" id="Path" stroke="#005CA8" stroke-linecap="round"></line>
                                    <line x1="14.61" y1="37.88" x2="16.32" y2="37.42" id="Path" stroke="#005CA8" stroke-linecap="round"></line>
                                    <path d="M58.06,0.08 L58.06,0.08 C55.4837835,0.08 53.0993408,1.44132513 51.79,3.66 C51.4824119,3.61147932 51.1713855,3.58806874 50.86,3.59 L50.86,3.59 C45.77,3.59 43.27,7.71 43.27,12.8 L43.27,24 L43.27,24 C39.1935734,25.130066 36.6457666,29.1755814 37.3876929,33.340176 C38.1296192,37.5047707 41.9177617,40.421531 46.1336533,40.0743131 C50.349545,39.7270951 53.6094355,36.2298636 53.66,32 C53.75,37.72 63.66,36.54 63.66,36.54 C65.1743862,36.54 66.626747,35.9384124 67.6975797,34.8675797 C68.7684124,33.796747 69.37,32.3443862 69.37,30.83 L69.37,11.42 C69.37,5.16878798 64.3111901,0.0965375979 58.06,0.08 L58.06,0.08 Z" id="Path" fill="#005CA8" fill-rule="nonzero"></path>
                                    <path d="M56.23,32.2300055 L56.23,32.2300055 C51.1883077,32.2189829 47.105498,28.1317014 47.1,23.09 L47.1,14.09 C47.105498,9.04829865 51.1883077,4.96101712 56.23,4.95 L56.23,4.95 C61.275598,4.95551131 65.3644887,9.04440201 65.3700055,14.09 L65.3700055,23.09 C65.3726574,25.5148924 64.4105493,27.8412315 62.6958904,29.5558904 C60.9812315,31.2705493 58.6548924,32.2326574 56.23,32.2300055 L56.23,32.2300055 Z" id="Path" stroke="#045CA6" fill="#FFFFFF" fill-rule="nonzero" stroke-linecap="round" stroke-linejoin="round"></path>
                                    <path d="M52,20.43 L61.28,20.43 L61.28,36.66 C61.28,39.2226012 59.2026012,41.3 56.64,41.3 C54.0773988,41.3 52,39.2226012 52,36.66 L52,20.43 Z" id="Fill-75" stroke="#005CA8" fill="#FFFFFF" stroke-linecap="round" stroke-linejoin="round"></path>
                                    <path d="M56.23,32.2300055 L56.23,32.2300055 C51.1883077,32.2189829 47.105498,28.1317014 47.1,23.09 L47.1,14.09 C47.105498,9.04829865 51.1883077,4.96101712 56.23,4.95 L56.23,4.95 C61.275598,4.95551131 65.3644887,9.04440201 65.3700055,14.09 L65.3700055,23.09 C65.3726574,25.5148924 64.4105493,27.8412315 62.6958904,29.5558904 C60.9812315,31.2705493 58.6548924,32.2326574 56.23,32.2300055 L56.23,32.2300055 Z" id="Path" stroke="#005CA8" fill="#FFFFFF" fill-rule="nonzero" stroke-linecap="round" stroke-linejoin="round"></path>
                                    <path d="M65.49,20.87 C65.7049778,20.9941141 65.9433035,21.0724211 66.19,21.1 C66.8795226,21.1839574 67.5614585,20.8936814 67.9789291,20.338516 C68.3963996,19.7833506 68.4859811,19.0476388 68.2139291,18.408516 C67.941877,17.7693932 67.3495226,17.3239574 66.66,17.24 C66.255686,17.1959207 65.8475423,17.2761541 65.49,17.47 L65.49,20.87 Z" id="Path" stroke="#005CA8" fill="#FFFFFF" fill-rule="nonzero" stroke-linecap="round" stroke-linejoin="round"></path>
                                    <path d="M47,20.87 C46.7850222,20.9941141 46.5466965,21.0724211 46.3,21.1 C45.6104774,21.1839574 44.9285415,20.8936814 44.5110709,20.338516 C44.0936004,19.7833506 44.0040189,19.0476388 44.2760709,18.408516 C44.548123,17.7693932 45.1404774,17.3239574 45.83,17.24 C46.234314,17.1959207 46.6424577,17.2761541 47,17.47 L47,20.87 Z" id="Path" stroke="#005CA8" fill="#FFFFFF" fill-rule="nonzero" stroke-linecap="round" stroke-linejoin="round"></path>
                                    <polyline id="Path" stroke="#005CA8" fill="#FFFFFF" fill-rule="nonzero" stroke-linecap="round" stroke-linejoin="round" points="56.53 18.35 57.05 22.33 55.53 22.33"></polyline>
                                    <line x1="49.91" y1="12.26" x2="51.9" y2="11.91" id="Path" stroke="#005CA8" stroke-linecap="round" stroke-linejoin="round"></line>
                                    <line x1="60.62" y1="11.74" x2="62.5" y2="12.44" id="Path" stroke="#045CA6" stroke-linecap="round" stroke-linejoin="round"></line>
                                    <circle id="Oval" fill="#005CA8" fill-rule="nonzero" cx="61.56" cy="16.6" r="1"></circle>
                                    <circle id="Oval" fill="#005CA8" fill-rule="nonzero" cx="51.31" cy="16.6" r="1"></circle>
                                    <path d="M56.41,26.49 C55.8932394,27.5582509 54.6087032,28.0058245 53.54,27.49 C53.0172506,27.2524808 52.6145537,26.8112748 52.4256308,26.2690659 C52.2367078,25.7268571 52.2780371,25.1309382 52.54,24.62 L56.41,26.49 Z" id="Path" stroke="#005CA8" fill="#FFFFFF" fill-rule="nonzero" stroke-linecap="round" stroke-linejoin="round"></path>
                                    <path d="M51.84,4.76 C51.84,4.76 55,13.25 65.84,15.88 L64.56,3.35 L51.84,4.76 Z" id="Path" fill="#045CA6" fill-rule="nonzero"></path>
                                    <path d="M66.13,57.42 L61.57,48.58 L58,48.58 C55.4703244,48.5809224 53.3099846,46.7545686 52.89,44.26 L52.53,42.13 C52.3898306,41.2327038 52.648882,40.3189685 53.2391246,39.62875 C53.8293672,38.9385314 54.691822,38.5407986 55.6,38.54 L60.29,38.54 L60.29,32.54 C60.2873359,32.1510542 60.43998,31.7771233 60.7140724,31.5011536 C60.9881648,31.2251838 61.3610451,31.07 61.75,31.07 L61.75,31.07 C62.6794536,31.0754998 63.4300163,31.8305301 63.43,32.76 L63.73,38.65 L66.43,43.65 L75.61,57.43" id="Path" stroke="#005CA8" fill="#FFFFFF" fill-rule="nonzero"></path>
                                </g>
                                <g id="webex_board">
                                    <path d="M114.54,6.54 C113.775435,2.81864547 110.499084,0.148252166 106.7,0.149999143 L8.7,0.149999143 C4.66733288,0.148615783 1.26408318,3.14896186 0.76,7.14999914 L114.76,7.14999914 L114.54,6.54 Z" id="Path" fill="#16B1E0" fill-rule="nonzero" opacity="0.5"></path>
                                    <path d="M114.54,70.28 C113.775435,74.0013545 110.499084,76.6717478 106.7,76.67 L8.7,76.67 C4.66733288,76.6713842 1.26408318,73.6710381 0.76,69.67 L114.76,69.67 L114.54,70.28 Z" id="Path" fill="#16B1E0" fill-rule="nonzero" opacity="0.5"></path>
                                    <rect id="Rectangle" stroke="#16B1E0" stroke-linecap="round" stroke-linejoin="round" x="0.65" y="7.16" width="114.04" height="62.54" rx="1"></rect>
                                    <rect id="Rectangle" stroke="#16B1E0" stroke-linecap="round" stroke-linejoin="round" x="0.66" y="0.15" width="114.04" height="76.55" rx="8"></rect>
                                    <rect id="Rectangle" fill="#16B1E0" fill-rule="nonzero" x="54.56" y="1.79" width="6.24" height="3.83" rx="1.915"></rect>
                                </g>
                            </g>
                            <path d="M275.52,95.69 L266.57,69 C265.853674,67.1817442 264.039223,66.0396122 262.09,66.18 C262.000067,66.1750972 261.909933,66.1750972 261.82,66.18 L254.73,66.18 C254.73,66.28 254.73,66.39 254.73,66.49 C254.73,69.350835 252.410835,71.67 249.55,71.67 C248.261931,71.6970112 247.025374,71.1644529 246.16,70.21 C246.88,68.21 247.31,66.21 245.54,66.21 L244.87,66.21 C244.175436,66.2043337 243.483047,66.2883615 242.81,66.46 C240.2,66.95 237.39,68.21 236.39,70.79 L228,95.86 C227.464102,97.3730198 227.776098,99.0570061 228.818462,100.277618 C229.860826,101.498229 231.475199,102.070026 233.053462,101.777618 C234.631725,101.485209 235.934102,100.37302 236.47,98.86 L237.95,94.46 L236.17,113.14 L267.51,113.14 L262.81,99.89 L262.55,91.43 L263.17,87.05 L267.07,98.7 C267.898427,101.038926 270.466074,102.263427 272.805,101.435 C275.143926,100.606573 276.368427,98.0389259 275.54,95.7 L275.52,95.69 Z" id="Path" fill="#FFAC38" opacity="0.75"></path>
                            <rect id="Rectangle" x="227.73" y="66.31" width="17.87" height="35.52"></rect>
                            <rect id="Rectangle" fill="#FFFFFF" fill-rule="nonzero" x="242.31" y="57.4" width="6.51" height="5.09"></rect>
                            <path d="M245.29,50.84 L254.39,50.84 L254.39,67.07 C254.39,69.5828956 252.352896,71.62 249.84,71.62 C247.327104,71.62 245.29,69.5828956 245.29,67.07 L245.29,50.84 L245.29,50.84 Z" id="Fill-75-2" stroke="#005CA8" fill="#FFFFFF" stroke-linecap="round" stroke-linejoin="round"></path>
                            <path d="M254.63,56.82 C254.63,56.82 254.34,68.58 245.33,67.82 L245.33,62.15 L254.63,56.82 Z" id="Fill-77" fill="#005CA8"></path>
                            <path d="M246.39,36.7799761 C244.168406,36.7746899 242.035839,37.6528093 240.46212,39.2209016 C238.888401,40.7889938 238.002648,42.9184017 238,45.14 L238,56.25 C238.021854,58.808842 239.315111,61.1891849 241.45,62.6 C242.572816,64.2036347 244.407358,65.1586667 246.365,65.1586667 C248.322642,65.1586667 250.157184,64.2036347 251.28,62.6 C253.412427,61.1881287 254.702143,58.8074024 254.72,56.25 L254.72,45.1 C254.708986,40.5056581 250.984352,36.7854956 246.39,36.7799761 L246.39,36.7799761 Z" id="Path" stroke="#005CA8" fill="#FFFFFF" fill-rule="nonzero" stroke-linecap="round" stroke-linejoin="round"></path>
                            <path d="M257.09,57.44 C257.992515,57.6079738 258.91588,57.2798358 259.51,56.58 C260.084678,55.8785537 260.226864,54.9178345 259.88,54.08 C260.04,53.91 260.16,53.75 260.29,53.59 C260.373728,53.4306752 260.440752,53.2631168 260.49,53.09 C261.367736,52.9353156 262.10018,52.3319029 262.42,51.5 C262.69118,50.6692886 262.52167,49.757702 261.97,49.08 C262.060512,48.8957297 262.127696,48.7008938 262.17,48.5 C262.188409,48.3238129 262.188409,48.1461871 262.17,47.97 C262.900533,47.5251525 263.350279,46.7352617 263.360007,45.88 C263.362089,45.0215836 262.909273,44.2263013 262.17,43.79 C262.209941,43.5449502 262.209941,43.2950498 262.17,43.05 C262.140598,42.8540813 262.086849,42.6626002 262.01,42.48 C262.513469,41.8095022 262.652042,40.9331213 262.38,40.14 C262.093896,39.3391419 261.405339,38.7494931 260.57,38.59 C260.533012,38.3005599 260.437762,38.0216149 260.29,37.77 C260.172842,37.5759887 260.035404,37.3949729 259.88,37.23 C260.101654,36.4513178 259.934097,35.6135321 259.43,34.98 C258.909959,34.3531626 258.109482,34.0299656 257.3,34.12 C257.1582,33.8944578 256.990382,33.6863636 256.8,33.5 C256.606697,33.3419593 256.386518,33.2200139 256.15,33.14 C256.092051,32.3514443 255.665924,31.636291 255,31.21 C254.314985,30.8036901 253.474346,30.758856 252.75,31.09 C252.549285,30.9040195 252.310391,30.7640957 252.05,30.68 C251.78731,30.5805542 251.510574,30.523182 251.23,30.51 C250.890724,29.7987309 250.240528,29.2852235 249.47,29.12 C248.650813,28.9502301 247.803488,29.2326719 247.25,29.86 C246.936416,29.7165516 246.594798,29.6448118 246.25,29.65 C245.968936,29.6591864 245.691551,29.7166929 245.43,29.82 C244.842291,29.2574786 244.019934,29.0118879 243.22,29.16 C242.443258,29.3118605 241.787717,29.8295889 241.46,30.55 C241.233974,30.5533018 241.010395,30.59734 240.8,30.68 C240.522866,30.7918588 240.27117,30.9585221 240.06,31.17 C239.312191,30.8175581 238.437645,30.862599 237.73,31.29 C237.058327,31.6979505 236.617566,32.3979827 236.54,33.18 C236.380083,33.2563615 236.229155,33.3502721 236.09,33.46 C235.853946,33.6699753 235.657498,33.9206161 235.51,34.2 C234.683557,34.1010981 233.86288,34.4250832 233.326864,35.0618539 C232.790848,35.6986246 232.611587,36.5625358 232.85,37.36 C232.729071,37.4777794 232.630777,37.6167466 232.56,37.77 C232.411863,38.0358327 232.316769,38.3279077 232.28,38.63 C231.429727,38.7927303 230.735831,39.4061197 230.47,40.23 C230.193694,41.0063878 230.333251,41.8701321 230.84,42.52 C230.794716,42.6246351 230.767659,42.7362438 230.76,42.85 C230.72,43.1486667 230.72,43.4513333 230.76,43.75 C229.995957,44.1863068 229.525982,45.0001654 229.529974,45.88 C229.527002,46.7414831 229.969522,47.5433126 230.7,48 C230.680375,48.1225527 230.680375,48.2474473 230.7,48.37 C230.749752,48.6577264 230.847801,48.9349681 230.99,49.19 C230.3899,49.8509188 230.196784,50.7859315 230.48594,51.6305156 C230.775096,52.4750998 231.50075,53.0955582 232.38,53.25 C232.38,53.37 232.5,53.53 232.54,53.66 C232.676242,53.8982286 232.860055,54.105869 233.08,54.27 C232.708688,55.1146469 232.84557,56.0964972 233.433742,56.8073805 C234.021913,57.5182638 234.960764,57.83658 235.86,57.63 L235.86,57.71 C235.86,58.5273814 236.522619,59.1901828 237.34,59.1901828 C237.741029,59.1964303 238.126074,59.0329677 238.4,58.74 C238.4,58.74 238.4,58.74 238.49,58.74 L238.49,58.66 C238.28,58.21 238.16,58.12 238.16,57.8 C238.16,57.26 238.16,56.98 238.16,56.49 L238.16,46.85 C238.36,46.85 238.52,46.85 238.73,46.85 C244.02,46.85 248.73,46.44 251.73,42.58 C252.272831,43.8372781 253.390746,44.7539684 254.73,45.04 C254.812905,45.4853076 254.856407,45.9370549 254.86,46.39 L254.81,56.39 C254.378336,56.6439719 254.115222,57.1091882 254.12,57.61 C254.094672,57.9809047 254.229352,58.3449063 254.49,58.61 C254.49,58.61 254.49,58.69 254.49,58.69 C254.49,58.69 254.49,58.69 254.57,58.69 C254.985981,59.1172065 255.617703,59.2530579 256.172529,59.0346226 C256.727354,58.8161873 257.096909,58.2861326 257.11,57.69 L257.09,57.44 Z" id="Path" fill="#06599B" fill-rule="nonzero"></path>
                            <path d="M254.75,51.17 L254.75,48.83 C256.064438,48.83 257.13,49.8955623 257.13,51.21 C257.13,52.5244377 256.064438,53.59 254.75,53.59 L254.75,51.17 Z" id="Path" stroke="#005CA8" fill="#FFFFFF" fill-rule="nonzero" stroke-linecap="round" stroke-linejoin="round"></path>
                            <path d="M253.85,37.56 C253.779351,39.1882574 253.14276,40.7408313 252.05,41.95" id="Path" stroke="#FFFFFF" stroke-width="0.5" stroke-linecap="round" stroke-linejoin="round"></path>
                            <line x1="254.75" y1="42.73" x2="254.75" y2="44.49" id="Path" stroke="#06599B" fill="#FFFFFF" fill-rule="nonzero" stroke-linecap="round" stroke-linejoin="round"></line>
                            <path d="M245.16,59 C245.656611,58.6080499 246.329794,58.5242923 246.90731,58.7825994 C247.484826,59.0409064 247.871131,59.5985443 247.91,60.23 C247.610215,61.5037635 246.473566,62.4039543 245.165,62.4039543 C243.856434,62.4039543 242.719785,61.5037635 242.42,60.23 C242.48635,59.6156088 242.873588,59.0825049 243.437353,58.8294279 C244.001118,58.576351 244.656814,58.6412764 245.16,59" id="Path" stroke="#005CA8" fill="#FFFFFF" fill-rule="nonzero" stroke-linecap="round" stroke-linejoin="round"></path>
                            <path d="M245.16,60.51 C244.16,59.51 242.75,60.51 241.89,59.51" id="Path" stroke="#005CA8" fill="#FFFFFF" fill-rule="nonzero" stroke-linecap="round" stroke-linejoin="round"></path>
                            <path d="M248.48,59.49 C247.79,60.49 245.94,59.49 245.21,60.49" id="Path" stroke="#005CA8" fill="#FFFFFF" fill-rule="nonzero" stroke-linecap="round" stroke-linejoin="round"></path>
                            <line x1="243.77" y1="56.7" x2="246.52" y2="56.7" id="Path" stroke="#005CA8" fill="#FFFFFF" fill-rule="nonzero" stroke-linecap="round" stroke-linejoin="round"></line>
                            <circle id="Oval" fill="#005CA8" fill-rule="nonzero" cx="240.82" cy="52.07" r="1"></circle>
                            <circle id="Oval" fill="#005CA8" fill-rule="nonzero" cx="248.73" cy="52.07" r="1"></circle>
                            <path d="M247.38,50.76 C247.880674,50.2462452 248.567631,49.9564954 249.285,49.9564954 C250.002369,49.9564954 250.689326,50.2462452 251.19,50.76" id="Path" stroke="#005CA8" fill="#FFFFFF" fill-rule="nonzero" stroke-linecap="round" stroke-linejoin="round"></path>
                            <path d="M239.34,50.76 C239.842403,50.2456651 240.531008,49.9556902 241.25,49.9556902 C241.968992,49.9556902 242.657597,50.2456651 243.16,50.76" id="Path" stroke="#005CA8" fill="#FFFFFF" fill-rule="nonzero"></path>
                            <path d="M239.34,50.76 C239.842403,50.2456651 240.531008,49.9556902 241.25,49.9556902 C241.968992,49.9556902 242.657597,50.2456651 243.16,50.76" id="Path" stroke="#005CA8" fill="#FFFFFF" fill-rule="nonzero" stroke-linecap="round" stroke-linejoin="round"></path>
                            <circle id="Oval" stroke="#005CA8" stroke-linecap="round" stroke-linejoin="round" cx="241.39" cy="51.74" r="3.85"></circle>
                            <circle id="Oval" stroke="#005CA8" stroke-linecap="round" stroke-linejoin="round" cx="249.1" cy="51.74" r="3.85"></circle>
                            <path d="M238.12,49.69 C237.248024,50.9175797 237.248024,52.5624203 238.12,53.79" id="Path" stroke="#FFFFFF" stroke-width="0.5" stroke-linecap="round" stroke-linejoin="round"></path>
                            <path d="M196,63.43 L206.61,65.6 L205.83,64.87 C205.528409,64.6122605 205.392403,64.209919 205.475757,63.8220544 C205.559112,63.4341898 205.848406,63.1232476 206.229258,63.0121691 C206.610111,62.9010906 207.021204,63.0077592 207.3,63.29 L210.69,66.43 L211.43,66.59 C212.85404,66.5074405 214.214288,67.1894695 215,68.38 L235.51,94.32 C237.34,96.15 236.37,99.69 234.51,100.91 C233.406344,101.726406 232.003951,102.026567 230.662814,101.733433 C229.321677,101.440299 228.172399,100.582415 227.51,99.38 L209.82,71.78 L209.46,71.24 L205.75,70.49 C204.016066,70.1229712 202.362797,69.445402 200.87,68.49 L195.37,65 C195.060201,64.7589992 194.94746,64.3419671 195.093631,63.9776992 C195.239802,63.6134313 195.609542,63.3900057 196,63.43 L196,63.43 Z" id="hand_right_" stroke="#005CA8" fill="#FFFFFF" fill-rule="nonzero" stroke-linecap="round" stroke-linejoin="round"></path>
                            <path d="M254.39,65.18 L254.39,67.07 C254.39,69.5828956 252.352896,71.62 249.84,71.62 C247.327104,71.62 245.29,69.5828956 245.29,67.07 L245.29,65.07" id="Fill-75-3" stroke="#005CA8" stroke-linecap="round" stroke-linejoin="round"></path>
                            <rect id="Rectangle" x="257.8" y="66.14" width="17.98" height="35.66"></rect>
                            <path d="M232.61,81.12 L231.51,81.12 L231.51,80 C231.518427,79.808335 231.446676,79.6218144 231.31197,79.4852105 C231.177263,79.3486066 230.991764,79.2742539 230.8,79.28 L222.42,79.28 C222.227317,79.2773236 222.041603,79.3519973 221.904406,79.4873147 C221.76721,79.6226321 221.689931,79.8072988 221.689931,80 L221.689931,88 C221.684679,88.7735093 221.987545,89.5173082 222.531689,90.0670822 C223.075834,90.6168561 223.816477,90.9273601 224.59,90.9300064 L228.59,90.9300064 C230.059773,90.9330453 231.304367,89.8466984 231.5,88.39 L232.61,88.39 C233.292083,88.4091976 233.952374,88.1487598 234.437694,87.6691042 C234.923015,87.1894486 235.191188,86.5322614 235.18,85.85 L235.18,83.68 C235.190995,82.9959907 234.92343,82.3369044 234.438758,81.8541182 C233.954086,81.371332 233.293961,81.1063383 232.61,81.12 L232.61,81.12 Z M233.68,85.87 C233.68,86.160827 233.563802,86.439599 233.357219,86.6443036 C233.150636,86.8490081 232.870815,86.9626681 232.58,86.96 L231.49,86.96 L231.49,82.59 L232.59,82.59 C233.191342,82.6008132 233.674679,83.0885846 233.68,83.69 L233.68,85.87 Z" id="Shape" fill="#005BA8" fill-rule="nonzero"></path>
                            <path d="M226.12,78.35 C226.12,77.17 225.23,77.16 225.23,75.98 C225.23,74.8 226.13,74.8 226.14,73.62" id="Path" stroke="#005BA8" stroke-width="0.15"></path>
                            <path d="M226.12,78.35 C226.12,77.17 225.23,77.16 225.23,75.98 C225.23,74.8 226.13,74.8 226.14,73.62" id="Path" stroke="#005BA8" stroke-linecap="round" stroke-linejoin="round"></path>
                            <path d="M227,76.24 C227,75.06 227.9,75.06 227.91,73.88 C227.92,72.7 227.02,72.69 227.02,71.51" id="Path" stroke="#005BA8" stroke-linecap="round" stroke-linejoin="round"></path>
                            <path d="M243,91.42 C241.333826,93.0656072 238.920401,93.7050721 236.657987,93.1003904 C234.395572,92.4957086 232.622996,90.7374401 232,88.48 L230.27,90.56 C229.971683,90.9172656 229.505428,91.0882426 229.046869,91.0085255 C228.588309,90.9288084 228.207111,90.6105082 228.046869,90.1735255 C227.886626,89.7365427 227.971683,89.2472656 228.27,88.89 L232.81,83.44 L234.18,81.64 L234.6,81.13 L241.49,83.42 L241.49,83.42 L271.89,93.65 C273.710685,94.1981606 275.089298,95.6929569 275.488675,97.5519546 C275.888051,99.4109523 275.245013,101.340069 273.810113,102.587641 C272.375213,103.835213 270.375444,104.203883 268.59,103.55 L243,91.42 Z" id="Path" stroke="#005CA8" fill="#FFFFFF" fill-rule="nonzero" stroke-linecap="round" stroke-linejoin="round"></path>
                            <path d="M26.38,84.8 L20.11,67.36 C20.0290385,66.9905446 19.7968051,66.6719958 19.4698293,66.4818936 C19.1428535,66.2917913 18.7511261,66.2475723 18.39,66.36 C17.7112003,66.592674 17.3182181,67.3009057 17.48,68 L18.12,71.19 L18.12,71.19 L10.7,66.26 C10.2981904,65.9750901 9.77309998,65.9316375 9.32992278,66.1466225 C8.88674559,66.3616075 8.59583529,66.8009016 8.57087339,67.2928381 C8.54591149,67.7847745 8.79086065,68.2512592 9.21,68.51 L14,71.62 L14,71.62 L7.76,67.48 C7.1752288,67.0789804 6.3823426,67.1824003 5.92,67.72 C5.6683064,68.0150999 5.55682352,68.4047796 5.61435851,68.7883462 C5.67189349,69.1719128 5.89280151,69.511734 6.22,69.72 L12.51,73.9 L12.51,73.9 L7.7,70.71 C7.2909309,70.4438371 6.77093924,70.4161282 6.33590086,70.637311 C5.90086249,70.8584938 5.61687008,71.2949654 5.59090083,71.7823111 C5.56493159,72.2696567 5.80093086,72.7338372 6.21,73 L11,76.14 L11,76.14 L8.46,74.46 C8.06245398,74.1133904 7.49945834,74.0300392 7.01853641,74.2465921 C6.53761449,74.4631449 6.22684575,74.9399408 6.22286094,75.4673544 C6.21887613,75.9947681 6.52240507,76.4762052 7,76.7 L12.17,80.13 L17,83 L17.55,85.25" id="Path" stroke="#005CA8" fill="#FFFFFF" fill-rule="nonzero" stroke-linecap="round" stroke-linejoin="round"></path>
                            <g id="Group" opacity="0.5" transform="translate(15.000000, 65.000000)" fill="#16B1E0" fill-rule="nonzero">
                                <path d="M81.65,48.08 L77.34,10 C77.0575345,7.23925007 75.0459072,4.96611121 72.34,4.35 L71.88,4.22 L71.88,4.12 L59.27,0.76 L59,48.07 L81.65,48.07 L81.65,48.08 Z" id="Path"></path>
                                <path d="M33.85,4.17 C32.1681297,4.55324393 30.7075705,5.58930567 29.79,7.05 L16.66,27.52 L13.66,20.01 C13.5783417,19.8183213 13.388301,19.6955867 13.18,19.7 L0.91,20.37 C0.754247007,20.3823873 0.613238897,20.4668713 0.528847546,20.5983648 C0.444456196,20.7298583 0.426384949,20.8932421 0.48,21.04 L9.59,44.61 C10.2514869,45.7952455 11.2648543,46.7457142 12.49,47.33 L12.86,47.49 L12.92,47.49 C15.8121132,48.6766287 19.1391138,47.6293175 20.83,45 L33.93,24.59 L34,48.07 L46.66,48.07 L46.41,0.76 L33.85,4.17 Z" id="Path"></path>
                            </g>
                            <rect id="Rectangle" fill="#FFFFFF" fill-rule="nonzero" x="61.56" y="66.77" width="12.41" height="46.32"></rect>
                            <polygon id="Path" fill="#16B1E0" fill-rule="nonzero" points="66.19 74.84 69.46 74.84 70.29 68.67 65.35 68.67"></polygon>
                            <path d="M62.8,113.07 L64.5,77.46 C64.5,75.8031458 65.8431458,74.46 67.5,74.46 L68.07,74.46 C69.7268542,74.46 71.07,75.8031458 71.07,77.46 L72.77,113.07 L62.8,113.07 Z" id="Path" fill="#16B1E0" fill-rule="nonzero"></path>
                            <rect id="Rectangle" stroke="#005CA8" fill="#FFFFFF" fill-rule="nonzero" stroke-linecap="round" stroke-linejoin="round" x="63.11" y="48.93" width="9.26" height="20" rx="4.63"></rect>
                            <rect id="Rectangle" stroke="#005CA8" fill="#005CA8" fill-rule="nonzero" stroke-linecap="round" stroke-linejoin="round" x="63.11" y="45.41" width="9.26" height="20" rx="4.63"></rect>
                            <rect id="Rectangle" stroke="#005CA8" fill="#FFFFFF" fill-rule="nonzero" stroke-linecap="round" stroke-linejoin="round" x="58.43" y="34.19" width="19.14" height="28.52" rx="9.57"></rect>
                            <rect id="Rectangle" stroke="#005CA8" fill="#FFFFFF" fill-rule="nonzero" stroke-linecap="round" stroke-linejoin="round" x="58.43" y="34.19" width="19.14" height="28.52" rx="9.57"></rect>
                            <path d="M77.57,46.64 L77.57,50.12 C77.8039095,50.2536706 78.0624143,50.338705 78.33,50.37 C79.0445312,50.4557438 79.750529,50.1537764 80.1820509,49.5778461 C80.6135727,49.0019158 80.7050602,48.2395201 80.4220509,47.5778461 C80.1390415,46.9161721 79.5245312,46.4557437 78.81,46.37 C78.380505,46.3169847 77.9454007,46.4047074 77.57,46.62" id="Path" stroke="#005CA8" fill="#FFFFFF" fill-rule="nonzero" stroke-linecap="round" stroke-linejoin="round"></path>
                            <path d="M58.42,50.12 C58.1860905,50.2536706 57.9275857,50.338705 57.66,50.37 C56.5554305,50.5025483 55.5525483,49.7145695 55.42,48.61 C55.2874517,47.5054305 56.0754305,46.5025483 57.18,46.37 C57.6096559,46.312454 58.0462066,46.4004683 58.42,46.62 L58.42,50.12 Z" id="Path" stroke="#005CA8" fill="#FFFFFF" fill-rule="nonzero" stroke-linecap="round" stroke-linejoin="round"></path>
                            <circle id="Oval" fill="#005CA8" fill-rule="nonzero" cx="64.78" cy="54.95" r="1"></circle>
                            <circle id="Oval" fill="#005CA8" fill-rule="nonzero" cx="64.78" cy="53.88" r="1"></circle>
                            <circle id="Oval" fill="#005CA8" fill-rule="nonzero" cx="65.84" cy="53.88" r="1"></circle>
                            <circle id="Oval" fill="#005CA8" fill-rule="nonzero" cx="66.91" cy="53.88" r="1"></circle>
                            <circle id="Oval" fill="#005CA8" fill-rule="nonzero" cx="67.98" cy="53.88" r="1"></circle>
                            <circle id="Oval" fill="#005CA8" fill-rule="nonzero" cx="69.05" cy="53.88" r="1"></circle>
                            <circle id="Oval" fill="#005CA8" fill-rule="nonzero" cx="70.12" cy="53.88" r="1"></circle>
                            <circle id="Oval" fill="#005CA8" fill-rule="nonzero" cx="71.19" cy="53.88" r="1"></circle>
                            <circle id="Oval" fill="#005CA8" fill-rule="nonzero" cx="71.19" cy="54.95" r="1"></circle>
                            <circle id="Oval" fill="#005CA8" fill-rule="nonzero" cx="64.78" cy="56.02" r="1"></circle>
                            <circle id="Oval" fill="#005CA8" fill-rule="nonzero" cx="71.19" cy="56.02" r="1"></circle>
                            <circle id="Oval" fill="#005CA8" fill-rule="nonzero" cx="64.78" cy="57.09" r="1"></circle>
                            <circle id="Oval" fill="#005CA8" fill-rule="nonzero" cx="71.19" cy="57.09" r="1"></circle>
                            <circle id="Oval" fill="#005CA8" fill-rule="nonzero" cx="64.78" cy="58.16" r="1"></circle>
                            <circle id="Oval" fill="#005CA8" fill-rule="nonzero" cx="66.91" cy="58.16" r="1"></circle>
                            <circle id="Oval" fill="#005CA8" fill-rule="nonzero" cx="67.98" cy="58.16" r="1"></circle>
                            <circle id="Oval" fill="#005CA8" fill-rule="nonzero" cx="69.05" cy="58.16" r="1"></circle>
                            <circle id="Oval" fill="#005CA8" fill-rule="nonzero" cx="71.19" cy="58.16" r="1"></circle>
                            <circle id="Oval" fill="#005CA8" fill-rule="nonzero" cx="64.78" cy="59.23" r="1"></circle>
                            <circle id="Oval" fill="#005CA8" fill-rule="nonzero" cx="65.84" cy="59.23" r="1"></circle>
                            <circle id="Oval" fill="#005CA8" fill-rule="nonzero" cx="70.12" cy="59.23" r="1"></circle>
                            <circle id="Oval" fill="#005CA8" fill-rule="nonzero" cx="71.19" cy="59.23" r="1"></circle>
                            <circle id="Oval" fill="#005CA8" fill-rule="nonzero" cx="64.78" cy="60.3" r="1"></circle>
                            <circle id="Oval" fill="#005CA8" fill-rule="nonzero" cx="65.84" cy="60.3" r="1"></circle>
                            <circle id="Oval" fill="#005CA8" fill-rule="nonzero" cx="66.91" cy="60.3" r="1"></circle>
                            <circle id="Oval" fill="#005CA8" fill-rule="nonzero" cx="67.98" cy="60.3" r="1"></circle>
                            <circle id="Oval" fill="#005CA8" fill-rule="nonzero" cx="69.05" cy="60.3" r="1"></circle>
                            <circle id="Oval" fill="#005CA8" fill-rule="nonzero" cx="70.12" cy="60.3" r="1"></circle>
                            <circle id="Oval" fill="#005CA8" fill-rule="nonzero" cx="71.19" cy="60.3" r="1"></circle>
                            <circle id="Oval" fill="#005CA8" fill-rule="nonzero" cx="65.84" cy="61.36" r="1"></circle>
                            <circle id="Oval" fill="#005CA8" fill-rule="nonzero" cx="66.91" cy="61.36" r="1"></circle>
                            <circle id="Oval" fill="#005CA8" fill-rule="nonzero" cx="67.98" cy="61.36" r="1"></circle>
                            <circle id="Oval" fill="#005CA8" fill-rule="nonzero" cx="69.05" cy="61.36" r="1"></circle>
                            <circle id="Oval" fill="#005CA8" fill-rule="nonzero" cx="70.12" cy="61.36" r="1"></circle>
                            <path d="M73.46,43.14 C72.7925857,42.8718916 72.0474143,42.8718916 71.38,43.14" id="Path" stroke="#005CA8" stroke-linecap="round" stroke-linejoin="round"></path>
                            <path d="M64.8,43.14 C64.1361299,42.8714513 63.3938701,42.8714513 62.73,43.14" id="Path" stroke="#005CA8" stroke-linecap="round" stroke-linejoin="round"></path>
                            <circle id="Oval" fill="#095DA8" fill-rule="nonzero" cx="72.57" cy="46.66" r="1"></circle>
                            <circle id="Oval" fill="#095DA8" fill-rule="nonzero" cx="63.5" cy="46.66" r="1"></circle>
                            <path d="M70.21,54.8 C70.21,56.0371178 69.2071178,57.04 67.97,57.04 C66.7328822,57.04 65.73,56.0371178 65.73,54.8 L70.21,54.8 Z" id="Path" stroke="#005CA8" stroke-linecap="round" stroke-linejoin="round"></path>
                            <line x1="66.67" y1="51.69" x2="69.44" y2="51.69" id="Path" stroke="#005CA8" stroke-linecap="round" stroke-linejoin="round"></line>
                            <path d="M68,34 L68,34 C62.7191987,34.0110017 58.4410017,38.2891987 58.43,43.57 L58.43,47.62 C59.9300955,47.2797358 60.9961558,45.9481975 61,44.41 L61,41.26 C60.9973293,40.5696218 61.2703993,39.9067488 61.7585741,39.4185741 C62.2467488,38.9303993 62.9096218,38.6573293 63.6,38.66 L72.34,38.66 C73.0303782,38.6573293 73.6932512,38.9303993 74.1814259,39.4185741 C74.6696007,39.9067488 74.9426707,40.5696218 74.94,41.26 L74.94,44.41 C75.0106701,45.9361554 76.076677,47.2340799 77.5600054,47.6 L77.5600054,43.6 C77.5655406,38.3113806 73.2885964,34.0165413 68,34 Z" id="Path" fill="#005CA8" fill-rule="nonzero"></path>
                            <polygon id="Path" stroke="#16B1E0" points="77.87 95.16 74.06 109.12 73.81 65.17 81.59 77.44 76.62 80.82 80.28 86.36"></polygon>
                            <polygon id="Path" stroke="#16B1E0" points="54.01 77.44 58.97 80.82 55.31 86.36 61.53 109.12 61.78 65.17"></polygon>
                            <path d="M74.18,65.74 L74.18,65.74 L72.99,73.74 C72.9773438,73.7610612 72.9545714,73.7739445 72.93,73.7739445 C72.9054286,73.7739445 72.8826562,73.7610612 72.87,73.74 L68,68.67 L72.79,63.42 C72.79,63.42 74.18,65.74 74.18,65.74 Z" id="Path" stroke="#005CA8" fill="#FFFFFF" fill-rule="nonzero" stroke-linecap="round" stroke-linejoin="round"></path>
                            <path d="M61.46,65.74 C61.46,65.74 61.46,65.74 61.46,65.74 L62.65,73.74 C62.6626562,73.7610612 62.6854286,73.7739445 62.71,73.7739445 C62.7345714,73.7739445 62.7573438,73.7610612 62.77,73.74 L67.66,68.62 L62.87,63.37 C62.87,63.37 61.46,65.74 61.46,65.74 Z" id="Path" stroke="#005CA8" fill="#FFFFFF" fill-rule="nonzero" stroke-linecap="round" stroke-linejoin="round"></path>
                            <polyline id="Path" fill="#16B1E0" fill-rule="nonzero" points="198.44 1.79 197 2 198 2.88"></polyline>
                            <path d="M201.57,0.16 C202.473701,0.162835114 203.33977,0.522199808 203.98,1.16 L208.27,5.16 L212.2,8.85 L212.2,8.85 C212.62674,9.23669608 212.770836,9.8464911 212.562324,10.3832994 C212.353812,10.9201076 211.835876,11.2727495 211.26,11.270016 C210.74,11.270016 210.03,10.56 210.03,10.56 L207.39,7.66 C206.724457,9.38240772 205.05631,10.5078083 203.21,10.48 C201.730858,10.483864 200.31048,9.9013291 199.26,8.86 C197.910695,7.40417826 197.401196,5.35863473 197.91,3.44 C198.135454,1.58385995 199.700341,0.181447627 201.57,0.16 Z" id="Path" fill="#16B1E0" fill-rule="nonzero"></path>
                            <circle id="Oval" fill="#FFFFFF" fill-rule="nonzero" cx="200.51" cy="2.61" r="1"></circle>
                            <circle id="Oval" fill="#005BA8" fill-rule="nonzero" cx="199.89" cy="2.73" r="1"></circle>
                            <polyline id="Path" stroke="#005CA8" stroke-linecap="round" stroke-linejoin="round" points="204 10.31 203.98 12.42 202.9 13.04"></polyline>
                            <line x1="202.84" y1="12.42" x2="203.88" y2="12.43" id="Path" stroke="#005CA8" stroke-linecap="round" stroke-linejoin="round"></line>
                            <line x1="204.38" y1="12.83" x2="203.98" y2="12.42" id="Path" stroke="#005CA8" stroke-linecap="round" stroke-linejoin="round"></line>
                            <polyline id="Path" stroke="#005CA8" stroke-linecap="round" stroke-linejoin="round" points="201.77 10.32 201.75 12.4 200.67 13.03"></polyline>
                            <line x1="200.61" y1="12.41" x2="201.65" y2="12.42" id="Path" stroke="#005CA8" stroke-linecap="round" stroke-linejoin="round"></line>
                            <line x1="202.15" y1="12.82" x2="201.75" y2="12.41" id="Path" stroke="#005CA8" stroke-linecap="round" stroke-linejoin="round"></line>
                            <path d="M201.77,5 C201.68332,6.33917409 202.641599,7.51959946 203.97,7.71 C205.212073,7.95813609 206.479034,7.41798995 207.16,6.35 L205.96,5.35" id="Path" stroke="#005CA8" stroke-linecap="round" stroke-linejoin="round"></path>
                            <line x1="0.83" y1="113.17" x2="280.55" y2="113.17" id="Path" stroke="#16B1E0" stroke-linecap="round" stroke-linejoin="round"></line>
                        </g>
                    </g>
                </g>
            </g>
        </g>
    </g>
</svg>