<?xml version="1.0" standalone="no"?>
<!DOCTYPE svg PUBLIC "-//W3C//DTD SVG 1.1//EN" "http://www.w3.org/Graphics/SVG/1.1/DTD/svg11.dtd" >
<svg xmlns="http://www.w3.org/2000/svg" id="text_10">
<path unicode="&#xec03;" id="text_10" data-tags="text_10" d="M1.4999 3c-.276 0-.5-.224-.5-.5 0-.276.224-.5.5-.5l7 0c.276 0 .5.224.5.5 0 .276-.224.5-.5.5l-7 0zm0 2.5c-.276 0-.5-.224-.5-.5 0-.276.224-.5.5-.5l7 0c.276 0 .5.224.5.5 0 .276-.224.5-.5.5l-7 0zm0 2.5c-.276 0-.5-.224-.5-.5 0-.276.224-.5.5-.5l3 0c.276 0 .5.224.5.5 0 .276-.224.5-.5.5l-3 0z" />
</svg>
