<?xml version="1.0" standalone="no"?>
<!DOCTYPE svg PUBLIC "-//W3C//DTD SVG 1.1//EN" "http://www.w3.org/Graphics/SVG/1.1/DTD/svg11.dtd" >
<svg xmlns="http://www.w3.org/2000/svg" id="text-subscript_12">
<path unicode="&#xec36;" id="text-subscript_12" data-tags="text-subscript_12" d="M5.48899618,0.000148119712 L5.55454989,0.00284945305 C5.61998989,0.00984945305 5.68341989,0.029679453 5.74119989,0.061199453 C5.85788989,0.124849453 5.94451989,0.232249453 5.98202989,0.359779453 C6.01953989,0.487299453 6.00484989,0.624499453 5.94119989,0.741199453 L5.94119989,0.741199453 L3.57119989,5.00119945 L5.94119989,9.26119945 C6.00252989,9.37839945 6.01594989,9.51479945 5.97863989,9.64159945 C5.94131989,9.76849945 5.85618989,9.87589945 5.74119989,9.94119945 C5.66748989,9.98099945 5.58495989,10.0015995 5.50119989,10.0012506 C5.40784989,9.99979945 5.31684989,9.97179945 5.23889989,9.92039945 C5.16093989,9.86899945 5.09928989,9.79639945 5.06119989,9.71119945 L5.06119989,9.71119945 L3.00119989,6.00119945 L0.941199885,9.74119945 C0.898879885,9.82079945 0.835409885,9.88719945 0.757779885,9.93309945 C0.680149885,9.97899945 0.591359885,10.0024995 0.501199885,10.0012506 C0.417439885,10.0015995 0.334909885,9.98099945 0.261199885,9.94119945 C0.146209885,9.87589945 0.0610798853,9.76849945 0.0237598853,9.64159945 C-0.0135511147,9.51479945 -0.00012911474,9.37839945 0.0611998853,9.26119945 L0.0611998853,9.26119945 L2.43119989,5.00119945 L0.0611998853,0.741199453 C0.0296798853,0.683419453 0.00984988526,0.619989453 0.00284988526,0.554549453 C-0.00415911474,0.489099453 0.00178988526,0.422919453 0.0203698853,0.359779453 C0.0389398853,0.296629453 0.0697598853,0.237769453 0.111089885,0.186539453 C0.152409885,0.135309453 0.203419885,0.092719453 0.261199885,0.061199453 C0.318979885,0.029679453 0.382399885,0.00984945305 0.447849885,0.00284945305 C0.513289885,-0.00415854695 0.579479885,0.00178945305 0.642619885,0.020369453 C0.705759885,0.038939453 0.764629885,0.069759453 0.815859885,0.111089453 C0.867089885,0.152409453 0.909679885,0.203419453 0.941199885,0.261199453 L0.941199885,0.261199453 L3.00119989,4.00119945 L5.06119989,0.261199453 C5.12484989,0.144499453 5.23224989,0.057869453 5.35977989,0.020369453 C5.42291989,0.00178945305 5.48909989,-0.00415854695 5.55454989,0.00284945305 Z M8.76767989,6.08999945 C9.49218989,6.08999945 9.99838989,6.54149945 9.99838989,7.18874945 C9.99838989,7.72424945 9.73668989,8.06924945 9.15088989,8.63924945 L8.28992989,9.48299945 L9.98788989,9.48299945 L9.98788989,9.99519945 L7.50617989,9.99519945 L7.50617989,9.52649945 L7.52792989,9.50399945 L8.81492989,8.23349945 C9.25368989,7.80449945 9.44938989,7.55249945 9.44938989,7.19399945 C9.44938989,6.80999945 9.18468989,6.56999945 8.75792989,6.56999945 C8.34242989,6.56999945 8.05442989,6.80324945 8.00792989,7.17749945 L7.99892989,7.24274945 L7.43117989,7.24274945 L7.44392989,7.15724945 C7.53392989,6.51899945 8.06642989,6.08999945 8.76767989,6.08999945 Z" />
</svg>
