<?xml version="1.0" standalone="no"?>
<!DOCTYPE svg PUBLIC "-//W3C//DTD SVG 1.1//EN" "http://www.w3.org/Graphics/SVG/1.1/DTD/svg11.dtd" >
<svg xmlns="http://www.w3.org/2000/svg" id="text-format_16">
<path unicode="&#xeb45;" transform="scale(1,-1)" id="text-format_16" data-tags="text-format_16" d="M992 448h-160v-352c0-17.664-14.336-32-32-32s-32 14.336-32 32v352h-160c-17.664 0-32 14.336-32 32s14.336 32 32 32h384c17.664 0 32-14.336 32-32s-14.336-32-32-32v0zM384 96c0-17.664-14.336-32-32-32s-32 14.336-32 32v672h-288c-17.664 0-32 14.336-32 32s14.336 32 32 32h682.688c17.664 0 32-14.336 32-32s-14.336-32-32-32h-330.688v-672z" />
</svg>
