<?xml version="1.0" standalone="no"?>
<!DOCTYPE svg PUBLIC "-//W3C//DTD SVG 1.1//EN" "http://www.w3.org/Graphics/SVG/1.1/DTD/svg11.dtd" >
<svg xmlns="http://www.w3.org/2000/svg" id="text-indent-decrease_12">
<path unicode="&#xec33;" id="text-indent-decrease_12" data-tags="text-indent-decrease_12" d="M9.50102637,7.00102637 C9.77716875,7.00102637 10.0010264,7.224884 10.0010264,7.50102637 C10.0010264,7.77716875 9.77716875,8.00102637 9.50102637,8.00102637 L0.501026373,8.00102637 C0.224883999,8.00102637 0.00102637348,7.77716875 0.00102637348,7.50102637 C0.00102637348,7.224884 0.224883999,7.00102637 0.501026373,7.00102637 L9.50102637,7.00102637 Z M2.86102637,2.15102637 C2.9556827,2.24490967 3.00892554,2.37270761 3.00892554,2.50602637 C3.00892554,2.63934514 2.9556827,2.76714307 2.86102637,2.86102637 L1.70102637,4.00102637 L2.85102637,5.14102637 C2.9456827,5.23490967 2.99892554,5.36270761 2.99892554,5.49602637 C2.99892554,5.62934514 2.9456827,5.75714307 2.85102637,5.85102637 C2.76074604,5.94816472 2.63363023,6.00264292 2.50102637,6.00106135 C2.37095579,5.99977803 2.24607634,5.94982625 2.15102637,5.86102637 L0.631026373,4.35102637 C0.5404838,4.25709309 0.490242635,4.13149018 0.49101734,4.00102637 C0.491710662,3.86786952 0.541569677,3.73966062 0.631026373,3.64102637 L2.15102637,2.15102637 C2.34884005,1.95924308 2.6632127,1.95924308 2.86102637,2.15102637 Z M9.50102637,4.70102637 C9.77716875,4.70102637 10.0010264,4.924884 10.0010264,5.20102637 C10.0010264,5.47716875 9.77716875,5.70102637 9.50102637,5.70102637 L5.50102637,5.70102637 C5.224884,5.70102637 5.00102637,5.47716875 5.00102637,5.20102637 C5.00102637,4.924884 5.224884,4.70102637 5.50102637,4.70102637 L9.50102637,4.70102637 Z M9.50102637,2.30102637 C9.63617785,2.2920854 9.76861625,2.34188565 9.86439168,2.43766107 C9.9601671,2.53343649 10.0099673,2.66587489 10.0010264,2.80102637 C10.0099673,2.93617785 9.9601671,3.06861625 9.86439168,3.16439168 C9.76861625,3.2601671 9.63617785,3.30996734 9.50102637,3.30102637 L5.50102637,3.30102637 C5.36587489,3.30996734 5.23343649,3.2601671 5.13766107,3.16439168 C5.04188565,3.06861625 4.9920854,2.93617785 5.00102637,2.80102637 C4.9920854,2.66587489 5.04188565,2.53343649 5.13766107,2.43766107 C5.23343649,2.34188565 5.36587489,2.2920854 5.50102637,2.30102637 L9.50102637,2.30102637 Z M9.50102637,0.00102637348 C9.63617785,-0.00791459636 9.76861625,0.0418856471 9.86439168,0.137661071 C9.9601671,0.233436494 10.0099673,0.365874893 10.0010264,0.501026373 C10.0099673,0.636177854 9.9601671,0.768616253 9.86439168,0.864391676 C9.76861625,0.9601671 9.63617785,1.00996734 9.50102637,1.00102637 L0.501026373,1.00102637 C0.365874893,1.00996734 0.233436494,0.9601671 0.137661071,0.864391676 C0.0418856471,0.768616253 -0.00791459636,0.636177854 0.00102637348,0.501026373 C-0.00791459636,0.365874893 0.0418856471,0.233436494 0.137661071,0.137661071 C0.233436494,0.0418856471 0.365874893,-0.00791459636 0.501026373,0.00102637348 L9.50102637,0.00102637348 Z" />
</svg>
