<?xml version="1.0" standalone="no"?>
<!DOCTYPE svg PUBLIC "-//W3C//DTD SVG 1.1//EN" "http://www.w3.org/Graphics/SVG/1.1/DTD/svg11.dtd" >
<svg xmlns="http://www.w3.org/2000/svg" id="text-indent-increase_12">
<path unicode="&#xec32;" id="text-indent-increase_12" data-tags="text-indent-increase_12" d="M9.5,7 C9.77614237,7 10,7.22385763 10,7.5 C10,7.77614237 9.77614237,8 9.5,8 L0.5,8 C0.223857625,8 -8.784206e-16,7.77614237 -8.784206e-16,7.5 C-8.784206e-16,7.22385763 0.223857625,7 0.5,7 L9.5,7 Z M1,1.9999908 C1.12969617,2.00310832 1.25393841,2.05280521 1.35,2.14 L2.85,3.65 C2.94713835,3.74028033 3.00161655,3.86739614 3,3.9999908 C2.99966896,4.13513358 2.94571974,4.26461171 2.85,4.36 L1.35,5.85 C1.15218632,6.04178329 0.837813677,6.04178329 0.64,5.85 C0.545343675,5.7561167 0.492100838,5.62831877 0.492100838,5.495 C0.492100838,5.36168123 0.545343675,5.2338833 0.64,5.14 L1.8,3.9999908 L0.65,2.86 C0.502784704,2.71811359 0.456789359,2.50089128 0.533861716,2.31151349 C0.610934073,2.1221357 0.795543235,1.99876406 1,1.9999908 Z M9.5,4.7 C9.77614237,4.7 10,4.92385763 10,5.2 C10,5.47614237 9.77614237,5.7 9.5,5.7 L5.5,5.7 C5.22385763,5.7 5,5.47614237 5,5.2 C5,4.92385763 5.22385763,4.7 5.5,4.7 L9.5,4.7 Z M9.5,2.3 C9.63515148,2.29105903 9.76758988,2.34085927 9.8633653,2.4366347 C9.95914073,2.53241012 10.008941,2.66484852 10,2.8 C10.008941,2.93515148 9.95914073,3.06758988 9.8633653,3.1633653 C9.76758988,3.25914073 9.63515148,3.30894097 9.5,3.3 L5.5,3.3 C5.36484852,3.30894097 5.23241012,3.25914073 5.1366347,3.1633653 C5.04085927,3.06758988 4.99105903,2.93515148 5,2.8 C4.99105903,2.66484852 5.04085927,2.53241012 5.1366347,2.4366347 C5.23241012,2.34085927 5.36484852,2.29105903 5.5,2.3 L9.5,2.3 Z M9.5,-2.86012533e-16 C9.63515148,-0.00894096984 9.76758988,0.0408592736 9.8633653,0.136634697 C9.95914073,0.232410121 10.008941,0.36484852 10,0.5 C10.008941,0.63515148 9.95914073,0.767589879 9.8633653,0.863365303 C9.76758988,0.959140726 9.63515148,1.00894097 9.5,1 L0.5,1 C0.36484852,1.00894097 0.232410121,0.959140726 0.136634697,0.863365303 C0.0408592736,0.767589879 -0.00894096984,0.63515148 -2.12286785e-16,0.5 C-0.00894096984,0.36484852 0.0408592736,0.232410121 0.136634697,0.136634697 C0.232410121,0.0408592736 0.36484852,-0.00894096984 0.5,-2.86012533e-16 L9.5,-2.86012533e-16 Z" />
</svg>
