<?xml version="1.0" standalone="no"?>
<!DOCTYPE svg PUBLIC "-//W3C//DTD SVG 1.1//EN" "http://www.w3.org/Graphics/SVG/1.1/DTD/svg11.dtd" >
<svg xmlns="http://www.w3.org/2000/svg" id="text-heading-2_12">
<path unicode="&#xf017;" transform="scale(1,-1)" id="text-heading-2_12" data-tags="text-heading-2_12" d="M341.333 618.667c141.141 0 256-114.859 256-256v-298.667c0-23.552-19.115-42.667-42.667-42.667s-42.667 19.115-42.667 42.667v298.667c0 94.123-76.544 170.667-170.667 170.667s-170.667-76.544-170.667-170.667v-298.667c0-23.467-19.2-42.667-42.667-42.667s-42.667 19.2-42.667 42.667v768c0 23.467 19.2 42.667 42.667 42.667s42.667-19.2 42.667-42.667v-279.893c45.397 40.875 104.875 66.56 170.667 66.56zM862.831 157.918l-91.051-86.528h184.405v-50.091h-258.389v50.091l129.792 124.587c54.016 51.797 74.496 79.701 74.496 118.357 0 40.448-27.904 67.755-75.093 67.755-44.971 0-76.8-25.088-81.408-66.56h-57.429c8.533 63.744 61.44 112.64 139.947 112.64 73.984 0 129.707-43.264 129.707-113.237 0-54.016-23.296-88.747-94.976-157.013z" />
</svg>
