<?xml version="1.0" standalone="no"?>
<!DOCTYPE svg PUBLIC "-//W3C//DTD SVG 1.1//EN" "http://www.w3.org/Graphics/SVG/1.1/DTD/svg11.dtd" >
<svg xmlns="http://www.w3.org/2000/svg" id="text-list-bulleted_12">
<path unicode="&#xf01a;" transform="scale(1,-1)" id="text-list-bulleted_12" data-tags="text-list-bulleted_12" d="M469.333 618.667c-23.467 0-42.667 19.2-42.667 42.667s19.2 42.667 42.667 42.667h426.667c23.467 0 42.667-19.2 42.667-42.667s-19.2-42.667-42.667-42.667h-426.667zM896 277.333c23.467 0 42.667-19.2 42.667-42.667s-19.2-42.667-42.667-42.667h-426.667c-23.467 0-42.667 19.2-42.667 42.667s19.2 42.667 42.667 42.667h426.667zM213.333 704c23.467 0 42.667-19.2 42.667-42.667s-19.2-42.667-42.667-42.667c-23.467 0-42.667 19.2-42.667 42.667s19.2 42.667 42.667 42.667zM213.333 277.333c23.467 0 42.667-19.2 42.667-42.667s-19.2-42.667-42.667-42.667c-23.467 0-42.667 19.2-42.667 42.667s19.2 42.667 42.667 42.667z" />
</svg>
