<?xml version="1.0" standalone="no"?>
<!DOCTYPE svg PUBLIC "-//W3C//DTD SVG 1.1//EN" "http://www.w3.org/Graphics/SVG/1.1/DTD/svg11.dtd" >
<svg xmlns="http://www.w3.org/2000/svg" id="text-list-numbered_12">
<path unicode="&#xf01b;" transform="scale(1,-1)" id="text-list-numbered_12" data-tags="text-list-numbered_12" d="M469.333 618.667c-23.467 0-42.667 19.2-42.667 42.667s19.2 42.667 42.667 42.667h426.667c23.467 0 42.667-19.2 42.667-42.667s-19.2-42.667-42.667-42.667h-426.667zM896 277.333c23.467 0 42.667-19.2 42.667-42.667s-19.2-42.667-42.667-42.667h-426.667c-23.467 0-42.667 19.2-42.667 42.667s19.2 42.667 42.667 42.667h426.667zM215.168 506.377v265.643l-69.461-35.925v43.861l69.803 36.352h41.643v-309.931h-41.984zM339.669 304.836c0-42.069-18.176-69.12-73.813-122.197l-70.827-67.328h143.275v-38.912h-200.96v38.912l101.035 97.024c41.984 40.277 57.941 61.952 57.941 92.075 0 31.403-21.675 52.651-58.453 52.651-35.072 0-59.733-19.456-63.403-51.797h-44.629c6.656 49.579 47.872 87.637 108.971 87.637 57.515 0 100.864-33.621 100.864-88.064z" />
</svg>
