<?xml version="1.0" standalone="no"?>
<!DOCTYPE svg PUBLIC "-//W3C//DTD SVG 1.1//EN" "http://www.w3.org/Graphics/SVG/1.1/DTD/svg11.dtd" >
<svg xmlns="http://www.w3.org/2000/svg" id="text-bold_12">
<path unicode="&#xf011;" transform="scale(1,-1)" id="text-bold_12" data-tags="text-bold_12" d="M597.333 533.333h-256v170.667h256c46.251 0 85.333-39.083 85.333-85.333s-39.083-85.333-85.333-85.333zM597.333 192h-256v170.667h256c46.251 0 85.333-39.083 85.333-85.333s-39.083-85.333-85.333-85.333zM853.333 618.667c0 140.8-115.2 256-256 256h-341.333c-46.933 0-85.333-38.4-85.333-85.333v-682.667c0-46.933 38.4-85.333 85.333-85.333h341.333c140.8 0 256 115.2 256 256 0 65.707-25.771 125.184-66.816 170.667 41.045 45.483 66.816 104.96 66.816 170.667z" />
</svg>
