<?xml version="1.0" standalone="no"?>
<!DOCTYPE svg PUBLIC "-//W3C//DTD SVG 1.1//EN" "http://www.w3.org/Graphics/SVG/1.1/DTD/svg11.dtd" >
<svg xmlns="http://www.w3.org/2000/svg" id="text-underline_12">
<path unicode="&#xf01c;" transform="scale(1,-1)" id="text-underline_12" data-tags="text-underline_12" d="M810.667 106.667c23.467 0 42.667-19.2 42.667-42.667s-19.2-42.667-42.667-42.667h-597.333c-23.467 0-42.667 19.2-42.667 42.667s19.2 42.667 42.667 42.667h597.333zM810.667 874.667c23.552 0 42.667-19.115 42.667-42.667v-298.667c0-188.245-153.088-341.333-341.333-341.333s-341.333 153.088-341.333 341.333v298.667c0 23.552 19.115 42.667 42.667 42.667s42.667-19.115 42.667-42.667v-298.667c0-141.141 114.859-256 256-256s256 114.859 256 256v298.667c0 23.552 19.115 42.667 42.667 42.667z" />
</svg>
