<?xml version="1.0" standalone="no"?>
<!DOCTYPE svg PUBLIC "-//W3C//DTD SVG 1.1//EN" "http://www.w3.org/Graphics/SVG/1.1/DTD/svg11.dtd" >
<svg xmlns="http://www.w3.org/2000/svg" id="text-heading-1_12">
<path unicode="&#xf016;" transform="scale(1,-1)" id="text-heading-1_12" data-tags="text-heading-1_12" d="M341.333 618.667c141.141 0 256-114.859 256-256v-298.667c0-23.552-19.115-42.667-42.667-42.667s-42.667 19.115-42.667 42.667v298.667c0 94.123-76.544 170.667-170.667 170.667s-170.667-76.544-170.667-170.667v-298.667c0-23.467-19.2-42.667-42.667-42.667s-42.667 19.2-42.667 42.667v768c0 23.467 19.2 42.667 42.667 42.667s42.667-19.2 42.667-42.667v-279.893c45.397 40.875 104.875 66.56 170.667 66.56zM819.584 419.627h53.504v-398.251h-54.101v341.333l-89.344-46.080v56.405l89.941 46.592z" />
</svg>
