<?xml version="1.0" standalone="no"?>
<!DOCTYPE svg PUBLIC "-//W3C//DTD SVG 1.1//EN" "http://www.w3.org/Graphics/SVG/1.1/DTD/svg11.dtd" >
<svg xmlns="http://www.w3.org/2000/svg" id="text-heading-3_12">
<path unicode="&#xf018;" transform="scale(1,-1)" id="text-heading-3_12" data-tags="text-heading-3_12" d="M341.333 618.667c141.141 0 256-114.859 256-256v-298.667c0-23.552-19.115-42.667-42.667-42.667s-42.667 19.115-42.667 42.667v298.667c0 94.123-76.544 170.667-170.667 170.667s-170.667-76.544-170.667-170.667v-298.667c0-23.467-19.2-42.667-42.667-42.667s-42.667 19.2-42.667 42.667v768c0 23.467 19.2 42.667 42.667 42.667s42.667-19.2 42.667-42.667v-279.893c45.397 40.875 104.875 66.56 170.667 66.56zM825.25 21.333c-83.541 0-134.229 43.264-143.36 106.923h58.027c9.045-39.765 35.84-61.44 84.224-61.44 54.613 0 86.443 29.611 86.443 72.277 0 54.699-42.069 75.093-78.507 75.093h-33.024v47.275h31.915c30.123 0 66.048 20.48 66.048 66.56 0 42.667-37.632 62.635-76.288 62.635-44.373 0-74.581-22.784-80.213-56.917h-57.515c9.643 62.037 64.939 102.4 140.544 102.4 66.645 0 129.195-33.024 129.195-104.107 0-43.264-30.123-77.995-71.765-91.051 45.056-9.728 85.419-43.264 85.419-102.997 0-68.267-55.808-116.651-141.141-116.651z" />
</svg>
