<?xml version="1.0" standalone="no"?>
<!DOCTYPE svg PUBLIC "-//W3C//DTD SVG 1.1//EN" "http://www.w3.org/Graphics/SVG/1.1/DTD/svg11.dtd" >
<svg xmlns="http://www.w3.org/2000/svg" id="text-strikethrough_12">
<path unicode="&#xec31;" id="text-strikethrough_12" data-tags="text-strikethrough_12" d="M5,0 C7.26184082,0 7.94329986,1.57453547 7.98760757,1.68312412 C7.98995972,1.68901062 8.11604735,2.1588874 7.61289978,2.2881012 C7.20179749,2.39367676 7.05839452,2.02371947 6.95782471,1.87554932 C6.87065125,1.74711609 6.32843018,1.00062561 5,1.00062561 C2.99925232,1.00062561 2.60038757,2.23789978 2.60038757,2.7 C2.60038757,4.14041138 4.42129517,4.49617004 4.90028855,4.49617004 C4.93161152,4.49617004 4.96767594,4.49746233 5.00796848,4.50016639 L9.5,4.5 C9.77614237,4.5 10,4.72385763 10,5 C10,5.27614237 9.77614237,5.5 9.5,5.5 L7.50179892,5.49975678 C8.01533187,5.94345152 8.3946228,6.56473453 8.3946228,7.42064306 C8.3946228,8.66855195 7.26029619,10 5,10 C2.93920898,10 2.18263245,8.67004395 2.06321716,8.43708801 C1.96200759,8.23964786 1.95236206,7.86514282 2.33457947,7.7250061 C2.78991448,7.55806145 2.99925232,8.06851196 2.99925232,8.06851196 C2.99925232,8.06851196 3.52768102,9.00222778 5,9.00222778 C6.73164368,9.00222778 7.39955738,8.07933044 7.39955738,7.42064306 C7.39955738,5.93569801 5.36484867,5.53439152 4.94888632,5.50051104 L0.5,5.5 C0.223857625,5.5 0,5.27614237 0,5 C0,4.72385763 0.223857625,4.5 0.5,4.5 L2.37385633,4.50064414 C1.91043281,4.06302893 1.58949935,3.47010532 1.6,2.7 C1.61827631,1.35963673 2.77590943,0 5,0 Z" />
</svg>
