<svg xmlns="http://www.w3.org/2000/svg" xmlns:xlink="http://www.w3.org/1999/xlink" viewBox="0 0 157.29 104.35"><defs><style>.cls-1,.cls-12,.cls-13,.cls-15,.cls-16,.cls-17,.cls-19,.cls-9{fill:none;}.cls-2{fill:#bce5f4;opacity:0.25;}.cls-3{clip-path:url(#clip-path);}.cls-4{fill:#85ead6;}.cls-18,.cls-5,.cls-7,.cls-8{fill:#fff;}.cls-13,.cls-15,.cls-16,.cls-17,.cls-18,.cls-19,.cls-5,.cls-8,.cls-9{stroke:#124052;}.cls-6{fill:#ffce73;}.cls-10,.cls-18,.cls-6,.cls-8{fill-rule:evenodd;}.cls-8{stroke-width:0.54px;}.cls-12,.cls-13,.cls-16,.cls-9{stroke-linecap:round;}.cls-10,.cls-11{fill:#124052;}.cls-12{stroke:#fff;}.cls-12,.cls-13,.cls-19{stroke-miterlimit:10;}.cls-12,.cls-13{stroke-width:0.92px;}.cls-14{fill:#a6aeff;fill-opacity:0.5;}.cls-16,.cls-17{stroke-linejoin:round;}</style><clipPath id="clip-path"><rect class="cls-1" x="8.17" y="7.08" width="140.95" height="90.09" rx="7.16"/></clipPath></defs><g id="Final"><g id="thank_you_feedback" data-name="thank you feedback"><rect class="cls-2" x="2.63" y="2.26" width="152.03" height="99.83" rx="7.08"/><g class="cls-3"><path class="cls-4" d="M76,53.91a6.71,6.71,0,0,0,0-13.42Z"/><rect class="cls-5" x="72.76" y="38.62" width="3.26" height="17.17" rx="1.26" transform="translate(148.79 94.4) rotate(180)"/><path class="cls-6" d="M12.46,96.66c-1.16-.69-1.84-.87-1.79-1.22,3.95-11.18,14.65-12.65,21.66-14.16L33.05,97,13.57,97Z"/><path class="cls-6" d="M43,97.08s59.31.27,60.55.09c-.9-1.35-1.69-2.47-2.37-3.35a47.5,47.5,0,0,0-9.73-9c-3.11-2.12-13.26-5.52-34.61-5.52q-21.36,0-34.61,4.67V97H37.43Z"/><path class="cls-7" d="M67,79H44.11v18.2H67Z"/><path class="cls-5" d="M55.55,48.12h0A11.37,11.37,0,0,0,44.18,59.49V77.13A11.37,11.37,0,0,0,55.55,88.5h0A11.37,11.37,0,0,0,66.92,77.13V59.49A11.37,11.37,0,0,0,55.55,48.12Z"/><path class="cls-8" d="M72.81,55.82A14.54,14.54,0,0,1,58.25,70.33h-.16A14.84,14.84,0,0,1,43.43,55.45l0-15a14.7,14.7,0,1,1,29.39,0Z"/><path class="cls-9" d="M59.31,46.87v7.48"/><path class="cls-10" d="M72.69,54.34v1.48a14.43,14.43,0,0,1-14.46,14.4h-.14A14.71,14.71,0,0,1,43.55,55.48V54.41Z"/><path class="cls-11" d="M51.93,46.05a1,1,0,1,0,0-2.07,1,1,0,0,0,0,2.07Z"/><path class="cls-11" d="M65.37,46.05a1,1,0,1,0,0-2.07,1,1,0,0,0,0,2.07Z"/><path class="cls-8" d="M54.38,56c-.34,1.74,0,3,1.16,3.67s2.45.52,4-.58Z"/><path class="cls-11" d="M87,26.87c-1.38-2.29-4.26-3.32-7.51-3a4.41,4.41,0,0,0,.08-.73,4.91,4.91,0,0,0-9.73-.91C64.3,18.6,56.82,15.6,51.7,15.64c-9.12.06-12.55,4.57-12.55,10.72V48.12a4.57,4.57,0,0,1,1.64-.91,12.36,12.36,0,0,1,2.64-.2,20,20,0,0,1,0-6.55c.53-3,3.27-8.58,8.27-8.58s6.13,3.86,13.43,7.86A15.08,15.08,0,0,0,77.18,41a15.2,15.2,0,0,0,4.33-1.78C86.78,36.09,89.25,30.55,87,26.87Z"/><path class="cls-4" d="M40.16,40.53a6.71,6.71,0,1,0,0,13.42Z"/><rect class="cls-5" x="40.16" y="38.65" width="3.26" height="17.17" rx="1.26"/><path class="cls-12" d="M77.8,40.06a19.4,19.4,0,0,0-19.41-19.4h-.91a19.4,19.4,0,0,0-19.41,19.4h0v.8"/><line class="cls-12" x1="77.8" y1="40.73" x2="77.8" y2="40.06"/><path class="cls-12" d="M38.07,53.62V55a6.57,6.57,0,0,0,6.57,6.57h7.29"/><path class="cls-13" d="M38.07,53.62V55a6.57,6.57,0,0,0,6.57,6.57"/><circle class="cls-4" cx="51.93" cy="61.59" r="2.38"/><path class="cls-7" d="M132.88,97.17V88c0-3.2.66-5.6,3.85-5.6,2.48,0,3.5,2.4,3.5,4.77v2.14c0,1.07.62,3.24,2.82,3.24s2.82-2.17,2.82-3.24V84.82a9.15,9.15,0,0,0-10.09-9.07,9.43,9.43,0,0,0-8.25,9.47c0,1.31-.27,2-.75,2s-.77-.33-.91-1L112.32,46.81a2.08,2.08,0,0,0-4,.11l-1.6,5h-5l-1.59-5a2.08,2.08,0,0,0-2-1.54,2.05,2.05,0,0,0-2,1.43L81,85.82a40,40,0,0,0-1.87,11.39"/><path class="cls-14" d="M115.51,56.1a5.94,5.94,0,0,0-3-.82A6,6,0,1,0,118,63.66"/><path class="cls-15" d="M128.1,97.33q.28-4-2.78-12.75"/><path class="cls-16" d="M107.54,68.64a1.52,1.52,0,1,1-3,0"/><path class="cls-16" d="M104.09,68.64a1.52,1.52,0,1,1-3,0"/><path class="cls-10" d="M104.87,68.41,106,67.34a.75.75,0,0,0-.57-1.29h-2.27a.75.75,0,0,0-.56,1.29l1.13,1.07A.82.82,0,0,0,104.87,68.41Z"/><path class="cls-10" d="M109.91,61.31a1.08,1.08,0,1,1-1.08,1.08A1.08,1.08,0,0,1,109.91,61.31Z"/><path class="cls-10" d="M98.28,61.31a1.08,1.08,0,1,1-1.08,1.08A1.08,1.08,0,0,1,98.28,61.31Z"/><path class="cls-16" d="M95.05,68.28l-3.45-1"/><path class="cls-16" d="M113.57,68.28l3.44-1"/><path class="cls-16" d="M113.57,70.72l3.44,1"/><path class="cls-13" d="M89.68,63.28v1.41a6.57,6.57,0,0,0,6.57,6.57"/><circle class="cls-4" cx="98.04" cy="71.37" r="2.38"/><line class="cls-15" x1="55.59" y1="89.05" x2="55.59" y2="97.45"/><path class="cls-17" d="M132.88,97.17V88c0-3.2.66-5.6,3.85-5.6,2.48,0,3.5,2.4,3.5,4.77v2.14c0,1.07.62,3.24,2.82,3.24s2.82-2.17,2.82-3.24V84.82a9.15,9.15,0,0,0-10.09-9.07,9.43,9.43,0,0,0-8.25,9.47c0,1.31-.27,2-.75,2s-.77-.33-.91-1L112.32,46.81a2.08,2.08,0,0,0-4,.11l-1.6,5h-5l-1.59-5a2.08,2.08,0,0,0-2-1.54,2.05,2.05,0,0,0-2,1.43L81,85.82a40,40,0,0,0-1.87,11.39"/><path class="cls-18" d="M44.26,76.6,55.59,89.05,44.26,95.79Z"/><path class="cls-18" d="M66.87,76.6,55.54,89.05l11.33,6.74Z"/></g><rect class="cls-19" x="8.17" y="7.08" width="140.95" height="90.09" rx="7.08"/></g></g></svg>