<?xml version="1.0" encoding="utf-8"?>
<!-- Generator: Adobe Illustrator 23.0.3, SVG Export Plug-In . SVG Version: 6.00 Build 0)  -->
<svg version="1.1" id="Layer_1" xmlns="http://www.w3.org/2000/svg" xmlns:xlink="http://www.w3.org/1999/xlink" x="0px" y="0px"
	 viewBox="0 0 76 54" style="enable-background:new 0 0 76 54;" xml:space="preserve">
<style type="text/css">
	.st0{fill:#FFFFFF;stroke:#4DBDDF;}
	.st1{fill:#5ED7F8;}
	.st2{fill:none;stroke:#4DBDDF;}
	.st3{fill-rule:evenodd;clip-rule:evenodd;fill:#B5EDFC;}
	.st4{fill:none;stroke:#4DBDDF;stroke-linecap:round;}
</style>
<path class="st0" d="M20.8,49L20.8,49L20.8,49c0.5,2-1,3.8-2.9,3.8h0l-0.6,0L15,37.8l2,0c1.4,0,2.7,1,3,2.4L20.8,49z"/>
<path class="st0" d="M21,5L21,5L21,5l-1.3,8.3c-0.3,1.4-1.5,2.4-3,2.4h0l-2,0l2.6-14.5l0.6,0C19.9,1.2,21.4,3.1,21,5z"/>
<path class="st1" d="M17.1,53.5l-2.5,0C-3.9,53.7-4.3,0.8,13.4,0.7l3.7,0l-2.8,15.5l-2.6,0c-0.7,0-1.4,0.4-1.6,1.1
	c0-0.2-4.3,8.2,0.3,19c0.3,0.7,0.9,1.1,1.7,1.1l2.6,0L17.1,53.5z"/>
<path class="st2" d="M20.8,47.5H28c2.9,0,5.2-2.4,5.2-5.2l0,0c0-2.9-2.4-5.2-5.2-5.2h-1.2c-3.3,0-6-2.7-6-6l0,0c0-3.3,2.7-6,6-6H76"
	/>
<path class="st3" d="M47.7,43c9.9,0,17.9-8.1,17.9-18s-8-18-17.9-18c-9.9,0-17.9,8.1-17.9,18S37.8,43,47.7,43z"/>
<line class="st4" x1="47.6" y1="16.5" x2="47.6" y2="20.6"/>
<line class="st4" x1="51.4" y1="20.7" x2="54.3" y2="17.8"/>
<path class="st4" d="M43.6,20.9L40.7,18"/>
<line class="st4" x1="47.6" y1="33.5" x2="47.6" y2="29.4"/>
<line class="st4" x1="51.4" y1="29.3" x2="54.3" y2="32.2"/>
<path class="st4" d="M43.6,29.1L40.7,32"/>
</svg>
