<?xml version="1.0" standalone="no"?>
<!DOCTYPE svg PUBLIC "-//W3C//DTD SVG 1.1//EN" "http://www.w3.org/Graphics/SVG/1.1/DTD/svg11.dtd" >
<svg xmlns="http://www.w3.org/2000/svg" id="undo_12">
<path unicode="&#xec34;" id="undo_12" data-tags="undo_12" d="M6 1c-1.613 0-3.073.765-4 2.013L2 1.5c0-.276-.224-.5-.5-.5-.276 0-.5.224-.5.5l0 3c0 .276.224.5.5.5l3 0c.276 0 .5-.224.5-.5 0-.276-.224-.5-.5-.5L2.536 4C3.243 2.77 4.547 2 6 2c2.206 0 4 1.794 4 4 0 2.206-1.794 4-4 4-.276 0-.5.224-.5.5 0 .276.224.5.5.5 2.757 0 5-2.243 5-5 0-2.757-2.243-5-5-5" />
</svg>
