<?xml version="1.0" standalone="no"?>
<!DOCTYPE svg PUBLIC "-//W3C//DTD SVG 1.1//EN" "http://www.w3.org/Graphics/SVG/1.1/DTD/svg11.dtd" >
<svg xmlns="http://www.w3.org/2000/svg" id="update_24">
<path unicode="&#xea07;" transform="scale(1,-1)" id="update_24" data-tags="update_24" d="M640 597.333c0-11.776 9.557-21.333 21.333-21.333h341.333c11.776 0 21.333 9.557 21.333 21.333v341.333c0 11.776-9.557 21.333-21.333 21.333s-21.333-9.557-21.333-21.333v-286.037c-80.725 185.515-263.851 307.371-469.333 307.371-282.325 0-512-229.675-512-512s229.675-512 512-512c274.091 0 498.731 214.272 511.403 487.893 0.597 11.776-8.533 21.717-20.267 22.272-11.563 1.152-21.76-8.533-22.315-20.309-11.648-250.752-217.557-447.189-468.821-447.189-258.773 0-469.333 210.56-469.333 469.333s210.56 469.333 469.333 469.333c194.475 0 366.976-119.168 436.992-298.667h-287.659c-11.776 0-21.333-9.557-21.333-21.333z" />
</svg>
