<?xml version="1.0" standalone="no"?>
<!DOCTYPE svg PUBLIC "-//W3C//DTD SVG 1.1//EN" "http://www.w3.org/Graphics/SVG/1.1/DTD/svg11.dtd" >
<svg xmlns="http://www.w3.org/2000/svg" id="update-active_24">
<path unicode="&#xea06;" transform="scale(1,-1)" id="update-active_24" data-tags="update-active_24" d="M597.333 576c0-23.595 19.072-42.667 42.667-42.667h341.333c23.595 0 42.667 19.072 42.667 42.667v341.333c0 23.595-19.072 42.667-42.667 42.667s-42.667-19.072-42.667-42.667v-186.496c-93.184 140.715-251.733 229.163-426.667 229.163-282.325 0-512-229.675-512-512s229.675-512 512-512c266.795 0 486.016 200.107 509.909 465.493 2.133 23.467-15.189 44.203-38.656 46.336-22.997 2.389-44.203-15.189-46.336-38.656-19.925-221.099-202.581-387.84-424.917-387.84-235.264 0-426.667 191.403-426.667 426.667s191.403 426.667 426.667 426.667c171.221 0 323.755-101.461 391.040-256h-263.040c-23.595 0-42.667-19.072-42.667-42.667z" />
</svg>
