<svg width="20" height="20" viewBox="0 0 20 20" fill="none" xmlns="http://www.w3.org/2000/svg">
<path fill-rule="evenodd" clip-rule="evenodd" d="M16.8711 9.2975C17.2646 9.42653 17.6401 9.59516 17.993 9.79867C17.8871 8.24086 16.585 7.0055 15 7.0055V6.9975C15 4.24188 12.757 2 10 2C7.243 2 5 4.24188 5 6.9975V7.0055C3.346 7.0055 2 8.35082 2 10.004C2 11.6572 3.346 13.0025 5 13.0025H5.5C5.776 13.0025 6 12.7786 6 12.5027V6.9975C6 4.7926 7.794 2.9995 10 2.9995C12.206 2.9995 14 4.7926 14 6.9975V9.08296C14.3252 9.0284 14.6593 9 15 9V8.005C15.8543 8.005 16.585 8.54278 16.8711 9.2975ZM9.7968 17.9898C9.55332 17.567 9.3599 17.1117 9.22462 16.632C9.08422 16.4599 9 16.2402 9 16.001C9 15.9011 9.01468 15.8047 9.042 15.7136C9.01427 15.4796 9 15.2415 9 15C9 14.7437 9.01608 14.4911 9.04727 14.2432C8.42365 14.5818 8 15.2422 8 16.001C8 17.0359 8.78812 17.8879 9.7968 17.9898ZM3 10.004C3 11.1064 3.897 12.003 5 12.003V8.005C3.897 8.005 3 8.90155 3 10.004Z" fill="#B2B2B2"/>
<path fill-rule="evenodd" clip-rule="evenodd" d="M20 15C20 17.7614 17.7614 20 15 20C12.2386 20 10 17.7614 10 15C10 12.2386 12.2386 10 15 10C17.7614 10 20 12.2386 20 15ZM17.8796 13.8254C18.0593 13.6157 18.0351 13.3001 17.8254 13.1204C17.6157 12.9407 17.3001 12.9649 17.1204 13.1746L14.4718 16.2647L12.8536 14.6464C12.6583 14.4512 12.3417 14.4512 12.1464 14.6464C11.9512 14.8417 11.9512 15.1583 12.1464 15.3536L14.1464 17.3536C14.2449 17.452 14.38 17.505 14.5192 17.4996C14.6584 17.4943 14.789 17.4311 14.8796 17.3254L17.8796 13.8254Z" fill="#B2B2B2"/>
</svg>
