<?xml version="1.0" standalone="no"?>
<!DOCTYPE svg PUBLIC "-//W3C//DTD SVG 1.1//EN" "http://www.w3.org/Graphics/SVG/1.1/DTD/svg11.dtd" >
<svg xmlns="http://www.w3.org/2000/svg" id="V2-mobile-android_60">
<path unicode="&#xe901;" transform="scale(1,-1)" id="V2-mobile-android_60" data-tags="V2 mobile-android_60" d="M785.015 29.867c0-42.342-34.458-76.8-76.8-76.8h-392.482c-42.342 0-76.8 34.458-76.8 76.8v836.267c0 42.342 34.458 76.8 76.8 76.8h392.482c42.342 0 76.8-34.458 76.8-76.8v-836.267zM708.215 960h-392.482c-51.746 0-93.867-42.103-93.867-93.867v-836.267c0-51.763 42.121-93.867 93.867-93.867h392.482c51.746 0 93.867 42.103 93.867 93.867v836.267c0 51.763-42.121 93.867-93.867 93.867zM637.756 873.308c-6.315 2.731-13.841 1.195-18.603-3.584-3.089-3.243-4.949-7.509-4.949-12.117s1.86-8.875 4.949-12.117c1.707-1.536 3.413-2.731 5.632-3.584 2.048-0.853 4.267-1.365 6.485-1.365s4.437 0.512 6.485 1.365c2.048 0.853 3.908 2.048 5.632 3.584 3.072 3.243 4.949 7.68 4.949 12.117s-1.877 8.875-4.949 12.117c-1.724 1.536-3.584 2.731-5.632 3.584zM563.005 874.667h-170.667c-9.387 0-17.067-7.68-17.067-17.067s7.68-17.067 17.067-17.067h170.667c9.387 0 17.067 7.68 17.067 17.067s-7.68 17.067-17.067 17.067z" />
</svg>
