<?xml version="1.0" encoding="UTF-8"?>
<svg width="360px" height="240px" viewBox="0 0 360 240" version="1.1" xmlns="http://www.w3.org/2000/svg" xmlns:xlink="http://www.w3.org/1999/xlink">
    <!-- Generator: Sketch 41.2 (35397) - http://www.bohemiancoding.com/sketch -->
    <title>videocalls@1x</title>
    <desc>Created with Sketch.</desc>
    <defs></defs>
    <g id="videocalls" stroke="none" stroke-width="1" fill="none" fill-rule="evenodd">
        <g id="videocalls@1x">
            <g id="Illustration">
                <rect id="Bounds" x="0" y="0" width="360" height="240"></rect>
                <g transform="translate(46.000000, 0.000000)" fill="#444444">
                    <path d="M134,2 C136.205,2 138,3.794 138,6 C138,8.206 136.205,10 134,10 C131.795,10 130,8.206 130,6 C130,3.794 131.795,2 134,2 M134,12 C137.313,12 140,9.313 140,6 C140,2.687 137.313,0 134,0 C130.687,0 128,2.687 128,6 C128,9.313 130.687,12 134,12" id="Fill-1" fill-opacity="0.48"></path>
                    <path d="M256,18 L12,18 C5.383,18 0,23.383 0,30 L0,170 L0,172 L0,186 C0,192.617 5.383,198 12,198 L69,198 L69,196 L12,196 C6.486,196 2,191.514 2,186 L2,172 L64,172 L64,170 L2,170 L2,30 C2,24.486 6.486,20 12,20 L256,20 C261.514,20 266,24.486 266,30 L266,170 L204,170 L204,172 L266,172 L266,186 C266,191.514 261.514,196 256,196 L199,196 L199,198 L256,198 C262.617,198 268,192.617 268,186 L268,172 L268,170 L268,30 C268,23.383 262.617,18 256,18" id="Fill-3" fill-opacity="0.48"></path>
                    <path d="M134,238 C95.402,238 64,206.598 64,168 C64,129.402 95.402,98 134,98 C172.598,98 204,129.402 204,168 C204,206.598 172.598,238 134,238 M134,96 C94.235,96 62,128.235 62,168 C62,207.765 94.235,240 134,240 C173.765,240 206,207.765 206,168 C206,128.235 173.765,96 134,96" id="Fill-6"></path>
                    <path d="M158.0059,177.4502 C158.0059,177.7862 157.7659,177.9202 157.6639,177.9652 C157.5609,178.0062 157.2939,178.0782 157.0589,177.8432 L148.0019,168.7862 L148.0019,167.2242 L157.0589,158.1682 C157.2939,157.9322 157.5609,158.0042 157.6639,158.0472 C157.7659,158.0902 158.0059,158.2242 158.0059,158.5602 L158.0059,177.4502 Z M146.0019,180.0142 C146.0019,182.2132 144.2129,184.0002 142.0139,184.0002 L113.9899,184.0002 C111.7979,184.0002 110.0019,182.1992 110.0019,180.0142 L110.0019,155.9852 C110.0019,153.7872 111.7909,152.0002 113.9899,152.0002 L142.0139,152.0002 C144.2059,152.0002 146.0019,153.8002 146.0019,155.9852 L146.0019,180.0142 Z M158.4239,156.2002 C157.4659,155.8042 156.3719,156.0202 155.6399,156.7542 L147.9979,164.3962 L147.9979,155.9852 C147.9979,152.7062 145.3169,150.0002 142.0099,150.0002 L113.9859,150.0002 C110.6849,150.0002 107.9979,152.6792 107.9979,155.9852 L107.9979,180.0142 C107.9979,183.2942 110.6799,186.0002 113.9859,186.0002 L142.0099,186.0002 C145.3119,186.0002 147.9979,183.3202 147.9979,180.0142 L147.9979,171.6162 L155.6399,179.2562 C156.1279,179.7462 156.7799,180.0062 157.4439,180.0062 C157.7739,180.0062 158.1059,179.9422 158.4239,179.8122 C159.3819,179.4142 160.0019,178.4882 160.0019,177.4502 L160.0019,158.5602 C160.0019,157.5242 159.3819,156.5962 158.4239,156.2002 L158.4239,156.2002 Z" id="Fill-8"></path>
                </g>
            </g>
        </g>
    </g>
</svg>