<?xml version="1.0" standalone="no"?>
<!DOCTYPE svg PUBLIC "-//W3C//DTD SVG 1.1//EN" "http://www.w3.org/Graphics/SVG/1.1/DTD/svg11.dtd" >
<svg xmlns="http://www.w3.org/2000/svg" id="video-file_32">
<path unicode="&#xea8d;" transform="scale(1,-1)" id="video-file_32" data-tags="video-file_32" d="M864 32c0-35.296-28.704-64-64-64h-576c-35.296 0-64 28.704-64 64v832c0 35.296 28.704 64 64 64h379.232l260.768-260.768v-635.232zM886.624 689.888l-260.736 260.736c-6.016 6.016-14.144 9.376-22.656 9.376h-379.232c-53.024 0-96-42.976-96-96v-832c0-53.024 42.976-96 96-96h576c53.024 0 96 42.976 96 96v635.232c0 8.512-3.36 16.64-9.376 22.656zM640 320c0-5.44-3.168-10.144-8.864-12.96l-221.344-113.056c-5.952-2.912-12.992-2.656-18.624 0.864-2.688 1.696-7.168 5.44-7.168 12.032v226.24c0 6.592 4.512 10.336 7.168 12.032 3.072 1.92 6.592 2.88 10.080 2.88 2.88 0 5.728-0.672 8.352-1.952l221.728-113.216c5.504-2.72 8.672-7.424 8.672-12.864zM374.272 472.32c-13.92-8.672-22.272-23.328-22.272-39.2v-226.24c0-15.872 8.32-30.528 22.24-39.2 8.256-5.12 17.536-7.712 26.88-7.712 7.808 0 15.648 1.824 23.040 5.44l221.344 113.024c16.352 8.096 26.496 24.032 26.496 41.568s-10.144 33.472-26.304 41.472l-221.728 113.184c-16 7.936-34.592 7.072-49.696-2.336z" />
</svg>
