<?xml version="1.0" standalone="no"?>
<!DOCTYPE svg PUBLIC "-//W3C//DTD SVG 1.1//EN" "http://www.w3.org/Graphics/SVG/1.1/DTD/svg11.dtd" >
<svg xmlns="http://www.w3.org/2000/svg" id="video_24">
<path unicode="&#xea8c;" transform="scale(1,-1)" id="video_24" data-tags="video_24" d="M590.208 960h-355.541c-58.837 0-106.667-47.829-106.667-106.667v-810.667c0-58.837 47.829-106.667 106.667-106.667h554.667c58.837 0 106.667 47.829 106.667 106.667v611.584c0 13.312-5.163 25.771-14.592 35.157l-256 256c-9.259 9.259-22.059 14.592-35.2 14.592zM590.208 917.333c1.792 0 3.755-0.811 5.035-2.091l256-256c1.408-1.408 2.091-2.987 2.091-4.992v-611.584c0-35.285-28.715-64-64-64h-554.667c-35.285 0-64 28.715-64 64v810.667c0 35.285 28.715 64 64 64h355.541zM397.043 448.021c-2.731 0-5.504-0.768-7.979-2.261-1.92-1.237-5.205-3.925-5.205-8.448v-234.624c0-4.523 3.285-7.211 5.205-8.448 4.437-2.731 9.984-2.987 14.72-0.64l229.504 117.163c5.76 2.859 6.571 6.997 6.571 9.259 0 2.219-0.811 6.357-6.315 9.088l-230.016 117.419c-2.048 0.981-4.224 1.493-6.485 1.493zM396.873 149.312c-10.539 0-20.992 2.901-30.293 8.704-15.872 9.856-25.387 26.539-25.387 44.672v234.624c0 18.133 9.515 34.816 25.387 44.672 17.109 10.624 38.144 11.648 56.149 2.645l229.973-117.419c18.347-9.045 29.824-27.221 29.824-47.189 0-20.011-11.477-38.187-30.080-47.36l-229.504-117.163c-8.32-4.139-17.237-6.187-26.069-6.187z" />
</svg>
