<svg width="12" height="10" viewBox="0 0 12 10" fill="none" xmlns="http://www.w3.org/2000/svg">
<path fill-rule="evenodd" clip-rule="evenodd" d="M10.5 9L6.5 9V5.5L11 5.5L11 8.5C11 8.776 10.776 9 10.5 9ZM1 8.5L1 5.5L5.5 5.5V9H1.5C1.224 9 1 8.776 1 8.5ZM1.5 1L5.5 1L5.5 4.5L1 4.5L1 1.5C1 1.224 1.224 1 1.5 1ZM11 1.5V4.5L6.5 4.5L6.5 1L10.5 1C10.776 1 11 1.224 11 1.5ZM10.5 0L1.5 0C0.672 0 0 0.672 0 1.5L0 8.5C0 9.328 0.672 10 1.5 10L10.5 10C11.328 10 12 9.328 12 8.5L12 1.5C12 0.672 11.328 0 10.5 0Z"/>
</svg>
