<svg width="12" height="10" viewBox="0 0 12 10" fill="none" xmlns="http://www.w3.org/2000/svg">
<path fill-rule="evenodd" clip-rule="evenodd" d="M10.5 10L1.5 10C0.671573 10 5.87108e-08 9.32843 1.31134e-07 8.5L7.43094e-07 1.5C8.15517e-07 0.671572 0.671574 -9.90363e-07 1.5 -9.17939e-07L10.5 -1.31134e-07C11.3284 -5.87108e-08 12 0.671573 12 1.5L12 8.5C12 9.32843 11.3284 10 10.5 10ZM10.5 9C10.7761 9 11 8.77614 11 8.5L11 4L1 4L1 8.5C1 8.77614 1.22386 9 1.5 9L10.5 9ZM4.66667 3L7.33333 3L7.33333 1L4.66667 0.999999L4.66667 3ZM3.66667 3L3.66667 0.999999L1.5 0.999999C1.22386 0.999999 1 1.22386 1 1.5L1 3L3.66667 3ZM11 3L8.33333 3L8.33333 1L10.5 1C10.7761 1 11 1.22386 11 1.5L11 3Z"/>
</svg>
