<?xml version="1.0" encoding="UTF-8"?>
<svg width="20px" height="20px" viewBox="0 0 20 20" version="1.1" xmlns="http://www.w3.org/2000/svg" xmlns:xlink="http://www.w3.org/1999/xlink">
    <!-- Generator: Sketch 47.1 (45422) - http://www.bohemiancoding.com/sketch -->
    <title>format/view-stack_20</title>
    <desc>Created with Sketch.</desc>
    <defs></defs>
    <g id="view-stack_20" stroke="none" stroke-width="1" fill="none" fill-rule="evenodd">
        <g id="format/view-stack_20" fill="#000000">
            <g id="view-stack_20" transform="translate(2.000000, 2.000000)">
                <g id="icon">
                    <path d="M2.167,0.9998 C1.523,0.9998 1,1.5228 1,2.1668 L1,4.8328 C1,5.4768 1.523,5.9998 2.167,5.9998 L13.833,5.9998 C14.477,5.9998 15,5.4768 15,4.8328 L15,2.1668 C15,1.5228 14.477,0.9998 13.833,0.9998 L2.167,0.9998 Z M13.833,6.9998 L2.167,6.9998 C0.972,6.9998 0,6.0278 0,4.8328 L0,2.1668 C0,0.9718 0.972,-0.0002 2.167,-0.0002 L13.833,-0.0002 C15.028,-0.0002 16,0.9718 16,2.1668 L16,4.8328 C16,6.0278 15.028,6.9998 13.833,6.9998 Z M13.833,16.0008 L2.167,16.0008 C0.972,16.0008 0,15.0288 0,13.8338 L0,11.1678 C0,9.9738 0.972,9.0008 2.167,9.0008 L13.833,9.0008 C15.028,9.0008 16,9.9738 16,11.1678 L16,13.8338 C16,15.0288 15.028,16.0008 13.833,16.0008 Z M2.167,10.0008 C1.523,10.0008 1,10.5238 1,11.1678 L1,13.8338 C1,14.4778 1.523,15.0008 2.167,15.0008 L13.833,15.0008 C14.477,15.0008 15,14.4778 15,13.8338 L15,11.1678 C15,10.5238 14.477,10.0008 13.833,10.0008 L2.167,10.0008 Z" id="fill"></path>
                </g>
            </g>
        </g>
    </g>
</svg>