<?xml version="1.0" standalone="no"?>
<!DOCTYPE svg PUBLIC "-//W3C//DTD SVG 1.1//EN" "http://www.w3.org/Graphics/SVG/1.1/DTD/svg11.dtd" >
<svg xmlns="http://www.w3.org/2000/svg" id="voicemail_24">
<path unicode="&#xea8f;" transform="scale(1,-1)" id="voicemail_24" data-tags="voicemail_24" d="M981.333 170.667c0-35.285-28.715-64-64-64h-810.667c-35.285 0-64 28.715-64 64v554.667c0 35.285 28.715 64 64 64h810.667c35.285 0 64-28.715 64-64v-554.667zM917.333 832h-810.667c-58.923 0-106.667-47.744-106.667-106.667v-554.667c0-58.923 47.744-106.667 106.667-106.667h810.667c58.923 0 106.667 47.744 106.667 106.667v554.667c0 58.923-47.744 106.667-106.667 106.667zM725.333 362.667c-47.061 0-85.333 38.272-85.333 85.333s38.272 85.333 85.333 85.333c47.061 0 85.333-38.272 85.333-85.333s-38.272-85.333-85.333-85.333zM213.333 448c0 47.061 38.272 85.333 85.333 85.333s85.333-38.272 85.333-85.333c0-47.061-38.272-85.333-85.333-85.333s-85.333 38.272-85.333 85.333zM725.333 576c-70.699 0-128-57.301-128-128 0-32.939 12.8-62.635 33.237-85.333h-237.141c20.437 22.699 33.237 52.395 33.237 85.333 0 70.699-57.301 128-128 128s-128-57.301-128-128c0-70.699 57.301-128 128-128h426.667c70.699 0 128 57.301 128 128s-57.301 128-128 128z" />
</svg>
