<svg width="124" height="80" viewBox="0 0 124 80" fill="none" xmlns="http://www.w3.org/2000/svg">
<path fill-rule="evenodd" clip-rule="evenodd" d="M75 14.2001C75 7.56153 80.5439 2.24308 87.2434 2.53437L87.2465 2.5345C93.1196 2.80768 97.6719 7.52132 98.2672 13.2012C102.303 13.7927 105.067 18.1624 102.897 22.5747L102.894 22.5806C102.091 24.1875 100.343 25.5225 98.4416 26.728C97.4663 27.3463 96.3979 27.9611 95.3116 28.5803C95.1809 28.6549 95.0498 28.7295 94.9185 28.8042C93.9532 29.3539 92.977 29.9098 92.0169 30.4895C89.827 31.8117 87.8026 33.2107 86.3294 34.8108C84.8702 36.3956 84 38.1233 84 40.1334C84 43.9307 86.4322 46.2172 89.504 49.1051C89.783 49.3674 90.0672 49.6346 90.3554 49.9084C93.7413 53.125 97.3333 57.0412 97.3333 64.1334C97.3333 70.5524 92.0856 75.8001 85.6667 75.8001H29.3333C26.9144 75.8001 25 73.8857 25 71.4668C25 71.0395 25.1468 70.6058 25.4762 70.2763C25.8057 69.9469 26.2394 69.8001 26.6667 69.8001H29V43.8001C29 40.3145 31.8477 37.4668 35.3333 37.4668H71C74.4856 37.4668 77.3333 40.3145 77.3333 43.8001V69.8001H80.3333C80.8856 69.8001 81.3333 70.2478 81.3333 70.8001C81.3333 71.3524 80.8856 71.8001 80.3333 71.8001H27.0223C27.1781 72.9495 28.1324 73.8001 29.3333 73.8001H85.6667C90.981 73.8001 95.3333 69.4478 95.3333 64.1334C95.3333 57.8923 92.2587 54.4752 88.9779 51.3584C88.6803 51.0757 88.3779 50.7935 88.074 50.51C85.1047 47.7395 82 44.8427 82 40.1334C82 37.4769 83.1714 35.288 84.8581 33.4561C86.5307 31.6395 88.7563 30.1219 90.9831 28.7774C91.9666 28.1836 92.9663 27.6143 93.9293 27.066C94.0607 26.9912 94.1913 26.9168 94.3212 26.8428C95.4094 26.2225 96.44 25.6289 97.3709 25.0388C99.2799 23.8287 100.573 22.7479 101.104 21.689C102.581 18.6809 100.885 15.8449 98.3333 15.2482V20.1334C98.3333 20.6857 97.8856 21.1334 97.3333 21.1334C96.781 21.1334 96.3333 20.6857 96.3333 20.1334V14.4668C96.3333 9.22979 92.3165 4.77332 87.1551 4.53242C81.5886 4.29123 77 8.70582 77 14.2001V24.1334C77 25.0434 76.2154 25.9674 75.1094 25.7877C72.05 25.3145 69.6667 22.7176 69.6667 19.5334C69.6667 17.9383 70.3011 16.4456 71.2407 15.3493C71.6002 14.93 72.2315 14.8814 72.6508 15.2408C73.0701 15.6003 73.1187 16.2316 72.7593 16.6509C72.0989 17.4213 71.6667 18.4618 71.6667 19.5334C71.6667 21.5382 73.0734 23.2419 75 23.727V14.2001ZM75.3333 69.8001V43.8001C75.3333 41.419 73.381 39.4668 71 39.4668H35.3333C32.9523 39.4668 31 41.419 31 43.8001V69.8001H75.3333Z"/>
</svg>
