<svg width="16" height="16" viewBox="0 0 16 16" fill="none" xmlns="http://www.w3.org/2000/svg">
<path fill-rule="evenodd" clip-rule="evenodd" d="M8 16C12.4183 16 16 12.4183 16 8C16 3.58172 12.4183 0 8 0C3.58172 0 0 3.58172 0 8C0 12.4183 3.58172 16 8 16Z" fill="#E7F5FF"/>
<path fill-rule="evenodd" clip-rule="evenodd" d="M7.98188 11.6749C10.0215 11.6749 11.6749 10.0215 11.6749 7.98186C11.6749 5.94228 10.0215 4.28886 7.98188 4.28886C5.9423 4.28886 4.28888 5.94228 4.28888 7.98186C4.28888 10.0215 5.9423 11.6749 7.98188 11.6749Z" fill="#1DC4F2"/>
<path fill-rule="evenodd" clip-rule="evenodd" d="M11.8667 4.13335C12.419 4.13335 12.8667 3.68563 12.8667 3.13335C12.8667 2.58105 12.419 2.13335 11.8667 2.13335C11.3144 2.13335 10.8667 2.58105 10.8667 3.13335C10.8667 3.68563 11.3144 4.13335 11.8667 4.13335Z" fill="#34315F"/>
</svg>
