<?xml version="1.0" encoding="UTF-8" standalone="no"?>
<svg width="25px" height="22px" viewBox="0 0 25 22" version="1.1" xmlns="http://www.w3.org/2000/svg" xmlns:xlink="http://www.w3.org/1999/xlink">
    <!-- Generator: Sketch 3.8.1 (29687) - http://www.bohemiancoding.com/sketch -->
    <title>warning</title>
    <desc>Created with Sketch.</desc>
    <defs></defs>
    <g id="Page-1" stroke="none" stroke-width="1" fill="none" fill-rule="evenodd">
        <g id="SVG-ICONS" transform="translate(-1255.367188, -1.539062)">
            <g id="warning" transform="translate(1255.472656, 0.539062)">
                <rect id="bounds" x="0" y="0" width="24" height="24"></rect>
                <path d="M23.8259463,21.6985541 L12.7249463,1.53616963 C12.3149463,0.82127679 11.6449463,0.82127679 11.2359463,1.53616963 L0.173946287,21.6985541 C-0.236053713,22.4144496 0.103946287,23 0.928946287,23 L23.0709463,23 C23.8959463,23 24.2359463,22.4144496 23.8259463,21.6985541 L23.8259463,21.6985541 Z M12.7099463,19.7002632 C12.5189463,19.8807411 12.2599463,19.9920357 11.9999463,19.9920357 C11.7399463,19.9920357 11.4789463,19.8807411 11.2899463,19.7002632 C11.1089463,19.5097588 10.9999463,19.2490686 10.9999463,18.989381 C10.9999463,18.7286907 11.1089463,18.4669978 11.2899463,18.2774961 C11.6599463,17.9065138 12.3399463,17.9065138 12.7099463,18.28652 C12.8899463,18.4669978 12.9999463,18.7286907 12.9999463,18.989381 C12.9999463,19.2490686 12.8899463,19.5097588 12.7099463,19.7002632 L12.7099463,19.7002632 Z M11.9999463,15.9814167 C11.4479463,15.9814167 10.9999463,15.5322274 10.9999463,14.9787619 L10.9979463,8.96283341 C10.9979463,8.40936799 11.4449463,7.96017865 11.9979463,7.96017865 C12.5499463,7.96017865 12.9999463,8.40836533 12.9999463,8.96283341 L12.9999463,14.9787619 C12.9999463,15.5312247 12.5529463,15.9814167 11.9999463,15.9814167 Z" id="icon" fill="#FFFFFF"></path>
            </g>
        </g>
    </g>
</svg>