<svg width="44" height="44" viewBox="0 0 44 44" fill="none" xmlns="http://www.w3.org/2000/svg">
<path fill-rule="evenodd" clip-rule="evenodd" d="M21.9998 15.9997C21.7238 15.9997 21.4998 16.2237 21.4998 16.4997V28.4997C21.4998 28.7757 21.7238 28.9997 21.9998 28.9997C22.2758 28.9997 22.4998 28.7757 22.4998 28.4997V16.4997C22.4998 16.2237 22.2758 15.9997 21.9998 15.9997ZM21.9998 31.9997C21.7238 31.9997 21.4998 32.2237 21.4998 32.4997C21.4998 32.7757 21.7238 32.9997 21.9998 32.9997C22.2758 32.9997 22.4998 32.7757 22.4998 32.4997C22.4998 32.2237 22.2758 31.9997 21.9998 31.9997ZM42.5862 38.34C41.9982 39.38 40.9192 40 39.7002 40H4.29922C3.08022 40 2.00122 39.38 1.41322 38.34C0.850222 37.344 0.865222 36.164 1.45622 35.181L19.1552 5.588C19.7532 4.593 20.8162 4 22.0002 4C23.1832 4 24.2472 4.593 24.8432 5.586L42.5452 35.183C43.1342 36.165 43.1492 37.344 42.5862 38.34ZM43.4022 34.669L25.7022 5.073H25.7012C24.9212 3.775 23.5382 3 22.0002 3C20.4612 3 19.0782 3.775 18.2972 5.073L0.598222 34.668C-0.179778 35.963 -0.199778 37.52 0.543222 38.833C1.31122 40.19 2.71522 41 4.29922 41H39.7002C41.2842 41 42.6882 40.19 43.4562 38.833C44.1992 37.52 44.1792 35.963 43.4022 34.669Z"/>
</svg>
