<svg width="12" height="11" viewBox="0 0 12 11" fill="none" xmlns="http://www.w3.org/2000/svg">
<path fill-rule="evenodd" clip-rule="evenodd" d="M5.99825 2.99703C5.72225 2.99703 5.49825 3.22103 5.49825 3.49703V5.50303C5.49825 5.77903 5.72225 6.00303 5.99825 6.00303C6.27425 6.00303 6.49825 5.77903 6.49825 5.50303V3.49703C6.49825 3.22103 6.27425 2.99703 5.99825 2.99703ZM11.7824 7.83463L7.26035 0.67863C6.99335 0.25363 6.52235 -0.000366211 6.00135 -0.000366211H5.99835C5.47735 -0.000366211 5.00635 0.25363 4.73835 0.67863L0.217354 7.83463C-0.056646 8.26863 -0.072646 8.81763 0.175354 9.2666C0.429354 9.7276 0.900354 10.0026 1.43435 10.0026H10.5644C11.0994 10.0026 11.5704 9.7276 11.8234 9.2666C12.0724 8.81763 12.0554 8.26863 11.7824 7.83463ZM5.99825 7.00293C5.72225 7.00293 5.49825 7.22693 5.49825 7.50293C5.49825 7.77893 5.72225 8.00293 5.99825 8.00293C6.27425 8.00293 6.49825 7.77893 6.49825 7.50293C6.49825 7.22693 6.27425 7.00293 5.99825 7.00293Z" fill="#D97F00"/>
</svg>
