<?xml version="1.0" standalone="no"?>
<!DOCTYPE svg PUBLIC "-//W3C//DTD SVG 1.1//EN" "http://www.w3.org/Graphics/SVG/1.1/DTD/svg11.dtd" >
<svg xmlns="http://www.w3.org/2000/svg" id="warning_24">
<path unicode="&#xea0b;" transform="scale(1,-1)" id="warning_24" data-tags="warning_24" d="M919.753 21.333h-772.824c-38.27 0-72.274 19.627-90.918 52.523-18.218 32.085-17.748 70.187 1.195 101.888l386.369 648.405c18.943 31.659 52.477 50.517 89.766 50.517s70.823-18.859 89.723-50.475c0.043 0 0.043-0.043 0.043-0.043l386.369-648.448c18.943-31.616 19.37-69.717 1.195-101.803-18.644-32.896-52.648-52.565-90.918-52.565zM533.342 832c-22.143 0-41.982-11.093-53.117-29.696l-386.369-648.448c-11.007-18.347-11.263-40.405-0.725-58.923 10.965-19.371 31.102-30.933 53.8-30.933h772.824c22.697 0 42.835 11.563 53.8 30.976 10.495 18.517 10.282 40.533-0.683 58.837l-386.455 648.533c-11.135 18.56-30.932 29.653-53.075 29.653zM533.342 319.748c-11.775 0-21.332 9.557-21.332 21.333v256c0 11.776 9.557 21.333 21.332 21.333s21.332-9.557 21.332-21.333v-256c0-11.776-9.557-21.333-21.332-21.333zM533.342 191.748c-5.546 0-11.093 2.133-14.975 5.973-4.224 4.224-6.357 9.344-6.357 15.36 0 5.547 2.133 11.093 6.357 14.933 1.707 2.091 4.309 3.413 6.869 4.693 7.68 3.413 17.066 1.237 23.039-4.693 4.266-3.84 6.4-9.387 6.4-14.933 0-6.016-2.133-11.136-6.4-15.36-1.707-1.707-4.266-3.413-6.869-4.267-2.517-1.28-5.12-1.707-8.064-1.707z" />
</svg>
