<svg><title>meetings/webex-meetings_20</title><path id="webex-meetings_20" d="M6 11C5.658 11 5.324 10.964 5.001 10.899C4.943 10.887 4.891 10.862 4.833 10.848C4.569 10.784 4.307 10.712 4.06 10.607C4.025 10.593 3.994 10.57 3.96 10.554C3.698 10.437 3.443 10.305 3.208 10.145C3.192 10.135 3.18 10.121 3.165 10.11C2.915 9.937 2.678 9.745 2.463 9.53C2.18 9.237 2.18 8.771 2.469 8.481C2.615 8.334 2.808 8.26 3 8.26C3.192 8.26 3.383 8.333 3.529 8.479C3.678 8.627 3.841 8.754 4.009 8.872C4.022 8.881 4.033 8.893 4.045 8.902C4.208 9.012 4.383 9.101 4.561 9.182C4.589 9.194 4.614 9.213 4.643 9.226C4.813 9.297 4.99 9.346 5.17 9.39C5.215 9.4 5.256 9.42 5.301 9.429C5.529 9.475 5.763 9.5 6 9.5C7.93 9.5 9.5 7.93 9.5 6C9.5 5.762 9.476 5.529 9.43 5.301C9.42 5.256 9.401 5.214 9.39 5.17C9.346 4.99 9.297 4.812 9.226 4.643C9.213 4.614 9.195 4.589 9.182 4.56C9.101 4.382 9.012 4.208 8.902 4.045C8.893 4.032 8.881 4.022 8.872 4.009C8.755 3.84 8.627 3.678 8.479 3.529C8.187 3.236 8.188 2.761 8.481 2.469C8.627 2.323 8.818 2.25 9.01 2.25C9.198 2.25 9.386 2.323 9.532 2.464C9.734 2.667 9.913 2.891 10.079 3.125C10.099 3.154 10.126 3.179 10.146 3.208C10.301 3.438 10.428 3.686 10.544 3.94C10.563 3.981 10.591 4.019 10.608 4.061C10.71 4.301 10.78 4.557 10.843 4.815C10.858 4.878 10.886 4.938 10.899 5.001C10.965 5.324 11 5.658 11 6C11 8.757 8.757 11 6 11V11ZM4.047 7.539V7.541C3.71 7.115 3.5 6.584 3.5 6C3.5 4.622 4.622 3.5 6 3.5C6.583 3.5 7.113 3.709 7.539 4.045C7.469 5.944 5.946 7.467 4.047 7.539V7.539ZM5.2 8.343C6.724 7.902 7.914 6.711 8.353 5.187C8.397 5.314 8.434 5.445 8.459 5.58C8.482 5.718 8.5 5.857 8.5 6C8.5 7.378 7.378 8.5 6 8.5C5.856 8.5 5.715 8.482 5.576 8.458C5.439 8.433 5.307 8.395 5.178 8.35L5.2 8.343ZM1.76 7.775C1.654 7.882 1.569 8.003 1.495 8.13C1.187 7.481 1 6.765 1 6C1 3.243 3.243 1 6 1C6.765 1 7.482 1.186 8.13 1.494C8.003 1.569 7.881 1.655 7.773 1.762C7.503 2.032 7.338 2.378 7.285 2.752C6.886 2.593 6.455 2.5 6 2.5C4.07 2.5 2.5 4.07 2.5 6C2.5 6.454 2.594 6.886 2.752 7.285C2.378 7.338 2.031 7.503 1.76 7.775V7.775ZM11.97 5.393C11.965 5.348 11.955 5.304 11.95 5.258C11.931 5.104 11.91 4.951 11.879 4.799C11.872 4.759 11.859 4.721 11.85 4.682C11.816 4.527 11.779 4.373 11.732 4.222C11.724 4.195 11.712 4.168 11.703 4.141C11.651 3.981 11.596 3.824 11.531 3.67C11.521 3.646 11.508 3.625 11.499 3.602C11.431 3.447 11.359 3.294 11.279 3.146C11.263 3.116 11.244 3.089 11.227 3.059C11.149 2.921 11.069 2.785 10.98 2.653C10.942 2.597 10.899 2.544 10.859 2.489C10.787 2.39 10.716 2.289 10.638 2.193C10.529 2.061 10.412 1.935 10.292 1.812C10.278 1.796 10.265 1.78 10.25 1.765C10.25 1.765 10.25 1.764 10.249 1.764C9.163 0.674 7.66 0 6 0C2.687 0 0 2.686 0 6C0 7.659 0.674 9.161 1.763 10.248C1.764 10.248 1.764 10.249 1.765 10.25C1.807 10.292 1.853 10.328 1.896 10.369C1.993 10.459 2.089 10.552 2.192 10.636C2.297 10.723 2.407 10.8 2.517 10.878C2.562 10.912 2.605 10.948 2.652 10.979C2.793 11.074 2.938 11.16 3.086 11.243C3.105 11.253 3.124 11.267 3.145 11.278C3.301 11.362 3.461 11.438 3.625 11.509C3.639 11.515 3.653 11.523 3.668 11.53C3.829 11.598 3.994 11.656 4.16 11.709C4.181 11.716 4.2 11.725 4.221 11.731C4.379 11.78 4.54 11.819 4.702 11.855C4.734 11.862 4.766 11.873 4.798 11.879C4.958 11.912 5.122 11.934 5.286 11.953C5.321 11.958 5.356 11.965 5.392 11.969C5.593 11.989 5.796 12 6 12C6.244 12 6.483 11.981 6.719 11.953C9.493 11.621 11.686 9.401 11.969 6.613C11.99 6.411 12 6.207 12 6C12 5.796 11.99 5.594 11.97 5.393V5.393Z"/>
</svg>
