<svg width="16" height="16" viewBox="0 0 16 16" fill="none" xmlns="http://www.w3.org/2000/svg">
<path fill-rule="evenodd" clip-rule="evenodd" d="M12.9494 12.9495C11.6284 14.2715 9.8704 15.0005 8.0004 15.0005C6.5904 15.0005 5.2454 14.5835 4.1014 13.8125H4.1044C3.8834 13.6635 3.6714 13.4995 3.4684 13.3265C3.4384 13.3015 3.4094 13.2745 3.3804 13.2485C3.2514 13.1345 3.1304 13.0115 3.0104 12.8885C2.6724 12.4955 2.6784 11.9065 3.0504 11.5355C3.2394 11.3465 3.4904 11.2425 3.7574 11.2425C4.0244 11.2425 4.2754 11.3455 4.4644 11.5345C5.3704 12.4415 6.6594 12.9625 8.0004 12.9625C9.3404 12.9625 10.6294 12.4415 11.5354 11.5355C12.4794 10.5905 13.0004 9.33549 13.0004 8.00049C13.0004 7.07449 12.7354 6.19549 12.2674 5.42349C12.2674 5.42149 12.2684 5.41949 12.2694 5.41849C12.2644 5.41149 12.2584 5.40549 12.2544 5.39849C12.1094 5.16149 11.9384 4.94049 11.7524 4.72749C11.7084 4.67749 11.6714 4.62249 11.6264 4.57449C11.5934 4.53949 11.5694 4.49849 11.5354 4.46449C11.3464 4.27549 11.2424 4.02449 11.2424 3.75749C11.2424 3.49049 11.3464 3.23949 11.5364 3.05049C11.7244 2.86149 11.9754 2.75749 12.2424 2.75749C12.5104 2.75749 12.7614 2.86149 12.9494 3.05049C14.2714 4.37249 15.0004 6.13049 15.0004 8.00049C15.0004 9.86949 14.2714 11.6275 12.9494 12.9495ZM5.0004 10.5005C4.9944 10.5005 4.9584 10.4995 4.9114 10.4985C4.3524 9.81249 4.0004 8.95249 4.0004 8.00049C4.0004 5.79449 5.7944 4.00049 8.0004 4.00049C8.9484 4.00049 9.8134 4.34049 10.4994 4.89449C10.4994 4.94349 10.5004 4.98749 10.5004 5.00049C10.5004 8.03249 8.0324 10.5005 5.0004 10.5005ZM11.4134 5.93249C11.4254 5.95249 11.4344 5.97549 11.4474 5.99549C11.5814 6.22949 11.6894 6.47949 11.7764 6.73849C11.8104 6.84849 11.8524 6.95549 11.8794 7.06849C11.8894 7.11349 11.9094 7.15549 11.9194 7.19949C11.9714 7.45849 12.0004 7.72649 12.0004 8.00049C12.0004 8.27449 11.9714 8.54149 11.9194 8.80049C11.9094 8.84649 11.8884 8.88949 11.8774 8.93649C11.8264 9.14749 11.7694 9.35649 11.6864 9.55249C11.6744 9.58049 11.6554 9.60549 11.6424 9.63349C11.5484 9.84249 11.4434 10.0465 11.3164 10.2345C11.3134 10.2385 11.3104 10.2415 11.3074 10.2445C11.1414 10.4895 10.9424 10.7075 10.7264 10.9095C9.9804 11.6045 8.9934 11.9625 8.0004 11.9625C7.5154 11.9625 7.0334 11.8735 6.5794 11.7065C6.4034 11.6385 6.2324 11.5535 6.0664 11.4615C6.0374 11.4465 6.0064 11.4345 5.9774 11.4185C8.7924 10.9915 11.0034 8.75149 11.4134 5.93249ZM2.3434 10.8285C2.1574 11.0135 2.0194 11.2275 1.9224 11.4545C1.3394 10.4345 1.0004 9.25749 1.0004 8.00049C1.0004 4.14049 4.1404 1.00049 8.0004 1.00049C9.2544 1.00049 10.4204 1.34949 11.4384 1.93049C11.2184 2.02849 11.0094 2.16249 10.8284 2.34349C10.4844 2.68749 10.3014 3.12649 10.2604 3.57549C9.5804 3.22049 8.8214 3.00049 8.0004 3.00049C5.2384 3.00049 3.0004 5.23849 3.0004 8.00049C3.0004 8.82049 3.2114 9.58349 3.5674 10.2605C3.1204 10.3035 2.6854 10.4865 2.3434 10.8285ZM13.6574 2.34349C13.6454 2.33149 13.6314 2.32449 13.6194 2.31249H13.6234C12.1784 0.883488 10.1924 0.000488281 8.0004 0.000488281C3.5814 0.000488281 0.000396729 3.58149 0.000396729 8.00049C0.000396729 10.1415 0.853397 12.0755 2.2244 13.5115C2.2634 13.5575 2.2954 13.6075 2.3384 13.6515C2.3404 13.6525 2.3414 13.6545 2.3434 13.6565C2.3964 13.7105 2.4554 13.7565 2.5104 13.8085C2.5114 13.8095 2.5124 13.8115 2.5144 13.8125C4.0054 15.2205 5.9414 16.0005 8.0004 16.0005C10.1364 16.0005 12.1464 15.1685 13.6574 13.6565C15.1684 12.1455 16.0004 10.1365 16.0004 8.00049C16.0004 5.86349 15.1684 3.85449 13.6574 2.34349Z"/>
</svg>
