<?xml version="1.0" standalone="no"?>
<!DOCTYPE svg PUBLIC "-//W3C//DTD SVG 1.1//EN" "http://www.w3.org/Graphics/SVG/1.1/DTD/svg11.dtd" >
<svg xmlns="http://www.w3.org/2000/svg" id="whiteboard_32">
<path unicode="&#xec07;" transform="scale(1,-1)" id="whiteboard_32" data-tags="whiteboard_32" d="M28.9518504 8.108l-2.818 2.818-5.061-5.06 2.818-2.819c1.352-1.351 3.709-1.351 5.061 0 .676.676 1.048 1.575 1.048 2.531 0 .956-.372 1.854-1.048 2.53zM8.61885044 28.441l-6.466 1.405 1.405-6.466L20.3658504 6.573l5.061 5.06L8.61885044 28.441zM29.6588504 2.34c-.864-.865-2.015-1.34-3.237-1.34-1.223 0-2.373.475-3.238 1.34L2.74785044 22.777c-.067.067-.114.153-.135.247l-1.6009999978 7.369c-.037.166.014.34.1339999998.46.095.095.223.147.354.147.035 0 .071-.004.106-.012l7.368999998-1.602c.094-.02.18-.067.248-.134L29.6588504 8.815c.865-.864 1.341-2.015 1.341-3.237 0-1.223-.476-2.373-1.341-3.238z" />
</svg>
