<?xml version="1.0" standalone="no"?>
<!DOCTYPE svg PUBLIC "-//W3C//DTD SVG 1.1//EN" "http://www.w3.org/Graphics/SVG/1.1/DTD/svg11.dtd" >
<svg xmlns="http://www.w3.org/2000/svg" id="whiteboard_16">
<path unicode="&#xea91;" transform="scale(1,-1)" id="whiteboard_16" data-tags="whiteboard_16" d="M114.291 196.36l-40.448-186.333 186.048 40.51 669.888 670.851c19.52 19.486 30.208 45.381 30.208 72.944s-10.688 53.458-30.208 72.944c-38.848 39.036-106.752 39.036-145.6 0l-669.888-670.915zM31.987-64.006c-8.384 0-16.576 3.333-22.656 9.422-7.68 7.692-10.944 18.845-8.576 29.485l53.056 244.278c1.28 6.025 4.288 11.538 8.576 15.896l676.544 677.517c62.976 63.201 173.12 63.201 236.096 0 31.552-31.536 48.96-73.585 48.96-118.261s-17.408-86.661-48.96-118.261l-676.48-677.517c-4.288-4.295-9.792-7.307-15.808-8.653l-243.968-53.137c-2.24-0.513-4.544-0.769-6.784-0.769v0zM685.255 832l201.373-201.373-45.255-45.255-201.373 201.373 45.255 45.255z" />
</svg>
