<svg width="12" height="12" viewBox="0 0 12 12" fill="none" xmlns="http://www.w3.org/2000/svg">
<path fill-rule="evenodd" clip-rule="evenodd" d="M10.5 11C10.776 11 11 10.776 11 10.5V2.5C11 2.224 10.776 2 10.5 2H1.5C1.224 2 1 2.224 1 2.5V10.5C1 10.776 1.224 11 1.5 11H10.5ZM8.999 1H10.5C11.327 1 12 1.673 12 2.5V10.5C12 11.327 11.327 12 10.5 12H1.5C0.673 12 0 11.327 0 10.5V2.5C0 1.673 0.673 1 1.5 1H2.999V0.5C2.999 0.224 3.223 0 3.499 0C3.775 0 3.999 0.224 3.999 0.5V1H7.999V0.5C7.999 0.224 8.223 0 8.499 0C8.775 0 8.999 0.224 8.999 0.5V1ZM3.5 4C3.22386 4 3 4.22386 3 4.5V8.5C3 8.77614 3.22386 9 3.5 9C3.77614 9 4 8.77614 4 8.5V4.5C4 4.22386 3.77614 4 3.5 4ZM5.5 4.5C5.5 4.22386 5.72386 4 6 4C6.27614 4 6.5 4.22386 6.5 4.5V8.5C6.5 8.77614 6.27614 9 6 9C5.72386 9 5.5 8.77614 5.5 8.5V4.5ZM8.5 4C8.22386 4 8 4.22386 8 4.5V8.5C8 8.77614 8.22386 9 8.5 9C8.77614 9 9 8.77614 9 8.5V4.5C9 4.22386 8.77614 4 8.5 4Z"/>
</svg>