<?xml version="1.0" standalone="no"?>
<!DOCTYPE svg PUBLIC "-//W3C//DTD SVG 1.1//EN" "http://www.w3.org/Graphics/SVG/1.1/DTD/svg11.dtd" >
<svg xmlns="http://www.w3.org/2000/svg" id="zip-file_24">
<path unicode="&#xea93;" transform="scale(1,-1)" id="zip-file_24" data-tags="zip-file_24" d="M853.333 42.667c0-35.285-28.715-64-64-64h-554.667c-35.285 0-64 28.715-64 64v810.667c0 35.285 28.715 64 64 64h64v-63.915c0-11.776 9.557-21.333 21.333-21.333s21.333 9.557 21.333 21.333v63.915h256l256-256v-618.667zM881.408 689.408l-256 256c-9.387 9.429-21.888 14.592-35.2 14.592h-355.541c-58.795 0-106.667-47.829-106.667-106.667v-810.667c0-58.837 47.872-106.667 106.667-106.667h554.667c58.795 0 106.667 47.829 106.667 106.667v611.584c0 13.312-5.205 25.771-14.592 35.157zM320.009 746.667c-11.819 0-21.376-9.557-21.376-21.333v-85.248c0-11.776 9.557-21.333 21.376-21.333 11.776 0 21.333 9.557 21.333 21.333v85.248c0 11.776-9.557 21.333-21.333 21.333zM320.009 533.239c-11.819 0-21.376-9.557-21.376-21.333v-85.248c0-11.776 9.557-21.333 21.376-21.333 11.776 0 21.333 9.557 21.333 21.333v85.248c0 11.776-9.557 21.333-21.333 21.333zM320 319.863c-11.776 0-21.333-9.557-21.333-21.333v-85.205c0-11.776 9.557-21.333 21.333-21.333s21.333 9.557 21.333 21.333v85.205c0 11.776-9.557 21.333-21.333 21.333z" />
</svg>
