<?xml version="1.0" standalone="no"?>
<!DOCTYPE svg PUBLIC "-//W3C//DTD SVG 1.1//EN" "http://www.w3.org/Graphics/SVG/1.1/DTD/svg11.dtd" >
<svg xmlns="http://www.w3.org/2000/svg" id="zip-file_32">
<path unicode="&#xea94;" transform="scale(1,-1)" id="zip-file_32" data-tags="zip-file_32" d="M864 32c0-35.296-28.704-64-64-64h-576c-35.296 0-64 28.704-64 64v832c0 35.296 28.704 64 64 64h64v-112c0-8.832 7.168-16 16-16s16 7.168 16 16v112h283.232l260.768-260.768v-635.232zM886.624 689.888l-260.736 260.736c-6.016 6.016-14.144 9.376-22.656 9.376h-379.232c-53.024 0-96-42.976-96-96v-832c0-53.024 42.976-96 96-96h576c53.024 0 96 42.976 96 96v635.232c0 8.512-3.36 16.64-9.376 22.656zM304 704c-8.832 0-16-7.168-16-16v-128c0-8.832 7.168-16 16-16s16 7.168 16 16v128c0 8.832-7.168 16-16 16zM304 448c-8.832 0-16-7.168-16-16v-128c0-8.832 7.168-16 16-16s16 7.168 16 16v128c0 8.832-7.168 16-16 16zM304 192c-8.832 0-16-7.168-16-16v-128c0-8.832 7.168-16 16-16s16 7.168 16 16v128c0 8.832-7.168 16-16 16z" />
</svg>
