<svg width="90" height="90" viewBox="0 0 90 90" fill="none" xmlns="http://www.w3.org/2000/svg">
<path d="M32.6673 68.3337V50.8337C32.6673 50.5684 32.562 50.3141 32.3744 50.1266C32.1869 49.939 31.9325 49.8337 31.6673 49.8337C31.5292 49.8221 31.3901 49.8394 31.259 49.8845C31.1279 49.9295 31.0076 50.0013 30.9057 50.0954C30.8038 50.1894 30.7226 50.3036 30.6672 50.4307C30.6119 50.5578 30.5835 50.695 30.584 50.8337V68.3337C30.5841 69.8222 29.9986 71.2511 28.9538 72.3114C27.9091 73.3718 26.4891 73.9784 25.0007 74.0003H21.6673C20.1711 73.9788 18.7423 73.3749 17.6842 72.3168C16.6261 71.2587 16.0222 69.8298 16.0007 68.3337V28.3337C16.0222 26.8375 16.6261 25.4086 17.6842 24.3505C18.7423 23.2925 20.1711 22.6885 21.6673 22.667H25.0007C26.4891 22.6889 27.9091 23.2956 28.9538 24.3559C29.9986 25.4162 30.5841 26.8451 30.584 28.3337V43.3337C30.5838 43.691 30.6554 44.0447 30.7946 44.3738C30.9338 44.7029 31.1377 45.0006 31.3943 45.2494C31.6508 45.4981 31.9547 45.6928 32.2879 45.8218C32.6211 45.9508 32.9768 46.0115 33.334 46.0003H46.6673C47.3746 46.0003 48.0528 45.7194 48.5529 45.2193C49.053 44.7192 49.334 44.0409 49.334 43.3337V41.667C49.334 40.9597 49.053 40.2815 48.5529 39.7814C48.0528 39.2813 47.3746 39.0003 46.6673 39.0003H37.5006C37.2354 39.0003 36.9811 39.1057 36.7935 39.2932C36.606 39.4808 36.5006 39.7351 36.5006 40.0003C36.5006 40.2655 36.606 40.5199 36.7935 40.7074C36.9811 40.895 37.2354 41.0003 37.5006 41.0003H46.6673C46.8293 41.0207 46.9782 41.0999 47.0857 41.2228C47.1932 41.3456 47.2519 41.5037 47.2506 41.667V43.3337C47.2519 43.4969 47.1932 43.655 47.0857 43.7779C46.9782 43.9008 46.8293 43.9799 46.6673 44.0003H33.334C33.1634 43.9822 33.0041 43.9062 32.8828 43.7848C32.7615 43.6635 32.6854 43.5043 32.6673 43.3337V28.3337C32.6673 26.3003 31.8596 24.3503 30.4218 22.9125C28.984 21.4747 27.034 20.667 25.0007 20.667H21.6673C19.6262 20.6669 17.6675 21.4719 16.2165 22.9074C14.7655 24.3428 13.9393 26.2927 13.9173 28.3337V54.0003H11.6673C8.74222 54.0002 5.93568 55.1565 3.85953 57.217C1.78338 59.2776 0.605978 62.0753 0.583984 65.0003V78.3337C0.605978 81.2587 1.78338 84.0564 3.85953 86.1169C5.93568 88.1775 8.74222 89.3337 11.6673 89.3337H13.334C14.7785 89.3337 16.2089 89.0491 17.5435 88.4963C18.8781 87.9435 20.0907 87.1333 21.1122 86.1118C22.1336 85.0904 22.9439 83.8778 23.4967 82.5432C24.0495 81.2086 24.334 79.7782 24.334 78.3337V76.0003H25.0007C27.034 76.0003 28.984 75.1926 30.4218 73.7548C31.8596 72.317 32.6673 70.367 32.6673 68.3337ZM22.2507 78.3337C22.2508 80.7062 21.314 82.9829 19.6441 84.6683C17.9743 86.3538 15.7065 87.3117 13.334 87.3337H11.6673C9.2871 87.3119 7.01052 86.3567 5.32739 84.6736C3.64425 82.9905 2.68906 80.7139 2.66732 78.3337V65.0003C2.68906 62.6201 3.64425 60.3435 5.32739 58.6604C7.01052 56.9773 9.2871 56.0221 11.6673 56.0003H13.9173V68.3337C13.9393 70.3746 14.7655 72.3245 16.2165 73.7599C17.6675 75.1954 19.6262 76.0004 21.6673 76.0003H22.2507V78.3337Z" fill="black" fill-opacity="0.95"/>
<path d="M51.6673 73.3337C52.5878 73.3337 53.334 72.5875 53.334 71.667C53.334 70.7465 52.5878 70.0003 51.6673 70.0003C50.7468 70.0003 50.0006 70.7465 50.0006 71.667C50.0006 72.5875 50.7468 73.3337 51.6673 73.3337Z" fill="black" fill-opacity="0.95"/>
<path d="M60.0007 73.3337C60.9211 73.3337 61.6673 72.5875 61.6673 71.667C61.6673 70.7465 60.9211 70.0003 60.0007 70.0003C59.0802 70.0003 58.334 70.7465 58.334 71.667C58.334 72.5875 59.0802 73.3337 60.0007 73.3337Z" fill="black" fill-opacity="0.95"/>
<path d="M68.334 73.3337C69.2545 73.3337 70.0006 72.5875 70.0006 71.667C70.0006 70.7465 69.2545 70.0003 68.334 70.0003C67.4135 70.0003 66.6673 70.7465 66.6673 71.667C66.6673 72.5875 67.4135 73.3337 68.334 73.3337Z" fill="black" fill-opacity="0.95"/>
<path d="M51.6673 65.0003C52.5878 65.0003 53.334 64.2541 53.334 63.3337C53.334 62.4132 52.5878 61.667 51.6673 61.667C50.7468 61.667 50.0006 62.4132 50.0006 63.3337C50.0006 64.2541 50.7468 65.0003 51.6673 65.0003Z" fill="black" fill-opacity="0.95"/>
<path d="M60.0007 65.0003C60.9211 65.0003 61.6673 64.2541 61.6673 63.3337C61.6673 62.4132 60.9211 61.667 60.0007 61.667C59.0802 61.667 58.334 62.4132 58.334 63.3337C58.334 64.2541 59.0802 65.0003 60.0007 65.0003Z" fill="black" fill-opacity="0.95"/>
<path d="M68.334 65.0003C69.2545 65.0003 70.0006 64.2541 70.0006 63.3337C70.0006 62.4132 69.2545 61.667 68.334 61.667C67.4135 61.667 66.6673 62.4132 66.6673 63.3337C66.6673 64.2541 67.4135 65.0003 68.334 65.0003Z" fill="black" fill-opacity="0.95"/>
<path d="M51.6673 56.667C52.5878 56.667 53.334 55.9208 53.334 55.0003C53.334 54.0798 52.5878 53.3337 51.6673 53.3337C50.7468 53.3337 50.0006 54.0798 50.0006 55.0003C50.0006 55.9208 50.7468 56.667 51.6673 56.667Z" fill="black" fill-opacity="0.95"/>
<path d="M60.0007 56.667C60.9211 56.667 61.6673 55.9208 61.6673 55.0003C61.6673 54.0798 60.9211 53.3337 60.0007 53.3337C59.0802 53.3337 58.334 54.0798 58.334 55.0003C58.334 55.9208 59.0802 56.667 60.0007 56.667Z" fill="black" fill-opacity="0.95"/>
<path d="M60.0007 11.667C60.9211 11.667 61.6673 10.9208 61.6673 10.0003C61.6673 9.07985 60.9211 8.33366 60.0007 8.33366C59.0802 8.33366 58.334 9.07985 58.334 10.0003C58.334 10.9208 59.0802 11.667 60.0007 11.667Z" fill="black" fill-opacity="0.95"/>
<path d="M68.334 56.667C69.2545 56.667 70.0006 55.9208 70.0006 55.0003C70.0006 54.0798 69.2545 53.3337 68.334 53.3337C67.4135 53.3337 66.6673 54.0798 66.6673 55.0003C66.6673 55.9208 67.4135 56.667 68.334 56.667Z" fill="black" fill-opacity="0.95"/>
<path d="M73.334 41.0003H81.6673C83.7006 41.0003 85.6507 40.1926 87.0885 38.7548C88.5262 37.317 89.334 35.367 89.334 33.3337V8.33366C89.334 6.30033 88.5262 4.35029 87.0885 2.91251C85.6507 1.47473 83.7006 0.666992 81.6673 0.666992H38.334C36.2929 0.666874 34.3342 1.47194 32.8832 2.90737C31.4321 4.3428 30.6059 6.29271 30.584 8.33366V18.3337C30.5835 18.4723 30.6119 18.6095 30.6672 18.7366C30.7226 18.8637 30.8038 18.9779 30.9057 19.0719C31.0076 19.166 31.1279 19.2378 31.259 19.2829C31.3901 19.3279 31.5292 19.3452 31.6673 19.3337C31.9325 19.3337 32.1869 19.2283 32.3744 19.0408C32.562 18.8532 32.6673 18.5989 32.6673 18.3337V8.33366C32.6888 6.83747 33.2928 5.40861 34.3509 4.35053C35.4089 3.29246 36.8378 2.68852 38.334 2.66699H81.6673C83.1557 2.68888 84.5757 3.29555 85.6205 4.3559C86.6652 5.41624 87.2508 6.84509 87.2506 8.33366V33.3337C87.2508 34.8222 86.6652 36.2511 85.6205 37.3114C84.5757 38.3718 83.1557 38.9784 81.6673 39.0003H73.334C72.9768 38.9892 72.6211 39.0499 72.2879 39.1789C71.9547 39.3079 71.6508 39.5025 71.3943 39.7513C71.1377 40 70.9338 40.2978 70.7946 40.6269C70.6554 40.956 70.5838 41.3097 70.584 41.667V43.3337C70.5838 43.691 70.6554 44.0447 70.7946 44.3738C70.9338 44.7029 71.1377 45.0006 71.3943 45.2494C71.6508 45.4981 71.9547 45.6928 72.2879 45.8218C72.6211 45.9508 72.9768 46.0115 73.334 46.0003H81.6673C83.1557 46.0222 84.5757 46.6289 85.6205 47.6892C86.6652 48.7496 87.2508 50.1784 87.2506 51.667V75.0003C87.2508 76.4889 86.6652 77.9177 85.6205 78.9781C84.5757 80.0384 83.1557 80.6451 81.6673 80.667H27.5007C27.2354 80.667 26.9811 80.7723 26.7935 80.9599C26.606 81.1474 26.5006 81.4018 26.5006 81.667C26.5006 81.9322 26.606 82.1866 26.7935 82.3741C26.9811 82.5616 27.2354 82.667 27.5007 82.667H81.6673C83.7006 82.667 85.6507 81.8592 87.0885 80.4215C88.5262 78.9837 89.334 77.0336 89.334 75.0003V51.667C89.334 49.6337 88.5262 47.6836 87.0885 46.2458C85.6507 44.8081 83.7006 44.0003 81.6673 44.0003H73.334C73.1634 43.9822 73.0041 43.9062 72.8828 43.7848C72.7615 43.6635 72.6854 43.5043 72.6673 43.3337V41.667C72.6854 41.4964 72.7615 41.3371 72.8828 41.2158C73.0041 41.0945 73.1634 41.0184 73.334 41.0003Z" fill="black" fill-opacity="0.95"/>
</svg>
