<svg width="90" height="90" viewBox="0 0 90 90" fill="none" xmlns="http://www.w3.org/2000/svg">
<path d="M32.6673 68.3334V50.8334C32.6673 50.5682 32.562 50.3138 32.3744 50.1263C32.1869 49.9388 31.9325 49.8334 31.6673 49.8334C31.5292 49.8219 31.3901 49.8392 31.259 49.8842C31.1279 49.9293 31.0076 50.0011 30.9057 50.0951C30.8038 50.1892 30.7226 50.3034 30.6672 50.4305C30.6119 50.5576 30.5835 50.6948 30.584 50.8334V68.3334C30.5841 69.822 29.9986 71.2508 28.9538 72.3112C27.9091 73.3715 26.4891 73.9782 25.0007 74.0001H21.6673C20.1711 73.9786 18.7423 73.3746 17.6842 72.3165C16.6261 71.2585 16.0222 69.8296 16.0007 68.3334V28.3334C16.0222 26.8372 16.6261 25.4084 17.6842 24.3503C18.7423 23.2922 20.1711 22.6883 21.6673 22.6667H25.0007C26.4891 22.6886 27.9091 23.2953 28.9538 24.3557C29.9986 25.416 30.5841 26.8448 30.584 28.3334V43.3334C30.5838 43.6907 30.6554 44.0444 30.7946 44.3735C30.9338 44.7026 31.1377 45.0004 31.3943 45.2491C31.6508 45.4979 31.9547 45.6925 32.2879 45.8215C32.6211 45.9505 32.9768 46.0112 33.334 46.0001H46.6673C47.3746 46.0001 48.0528 45.7191 48.5529 45.219C49.053 44.7189 49.334 44.0407 49.334 43.3334V41.6667C49.334 40.9595 49.053 40.2812 48.5529 39.7811C48.0528 39.281 47.3746 39.0001 46.6673 39.0001H37.5006C37.2354 39.0001 36.9811 39.1054 36.7935 39.293C36.606 39.4805 36.5006 39.7349 36.5006 40.0001C36.5006 40.2653 36.606 40.5197 36.7935 40.7072C36.9811 40.8947 37.2354 41.0001 37.5006 41.0001H46.6673C46.8293 41.0205 46.9782 41.0996 47.0857 41.2225C47.1932 41.3454 47.2519 41.5035 47.2506 41.6667V43.3334C47.2519 43.4967 47.1932 43.6548 47.0857 43.7776C46.9782 43.9005 46.8293 43.9797 46.6673 44.0001H33.334C33.1634 43.982 33.0041 43.9059 32.8828 43.7846C32.7615 43.6633 32.6854 43.504 32.6673 43.3334V28.3334C32.6673 26.3001 31.8596 24.35 30.4218 22.9123C28.984 21.4745 27.034 20.6667 25.0007 20.6667H21.6673C19.6262 20.6666 17.6675 21.4717 16.2165 22.9071C14.7655 24.3426 13.9393 26.2925 13.9173 28.3334V54.0001H11.6673C8.74222 54 5.93568 55.1563 3.85953 57.2168C1.78338 59.2773 0.605978 62.0751 0.583984 65.0001V78.3334C0.605978 81.2584 1.78338 84.0562 3.85953 86.1167C5.93568 88.1772 8.74222 89.3335 11.6673 89.3334H13.334C14.7785 89.3334 16.2089 89.0489 17.5435 88.4961C18.8781 87.9433 20.0907 87.133 21.1122 86.1116C22.1336 85.0901 22.9439 83.8775 23.4967 82.5429C24.0495 81.2084 24.334 79.778 24.334 78.3334V76.0001H25.0007C27.034 76.0001 28.984 75.1923 30.4218 73.7546C31.8596 72.3168 32.6673 70.3667 32.6673 68.3334ZM22.2507 78.3334C22.2508 80.706 21.314 82.9826 19.6441 84.6681C17.9743 86.3535 15.7065 87.3114 13.334 87.3334H11.6673C9.2871 87.3117 7.01052 86.3565 5.32739 84.6733C3.64425 82.9902 2.68906 80.7136 2.66732 78.3334V65.0001C2.68906 62.6199 3.64425 60.3433 5.32739 58.6601C7.01052 56.977 9.2871 56.0218 11.6673 56.0001H13.9173V68.3334C13.9393 70.3744 14.7655 72.3243 16.2165 73.7597C17.6675 75.1951 19.6262 76.0002 21.6673 76.0001H22.2507V78.3334Z" fill="white"/>
<path d="M51.6673 73.3334C52.5878 73.3334 53.334 72.5872 53.334 71.6667C53.334 70.7463 52.5878 70.0001 51.6673 70.0001C50.7468 70.0001 50.0006 70.7463 50.0006 71.6667C50.0006 72.5872 50.7468 73.3334 51.6673 73.3334Z" fill="white"/>
<path d="M60.0007 73.3334C60.9211 73.3334 61.6673 72.5872 61.6673 71.6667C61.6673 70.7463 60.9211 70.0001 60.0007 70.0001C59.0802 70.0001 58.334 70.7463 58.334 71.6667C58.334 72.5872 59.0802 73.3334 60.0007 73.3334Z" fill="white"/>
<path d="M68.334 73.3334C69.2545 73.3334 70.0006 72.5872 70.0006 71.6667C70.0006 70.7463 69.2545 70.0001 68.334 70.0001C67.4135 70.0001 66.6673 70.7463 66.6673 71.6667C66.6673 72.5872 67.4135 73.3334 68.334 73.3334Z" fill="white"/>
<path d="M51.6673 65.0001C52.5878 65.0001 53.334 64.2539 53.334 63.3334C53.334 62.4129 52.5878 61.6667 51.6673 61.6667C50.7468 61.6667 50.0006 62.4129 50.0006 63.3334C50.0006 64.2539 50.7468 65.0001 51.6673 65.0001Z" fill="white"/>
<path d="M60.0007 65.0001C60.9211 65.0001 61.6673 64.2539 61.6673 63.3334C61.6673 62.4129 60.9211 61.6667 60.0007 61.6667C59.0802 61.6667 58.334 62.4129 58.334 63.3334C58.334 64.2539 59.0802 65.0001 60.0007 65.0001Z" fill="white"/>
<path d="M68.334 65.0001C69.2545 65.0001 70.0006 64.2539 70.0006 63.3334C70.0006 62.4129 69.2545 61.6667 68.334 61.6667C67.4135 61.6667 66.6673 62.4129 66.6673 63.3334C66.6673 64.2539 67.4135 65.0001 68.334 65.0001Z" fill="white"/>
<path d="M51.6673 56.6667C52.5878 56.6667 53.334 55.9206 53.334 55.0001C53.334 54.0796 52.5878 53.3334 51.6673 53.3334C50.7468 53.3334 50.0006 54.0796 50.0006 55.0001C50.0006 55.9206 50.7468 56.6667 51.6673 56.6667Z" fill="white"/>
<path d="M60.0007 56.6667C60.9211 56.6667 61.6673 55.9206 61.6673 55.0001C61.6673 54.0796 60.9211 53.3334 60.0007 53.3334C59.0802 53.3334 58.334 54.0796 58.334 55.0001C58.334 55.9206 59.0802 56.6667 60.0007 56.6667Z" fill="white"/>
<path d="M60.0007 11.6667C60.9211 11.6667 61.6673 10.9206 61.6673 10.0001C61.6673 9.07961 60.9211 8.33341 60.0007 8.33341C59.0802 8.33341 58.334 9.07961 58.334 10.0001C58.334 10.9206 59.0802 11.6667 60.0007 11.6667Z" fill="white"/>
<path d="M68.334 56.6667C69.2545 56.6667 70.0006 55.9206 70.0006 55.0001C70.0006 54.0796 69.2545 53.3334 68.334 53.3334C67.4135 53.3334 66.6673 54.0796 66.6673 55.0001C66.6673 55.9206 67.4135 56.6667 68.334 56.6667Z" fill="white"/>
<path d="M73.334 41.0001H81.6673C83.7006 41.0001 85.6507 40.1923 87.0885 38.7546C88.5262 37.3168 89.334 35.3667 89.334 33.3334V8.33341C89.334 6.30009 88.5262 4.35004 87.0885 2.91226C85.6507 1.47448 83.7006 0.666748 81.6673 0.666748H38.334C36.2929 0.66663 34.3342 1.4717 32.8832 2.90713C31.4321 4.34256 30.6059 6.29246 30.584 8.33341V18.3334C30.5835 18.4721 30.6119 18.6093 30.6672 18.7364C30.7226 18.8635 30.8038 18.9777 30.9057 19.0717C31.0076 19.1657 31.1279 19.2376 31.259 19.2826C31.3901 19.3277 31.5292 19.345 31.6673 19.3334C31.9325 19.3334 32.1869 19.2281 32.3744 19.0405C32.562 18.853 32.6673 18.5986 32.6673 18.3334V8.33341C32.6888 6.83723 33.2928 5.40836 34.3509 4.35029C35.4089 3.29221 36.8378 2.68828 38.334 2.66675H81.6673C83.1557 2.68864 84.5757 3.29531 85.6205 4.35565C86.6652 5.416 87.2508 6.84485 87.2506 8.33341V33.3334C87.2508 34.822 86.6652 36.2508 85.6205 37.3112C84.5757 38.3715 83.1557 38.9782 81.6673 39.0001H73.334C72.9768 38.9889 72.6211 39.0496 72.2879 39.1786C71.9547 39.3076 71.6508 39.5023 71.3943 39.751C71.1377 39.9998 70.9338 40.2975 70.7946 40.6266C70.6554 40.9557 70.5838 41.3094 70.584 41.6667V43.3334C70.5838 43.6907 70.6554 44.0444 70.7946 44.3735C70.9338 44.7026 71.1377 45.0004 71.3943 45.2491C71.6508 45.4979 71.9547 45.6925 72.2879 45.8215C72.6211 45.9505 72.9768 46.0112 73.334 46.0001H81.6673C83.1557 46.022 84.5757 46.6286 85.6205 47.689C86.6652 48.7493 87.2508 50.1782 87.2506 51.6667V75.0001C87.2508 76.4886 86.6652 77.9175 85.6205 78.9778C84.5757 80.0382 83.1557 80.6449 81.6673 80.6667H27.5007C27.2354 80.6667 26.9811 80.7721 26.7935 80.9596C26.606 81.1472 26.5006 81.4015 26.5006 81.6667C26.5006 81.932 26.606 82.1863 26.7935 82.3738C26.9811 82.5614 27.2354 82.6667 27.5007 82.6667H81.6673C83.7006 82.6667 85.6507 81.859 87.0885 80.4212C88.5262 78.9834 89.334 77.0334 89.334 75.0001V51.6667C89.334 49.6334 88.5262 47.6834 87.0885 46.2456C85.6507 44.8078 83.7006 44.0001 81.6673 44.0001H73.334C73.1634 43.982 73.0041 43.9059 72.8828 43.7846C72.7615 43.6633 72.6854 43.504 72.6673 43.3334V41.6667C72.6854 41.4961 72.7615 41.3369 72.8828 41.2156C73.0041 41.0942 73.1634 41.0182 73.334 41.0001Z" fill="white"/>
</svg>
