<?xml version="1.0" encoding="UTF-8"?>
<svg width="110px" height="12px" viewBox="0 0 110 12" version="1.1" xmlns="http://www.w3.org/2000/svg" xmlns:xlink="http://www.w3.org/1999/xlink">
    <!-- Generator: sketchtool 49.3 (51167) - http://www.bohemiancoding.com/sketch -->
    <title>B2617210-6B54-4916-83E0-394084B8980B@1x</title>
    <desc>Created with sketchtool.</desc>
    <defs>
        <path d="M0,0 L0,27 C0,29.7614237 2.23474968,32 4.99552216,32 L539.004478,32 C541.763429,32 544,29.7625407 544,27 L544,0 L0,0 Z" id="path-1"></path>
        <filter x="-0.1%" y="-4.7%" width="100.2%" height="106.2%" filterUnits="objectBoundingBox" id="filter-2">
            <feOffset dx="0" dy="-1" in="SourceAlpha" result="shadowOffsetOuter1"></feOffset>
            <feComposite in="shadowOffsetOuter1" in2="SourceAlpha" operator="out" result="shadowOffsetOuter1"></feComposite>
            <feColorMatrix values="0 0 0 0 0   0 0 0 0 0   0 0 0 0 0  0 0 0 0.08 0" type="matrix" in="shadowOffsetOuter1"></feColorMatrix>
        </filter>
    </defs>
    <g id="Giphy-Integration" stroke="none" stroke-width="1" fill="none" fill-rule="evenodd">
        <g id="Giphy-2.0" transform="translate(-611.000000, -596.000000)">
            <g id="Dialog" transform="translate(394.000000, 226.000000)">
                <g id="content">
                    <g id="logo" transform="translate(0.000000, 360.000000)">
                        <g id="bg-blur">
                            <use fill="black" fill-opacity="1" filter="url(#filter-2)" xlink:href="#path-1"></use>
                            <use fill-opacity="0.92" fill="#FFFFFF" fill-rule="evenodd" xlink:href="#path-1"></use>
                        </g>
                        <g id="giphy_logo" transform="translate(217.000000, 10.000000)" fill="#000000" fill-rule="nonzero">
                            <g id="Group" opacity="0.25" transform="translate(0.000000, 3.000000)">
                                <path d="M0.897959184,3.975 L0.897959184,5.625 L0,5.625 L0,0.225 C0.823129252,0.225 1.72108844,0.225 2.54421769,0.225 C5.16326531,0.225 5.16326531,3.975 2.54421769,3.975 L0.897959184,3.975 Z M0.897959184,3.225 L2.54421769,3.225 C3.96598639,3.225 3.96598639,1.05 2.54421769,1.05 L0.897959184,1.05 L0.897959184,3.225 Z" id="Shape"></path>
                                <path d="M10.6258503,3 C10.6258503,4.5 9.72789116,5.85 7.85714286,5.85 C5.98639456,5.85 5.01360544,4.425 5.01360544,3 C5.01360544,1.35 6.13605442,0.15 7.78231293,0.15 C9.65306122,0.15 10.6258503,1.5 10.6258503,3 Z M7.78231293,4.95 C9.1292517,4.95 9.72789116,3.975 9.72789116,2.925 C9.72789116,1.95 9.1292517,0.9 7.85714286,0.825 C6.58503401,0.9 5.91156463,1.8 5.91156463,3 C5.91156463,3.975 6.43537415,4.95 7.78231293,4.95 Z" id="Shape"></path>
                                <polygon id="Shape" points="17.0612245 5.7 16.3129252 5.7 15.5646259 3.75 14.9659864 1.95 14.3673469 3.75 13.6190476 5.7 12.8707483 5.7 10.9251701 0.225 11.8979592 0.225 13.244898 4.425 14.6666667 0.225 15.1904762 0.225 16.6122449 4.425 17.9591837 0.225 18.9319728 0.225"></polygon>
                                <path d="M23.8707483,5.7 L19.829932,5.7 C19.829932,3.9 19.829932,2.1 19.829932,0.225 L23.7959184,0.225 L23.7959184,1.05 L20.6530612,1.05 L20.6530612,2.55 L23.6462585,2.55 L23.6462585,3.375 L20.6530612,3.375 L20.6530612,4.875 L23.7959184,4.875 L23.7959184,5.7 L23.8707483,5.7 Z" id="Shape"></path>
                                <path d="M29.6326531,5.7 L28.585034,5.7 L27.0136054,3.75 L25.8911565,3.75 L25.8911565,5.625 L24.9931973,5.625 L24.9931973,0.225 C25.8163265,0.225 26.7142857,0.225 27.537415,0.225 C28.8095238,0.225 29.4829932,1.125 29.4829932,2.025 C29.4829932,2.775 29.1088435,3.6 27.9863946,3.75 L29.6326531,5.55 L29.6326531,5.7 Z M25.8163265,1.05 L25.8163265,3 L27.462585,3 C28.2108844,3 28.5102041,2.55 28.5102041,2.025 C28.5102041,1.5 28.2108844,1.05 27.462585,1.05 L25.8163265,1.05 Z" id="Shape"></path>
                                <path d="M34.5714286,5.7 L30.5306122,5.7 C30.5306122,3.9 30.5306122,2.1 30.5306122,0.225 L34.4965986,0.225 L34.4965986,1.05 L31.4285714,1.05 L31.4285714,2.55 L34.4217687,2.55 L34.4217687,3.375 L31.4285714,3.375 L31.4285714,4.875 L34.5714286,4.875 L34.5714286,5.7 Z" id="Shape"></path>
                                <path d="M37.7891156,0.225 C39.6598639,0.225 40.4829932,1.575 40.4829932,2.925 C40.4829932,4.275 39.6598639,5.7 37.7891156,5.7 C37.1156463,5.7 36.3673469,5.7 35.6938776,5.7 L35.6938776,0.225 L37.7891156,0.225 Z M36.5918367,4.8 L37.7891156,4.8 C39.1360544,4.8 39.6598639,3.825 39.6598639,2.85 C39.6598639,1.95 39.0612245,1.05 37.7891156,1.05 L36.5918367,1.05 L36.5918367,4.8 Z" id="Shape"></path>
                                <path d="M45.9455782,0.225 C46.9931973,0.225 47.8163265,0.675 47.8163265,1.8 C47.8163265,2.25 47.5918367,2.7 47.0680272,2.85 C47.7414966,3.075 47.9659864,3.675 47.9659864,4.125 C47.9659864,5.325 46.9931973,5.7 45.9455782,5.7 C45.122449,5.7 44.2993197,5.7 43.4761905,5.7 L43.4761905,0.225 L45.9455782,0.225 Z M44.2993197,2.475 L45.9455782,2.475 C46.6190476,2.475 46.9183673,2.25 46.9183673,1.8 C46.9183673,1.425 46.6190476,1.05 45.9455782,1.05 L44.2993197,1.05 L44.2993197,2.475 Z M44.2993197,4.875 L45.9455782,4.875 C46.3945578,4.875 47.0680272,4.725 47.0680272,4.125 C47.0680272,3.525 46.3945578,3.3 45.9455782,3.3 C45.4217687,3.3 44.8231293,3.3 44.2993197,3.3 L44.2993197,4.875 Z" id="Shape"></path>
                                <polygon id="Shape" points="50.7346939 2.625 52.3061224 0.225 53.3537415 0.225 53.3537415 0.3 51.1836735 3.45 51.1836735 5.7 50.2857143 5.7 50.2857143 3.45 48.1904762 0.3 48.1904762 0.225 49.2380952 0.225"></polygon>
                            </g>
                            <g id="Group" opacity="0.5" transform="translate(56.122449, 0.000000)">
                                <g id="Shape">
                                    <path d="M9.27891156,3.675 C8.45578231,2.925 7.4829932,2.7 6.65986395,2.7 C4.78911565,2.7 3.59183673,3.825 3.59183673,6 C3.59183673,7.425 4.34013605,9.3 6.65986395,9.3 C7.2585034,9.3 8.23129252,9.15 8.82993197,8.7 L8.82993197,7.275 L5.98639456,7.275 L5.98639456,4.725 L11.5238095,4.725 L11.5238095,9.75 C10.7755102,11.175 8.82993197,12 6.65986395,12 C2.17006803,12 0.448979592,9 0.448979592,6 C0.448979592,3 2.39455782,0 6.65986395,0 C8.23129252,0 9.65306122,0.3 11.1496599,1.8 L9.27891156,3.675 Z"></path>
                                    <polygon points="13.3197279 11.7 13.3197279 0.3 16.537415 0.3 16.537415 11.7"></polygon>
                                    <path d="M22.0748299,8.625 L22.0748299,11.7 L18.8571429,11.7 L18.8571429,0.3 L24.3945578,0.3 C27.462585,0.3 28.9591837,2.25 28.9591837,4.425 C28.9591837,6.75 27.462585,8.55 24.3945578,8.55 L22.0748299,8.55 L22.0748299,8.625 Z M22.0748299,5.925 L24.3945578,5.925 C25.292517,5.925 25.7414966,5.25 25.7414966,4.5 C25.7414966,3.75 25.292517,3.075 24.3945578,3.075 L22.0748299,3.075 L22.0748299,5.925 Z"></path>
                                    <polygon points="37.6394558 11.7 37.6394558 7.425 33.5238095 7.425 33.5238095 11.7 30.3061224 11.7 30.3061224 0.375 33.5238095 0.375 33.5238095 4.725 37.6394558 4.725 37.6394558 0.375 40.7823129 0.375 40.7823129 11.775 37.6394558 11.775"></polygon>
                                    <polygon points="47.8163265 4.2 50.2857143 0.3 53.877551 0.3 53.877551 0.45 49.3877551 7.125 49.3877551 11.625 46.170068 11.625 46.170068 7.125 41.829932 0.45 41.829932 0.3 45.4217687 0.3"></polygon>
                                </g>
                            </g>
                        </g>
                    </g>
                </g>
            </g>
        </g>
    </g>
</svg>