<svg width="73" height="81" viewBox="0 0 73 81" fill="none" xmlns="http://www.w3.org/2000/svg">
<path d="M63.5778 4.30012C56.7069 -0.280359 50.0064 -1.167 44.2008 1.73503C33.5713 7.04997 32.8653 21.9975 35.7494 34.2139C37.6704 42.3523 41.5575 50.7979 46.4574 56.219L44.4197 58.2572C43.5963 59.0785 42.5481 59.6376 41.4074 59.864C40.2667 60.0905 39.0844 59.9741 38.0098 59.5296C33.9707 57.8737 30.3266 55.384 27.3156 52.2234C24.3046 49.0627 21.9944 45.3022 20.5362 41.1877C20.1694 40.1408 20.1047 39.0117 20.3496 37.9297C20.5945 36.8477 21.139 35.8565 21.9209 35.0695L25.4955 31.4945C26.4163 30.5738 27.1468 29.4807 27.6451 28.2777C28.1435 27.0746 28.4 25.7852 28.4 24.483C28.4 23.1808 28.1435 21.8914 27.6451 20.6884C27.1468 19.4853 26.4163 18.3922 25.4955 17.4715L19.2203 11.1963C17.3591 9.33972 14.8375 8.29711 12.2086 8.29711C9.57969 8.29711 7.05811 9.33972 5.19686 11.1963L3.14936 13.2438C2.22468 14.1702 1.4917 15.2698 0.992346 16.4797C0.492989 17.6896 0.237051 18.9861 0.239171 20.295C0.160574 35.9731 6.24301 51.0548 17.1764 62.2918C28.1098 73.5288 43.0194 80.0219 58.6938 80.3727C58.7629 80.3743 58.8321 80.3751 58.9013 80.3751C61.4968 80.3542 63.9791 79.3089 65.8076 77.4666L68.6372 74.6362C69.558 73.7155 70.2885 72.6224 70.7868 71.4193C71.2851 70.2163 71.5416 68.9268 71.5416 67.6247C71.5416 66.3225 71.2851 65.0331 70.7868 63.83C70.2885 62.627 69.558 61.5339 68.6372 60.6132C68.4417 60.4184 68.177 60.3092 67.9011 60.3095C67.6252 60.3097 67.3607 60.4194 67.1656 60.6145C66.9705 60.8096 66.8608 61.0742 66.8605 61.35C66.8603 61.6259 66.9695 61.8907 67.1642 62.0861C68.6331 63.5551 69.4583 65.5473 69.4583 67.6247C69.4583 69.702 68.6331 71.6943 67.1642 73.1632L64.3346 75.9936C63.6042 76.7324 62.7325 77.3164 61.7715 77.7108C60.8104 78.1053 59.7797 78.302 58.7409 78.2893C43.6124 77.9514 29.2218 71.6846 18.6692 60.8389C8.11648 49.9932 2.2461 35.4365 2.3225 20.3043C2.31998 19.2675 2.52179 18.2404 2.91641 17.2817C3.31102 16.323 3.8907 15.4514 4.62232 14.7168L6.66982 12.6693C8.14 11.2026 10.1319 10.3789 12.2086 10.3789C14.2852 10.3789 16.2771 11.2026 17.7473 12.6693L24.0225 18.9445C25.4914 20.4134 26.3167 22.4057 26.3167 24.483C26.3167 26.5604 25.4914 28.5527 24.0225 30.0216L20.4479 33.5966C19.389 34.6622 18.6514 36.0045 18.3196 37.4697C17.9878 38.9349 18.0751 40.464 18.5717 41.8819C20.1281 46.2733 22.5937 50.2869 25.8073 53.6603C29.021 57.0336 32.9104 59.6909 37.2212 61.4583C38.6757 62.0588 40.2754 62.2152 41.8187 61.9076C43.3619 61.6001 44.7795 60.8424 45.8927 59.7302L47.9129 57.7099C50.7649 60.4024 53.905 62.0418 57.1667 62.0418C58.3885 62.0734 59.5929 61.7471 60.6316 61.1029C61.6703 60.4587 62.4979 59.5249 63.0126 58.4163C63.3666 57.6129 63.466 56.7203 63.2974 55.8587C63.1289 54.9971 62.7005 54.2078 62.0698 53.597C59.1471 50.6738 52.2363 50.441 48.339 54.3379L47.924 54.753C43.3956 49.6907 39.6407 41.6296 37.7771 33.7353C35.0761 22.2945 35.5904 8.36948 45.1326 3.59859C57.5492 -2.61154 70.3914 13.1583 70.5203 13.3178C70.6933 13.5324 70.9443 13.6696 71.2183 13.6995C71.4922 13.7294 71.7669 13.6495 71.9821 13.4773C72.1972 13.3051 72.3354 13.0546 72.3662 12.7808C72.3971 12.5069 72.3182 12.2319 72.1467 12.0162C69.6625 9.05877 66.7785 6.46181 63.5778 4.30012ZM49.812 55.811C52.9927 52.6298 58.6132 53.0868 60.5969 55.07C60.9346 55.3905 61.1635 55.8086 61.2515 56.2658C61.3396 56.7229 61.2824 57.1962 61.088 57.6192C60.7342 58.3495 60.1744 58.9601 59.4775 59.3758C58.7807 59.7915 57.9773 59.9941 57.1667 59.9585C54.4966 59.9585 51.8456 58.5664 49.3766 56.2463L49.812 55.811Z" fill="url(#paint0_linear)"/>
<defs>
<linearGradient id="paint0_linear" x1="36.3056" y1="0.0625" x2="36.3056" y2="80.3751" gradientUnits="userSpaceOnUse">
<stop stop-color="#F0677E"/>
<stop offset="1" stop-color="#DB1F2E"/>
</linearGradient>
</defs>
</svg>
