<svg width="377" height="377" viewBox="0 0 377 377" fill="black" xmlns="http://www.w3.org/2000/svg">
<path fill-rule="evenodd" clip-rule="evenodd" d="M0 45.5V91H45.5H91V45.5V0H45.5H0V45.5ZM130 13V26H136.5H143V13V0H136.5H130V13ZM156 6.5V13H162.5H169V19.5V26H162.5H156V39V52H162.5H169V45.5V39H175.5H182V45.5V52H188.5H195V58.5V65H208H221V58.5V52H227.5H234V45.5V39H227.5H221V45.5V52H214.5H208V39V26H214.5H221V19.5V13H214.5H208V6.5V0H182H156V6.5ZM234 13V26H240.5H247V45.5V65H240.5H234V84.5V104H227.5H221V91V78H214.5H208V91V104H214.5H221V110.5V117H227.5H234V110.5V104H240.5H247V117V130H240.5H234V143V156H227.5H221V149.5V143H214.5H208V130V117H182H156V104V91H162.5H169V78V65H156H143V71.5V78H136.5H130V65V52H136.5H143V45.5V39H123.5H104V45.5V52H110.5H117V58.5V65H110.5H104V78V91H110.5H117V97.5V104H97.5H78V110.5V117H84.5H91V123.5V130H78H65V136.5V143H84.5H104V130V117H117H130V130V143H136.5H143V130V117H149.5H156V123.5V130H162.5H169V136.5V143H162.5H156V156V169H162.5H169V162.5V156H175.5H182V162.5V169H195H208V175.5V182H201.5H195V188.5V195H188.5H182V201.5V208H188.5H195V214.5V221H175.5H156V208V195H162.5H169V188.5V182H156H143V188.5V195H136.5H130V201.5V208H117H104V201.5V195H110.5H117V182V169H130H143V162.5V156H110.5H78V162.5V169H71.5H65V162.5V156H58.5H52V149.5V143H45.5H39V149.5V156H26H13V149.5V143H6.5H0V169V195H6.5H13V208V221H6.5H0V247V273H6.5H13V247V221H39H65V227.5V234H52H39V240.5V247H32.5H26V260V273H32.5H39V260V247H45.5H52V253.5V260H58.5H65V266.5V273H78H91V266.5V260H78H65V253.5V247H78H91V240.5V234H84.5H78V227.5V221H84.5H91V214.5V208H97.5H104V214.5V221H110.5H117V234V247H110.5H104V253.5V260H110.5H117V266.5V273H110.5H104V286V299H110.5H117V305.5V312H110.5H104V344.5V377H117H130V364V351H123.5H117V344.5V338H123.5H130V331.5V325H123.5H117V318.5V312H123.5H130V305.5V299H123.5H117V292.5V286H130H143V305.5V325H149.5H156V331.5V338H162.5H169V344.5V351H162.5H156V364V377H162.5H169V370.5V364H175.5H182V370.5V377H188.5H195V370.5V364H201.5H208V357.5V351H214.5H221V338V325H227.5H234V331.5V338H240.5H247V331.5V325H240.5H234V318.5V312H214.5H195V305.5V299H201.5H208V292.5V286H214.5H221V279.5V273H227.5H234V279.5V286H240.5H247V292.5V299H253.5H260V312V325H279.5H299V331.5V338H279.5H260V344.5V351H247H234V357.5V364H227.5H221V370.5V377H227.5H234V370.5V364H240.5H247V370.5V377H253.5H260V370.5V364H266.5H273V357.5V351H286H299V364V377H325H351V370.5V364H357.5H364V351V338H370.5H377V331.5V325H370.5H364V318.5V312H370.5H377V305.5V299H364H351V292.5V286H364H377V273V260H370.5H364V253.5V247H357.5H351V227.5V208H357.5H364V201.5V195H357.5H351V188.5V182H338H325V175.5V169H338H351V162.5V156H357.5H364V149.5V143H357.5H351V149.5V156H344.5H338V149.5V143H331.5H325V156V169H318.5H312V175.5V182H305.5H299V175.5V169H279.5H260V162.5V156H266.5H273V136.5V117H279.5H286V123.5V130H305.5H325V123.5V117H331.5H338V110.5V104H331.5H325V110.5V117H318.5H312V110.5V104H305.5H299V110.5V117H292.5H286V110.5V104H279.5H273V84.5V65H266.5H260V52V39H266.5H273V19.5V0H253.5H234V13ZM286 45.5V91H331.5H377V45.5V0H331.5H286V45.5ZM78 45.5V78H45.5H13V45.5V13H45.5H78V45.5ZM104 19.5V26H110.5H117V19.5V13H110.5H104V19.5ZM260 19.5V26H253.5H247V19.5V13H253.5H260V19.5ZM364 45.5V78H331.5H299V45.5V13H331.5H364V45.5ZM26 45.5V65H45.5H65V45.5V26H45.5H26V45.5ZM195 32.5V39H188.5H182V32.5V26H188.5H195V32.5ZM312 45.5V65H331.5H351V45.5V26H331.5H312V45.5ZM260 84.5V104H266.5H273V110.5V117H266.5H260V110.5V104H253.5H247V84.5V65H253.5H260V84.5ZM130 84.5V91H123.5H117V84.5V78H123.5H130V84.5ZM156 84.5V91H149.5H143V84.5V78H149.5H156V84.5ZM182 91V104H188.5H195V91V78H188.5H182V91ZM0 110.5V117H19.5H39V123.5V130H45.5H52V123.5V117H58.5H65V110.5V104H32.5H0V110.5ZM143 110.5V117H136.5H130V110.5V104H136.5H143V110.5ZM351 110.5V117H357.5H364V123.5V130H370.5H377V123.5V117H370.5H364V110.5V104H357.5H351V110.5ZM260 136.5V143H253.5H247V136.5V130H253.5H260V136.5ZM195 149.5V156H188.5H182V149.5V143H188.5H195V149.5ZM286 149.5V156H299H312V149.5V143H299H286V149.5ZM52 162.5V169H58.5H65V175.5V182H58.5H52V188.5V195H71.5H91V188.5V182H84.5H78V175.5V169H84.5H91V175.5V182H97.5H104V188.5V195H97.5H91V201.5V208H71.5H52V201.5V195H45.5H39V201.5V208H32.5H26V195V182H19.5H13V175.5V169H19.5H26V175.5V182H39H52V175.5V169H45.5H39V162.5V156H45.5H52V162.5ZM364 175.5V182H370.5H377V175.5V169H370.5H364V175.5ZM260 188.5V195H266.5H273V188.5V182H286H299V201.5V221H273H247V227.5V234H260H273V240.5V247H260H247V240.5V234H234H221V227.5V221H214.5H208V227.5V234H201.5H195V227.5V221H201.5H208V214.5V208H201.5H195V201.5V195H208H221V188.5V182H240.5H260V188.5ZM325 188.5V195H338H351V201.5V208H338H325V214.5V221H331.5H338V234V247H344.5H351V253.5V260H344.5H338V266.5V273H331.5H325V260V247H318.5H312V240.5V234H318.5H325V227.5V221H318.5H312V214.5V208H318.5H325V201.5V195H318.5H312V188.5V182H318.5H325V188.5ZM247 201.5V208H253.5H260V201.5V195H253.5H247V201.5ZM143 214.5V221H149.5H156V227.5V234H162.5H169V240.5V247H162.5H156V260V273H162.5H169V266.5V260H175.5H182V253.5V247H188.5H195V253.5V260H188.5H182V266.5V273H195H208V266.5V260H214.5H221V253.5V247H227.5H234V253.5V260H240.5H247V266.5V273H253.5H260V279.5V286H253.5H247V279.5V273H240.5H234V266.5V260H227.5H221V266.5V273H214.5H208V279.5V286H201.5H195V292.5V299H188.5H182V305.5V312H188.5H195V318.5V325H201.5H208V331.5V338H201.5H195V331.5V325H175.5H156V312V299H162.5H169V292.5V286H156H143V253.5V221H136.5H130V214.5V208H136.5H143V214.5ZM221 214.5V221H227.5H234V214.5V208H227.5H221V214.5ZM364 227.5V234H370.5H377V227.5V221H370.5H364V227.5ZM299 240.5V247H292.5H286V240.5V234H292.5H299V240.5ZM312 292.5V312H292.5H273V292.5V273H292.5H312V292.5ZM0 331.5V377H45.5H91V331.5V286H45.5H0V331.5ZM286 292.5V299H292.5H299V292.5V286H292.5H286V292.5ZM78 331.5V364H45.5H13V331.5V299H45.5H78V331.5ZM351 305.5V312H344.5H338V318.5V325H331.5H325V331.5V338H318.5H312V331.5V325H318.5H325V312V299H338H351V305.5ZM26 331.5V351H45.5H65V331.5V312H45.5H26V331.5ZM195 357.5V364H188.5H182V357.5V351H188.5H195V357.5ZM325 357.5V364H318.5H312V357.5V351H318.5H325V357.5ZM351 357.5V364H344.5H338V357.5V351H344.5H351V357.5Z"/>
</svg>
