<svg width="32" height="32" viewBox="0 0 32 32"  xmlns="http://www.w3.org/2000/svg">
<path d="M29.0584 27.4045C28.9798 27.3464 28.8899 27.2888 28.7913 27.2263C28.3651 26.9845 28.0291 26.6107 27.8338 26.1613C28.3974 25.2352 28.7669 24.2042 28.9198 23.1309C29.0728 22.0576 29.006 20.9644 28.7236 19.9177C28.4412 18.8711 27.949 17.8927 27.2769 17.042C26.6047 16.1914 25.7668 15.4862 24.8138 14.9693C25.1337 13.2077 25.0186 11.3946 24.4785 9.68762C23.9384 7.98062 22.9896 6.43134 21.7145 5.1744C20.4395 3.91747 18.8768 2.99091 17.1623 2.47524C15.4477 1.95957 13.6332 1.8704 11.8763 2.21547C10.1195 2.56053 8.47347 3.3294 7.08134 4.45526C5.68921 5.58111 4.59307 7.0299 3.88817 8.67572C3.18327 10.3215 2.89095 12.1146 3.03659 13.8991C3.18224 15.6836 3.76145 17.4055 4.7239 18.9152C4.41905 19.7215 3.84477 20.3976 3.0984 20.8288C2.9666 20.9118 2.8469 20.988 2.7415 21.0656C2.54273 21.21 2.38559 21.4042 2.28596 21.6288C2.18633 21.8533 2.14774 22.1002 2.1741 22.3444C2.20045 22.591 2.29053 22.8264 2.43548 23.0276C2.58043 23.2288 2.77526 23.3888 3.0008 23.4919C4.03264 23.8987 5.14372 24.0645 6.24937 23.9768C7.35502 23.889 8.42604 23.55 9.3808 22.9856C10.6015 23.543 11.9136 23.8731 13.2528 23.9595C13.5368 25.0863 14.063 26.1377 14.7948 27.0403C15.5267 27.943 16.4465 28.6753 17.4902 29.1862C18.5339 29.6971 19.6765 29.9743 20.8383 29.9985C22.0001 30.0227 23.1532 29.7934 24.2173 29.3264C24.9163 29.7108 25.6915 29.9362 26.4877 29.9866C27.2838 30.037 28.0813 29.9111 28.8232 29.6179C29.0285 29.5255 29.206 29.381 29.3381 29.1987C29.4702 29.0163 29.5522 28.8026 29.576 28.5788C29.5998 28.3549 29.5646 28.1287 29.4738 27.9227C29.383 27.7167 29.2399 27.538 29.0586 27.4045H29.0584ZM9.7835 20.9533C9.61962 20.8664 9.4348 20.8267 9.24968 20.8387C9.06456 20.8507 8.88641 20.9139 8.7351 21.0212C7.63769 21.7919 6.29169 22.1242 4.9617 21.9528C5.80585 21.1943 6.43565 20.227 6.7879 19.1482C6.8453 18.995 6.86418 18.8301 6.84289 18.668C6.8216 18.5058 6.76079 18.3514 6.6658 18.2182C5.3893 16.4221 4.81692 14.2197 5.05737 12.0293C5.29781 9.83896 6.33434 7.81318 7.97008 6.33675C9.60582 4.86031 11.7268 4.03606 13.9303 4.02052C16.1338 4.00499 18.2662 4.79927 19.9226 6.2525C21.579 7.70573 22.644 9.71669 22.9153 11.9034C23.1866 14.0902 22.6453 16.3004 21.3943 18.1144C20.1432 19.9283 18.2695 21.2196 16.129 21.743C13.9886 22.2664 11.7304 21.9855 9.7835 20.9535V20.9533ZM25.8894 25.4777C25.7945 25.611 25.7337 25.7656 25.7124 25.9279C25.6911 26.0901 25.71 26.2551 25.7674 26.4084C25.9676 26.9814 26.2621 27.517 26.6389 27.9929C25.9987 27.9577 25.3815 27.7418 24.8589 27.3703C24.7078 27.2628 24.5297 27.1995 24.3446 27.1875C24.1596 27.1756 23.9748 27.2154 23.8111 27.3025C23.0423 27.7097 22.1942 27.9448 21.3255 27.9916C20.4568 28.0383 19.5883 27.8955 18.7803 27.5731C17.9723 27.2507 17.2441 26.7564 16.6462 26.1244C16.0483 25.4925 15.595 24.7381 15.3178 23.9135C17.2959 23.6713 19.1713 22.897 20.7441 21.673C22.3169 20.4491 23.5282 18.8215 24.249 16.9635C24.9307 17.402 25.5164 17.9742 25.9706 18.6456C26.4248 19.317 26.738 20.0736 26.8913 20.8695C27.0446 21.6655 27.0349 22.4843 26.8626 23.2763C26.6903 24.0684 26.3591 24.8173 25.889 25.4776L25.8894 25.4777Z" />
</svg>
