<svg xmlns="http://www.w3.org/2000/svg" xmlns:xlink="http://www.w3.org/1999/xlink" viewBox="0 0 157.38 157.57"><defs><style>.cls-1,.cls-2,.cls-7,.cls-8{fill-rule:evenodd;}.cls-1{fill:url(#linear-gradient);}.cls-2{fill:#31221c;}.cls-3{fill:url(#linear-gradient-3);}.cls-4{fill:#ff9d51;}.cls-5{fill:#21c3f2;}.cls-6{fill:#ea272e;}.cls-7,.cls-8,.cls-9{fill:none;stroke-linecap:round;stroke-linejoin:round;stroke-width:5px;}.cls-7{stroke:#21c3f2;}.cls-8{stroke:#f95a48;}.cls-9{stroke:#ff9d51;}</style><linearGradient id="linear-gradient" y1="112.46" x2="91.06" y2="112.46" gradientUnits="userSpaceOnUse"><stop offset="0" stop-color="#fd3"/><stop offset="0.22" stop-color="#ffd636"/><stop offset="0.53" stop-color="#ffc33d"/><stop offset="0.9" stop-color="#ffa449"/><stop offset="1" stop-color="#ff9a4d"/></linearGradient><linearGradient id="linear-gradient-3" x1="39.14" y1="59.15" x2="82.97" y2="135.07" gradientUnits="userSpaceOnUse"><stop offset="0" stop-color="#ffd136"/><stop offset="1" stop-color="#ffa847"/></linearGradient></defs><title>celebrate_1</title><g id="Layer_2" data-name="Layer 2"><g id="Layer_1-2" data-name="Layer 1"><path class="cls-1" d="M27.78,67.34.4,147.61A7.53,7.53,0,0,0,10,157.17l81.11-26.86Z"/><path class="cls-1" d="M27.78,67.34.4,147.61A7.53,7.53,0,0,0,10,157.17l81.11-26.86Z"/><path class="cls-2" d="M50.4,107.76C68.05,125.41,87.13,135,93,129.07s-3.65-25-21.3-42.61S35,59.27,29.1,65.16,32.75,90.11,50.4,107.76Z"/><path class="cls-3" d="M34.1,66.42c6.42,0,20.26,6.93,35.49,22.16C87.8,106.79,94.37,123.47,90.89,127a4,4,0,0,1-2.88.86c-6.42,0-20.26-6.94-35.49-22.17-8.31-8.31-15-17.17-18.91-24.93s-3.72-12.1-2.39-13.43a4,4,0,0,1,2.88-.86m0-3a6.8,6.8,0,0,0-5,1.74c-5.88,5.88,3.65,25,21.3,42.6,14.12,14.12,29.14,23,37.61,23a6.8,6.8,0,0,0,5-1.74c5.88-5.89-3.65-25-21.3-42.61-14.12-14.11-29.15-23-37.61-23Z"/><circle class="cls-4" cx="145.58" cy="60.42" r="7.73"/><circle class="cls-5" cx="96.28" cy="6.23" r="6.23"/><circle class="cls-6" cx="35.35" cy="43.08" r="5"/><circle class="cls-5" cx="49.86" cy="83.27" r="5"/><circle class="cls-4" cx="46.78" cy="7.62" r="3.62"/><circle class="cls-4" cx="63.9" cy="107.71" r="3.62"/><circle class="cls-6" cx="119.2" cy="129.69" r="4.23"/><circle class="cls-5" cx="117.12" cy="62.12" r="6.22"/><circle class="cls-6" cx="83.26" cy="99.71" r="6.22"/><circle class="cls-6" cx="95.13" cy="27.77" r="3.73"/><path class="cls-7" d="M59.94,68.63s12-22-3.91-21.76c-12.88.22.28,20.65,14.4,1.78,9-12-9.36-25-13-16.29s18.24,14.11,19.25-2.52c.84-13.67-12.83-16.74-15.9-14.51"/><path class="cls-8" d="M98.1,101.82s18.73,5.06,19-8.16c.18-10.79-22.48,6.47-1.59,14.88,22.18,8.93,26-17.91,15.63-18.14-7.61-.16-6.16,17.83,4.19,18.42,8.57.49,11.42-5.58,13.48-16.12,0,0,1.36-11.25,6.11-13.16"/><path class="cls-9" d="M76.77,78.12c3.94-7.6,18.15-.25,22.08-7.85s-10.27-15-6.33-22.56,18.14-.24,22.08-7.84"/></g></g></svg>