<?xml version="1.0" encoding="utf-8"?>
<!-- Generator: Adobe Illustrator 25.0.1, SVG Export Plug-In . SVG Version: 6.00 Build 0)  -->
<svg version="1.1" xmlns="http://www.w3.org/2000/svg" xmlns:xlink="http://www.w3.org/1999/xlink" x="0px" y="0px"
	 viewBox="0 0 155 155" style="enable-background:new 0 0 155 155;" xml:space="preserve">
<style type="text/css">
	.st0{fill:url(#SVGID_1_);}
	.st1{fill:#D68004;}
	.st2{fill:url(#SVGID_2_);}
</style>
<g id="shadow">
	<linearGradient id="SVGID_1_" gradientUnits="userSpaceOnUse" x1="35.3118" y1="39.5675" x2="-41.3118" y2="-37.0561">
		<stop  offset="0" style="stop-color:#FF9A4D"/>
		<stop  offset="0.1103" style="stop-color:#FFAD46"/>
		<stop  offset="0.2782" style="stop-color:#FFC23D"/>
		<stop  offset="0.4643" style="stop-color:#FFD138"/>
		<stop  offset="0.6807" style="stop-color:#FFDA34"/>
		<stop  offset="0.9995" style="stop-color:#FFDD33"/>
	</linearGradient>
	<path class="st0" d="M124.5913,73.4096l0.0029-0.001l-19.9861-32.9062c-2.5886-4.4053-8.3811-5.7613-12.679-2.847
		c-3.9221,2.6594-4.9092,8.0384-2.5088,12.124l1.969,3.351l0,0l0.6086,1.0355l8.6509,14.7227
		c0.8069,1.3734-1.0386,2.7499-2.125,1.5847L88.4463,59.6625l0.0002-0.0001l-41.8967-44.944
		c-2.9749-3.191-7.7429-3.698-11.2913-1.4285c0.0015-0.0018,0.0027-0.0038,0.0039-0.0057c-0.052,0.0338-0.1018,0.0731-0.1536,0.1078
		c-0.1685,0.1126-0.3367,0.225-0.499,0.3504c-0.2178,0.1665-0.4302,0.3438-0.6348,0.5347l0,0
		c-0.2249,0.2096-0.4365,0.428-0.6348,0.6544c-2.5999,2.9523-2.98,7.2103-1.0781,10.556l-3.4185-3.667
		c-5.0272-5.3929-11.2449-2.0429-12.5745-0.7133c-3.575,3.575-3.9014,9.2402-0.4541,12.9382l3.9158,4.2005
		c-3.3931-2.8587-8.4609-2.8034-11.7878,0.298c-0.0032,0.0031-0.0061,0.0065-0.0093,0.0096
		c-0.0037,0.0035-0.0078,0.0063-0.0117,0.0098c-3.6982,3.4474-3.9014,9.2401-0.4541,12.9382l16.1411,17.3149
		c-3.2195-1.5851-7.2148-1.126-9.9956,1.4661l0,0c-2.9312,2.7325-3.6013,6.9802-1.9324,10.4041
		c0.4004,0.888,0.9424,1.7292,1.6436,2.4813l43.0598,46.1917l0.0046-0.0042c0.0549,0.0596,0.1052,0.1219,0.1606,0.1813
		c15.8064,16.9561,42.3657,17.8879,59.3218,2.0815c0.3833-0.3574,0.7468-0.7278,1.1138-1.0959
		c-0.9548,0.8224-1.9407,1.587-2.9468,2.309c1.1768-0.8943,2.3237-1.8547,3.4329-2.8887
		C133.4467,115.0505,135.9887,91.1579,124.5913,73.4096z"/>
	<g>
		<path class="st1" d="M49.6832,94.3991c0.9768-0.8962,1.0422-2.4154,0.1459-3.3924L20.1329,58.6389l-0.0166,0.0152l-9.4212-10.227
			c-2.7755-3.0129-3.0678-7.4217-0.9971-10.7355c-0.7057,0.3605-1.3774,0.8128-1.9886,1.3759
			c-3.6139,3.3292-3.8448,8.9582-0.5154,12.5719l9.4212,10.227l-0.0209,0.0191l29.6961,32.3678
			C47.1868,95.2303,48.706,95.2957,49.6832,94.3991z"/>
		<path class="st1" d="M33.3687,27.5267l9.4212,10.227l-0.0209,0.0191l29.6962,32.3678c0.8964,0.977,2.4155,1.0424,3.3927,0.1459
			c0.9768-0.8962,1.0422-2.4154,0.1459-3.3924L46.3077,34.5262l-0.0166,0.0152l-9.4212-10.227
			c-2.7755-3.0129-3.0678-7.4217-0.9971-10.7355c-0.7057,0.3605-1.3774,0.8128-1.9886,1.3759
			C30.2703,18.284,30.0394,23.913,33.3687,27.5267z"/>
		<path class="st1" d="M62.8111,82.4062c0.8844-0.8114,1.2318-2.2073,0.1577-3.3781L28.5602,41.5238l-0.0166,0.0152l-9.4212-10.227
			c-2.7755-3.0129-3.0678-7.4217-0.9971-10.7355c-0.7057,0.3605-1.3774,0.8128-1.9886,1.3759
			c-3.6139,3.3292-3.8448,8.9582-0.5154,12.5719l9.4212,10.227l-0.0209,0.0191l34.4086,37.5043
			C60.5037,83.4447,61.926,83.2182,62.8111,82.4062z"/>
		<path class="st1" d="M91.6992,38.6751c-3.9376,2.6361-4.9566,8.0092-2.5803,12.1089l1.9492,3.3625l0.0002,0.0002l0.602,1.039
			l1.9841,3.4229l6.5798,11.3508c0.799,1.3779-1.0548,2.7433-2.1341,1.572l2.0005,2.1826c2.7148,2.9619,7.3968-0.4778,5.3818-3.9539
			l-1.7463-3.0128c-0.0002-0.0002-0.0002-0.0002-0.0003-0.0004l-2.622-4.5234l-6.5443-11.289l-0.0002-0.0002l-1.9492-3.3625
			c-1.7359-2.9949-1.6522-6.6653,0.0499-9.4557C92.3404,38.2819,92.0148,38.4637,91.6992,38.6751z"/>
		<path class="st1" d="M57.7623,125.339L16.1778,80.1988c-2.7768-3.0143-3.0679-7.4262-0.9936-10.7404
			c-0.7074,0.3601-1.3793,0.8165-1.992,1.3809c-3.6139,3.3292-3.8446,8.9576-0.5156,12.5717l41.5842,45.1405
			c16.6344,17.8919,44.4394,19.1381,62.4351,2.5602c0.5632-0.5187,1.1052-1.051,1.6354-1.5912
			C100.3264,144.3694,73.8323,142.6242,57.7623,125.339z"/>
	</g>
</g>
<g id="thumb_x5F_shadow">
	
		<linearGradient id="SVGID_2_" gradientUnits="userSpaceOnUse" x1="-983.3746" y1="3928.2502" x2="-1079.6682" y2="3831.9565" gradientTransform="matrix(1 0.0059 -0.0059 1 1152.2858 -3789.0679)">
		<stop  offset="0" style="stop-color:#FF9A4D"/>
		<stop  offset="0.1103" style="stop-color:#FFAD46"/>
		<stop  offset="0.2782" style="stop-color:#FFC23D"/>
		<stop  offset="0.4643" style="stop-color:#FFD138"/>
		<stop  offset="0.6807" style="stop-color:#FFDA34"/>
		<stop  offset="0.9995" style="stop-color:#FFDD33"/>
	</linearGradient>
	<path class="st2" d="M142.6665,74.5728l0.0031-0.001l-19.7914-33.0236c-2.5626-4.4205-8.3471-5.8106-12.6619-2.9219
		c-3.9378,2.6363-4.9566,8.0093-2.5803,12.1091l1.9492,3.3625v0.0001l0.6023,1.039l8.5639,14.7736
		c0.7989,1.3782-1.0549,2.7436-2.1342,1.572l-10.0136-10.87l0.0001-0.0002L64.9728,15.4217
		c-3.3292-3.614-8.9578-3.8448-12.5718-0.5155v0.0001c-3.6137,3.3291-3.8448,8.9572-0.516,12.5711l-4.6597-5.0582
		c-3.3293-3.614-8.9579-3.8447-12.5719-0.5155c-3.614,3.3293-3.8447,8.9579-0.5155,12.5718l34.8637,37.845c0,0.0001,0,0,0,0.0001
		L38.7982,39.5344c-3.3293-3.614-8.9579-3.8448-12.5719-0.5155v0.0001c-3.614,3.3292-3.8447,8.9579-0.5154,12.5718l16.82,18.2585
		c-3.3229-2.1306-7.7824-1.8585-10.8217,0.9414c-3.614,3.3292-3.8447,8.9579-0.5155,12.5718l41.5841,45.1402l0,0
		c16.6341,17.8923,44.4395,19.1383,62.4352,2.5602C151.276,116.2652,153.959,92.3881,142.6665,74.5728z"/>
	<g>
		<path class="st1" d="M68.2001,94.3505c0.9768-0.8962,1.0422-2.4154,0.1459-3.3924L38.6499,58.5902l-0.0166,0.0152l-9.4212-10.227
			c-2.7755-3.0129-3.0678-7.4217-0.9971-10.7355c-0.7057,0.3605-1.3774,0.8128-1.9886,1.3759
			c-3.6139,3.3292-3.8448,8.9582-0.5154,12.5719l9.4212,10.227l-0.0209,0.0191l29.6962,32.3678
			C65.7038,95.1816,67.2229,95.247,68.2001,94.3505z"/>
		<path class="st1" d="M51.8856,27.478l9.4212,10.227l-0.0209,0.0191l29.6962,32.3678c0.8964,0.977,2.4155,1.0424,3.3927,0.1459
			c0.9768-0.8962,1.0422-2.4154,0.1459-3.3924L64.8246,34.4776l-0.0165,0.0152l-9.4212-10.227
			c-2.7755-3.0129-3.0678-7.4217-0.9971-10.7355c-0.7057,0.3605-1.3774,0.8128-1.9886,1.3759
			C48.7872,18.2353,48.5563,23.8643,51.8856,27.478z"/>
		<path class="st1" d="M81.3281,82.3575c0.8844-0.8114,1.2318-2.2073,0.1577-3.3781L47.0771,41.4751l-0.0166,0.0152l-9.4212-10.227
			c-2.7755-3.0129-3.0678-7.4217-0.9971-10.7355c-0.7057,0.3605-1.3774,0.8128-1.9886,1.3759
			c-3.6139,3.3292-3.8448,8.9582-0.5154,12.5719l9.4212,10.227l-0.0209,0.0191l34.4086,37.5043
			C79.0207,83.396,80.443,83.1695,81.3281,82.3575z"/>
		<path class="st1" d="M110.2161,38.6264c-3.9376,2.6361-4.9566,8.0092-2.5803,12.1089l1.9492,3.3625l0.0002,0.0002l0.602,1.039
			l1.9841,3.4229l6.5798,11.3508c0.799,1.3779-1.0548,2.7433-2.1341,1.572l2.0005,2.1826c2.7148,2.9619,7.3968-0.4778,5.3818-3.9539
			l-1.7463-3.0128c-0.0002-0.0002-0.0002-0.0002-0.0003-0.0004l-2.622-4.5234l-6.5443-11.289l-0.0002-0.0002l-1.9492-3.3625
			c-1.7359-2.9949-1.6522-6.6653,0.0499-9.4557C110.8574,38.2332,110.5318,38.415,110.2161,38.6264z"/>
		<path class="st1" d="M76.2793,125.2903L34.6948,80.1501c-2.7768-3.0143-3.0679-7.4262-0.9936-10.7404
			c-0.7074,0.3601-1.3793,0.8165-1.992,1.3809c-3.6139,3.3292-3.8446,8.9576-0.5156,12.5717l41.5842,45.1405
			c16.6344,17.8919,44.4394,19.1381,62.4351,2.5602c0.5632-0.5187,1.1052-1.051,1.6354-1.5912
			C118.8433,144.3207,92.3492,142.5756,76.2793,125.2903z"/>
	</g>
</g>
</svg>
