<svg width="40" height="40" viewBox="0 0 40 40" fill="none" xmlns="http://www.w3.org/2000/svg">
<rect x="4" y="4" width="32" height="32" rx="4" fill="black" fill-opacity="0.07"/>
<path fill-rule="evenodd" clip-rule="evenodd" d="M4.5 1C2.567 1 1 2.567 1 4.5V9.5C1 9.77614 0.776142 10 0.5 10C0.223858 10 0 9.77614 0 9.5V4.5C0 2.01472 2.01472 0 4.5 0H9.5C9.77614 0 10 0.223858 10 0.5C10 0.776142 9.77614 1 9.5 1H4.5Z" fill="#C9C9C9"/>
<path fill-rule="evenodd" clip-rule="evenodd" d="M1 35.5C1 37.433 2.567 39 4.5 39L9.5 39C9.77614 39 10 39.2239 10 39.5C10 39.7761 9.77614 40 9.5 40L4.5 40C2.01472 40 -3.02727e-08 37.9853 -6.7616e-08 35.5L-1.42745e-07 30.5C-1.46894e-07 30.2239 0.223857 30 0.5 30C0.776142 30 1 30.2239 1 30.5L1 35.5Z" fill="#C9C9C9"/>
<path fill-rule="evenodd" clip-rule="evenodd" d="M35.5 39C37.433 39 39 37.433 39 35.5L39 30.5C39 30.2239 39.2239 30 39.5 30C39.7761 30 40 30.2239 40 30.5L40 35.5C40 37.9853 37.9853 40 35.5 40L30.5 40C30.2239 40 30 39.7761 30 39.5C30 39.2239 30.2239 39 30.5 39L35.5 39Z" fill="#C9C9C9"/>
<path fill-rule="evenodd" clip-rule="evenodd" d="M39 4.5C39 2.567 37.433 1 35.5 1L30.5 1C30.2239 1 30 0.776142 30 0.5C30 0.223858 30.2239 1.0797e-07 30.5 1.04921e-07L35.5 4.96993e-08C37.9853 2.22511e-08 40 2.01472 40 4.5L40 9.5C40 9.77614 39.7761 10 39.5 10C39.2239 10 39 9.77614 39 9.5L39 4.5Z" fill="#C9C9C9"/>
</svg>
