<svg width="64" height="64" viewBox="0 0 64 64" fill="none" xmlns="http://www.w3.org/2000/svg">
<g clip-path="url(#clip0)" transform="scale(2)">
<path d="M16 32C24.8366 32 32 24.8366 32 16C32 7.16344 24.8366 0 16 0C7.16344 0 0 7.16344 0 16C0 24.8366 7.16344 32 16 32Z" fill="url(#paint0_radial)"/>
<path d="M15.8801 26.4999C13.0201 26.4999 10.3401 25.2199 8.56013 22.9599C8.26013 22.5799 8.32013 21.9999 8.70013 21.6999C9.08013 21.3999 9.66013 21.4599 9.96013 21.8399C11.4001 23.6599 13.5601 24.6999 15.8601 24.6999C18.1801 24.6999 20.3201 23.6599 21.7601 21.8399C22.0601 21.4599 22.6401 21.3799 23.0201 21.6999C23.4001 21.9999 23.4801 22.5799 23.1601 22.9599C21.4001 25.1999 18.7401 26.4999 15.8801 26.4999Z" fill="url(#paint1_linear)"/>
<path d="M10.6398 14.76C11.9542 14.76 13.0198 13.6944 13.0198 12.38C13.0198 11.0656 11.9542 10 10.6398 10C9.32533 10 8.25977 11.0656 8.25977 12.38C8.25977 13.6944 9.32533 14.76 10.6398 14.76Z" fill="url(#paint2_linear)"/>
<path d="M21.0001 14.76C22.3146 14.76 23.3801 13.6944 23.3801 12.38C23.3801 11.0656 22.3146 10 21.0001 10C19.6857 10 18.6201 11.0656 18.6201 12.38C18.6201 13.6944 19.6857 14.76 21.0001 14.76Z" fill="url(#paint3_linear)"/>
<path d="M9.14014 21.3C10.7401 23.24 13.1601 24.5 15.8801 24.5C18.5801 24.5 21.0001 23.26 22.6001 21.34" stroke="url(#paint4_linear)" stroke-width="3" stroke-miterlimit="10" stroke-linecap="round"/>
</g>
<defs>
<radialGradient id="paint0_radial" cx="0" cy="0" r="1" gradientUnits="userSpaceOnUse" gradientTransform="translate(13.6011 13.4821) rotate(45) scale(22.4751)">
<stop stop-color="#FFEF70"/>
<stop offset="0.1496" stop-color="#FEEA6A"/>
<stop offset="0.3432" stop-color="#FCDB5A"/>
<stop offset="0.5608" stop-color="#F8C340"/>
<stop offset="0.7944" stop-color="#F3A11B"/>
<stop offset="0.8545" stop-color="#F19710"/>
<stop offset="0.9853" stop-color="#E69212"/>
</radialGradient>
<linearGradient id="paint1_linear" x1="15.8718" y1="24.7443" x2="15.8718" y2="26.5455" gradientUnits="userSpaceOnUse">
<stop stop-color="#F7BC38"/>
<stop offset="1" stop-color="#FFF279" stop-opacity="0.6"/>
</linearGradient>
<linearGradient id="paint2_linear" x1="9.02706" y1="10.4857" x2="12.205" y2="14.2023" gradientUnits="userSpaceOnUse">
<stop offset="0.0465609" stop-color="#B78C2E"/>
<stop offset="0.1767" stop-color="#B5892C"/>
<stop offset="0.2874" stop-color="#AE7E24"/>
<stop offset="0.3906" stop-color="#A26D18"/>
<stop offset="0.4375" stop-color="#9B6210"/>
<stop offset="1" stop-color="#704B10"/>
</linearGradient>
<linearGradient id="paint3_linear" x1="19.3899" y1="10.4857" x2="22.5678" y2="14.2023" gradientUnits="userSpaceOnUse">
<stop offset="0.0465609" stop-color="#B78C2E"/>
<stop offset="0.1767" stop-color="#B5892C"/>
<stop offset="0.2874" stop-color="#AE7E24"/>
<stop offset="0.3906" stop-color="#A26D18"/>
<stop offset="0.4375" stop-color="#9B6210"/>
<stop offset="1" stop-color="#704B10"/>
</linearGradient>
<linearGradient id="paint4_linear" x1="15.8604" y1="25.3993" x2="15.8604" y2="20.4058" gradientUnits="userSpaceOnUse">
<stop stop-color="#C26A10"/>
<stop offset="0.9748" stop-color="#986010"/>
</linearGradient>
</defs>
</svg>
