<svg width="64" height="64" viewBox="0 0 64 64" fill="none" xmlns="http://www.w3.org/2000/svg">
<g transform="scale(2)">
<path d="M16 32C24.8366 32 32 24.8366 32 16C32 7.16344 24.8366 0 16 0C7.16344 0 0 7.16344 0 16C0 24.8366 7.16344 32 16 32Z" fill="url(#paint0_radial)"/>
<path d="M15.8801 20.6001C18.4001 20.6001 20.7401 21.8801 22.3201 24.1401C22.6001 24.5201 22.5401 25.1001 22.2001 25.4001C21.8601 25.7001 21.3601 25.6401 21.1001 25.2601C19.8401 23.4401 17.9401 22.4001 15.9001 22.4001C13.8601 22.4001 11.9601 23.4401 10.7001 25.2601C10.4201 25.6401 9.94011 25.7201 9.60011 25.4001C9.26011 25.1001 9.20011 24.5201 9.48011 24.1401C11.0001 21.8801 13.3601 20.6001 15.8801 20.6001Z" fill="url(#paint1_linear)"/>
<path d="M9.18018 23.74C10.7402 21.76 13.1402 20.48 15.8602 20.48C18.5802 20.48 21.0002 21.76 22.5402 23.74" stroke="url(#paint2_linear)" stroke-width="3" stroke-miterlimit="10" stroke-linecap="round"/>
<path fill-rule="evenodd" clip-rule="evenodd" d="M7.88012 25.1C9.40012 25.1 10.6401 23.86 10.6401 22.34C10.6401 20.82 7.88012 17.3 7.88012 17.3C7.88012 17.3 5.12012 20.82 5.12012 22.34C5.14012 23.86 6.36012 25.1 7.88012 25.1Z" fill="#E79212"/>
<path fill-rule="evenodd" clip-rule="evenodd" d="M7.88012 23.4599C9.40012 23.4599 10.6401 22.2199 10.6401 20.6999C10.6401 19.1799 7.88012 15.6599 7.88012 15.6599C7.88012 15.6599 5.12012 19.1799 5.12012 20.6999C5.14012 22.2199 6.36012 23.4599 7.88012 23.4599Z" fill="url(#paint3_linear)"/>
<path d="M10.6398 16.22C11.9542 16.22 13.0198 15.1544 13.0198 13.84C13.0198 12.5255 11.9542 11.46 10.6398 11.46C9.32533 11.46 8.25977 12.5255 8.25977 13.84C8.25977 15.1544 9.32533 16.22 10.6398 16.22Z" fill="url(#paint4_linear)"/>
<path d="M21.0802 16.22C22.3946 16.22 23.4602 15.1544 23.4602 13.84C23.4602 12.5255 22.3946 11.46 21.0802 11.46C19.7658 11.46 18.7002 12.5255 18.7002 13.84C18.7002 15.1544 19.7658 16.22 21.0802 16.22Z" fill="url(#paint5_linear)"/>
</g>
<defs>
<radialGradient id="paint0_radial" cx="0" cy="0" r="1" gradientUnits="userSpaceOnUse" gradientTransform="translate(13.6009 13.4827) rotate(45) scale(22.4751)">
<stop stop-color="#FFEF70"/>
<stop offset="0.1496" stop-color="#FEEA6A"/>
<stop offset="0.3432" stop-color="#FCDB5A"/>
<stop offset="0.5608" stop-color="#F8C340"/>
<stop offset="0.7944" stop-color="#F3A11B"/>
<stop offset="0.8545" stop-color="#F19710"/>
<stop offset="0.9853" stop-color="#E69212"/>
</radialGradient>
<linearGradient id="paint1_linear" x1="15.8718" y1="24.8841" x2="15.8718" y2="21.9438" gradientUnits="userSpaceOnUse">
<stop stop-color="#F7BC38"/>
<stop offset="1" stop-color="#FFF279" stop-opacity="0.6"/>
</linearGradient>
<linearGradient id="paint2_linear" x1="15.8719" y1="24.6306" x2="15.8719" y2="19.5682" gradientUnits="userSpaceOnUse">
<stop offset="0.0251727" stop-color="#986010"/>
<stop offset="1" stop-color="#C26A10"/>
</linearGradient>
<linearGradient id="paint3_linear" x1="6.08112" y1="22.5926" x2="10.0671" y2="17.691" gradientUnits="userSpaceOnUse">
<stop stop-color="#B3EFFF"/>
<stop offset="0.284" stop-color="#6FD4FF"/>
<stop offset="0.6208" stop-color="#6DD3FF"/>
<stop offset="0.7421" stop-color="#66D0FF"/>
<stop offset="0.8285" stop-color="#5BCBFF"/>
<stop offset="0.8985" stop-color="#4AC4FF"/>
<stop offset="0.9576" stop-color="#34BBFF"/>
<stop offset="1" stop-color="#1FB2FF"/>
</linearGradient>
<linearGradient id="paint4_linear" x1="9.02707" y1="11.9565" x2="12.205" y2="15.6731" gradientUnits="userSpaceOnUse">
<stop offset="0.0465609" stop-color="#B78C2E"/>
<stop offset="0.1767" stop-color="#B5892C"/>
<stop offset="0.2874" stop-color="#AE7E24"/>
<stop offset="0.3906" stop-color="#A26D18"/>
<stop offset="0.4375" stop-color="#9B6210"/>
<stop offset="1" stop-color="#704B10"/>
</linearGradient>
<linearGradient id="paint5_linear" x1="19.4588" y1="11.9565" x2="22.6368" y2="15.6731" gradientUnits="userSpaceOnUse">
<stop offset="0.0465609" stop-color="#B78C2E"/>
<stop offset="0.1767" stop-color="#B5892C"/>
<stop offset="0.2874" stop-color="#AE7E24"/>
<stop offset="0.3906" stop-color="#A26D18"/>
<stop offset="0.4375" stop-color="#9B6210"/>
<stop offset="1" stop-color="#704B10"/>
</linearGradient>
</defs>
</svg>
