<svg width="64" height="64" viewBox="0 0 64 64" fill="none" xmlns="http://www.w3.org/2000/svg">
<g clip-path="url(#clip0)" transform="scale(2)">
<path d="M27.3134 27.3134C21.065 33.5618 10.9342 33.5618 4.68581 27.3134C-1.56259 21.065 -1.56259 10.9342 4.68581 4.68581C10.9342 -1.56259 21.065 -1.56259 27.3134 4.68581C33.5618 10.9342 33.5618 21.065 27.3134 27.3134Z" fill="url(#paint0_radial)"/>
<path d="M25.9887 18.1752C23.7661 18.0848 7.97692 18.0848 5.75432 18.1752C5.23512 18.1964 4.84912 18.5914 4.89652 19.041C5.34112 23.244 8.96412 29.8934 15.8715 29.8934C22.7789 29.8934 26.4019 23.244 26.8465 19.041C26.8939 18.5914 26.5079 18.1964 25.9887 18.1752Z" fill="url(#paint1_linear)"/>
<path d="M25.9887 17.1965C23.7661 17.1061 7.97692 17.1061 5.75432 17.1965C5.23512 17.2177 4.84912 17.6127 4.89652 18.0623C5.34112 22.2653 8.96412 28.9147 15.8715 28.9147C22.7789 28.9147 26.4019 22.2653 26.8465 18.0623C26.8939 17.6127 26.5079 17.2177 25.9887 17.1965Z" fill="url(#paint2_linear)"/>
<path d="M16.0185 17.1475H6.55713C6.63133 17.3957 6.72293 17.5853 6.83173 17.6715C8.80293 19.2059 12.4067 19.9733 16.0185 19.9791C19.6303 19.9733 23.2341 19.2059 25.2053 17.6715C25.3141 17.5853 25.4057 17.3957 25.4799 17.1475H16.0185Z" fill="url(#paint3_linear)"/>
<path d="M6.64792 14.9765C6.46132 14.9765 6.27472 14.9059 6.13172 14.7643C5.84372 14.4791 5.84112 14.0145 6.12632 13.7263C7.54692 12.2909 9.53892 11.7249 10.9535 11.5025C9.96312 10.8081 8.55852 10.1663 7.34072 10.2477C6.93592 10.2755 6.58672 9.96809 6.56012 9.56369C6.53352 9.15929 6.83992 8.80969 7.24432 8.78309C9.76312 8.61649 12.4595 10.5429 13.2617 11.6677C13.4227 11.8933 13.4429 12.1903 13.3139 12.4355C13.1849 12.6809 12.9291 12.8333 12.6517 12.8277C12.6177 12.8239 9.10852 12.7995 7.16952 14.7589C7.02592 14.9039 6.83692 14.9765 6.64792 14.9765Z" fill="url(#paint4_linear)"/>
<path d="M6.64792 14.4218C6.46132 14.4218 6.27472 14.3512 6.13172 14.2096C5.84372 13.9244 5.84112 13.4598 6.12632 13.1716C7.54692 11.7362 9.53892 11.1702 10.9535 10.9478C9.96312 10.2534 8.55852 9.6116 7.34072 9.693C6.93592 9.7208 6.58672 9.4134 6.56012 9.009C6.53352 8.6046 6.83992 8.255 7.24432 8.2284C9.76312 8.0618 12.4595 9.9882 13.2617 11.113C13.4227 11.3386 13.4429 11.6356 13.3139 11.8808C13.1849 12.1262 12.9291 12.2786 12.6517 12.273C12.6177 12.2692 9.10852 12.2448 7.16952 14.2042C7.02592 14.3492 6.83692 14.4218 6.64792 14.4218Z" fill="url(#paint5_linear)"/>
<path d="M25.0955 14.9765C25.2821 14.9765 25.4687 14.9059 25.6117 14.7643C25.8997 14.4791 25.9023 14.0145 25.6171 13.7263C24.1965 12.2909 22.2045 11.7249 20.79 11.5025C21.7804 10.8081 23.1849 10.1663 24.4027 10.2477C24.8075 10.2755 25.1567 9.96809 25.1833 9.56369C25.2099 9.15929 24.9035 8.80969 24.4991 8.78309C21.9804 8.61649 19.284 10.5429 18.4818 11.6677C18.3208 11.8933 18.3006 12.1903 18.4296 12.4355C18.5586 12.6809 18.8144 12.8333 19.0918 12.8277C19.1258 12.8239 22.6349 12.7995 24.5739 14.7589C24.7175 14.9039 24.9065 14.9765 25.0955 14.9765Z" fill="url(#paint6_linear)"/>
<path d="M25.0955 14.4218C25.2821 14.4218 25.4687 14.3512 25.6117 14.2096C25.8997 13.9244 25.9023 13.4598 25.6171 13.1716C24.1965 11.7362 22.2045 11.1702 20.79 10.9478C21.7804 10.2534 23.1849 9.6116 24.4027 9.693C24.8075 9.7208 25.1567 9.4134 25.1833 9.009C25.2099 8.6046 24.9035 8.255 24.4991 8.2284C21.9804 8.0618 19.284 9.9882 18.4818 11.113C18.3208 11.3386 18.3006 11.6356 18.4296 11.8808C18.5586 12.1262 18.8144 12.2786 19.0918 12.273C19.1258 12.2692 22.6349 12.2448 24.5739 14.2042C24.7175 14.3492 24.9065 14.4218 25.0955 14.4218Z" fill="url(#paint7_linear)"/>
</g>
<defs>
<radialGradient id="paint0_radial" cx="0" cy="0" r="1" gradientUnits="userSpaceOnUse" gradientTransform="translate(12.1996 13.5996) scale(23.3632)">
<stop stop-color="#FFEF70"/>
<stop offset="0.558" stop-color="#F8C340"/>
<stop offset="0.854" stop-color="#F19710"/>
<stop offset="0.92" stop-color="#EC9411"/>
<stop offset="0.985" stop-color="#E69212"/>
</radialGradient>
<linearGradient id="paint1_linear" x1="15.7999" y1="22.4" x2="15.7999" y2="37.9214" gradientUnits="userSpaceOnUse">
<stop stop-color="#F7C234"/>
<stop offset="0.5" stop-color="#F5BD36"/>
<stop offset="1" stop-color="#F3B938"/>
</linearGradient>
<linearGradient id="paint2_linear" x1="15.7999" y1="29.3999" x2="15.7999" y2="21.4357" gradientUnits="userSpaceOnUse">
<stop stop-color="#E08713"/>
<stop offset="0.5" stop-color="#AC6B13"/>
<stop offset="1" stop-color="#784F12"/>
</linearGradient>
<linearGradient id="paint3_linear" x1="15.9997" y1="16.6001" x2="15.9997" y2="20.7003" gradientUnits="userSpaceOnUse">
<stop stop-color="#7A5011"/>
<stop offset="0.162" stop-color="#BCA888"/>
<stop offset="1" stop-color="white"/>
</linearGradient>
<linearGradient id="paint4_linear" x1="9.59992" y1="9.19989" x2="9.59992" y2="13.1199" gradientUnits="userSpaceOnUse">
<stop stop-color="#FBCF37"/>
<stop offset="0.5" stop-color="#FCDD52"/>
<stop offset="1" stop-color="#FEEB6C"/>
</linearGradient>
<linearGradient id="paint5_linear" x1="9.39992" y1="11.6976" x2="9.91412" y2="13.636" gradientUnits="userSpaceOnUse">
<stop stop-color="#784F12"/>
<stop offset="0.5" stop-color="#AB6A11"/>
<stop offset="1" stop-color="#DE8510"/>
</linearGradient>
<linearGradient id="paint6_linear" x1="22.0002" y1="9.79989" x2="21.8681" y2="14.1155" gradientUnits="userSpaceOnUse">
<stop stop-color="#F7BE2B"/>
<stop offset="0.5" stop-color="#FAD44B"/>
<stop offset="1" stop-color="#FEEB6C"/>
</linearGradient>
<linearGradient id="paint7_linear" x1="22.2001" y1="11.4976" x2="21.5837" y2="13.6114" gradientUnits="userSpaceOnUse">
<stop stop-color="#784F12"/>
<stop offset="0.5" stop-color="#AB6A11"/>
<stop offset="1" stop-color="#DE8510"/>
</linearGradient>
<clipPath id="clip0">
<rect width="32" height="32" fill="white"/>
</clipPath>
</defs>
</svg>
