<svg width="64" height="64" viewBox="0 0 64 64" fill="none" xmlns="http://www.w3.org/2000/svg">
<g clip-path="url(#clip0)" transform="scale(2)">
<path d="M27.3134 27.3134C21.065 33.5618 10.9342 33.5618 4.68581 27.3134C-1.56259 21.065 -1.56259 10.9342 4.68581 4.68581C10.9342 -1.56259 21.065 -1.56259 27.3134 4.68581C33.5618 10.9342 33.5618 21.065 27.3134 27.3134Z" fill="url(#paint0_radial)"/>
<path d="M13.0181 11.1743C13.0181 9.86132 11.9539 8.79712 10.6409 8.79712C9.32787 8.79712 8.26367 9.86132 8.26367 11.1743C8.26367 12.4873 9.32787 13.5515 10.6409 13.5515C11.9539 13.5515 13.0181 12.4873 13.0181 11.1743Z" fill="url(#paint1_linear)"/>
<path d="M23.3804 11.0625C23.3804 9.7495 22.3162 8.6853 21.0032 8.6853C19.6902 8.6853 18.626 9.7495 18.626 11.0625C18.626 12.3755 19.6902 13.4397 21.0032 13.4397C22.3162 13.4397 23.3804 12.3755 23.3804 11.0625Z" fill="url(#paint2_linear)"/>
<path d="M19.9697 23.8373C19.9697 21.6463 18.1655 19.3665 15.9397 19.3665C13.7139 19.3665 11.9097 21.6463 11.9097 23.8373C11.9097 26.0282 13.7139 28.308 15.9397 28.308C18.1655 28.308 19.9697 26.0282 19.9697 23.8373Z" fill="#FBD758"/>
<path d="M19.9062 22.7218C19.9062 20.5308 18.102 18.251 15.8762 18.251C13.6504 18.251 11.8462 20.5308 11.8462 22.7218C11.8462 24.9128 13.6504 27.1926 15.8762 27.1926C18.102 27.1926 19.9062 24.9128 19.9062 22.7218Z" fill="url(#paint3_linear)"/>
</g>
<defs>
<radialGradient id="paint0_radial" cx="0" cy="0" r="1" gradientUnits="userSpaceOnUse" gradientTransform="translate(12.1996 13.5996) scale(23.3632)">
<stop stop-color="#FFEF70"/>
<stop offset="0.558" stop-color="#F8C340"/>
<stop offset="0.854" stop-color="#F19710"/>
<stop offset="0.92" stop-color="#EC9411"/>
<stop offset="0.985" stop-color="#E69212"/>
</radialGradient>
<linearGradient id="paint1_linear" x1="8.99987" y1="9.20132" x2="12.1779" y2="12.9179" gradientUnits="userSpaceOnUse">
<stop offset="0.047" stop-color="#B78C2E"/>
<stop offset="0.335" stop-color="#A9771F"/>
<stop offset="0.437" stop-color="#9B6210"/>
<stop offset="0.719" stop-color="#865610"/>
<stop offset="1" stop-color="#704B10"/>
</linearGradient>
<linearGradient id="paint2_linear" x1="19.1996" y1="9.0895" x2="22.3776" y2="12.8061" gradientUnits="userSpaceOnUse">
<stop offset="0.047" stop-color="#B78C2E"/>
<stop offset="0.335" stop-color="#A9771F"/>
<stop offset="0.437" stop-color="#9B6210"/>
<stop offset="0.719" stop-color="#865610"/>
<stop offset="1" stop-color="#704B10"/>
</linearGradient>
<linearGradient id="paint3_linear" x1="15.6762" y1="26.3" x2="15.6762" y2="18.7432" gradientUnits="userSpaceOnUse">
<stop stop-color="#DE8510"/>
<stop offset="0.266" stop-color="#AB6A11"/>
<stop offset="0.631" stop-color="#784F12"/>
</linearGradient>
<clipPath id="clip0">
<rect width="32" height="32" fill="white"/>
</clipPath>
</defs>
</svg>
