<?xml version="1.0" encoding="utf-8"?>
<!-- Generator: Adobe Illustrator 25.0.1, SVG Export Plug-In . SVG Version: 6.00 Build 0)  -->
<svg version="1.1" xmlns="http://www.w3.org/2000/svg" xmlns:xlink="http://www.w3.org/1999/xlink" x="0px" y="0px"
	 viewBox="0 0 158.875 158.875" style="enable-background:new 0 0 158.875 158.875;" xml:space="preserve">
<style type="text/css">
	.st0{fill:url(#Path-2_1_);}
	.st1{fill:none;stroke:#D68004;stroke-width:3.3237;stroke-linecap:round;stroke-miterlimit:2.6;}
</style>
<g id="thumb-down-40" shape-rendering="geometricPrecision" text-rendering="geometricPrecision">
	<g id="thumb-Outlines-3">
		<g transform="translate(24,54.75) scale(1,-1) translate(-24,-100.75)">
			<g id="thumb-Outlines-2" transform="translate(24,114.75) rotate(-180) scale(-1,-1) translate(-24,-114.75)">
				
					<linearGradient id="Path-2_1_" gradientUnits="userSpaceOnUse" x1="2903.8518" y1="-2309.6243" x2="2597.7268" y2="-2456.8743" gradientTransform="matrix(0.26 0 0 0.26 -651.0262 695.6663)">
					<stop  offset="0" style="stop-color:#FFDD33"/>
					<stop  offset="0.5" style="stop-color:#FFBB40"/>
					<stop  offset="1" style="stop-color:#FF9A4D"/>
				</linearGradient>
				<path id="Path-2" class="st0" d="M86.8497,13.3184c-2.815,5.7569-1.2644,17.8066-4.3957,29.3404
					c-1.3128,4.835-10.878,14.9825-28.6956,30.4426c-0.4201,0.3647-0.803,0.7607-1.1496,1.1848
					c-3.2693,4.0068-8.3532,6.0863-13.5247,6.1165l-17.6705,0.0987c-3.6713,0-6.6485,2.9772-6.6485,6.6485v49.3463
					c0,3.6713,2.9772,6.6475,6.6485,6.6475h30.1071c1.8488,0,3.6844,0.2428,5.4879,0.6549
					c16.7003,3.8255,32.5826,3.4436,48.8768,3.0638c5.8002-0.137,11.6527-0.272,17.6141-0.2176
					c4.9841,0.0453,9.4443-3.5817,9.9601-8.5406c0.5279-5.0718-2.9147-9.4483-7.5986-10.3984
					c1.2785-0.128,2.2346-0.1924,2.8694-0.1924c5.2823,0,9.5652-4.2819,9.5652-9.5662c0-4.167-5.2984-9.5662-4.7826-9.5662
					c5.2833,0,9.5662-4.2829,9.5662-9.5652c0-5.2833-4.2829-9.5662-9.5662-9.5662c5.3831,0,9.7294-4.4481,9.5612-9.8695
					c-0.1612-5.1947-4.6667-9.4171-9.8604-9.2569c-0.7708,0.0232-1.5183,0.137-2.2326,0.3335l-0.0171-0.3395
					c-27.4373,0-22.8753-0.9843-26.2021-2.957c-4.9922-2.957,7.1996-16.2419,7.3165-30.2381
					c0.1068-12.7983-4.0522-31.7161-12.9575-31.8884C92.5975,4.9078,89.1569,8.6003,86.8497,13.3184z"/>
			</g>
		</g>
	</g>
</g>
<g id="fingers">
	<g id="thumb-Outlines-3-2">
		<g transform="translate(24,54.75) scale(1,-1) translate(-24,-100.75)">
			<g id="Group-4" transform="translate(112.721,81.434)">
				<path id="Path-1" class="st1" d="M-15.9958,7.8288h36.3949c5.3801,0,9.7405-4.3605,9.7405-9.7405
					c0-5.379-4.3605-9.7405-9.7405-9.7405h-36.3949c-5.38,0-9.7405,4.3615-9.7405,9.7405
					C-25.7363,3.4683-21.3759,7.8288-15.9958,7.8288z"/>
			</g>
			<g id="Group-3" transform="translate(110.603,100.77)">
				<path id="Path-1-2" class="st1" d="M-18.1446,7.9738h40.6617c5.3801,0,9.7405-4.3605,9.7405-9.7405
					c0-5.379-4.3605-9.7405-9.7405-9.7405h-40.6617c-5.38,0-9.7415,4.3615-9.7415,9.7405
					C-27.8861,3.6133-23.5246,7.9738-18.1446,7.9738z"/>
			</g>
			<g id="Group-2" transform="translate(111.038,120.105)">
				<path id="Path-1-3" class="st1" d="M-13.2711,8.1188h30.9212c5.3801,0,9.7405-4.3605,9.7405-9.7405
					c0-5.379-4.3605-9.7405-9.7405-9.7405h-30.9212c-5.38,0-9.7415,4.3615-9.7415,9.7405
					C-23.0126,3.7583-18.6511,8.1188-13.2711,8.1188z"/>
			</g>
			<g id="Group-1" transform="translate(113.096,138.81)">
				<path id="Path-1-4" class="st1" d="M-7.3869,7.6223h19.1828c5.0284,0,9.1038-4.0763,9.1038-9.1038s-4.0753-9.1038-9.1038-9.1038
					H-7.3869c-5.0274,0-9.1038,4.0763-9.1038,9.1038S-12.4144,7.6223-7.3869,7.6223z"/>
			</g>
		</g>
	</g>
</g>
</svg>
