<svg xmlns="http://www.w3.org/2000/svg" xmlns:xlink="http://www.w3.org/1999/xlink" viewBox="0 0 117.11 129.11"><defs><style>.cls-1{fill-rule:evenodd;fill:url(#linear-gradient);}.cls-2{fill:none;stroke:#d68004;stroke-linecap:round;stroke-miterlimit:10;stroke-width:3px;}</style><linearGradient id="linear-gradient" x1="116.23" y1="105.75" x2="14.66" y2="47.11" gradientUnits="userSpaceOnUse"><stop offset="0" stop-color="#fd3"/><stop offset="0.32" stop-color="#ffda34"/><stop offset="0.54" stop-color="#ffd138"/><stop offset="0.72" stop-color="#ffc23d"/><stop offset="0.89" stop-color="#ffad46"/><stop offset="1" stop-color="#ff9a4d"/></linearGradient></defs><title>thumbup</title><g id="Layer_2" data-name="Layer 2"><g id="Layer_1-2" data-name="Layer 1"><path class="cls-1" d="M6,68.11a6,6,0,0,0-6,6v44.53a6,6,0,0,0,6,6H33.17a22.26,22.26,0,0,1,4.95.59c20.44,4.69,39.52,2.39,60,2.57a8.85,8.85,0,0,0,9-7.7,8.64,8.64,0,0,0-6.86-9.39c1.16-.12,2-.17,2.59-.17a8.64,8.64,0,0,0,8.64-8.64c0-3.76-4.79-8.63-4.32-8.63a8.64,8.64,0,0,0,0-17.27,8.63,8.63,0,0,0,8.63-8.9,8.74,8.74,0,0,0-8.9-8.36,9,9,0,0,0-2,.3v-.3c-24.76,0-20.65-.89-23.65-2.67-4.5-2.67,6.5-14.66,6.6-27.29C87.92,17.23,84.17,0,76.13,0s-8,2.33-10.34,4.64C61.5,9,63.91,23.55,61.09,34Q59.3,40.5,35.19,61.43a9.54,9.54,0,0,0-1,1.07A15.78,15.78,0,0,1,22,68Z"/><rect class="cls-2" x="65.18" y="58.43" width="50.43" height="17.58" rx="8.79"/><rect class="cls-2" x="61.33" y="76.02" width="54.28" height="17.58" rx="8.79"/><rect class="cls-2" x="66.12" y="93.6" width="45.49" height="17.58" rx="8.79"/><rect class="cls-2" x="73.86" y="111.18" width="33.74" height="16.43" rx="8.22"/></g></g></svg>